<?xml version="1.0" encoding="UTF-8" standalone="no" ?>
<COLLADA xmlns="http://www.collada.org/2005/11/COLLADASchema" version="1.4.1">
  <asset>
    <contributor>
      <author>Assimp</author>
      <authoring_tool>FBX SDK/FBX Plugins version 2020.3.2</authoring_tool>
    </contributor>
    <created>2026-05-28T19:27:50</created>
    <modified>2026-05-28T19:27:50</modified>
    <unit name="meter" meter="1" />
    <up_axis>Z_UP</up_axis>
  </asset>
  <library_images>
  </library_images>
  <library_effects>
    <effect id="Material-YVFb1q.078-fx" name="Material-塑胶.078">
      <profile_COMMON>
        <technique sid="standard">
          <phong>
            <emission>
              <color sid="emission">0   0   0   1</color>
            </emission>
            <ambient>
              <color sid="ambient">0.588235021   0.588235021   0.588235021   1</color>
            </ambient>
            <diffuse>
              <color sid="diffuse">0.588235021   0.588235021   0.588235021   1</color>
            </diffuse>
            <specular>
              <color sid="specular">0   0   0   1</color>
            </specular>
            <shininess>
              <float sid="shininess">1024</float>
            </shininess>
          </phong>
        </technique>
      </profile_COMMON>
    </effect>
  </library_effects>
  <library_materials>
    <material id="Material-YVFb1q.078" name="Material-塑胶.078">
      <instance_effect url="#Material-YVFb1q.078-fx"/>
    </material>
  </library_materials>
  <library_geometries>
    <geometry id="Box001" name="Box001" >
      <mesh>
        <source id="Box001-positions" name="Box001-positions">
          <float_array id="Box001-positions-array" count="1566">0.0319453105 -2.46564713e-10 0 0.0308567975 0.00826805457 0 0.0308567993 0.00826805364 0.0529999584 0.0308567993 0.00826805364 0.0529999584 0.0319453068 -3.48591517e-10 0.0529999584 0.0319453105 -2.46564713e-10 0 0.0308567975 0.00826805457 0 0.0276654456 0.0159726534 0 0.0276654474 0.0159726553 0.0529999584 0.0276654474 0.0159726553 0.0529999584 0.0308567993 0.00826805364 0.0529999584 0.0308567975 0.00826805457 0 0.0276654456 0.0159726534 0 0.0225887429 0.0225887429 0 0.0225887448 0.0225887448 0.0529999584 0.0225887448 0.0225887448 0.0529999584 0.0276654474 0.0159726553 0.0529999584 0.0276654456 0.0159726534 0 0.0225887429 0.0225887429 0 0.0159726515 0.0276654493 0 0.0159726553 0.0276654512 0.0529999584 0.0159726553 0.0276654512 0.0529999584 0.0225887448 0.0225887448 0.0529999584 0.0225887429 0.0225887429 0 0.0159726515 0.0276654493 0 0.00826805457 0.0308567975 0 0.00826805364 0.0308567993 0.0529999584 0.00826805364 0.0308567993 0.0529999584 0.0159726553 0.0276654512 0.0529999584 0.0159726515 0.0276654493 0 0.00826805457 0.0308567975 0 1.20448718e-09 0.0319453105 0 1.06845155e-09 0.0319453105 0.0529999584 1.06845155e-09 0.0319453105 0.0529999584 0.00826805364 0.0308567993 0.0529999584 0.00826805457 0.0308567975 0 1.20448718e-09 0.0319453105 0 -0.00826805085 0.0308567975 0 -0.00826805178 0.0308567993 0.0529999584 -0.00826805178 0.0308567993 0.0529999584 1.06845155e-09 0.0319453105 0.0529999584 1.20448718e-09 0.0319453105 0 -0.00826805085 0.0308567975 0 -0.0159726515 0.0276654512 0 -0.0159726478 0.027665453 0.0529999584 -0.0159726478 0.027665453 0.0529999584 -0.00826805178 0.0308567993 0.0529999584 -0.00826805085 0.0308567975 0 -0.0159726515 0.0276654512 0 -0.022588741 0.0225887485 0 -0.0225887373 0.0225887503 0.0529999584 -0.0225887373 0.0225887503 0.0529999584 -0.0159726478 0.027665453 0.0529999584 -0.0159726515 0.0276654512 0 -0.022588741 0.0225887485 0 -0.0276654456 0.0159726609 0 -0.0276654437 0.0159726627 0.0529999584 -0.0276654437 0.0159726627 0.0529999584 -0.0225887373 0.0225887503 0.0529999584 -0.022588741 0.0225887485 0 -0.0276654456 0.0159726609 0 -0.0308567993 0.00826806482 0 -0.0308567956 0.00826806389 0.0529999584 -0.0308567956 0.00826806389 0.0529999584 -0.0276654437 0.0159726627 0.0529999584 -0.0276654456 0.0159726609 0 -0.0308567993 0.00826806482 0 -0.0319453105 1.21933983e-08 0 -0.0319453143 1.20913715e-08 0.0529999584 -0.0319453143 1.20913715e-08 0.0529999584 -0.0308567956 0.00826806389 0.0529999584 -0.0308567993 0.00826806482 0 -0.0319453105 1.21933983e-08 0 -0.0308568049 -0.0082680406 0 -0.0308568031 -0.00826804154 0.0529999584 -0.0308568031 -0.00826804154 0.0529999584 -0.0319453143 1.20913715e-08 0.0529999584 -0.0319453105 1.21933983e-08 0 -0.0308568049 -0.0082680406 0 -0.0276654586 -0.0159726441 0 -0.0276654549 -0.0159726422 0.0529999584 -0.0276654549 -0.0159726422 0.0529999584 -0.0308568031 -0.00826804154 0.0529999584 -0.0308568049 -0.0082680406 0 -0.0276654586 -0.0159726441 0 -0.0225887597 -0.0225887354 0 -0.0225887559 -0.0225887336 0.0529999584 -0.0225887559 -0.0225887336 0.0529999584 -0.0276654549 -0.0159726422 0.0529999584 -0.0276654586 -0.0159726441 0 -0.0225887597 -0.0225887354 0 -0.0159726664 -0.0276654456 0 -0.0159726627 -0.0276654437 0.0529999584 -0.0159726627 -0.0276654437 0.0529999584 -0.0225887559 -0.0225887336 0.0529999584 -0.0225887597 -0.0225887354 0 -0.0159726664 -0.0276654456 0 -0.00826806761 -0.0308567956 0 -0.00826806854 -0.0308567937 0.0529999584 -0.00826806854 -0.0308567937 0.0529999584 -0.0159726627 -0.0276654437 0.0529999584 -0.0159726664 -0.0276654456 0 -0.00826806761 -0.0308567956 0 -1.6059083e-08 -0.0319453105 0 -1.61951199e-08 -0.0319453105 0.0529999584 -1.61951199e-08 -0.0319453105 0.0529999584 -0.00826806854 -0.0308567937 0.0529999584 -0.00826806761 -0.0308567956 0 -1.6059083e-08 -0.0319453105 0 0.00826803688 -0.0308568049 0 0.00826803595 -0.0308568031 0.0529999584 0.00826803595 -0.0308568031 0.0529999584 -1.61951199e-08 -0.0319453105 0.0529999584 -1.6059083e-08 -0.0319453105 0 0.00826803688 -0.0308568049 0 0.0159726366 -0.0276654605 0 0.0159726404 -0.0276654586 0.0529999584 0.0159726404 -0.0276654586 0.0529999584 0.00826803595 -0.0308568031 0.0529999584 0.00826803688 -0.0308568049 0 0.0159726366 -0.0276654605 0 0.0225887299 -0.0225887615 0 0.0225887336 -0.0225887597 0.0529999584 0.0225887336 -0.0225887597 0.0529999584 0.0159726404 -0.0276654586 0.0529999584 0.0159726366 -0.0276654605 0 0.0225887299 -0.0225887615 0 0.0276654363 -0.0159726758 0 0.02766544 -0.0159726739 0.0529999584 0.02766544 -0.0159726739 0.0529999584 0.0225887336 -0.0225887597 0.0529999584 0.0225887299 -0.0225887615 0 0.0276654363 -0.0159726758 0 0.0308567919 -0.00826807693 0 0.0308567956 -0.00826807786 0.0529999584 0.0308567956 -0.00826807786 0.0529999584 0.02766544 -0.0159726739 0.0529999584 0.0276654363 -0.0159726758 0 0.0308567919 -0.00826807693 0 0.0319453105 -2.46564713e-10 0 0.0319453068 -3.48591517e-10 0.0529999584 0.0319453068 -3.48591517e-10 0.0529999584 0.0308567956 -0.00826807786 0.0529999584 0.0308567919 -0.00826807693 0 0.0308567919 -0.00826807693 0 0.0276654363 -0.0159726758 0 0.0225887299 -0.0225887615 0 0.0225887299 -0.0225887615 0 0.0159726366 -0.0276654605 0 0.00826803688 -0.0308568049 0 0.00826803688 -0.0308568049 0 -1.6059083e-08 -0.0319453105 0 -0.00826806761 -0.0308567956 0 0.0225887299 -0.0225887615 0 0.00826803688 -0.0308568049 0 -0.00826806761 -0.0308567956 0 -0.00826806761 -0.0308567956 0 -0.0159726664 -0.0276654456 0 -0.0225887597 -0.0225887354 0 -0.0225887597 -0.0225887354 0 -0.0276654586 -0.0159726441 0 -0.0308568049 -0.0082680406 0 -0.00826806761 -0.0308567956 0 -0.0225887597 -0.0225887354 0 -0.0308568049 -0.0082680406 0 -0.0308568049 -0.0082680406 0 -0.0319453105 1.21933983e-08 0 -0.0308567993 0.00826806482 0 -0.0308567993 0.00826806482 0 -0.0276654456 0.0159726609 0 -0.022588741 0.0225887485 0 -0.0308568049 -0.0082680406 0 -0.0308567993 0.00826806482 0 -0.022588741 0.0225887485 0 -0.00826806761 -0.0308567956 0 -0.0308568049 -0.0082680406 0 -0.022588741 0.0225887485 0 -0.022588741 0.0225887485 0 -0.0159726515 0.0276654512 0 -0.00826805085 0.0308567975 0 -0.00826805085 0.0308567975 0 1.20448718e-09 0.0319453105 0 0.00826805457 0.0308567975 0 -0.022588741 0.0225887485 0 -0.00826805085 0.0308567975 0 0.00826805457 0.0308567975 0 0.00826805457 0.0308567975 0 0.0159726515 0.0276654493 0 0.0225887429 0.0225887429 0 0.0225887429 0.0225887429 0 0.0276654456 0.0159726534 0 0.0308567975 0.00826805457 0 0.00826805457 0.0308567975 0 0.0225887429 0.0225887429 0 0.0308567975 0.00826805457 0 -0.022588741 0.0225887485 0 0.00826805457 0.0308567975 0 0.0308567975 0.00826805457 0 -0.00826806761 -0.0308567956 0 -0.022588741 0.0225887485 0 0.0308567975 0.00826805457 0 0.0225887299 -0.0225887615 0 -0.00826806761 -0.0308567956 0 0.0308567975 0.00826805457 0 0.0308567919 -0.00826807693 0 0.0225887299 -0.0225887615 0 0.0308567975 0.00826805457 0 0.0319453105 -2.46564713e-10 0 0.0308567919 -0.00826807693 0 0.0308567975 0.00826805457 0 0.0276654474 0.0159726553 0.0529999584 0.0225887448 0.0225887448 0.0529999584 0.0159726553 0.0276654512 0.0529999584 0.0159726553 0.0276654512 0.0529999584 0.00826805364 0.0308567993 0.0529999584 1.06845155e-09 0.0319453105 0.0529999584 1.06845155e-09 0.0319453105 0.0529999584 -0.00826805178 0.0308567993 0.0529999584 -0.0159726478 0.027665453 0.0529999584 0.0159726553 0.0276654512 0.0529999584 1.06845155e-09 0.0319453105 0.0529999584 -0.0159726478 0.027665453 0.0529999584 -0.0159726478 0.027665453 0.0529999584 -0.0225887373 0.0225887503 0.0529999584 -0.0276654437 0.0159726627 0.0529999584 -0.0276654437 0.0159726627 0.0529999584 -0.0308567956 0.00826806389 0.0529999584 -0.0319453143 1.20913715e-08 0.0529999584 -0.0159726478 0.027665453 0.0529999584 -0.0276654437 0.0159726627 0.0529999584 -0.0319453143 1.20913715e-08 0.0529999584 -0.0319453143 1.20913715e-08 0.0529999584 -0.0308568031 -0.00826804154 0.0529999584 -0.0276654549 -0.0159726422 0.0529999584 -0.0276654549 -0.0159726422 0.0529999584 -0.0225887559 -0.0225887336 0.0529999584 -0.0159726627 -0.0276654437 0.0529999584 -0.0319453143 1.20913715e-08 0.0529999584 -0.0276654549 -0.0159726422 0.0529999584 -0.0159726627 -0.0276654437 0.0529999584 -0.0159726478 0.027665453 0.0529999584 -0.0319453143 1.20913715e-08 0.0529999584 -0.0159726627 -0.0276654437 0.0529999584 -0.0159726627 -0.0276654437 0.0529999584 -0.00826806854 -0.0308567937 0.0529999584 -1.61951199e-08 -0.0319453105 0.0529999584 -1.61951199e-08 -0.0319453105 0.0529999584 0.00826803595 -0.0308568031 0.0529999584 0.0159726404 -0.0276654586 0.0529999584 -0.0159726627 -0.0276654437 0.0529999584 -1.61951199e-08 -0.0319453105 0.0529999584 0.0159726404 -0.0276654586 0.0529999584 0.0159726404 -0.0276654586 0.0529999584 0.0225887336 -0.0225887597 0.0529999584 0.02766544 -0.0159726739 0.0529999584 0.02766544 -0.0159726739 0.0529999584 0.0308567956 -0.00826807786 0.0529999584 0.0319453068 -3.48591517e-10 0.0529999584 0.0159726404 -0.0276654586 0.0529999584 0.02766544 -0.0159726739 0.0529999584 0.0319453068 -3.48591517e-10 0.0529999584 -0.0159726627 -0.0276654437 0.0529999584 0.0159726404 -0.0276654586 0.0529999584 0.0319453068 -3.48591517e-10 0.0529999584 -0.0159726478 0.027665453 0.0529999584 -0.0159726627 -0.0276654437 0.0529999584 0.0319453068 -3.48591517e-10 0.0529999584 0.0159726553 0.0276654512 0.0529999584 -0.0159726478 0.027665453 0.0529999584 0.0319453068 -3.48591517e-10 0.0529999584 0.0276654474 0.0159726553 0.0529999584 0.0159726553 0.0276654512 0.0529999584 0.0319453068 -3.48591517e-10 0.0529999584 0.0308567993 0.00826805364 0.0529999584 0.0276654474 0.0159726553 0.0529999584 0.0319453068 -3.48591517e-10 0.0529999584 0.0150522087 -0.129999995 0.0294989292 0.0130355917 -0.129999995 0.0219728239 0.0130355926 -0.053211242 0.021972822 0.0130355926 -0.053211242 0.021972822 0.0150522077 -0.053211242 0.0294989273 0.0150522087 -0.129999995 0.0294989292 0.0130355917 -0.129999995 0.0219728239 0.00752610154 -0.129999995 0.0164633319 0.00752610294 -0.053211242 0.0164633282 0.00752610294 -0.053211242 0.0164633282 0.0130355926 -0.053211242 0.021972822 0.0130355917 -0.129999995 0.0219728239 0.00752610154 -0.129999995 0.0164633319 -2.42847653e-09 -0.129999995 0.0144467168 -1.8859474e-09 -0.053211242 0.014446714 -1.8859474e-09 -0.053211242 0.014446714 0.00752610294 -0.053211242 0.0164633282 0.00752610154 -0.129999995 0.0164633319 -2.42847653e-09 -0.129999995 0.0144467168 -0.00752610713 -0.129999995 0.0164633319 -0.00752610527 -0.053211242 0.0164633282 -0.00752610527 -0.053211242 0.0164633282 -1.8859474e-09 -0.053211242 0.014446714 -2.42847653e-09 -0.129999995 0.0144467168 -0.00752610713 -0.129999995 0.0164633319 -0.0130355973 -0.129999995 0.0219728202 -0.0130355963 -0.053211242 0.0219728183 -0.0130355963 -0.053211242 0.0219728183 -0.00752610527 -0.053211242 0.0164633282 -0.00752610713 -0.129999995 0.0164633319 -0.0130355973 -0.129999995 0.0219728202 -0.0150522143 -0.129999995 0.0294989217 -0.0150522143 -0.053211242 0.0294989217 -0.0150522143 -0.053211242 0.0294989217 -0.0130355963 -0.053211242 0.0219728183 -0.0130355973 -0.129999995 0.0219728202 -0.0150522143 -0.129999995 0.0294989217 -0.0130356038 -0.129999995 0.037025027 -0.0130356029 -0.053211242 0.037025027 -0.0130356029 -0.053211242 0.037025027 -0.0150522143 -0.053211242 0.0294989217 -0.0150522143 -0.129999995 0.0294989217 -0.0130356038 -0.129999995 0.037025027 -0.00752611365 -0.129999995 0.0425345227 -0.00752611225 -0.053211242 0.042534519 -0.00752611225 -0.053211242 0.042534519 -0.0130356029 -0.053211242 0.037025027 -0.0130356038 -0.129999995 0.037025027 -0.00752611365 -0.129999995 0.0425345227 -1.05628439e-08 -0.129999995 0.0445511416 -1.00203152e-08 -0.053211242 0.0445511378 -1.00203152e-08 -0.053211242 0.0445511378 -0.00752611225 -0.053211242 0.042534519 -0.00752611365 -0.129999995 0.0425345227 -1.05628439e-08 -0.129999995 0.0445511416 0.00752609409 -0.129999995 0.0425345302 0.00752609549 -0.053211242 0.0425345264 0.00752609549 -0.053211242 0.0425345264 -1.00203152e-08 -0.053211242 0.0445511378 -1.05628439e-08 -0.129999995 0.0445511416 0.00752609409 -0.129999995 0.0425345302 0.013035588 -0.129999995 0.0370250419 0.0130355898 -0.053211242 0.0370250419 0.0130355898 -0.053211242 0.0370250419 0.00752609549 -0.053211242 0.0425345264 0.00752609409 -0.129999995 0.0425345302 0.013035588 -0.129999995 0.0370250419 0.0150522087 -0.129999995 0.0294989292 0.0150522077 -0.053211242 0.0294989273 0.0150522077 -0.053211242 0.0294989273 0.0130355898 -0.053211242 0.0370250419 0.013035588 -0.129999995 0.0370250419 0.0130355926 -0.053211242 0.021972822 0.0194033384 -0.019017756 0.0219728202 0.0224050451 -0.019017756 0.0294989254 0.0224050451 -0.019017756 0.0294989254 0.0150522077 -0.053211242 0.0294989273 0.0130355926 -0.053211242 0.021972822 0.00752610294 -0.053211242 0.0164633282 0.0112025244 -0.019017756 0.0164633282 0.0194033384 -0.019017756 0.0219728202 0.0194033384 -0.019017756 0.0219728202 0.0130355926 -0.053211242 0.021972822 0.00752610294 -0.053211242 0.0164633282 -1.8859474e-09 -0.053211242 0.014446714 -4.45282033e-10 -0.019017756 0.014446713 0.0112025244 -0.019017756 0.0164633282 0.0112025244 -0.019017756 0.0164633282 0.00752610294 -0.053211242 0.0164633282 -1.8859474e-09 -0.053211242 0.014446714 -0.00752610527 -0.053211242 0.0164633282 -0.0112025198 -0.019017756 0.0164633282 -4.45282033e-10 -0.019017756 0.014446713 -4.45282033e-10 -0.019017756 0.014446713 -1.8859474e-09 -0.053211242 0.014446714 -0.00752610527 -0.053211242 0.0164633282 -0.0130355963 -0.053211242 0.0219728183 -0.0194033366 -0.019017756 0.0219728164 -0.0112025198 -0.019017756 0.0164633282 -0.0112025198 -0.019017756 0.0164633282 -0.00752610527 -0.053211242 0.0164633282 -0.0130355963 -0.053211242 0.0219728183 -0.0150522143 -0.053211242 0.0294989217 -0.0224050526 -0.019017756 0.0294989198 -0.0194033366 -0.019017756 0.0219728164 -0.0194033366 -0.019017756 0.0219728164 -0.0130355963 -0.053211242 0.0219728183 -0.0150522143 -0.053211242 0.0294989217 -0.0130356029 -0.053211242 0.037025027 -0.0194033459 -0.019017756 0.0370250233 -0.0224050526 -0.019017756 0.0294989198 -0.0224050526 -0.019017756 0.0294989198 -0.0150522143 -0.053211242 0.0294989217 -0.0130356029 -0.053211242 0.037025027 -0.00752611225 -0.053211242 0.042534519 -0.0112025309 -0.019017756 0.042534519 -0.0194033459 -0.019017756 0.0370250233 -0.0194033459 -0.019017756 0.0370250233 -0.0130356029 -0.053211242 0.037025027 -0.00752611225 -0.053211242 0.042534519 -1.00203152e-08 -0.053211242 0.0445511378 -1.25531994e-08 -0.019017756 0.0445511378 -0.0112025309 -0.019017756 0.042534519 -0.0112025309 -0.019017756 0.042534519 -0.00752611225 -0.053211242 0.042534519 -1.00203152e-08 -0.053211242 0.0445511378 0.00752609549 -0.053211242 0.0425345264 0.0112025132 -0.019017756 0.0425345264 -1.25531994e-08 -0.019017756 0.0445511378 -1.25531994e-08 -0.019017756 0.0445511378 -1.00203152e-08 -0.053211242 0.0445511378 0.00752609549 -0.053211242 0.0425345264 0.0130355898 -0.053211242 0.0370250419 0.0194033347 -0.019017756 0.0370250382 0.0112025132 -0.019017756 0.0425345264 0.0112025132 -0.019017756 0.0425345264 0.00752609549 -0.053211242 0.0425345264 0.0130355898 -0.053211242 0.0370250419 0.0150522077 -0.053211242 0.0294989273 0.0224050451 -0.019017756 0.0294989254 0.0194033347 -0.019017756 0.0370250382 0.0194033347 -0.019017756 0.0370250382 0.0130355898 -0.053211242 0.0370250419 0.0150522077 -0.053211242 0.0294989273 0.0150522087 -0.129999995 0.0294989292 0.013035588 -0.129999995 0.0370250419 0.00752609409 -0.129999995 0.0425345302 0.00752609409 -0.129999995 0.0425345302 -1.05628439e-08 -0.129999995 0.0445511416 -0.00752611365 -0.129999995 0.0425345227 0.0150522087 -0.129999995 0.0294989292 0.00752609409 -0.129999995 0.0425345302 -0.00752611365 -0.129999995 0.0425345227 -0.00752611365 -0.129999995 0.0425345227 -0.0130356038 -0.129999995 0.037025027 -0.0150522143 -0.129999995 0.0294989217 -0.0150522143 -0.129999995 0.0294989217 -0.0130355973 -0.129999995 0.0219728202 -0.00752610713 -0.129999995 0.0164633319 -0.00752611365 -0.129999995 0.0425345227 -0.0150522143 -0.129999995 0.0294989217 -0.00752610713 -0.129999995 0.0164633319 0.0150522087 -0.129999995 0.0294989292 -0.00752611365 -0.129999995 0.0425345227 -0.00752610713 -0.129999995 0.0164633319 -0.00752610713 -0.129999995 0.0164633319 -2.42847653e-09 -0.129999995 0.0144467168 0.00752610154 -0.129999995 0.0164633319 0.0150522087 -0.129999995 0.0294989292 -0.00752610713 -0.129999995 0.0164633319 0.00752610154 -0.129999995 0.0164633319 0.0150522087 -0.129999995 0.0294989292 0.00752610154 -0.129999995 0.0164633319 0.0130355917 -0.129999995 0.0219728239 0 0.0305392761 0.0479999706 0 0.0305392779 0.0669999719 0.0592318177 0.0115836356 0.0669999719 0.0592318177 0.0115836337 0.0479999706 -0.0592318177 0.0115836337 0.0479999706 -0.0592318177 0.0115836356 0.0669999719 0 0.0305392779 0.0669999719 0 0.0305392761 0.0479999706 0.0592318177 -0.0115836356 0.0669999719 0 -0.0305392779 0.0669999719 0 -0.0305392761 0.0479999706 0.0592318177 -0.0115836337 0.0479999706 -0.0592318177 0.0115836337 0.0479999706 -0.0592318177 -0.0115836337 0.0479999706 -0.0727685392 -0.010182918 0.0479999706 -0.0727685392 0.010182918 0.0479999706 0 -0.0305392779 0.0669999719 -0.0592318177 -0.0115836356 0.0669999719 -0.0592318177 -0.0115836337 0.0479999706 0 -0.0305392761 0.0479999706 0.0592318177 0.0115836337 0.0479999706 0.0592318177 -0.0115836337 0.0479999706 0 -0.0305392761 0.0479999706 0 0.0305392761 0.0479999706 -0.0592318177 0.0115836356 0.0669999719 -0.0592318177 -0.0115836356 0.0669999719 0 -0.0305392779 0.0669999719 0 0.0305392779 0.0669999719 0 0.0305392779 0.0669999719 0 -0.0305392779 0.0669999719 0.0592318177 -0.0115836356 0.0669999719 0.0592318177 0.0115836356 0.0669999719 0.0592318177 -0.0115836356 0.0669999719 0.0727685392 -0.010182919 0.0669999719 0.0727685392 0.010182919 0.0669999719 0.0592318177 0.0115836356 0.0669999719 0.0727685392 0.010182918 0.0479999706 0.0727685392 -0.010182918 0.0479999706 0.0592318177 -0.0115836337 0.0479999706 0.0592318177 0.0115836337 0.0479999706 0 0.0305392761 0.0479999706 0 -0.0305392761 0.0479999706 -0.0592318177 -0.0115836337 0.0479999706 -0.0592318177 0.0115836337 0.0479999706 -0.0727685392 0.010182919 0.0669999719 -0.0727685392 -0.010182919 0.0669999719 -0.0592318177 -0.0115836356 0.0669999719 -0.0592318177 0.0115836356 0.0669999719 0.0727685392 0.010182919 0.0669999719 0.0727685392 0.010182918 0.0479999706 0.0592318177 0.0115836337 0.0479999706 0.0592318177 0.0115836356 0.0669999719 0.0592318177 -0.0115836356 0.0669999719 0.0592318177 -0.0115836337 0.0479999706 0.0727685392 -0.010182918 0.0479999706 0.0727685392 -0.010182919 0.0669999719 0.0727685392 0.010182918 0.0479999706 0.0727685392 0.010182919 0.0669999719 0.0727685392 -0.010182919 0.0669999719 0.0727685392 -0.010182918 0.0479999706 -0.0727685392 0.010182919 0.0669999719 -0.0727685392 0.010182918 0.0479999706 -0.0727685392 -0.010182918 0.0479999706 -0.0727685392 -0.010182919 0.0669999719 -0.0592318177 -0.0115836337 0.0479999706 -0.0592318177 -0.0115836356 0.0669999719 -0.0727685392 -0.010182919 0.0669999719 -0.0727685392 -0.010182918 0.0479999706 -0.0727685392 0.010182918 0.0479999706 -0.0727685392 0.010182919 0.0669999719 -0.0592318177 0.0115836356 0.0669999719 -0.0592318177 0.0115836337 0.0479999706</float_array>
          <technique_common>
            <accessor count="522" offset="0" source="#Box001-positions-array" stride="3">
              <param name="X" type="float" />
              <param name="Y" type="float" />
              <param name="Z" type="float" />
            </accessor>
          </technique_common>
        </source>
        <source id="Box001-normals" name="Box001-normals">
          <float_array id="Box001-normals-array" count="1566">1 -1.67444043e-07 2.37374795e-08 0.965925753 0.258819371 -3.8561808e-08 0.965925932 0.258819014 1.71523205e-08 0.965925932 0.258819014 1.71523205e-08 1 -8.13299579e-08 6.05594064e-09 1 -1.67444043e-07 2.37374795e-08 0.965925753 0.258819371 -3.8561808e-08 0.866025388 0.50000006 -4.80079727e-08 0.866025448 0.5 -3.88449166e-08 0.866025448 0.5 -3.88449166e-08 0.965925932 0.258819014 1.71523205e-08 0.965925753 0.258819371 -3.8561808e-08 0.866025388 0.50000006 -4.80079727e-08 0.707106888 0.70710665 -5.94190546e-08 0.707106948 0.70710665 -4.97015122e-08 0.707106948 0.70710665 -4.97015122e-08 0.866025448 0.5 -3.88449166e-08 0.866025388 0.50000006 -4.80079727e-08 0.707106888 0.70710665 -5.94190546e-08 0.5 0.866025388 -5.03083655e-08 0.5 0.866025388 -5.58625679e-08 0.5 0.866025388 -5.58625679e-08 0.707106948 0.70710665 -4.97015122e-08 0.707106888 0.70710665 -5.94190546e-08 0.5 0.866025388 -5.03083655e-08 0.258819193 0.965925813 -1.44621293e-08 0.258819044 0.965925932 -4.46705073e-08 0.258819044 0.965925932 -4.46705073e-08 0.5 0.866025388 -5.58625679e-08 0.5 0.866025388 -5.03083655e-08 0.258819193 0.965925813 -1.44621293e-08 -2.15285194e-08 1 -1.67158589e-08 2.39205775e-08 1 -1.49366279e-08 2.39205775e-08 1 -1.49366279e-08 0.258819044 0.965925932 -4.46705073e-08 0.258819193 0.965925813 -1.44621293e-08 -2.15285194e-08 1 -1.67158589e-08 -0.258819073 0.965925932 -2.32230324e-08 -0.258819044 0.965925932 -2.17789147e-08 -0.258819044 0.965925932 -2.17789147e-08 2.39205775e-08 1 -1.49366279e-08 -2.15285194e-08 1 -1.67158589e-08 -0.258819073 0.965925932 -2.32230324e-08 -0.499999791 0.866025507 4.70842032e-09 -0.499999791 0.866025507 -1.05633235e-08 -0.499999791 0.866025507 -1.05633235e-08 -0.258819044 0.965925932 -2.17789147e-08 -0.258819073 0.965925932 -2.32230324e-08 -0.499999791 0.866025507 4.70842032e-09 -0.707106709 0.707106888 1.21865993e-08 -0.70710659 0.707107008 2.48507348e-08 -0.70710659 0.707107008 2.48507348e-08 -0.499999791 0.866025507 -1.05633235e-08 -0.499999791 0.866025507 4.70842032e-09 -0.707106709 0.707106888 1.21865993e-08 -0.866025329 0.500000358 3.6774459e-08 -0.866025329 0.500000358 2.55278287e-08 -0.866025329 0.500000358 2.55278287e-08 -0.70710659 0.707107008 2.48507348e-08 -0.707106709 0.707106888 1.21865993e-08 -0.866025329 0.500000358 3.6774459e-08 -0.965925753 0.258819491 8.20891266e-09 -0.965925634 0.258819759 4.85307652e-08 -0.965925634 0.258819759 4.85307652e-08 -0.866025329 0.500000358 2.55278287e-08 -0.866025329 0.500000358 3.6774459e-08 -0.965925753 0.258819491 8.20891266e-09 -1 2.84654874e-07 -2.37374742e-08 -1 4.2100217e-07 -6.05592509e-09 -1 4.2100217e-07 -6.05592509e-09 -0.965925634 0.258819759 4.85307652e-08 -0.965925753 0.258819491 8.20891266e-09 -1 2.84654874e-07 -2.37374742e-08 -0.965925992 -0.258818597 5.33095239e-08 -0.965925932 -0.258818984 -1.7152308e-08 -0.965925932 -0.258818984 -1.7152308e-08 -1 4.2100217e-07 -6.05592509e-09 -1 2.84654874e-07 -2.37374742e-08 -0.965925992 -0.258818597 5.33095239e-08 -0.866025746 -0.499999553 7.84438186e-08 -0.866025746 -0.499999642 5.45330501e-08 -0.866025746 -0.499999642 5.45330501e-08 -0.965925932 -0.258818984 -1.7152308e-08 -0.965925992 -0.258818597 5.33095239e-08 -0.866025746 -0.499999553 7.84438186e-08 -0.707107127 -0.707106471 7.45522755e-08 -0.707107186 -0.707106471 7.45522826e-08 -0.707107186 -0.707106471 7.45522826e-08 -0.866025746 -0.499999642 5.45330501e-08 -0.866025746 -0.499999553 7.84438186e-08 -0.707107127 -0.707106471 7.45522755e-08 -0.500000179 -0.866025388 5.03083655e-08 -0.500000298 -0.866025329 6.55801244e-08 -0.500000298 -0.866025329 6.55801244e-08 -0.707107186 -0.707106471 7.45522826e-08 -0.707107127 -0.707106471 7.45522755e-08 -0.500000179 -0.866025388 5.03083655e-08 -0.258819342 -0.965925753 1.44621239e-08 -0.25881961 -0.965925753 4.46705108e-08 -0.25881961 -0.965925753 4.46705108e-08 -0.500000298 -0.866025329 6.55801244e-08 -0.500000179 -0.866025388 5.03083655e-08 -0.258819342 -0.965925753 1.44621239e-08 -5.3522291e-07 -1 1.67158483e-08 -5.5017324e-07 -1 1.49366244e-08 -5.5017324e-07 -1 1.49366244e-08 -0.25881961 -0.965925753 4.46705108e-08 -0.258819342 -0.965925753 1.44621239e-08 -5.3522291e-07 -1 1.67158483e-08 0.258818537 -0.965925992 2.32230324e-08 0.258818507 -0.965926051 2.17789147e-08 0.258818507 -0.965926051 2.17789147e-08 -5.5017324e-07 -1 1.49366244e-08 -5.3522291e-07 -1 1.67158483e-08 0.258818537 -0.965925992 2.32230324e-08 0.499999523 -0.866025805 -4.70838923e-09 0.499999344 -0.866025865 1.05633458e-08 0.499999344 -0.866025865 1.05633458e-08 0.258818507 -0.965926051 2.17789147e-08 0.258818537 -0.965925992 2.32230324e-08 0.499999523 -0.866025805 -4.70838923e-09 0.707106352 -0.707107186 -2.48507099e-08 0.707106352 -0.707107246 -2.48507099e-08 0.707106352 -0.707107246 -2.48507099e-08 0.499999344 -0.866025865 1.05633458e-08 0.499999523 -0.866025805 -4.70838923e-09 0.707106352 -0.707107186 -2.48507099e-08 0.86602509 -0.500000536 -5.24625605e-08 0.86602509 -0.500000596 -4.32994831e-08 0.86602509 -0.500000596 -4.32994831e-08 0.707106352 -0.707107246 -2.48507099e-08 0.707106352 -0.707107186 -2.48507099e-08 0.86602509 -0.500000536 -5.24625605e-08 0.965925694 -0.258819669 -8.2089171e-09 0.965925753 -0.258819312 -6.32784563e-08 0.965925753 -0.258819312 -6.32784563e-08 0.86602509 -0.500000596 -4.32994831e-08 0.86602509 -0.500000536 -5.24625605e-08 0.965925694 -0.258819669 -8.2089171e-09 1 -1.67444043e-07 2.37374795e-08 1 -8.13299579e-08 6.05594064e-09 1 -8.13299579e-08 6.05594064e-09 0.965925753 -0.258819312 -6.32784563e-08 0.965925694 -0.258819669 -8.2089171e-09 0 0 -1 0 0 -1 0 0 -1 0 0 -1 0 0 -1 0 0 -1 0 0 -1 0 0 -1 0 0 -1 0 0 -1 0 0 -1 0 0 -1 0 0 -1 0 0 -1 0 0 -1 0 0 -1 0 0 -1 0 0 -1 0 0 -1 0 0 -1 0 0 -1 0 0 -1 0 0 -1 0 0 -1 0 0 -1 0 0 -1 0 0 -1 0 0 -1 0 0 -1 0 0 -1 0 0 -1 0 0 -1 0 0 -1 0 0 -1 0 0 -1 0 0 -1 0 0 -1 0 0 -1 0 0 -1 0 0 -1 0 0 -1 0 0 -1 0 0 -1 0 0 -1 0 0 -1 0 0 -1 0 0 -1 0 0 -1 0 0 -1 0 0 -1 0 0 -1 0 0 -1 0 0 -1 0 0 -1 0 0 -1 0 0 -1 0 0 -1 0 0 -1 0 0 -1 0 0 -1 0 0 -1 0 0 -1 0 0 -1 0 0 -1 0 0 -1 0 0 -1 0 0 1 0 0 1 0 0 1 0 0 1 0 0 1 0 0 1 0 0 1 0 0 1 0 0 1 0 0 1 0 0 1 0 0 1 0 0 1 0 0 1 0 0 1 0 0 1 0 0 1 0 0 1 0 0 1 0 0 1 0 0 1 0 0 1 0 0 1 0 0 1 0 0 1 0 0 1 0 0 1 0 0 1 0 0 1 0 0 1 0 0 1 0 0 1 0 0 1 0 0 1 0 0 1 0 0 1 0 0 1 0 0 1 0 0 1 0 0 1 0 0 1 0 0 1 0 0 1 0 0 1 0 0 1 0 0 1 0 0 1 0 0 1 0 0 1 0 0 1 0 0 1 0 0 1 0 0 1 0 0 1 0 0 1 0 0 1 0 0 1 0 0 1 0 0 1 0 0 1 0 0 1 0 0 1 0 0 1 0 0 1 0 0 1 0 0 1 1 7.80780052e-10 1.47315291e-07 0.866025388 -3.30156205e-08 -0.50000006 0.856664181 -0.085534215 -0.508734167 0.856664181 -0.085534215 -0.508734167 0.994832039 -0.101434685 0.0044975332 1 7.80780052e-10 1.47315291e-07 0.866025388 -3.30156205e-08 -0.50000006 0.500000179 -4.4041581e-08 -0.866025269 0.485479742 -0.0365746841 -0.873482645 0.485479742 -0.0365746841 -0.873482645 0.856664181 -0.085534215 -0.508734167 0.866025388 -3.30156205e-08 -0.50000006 0.500000179 -4.4041581e-08 -0.866025269 7.91819659e-08 -3.99039628e-08 -1 -0.00428965129 -0.00572576374 -0.99997443 -0.00428965129 -0.00572576374 -0.99997443 0.485479742 -0.0365746841 -0.873482645 0.500000179 -4.4041581e-08 -0.866025269 7.91819659e-08 -3.99039628e-08 -1 -0.49999997 -2.57320316e-08 -0.866025448 -0.489338219 -0.0196512472 -0.871872723 -0.489338219 -0.0196512472 -0.871872723 -0.00428965129 -0.00572576374 -0.99997443 7.91819659e-08 -3.99039628e-08 -1 -0.49999997 -2.57320316e-08 -0.866025448 -0.866025269 -4.25811608e-09 -0.500000298 -0.855532944 -0.0664787665 -0.513462842 -0.855532944 -0.0664787665 -0.513462842 -0.489338219 -0.0196512472 -0.871872723 -0.49999997 -2.57320316e-08 -0.866025448 -0.866025269 -4.25811608e-09 -0.500000298 -1 5.67379876e-09 -5.1437587e-07 -0.994832039 -0.101434655 -0.00449795043 -0.994832039 -0.101434655 -0.00449795043 -0.855532944 -0.0664787665 -0.513462842 -0.866025269 -4.25811608e-09 -0.500000298 -1 5.67379876e-09 -5.1437587e-07 -0.866025686 2.91942648e-08 0.499999642 -0.856664181 -0.0855341554 0.508734107 -0.856664181 -0.0855341554 0.508734107 -0.994832039 -0.101434655 -0.00449795043 -1 5.67379876e-09 -5.1437587e-07 -0.866025686 2.91942648e-08 0.499999642 -0.500000536 4.97153678e-08 0.866025031 -0.485479891 -0.0365746133 0.873482466 -0.485479891 -0.0365746133 0.873482466 -0.856664181 -0.0855341554 0.508734107 -0.866025686 2.91942648e-08 0.499999642 -0.500000536 4.97153678e-08 0.866025031 -5.54273811e-07 4.71186858e-08 1 0.00428912695 -0.0057257181 0.99997443 0.00428912695 -0.0057257181 0.99997443 -0.485479891 -0.0365746133 0.873482466 -0.500000536 4.97153678e-08 0.866025031 -5.54273811e-07 4.71186858e-08 1 0.499999702 1.42268579e-08 0.866025627 0.489337713 -0.0196512062 0.871872962 0.489337713 -0.0196512062 0.871872962 0.00428912695 -0.0057257181 0.99997443 -5.54273811e-07 4.71186858e-08 1 0.499999702 1.42268579e-08 0.866025627 0.86602515 -9.4497532e-10 0.500000536 0.855532765 -0.0664787963 0.513462961 0.855532765 -0.0664787963 0.513462961 0.489337713 -0.0196512062 0.871872962 0.499999702 1.42268579e-08 0.866025627 0.86602515 -9.4497532e-10 0.500000536 1 7.80780052e-10 1.47315291e-07 0.994832039 -0.101434685 0.0044975332 0.994832039 -0.101434685 0.0044975332 0.855532765 -0.0664787963 0.513462961 0.86602515 -9.4497532e-10 0.500000536 0.856664181 -0.085534215 -0.508734167 0.791972041 -0.129409522 -0.59668541 0.980038702 -0.198664561 0.00752263609 0.980038702 -0.198664561 0.00752263609 0.994832039 -0.101434685 0.0044975332 0.856664181 -0.085534215 -0.508734167 0.485479742 -0.0365746841 -0.873482645 0.392374247 -0.0344135985 -0.919161677 0.791972041 -0.129409522 -0.59668541 0.791972041 -0.129409522 -0.59668541 0.856664181 -0.085534215 -0.508734167 0.485479742 -0.0365746841 -0.873482645 -0.00428965129 -0.00572576374 -0.99997443 -0.00595487235 -0.00830963068 -0.999947846 0.392374247 -0.0344135985 -0.919161677 0.392374247 -0.0344135985 -0.919161677 0.485479742 -0.0365746841 -0.873482645 -0.00428965129 -0.00572576374 -0.99997443 -0.489338219 -0.0196512472 -0.871872723 -0.399049491 -0.0634986982 -0.914728105 -0.00595487235 -0.00830963068 -0.999947846 -0.00595487235 -0.00830963068 -0.999947846 -0.00428965129 -0.00572576374 -0.99997443 -0.489338219 -0.0196512472 -0.871872723 -0.855532944 -0.0664787665 -0.513462842 -0.785588861 -0.159063339 -0.597954154 -0.399049491 -0.0634986982 -0.914728105 -0.399049491 -0.0634986982 -0.914728105 -0.489338219 -0.0196512472 -0.871872723 -0.855532944 -0.0664787665 -0.513462842 -0.994832039 -0.101434655 -0.00449795043 -0.980038702 -0.198664531 -0.00752314832 -0.785588861 -0.159063339 -0.597954154 -0.785588861 -0.159063339 -0.597954154 -0.855532944 -0.0664787665 -0.513462842 -0.994832039 -0.101434655 -0.00449795043 -0.856664181 -0.0855341554 0.508734107 -0.791972101 -0.129409403 0.59668541 -0.980038702 -0.198664531 -0.00752314832 -0.980038702 -0.198664531 -0.00752314832 -0.994832039 -0.101434655 -0.00449795043 -0.856664181 -0.0855341554 0.508734107 -0.485479891 -0.0365746133 0.873482466 -0.392374635 -0.0344135799 0.919161618 -0.791972101 -0.129409403 0.59668541 -0.791972101 -0.129409403 0.59668541 -0.856664181 -0.0855341554 0.508734107 -0.485479891 -0.0365746133 0.873482466 0.00428912695 -0.0057257181 0.99997443 0.00595446397 -0.00830960367 0.999947727 -0.392374635 -0.0344135799 0.919161618 -0.392374635 -0.0344135799 0.919161618 -0.485479891 -0.0365746133 0.873482466 0.00428912695 -0.0057257181 0.99997443 0.489337713 -0.0196512062 0.871872962 0.399049133 -0.0634986535 0.914728284 0.00595446397 -0.00830960367 0.999947727 0.00595446397 -0.00830960367 0.999947727 0.00428912695 -0.0057257181 0.99997443 0.489337713 -0.0196512062 0.871872962 0.855532765 -0.0664787963 0.513462961 0.785589099 -0.159063324 0.597953856 0.399049133 -0.0634986535 0.914728284 0.399049133 -0.0634986535 0.914728284 0.489337713 -0.0196512062 0.871872962 0.855532765 -0.0664787963 0.513462961 0.994832039 -0.101434685 0.0044975332 0.980038702 -0.198664561 0.00752263609 0.785589099 -0.159063324 0.597953856 0.785589099 -0.159063324 0.597953856 0.855532765 -0.0664787963 0.513462961 0.994832039 -0.101434685 0.0044975332 0 -1 0 0 -1 0 0 -1 0 0 -1 0 0 -1 0 0 -1 0 0 -1 0 0 -1 0 0 -1 0 0 -1 0 0 -1 0 0 -1 0 0 -1 0 0 -1 0 0 -1 0 0 -1 0 0 -1 0 0 -1 0 0 -1 0 0 -1 0 0 -1 0 0 -1 0 0 -1 0 0 -1 0 0 -1 0 0 -1 0 0 -1 0 0 -1 0 0 -1 0 0 -1 0 0 1 -1.03443064e-07 0 1 -1.03443071e-07 0.304797053 0.952417433 -9.8520978e-08 0.304797053 0.952417433 -9.85209923e-08 -0.304797053 0.952417433 -9.85209923e-08 -0.304797053 0.952417433 -9.8520978e-08 0 1 -1.03443071e-07 0 1 -1.03443064e-07 0.304797053 -0.952417433 -9.8520978e-08 0 -1 -1.03443071e-07 0 -1 -1.03443064e-07 0.304797053 -0.952417433 -9.85209923e-08 0 0 -1 0 0 -1 0 0 -1 0 0 -1 0 -1 -1.03443071e-07 -0.304797053 -0.952417433 -9.8520978e-08 -0.304797053 -0.952417433 -9.85209923e-08 0 -1 -1.03443064e-07 0 0 -1 0 0 -1 0 0 -1 0 0 -1 -6.03167294e-08 0 1 -6.03167294e-08 0 1 0 0 1 0 0 1 0 0 1 0 0 1 0 0 1 0 0 1 1.37599429e-07 0 1 1.37599429e-07 0 1 1.37599429e-07 0 1 1.37599429e-07 0 1 0 0 -1 0 0 -1 0 0 -1 0 0 -1 0 0 -1 0 0 -1 0 0 -1 0 0 -1 -1.37599429e-07 0 1 -1.37599429e-07 0 1 -6.03167294e-08 0 1 -6.03167294e-08 0 1 0.102925725 0.994689107 -7.38651593e-08 0.102925718 0.994689107 -7.38651593e-08 0.102925718 0.994689107 -7.38651593e-08 0.10292571 0.994689047 -7.38651522e-08 0.10292571 -0.994689047 -7.38651522e-08 0.102925718 -0.994689107 -7.38651593e-08 0.102925718 -0.994689107 -7.38651593e-08 0.102925725 -0.994689107 -7.38651593e-08 1 0 0 1 0 0 1 0 0 1 0 0 -1 0 0 -1 0 0 -1 0 0 -1 0 0 -0.102925718 -0.994689107 -7.21064666e-08 -0.10292571 -0.994689047 -7.21064595e-08 -0.102925725 -0.994689107 -7.21064666e-08 -0.102925718 -0.994689107 -7.21064666e-08 -0.102925733 0.994689107 -7.21064666e-08 -0.102925725 0.994689107 -7.21064666e-08 -0.102925718 0.994689047 -7.21064595e-08 -0.102925733 0.994689107 -7.21064666e-08</float_array>
          <technique_common>
            <accessor count="522" offset="0" source="#Box001-normals-array" stride="3">
              <param name="X" type="float" />
              <param name="Y" type="float" />
              <param name="Z" type="float" />
            </accessor>
          </technique_common>
        </source>
        <source id="Box001-tex0" name="Box001-tex0">
          <float_array id="Box001-tex0-array" count="1044"> 0.75 0 0.791666627 0 0.791666627 1 0.791666627 1 0.75 1 0.75 0 0.791666627 0 0.833333313 0 0.833333313 1 0.833333313 1 0.791666627 1 0.791666627 0 0.833333313 0 0.875 0 0.875 1 0.875 1 0.833333313 1 0.833333313 0 0.875 0 0.916666687 0 0.916666687 1 0.916666687 1 0.875 1 0.875 0 0.916666687 0 0.958333313 0 0.958333313 1 0.958333313 1 0.916666687 1 0.916666687 0 0.958333313 0 0.99999994 0 0.99999994 1 0.99999994 1 0.958333313 1 0.958333313 0 -5.96046448e-08 0 0.0416666567 0 0.0416666567 1 0.0416666567 1 -5.96046448e-08 1 -5.96046448e-08 0 0.0416666567 0 0.0833333135 0 0.0833333135 1 0.0833333135 1 0.0416666567 1 0.0416666567 0 0.0833333135 0 0.12499997 0 0.12499997 1 0.12499997 1 0.0833333135 1 0.0833333135 0 0.12499997 0 0.166666627 0 0.166666627 1 0.166666627 1 0.12499997 1 0.12499997 0 0.166666627 0 0.208333284 0 0.208333284 1 0.208333284 1 0.166666627 1 0.166666627 0 0.208333284 0 0.24999994 0 0.24999994 1 0.24999994 1 0.208333284 1 0.208333284 0 0.24999994 0 0.291666597 0 0.291666597 1 0.291666597 1 0.24999994 1 0.24999994 0 0.291666597 0 0.333333254 0 0.333333254 1 0.333333254 1 0.291666597 1 0.291666597 0 0.333333254 0 0.374999911 0 0.374999911 1 0.374999911 1 0.333333254 1 0.333333254 0 0.374999911 0 0.416666657 0 0.416666657 1 0.416666657 1 0.374999911 1 0.374999911 0 0.416666657 0 0.458333254 0 0.458333254 1 0.458333254 1 0.416666657 1 0.416666657 0 0.458333254 0 0.499999911 0 0.499999911 1 0.499999911 1 0.458333254 1 0.458333254 0 0.499999911 0 0.541666567 0 0.541666567 1 0.541666567 1 0.499999911 1 0.499999911 0 0.541666567 0 0.583333254 0 0.583333254 1 0.583333254 1 0.541666567 1 0.541666567 0 0.583333254 0 0.624999881 0 0.624999881 1 0.624999881 1 0.583333254 1 0.583333254 0 0.624999881 0 0.666666567 0 0.666666567 1 0.666666567 1 0.624999881 1 0.624999881 0 0.666666567 0 0.708333254 0 0.708333254 1 0.708333254 1 0.666666567 1 0.666666567 0 0.708333254 0 0.75 0 0.75 1 0.75 1 0.708333254 1 0.708333254 0 0.708333254 0 0.666666567 0 0.624999881 0 0.624999881 0 0.583333254 0 0.541666567 0 0.541666567 0 0.499999911 0 0.458333254 0 0.624999881 0 0.541666567 0 0.458333254 0 0.458333254 0 0.416666657 0 0.374999911 0 0.374999911 0 0.333333254 0 0.291666597 0 0.458333254 0 0.374999911 0 0.291666597 0 0.291666597 0 0.24999994 0 0.208333284 0 0.208333284 0 0.166666627 0 0.12499997 0 0.291666597 0 0.208333284 0 0.12499997 0 0.458333254 0 0.291666597 0 0.12499997 0 0.12499997 0 0.0833333135 0 0.0416666567 0 0.0416666567 0 -5.96046448e-08 0 0.958333313 0 0.12499997 0 0.0416666567 0 0.958333313 0 0.958333313 0 0.916666687 0 0.875 0 0.875 0 0.833333313 0 0.791666627 0 0.958333313 0 0.875 0 0.791666627 0 0.12499997 0 0.958333313 0 0.791666627 0 0.458333254 0 0.12499997 0 0.791666627 0 0.624999881 0 0.458333254 0 0.791666627 0 0.708333254 0 0.624999881 0 0.791666627 0 0.75 0 0.708333254 0 0.791666627 0 0.833333313 1 0.875 1 0.916666687 1 0.916666687 1 0.958333313 1 0.99999994 1 0.99999994 1 0.0416666567 1 0.0833333135 1 0.916666687 1 0.99999994 1 0.0833333135 1 0.0833333135 1 0.12499997 1 0.166666627 1 0.166666627 1 0.208333284 1 0.24999994 1 0.0833333135 1 0.166666627 1 0.24999994 1 0.24999994 1 0.291666597 1 0.333333254 1 0.333333254 1 0.374999911 1 0.416666657 1 0.24999994 1 0.333333254 1 0.416666657 1 0.0833333135 1 0.24999994 1 0.416666657 1 0.416666657 1 0.458333254 1 0.499999911 1 0.499999911 1 0.541666567 1 0.583333254 1 0.416666657 1 0.499999911 1 0.583333254 1 0.583333254 1 0.624999881 1 0.666666567 1 0.666666567 1 0.708333254 1 0.75 1 0.583333254 1 0.666666567 1 0.75 1 0.416666657 1 0.583333254 1 0.75 1 0.0833333135 1 0.416666657 1 0.75 1 0.916666687 1 0.0833333135 1 0.75 1 0.833333313 1 0.916666687 1 0.75 1 0.791666627 1 0.833333313 1 0.75 1 0.75 0 0.833333313 0 0.833333313 0.5 0.833333313 0.5 0.75 0.5 0.75 0 0.833333313 0 0.916666687 0 0.916666687 0.5 0.916666687 0.5 0.833333313 0.5 0.833333313 0 0.916666687 0 0.99999994 0 0.99999994 0.5 0.99999994 0.5 0.916666687 0.5 0.916666687 0 -5.96046448e-08 0 0.0833333135 0 0.0833333135 0.5 0.0833333135 0.5 -5.96046448e-08 0.5 -5.96046448e-08 0 0.0833333135 0 0.166666627 0 0.166666627 0.5 0.166666627 0.5 0.0833333135 0.5 0.0833333135 0 0.166666627 0 0.24999994 0 0.24999994 0.5 0.24999994 0.5 0.166666627 0.5 0.166666627 0 0.24999994 0 0.333333254 0 0.333333254 0.5 0.333333254 0.5 0.24999994 0.5 0.24999994 0 0.333333254 0 0.416666657 0 0.416666657 0.5 0.416666657 0.5 0.333333254 0.5 0.333333254 0 0.416666657 0 0.499999911 0 0.499999911 0.5 0.499999911 0.5 0.416666657 0.5 0.416666657 0 0.499999911 0 0.583333254 0 0.583333254 0.5 0.583333254 0.5 0.499999911 0.5 0.499999911 0 0.583333254 0 0.666666567 0 0.666666567 0.5 0.666666567 0.5 0.583333254 0.5 0.583333254 0 0.666666567 0 0.75 0 0.75 0.5 0.75 0.5 0.666666567 0.5 0.666666567 0 0.833333313 0.5 0.833333313 1 0.75 1 0.75 1 0.75 0.5 0.833333313 0.5 0.916666687 0.5 0.916666687 1 0.833333313 1 0.833333313 1 0.833333313 0.5 0.916666687 0.5 0.99999994 0.5 0.99999994 1 0.916666687 1 0.916666687 1 0.916666687 0.5 0.99999994 0.5 0.0833333135 0.5 0.0833333135 1 -5.96046448e-08 1 -5.96046448e-08 1 -5.96046448e-08 0.5 0.0833333135 0.5 0.166666627 0.5 0.166666627 1 0.0833333135 1 0.0833333135 1 0.0833333135 0.5 0.166666627 0.5 0.24999994 0.5 0.24999994 1 0.166666627 1 0.166666627 1 0.166666627 0.5 0.24999994 0.5 0.333333254 0.5 0.333333254 1 0.24999994 1 0.24999994 1 0.24999994 0.5 0.333333254 0.5 0.416666657 0.5 0.416666657 1 0.333333254 1 0.333333254 1 0.333333254 0.5 0.416666657 0.5 0.499999911 0.5 0.499999911 1 0.416666657 1 0.416666657 1 0.416666657 0.5 0.499999911 0.5 0.583333254 0.5 0.583333254 1 0.499999911 1 0.499999911 1 0.499999911 0.5 0.583333254 0.5 0.666666567 0.5 0.666666567 1 0.583333254 1 0.583333254 1 0.583333254 0.5 0.666666567 0.5 0.75 0.5 0.75 1 0.666666567 1 0.666666567 1 0.666666567 0.5 0.75 0.5 0.75 0 0.666666567 0 0.583333254 0 0.583333254 0 0.499999911 0 0.416666657 0 0.75 0 0.583333254 0 0.416666657 0 0.416666657 0 0.333333254 0 0.24999994 0 0.24999994 0 0.166666627 0 0.0833333135 0 0.416666657 0 0.24999994 0 0.0833333135 0 0.75 0 0.416666657 0 0.0833333135 0 0.0833333135 0 -5.96046448e-08 0 0.916666687 0 0.75 0 0.0833333135 0 0.916666687 0 0.75 0 0.916666687 0 0.833333313 0 0.5 0 0.5 1 0 1 0 0 1 0 1 1 0.5 1 0.5 0 0 1 0.5 1 0.5 0 0 0 1 1 1 1 1 0.75 1 0.75 0.5 1 1 1 1 0 0.5 0 0 1 0 1 0.5 1 0.5 1 0 1 0 1 0.5 1 0.5 1 0.5 1 0.5 1 1 1 1 1 1 1 0.75 1 0.75 1 1 1 0 0.75 0 0.75 0 1 0 1 0.5 1 0.5 1 1 1 1 1 0 0.75 0 0.75 0 1 0 1 0 1 1 1 0 1 1 1 0.5 1 1 0.75 0.5 0 1 1 1 1 0 1 1 1 0.5 0 0 0 1 0 0.5 1 0.5 1 0 0.75 0.75 1 0.5 1 0.5 1 1 0 0 0 0 1 1 1 </float_array>
          <technique_common>
            <accessor count="522" offset="0" source="#Box001-tex0-array" stride="2">
              <param name="S" type="float" />
              <param name="T" type="float" />
            </accessor>
          </technique_common>
        </source>
        <vertices id="Box001-vertices">
          <input semantic="POSITION" source="#Box001-positions" />
        </vertices>
        <polylist count="168" material="defaultMaterial">
          <input offset="0" semantic="VERTEX" source="#Box001-vertices" />
          <input offset="0" semantic="NORMAL" source="#Box001-normals" />
          <input offset="0" semantic="TEXCOORD" source="#Box001-tex0" set="0" />
          <vcount>3 3 3 3 3 3 3 3 3 3 3 3 3 3 3 3 3 3 3 3 3 3 3 3 3 3 3 3 3 3 3 3 3 3 3 3 3 3 3 3 3 3 3 3 3 3 3 3 3 3 3 3 3 3 3 3 3 3 3 3 3 3 3 3 3 3 3 3 3 3 3 3 3 3 3 3 3 3 3 3 3 3 3 3 3 3 3 3 3 3 3 3 3 3 3 3 3 3 3 3 3 3 3 3 3 3 3 3 3 3 3 3 3 3 3 3 3 3 3 3 3 3 3 3 3 3 3 3 3 3 3 3 3 3 3 3 3 3 3 3 3 3 3 3 3 3 3 3 3 3 4 4 4 4 4 4 4 4 4 4 4 4 4 4 4 4 4 4 </vcount>
          <p>0 1 2 3 4 5 6 7 8 9 10 11 12 13 14 15 16 17 18 19 20 21 22 23 24 25 26 27 28 29 30 31 32 33 34 35 36 37 38 39 40 41 42 43 44 45 46 47 48 49 50 51 52 53 54 55 56 57 58 59 60 61 62 63 64 65 66 67 68 69 70 71 72 73 74 75 76 77 78 79 80 81 82 83 84 85 86 87 88 89 90 91 92 93 94 95 96 97 98 99 100 101 102 103 104 105 106 107 108 109 110 111 112 113 114 115 116 117 118 119 120 121 122 123 124 125 126 127 128 129 130 131 132 133 134 135 136 137 138 139 140 141 142 143 144 145 146 147 148 149 150 151 152 153 154 155 156 157 158 159 160 161 162 163 164 165 166 167 168 169 170 171 172 173 174 175 176 177 178 179 180 181 182 183 184 185 186 187 188 189 190 191 192 193 194 195 196 197 198 199 200 201 202 203 204 205 206 207 208 209 210 211 212 213 214 215 216 217 218 219 220 221 222 223 224 225 226 227 228 229 230 231 232 233 234 235 236 237 238 239 240 241 242 243 244 245 246 247 248 249 250 251 252 253 254 255 256 257 258 259 260 261 262 263 264 265 266 267 268 269 270 271 272 273 274 275 276 277 278 279 280 281 282 283 284 285 286 287 288 289 290 291 292 293 294 295 296 297 298 299 300 301 302 303 304 305 306 307 308 309 310 311 312 313 314 315 316 317 318 319 320 321 322 323 324 325 326 327 328 329 330 331 332 333 334 335 336 337 338 339 340 341 342 343 344 345 346 347 348 349 350 351 352 353 354 355 356 357 358 359 360 361 362 363 364 365 366 367 368 369 370 371 372 373 374 375 376 377 378 379 380 381 382 383 384 385 386 387 388 389 390 391 392 393 394 395 396 397 398 399 400 401 402 403 404 405 406 407 408 409 410 411 412 413 414 415 416 417 418 419 420 421 422 423 424 425 426 427 428 429 430 431 432 433 434 435 436 437 438 439 440 441 442 443 444 445 446 447 448 449 450 451 452 453 454 455 456 457 458 459 460 461 462 463 464 465 466 467 468 469 470 471 472 473 474 475 476 477 478 479 480 481 482 483 484 485 486 487 488 489 490 491 492 493 494 495 496 497 498 499 500 501 502 503 504 505 506 507 508 509 510 511 512 513 514 515 516 517 518 519 520 521 </p>
        </polylist>
      </mesh>
    </geometry>
  </library_geometries>
  <library_controllers>
  </library_controllers>
  <library_visual_scenes>
    <visual_scene id="Scene" name="Scene">
      <node id="RootNode" name="RootNode" type="NODE">
        <matrix sid="matrix">1 0 0 0 0 1 0 0 0 0 1 0 0 0 0 1</matrix>
        <instance_geometry url="#Box001">
          <bind_material>
            <technique_common>
              <instance_material symbol="defaultMaterial" target="#Material-YVFb1q.078">
                <bind_vertex_input semantic="CHANNEL0" input_semantic="TEXCOORD" input_set="0"/>
              </instance_material>
            </technique_common>
          </bind_material>
        </instance_geometry>
      </node>
    </visual_scene>
  </library_visual_scenes>
  <scene>
    <instance_visual_scene url="#Scene" />
  </scene>
</COLLADA>
