<?xml version="1.0" encoding="utf-8"?>
<COLLADA xmlns="http://www.collada.org/2005/11/COLLADASchema" version="1.4.1">
  <asset>
    <contributor>
      <author/>
      <authoring_tool>FBX COLLADA exporter</authoring_tool>
      <comments/>
    </contributor>
    <created>2026-06-09T06:36:19Z</created>
    <keywords/>
    <modified>2026-06-09T06:36:19Z</modified>
    <revision/>
    <subject/>
    <title/>
    <unit meter="1.000000" name="centimeter"/>
    <up_axis>Z_UP</up_axis>
  </asset>
  <library_materials>
    <material id="black" name="black">
      <instance_effect url="#black-fx"/>
    </material>
  </library_materials>
  <library_effects>
    <effect id="black-fx" name="black">
      <profile_COMMON>
        <technique sid="standard">
          <phong>
            <emission>
              <color sid="emission">0.000000  0.000000 0.000000 1.000000</color>
            </emission>
            <ambient>
              <color sid="ambient">0.000000  0.000000 0.000000 1.000000</color>
            </ambient>
            <diffuse>
              <color sid="diffuse">0.000000  0.000000 0.000000 1.000000</color>
            </diffuse>
            <specular>
              <color sid="specular">1.100000  1.100000 1.100000 1.000000</color>
            </specular>
            <shininess>
              <float sid="shininess">45.254833</float>
            </shininess>
          </phong>
        </technique>
      </profile_COMMON>
    </effect>
  </library_effects>
  <library_geometries>
    <geometry id="arm_r_link6-lib" name="arm_r_link6Mesh">
      <mesh>
        <source id="arm_r_link6-POSITION">
          <float_array id="arm_r_link6-POSITION-array" count="366">
0.009861 0.000000 0.039436
0.009861 0.010207 0.038093
-0.069259 0.010207 0.038093
-0.069259 0.000000 0.039436
0.009861 0.019718 0.034153
-0.069259 0.019718 0.034153
0.009861 0.027886 0.027886
-0.069259 0.027886 0.027886
0.009861 0.034153 0.019718
-0.069259 0.034153 0.019718
0.009861 0.038093 0.010207
-0.069259 0.038093 0.010207
0.009861 0.039436 0.000000
-0.069259 0.039436 0.000000
0.009861 0.038093 -0.010207
-0.069259 0.038093 -0.010207
0.009861 0.034153 -0.019718
-0.069259 0.034153 -0.019718
0.009861 0.027886 -0.027886
-0.069259 0.027886 -0.027886
0.009861 0.019718 -0.034153
-0.069259 0.019718 -0.034153
0.009861 0.010207 -0.038093
-0.069259 0.010207 -0.038093
0.009861 0.000000 -0.039436
-0.069259 0.000000 -0.039436
0.009861 -0.010207 -0.038093
-0.069259 -0.010207 -0.038093
0.009861 -0.019718 -0.034153
-0.069259 -0.019718 -0.034153
0.009861 -0.027886 -0.027886
-0.069259 -0.027886 -0.027886
0.009861 -0.034153 -0.019718
-0.069259 -0.034153 -0.019718
0.009861 -0.038093 -0.010207
-0.069259 -0.038093 -0.010207
0.009861 -0.039436 -0.000000
-0.069259 -0.039436 -0.000000
0.009861 -0.038093 0.010207
-0.069259 -0.038093 0.010207
0.009861 -0.034153 0.019718
-0.069259 -0.034153 0.019718
0.009861 -0.027886 0.027886
-0.069259 -0.027886 0.027886
0.009861 -0.019718 0.034153
-0.069259 -0.019718 0.034153
0.009861 -0.010207 0.038093
-0.069259 -0.010207 0.038093
0.018910 0.000000 0.021190
0.018910 0.005484 0.020468
0.018910 0.010595 0.018351
0.018910 0.014984 0.014984
0.018910 0.018351 0.010595
0.018910 0.020468 0.005484
0.018910 0.021190 0.000000
0.018910 0.020468 -0.005484
0.018910 0.018351 -0.010595
0.018910 0.014984 -0.014984
0.018910 0.010595 -0.018351
0.018910 0.005484 -0.020468
0.018910 0.000000 -0.021190
0.018910 -0.005484 -0.020468
0.018910 -0.010595 -0.018351
0.018910 -0.014984 -0.014984
0.018910 -0.018351 -0.010595
0.018910 -0.020468 -0.005484
0.018910 -0.021190 -0.000000
0.018910 -0.020468 0.005484
0.018910 -0.018351 0.010595
0.018910 -0.014984 0.014984
0.018910 -0.010595 0.018351
0.018910 -0.005484 0.020468
0.018910 0.000000 0.008559
0.018910 0.002215 0.008267
0.018910 0.004279 0.007412
0.018910 0.006052 0.006052
0.018910 0.007412 0.004279
0.018910 0.008267 0.002215
0.018910 0.008559 0.000000
0.018910 0.008267 -0.002215
0.018910 0.007412 -0.004279
0.018910 0.006052 -0.006052
0.018910 0.004279 -0.007412
0.018910 0.002215 -0.008267
0.018910 0.000000 -0.008559
0.018910 -0.002215 -0.008267
0.018910 -0.004279 -0.007412
0.018910 -0.006052 -0.006052
0.018910 -0.007412 -0.004279
0.018910 -0.008267 -0.002215
0.018910 -0.008559 -0.000000
0.018910 -0.008267 0.002215
0.018910 -0.007412 0.004279
0.018910 -0.006052 0.006052
0.018910 -0.004279 0.007412
0.018910 -0.002215 0.008267
0.023487 0.000000 0.008559
0.023487 0.002215 0.008267
0.023487 0.004279 0.007412
0.023487 0.006052 0.006052
0.023487 0.007412 0.004279
0.023487 0.008267 0.002215
0.023487 0.008559 0.000000
0.023487 0.008267 -0.002215
0.023487 0.007412 -0.004279
0.023487 0.006052 -0.006052
0.023487 0.004279 -0.007412
0.023487 0.002215 -0.008267
0.023487 0.000000 -0.008559
0.023487 -0.002215 -0.008267
0.023487 -0.004279 -0.007412
0.023487 -0.006052 -0.006052
0.023487 -0.007412 -0.004279
0.023487 -0.008267 -0.002215
0.023487 -0.008559 -0.000000
0.023487 -0.008267 0.002215
0.023487 -0.007412 0.004279
0.023487 -0.006052 0.006052
0.023487 -0.004279 0.007412
0.023487 -0.002215 0.008267
0.023487 0.000000 0.000000
-0.069259 0.000000 -0.000000
</float_array>
          <technique_common>
            <accessor source="#arm_r_link6-POSITION-array" count="122" stride="3">
              <param name="X" type="float"/>
              <param name="Y" type="float"/>
              <param name="Z" type="float"/>
            </accessor>
          </technique_common>
        </source>
        <source id="arm_r_link6-Normal0">
          <float_array id="arm_r_link6-Normal0-array" count="2160">
0.000000 -0.000000 1.000000
0.000000 0.258819 0.965926
0.000000 0.258819 0.965926
0.000000 0.258819 0.965926
0.000000 -0.000000 1.000000
0.000000 -0.000000 1.000000
0.000000 0.258819 0.965926
0.000000 0.500000 0.866025
0.000000 0.500000 0.866025
0.000000 0.500000 0.866025
0.000000 0.258819 0.965926
0.000000 0.258819 0.965926
0.000000 0.500000 0.866025
-0.000000 0.707106 0.707107
0.000000 0.707107 0.707107
0.000000 0.707107 0.707107
0.000000 0.500000 0.866025
0.000000 0.500000 0.866025
-0.000000 0.707106 0.707107
-0.000000 0.866025 0.500000
-0.000000 0.866025 0.500000
-0.000000 0.866025 0.500000
0.000000 0.707107 0.707107
-0.000000 0.707106 0.707107
-0.000000 0.866025 0.500000
-0.000000 0.965926 0.258819
-0.000000 0.965926 0.258819
-0.000000 0.965926 0.258819
-0.000000 0.866025 0.500000
-0.000000 0.866025 0.500000
-0.000000 0.965926 0.258819
0.000000 1.000000 0.000000
-0.000000 1.000000 0.000000
-0.000000 1.000000 0.000000
-0.000000 0.965926 0.258819
-0.000000 0.965926 0.258819
0.000000 1.000000 0.000000
0.000000 0.965926 -0.258819
0.000000 0.965926 -0.258819
0.000000 0.965926 -0.258819
-0.000000 1.000000 0.000000
0.000000 1.000000 0.000000
0.000000 0.965926 -0.258819
0.000000 0.866025 -0.500000
0.000000 0.866025 -0.500000
0.000000 0.866025 -0.500000
0.000000 0.965926 -0.258819
0.000000 0.965926 -0.258819
0.000000 0.866025 -0.500000
-0.000000 0.707107 -0.707106
0.000000 0.707107 -0.707107
0.000000 0.707107 -0.707107
0.000000 0.866025 -0.500000
0.000000 0.866025 -0.500000
-0.000000 0.707107 -0.707106
-0.000000 0.500000 -0.866025
-0.000000 0.500000 -0.866025
-0.000000 0.500000 -0.866025
0.000000 0.707107 -0.707107
-0.000000 0.707107 -0.707106
-0.000000 0.500000 -0.866025
-0.000000 0.258819 -0.965926
-0.000000 0.258819 -0.965926
-0.000000 0.258819 -0.965926
-0.000000 0.500000 -0.866025
-0.000000 0.500000 -0.866025
-0.000000 0.258819 -0.965926
-0.000000 0.000000 -1.000000
-0.000000 0.000000 -1.000000
-0.000000 0.000000 -1.000000
-0.000000 0.258819 -0.965926
-0.000000 0.258819 -0.965926
-0.000000 0.000000 -1.000000
-0.000000 -0.258818 -0.965926
-0.000000 -0.258818 -0.965926
-0.000000 -0.258818 -0.965926
-0.000000 0.000000 -1.000000
-0.000000 0.000000 -1.000000
-0.000000 -0.258818 -0.965926
-0.000000 -0.500000 -0.866026
-0.000000 -0.499999 -0.866026
-0.000000 -0.499999 -0.866026
-0.000000 -0.258818 -0.965926
-0.000000 -0.258818 -0.965926
-0.000000 -0.500000 -0.866026
0.000000 -0.707107 -0.707107
-0.000000 -0.707106 -0.707107
-0.000000 -0.707106 -0.707107
-0.000000 -0.499999 -0.866026
-0.000000 -0.500000 -0.866026
0.000000 -0.707107 -0.707107
0.000000 -0.866025 -0.500000
0.000000 -0.866025 -0.500000
0.000000 -0.866025 -0.500000
-0.000000 -0.707106 -0.707107
0.000000 -0.707107 -0.707107
0.000000 -0.866025 -0.500000
0.000000 -0.965926 -0.258819
0.000000 -0.965926 -0.258819
0.000000 -0.965926 -0.258819
0.000000 -0.866025 -0.500000
0.000000 -0.866025 -0.500000
0.000000 -0.965926 -0.258819
-0.000000 -1.000000 -0.000000
0.000000 -1.000000 -0.000000
0.000000 -1.000000 -0.000000
0.000000 -0.965926 -0.258819
0.000000 -0.965926 -0.258819
-0.000000 -1.000000 -0.000000
-0.000000 -0.965926 0.258819
-0.000000 -0.965926 0.258818
-0.000000 -0.965926 0.258818
0.000000 -1.000000 -0.000000
-0.000000 -1.000000 -0.000000
-0.000000 -0.965926 0.258819
-0.000000 -0.866026 0.500000
-0.000000 -0.866026 0.499999
-0.000000 -0.866026 0.499999
-0.000000 -0.965926 0.258818
-0.000000 -0.965926 0.258819
-0.000000 -0.866026 0.500000
0.000000 -0.707107 0.707106
-0.000000 -0.707107 0.707106
-0.000000 -0.707107 0.707106
-0.000000 -0.866026 0.499999
-0.000000 -0.866026 0.500000
0.000000 -0.707107 0.707106
0.000000 -0.500000 0.866025
0.000000 -0.500001 0.866025
0.000000 -0.500001 0.866025
-0.000000 -0.707107 0.707106
0.000000 -0.707107 0.707106
0.000000 -0.500000 0.866025
0.000000 -0.258819 0.965926
0.000000 -0.258819 0.965926
0.000000 -0.258819 0.965926
0.000000 -0.500001 0.866025
0.000000 -0.500000 0.866025
0.000000 -0.258819 0.965926
0.000000 -0.000000 1.000000
0.000000 -0.000000 1.000000
0.000000 -0.000000 1.000000
0.000000 -0.258819 0.965926
0.000000 -0.258819 0.965926
0.895876 -0.000000 0.444305
0.969261 -0.000000 0.246034
0.969261 0.063678 0.237651
0.969261 0.063678 0.237651
0.895876 0.114995 0.429166
0.895876 -0.000000 0.444305
0.895876 0.114995 0.429166
0.969261 0.063678 0.237651
0.969261 0.123017 0.213072
0.969261 0.123017 0.213072
0.895876 0.222153 0.384779
0.895876 0.114995 0.429166
0.895876 0.222153 0.384779
0.969261 0.123017 0.213072
0.969261 0.173972 0.173972
0.969261 0.173972 0.173972
0.895876 0.314171 0.314171
0.895876 0.222153 0.384779
0.895876 0.314171 0.314171
0.969261 0.173972 0.173972
0.969261 0.213072 0.123017
0.969261 0.213072 0.123017
0.895876 0.384779 0.222152
0.895876 0.314171 0.314171
0.895876 0.384779 0.222152
0.969261 0.213072 0.123017
0.969261 0.237651 0.063678
0.969261 0.237651 0.063678
0.895876 0.429165 0.114994
0.895876 0.384779 0.222152
0.895876 0.429165 0.114994
0.969261 0.237651 0.063678
0.969261 0.246034 -0.000000
0.969261 0.246034 -0.000000
0.895876 0.444305 0.000000
0.895876 0.429165 0.114994
0.895876 0.444305 0.000000
0.969261 0.246034 -0.000000
0.969261 0.237650 -0.063678
0.969261 0.237650 -0.063678
0.895876 0.429165 -0.114994
0.895876 0.444305 0.000000
0.895876 0.429165 -0.114994
0.969261 0.237650 -0.063678
0.969261 0.213072 -0.123017
0.969261 0.213072 -0.123017
0.895876 0.384779 -0.222152
0.895876 0.429165 -0.114994
0.895876 0.384779 -0.222152
0.969261 0.213072 -0.123017
0.969261 0.173972 -0.173972
0.969261 0.173972 -0.173972
0.895876 0.314171 -0.314171
0.895876 0.384779 -0.222152
0.895876 0.314171 -0.314171
0.969261 0.173972 -0.173972
0.969261 0.123017 -0.213072
0.969261 0.123017 -0.213072
0.895876 0.222153 -0.384779
0.895876 0.314171 -0.314171
0.895876 0.222153 -0.384779
0.969261 0.123017 -0.213072
0.969261 0.063678 -0.237650
0.969261 0.063678 -0.237650
0.895876 0.114995 -0.429165
0.895876 0.222153 -0.384779
0.895876 0.114995 -0.429165
0.969261 0.063678 -0.237650
0.969261 0.000000 -0.246034
0.969261 0.000000 -0.246034
0.895876 0.000000 -0.444305
0.895876 0.114995 -0.429165
0.895876 0.000000 -0.444305
0.969261 0.000000 -0.246034
0.969261 -0.063678 -0.237650
0.969261 -0.063678 -0.237650
0.895876 -0.114994 -0.429165
0.895876 0.000000 -0.444305
0.895876 -0.114994 -0.429165
0.969261 -0.063678 -0.237650
0.969261 -0.123017 -0.213072
0.969261 -0.123017 -0.213072
0.895876 -0.222152 -0.384779
0.895876 -0.114994 -0.429165
0.895876 -0.222152 -0.384779
0.969261 -0.123017 -0.213072
0.969261 -0.173972 -0.173972
0.969261 -0.173972 -0.173972
0.895876 -0.314171 -0.314171
0.895876 -0.222152 -0.384779
0.895876 -0.314171 -0.314171
0.969261 -0.173972 -0.173972
0.969261 -0.213072 -0.123017
0.969261 -0.213072 -0.123017
0.895876 -0.384779 -0.222153
0.895876 -0.314171 -0.314171
0.895876 -0.384779 -0.222153
0.969261 -0.213072 -0.123017
0.969261 -0.237651 -0.063678
0.969261 -0.237651 -0.063678
0.895876 -0.429166 -0.114995
0.895876 -0.384779 -0.222153
0.895876 -0.429166 -0.114995
0.969261 -0.237651 -0.063678
0.969261 -0.246034 -0.000000
0.969261 -0.246034 -0.000000
0.895876 -0.444305 -0.000000
0.895876 -0.429166 -0.114995
0.895876 -0.444305 -0.000000
0.969261 -0.246034 -0.000000
0.969261 -0.237651 0.063678
0.969261 -0.237651 0.063678
0.895876 -0.429166 0.114994
0.895876 -0.444305 -0.000000
0.895876 -0.429166 0.114994
0.969261 -0.237651 0.063678
0.969261 -0.213072 0.123017
0.969261 -0.213072 0.123017
0.895876 -0.384780 0.222152
0.895876 -0.429166 0.114994
0.895876 -0.384780 0.222152
0.969261 -0.213072 0.123017
0.969261 -0.173972 0.173972
0.969261 -0.173972 0.173972
0.895876 -0.314171 0.314171
0.895876 -0.384780 0.222152
0.895876 -0.314171 0.314171
0.969261 -0.173972 0.173972
0.969261 -0.123017 0.213072
0.969261 -0.123017 0.213072
0.895876 -0.222153 0.384779
0.895876 -0.314171 0.314171
0.895876 -0.222153 0.384779
0.969261 -0.123017 0.213072
0.969261 -0.063678 0.237651
0.969261 -0.063678 0.237651
0.895876 -0.114995 0.429166
0.895876 -0.222153 0.384779
0.895876 -0.114995 0.429166
0.969261 -0.063678 0.237651
0.969261 -0.000000 0.246034
0.969261 -0.000000 0.246034
0.895876 -0.000000 0.444305
0.895876 -0.114995 0.429166
0.969261 0.063678 0.237651
0.969261 -0.000000 0.246034
1.000000 0.000000 -0.000001
1.000000 0.000000 -0.000001
1.000000 -0.000000 -0.000001
0.969261 0.063678 0.237651
0.969261 0.123017 0.213072
0.969261 0.063678 0.237651
1.000000 -0.000000 -0.000001
1.000000 -0.000000 -0.000001
1.000000 -0.000001 -0.000001
0.969261 0.123017 0.213072
0.969261 0.173972 0.173972
0.969261 0.123017 0.213072
1.000000 -0.000001 -0.000001
1.000000 -0.000001 -0.000001
1.000000 -0.000001 -0.000001
0.969261 0.173972 0.173972
0.969261 0.213072 0.123017
0.969261 0.173972 0.173972
1.000000 -0.000001 -0.000001
1.000000 -0.000001 -0.000001
1.000000 -0.000001 -0.000001
0.969261 0.213072 0.123017
0.969261 0.237651 0.063678
0.969261 0.213072 0.123017
1.000000 -0.000001 -0.000001
1.000000 -0.000001 -0.000001
1.000000 -0.000001 -0.000001
0.969261 0.237651 0.063678
0.969261 0.246034 -0.000000
0.969261 0.237651 0.063678
1.000000 -0.000001 -0.000001
1.000000 -0.000001 -0.000001
1.000000 -0.000001 -0.000001
0.969261 0.246034 -0.000000
0.969261 0.237650 -0.063678
0.969261 0.246034 -0.000000
1.000000 -0.000001 -0.000001
1.000000 -0.000001 -0.000001
1.000000 -0.000001 0.000000
0.969261 0.237650 -0.063678
0.969261 0.213072 -0.123017
0.969261 0.237650 -0.063678
1.000000 -0.000001 0.000000
1.000000 -0.000001 0.000000
1.000000 -0.000001 0.000001
0.969261 0.213072 -0.123017
0.969261 0.173972 -0.173972
0.969261 0.213072 -0.123017
1.000000 -0.000001 0.000001
1.000000 -0.000001 0.000001
1.000000 -0.000001 0.000001
0.969261 0.173972 -0.173972
0.969261 0.123017 -0.213072
0.969261 0.173972 -0.173972
1.000000 -0.000001 0.000001
1.000000 -0.000001 0.000001
1.000000 -0.000001 0.000001
0.969261 0.123017 -0.213072
0.969261 0.063678 -0.237650
0.969261 0.123017 -0.213072
1.000000 -0.000001 0.000001
1.000000 -0.000001 0.000001
1.000000 -0.000000 0.000001
0.969261 0.063678 -0.237650
0.969261 0.000000 -0.246034
0.969261 0.063678 -0.237650
1.000000 -0.000000 0.000001
1.000000 -0.000000 0.000001
1.000000 -0.000000 0.000001
0.969261 0.000000 -0.246034
0.969261 -0.063678 -0.237650
0.969261 0.000000 -0.246034
1.000000 -0.000000 0.000001
1.000000 -0.000000 0.000001
1.000000 0.000000 0.000001
0.969261 -0.063678 -0.237650
0.969261 -0.123017 -0.213072
0.969261 -0.063678 -0.237650
1.000000 0.000000 0.000001
1.000000 0.000000 0.000001
1.000000 0.000001 0.000001
0.969261 -0.123017 -0.213072
0.969261 -0.173972 -0.173972
0.969261 -0.123017 -0.213072
1.000000 0.000001 0.000001
1.000000 0.000001 0.000001
1.000000 0.000001 0.000001
0.969261 -0.173972 -0.173972
0.969261 -0.213072 -0.123017
0.969261 -0.173972 -0.173972
1.000000 0.000001 0.000001
1.000000 0.000001 0.000001
1.000000 0.000001 0.000001
0.969261 -0.213072 -0.123017
0.969261 -0.237651 -0.063678
0.969261 -0.213072 -0.123017
1.000000 0.000001 0.000001
1.000000 0.000001 0.000001
1.000000 0.000001 0.000000
0.969261 -0.237651 -0.063678
0.969261 -0.246034 -0.000000
0.969261 -0.237651 -0.063678
1.000000 0.000001 0.000000
1.000000 0.000001 0.000000
1.000000 0.000001 -0.000001
0.969261 -0.246034 -0.000000
0.969261 -0.237651 0.063678
0.969261 -0.246034 -0.000000
1.000000 0.000001 -0.000001
1.000000 0.000001 -0.000001
1.000000 0.000001 -0.000001
0.969261 -0.237651 0.063678
0.969261 -0.213072 0.123017
0.969261 -0.237651 0.063678
1.000000 0.000001 -0.000001
1.000000 0.000001 -0.000001
1.000000 0.000001 -0.000001
0.969261 -0.213072 0.123017
0.969261 -0.173972 0.173972
0.969261 -0.213072 0.123017
1.000000 0.000001 -0.000001
1.000000 0.000001 -0.000001
1.000000 0.000001 -0.000001
0.969261 -0.173972 0.173972
0.969261 -0.123017 0.213072
0.969261 -0.173972 0.173972
1.000000 0.000001 -0.000001
1.000000 0.000001 -0.000001
1.000000 0.000001 -0.000001
0.969261 -0.123017 0.213072
0.969261 -0.063678 0.237651
0.969261 -0.123017 0.213072
1.000000 0.000001 -0.000001
1.000000 0.000001 -0.000001
1.000000 0.000000 -0.000001
0.969261 -0.063678 0.237651
0.969261 -0.000000 0.246034
0.969261 -0.063678 0.237651
1.000000 0.000000 -0.000001
1.000000 0.000000 -0.000001
1.000000 0.000000 -0.000001
0.969261 -0.000000 0.246034
0.000000 0.258819 0.965926
0.000000 -0.000000 1.000000
0.000000 -0.000000 1.000000
0.000000 -0.000000 1.000000
-0.000000 0.258819 0.965926
0.000000 0.258819 0.965926
-0.000000 0.500000 0.866025
0.000000 0.258819 0.965926
-0.000000 0.258819 0.965926
-0.000000 0.258819 0.965926
-0.000000 0.500000 0.866025
-0.000000 0.500000 0.866025
-0.000000 0.707107 0.707107
-0.000000 0.500000 0.866025
-0.000000 0.500000 0.866025
-0.000000 0.500000 0.866025
-0.000000 0.707107 0.707107
-0.000000 0.707107 0.707107
-0.000000 0.866025 0.500000
-0.000000 0.707107 0.707107
-0.000000 0.707107 0.707107
-0.000000 0.707107 0.707107
-0.000000 0.866025 0.500000
-0.000000 0.866025 0.500000
-0.000000 0.965926 0.258819
-0.000000 0.866025 0.500000
-0.000000 0.866025 0.500000
-0.000000 0.866025 0.500000
0.000000 0.965926 0.258819
-0.000000 0.965926 0.258819
0.000000 1.000000 0.000000
-0.000000 0.965926 0.258819
0.000000 0.965926 0.258819
0.000000 0.965926 0.258819
0.000000 1.000000 0.000000
0.000000 1.000000 0.000000
0.000000 0.965926 -0.258819
0.000000 1.000000 0.000000
0.000000 1.000000 0.000000
0.000000 1.000000 0.000000
0.000000 0.965926 -0.258819
0.000000 0.965926 -0.258819
0.000000 0.866025 -0.500000
0.000000 0.965926 -0.258819
0.000000 0.965926 -0.258819
0.000000 0.965926 -0.258819
0.000000 0.866025 -0.500000
0.000000 0.866025 -0.500000
0.000000 0.707107 -0.707107
0.000000 0.866025 -0.500000
0.000000 0.866025 -0.500000
0.000000 0.866025 -0.500000
0.000000 0.707107 -0.707107
0.000000 0.707107 -0.707107
0.000000 0.500000 -0.866025
0.000000 0.707107 -0.707107
0.000000 0.707107 -0.707107
0.000000 0.707107 -0.707107
0.000000 0.500000 -0.866025
0.000000 0.500000 -0.866025
0.000000 0.258819 -0.965926
0.000000 0.500000 -0.866025
0.000000 0.500000 -0.866025
0.000000 0.500000 -0.866025
0.000000 0.258819 -0.965926
0.000000 0.258819 -0.965926
0.000000 0.000000 -1.000000
0.000000 0.258819 -0.965926
0.000000 0.258819 -0.965926
0.000000 0.258819 -0.965926
0.000000 0.000000 -1.000000
0.000000 0.000000 -1.000000
0.000000 -0.258818 -0.965926
0.000000 0.000000 -1.000000
0.000000 0.000000 -1.000000
0.000000 0.000000 -1.000000
0.000000 -0.258818 -0.965926
0.000000 -0.258818 -0.965926
0.000000 -0.499999 -0.866026
0.000000 -0.258818 -0.965926
0.000000 -0.258818 -0.965926
0.000000 -0.258818 -0.965926
0.000000 -0.499999 -0.866026
0.000000 -0.499999 -0.866026
0.000000 -0.707107 -0.707107
0.000000 -0.499999 -0.866026
0.000000 -0.499999 -0.866026
0.000000 -0.499999 -0.866026
0.000000 -0.707106 -0.707107
0.000000 -0.707107 -0.707107
0.000000 -0.866025 -0.500000
0.000000 -0.707107 -0.707107
0.000000 -0.707106 -0.707107
0.000000 -0.707106 -0.707107
0.000000 -0.866025 -0.500000
0.000000 -0.866025 -0.500000
0.000000 -0.965926 -0.258819
0.000000 -0.866025 -0.500000
0.000000 -0.866025 -0.500000
0.000000 -0.866025 -0.500000
0.000000 -0.965926 -0.258819
0.000000 -0.965926 -0.258819
0.000000 -1.000000 -0.000000
0.000000 -0.965926 -0.258819
0.000000 -0.965926 -0.258819
0.000000 -0.965926 -0.258819
0.000000 -1.000000 -0.000000
0.000000 -1.000000 -0.000000
0.000000 -0.965926 0.258818
0.000000 -1.000000 -0.000000
0.000000 -1.000000 -0.000000
0.000000 -1.000000 -0.000000
-0.000000 -0.965926 0.258818
0.000000 -0.965926 0.258818
-0.000000 -0.866026 0.499999
0.000000 -0.965926 0.258818
-0.000000 -0.965926 0.258818
-0.000000 -0.965926 0.258818
-0.000000 -0.866026 0.499999
-0.000000 -0.866026 0.499999
-0.000000 -0.707107 0.707106
-0.000000 -0.866026 0.499999
-0.000000 -0.866026 0.499999
-0.000000 -0.866026 0.499999
-0.000000 -0.707107 0.707106
-0.000000 -0.707107 0.707106
-0.000000 -0.500001 0.866025
-0.000000 -0.707107 0.707106
-0.000000 -0.707107 0.707106
-0.000000 -0.707107 0.707106
-0.000000 -0.500001 0.866025
-0.000000 -0.500001 0.866025
-0.000000 -0.258819 0.965926
-0.000000 -0.500001 0.866025
-0.000000 -0.500001 0.866025
-0.000000 -0.500001 0.866025
0.000000 -0.258819 0.965926
-0.000000 -0.258819 0.965926
0.000000 -0.000000 1.000000
-0.000000 -0.258819 0.965926
0.000000 -0.258819 0.965926
0.000000 -0.258819 0.965926
0.000000 -0.000000 1.000000
0.000000 -0.000000 1.000000
1.000000 0.000000 0.000002
1.000000 -0.000000 0.000002
1.000000 -0.000000 -0.000000
1.000000 0.000001 0.000002
1.000000 0.000000 0.000002
1.000000 -0.000000 -0.000000
1.000000 0.000001 0.000001
1.000000 0.000001 0.000002
1.000000 -0.000000 -0.000000
1.000000 0.000002 0.000001
1.000000 0.000001 0.000001
1.000000 -0.000000 -0.000000
1.000000 0.000002 -0.000000
1.000000 0.000002 0.000001
1.000000 -0.000000 -0.000000
1.000000 0.000002 -0.000001
1.000000 0.000002 -0.000000
1.000000 -0.000000 -0.000000
1.000000 0.000002 -0.000001
1.000000 0.000002 -0.000001
1.000000 -0.000000 -0.000000
1.000000 0.000002 -0.000001
1.000000 0.000002 -0.000001
1.000000 -0.000000 -0.000000
1.000000 0.000002 -0.000002
1.000000 0.000002 -0.000001
1.000000 -0.000000 -0.000000
1.000000 0.000001 -0.000002
1.000000 0.000002 -0.000002
1.000000 -0.000000 -0.000000
1.000000 0.000001 -0.000002
1.000000 0.000001 -0.000002
1.000000 -0.000000 -0.000000
1.000000 0.000000 -0.000002
1.000000 0.000001 -0.000002
1.000000 -0.000000 -0.000000
1.000000 -0.000001 -0.000002
1.000000 0.000000 -0.000002
1.000000 -0.000000 -0.000000
1.000000 -0.000001 -0.000002
1.000000 -0.000001 -0.000002
1.000000 -0.000000 -0.000000
1.000000 -0.000002 -0.000002
1.000000 -0.000001 -0.000002
1.000000 -0.000000 -0.000000
1.000000 -0.000002 -0.000001
1.000000 -0.000002 -0.000002
1.000000 -0.000000 -0.000000
1.000000 -0.000002 -0.000001
1.000000 -0.000002 -0.000001
1.000000 -0.000000 -0.000000
1.000000 -0.000002 -0.000001
1.000000 -0.000002 -0.000001
1.000000 -0.000000 -0.000000
1.000000 -0.000002 -0.000000
1.000000 -0.000002 -0.000001
1.000000 -0.000000 -0.000000
1.000000 -0.000002 0.000001
1.000000 -0.000002 -0.000000
1.000000 -0.000000 -0.000000
1.000000 -0.000001 0.000001
1.000000 -0.000002 0.000001
1.000000 -0.000000 -0.000000
1.000000 -0.000001 0.000002
1.000000 -0.000001 0.000001
1.000000 -0.000000 -0.000000
1.000000 -0.000000 0.000002
1.000000 -0.000001 0.000002
1.000000 -0.000000 -0.000000
1.000000 -0.000000 0.000002
1.000000 -0.000000 0.000002
1.000000 -0.000000 -0.000000
-1.000000 0.000000 -0.000000
-1.000000 -0.000000 -0.000000
-1.000000 -0.000000 0.000000
-1.000000 -0.000000 -0.000000
-1.000000 -0.000000 -0.000000
-1.000000 -0.000000 0.000000
-1.000000 -0.000000 -0.000000
-1.000000 -0.000000 -0.000000
-1.000000 -0.000000 0.000000
-1.000000 -0.000000 -0.000000
-1.000000 -0.000000 -0.000000
-1.000000 -0.000000 0.000000
-1.000000 -0.000000 -0.000000
-1.000000 -0.000000 -0.000000
-1.000000 -0.000000 0.000000
-1.000000 -0.000000 -0.000000
-1.000000 -0.000000 -0.000000
-1.000000 -0.000000 0.000000
-1.000000 -0.000000 -0.000000
-1.000000 -0.000000 0.000000
-1.000000 -0.000000 0.000000
-1.000000 -0.000000 0.000000
-1.000000 -0.000000 0.000000
-1.000000 -0.000000 0.000000
-1.000000 -0.000000 0.000000
-1.000000 -0.000000 0.000000
-1.000000 -0.000000 0.000000
-1.000000 -0.000000 0.000000
-1.000000 -0.000000 0.000000
-1.000000 -0.000000 0.000000
-1.000000 -0.000000 0.000000
-1.000000 -0.000000 0.000000
-1.000000 -0.000000 0.000000
-1.000000 -0.000000 0.000000
-1.000000 -0.000000 0.000000
-1.000000 -0.000000 0.000000
-1.000000 -0.000000 0.000000
-1.000000 0.000000 0.000000
-1.000000 -0.000000 0.000000
-1.000000 0.000000 0.000000
-1.000000 0.000000 0.000000
-1.000000 -0.000000 0.000000
-1.000000 0.000000 0.000000
-1.000000 0.000000 0.000000
-1.000000 -0.000000 0.000000
-1.000000 0.000000 0.000000
-1.000000 0.000000 0.000000
-1.000000 -0.000000 0.000000
-1.000000 0.000000 0.000000
-1.000000 0.000000 0.000000
-1.000000 -0.000000 0.000000
-1.000000 0.000000 0.000000
-1.000000 0.000000 0.000000
-1.000000 -0.000000 0.000000
-1.000000 0.000000 0.000000
-1.000000 0.000000 -0.000000
-1.000000 -0.000000 0.000000
-1.000000 0.000000 -0.000000
-1.000000 0.000000 -0.000000
-1.000000 -0.000000 0.000000
-1.000000 0.000000 -0.000000
-1.000000 0.000000 -0.000000
-1.000000 -0.000000 0.000000
-1.000000 0.000000 -0.000000
-1.000000 0.000000 -0.000000
-1.000000 -0.000000 0.000000
-1.000000 0.000000 -0.000000
-1.000000 0.000000 -0.000000
-1.000000 -0.000000 0.000000
-1.000000 0.000000 -0.000000
-1.000000 0.000000 -0.000000
-1.000000 -0.000000 0.000000
</float_array>
          <technique_common>
            <accessor source="#arm_r_link6-Normal0-array" count="720" stride="3">
              <param name="X" type="float"/>
              <param name="Y" type="float"/>
              <param name="Z" type="float"/>
            </accessor>
          </technique_common>
        </source>
        <vertices id="arm_r_link6-VERTEX">
          <input semantic="POSITION" source="#arm_r_link6-POSITION"/>
        </vertices>
        <triangles count="240" material="black">
          <input semantic="VERTEX" offset="0" source="#arm_r_link6-VERTEX"/>
          <input semantic="NORMAL" offset="1" source="#arm_r_link6-Normal0"/>
          <p> 0 0 1 1 2 2 2 3 3 4 0 5 1 6 4 7 5 8 5 9 2 10 1 11 4 12 6 13 7 14 7 15 5 16 4 17 6 18 8 19 9 20 9 21 7 22 6 23 8 24 10 25 11 26 11 27 9 28 8 29 10 30 12 31 13 32 13 33 11 34 10 35 12 36 14 37 15 38 15 39 13 40 12 41 14 42 16 43 17 44 17 45 15 46 14 47 16 48 18 49 19 50 19 51 17 52 16 53 18 54 20 55 21 56 21 57 19 58 18 59 20 60 22 61 23 62 23 63 21 64 20 65 22 66 24 67 25 68 25 69 23 70 22 71 24 72 26 73 27 74 27 75 25 76 24 77 26 78 28 79 29 80 29 81 27 82 26 83 28 84 30 85 31 86 31 87 29 88 28 89 30 90 32 91 33 92 33 93 31 94 30 95 32 96 34 97 35 98 35 99 33 100 32 101 34 102 36 103 37 104 37 105 35 106 34 107 36 108 38 109 39 110 39 111 37 112 36 113 38 114 40 115 41 116 41 117 39 118 38 119 40 120 42 121 43 122 43 123 41 124 40 125 42 126 44 127 45 128 45 129 43 130 42 131 44 132 46 133 47 134 47 135 45 136 44 137 46 138 0 139 3 140 3 141 47 142 46 143 0 144 48 145 49 146 49 147 1 148 0 149 1 150 49 151 50 152 50 153 4 154 1 155 4 156 50 157 51 158 51 159 6 160 4 161 6 162 51 163 52 164 52 165 8 166 6 167 8 168 52 169 53 170 53 171 10 172 8 173 10 174 53 175 54 176 54 177 12 178 10 179 12 180 54 181 55 182 55 183 14 184 12 185 14 186 55 187 56 188 56 189 16 190 14 191 16 192 56 193 57 194 57 195 18 196 16 197 18 198 57 199 58 200 58 201 20 202 18 203 20 204 58 205 59 206 59 207 22 208 20 209 22 210 59 211 60 212 60 213 24 214 22 215 24 216 60 217 61 218 61 219 26 220 24 221 26 222 61 223 62 224 62 225 28 226 26 227 28 228 62 229 63 230 63 231 30 232 28 233 30 234 63 235 64 236 64 237 32 238 30 239 32 240 64 241 65 242 65 243 34 244 32 245 34 246 65 247 66 248 66 249 36 250 34 251 36 252 66 253 67 254 67 255 38 256 36 257 38 258 67 259 68 260 68 261 40 262 38 263 40 264 68 265 69 266 69 267 42 268 40 269 42 270 69 271 70 272 70 273 44 274 42 275 44 276 70 277 71 278 71 279 46 280 44 281 46 282 71 283 48 284 48 285 0 286 46 287 49 288 48 289 72 290 72 291 73 292 49 293 50 294 49 295 73 296 73 297 74 298 50 299 51 300 50 301 74 302 74 303 75 304 51 305 52 306 51 307 75 308 75 309 76 310 52 311 53 312 52 313 76 314 76 315 77 316 53 317 54 318 53 319 77 320 77 321 78 322 54 323 55 324 54 325 78 326 78 327 79 328 55 329 56 330 55 331 79 332 79 333 80 334 56 335 57 336 56 337 80 338 80 339 81 340 57 341 58 342 57 343 81 344 81 345 82 346 58 347 59 348 58 349 82 350 82 351 83 352 59 353 60 354 59 355 83 356 83 357 84 358 60 359 61 360 60 361 84 362 84 363 85 364 61 365 62 366 61 367 85 368 85 369 86 370 62 371 63 372 62 373 86 374 86 375 87 376 63 377 64 378 63 379 87 380 87 381 88 382 64 383 65 384 64 385 88 386 88 387 89 388 65 389 66 390 65 391 89 392 89 393 90 394 66 395 67 396 66 397 90 398 90 399 91 400 67 401 68 402 67 403 91 404 91 405 92 406 68 407 69 408 68 409 92 410 92 411 93 412 69 413 70 414 69 415 93 416 93 417 94 418 70 419 71 420 70 421 94 422 94 423 95 424 71 425 48 426 71 427 95 428 95 429 72 430 48 431 73 432 72 433 96 434 96 435 97 436 73 437 74 438 73 439 97 440 97 441 98 442 74 443 75 444 74 445 98 446 98 447 99 448 75 449 76 450 75 451 99 452 99 453 100 454 76 455 77 456 76 457 100 458 100 459 101 460 77 461 78 462 77 463 101 464 101 465 102 466 78 467 79 468 78 469 102 470 102 471 103 472 79 473 80 474 79 475 103 476 103 477 104 478 80 479 81 480 80 481 104 482 104 483 105 484 81 485 82 486 81 487 105 488 105 489 106 490 82 491 83 492 82 493 106 494 106 495 107 496 83 497 84 498 83 499 107 500 107 501 108 502 84 503 85 504 84 505 108 506 108 507 109 508 85 509 86 510 85 511 109 512 109 513 110 514 86 515 87 516 86 517 110 518 110 519 111 520 87 521 88 522 87 523 111 524 111 525 112 526 88 527 89 528 88 529 112 530 112 531 113 532 89 533 90 534 89 535 113 536 113 537 114 538 90 539 91 540 90 541 114 542 114 543 115 544 91 545 92 546 91 547 115 548 115 549 116 550 92 551 93 552 92 553 116 554 116 555 117 556 93 557 94 558 93 559 117 560 117 561 118 562 94 563 95 564 94 565 118 566 118 567 119 568 95 569 72 570 95 571 119 572 119 573 96 574 72 575 97 576 96 577 120 578 98 579 97 580 120 581 99 582 98 583 120 584 100 585 99 586 120 587 101 588 100 589 120 590 102 591 101 592 120 593 103 594 102 595 120 596 104 597 103 598 120 599 105 600 104 601 120 602 106 603 105 604 120 605 107 606 106 607 120 608 108 609 107 610 120 611 109 612 108 613 120 614 110 615 109 616 120 617 111 618 110 619 120 620 112 621 111 622 120 623 113 624 112 625 120 626 114 627 113 628 120 629 115 630 114 631 120 632 116 633 115 634 120 635 117 636 116 637 120 638 118 639 117 640 120 641 119 642 118 643 120 644 96 645 119 646 120 647 3 648 2 649 121 650 2 651 5 652 121 653 5 654 7 655 121 656 7 657 9 658 121 659 9 660 11 661 121 662 11 663 13 664 121 665 13 666 15 667 121 668 15 669 17 670 121 671 17 672 19 673 121 674 19 675 21 676 121 677 21 678 23 679 121 680 23 681 25 682 121 683 25 684 27 685 121 686 27 687 29 688 121 689 29 690 31 691 121 692 31 693 33 694 121 695 33 696 35 697 121 698 35 699 37 700 121 701 37 702 39 703 121 704 39 705 41 706 121 707 41 708 43 709 121 710 43 711 45 712 121 713 45 714 47 715 121 716 47 717 3 718 121 719</p>
        </triangles>
      </mesh>
    </geometry>
  </library_geometries>
  <library_visual_scenes>
    <visual_scene id="arm_r_link6" name="arm_r_link6">
      <node name="arm_r_link6" id="arm_r_link6" sid="arm_r_link6">
        <node id="arm_r_link6-Pivot" name="arm_r_link6-Pivot">
          <translate>0.028359 -0.000000 -0.000000</translate>
          <rotate>0.000000 0.000000 0.000000 0.000000</rotate>
          <instance_geometry url="#arm_r_link6-lib">
            <bind_material>
              <technique_common>
                <instance_material symbol="black" target="#black"/>
              </technique_common>
            </bind_material>
          </instance_geometry>
        </node>
        <extra>
          <technique profile="FCOLLADA">
            <visibility>1.000000</visibility>
          </technique>
        </extra>
      </node>
      <extra>
        <technique profile="MAX3D">
          <frame_rate>30.000000</frame_rate>
        </technique>
        <technique profile="FCOLLADA">
          <start_time>0.000000</start_time>
          <end_time>3.333333</end_time>
        </technique>
      </extra>
    </visual_scene>
  </library_visual_scenes>
  <scene>
    <instance_visual_scene url="#arm_r_link6"/>
  </scene>
</COLLADA>
