<?xml version="1.0" encoding="UTF-8" standalone="no" ?>
<COLLADA xmlns="http://www.collada.org/2005/11/COLLADASchema" version="1.4.1">
  <asset>
    <contributor>
      <author>Assimp</author>
      <authoring_tool>FBX SDK/FBX Plugins version 2020.3.2</authoring_tool>
    </contributor>
    <created>2026-05-28T19:27:50</created>
    <modified>2026-05-28T19:27:50</modified>
    <unit name="meter" meter="1" />
    <up_axis>Z_UP</up_axis>
  </asset>
  <library_images>
  </library_images>
  <library_effects>
    <effect id="_01W-WDefault-fx" name="01 - Default">
      <profile_COMMON>
        <technique sid="standard">
          <phong>
            <emission>
              <color sid="emission">0   0   0   1</color>
            </emission>
            <ambient>
              <color sid="ambient">0.5   0.5   0.5   1</color>
            </ambient>
            <diffuse>
              <color sid="diffuse">0.5   0.5   0.5   1</color>
            </diffuse>
            <specular>
              <color sid="specular">1   1   1   1</color>
            </specular>
            <shininess>
              <float sid="shininess">1024</float>
            </shininess>
          </phong>
        </technique>
      </profile_COMMON>
    </effect>
  </library_effects>
  <library_materials>
    <material id="_01W-WDefault" name="01 - Default">
      <instance_effect url="#_01W-WDefault-fx"/>
    </material>
  </library_materials>
  <library_geometries>
    <geometry id="ww" name="ww" >
      <mesh>
        <source id="ww-positions" name="ww-positions">
          <float_array id="ww-positions-array" count="2013">0.0349835977 0.00937382691 0.00320320716 0.0349835977 0.00937382691 0.0239023939 0.0362176858 -3.77000597e-10 0.023902392 0.0362176858 -3.73759246e-10 0.00320320716 0.0313654318 0.018108841 0.00320320716 0.0313654318 0.018108841 0.0239023939 0.0349835977 0.00937382691 0.0239023939 0.0349835977 0.00937382691 0.00320320716 0.0256097689 0.0256097689 0.00320320716 0.0256097689 0.0256097689 0.0239023939 0.0313654318 0.018108841 0.0239023939 0.0313654318 0.018108841 0.00320320716 0.0181088392 0.0313654356 0.00320320716 0.0181088392 0.0313654356 0.0239023939 0.0256097689 0.0256097689 0.0239023939 0.0256097689 0.0256097689 0.00320320716 0.00937382691 0.0349835977 0.00320320716 0.00937382691 0.0349835977 0.0239023939 0.0181088392 0.0313654356 0.0239023939 0.0181088392 0.0313654356 0.00320320716 1.86264515e-09 0.0362176858 0.00320320716 1.84697424e-09 0.0362176858 0.0239023939 0.00937382691 0.0349835977 0.0239023939 0.00937382691 0.0349835977 0.00320320716 -0.00937382318 0.0349836014 0.00320320716 -0.00937382318 0.0349836014 0.0239023939 1.84697424e-09 0.0362176858 0.0239023939 1.86264515e-09 0.0362176858 0.00320320716 -0.0181088373 0.0313654393 0.00320320716 -0.0181088373 0.0313654393 0.0239023939 -0.00937382318 0.0349836014 0.0239023939 -0.00937382318 0.0349836014 0.00320320716 -0.00937384181 -0.034983594 0.00320320716 -0.00937384181 -0.034983594 0.0239023939 -0.0181088559 -0.0313654281 0.023902392 -0.0181088559 -0.0313654281 0.00320320716 -1.76951289e-08 -0.0362176858 0.00320320716 -1.77144575e-08 -0.0362176858 0.0239023939 -0.00937384181 -0.034983594 0.0239023939 -0.00937384181 -0.034983594 0.00320320716 0.00937380735 -0.0349836014 0.00320320716 0.00937380735 -0.0349836014 0.0239023939 -1.77144575e-08 -0.0362176858 0.0239023939 -1.76951289e-08 -0.0362176858 0.00320320716 0.0181088224 -0.0313654467 0.00320320716 0.0181088224 -0.0313654467 0.0239023939 0.00937380735 -0.0349836014 0.0239023939 0.00937380735 -0.0349836014 0.00320320716 0.0256097522 -0.0256097894 0.00320320716 0.0256097522 -0.0256097876 0.0239023939 0.0181088224 -0.0313654467 0.0239023939 0.0181088224 -0.0313654467 0.00320320716 0.0313654244 -0.0181088652 0.00320320716 0.0313654244 -0.0181088634 0.0239023939 0.0256097522 -0.0256097876 0.0239023939 0.0256097522 -0.0256097894 0.00320320716 0.0349835902 -0.00937385298 0.00320320716 0.0349835902 -0.00937385298 0.0239023939 0.0313654244 -0.0181088634 0.0239023939 0.0313654244 -0.0181088652 0.00320320716 0.0362176858 -3.73759246e-10 0.00320320716 0.0362176858 -3.77000597e-10 0.023902392 0.0349835902 -0.00937385298 0.0239023939 0.0349835902 -0.00937385298 0.00320320716 -0.0549999401 0.0289382655 0.0559999906 -0.0549999401 0.0279522222 0.0634897649 -0.0527499579 0.0295748506 0.0632287413 -0.0527499579 0.030618133 0.0559999831 -0.0549999401 0.0279522222 0.0634897649 -0.0549999401 0.0250612758 0.0704691187 -0.0527499542 0.0265160836 0.0706132501 -0.0527499579 0.0295748506 0.0632287413 -0.0549999401 0.0250612758 0.0704691187 -0.0549999401 0.0204624478 0.0764624327 -0.0527499542 0.0216502938 0.0769544691 -0.0527499542 0.0265160836 0.0706132501 -0.0549999401 0.0204624478 0.0764624327 -0.0549999401 0.0144691374 0.0810612589 -0.0527499542 0.015309073 0.0818202645 -0.0527499542 0.0216502938 0.0769544691 -0.0549999401 0.0144691374 0.0810612589 -0.0549999401 0.00748978369 0.0839522034 -0.0527499542 0.00792456511 0.0848790258 -0.0527499542 0.015309073 0.0818202645 -0.0549999401 0.00748978369 0.0839522034 -0.0549999401 1.09703384e-08 0.0849382579 -0.0527499542 1.11868683e-08 0.0859223232 -0.0527499542 0.00792456511 0.0848790258 -0.0549999401 1.09703384e-08 0.0849382579 -0.0549999401 -0.0074897618 0.0839522108 -0.0527499542 -0.00792454462 0.0848790407 -0.0527499542 1.11868683e-08 0.0859223232 -0.0549999401 -0.0074897618 0.0839522108 -0.0549999401 -0.0144691225 0.0810612738 -0.0527499542 -0.0153090544 0.0818202719 -0.0527499542 -0.00792454462 0.0848790407 -0.0549999401 -0.0144691225 0.0810612738 -0.0549999401 -0.0204624347 0.0764624476 -0.0527499542 -0.0216502771 0.0769544914 -0.0527499542 -0.0153090544 0.0818202719 -0.0549999401 -0.0204624347 0.0764624476 -0.0549999401 -0.0250612684 0.0704691336 -0.0527499542 -0.0265160762 0.070613265 -0.0527499542 -0.0216502771 0.0769544914 -0.0549999401 -0.0250612684 0.0704691336 -0.0549999401 -0.0279522166 0.0634897798 -0.0527499579 -0.0295748431 0.0632287562 -0.0527499542 -0.0265160762 0.070613265 -0.0549999401 -0.0279522166 0.0634897798 -0.0549999401 -0.0289382655 0.0560000055 -0.0527499579 -0.030618133 0.0560000017 -0.0527499579 -0.0295748431 0.0632287562 -0.0527499579 0.030618133 0.0559999831 -0.0527499579 0.030618133 0.0428007916 -0.0549999401 0.0289382655 0.0428007953 -0.0549999401 0.0289382655 0.0559999906 -0.0549999401 -0.0289382655 0.0560000055 -0.0549999401 -0.0289382655 0.0428008139 -0.0527499579 -0.030618133 0.0428008065 -0.0527499579 -0.030618133 0.0560000017 -0.0549999401 -0.0289382655 0.0560000055 -0.0549999401 -0.0279522166 0.0634897798 -0.0549999401 0.0279522222 0.0634897649 -0.0549999401 0.0289382655 0.0559999906 -0.0527499579 0.030618133 0.016402401 -0.0354293957 0.0301518515 0.0175507739 -0.0354293957 0.0301518515 0.00320320716 -0.0527499579 0.030618133 0.00320320763 -0.0527499579 -0.030618133 0.0560000017 -0.0527499579 -0.030618133 0.0428008065 -0.0354294032 -0.0301518477 0.0462459102 -0.0354294069 -0.0301518477 0.0605934784 -0.0354293957 0.0277247969 0.0696178973 -0.0391798615 0.0249404032 0.0764017552 -0.0256097652 0.0256097764 0.0859999508 -0.0181088392 0.0313654393 0.0859999508 -0.0527499542 -0.00792454462 0.0848790407 -0.0438667759 -0.0084317876 0.0849760771 -0.0444838181 1.23384689e-08 0.0859223157 -0.0527499542 1.11868683e-08 0.0859223232 -0.0527499542 -0.0153090544 0.0818202719 -0.0438667759 -0.0138650145 0.0836397707 -0.0438667759 -0.0084317876 0.0849760771 -0.0527499542 -0.00792454462 0.0848790407 -0.0527499542 -0.0153090544 0.0818202719 -0.0527499542 -0.0216502771 0.0769544914 -0.0420576967 -0.0192856304 0.0812311992 -0.0438667759 -0.0138650145 0.0836397707 -0.0527499542 -0.0265160762 0.070613265 -0.0527499579 -0.0295748431 0.0632287562 -0.0354294069 -0.0277247857 0.0696179122 -0.039179869 -0.0249403883 0.0764017552 -0.0527499542 -0.0216502771 0.0769544914 -0.0527499542 -0.0265160762 0.070613265 -0.039179869 -0.0249403883 0.0764017552 -0.0420576967 -0.0192856304 0.0812311992 -0.0527499542 0.00792456511 0.0848790258 -0.0438667759 0.00843180995 0.0849760771 -0.0438667759 0.013865035 0.0836397707 -0.0527499542 0.015309073 0.0818202645 -0.0527499542 0.00792456511 0.0848790258 -0.0527499542 1.11868683e-08 0.0859223232 -0.0444838181 1.23384689e-08 0.0859223157 -0.0438667759 0.00843180995 0.0849760771 -0.0527499542 0.015309073 0.0818202645 -0.0438667759 0.013865035 0.0836397707 -0.042057693 0.0192856491 0.0812311918 -0.0527499542 0.0216502938 0.0769544691 -0.0527499542 0.0216502938 0.0769544691 -0.042057693 0.0192856491 0.0812311918 -0.0391798615 0.0249404032 0.0764017552 -0.0527499542 0.0265160836 0.0706132501 -0.0181088392 0.0313654393 0.0859999508 -0.0354293995 0.0301518515 0.0605934709 -0.0354293957 0.0277247969 0.0696178973 -0.0527499579 -0.0295748431 0.0632287562 -0.0527499579 -0.030618133 0.0560000017 -0.0354294069 -0.0301518477 0.0605934784 -0.0354294069 -0.0277247857 0.0696179122 -0.0354293995 0.0301518515 0.0605934709 -0.0181088392 0.0313654393 0.0859999508 -0.0181088373 0.0313654393 0.0653007627 -0.0354293957 0.0301518515 0.0462459028 -0.0181088559 -0.0313654281 0.00320320716 -0.0181088559 -0.0313654281 0.023902392 -0.0354294032 -0.0301518477 0.0175507795 -0.0354294032 -0.0301518477 0.00320321461 -0.0354293957 0.0277247969 0.0696178973 -0.0527499579 0.0295748506 0.0632287413 -0.0527499542 0.0265160836 0.0706132501 -0.0391798615 0.0249404032 0.0764017552 -0.0438667759 -0.0084317876 0.0849760771 -0.0349836014 -0.009373812 0.0859999508 -0.0362176858 1.371696e-08 0.0859999508 -0.0444838181 1.23384689e-08 0.0859223157 -0.0438667759 -0.0138650145 0.0836397707 -0.0349836014 -0.009373812 0.0859999508 -0.0438667759 -0.0084317876 0.0849760771 -0.0420576967 -0.0192856304 0.0812311992 -0.031365443 -0.018108828 0.0859999508 -0.0349836014 -0.009373812 0.0859999508 -0.0438667759 -0.0138650145 0.0836397707 -0.0354294069 -0.0277247857 0.0696179122 -0.0181088559 -0.0313654281 0.0859999508 -0.0256097876 -0.0256097578 0.0859999508 -0.039179869 -0.0249403883 0.0764017552 -0.039179869 -0.0249403883 0.0764017552 -0.0256097876 -0.0256097578 0.0859999508 -0.031365443 -0.018108828 0.0859999508 -0.0420576967 -0.0192856304 0.0812311992 -0.0438667759 0.00843180995 0.0849760771 -0.034983594 0.00937383715 0.0859999508 -0.0438667759 0.013865035 0.0836397707 -0.0362176858 1.371696e-08 0.0859999508 -0.034983594 0.00937383715 0.0859999508 -0.0438667759 0.00843180995 0.0849760771 -0.0444838181 1.23384689e-08 0.0859223157 -0.034983594 0.00937383715 0.0859999508 -0.0313654318 0.0181088503 0.0859999508 -0.042057693 0.0192856491 0.0812311918 -0.0438667759 0.013865035 0.0836397707 -0.0313654318 0.0181088503 0.0859999508 -0.0256097652 0.0256097764 0.0859999508 -0.0391798615 0.0249404032 0.0764017552 -0.042057693 0.0192856491 0.0812311918 -0.0354293995 0.0301518515 0.0605934709 -0.0527499579 0.030618133 0.0559999831 -0.0527499579 0.0295748506 0.0632287413 -0.0354293957 0.0277247969 0.0696178973 -0.0354294069 -0.0301518477 0.0605934784 -0.0181088559 -0.0313654281 0.0859999508 -0.0354294069 -0.0277247857 0.0696179122 -0.034983594 0.00937383715 0.0859999508 -0.0362176858 1.371696e-08 0.0859999508 0.0362176858 -3.86724652e-10 0.0859999508 0.0349835977 0.00937382597 0.0859999508 -0.0549999401 0.0289382655 0.0428007953 -0.0549999401 -0.0289382655 0.0428008139 -0.0549999401 -0.0289382655 0.0560000055 -0.0549999401 0.0289382655 0.0559999906 0.0349835977 0.00937382691 0.0653007627 0.0362176858 -3.83483301e-10 0.0653007627 0.0362176858 -3.80241949e-10 0.0446015783 0.0349835977 0.00937382691 0.0446015783 0.0313654318 0.018108841 0.0653007627 0.0349835977 0.00937382691 0.0653007627 0.0349835977 0.00937382691 0.0446015783 0.0313654318 0.018108841 0.0446015783 0.0256097689 0.0256097689 0.0653007627 0.0313654318 0.018108841 0.0653007627 0.0313654318 0.018108841 0.0446015783 0.0256097689 0.0256097689 0.0446015783 0.0181088392 0.0313654356 0.0653007627 0.0256097689 0.0256097689 0.0653007627 0.0256097689 0.0256097689 0.0446015783 0.0181088392 0.0313654356 0.0446015783 0.00937382691 0.0349835977 0.0653007627 0.0181088392 0.0313654356 0.0653007627 0.0181088392 0.0313654356 0.0446015783 0.00937382691 0.0349835977 0.0446015783 1.81563242e-09 0.0362176858 0.0653007627 0.00937382691 0.0349835977 0.0653007627 0.00937382691 0.0349835977 0.0446015783 1.83130333e-09 0.0362176858 0.0446015783 -0.00937382318 0.0349836014 0.0653007627 1.81563242e-09 0.0362176858 0.0653007627 1.83130333e-09 0.0362176858 0.0446015783 -0.00937382318 0.0349836014 0.0446015783 -0.0181088373 0.0313654393 0.0653007627 -0.00937382318 0.0349836014 0.0653007627 -0.00937382318 0.0349836014 0.0446015783 -0.0181088373 0.0313654393 0.0446015783 -0.00937384181 -0.034983594 0.0653007627 -0.0181088559 -0.0313654281 0.0653007627 -0.0181088559 -0.0313654281 0.0446015783 -0.00937384181 -0.034983594 0.0446015783 -1.77531145e-08 -0.0362176858 0.0653007627 -0.00937384181 -0.034983594 0.0653007627 -0.00937384181 -0.034983594 0.0446015783 -1.7733786e-08 -0.0362176858 0.0446015783 0.00937380735 -0.0349836014 0.0653007627 -1.77531145e-08 -0.0362176858 0.0653007627 -1.7733786e-08 -0.0362176858 0.0446015783 0.00937380735 -0.0349836014 0.0446015783 0.0181088224 -0.0313654467 0.0653007627 0.00937380735 -0.0349836014 0.0653007627 0.00937380735 -0.0349836014 0.0446015783 0.0181088224 -0.0313654467 0.0446015783 0.0256097522 -0.0256097876 0.0653007627 0.0181088224 -0.0313654467 0.0653007627 0.0181088224 -0.0313654467 0.0446015783 0.0256097522 -0.0256097876 0.0446015783 0.0313654244 -0.0181088634 0.0653007627 0.0256097522 -0.0256097876 0.0653007627 0.0256097522 -0.0256097876 0.0446015783 0.0313654244 -0.0181088634 0.0446015783 0.0349835902 -0.00937385298 0.0653007627 0.0313654244 -0.0181088634 0.0653007627 0.0313654244 -0.0181088634 0.0446015783 0.0349835902 -0.00937385298 0.0446015783 0.0362176858 -3.83483301e-10 0.0653007627 0.0349835902 -0.00937385298 0.0653007627 0.0349835902 -0.00937385298 0.0446015783 0.0362176858 -3.80241949e-10 0.0446015783 -0.0527499579 0.030618133 0.016402401 -0.0549999401 0.0289382655 0.0164024085 -0.0549999401 0.0289382655 0.0296016019 -0.0527499579 0.030618133 0.0296015963 -0.0549999401 -0.0289382655 0.0164024271 -0.0527499579 -0.030618133 0.0164024178 -0.0527499579 -0.030618133 0.0296016131 -0.0549999401 -0.0289382655 0.0296016186 -0.0527499579 0.030618133 0.0428007916 -0.0354293957 0.0301518515 0.0462459028 -0.0354293957 0.0301518515 0.0318983383 -0.0527499579 0.030618133 0.0296015963 -0.0527499579 -0.030618133 0.0296016131 -0.0527499579 -0.030618133 0.0164024178 -0.0354294032 -0.0301518477 0.0175507795 -0.0354294032 -0.0301518477 0.0318983458 -0.0181088373 0.0313654393 0.0239023939 -0.0354293957 0.0301518515 0.0175507739 -0.0354293957 0.0301518515 0.0318983383 -0.0181088373 0.0313654393 0.0446015783 -0.0181088559 -0.0313654281 0.0446015783 -0.0181088559 -0.0313654281 0.0653007627 -0.0354294032 -0.0301518477 0.0462459102 -0.0354294032 -0.0301518477 0.0318983458 -0.0549999401 0.0289382655 0.0164024085 -0.0549999401 -0.0289382655 0.0164024271 -0.0549999401 -0.0289382655 0.0296016186 -0.0549999401 0.0289382655 0.0296016019 0.0349835977 0.00937382691 0.0446015783 0.0362176858 -3.80241949e-10 0.0446015783 0.0362176858 -3.77000597e-10 0.023902392 0.0349835977 0.00937382691 0.0239023939 0.0313654318 0.018108841 0.0446015783 0.0349835977 0.00937382691 0.0446015783 0.0349835977 0.00937382691 0.0239023939 0.0313654318 0.018108841 0.0239023939 0.0256097689 0.0256097689 0.0446015783 0.0313654318 0.018108841 0.0446015783 0.0313654318 0.018108841 0.0239023939 0.0256097689 0.0256097689 0.0239023939 0.0181088392 0.0313654356 0.0446015783 0.0256097689 0.0256097689 0.0446015783 0.0256097689 0.0256097689 0.0239023939 0.0181088392 0.0313654356 0.0239023939 0.00937382691 0.0349835977 0.0446015783 0.0181088392 0.0313654356 0.0446015783 0.0181088392 0.0313654356 0.0239023939 0.00937382691 0.0349835977 0.0239023939 1.83130333e-09 0.0362176858 0.0446015783 0.00937382691 0.0349835977 0.0446015783 0.00937382691 0.0349835977 0.0239023939 1.84697424e-09 0.0362176858 0.0239023939 -0.00937382318 0.0349836014 0.0446015783 1.83130333e-09 0.0362176858 0.0446015783 1.84697424e-09 0.0362176858 0.0239023939 -0.00937382318 0.0349836014 0.0239023939 -0.0181088373 0.0313654393 0.0446015783 -0.00937382318 0.0349836014 0.0446015783 -0.00937382318 0.0349836014 0.0239023939 -0.0181088373 0.0313654393 0.0239023939 -0.00937384181 -0.034983594 0.0446015783 -0.0181088559 -0.0313654281 0.0446015783 -0.0181088559 -0.0313654281 0.023902392 -0.00937384181 -0.034983594 0.0239023939 -1.7733786e-08 -0.0362176858 0.0446015783 -0.00937384181 -0.034983594 0.0446015783 -0.00937384181 -0.034983594 0.0239023939 -1.77144575e-08 -0.0362176858 0.0239023939 0.00937380735 -0.0349836014 0.0446015783 -1.7733786e-08 -0.0362176858 0.0446015783 -1.77144575e-08 -0.0362176858 0.0239023939 0.00937380735 -0.0349836014 0.0239023939 0.0181088224 -0.0313654467 0.0446015783 0.00937380735 -0.0349836014 0.0446015783 0.00937380735 -0.0349836014 0.0239023939 0.0181088224 -0.0313654467 0.0239023939 0.0256097522 -0.0256097876 0.0446015783 0.0181088224 -0.0313654467 0.0446015783 0.0181088224 -0.0313654467 0.0239023939 0.0256097522 -0.0256097876 0.0239023939 0.0313654244 -0.0181088634 0.0446015783 0.0256097522 -0.0256097876 0.0446015783 0.0256097522 -0.0256097876 0.0239023939 0.0313654244 -0.0181088634 0.0239023939 0.0349835902 -0.00937385298 0.0446015783 0.0313654244 -0.0181088634 0.0446015783 0.0313654244 -0.0181088634 0.0239023939 0.0349835902 -0.00937385298 0.0239023939 0.0362176858 -3.80241949e-10 0.0446015783 0.0349835902 -0.00937385298 0.0446015783 0.0349835902 -0.00937385298 0.0239023939 0.0362176858 -3.77000597e-10 0.023902392 -0.0527499579 0.030618133 0.0296015963 -0.0354293957 0.0301518515 0.0318983383 -0.0354293957 0.0301518515 0.0175507739 -0.0527499579 0.030618133 0.016402401 -0.0181088559 -0.0313654281 0.023902392 -0.0181088559 -0.0313654281 0.0446015783 -0.0354294032 -0.0301518477 0.0318983458 -0.0354294032 -0.0301518477 0.0175507795 -0.0527499579 0.030618133 0.00320320763 -0.0549999401 0.0289382655 0.00320321508 -0.0549999401 0.0289382655 0.0164024085 -0.0527499579 0.030618133 0.016402401 -0.0549999401 -0.0289382655 0.0032032337 -0.0527499579 -0.030618133 0.00320322253 -0.0527499579 -0.030618133 0.0164024178 -0.0549999401 -0.0289382655 0.0164024271 -0.0527499579 -0.030618133 0.0164024178 -0.0527499579 -0.030618133 0.00320322253 -0.0354294032 -0.0301518477 0.00320321461 -0.0354294032 -0.0301518477 0.0175507795 -0.0181088373 0.0313654393 0.00320320716 -0.0354293957 0.0301518515 0.00320320716 -0.0354293957 0.0301518515 0.0175507739 -0.0181088373 0.0313654393 0.0239023939 -0.0549999401 0.0289382655 0.00320321508 -0.0549999401 -0.0289382655 0.0032032337 -0.0549999401 -0.0289382655 0.0164024271 -0.0549999401 0.0289382655 0.0164024085 -0.0527499579 0.030618133 0.0296015963 -0.0549999401 0.0289382655 0.0296016019 -0.0549999401 0.0289382655 0.0428007953 -0.0527499579 0.030618133 0.0428007916 -0.0549999401 -0.0289382655 0.0296016186 -0.0527499579 -0.030618133 0.0296016131 -0.0527499579 -0.030618133 0.0428008065 -0.0549999401 -0.0289382655 0.0428008139 -0.0527499579 -0.030618133 0.0428008065 -0.0527499579 -0.030618133 0.0296016131 -0.0354294032 -0.0301518477 0.0318983458 -0.0354294032 -0.0301518477 0.0462459102 -0.0181088373 0.0313654393 0.0446015783 -0.0354293957 0.0301518515 0.0318983383 -0.0354293957 0.0301518515 0.0462459028 -0.0181088373 0.0313654393 0.0653007627 -0.0549999401 0.0289382655 0.0296016019 -0.0549999401 -0.0289382655 0.0296016186 -0.0549999401 -0.0289382655 0.0428008139 -0.0549999401 0.0289382655 0.0428007953 0.0349835977 0.00937382597 0.0859999508 0.0362176858 -3.86724652e-10 0.0859999508 0.0362176858 -3.83483301e-10 0.0653007627 0.0349835977 0.00937382691 0.0653007627 0.0313654318 0.0181088429 0.0859999508 0.0349835977 0.00937382597 0.0859999508 0.0349835977 0.00937382691 0.0653007627 0.0313654318 0.018108841 0.0653007627 0.0256097689 0.0256097708 0.0859999508 0.0313654318 0.0181088429 0.0859999508 0.0313654318 0.018108841 0.0653007627 0.0256097689 0.0256097689 0.0653007627 0.0181088392 0.0313654356 0.0859999508 0.0256097689 0.0256097708 0.0859999508 0.0256097689 0.0256097689 0.0653007627 0.0181088392 0.0313654356 0.0653007627 0.00937382691 0.0349835977 0.0859999508 0.0181088392 0.0313654356 0.0859999508 0.0181088392 0.0313654356 0.0653007627 0.00937382691 0.0349835977 0.0653007627 1.79996151e-09 0.0362176858 0.0859999508 0.00937382691 0.0349835977 0.0859999508 0.00937382691 0.0349835977 0.0653007627 1.81563242e-09 0.0362176858 0.0653007627 -0.00937382318 0.0349836014 0.0859999508 1.79996151e-09 0.0362176858 0.0859999508 1.81563242e-09 0.0362176858 0.0653007627 -0.00937382318 0.0349836014 0.0653007627 -0.0181088392 0.0313654393 0.0859999508 -0.00937382318 0.0349836014 0.0859999508 -0.00937382318 0.0349836014 0.0653007627 -0.0181088373 0.0313654393 0.0653007627 -0.00937384181 -0.034983594 0.0859999508 -0.0181088559 -0.0313654281 0.0859999508 -0.0181088559 -0.0313654281 0.0653007627 -0.00937384181 -0.034983594 0.0653007627 -1.77724431e-08 -0.0362176858 0.0859999508 -0.00937384181 -0.034983594 0.0859999508 -0.00937384181 -0.034983594 0.0653007627 -1.77531145e-08 -0.0362176858 0.0653007627 0.00937380735 -0.0349836014 0.0859999508 -1.77724431e-08 -0.0362176858 0.0859999508 -1.77531145e-08 -0.0362176858 0.0653007627 0.00937380735 -0.0349836014 0.0653007627 0.0181088224 -0.0313654467 0.0859999508 0.00937380735 -0.0349836014 0.0859999508 0.00937380735 -0.0349836014 0.0653007627 0.0181088224 -0.0313654467 0.0653007627 0.0256097522 -0.0256097876 0.0859999508 0.0181088224 -0.0313654467 0.0859999508 0.0181088224 -0.0313654467 0.0653007627 0.0256097522 -0.0256097876 0.0653007627 0.0313654244 -0.0181088634 0.0859999508 0.0256097522 -0.0256097876 0.0859999508 0.0256097522 -0.0256097876 0.0653007627 0.0313654244 -0.0181088634 0.0653007627 0.0349835902 -0.00937385391 0.0859999508 0.0313654244 -0.0181088634 0.0859999508 0.0313654244 -0.0181088634 0.0653007627 0.0349835902 -0.00937385298 0.0653007627 0.0362176858 -3.86724652e-10 0.0859999508 0.0349835902 -0.00937385391 0.0859999508 0.0349835902 -0.00937385298 0.0653007627 0.0362176858 -3.83483301e-10 0.0653007627 -0.0527499579 0.030618133 0.0559999831 -0.0354293995 0.0301518515 0.0605934709 -0.0354293957 0.0301518515 0.0462459028 -0.0527499579 0.030618133 0.0428007916 -0.0181088559 -0.0313654281 0.0653007627 -0.0181088559 -0.0313654281 0.0859999508 -0.0354294069 -0.0301518477 0.0605934784 -0.0354294032 -0.0301518477 0.0462459102 -0.0549999401 -0.0250612684 0.0704691336 -0.0549999401 0.0250612758 0.0704691187 -0.0549999401 0.0279522222 0.0634897649 -0.0549999401 -0.0279522166 0.0634897798 -0.0549999401 -0.0204624347 0.0764624476 -0.0549999401 0.0204624478 0.0764624327 -0.0549999401 0.0250612758 0.0704691187 -0.0549999401 -0.0250612684 0.0704691336 -0.0549999401 -0.0144691225 0.0810612738 -0.0549999401 0.0144691374 0.0810612589 -0.0549999401 0.0204624478 0.0764624327 -0.0549999401 -0.0204624347 0.0764624476 -0.0549999401 -0.0074897618 0.0839522108 -0.0549999401 0.00748978369 0.0839522034 -0.0549999401 0.0144691374 0.0810612589 -0.0549999401 -0.0144691225 0.0810612738 -0.0549999401 -0.0074897618 0.0839522108 -0.0549999401 1.09703384e-08 0.0849382579 -0.0549999401 0.00748978369 0.0839522034 -0.0349836014 -0.009373812 0.0859999508 0.0349835902 -0.00937385391 0.0859999508 0.0362176858 -3.86724652e-10 0.0859999508 -0.0362176858 1.371696e-08 0.0859999508 0.0313654318 0.0181088429 0.0859999508 -0.0313654318 0.0181088503 0.0859999508 -0.034983594 0.00937383715 0.0859999508 0.0349835977 0.00937382597 0.0859999508 0.0256097689 0.0256097708 0.0859999508 -0.0256097652 0.0256097764 0.0859999508 -0.0313654318 0.0181088503 0.0859999508 0.0313654318 0.0181088429 0.0859999508 0.0181088392 0.0313654356 0.0859999508 -0.0181088392 0.0313654393 0.0859999508 -0.0256097652 0.0256097764 0.0859999508 0.0256097689 0.0256097708 0.0859999508 0.00937382691 0.0349835977 0.0859999508 -0.00937382318 0.0349836014 0.0859999508 -0.0181088392 0.0313654393 0.0859999508 0.0181088392 0.0313654356 0.0859999508 0.00937382691 0.0349835977 0.0859999508 1.79996151e-09 0.0362176858 0.0859999508 -0.00937382318 0.0349836014 0.0859999508 -0.031365443 -0.018108828 0.0859999508 0.0313654244 -0.0181088634 0.0859999508 0.0349835902 -0.00937385391 0.0859999508 -0.0349836014 -0.009373812 0.0859999508 -0.0256097876 -0.0256097578 0.0859999508 0.0256097522 -0.0256097876 0.0859999508 0.0313654244 -0.0181088634 0.0859999508 -0.031365443 -0.018108828 0.0859999508 -0.0181088559 -0.0313654281 0.0859999508 0.0181088224 -0.0313654467 0.0859999508 0.0256097522 -0.0256097876 0.0859999508 -0.0256097876 -0.0256097578 0.0859999508 -0.00937384181 -0.034983594 0.0859999508 0.00937380735 -0.0349836014 0.0859999508 0.0181088224 -0.0313654467 0.0859999508 -0.0181088559 -0.0313654281 0.0859999508 -0.00937384181 -0.034983594 0.0859999508 -1.77724431e-08 -0.0362176858 0.0859999508 0.00937380735 -0.0349836014 0.0859999508 -0.0535961315 -0.0091310218 0.0211667344 -0.0535961315 -0.00791210029 0.0257158093 -0.0584999919 -0.0079120975 0.0257158093 -0.0584999919 -0.009131019 0.0211667344 -0.0535961315 -0.00791210029 0.0257158093 -0.0535961315 -0.00458194641 0.0290459655 -0.0584999919 -0.00458194269 0.0290459637 -0.0584999919 -0.0079120975 0.0257158093 -0.0535961315 -0.00458194641 0.0290459655 -0.0535961315 -3.2872329e-05 0.0302648861 -0.0584999919 -3.28686328e-05 0.0302648842 -0.0584999919 -0.00458194269 0.0290459637 -0.0535961315 -3.2872329e-05 0.0302648861 -0.0535961315 0.00451620249 0.0290459655 -0.0584999882 0.00451620622 0.0290459637 -0.0584999919 -3.28686328e-05 0.0302648842 -0.0535961315 0.00451620249 0.0290459655 -0.0535961315 0.0078463573 0.025715813 -0.0584999882 0.00784636009 0.0257158112 -0.0584999882 0.00451620622 0.0290459637 -0.0535961315 0.0078463573 0.025715813 -0.0535961315 0.00906527974 0.0211667381 -0.0584999882 0.00906528253 0.0211667381 -0.0584999882 0.00784636009 0.0257158112 -0.0535961315 0.00906527974 0.0211667381 -0.0535961315 0.00784636103 0.0166176632 -0.0584999882 0.00784636382 0.0166176632 -0.0584999882 0.00906528253 0.0211667381 -0.0535961315 0.00784636103 0.0166176632 -0.0535961315 0.00451620622 0.0132875079 -0.0584999882 0.00451620994 0.0132875061 -0.0584999882 0.00784636382 0.0166176632 -0.0535961315 0.00451620622 0.0132875079 -0.0535961315 -3.28674105e-05 0.0120685846 -0.0584999882 -3.28637179e-05 0.0120685827 -0.0584999882 0.00451620994 0.0132875061 -0.0535961315 -3.28674105e-05 0.0120685846 -0.0535961315 -0.00458194222 0.0132875033 -0.0584999919 -0.0045819385 0.0132875014 -0.0584999882 -3.28637179e-05 0.0120685827 -0.0535961315 -0.00458194222 0.0132875033 -0.0535961315 -0.0079120975 0.0166176539 -0.0584999919 -0.0079120947 0.016617652 -0.0584999919 -0.0045819385 0.0132875014 -0.0535961315 -0.0079120975 0.0166176539 -0.0535961315 -0.0091310218 0.0211667344 -0.0584999919 -0.009131019 0.0211667344 -0.0584999919 -0.0079120947 0.016617652 -0.0584999882 0.00784636009 0.0257158112 -0.0584999882 0.00906528253 0.0211667381 -0.0584999919 -0.009131019 0.0211667344 -0.0584999919 -0.0079120975 0.0257158093 -0.0584999882 0.00784636382 0.0166176632 -0.0584999919 -0.0079120947 0.016617652 -0.0584999919 -0.009131019 0.0211667344 -0.0584999882 0.00906528253 0.0211667381 -0.0584999919 -0.00458194269 0.0290459637 -0.0584999882 0.00451620622 0.0290459637 -0.0584999882 0.00784636009 0.0257158112 -0.0584999919 -0.0079120975 0.0257158093 -0.0584999919 -0.00458194269 0.0290459637 -0.0584999919 -3.28686328e-05 0.0302648842 -0.0584999882 0.00451620622 0.0290459637 -0.0584999882 0.00451620994 0.0132875061 -0.0584999919 -0.0045819385 0.0132875014 -0.0584999919 -0.0079120947 0.016617652 -0.0584999882 0.00784636382 0.0166176632 -0.0584999882 0.00451620994 0.0132875061 -0.0584999882 -3.28637179e-05 0.0120685827 -0.0584999919 -0.0045819385 0.0132875014 -0.0549999401 -0.0399999619 -9.31322575e-10 -0.0549999401 0.0399999619 -9.31322575e-10 0.0399999619 0.0399999619 -9.31322575e-10 0.0399999619 -0.0399999619 -9.31322575e-10 -0.0549999401 -0.0399999619 0.00399994804 0.0399999619 -0.0399999619 0.00399994804 0.0399999619 0.0399999619 0.00399994804 -0.0549999401 0.0399999619 0.00399994804 -0.0549999401 -0.0399999619 -9.31322575e-10 0.0399999619 -0.0399999619 -9.31322575e-10 0.0399999619 -0.0399999619 0.00399994804 -0.0549999401 -0.0399999619 0.00399994804 0.0399999619 -0.0399999619 -9.31322575e-10 0.0399999619 0.0399999619 -9.31322575e-10 0.0399999619 0.0399999619 0.00399994804 0.0399999619 -0.0399999619 0.00399994804 0.0399999619 0.0399999619 -9.31322575e-10 -0.0549999401 0.0399999619 -9.31322575e-10 -0.0549999401 0.0399999619 0.00399994804 0.0399999619 0.0399999619 0.00399994804 -0.0549999401 0.0399999619 -9.31322575e-10 -0.0549999401 -0.0399999619 -9.31322575e-10 -0.0549999401 -0.0399999619 0.00399994804 -0.0549999401 0.0399999619 0.00399994804</float_array>
          <technique_common>
            <accessor count="671" offset="0" source="#ww-positions-array" stride="3">
              <param name="X" type="float" />
              <param name="Y" type="float" />
              <param name="Z" type="float" />
            </accessor>
          </technique_common>
        </source>
        <source id="ww-normals" name="ww-normals">
          <float_array id="ww-normals-array" count="2013">0.965925872 0.258819312 0 0.965925753 0.258819312 0 1 -2.17677282e-07 0 1 -2.20069353e-07 0 0.866025329 0.500000119 0 0.866025329 0.500000119 0 0.965925753 0.258819312 0 0.965925872 0.258819312 0 0.707106829 0.707106709 0 0.707106829 0.707106709 0 0.866025329 0.500000119 0 0.866025329 0.500000119 0 0.500000119 0.866025388 0 0.500000119 0.866025388 0 0.707106829 0.707106709 0 0.707106829 0.707106709 0 0.258819163 0.965925813 0 0.258819163 0.965925813 0 0.500000119 0.866025388 0 0.500000119 0.866025388 0 1.86580493e-07 1 0 1.86580493e-07 1 0 0.258819163 0.965925813 0 0.258819163 0.965925813 0 -0.258818954 0.965925932 0 -0.258818954 0.965925932 0 1.86580493e-07 1 0 1.86580493e-07 1 0 -0.229267985 0.97336334 0 -0.229268 0.9733634 0 -0.258818954 0.965925932 0 -0.258818954 0.965925932 0 -0.258819491 -0.965925813 0 -0.25881952 -0.965925813 0 -0.229268 -0.9733634 0 -0.229268044 -0.97336334 0 -3.92297466e-07 -1 0 -3.97081578e-07 -1 0 -0.25881952 -0.965925813 0 -0.258819491 -0.965925813 0 0.258818567 -0.965925992 0 0.258818567 -0.965925992 0 -3.97081578e-07 -1 0 -3.92297466e-07 -1 0 0.499999464 -0.866025805 1.87495175e-08 0.499999464 -0.866025805 9.37475875e-09 0.258818567 -0.965925992 0 0.258818567 -0.965925992 0 0.707106292 -0.707107365 4.57019382e-08 0.707106292 -0.707107306 2.28509691e-08 0.499999464 -0.866025805 9.37475875e-09 0.499999464 -0.866025805 1.87495175e-08 0.86602509 -0.500000656 3.63271795e-08 0.86602509 -0.500000656 1.81635897e-08 0.707106292 -0.707107306 2.28509691e-08 0.707106292 -0.707107365 4.57019382e-08 0.965925694 -0.25881952 9.37475964e-09 0.965925694 -0.25881952 4.68737982e-09 0.86602509 -0.500000656 1.81635897e-08 0.86602509 -0.500000656 3.63271795e-08 1 -2.20069353e-07 0 1 -2.17677282e-07 0 0.965925694 -0.25881952 4.68737982e-09 0.965925694 -0.25881952 9.37475964e-09 -0.591791511 0.804081857 0.0568800643 -0.555209816 0.797783315 0.235125363 -0.296664238 0.922176838 0.24815391 -0.300530463 0.950826228 0.0749071166 -0.555209816 0.797783315 0.235125363 -0.505906224 0.738222897 0.446190327 -0.301962823 0.833179057 0.463283151 -0.296664238 0.922176838 0.24815391 -0.505906224 0.738222897 0.446190327 -0.464269161 0.615654707 0.636728764 -0.312284052 0.661332786 0.681995332 -0.301962823 0.833179057 0.463283151 -0.464269161 0.615654707 0.636728764 -0.430441767 0.441776246 0.787117422 -0.279617757 0.460327715 0.842563033 -0.312284052 0.661332786 0.681995332 -0.430441767 0.441776246 0.787117422 -0.408376694 0.230626449 0.883198798 -0.228178114 0.234686896 0.944911003 -0.279617757 0.460327715 0.842563033 -0.408376694 0.230626449 0.883198798 -0.400715292 7.07402137e-07 0.916202664 -0.205855712 5.8022863e-07 0.978582442 -0.228178114 0.234686896 0.944911003 -0.400715292 7.07402137e-07 0.916202664 -0.40837723 -0.230625615 0.883198678 -0.228177801 -0.234686375 0.944911242 -0.205855712 5.8022863e-07 0.978582442 -0.40837723 -0.230625615 0.883198678 -0.430441231 -0.441775858 0.787117779 -0.279617101 -0.460327238 0.842563391 -0.228177801 -0.234686375 0.944911242 -0.430441231 -0.441775858 0.787117779 -0.464268804 -0.615654528 0.636729121 -0.312283546 -0.661332369 0.681995988 -0.279617101 -0.460327238 0.842563391 -0.464268804 -0.615654528 0.636729121 -0.505906224 -0.738222778 0.446190685 -0.301962495 -0.833178878 0.463283509 -0.312283546 -0.661332369 0.681995988 -0.505906224 -0.738222778 0.446190685 -0.555209458 -0.797783375 0.235125765 -0.296664029 -0.922176719 0.248154551 -0.301962495 -0.833178878 0.463283509 -0.555209458 -0.797783375 0.235125765 -0.591791391 -0.804081857 0.0568804182 -0.300530285 -0.950826287 0.0749075264 -0.296664029 -0.922176719 0.248154551 -0.300530463 0.950826228 0.0749071166 -0.302398652 0.953181624 8.82510676e-10 -0.598262072 0.801300645 0 -0.591791511 0.804081857 0.0568800643 -0.591791391 -0.804081857 0.0568804182 -0.598261952 -0.801300585 0 -0.302398503 -0.953181684 8.82511231e-10 -0.300530285 -0.950826287 0.0749075264 -1 0 0 -1 0 0 -1 0 0 -1 0 0 -0.302398592 0.953181624 0 -0.0215172432 0.999768496 0 -0.0215172432 0.999768496 0 -0.302398354 0.953181684 0 -0.300530285 -0.950826287 0.0749075264 -0.302398503 -0.953181684 8.82511231e-10 -0.0215169434 -0.999768496 1.93110125e-10 -0.0664757639 -0.994060278 0.0861692578 -0.253573418 0.92086935 0.296142131 -0.268444806 0.794904232 0.544118464 -0.428539753 0.763883173 0.48253122 -0.343993932 0.932115316 0.113266185 -0.228177801 -0.234686375 0.944911242 -0.0752634406 -0.185025096 0.97984755 -0.0370878279 2.65705978e-07 0.999312043 -0.205855712 5.8022863e-07 0.978582442 -0.279617101 -0.460327238 0.842563391 -0.164322153 -0.34963429 0.9223634 -0.0752634406 -0.185025096 0.97984755 -0.228177801 -0.234686375 0.944911242 -0.279617101 -0.460327238 0.842563391 -0.312283546 -0.661332369 0.681995988 -0.253412366 -0.531176507 0.80847615 -0.164322153 -0.34963429 0.9223634 -0.301962495 -0.833178878 0.463283509 -0.296664029 -0.922176719 0.248154551 -0.253573567 -0.920869112 0.296142727 -0.268444568 -0.794903874 0.544118881 -0.312283546 -0.661332369 0.681995988 -0.301962495 -0.833178878 0.463283509 -0.268444568 -0.794903874 0.544118881 -0.253412366 -0.531176507 0.80847615 -0.228178114 0.234686896 0.944911003 -0.0752639472 0.1850252 0.979847431 -0.1643226 0.349634767 0.922363043 -0.279617757 0.460327715 0.842563033 -0.228178114 0.234686896 0.944911003 -0.205855712 5.8022863e-07 0.978582442 -0.0370878279 2.65705978e-07 0.999312043 -0.0752639472 0.1850252 0.979847431 -0.279617757 0.460327715 0.842563033 -0.1643226 0.349634767 0.922363043 -0.253412634 0.531177044 0.808475733 -0.312284052 0.661332786 0.681995332 -0.312284052 0.661332786 0.681995332 -0.253412634 0.531177044 0.808475733 -0.268444806 0.794904232 0.544118464 -0.301962823 0.833179057 0.463283151 -0.343993932 0.932115316 0.113266185 -0.0664759278 0.994060338 0.0861690119 -0.253573418 0.92086935 0.296142131 -0.296664029 -0.922176719 0.248154551 -0.300530285 -0.950826287 0.0749075264 -0.0664757639 -0.994060278 0.0861692578 -0.253573567 -0.920869112 0.296142727 -0.0664759278 0.994060338 0.0861690119 -0.343993932 0.932115316 0.113266185 -0.229267955 0.97336334 -8.76175488e-09 -0.0215172432 0.999768496 -1.58868627e-10 -0.229268044 -0.97336334 0 -0.229268 -0.9733634 0 -0.0215169396 -0.999768496 0 -0.0215169564 -0.999768555 0 -0.253573418 0.92086935 0.296142131 -0.296664238 0.922176838 0.24815391 -0.301962823 0.833179057 0.463283151 -0.268444806 0.794904232 0.544118464 -0.0752634406 -0.185025096 0.97984755 -0.166512519 -0.178886503 0.969676912 -0.0673818588 3.94760029e-08 0.997727275 -0.0370878279 2.65705978e-07 0.999312043 -0.164322153 -0.34963429 0.9223634 -0.166512519 -0.178886503 0.969676912 -0.0752634406 -0.185025096 0.97984755 -0.253412366 -0.531176507 0.80847615 -0.365240127 -0.440018237 0.820355833 -0.166512519 -0.178886503 0.969676912 -0.164322153 -0.34963429 0.9223634 -0.253573567 -0.920869112 0.296142727 -0.34399429 -0.932115138 0.113266438 -0.428540081 -0.763882577 0.482531875 -0.268444568 -0.794903874 0.544118881 -0.268444568 -0.794903874 0.544118881 -0.428540081 -0.763882577 0.482531875 -0.365240127 -0.440018237 0.820355833 -0.253412366 -0.531176507 0.80847615 -0.0752639472 0.1850252 0.979847431 -0.166512579 0.178886905 0.969676793 -0.1643226 0.349634767 0.922363043 -0.0673818588 3.94760029e-08 0.997727275 -0.166512579 0.178886905 0.969676793 -0.0752639472 0.1850252 0.979847431 -0.0370878279 2.65705978e-07 0.999312043 -0.166512579 0.178886905 0.969676793 -0.365240097 0.440018773 0.820355535 -0.253412634 0.531177044 0.808475733 -0.1643226 0.349634767 0.922363043 -0.365240097 0.440018773 0.820355535 -0.428539753 0.763883173 0.48253122 -0.268444806 0.794904232 0.544118464 -0.253412634 0.531177044 0.808475733 -0.0664759278 0.994060338 0.0861690119 -0.300530463 0.950826228 0.0749071166 -0.296664238 0.922176838 0.24815391 -0.253573418 0.92086935 0.296142131 -0.0664757639 -0.994060278 0.0861692578 -0.34399429 -0.932115138 0.113266438 -0.253573567 -0.920869112 0.296142727 0 0 1 0 0 1 0 0 1 0 0 1 -1 0 0 -1 0 0 -1 0 0 -1 0 0 0.965925872 0.258819282 -1.61128622e-09 1 -2.05717001e-07 1.46482299e-10 1 -2.15285226e-07 0 0.965925753 0.258819312 0 0.866025329 0.500000119 -1.64058207e-08 0.965925872 0.258819282 -1.61128622e-09 0.965925753 0.258819312 0 0.866025329 0.500000119 0 0.707106829 0.707106709 -2.34368898e-08 0.866025329 0.500000119 -1.64058207e-08 0.866025329 0.500000119 0 0.707106888 0.70710665 0 0.500000119 0.866025388 -9.37475431e-09 0.707106829 0.707106709 -2.34368898e-08 0.707106888 0.70710665 0 0.500000119 0.866025329 0 0.258819163 0.965925813 0 0.500000119 0.866025388 -9.37475431e-09 0.500000119 0.866025329 0 0.258819163 0.965925813 0 1.9136462e-07 1 0 0.258819163 0.965925813 0 0.258819163 0.965925813 0 1.86580493e-07 1 0 -0.258818954 0.965925932 -4.68737804e-09 1.9136462e-07 1 0 1.86580493e-07 1 0 -0.258818954 0.965925932 0 -0.229267955 0.97336334 -8.76175488e-09 -0.258818954 0.965925932 -4.68737804e-09 -0.258818954 0.965925932 0 -0.229268 0.9733634 0 -0.25881952 -0.965925813 0 -0.229268 -0.9733634 -2.89521962e-09 -0.229268044 -0.9733634 0 -0.258819491 -0.965925813 0 -3.94689522e-07 -1 0 -0.25881952 -0.965925813 0 -0.258819491 -0.965925813 0 -3.92297466e-07 -1 0 0.258818537 -0.965925992 0 -3.94689522e-07 -1 0 -3.92297466e-07 -1 0 0.258818597 -0.965925992 0 0.499999523 -0.866025805 0 0.258818537 -0.965925992 0 0.258818597 -0.965925992 0 0.499999523 -0.866025805 0 0.707106292 -0.707107306 0 0.499999523 -0.866025805 0 0.499999523 -0.866025805 0 0.707106292 -0.707107306 0 0.86602509 -0.500000656 -2.34368991e-09 0.707106292 -0.707107306 0 0.707106292 -0.707107306 0 0.86602509 -0.500000656 0 0.965925694 -0.25881958 -2.92961033e-09 0.86602509 -0.500000656 -2.34368991e-09 0.86602509 -0.500000656 0 0.965925694 -0.25881958 0 1 -2.05717001e-07 1.46482299e-10 0.965925694 -0.25881958 -2.92961033e-09 0.965925694 -0.25881958 0 1 -2.15285226e-07 0 -0.302398592 0.953181624 0 -0.598262072 0.801300645 0 -0.598262012 0.801300585 0 -0.302398592 0.953181624 0 -0.598262072 -0.801300645 0 -0.302398562 -0.953181684 0 -0.302398503 -0.953181684 0 -0.598261952 -0.801300585 0 -0.302398652 0.953181624 8.82510676e-10 -0.0215172432 0.999768496 -1.58868627e-10 -0.0215172414 0.999768496 0 -0.302398592 0.953181624 0 -0.302398503 -0.953181684 0 -0.302398562 -0.953181684 0 -0.0215169396 -0.999768496 0 -0.0215169415 -0.999768496 0 -0.229268 0.9733634 0 -0.0215172432 0.999768496 0 -0.0215172414 0.999768496 0 -0.229268 0.9733634 0 -0.229268044 -0.9733634 0 -0.229268 -0.9733634 -2.89521962e-09 -0.0215169434 -0.999768496 1.93110125e-10 -0.0215169415 -0.999768496 0 -1 0 0 -1 0 0 -1 0 0 -1 0 0 0.965925753 0.258819312 0 1 -2.15285226e-07 0 1 -2.17677282e-07 0 0.965925753 0.258819312 0 0.866025329 0.500000119 0 0.965925753 0.258819312 0 0.965925753 0.258819312 0 0.866025329 0.500000119 0 0.707106888 0.70710665 0 0.866025329 0.500000119 0 0.866025329 0.500000119 0 0.707106829 0.707106709 0 0.500000119 0.866025329 0 0.707106888 0.70710665 0 0.707106829 0.707106709 0 0.500000119 0.866025388 0 0.258819163 0.965925813 0 0.500000119 0.866025329 0 0.500000119 0.866025388 0 0.258819163 0.965925813 0 1.86580493e-07 1 0 0.258819163 0.965925813 0 0.258819163 0.965925813 0 1.86580493e-07 1 0 -0.258818954 0.965925932 0 1.86580493e-07 1 0 1.86580493e-07 1 0 -0.258818954 0.965925932 0 -0.229268 0.9733634 0 -0.258818954 0.965925932 0 -0.258818954 0.965925932 0 -0.229268 0.9733634 0 -0.258819491 -0.965925813 0 -0.229268044 -0.9733634 0 -0.229268 -0.9733634 0 -0.25881952 -0.965925813 0 -3.92297466e-07 -1 0 -0.258819491 -0.965925813 0 -0.25881952 -0.965925813 0 -3.97081578e-07 -1 0 0.258818597 -0.965925992 0 -3.92297466e-07 -1 0 -3.97081578e-07 -1 0 0.258818567 -0.965925992 0 0.499999523 -0.866025805 0 0.258818597 -0.965925992 0 0.258818567 -0.965925992 0 0.499999464 -0.866025805 9.37475875e-09 0.707106292 -0.707107306 0 0.499999523 -0.866025805 0 0.499999464 -0.866025805 9.37475875e-09 0.707106292 -0.707107306 2.28509691e-08 0.86602509 -0.500000656 0 0.707106292 -0.707107306 0 0.707106292 -0.707107306 2.28509691e-08 0.86602509 -0.500000656 1.81635897e-08 0.965925694 -0.25881958 0 0.86602509 -0.500000656 0 0.86602509 -0.500000656 1.81635897e-08 0.965925694 -0.25881952 4.68737982e-09 1 -2.15285226e-07 0 0.965925694 -0.25881958 0 0.965925694 -0.25881952 4.68737982e-09 1 -2.17677282e-07 0 -0.302398592 0.953181624 0 -0.0215172414 0.999768496 0 -0.0215172432 0.999768496 0 -0.302398592 0.953181624 0 -0.229268 -0.9733634 0 -0.229268044 -0.9733634 0 -0.0215169415 -0.999768496 0 -0.0215169396 -0.999768496 0 -0.302398354 0.953181684 0 -0.598262012 0.801300645 0 -0.598262072 0.801300645 0 -0.302398592 0.953181624 0 -0.598262072 -0.801300585 0 -0.302398086 -0.953181744 0 -0.302398562 -0.953181684 0 -0.598262072 -0.801300645 0 -0.302398562 -0.953181684 0 -0.302398086 -0.953181744 0 -0.0215169564 -0.999768555 0 -0.0215169396 -0.999768496 0 -0.229267985 0.97336334 0 -0.0215172432 0.999768496 0 -0.0215172432 0.999768496 0 -0.229268 0.9733634 0 -1 0 0 -1 0 0 -1 0 0 -1 0 0 -0.302398592 0.953181624 0 -0.598262012 0.801300585 0 -0.598262072 0.801300645 0 -0.302398652 0.953181624 8.82510676e-10 -0.598261952 -0.801300585 0 -0.302398503 -0.953181684 0 -0.302398503 -0.953181684 8.82511231e-10 -0.598261952 -0.801300585 0 -0.302398503 -0.953181684 8.82511231e-10 -0.302398503 -0.953181684 0 -0.0215169415 -0.999768496 0 -0.0215169434 -0.999768496 1.93110125e-10 -0.229268 0.9733634 0 -0.0215172414 0.999768496 0 -0.0215172432 0.999768496 -1.58868627e-10 -0.229267955 0.97336334 -8.76175488e-09 -1 0 0 -1 0 0 -1 0 0 -1 0 0 0.965925872 0.258819282 -3.22257176e-09 1 -2.0093286e-07 2.92964569e-10 1 -2.05717001e-07 1.46482299e-10 0.965925872 0.258819282 -1.61128622e-09 0.866025329 0.500000119 -3.2811645e-08 0.965925872 0.258819282 -3.22257176e-09 0.965925872 0.258819282 -1.61128622e-09 0.866025329 0.500000119 -1.64058207e-08 0.707106829 0.707106709 -4.68737795e-08 0.866025329 0.500000119 -3.2811645e-08 0.866025329 0.500000119 -1.64058207e-08 0.707106829 0.707106709 -2.34368898e-08 0.500000119 0.866025388 -1.87495086e-08 0.707106829 0.707106709 -4.68737795e-08 0.707106829 0.707106709 -2.34368898e-08 0.500000119 0.866025388 -9.37475431e-09 0.258819163 0.965925813 0 0.500000119 0.866025388 -1.87495086e-08 0.500000119 0.866025388 -9.37475431e-09 0.258819163 0.965925813 0 1.96148733e-07 1 0 0.258819163 0.965925813 0 0.258819163 0.965925813 0 1.9136462e-07 1 0 -0.258818895 0.965925932 -9.37475608e-09 1.96148733e-07 1 0 1.9136462e-07 1 0 -0.258818954 0.965925932 -4.68737804e-09 -0.343993932 0.932115316 0.113266185 -0.258818895 0.965925932 -9.37475608e-09 -0.258818954 0.965925932 -4.68737804e-09 -0.229267955 0.97336334 -8.76175488e-09 -0.258819491 -0.965925813 0 -0.34399429 -0.932115138 0.113266438 -0.229268 -0.9733634 -2.89521962e-09 -0.25881952 -0.965925813 0 -4.06649804e-07 -1 0 -0.258819491 -0.965925813 0 -0.25881952 -0.965925813 0 -3.94689522e-07 -1 0 0.258818537 -0.965925992 0 -4.06649804e-07 -1 0 -3.94689522e-07 -1 0 0.258818537 -0.965925992 0 0.499999523 -0.866025805 0 0.258818537 -0.965925992 0 0.258818537 -0.965925992 0 0.499999523 -0.866025805 0 0.707106352 -0.707107246 0 0.499999523 -0.866025805 0 0.499999523 -0.866025805 0 0.707106292 -0.707107306 0 0.86602509 -0.500000715 -4.68737982e-09 0.707106352 -0.707107246 0 0.707106292 -0.707107306 0 0.86602509 -0.500000656 -2.34368991e-09 0.965925694 -0.25881958 -5.85922066e-09 0.86602509 -0.500000715 -4.68737982e-09 0.86602509 -0.500000656 -2.34368991e-09 0.965925694 -0.25881958 -2.92961033e-09 1 -2.0093286e-07 2.92964569e-10 0.965925694 -0.25881958 -5.85922066e-09 0.965925694 -0.25881958 -2.92961033e-09 1 -2.05717001e-07 1.46482299e-10 -0.300530463 0.950826228 0.0749071166 -0.0664759278 0.994060338 0.0861690119 -0.0215172432 0.999768496 -1.58868627e-10 -0.302398652 0.953181624 8.82510676e-10 -0.229268 -0.9733634 -2.89521962e-09 -0.34399429 -0.932115138 0.113266438 -0.0664757639 -0.994060278 0.0861692578 -0.0215169434 -0.999768496 1.93110125e-10 -1 0 0 -1 0 0 -1 0 0 -1 0 0 -1 0 0 -1 0 0 -1 0 0 -1 0 0 -1 0 0 -1 0 0 -1 0 0 -1 0 0 -1 0 0 -1 0 0 -1 0 0 -1 0 0 -1 0 0 -1 0 0 -1 0 0 0 0 1 0 0 1 0 0 1 0 0 1 0 0 1 0 0 1 0 0 1 0 0 1 0 0 1 0 0 1 0 0 1 0 0 1 0 0 1 0 0 1 0 0 1 0 0 1 0 0 1 0 0 1 0 0 1 0 0 1 0 0 1 0 0 1 0 0 1 0 0 1 0 0 1 0 0 1 0 0 1 0 0 1 0 0 1 0 0 1 0 0 1 0 0 1 0 0 1 0 0 1 0 0 1 0 0 1 0 0 1 0 0 1 0 0 1 0 0 1 0 0 1 0 0 1 -5.40200006e-07 -1 -8.83891715e-08 -5.93710638e-07 -0.866025448 0.49999994 -5.93710695e-07 -0.866025388 0.5 -5.40200006e-07 -1 -8.83891502e-08 -5.93710638e-07 -0.866025448 0.49999994 -6.03903175e-07 -0.500000119 0.866025269 -6.03903231e-07 -0.5 0.866025388 -5.93710695e-07 -0.866025388 0.5 -6.03903175e-07 -0.500000119 0.866025269 -3.77121211e-07 -1.3749424e-07 1 -3.77121069e-07 3.92840747e-08 1 -6.03903231e-07 -0.5 0.866025388 -3.77121211e-07 -1.3749424e-07 1 1.7836765e-08 0.499999762 0.866025627 1.78369124e-08 0.49999994 0.866025567 -3.77121069e-07 3.92840747e-08 1 1.7836765e-08 0.499999762 0.866025627 3.61832662e-07 0.866025269 0.500000417 3.61832747e-07 0.866025388 0.500000179 1.78369124e-08 0.49999994 0.866025567 3.61832662e-07 0.866025269 0.500000417 5.42748921e-07 1 4.32124722e-07 5.42748921e-07 1 4.32124807e-07 3.61832747e-07 0.866025388 0.500000179 5.42748921e-07 1 4.32124722e-07 5.9625927e-07 0.866025627 -0.499999762 5.96259213e-07 0.866025627 -0.499999642 5.42748921e-07 1 4.32124807e-07 5.9625927e-07 0.866025627 -0.499999762 6.00081421e-07 0.500000358 -0.866025209 6.00081478e-07 0.500000477 -0.86602515 5.96259213e-07 0.866025627 -0.499999642 6.00081421e-07 0.500000358 -0.866025209 3.82217479e-07 3.73198645e-07 -1 3.82217621e-07 5.69618919e-07 -1 6.00081478e-07 0.500000477 -0.86602515 3.82217479e-07 3.73198645e-07 -1 -1.40147032e-08 -0.499999553 -0.866025746 -1.40145566e-08 -0.499999374 -0.866025746 3.82217621e-07 5.69618919e-07 -1 -1.40147032e-08 -0.499999553 -0.866025746 -3.66928276e-07 -0.866025269 -0.500000417 -3.66928191e-07 -0.86602515 -0.500000656 -1.40145566e-08 -0.499999374 -0.866025746 -3.66928276e-07 -0.866025269 -0.500000417 -5.40200006e-07 -1 -8.83891715e-08 -5.40200006e-07 -1 -8.83891502e-08 -3.66928191e-07 -0.86602515 -0.500000656 -1 2.43521413e-07 -9.4251355e-15 -1 2.1942671e-07 7.86147948e-14 -1 2.1942671e-07 7.86147948e-14 -1 2.43521413e-07 -9.4251355e-15 -1 2.43521413e-07 1.19485856e-13 -1 2.43521413e-07 1.19485856e-13 -1 2.1942671e-07 7.86147948e-14 -1 2.1942671e-07 7.86147948e-14 -1 3.10713773e-07 -1.52810998e-07 -1 3.1071383e-07 -1.52811111e-07 -1 2.43521413e-07 -9.4251355e-15 -1 2.43521413e-07 -9.4251355e-15 -1 3.10713773e-07 -1.52810998e-07 -1 4.09455822e-07 -1.52811015e-06 -1 3.1071383e-07 -1.52811111e-07 -1 3.10713887e-07 -1.5281104e-07 -1 3.10713858e-07 -1.52810884e-07 -1 2.43521413e-07 1.19485856e-13 -1 2.43521413e-07 1.19485856e-13 -1 3.10713887e-07 -1.5281104e-07 -1 4.09456646e-07 -1.52810946e-06 -1 3.10713858e-07 -1.52810884e-07 0 0 -1 0 0 -1 0 0 -1 0 0 -1 0 0 1 0 0 1 0 0 1 0 0 1 0 -1 0 0 -1 0 0 -1 0 0 -1 0 1 0 0 1 0 0 1 0 0 1 0 0 0 1 0 0 1 0 0 1 0 0 1 0 -1 0 0 -1 0 0 -1 0 0 -1 0 0</float_array>
          <technique_common>
            <accessor count="671" offset="0" source="#ww-normals-array" stride="3">
              <param name="X" type="float" />
              <param name="Y" type="float" />
              <param name="Z" type="float" />
            </accessor>
          </technique_common>
        </source>
        <source id="ww-tex0" name="ww-tex0">
          <float_array id="ww-tex0-array" count="1342"> 0.791666627 0 0.791666627 0.25 0.75 0.25 0.75 0 0.833333313 0 0.833333313 0.25 0.791666627 0.25 0.791666627 0 0.875 0 0.875 0.25 0.833333313 0.25 0.833333313 0 0.916666687 0 0.916666687 0.25 0.875 0.25 0.875 0 0.958333313 0 0.958333313 0.25 0.916666687 0.25 0.916666687 0 0.99999994 0 0.99999994 0.25 0.958333313 0.25 0.958333313 0 0.0416666567 0 0.0416666567 0.25 -5.96046448e-08 0.25 -5.96046448e-08 0 0.0833333135 0 0.0833333135 0.25 0.0416666567 0.25 0.0416666567 0 0.458333254 0 0.458333254 0.25 0.416666597 0.25 0.416666597 0 0.499999911 0 0.499999911 0.25 0.458333254 0.25 0.458333254 0 0.541666567 0 0.541666567 0.25 0.499999911 0.25 0.499999911 0 0.583333254 0 0.583333254 0.25 0.541666567 0.25 0.541666567 0 0.624999881 0 0.624999881 0.25 0.583333254 0.25 0.583333254 0 0.666666567 0 0.666666567 0.25 0.624999881 0.25 0.624999881 0 0.708333254 0 0.708333254 0.25 0.666666567 0.25 0.666666567 0 0.75 0 0.75 0.25 0.708333254 0.25 0.708333254 0 -5.96046448e-08 0 0.0416666567 0 0.0416666567 1 -5.96046448e-08 1 0.0416666567 0 0.0833333135 0 0.0833333135 1 0.0416666567 1 0.0833333135 0 0.12499997 0 0.12499997 1 0.0833333135 1 0.12499997 0 0.166666627 0 0.166666627 1 0.12499997 1 0.166666627 0 0.208333284 0 0.208333284 1 0.166666627 1 0.208333284 0 0.24999994 0 0.24999994 1 0.208333284 1 0.24999994 0 0.291666597 0 0.291666597 1 0.24999994 1 0.291666597 0 0.333333254 0 0.333333254 1 0.291666597 1 0.333333254 0 0.374999911 0 0.374999911 1 0.333333254 1 0.374999911 0 0.416666597 0 0.416666597 1 0.374999911 1 0.416666597 0 0.458333254 0 0.458333254 1 0.416666597 1 0.458333254 0 0.499999911 0 0.499999911 1 0.458333254 1 -5.96046448e-08 1 -5.96046448e-08 1 -5.96046448e-08 0 -5.96046448e-08 0 0.499999911 0 0.499999911 0 0.499999911 1 0.499999911 1 0.499999911 0 0.458333254 0 0.0416666567 0 -5.96046448e-08 0 0.114583269 0.74999994 0.0989582911 0.5 0.0416666269 0.5 -5.96046448e-08 1 0.458333254 1 0.34374994 1 0.380208284 0.875 0.43749994 1 0.0624999851 1 0.104166642 1 0.12499997 1 0.0833333135 1 0.291666597 1 0.291666597 1 0.24999994 1 0.24999994 1 0.333333254 1 0.31249994 1 0.291666597 1 0.291666597 1 0.333333254 1 0.374999911 1 0.354166567 1 0.31249994 1 0.416666597 1 0.458333254 1 0.43749994 1 0.395833254 1 0.374999911 1 0.416666597 1 0.395833254 1 0.354166567 1 0.208333284 1 0.208333284 1 0.187499955 1 0.166666627 1 0.208333284 1 0.24999994 1 0.24999994 1 0.208333284 1 0.166666627 1 0.187499955 1 0.145833299 1 0.12499997 1 0.12499997 1 0.145833299 1 0.104166642 1 0.0833333135 1 0.0833333135 1 0.270833284 0.5 0.0624999851 1 0.458333254 1 0.499999911 1 0.458333254 1 0.43749994 1 0.270833284 0.5 0.0833333135 1 0.0833333135 0.75 0.213541627 0.5 0.416666597 0 0.416666597 0.25 0.26562494 0.625 0.208333284 0.5 0.0624999851 1 0.0416666567 1 0.0833333135 1 0.104166642 1 0.291666597 1 0.291666597 1 0.24999994 1 0.24999994 1 0.31249994 1 0.291666597 1 0.291666597 1 0.354166567 1 0.333333254 1 0.291666597 1 0.31249994 1 0.43749994 1 0.416666597 1 0.374999911 1 0.395833254 1 0.395833254 1 0.374999911 1 0.333333254 1 0.354166567 1 0.208333284 1 0.208333284 1 0.187499955 1 0.24999994 1 0.208333284 1 0.208333284 1 0.24999994 1 0.208333284 1 0.166666627 1 0.145833299 1 0.187499955 1 0.166666627 1 0.12499997 1 0.104166642 1 0.145833299 1 0.270833284 0.5 0.458333254 0 0.0416666567 1 0.0624999851 1 0.458333254 1 0.416666597 1 0.43749994 1 0.208333284 1 0.24999994 1 0.75 1 0.791666627 1 -5.96046448e-08 0 0.374999911 0 0.499999911 0 -5.96046448e-08 0 0.791666627 0.75 0.75 0.75 0.75 0.5 0.791666627 0.5 0.833333313 0.75 0.791666627 0.75 0.791666627 0.5 0.833333313 0.5 0.875 0.75 0.833333313 0.75 0.833333313 0.5 0.875 0.5 0.916666687 0.75 0.875 0.75 0.875 0.5 0.916666687 0.5 0.958333313 0.75 0.916666687 0.75 0.916666687 0.5 0.958333313 0.5 0.99999994 0.75 0.958333313 0.75 0.958333313 0.5 0.99999994 0.5 0.0416666567 0.75 -5.96046448e-08 0.75 -5.96046448e-08 0.5 0.0416666567 0.5 0.0833333135 0.75 0.0416666567 0.75 0.0416666567 0.5 0.0833333135 0.5 0.458333254 0.75 0.416666597 0.75 0.416666597 0.5 0.458333254 0.5 0.499999911 0.75 0.458333254 0.75 0.458333254 0.5 0.499999911 0.5 0.541666567 0.75 0.499999911 0.75 0.499999911 0.5 0.541666567 0.5 0.583333254 0.75 0.541666567 0.75 0.541666567 0.5 0.583333254 0.5 0.624999881 0.75 0.583333254 0.75 0.583333254 0.5 0.624999881 0.5 0.666666567 0.75 0.624999881 0.75 0.624999881 0.5 0.666666567 0.5 0.708333254 0.75 0.666666567 0.75 0.666666567 0.5 0.708333254 0.5 0.75 0.75 0.708333254 0.75 0.708333254 0.5 0.75 0.5 -5.96046448e-08 1 -5.96046448e-08 0 -5.96046448e-08 0 -5.96046448e-08 1 0.499999911 0 0.499999911 1 0.499999911 1 0.499999911 0 0.34374994 0.249999985 0.213541627 0.5 0.156249955 0.5 0.229166597 0.49999997 0.229166597 1 0.114583269 1 0.26562494 0.625 0.322916627 0.75 0.0833333135 0.25 0.0989582911 0.5 0.156249955 0.5 0.0833333135 0.5 0.416666597 0.5 0.416666597 0.75 0.380208284 0.875 0.322916627 0.75 -5.96046448e-08 0 0.124999933 0 0.249999925 0 -5.96046448e-08 0 0.791666627 0.5 0.75 0.5 0.75 0.25 0.791666627 0.25 0.833333313 0.5 0.791666627 0.5 0.791666627 0.25 0.833333313 0.25 0.875 0.5 0.833333313 0.5 0.833333313 0.25 0.875 0.25 0.916666687 0.5 0.875 0.5 0.875 0.25 0.916666687 0.25 0.958333313 0.5 0.916666687 0.5 0.916666687 0.25 0.958333313 0.25 0.99999994 0.5 0.958333313 0.5 0.958333313 0.25 0.99999994 0.25 0.0416666567 0.5 -5.96046448e-08 0.5 -5.96046448e-08 0.25 0.0416666567 0.25 0.0833333135 0.5 0.0416666567 0.5 0.0416666567 0.25 0.0833333135 0.25 0.458333254 0.5 0.416666597 0.5 0.416666597 0.25 0.458333254 0.25 0.499999911 0.5 0.458333254 0.5 0.458333254 0.25 0.499999911 0.25 0.541666567 0.5 0.499999911 0.5 0.499999911 0.25 0.541666567 0.25 0.583333254 0.5 0.541666567 0.5 0.541666567 0.25 0.583333254 0.25 0.624999881 0.5 0.583333254 0.5 0.583333254 0.25 0.624999881 0.25 0.666666567 0.5 0.624999881 0.5 0.624999881 0.25 0.666666567 0.25 0.708333254 0.5 0.666666567 0.5 0.666666567 0.25 0.708333254 0.25 0.75 0.5 0.708333254 0.5 0.708333254 0.25 0.75 0.25 0.229166597 0.49999997 0.156249955 0.5 0.0989582911 0.5 0.114583269 0.74999994 0.416666597 0.25 0.416666597 0.5 0.322916627 0.75 0.26562494 0.625 -5.96046448e-08 1 -5.96046448e-08 0 -5.96046448e-08 0 -5.96046448e-08 1 0.499999911 0 0.499999911 1 0.499999911 1 0.499999911 0 0.114583269 1 -5.96046448e-08 1 0.208333284 0.5 0.26562494 0.625 0.0833333135 0 0.0416666269 0.5 0.0989582911 0.5 0.0833333135 0.25 -5.96046448e-08 0 -5.96046448e-08 0 0.124999933 0 -5.96046448e-08 0 -5.96046448e-08 1 -5.96046448e-08 0 -5.96046448e-08 0 -5.96046448e-08 1 0.499999911 0 0.499999911 1 0.499999911 1 0.499999911 0 0.34374994 1 0.229166597 1 0.322916627 0.75 0.380208284 0.875 0.0833333135 0.5 0.156249955 0.5 0.213541627 0.5 0.0833333135 0.75 -5.96046448e-08 0 0.249999925 0 0.374999911 0 -5.96046448e-08 0 0.791666627 1 0.75 1 0.75 0.75 0.791666627 0.75 0.833333313 1 0.791666627 1 0.791666627 0.75 0.833333313 0.75 0.875 1 0.833333313 1 0.833333313 0.75 0.875 0.75 0.916666687 1 0.875 1 0.875 0.75 0.916666687 0.75 0.958333313 1 0.916666687 1 0.916666687 0.75 0.958333313 0.75 0.99999994 1 0.958333313 1 0.958333313 0.75 0.99999994 0.75 0.0416666567 1 -5.96046448e-08 1 -5.96046448e-08 0.75 0.0416666567 0.75 0.0833333135 1 0.0416666567 1 0.0416666567 0.75 0.0833333135 0.75 0.458333254 1 0.416666597 1 0.416666597 0.75 0.458333254 0.75 0.499999911 1 0.458333254 1 0.458333254 0.75 0.499999911 0.75 0.541666567 1 0.499999911 1 0.499999911 0.75 0.541666567 0.75 0.583333254 1 0.541666567 1 0.541666567 0.75 0.583333254 0.75 0.624999881 1 0.583333254 1 0.583333254 0.75 0.624999881 0.75 0.666666567 1 0.624999881 1 0.624999881 0.75 0.666666567 0.75 0.708333254 1 0.666666567 1 0.666666567 0.75 0.708333254 0.75 0.75 1 0.708333254 1 0.708333254 0.75 0.75 0.75 0.458333254 0 0.270833284 0.5 0.213541627 0.5 0.34374994 0.249999985 0.416666597 0.75 0.416666597 1 0.43749994 1 0.380208284 0.875 0.416666597 0 0.0833333135 0 0.0416666567 0 0.458333254 0 0.374999911 0 0.12499997 0 0.0833333135 0 0.416666597 0 0.333333254 0 0.166666627 0 0.12499997 0 0.374999911 0 0.291666597 0 0.208333284 0 0.166666627 0 0.333333254 0 0.291666597 0 0.24999994 0 0.208333284 0 0.291666597 1 0.708333254 1 0.75 1 0.24999994 1 0.833333313 1 0.166666627 1 0.208333284 1 0.791666627 1 0.875 1 0.12499997 1 0.166666627 1 0.833333313 1 0.916666687 1 0.0833333135 1 0.12499997 1 0.875 1 0.958333313 1 0.0416666567 1 0.0833333135 1 0.916666687 1 0.958333313 1 0.99999994 1 0.0416666567 1 0.333333254 1 0.666666567 1 0.708333254 1 0.291666597 1 0.374999911 1 0.624999881 1 0.666666567 1 0.333333254 1 0.416666597 1 0.583333254 1 0.624999881 1 0.374999911 1 0.458333254 1 0.541666567 1 0.583333254 1 0.416666597 1 0.458333254 1 0.499999911 1 0.541666567 1 0.75 0 0.833333313 0 0.833333313 1 0.75 1 0.833333313 0 0.916666687 0 0.916666687 1 0.833333313 1 0.916666687 0 0.99999994 0 0.99999994 1 0.916666687 1 -5.96046448e-08 0 0.0833333135 0 0.0833333135 1 -5.96046448e-08 1 0.0833333135 0 0.166666627 0 0.166666627 1 0.0833333135 1 0.166666627 0 0.24999994 0 0.24999994 1 0.166666627 1 0.24999994 0 0.333333254 0 0.333333254 1 0.24999994 1 0.333333254 0 0.416666597 0 0.416666597 1 0.333333254 1 0.416666597 0 0.499999911 0 0.499999911 1 0.416666597 1 0.499999911 0 0.583333254 0 0.583333254 1 0.499999911 1 0.583333254 0 0.666666567 0 0.666666567 1 0.583333254 1 0.666666567 0 0.75 0 0.75 1 0.666666567 1 0.166666627 1 0.24999994 1 0.75 1 0.833333313 1 0.333333254 1 0.666666567 1 0.75 1 0.24999994 1 0.916666687 1 0.0833333135 1 0.166666627 1 0.833333313 1 0.916666687 1 0.99999994 1 0.0833333135 1 0.416666597 1 0.583333254 1 0.666666567 1 0.333333254 1 0.416666597 1 0.499999911 1 0.583333254 1 1 0 1 1 0 1 0 0 0 0 1 0 1 1 0 1 0 0 1 0 1 1 0 1 0 0 1 0 1 1 0 1 0 0 1 0 1 1 0 1 0 0 1 0 1 1 0 1 </float_array>
          <technique_common>
            <accessor count="671" offset="0" source="#ww-tex0-array" stride="2">
              <param name="S" type="float" />
              <param name="T" type="float" />
            </accessor>
          </technique_common>
        </source>
        <vertices id="ww-vertices">
          <input semantic="POSITION" source="#ww-positions" />
        </vertices>
        <polylist count="170" material="defaultMaterial">
          <input offset="0" semantic="VERTEX" source="#ww-vertices" />
          <input offset="0" semantic="NORMAL" source="#ww-normals" />
          <input offset="0" semantic="TEXCOORD" source="#ww-tex0" set="0" />
          <vcount>4 4 4 4 4 4 4 4 4 4 4 4 4 4 4 4 4 4 4 4 4 4 4 4 4 4 4 4 4 4 4 4 4 4 4 4 4 4 4 4 4 4 4 3 4 4 4 4 4 3 4 4 4 3 4 4 4 4 3 4 4 4 4 4 4 4 4 4 4 4 4 4 4 4 4 4 4 4 4 4 4 4 4 4 4 4 4 4 4 4 4 4 4 4 4 4 4 4 4 4 4 4 4 4 4 4 4 4 4 4 4 4 4 4 4 4 4 4 4 4 4 4 4 4 4 4 4 4 4 4 4 4 4 4 3 4 4 4 4 4 3 4 4 4 4 3 4 4 4 4 4 4 4 4 4 4 4 4 4 4 4 3 4 3 4 4 4 4 4 4 </vcount>
          <p>0 1 2 3 4 5 6 7 8 9 10 11 12 13 14 15 16 17 18 19 20 21 22 23 24 25 26 27 28 29 30 31 32 33 34 35 36 37 38 39 40 41 42 43 44 45 46 47 48 49 50 51 52 53 54 55 56 57 58 59 60 61 62 63 64 65 66 67 68 69 70 71 72 73 74 75 76 77 78 79 80 81 82 83 84 85 86 87 88 89 90 91 92 93 94 95 96 97 98 99 100 101 102 103 104 105 106 107 108 109 110 111 112 113 114 115 116 117 118 119 120 121 122 123 124 125 126 127 128 129 130 131 132 133 134 135 136 137 138 139 140 141 142 143 144 145 146 147 148 149 150 151 152 153 154 155 156 157 158 159 160 161 162 163 164 165 166 167 168 169 170 171 172 173 174 175 176 177 178 179 180 181 182 183 184 185 186 187 188 189 190 191 192 193 194 195 196 197 198 199 200 201 202 203 204 205 206 207 208 209 210 211 212 213 214 215 216 217 218 219 220 221 222 223 224 225 226 227 228 229 230 231 232 233 234 235 236 237 238 239 240 241 242 243 244 245 246 247 248 249 250 251 252 253 254 255 256 257 258 259 260 261 262 263 264 265 266 267 268 269 270 271 272 273 274 275 276 277 278 279 280 281 282 283 284 285 286 287 288 289 290 291 292 293 294 295 296 297 298 299 300 301 302 303 304 305 306 307 308 309 310 311 312 313 314 315 316 317 318 319 320 321 322 323 324 325 326 327 328 329 330 331 332 333 334 335 336 337 338 339 340 341 342 343 344 345 346 347 348 349 350 351 352 353 354 355 356 357 358 359 360 361 362 363 364 365 366 367 368 369 370 371 372 373 374 375 376 377 378 379 380 381 382 383 384 385 386 387 388 389 390 391 392 393 394 395 396 397 398 399 400 401 402 403 404 405 406 407 408 409 410 411 412 413 414 415 416 417 418 419 420 421 422 423 424 425 426 427 428 429 430 431 432 433 434 435 436 437 438 439 440 441 442 443 444 445 446 447 448 449 450 451 452 453 454 455 456 457 458 459 460 461 462 463 464 465 466 467 468 469 470 471 472 473 474 475 476 477 478 479 480 481 482 483 484 485 486 487 488 489 490 491 492 493 494 495 496 497 498 499 500 501 502 503 504 505 506 507 508 509 510 511 512 513 514 515 516 517 518 519 520 521 522 523 524 525 526 527 528 529 530 531 532 533 534 535 536 537 538 539 540 541 542 543 544 545 546 547 548 549 550 551 552 553 554 555 556 557 558 559 560 561 562 563 564 565 566 567 568 569 570 571 572 573 574 575 576 577 578 579 580 581 582 583 584 585 586 587 588 589 590 591 592 593 594 595 596 597 598 599 600 601 602 603 604 605 606 607 608 609 610 611 612 613 614 615 616 617 618 619 620 621 622 623 624 625 626 627 628 629 630 631 632 633 634 635 636 637 638 639 640 641 642 643 644 645 646 647 648 649 650 651 652 653 654 655 656 657 658 659 660 661 662 663 664 665 666 667 668 669 670 </p>
        </polylist>
      </mesh>
    </geometry>
  </library_geometries>
  <library_controllers>
  </library_controllers>
  <library_visual_scenes>
    <visual_scene id="Scene" name="Scene">
      <node id="RootNode" name="RootNode" type="NODE">
        <matrix sid="matrix">1 0 0 0 0 1 0 0 0 0 1 0 0 0 0 1</matrix>
        <instance_geometry url="#ww">
          <bind_material>
            <technique_common>
              <instance_material symbol="defaultMaterial" target="#_01W-WDefault">
                <bind_vertex_input semantic="CHANNEL0" input_semantic="TEXCOORD" input_set="0"/>
              </instance_material>
            </technique_common>
          </bind_material>
        </instance_geometry>
      </node>
    </visual_scene>
  </library_visual_scenes>
  <scene>
    <instance_visual_scene url="#Scene" />
  </scene>
</COLLADA>
