<?xml version="1.0" encoding="UTF-8" standalone="no" ?>
<COLLADA xmlns="http://www.collada.org/2005/11/COLLADASchema" version="1.4.1">
  <asset>
    <contributor>
      <author>Assimp</author>
      <authoring_tool>FBX SDK/FBX Plugins version 2020.3.2</authoring_tool>
    </contributor>
    <created>2026-05-28T19:27:50</created>
    <modified>2026-05-28T19:27:50</modified>
    <unit name="meter" meter="1" />
    <up_axis>Z_UP</up_axis>
  </asset>
  <library_images>
  </library_images>
  <library_effects>
    <effect id="Part__Feature-fx" name="Part__Feature">
      <profile_COMMON>
        <technique sid="standard">
          <phong>
            <emission>
              <color sid="emission">0   0   0   1</color>
            </emission>
            <ambient>
              <color sid="ambient">0.596078455   0.666666687   0.686274529   1</color>
            </ambient>
            <diffuse>
              <color sid="diffuse">0.596078455   0.666666687   0.686274529   1</color>
            </diffuse>
            <specular>
              <color sid="specular">1   1   1   1</color>
            </specular>
            <shininess>
              <float sid="shininess">1</float>
            </shininess>
          </phong>
        </technique>
      </profile_COMMON>
    </effect>
  </library_effects>
  <library_materials>
    <material id="Part__Feature" name="Part__Feature">
      <instance_effect url="#Part__Feature-fx"/>
    </material>
  </library_materials>
  <library_geometries>
    <geometry id="Cylinder003" name="Cylinder003" >
      <mesh>
        <source id="Cylinder003-positions" name="Cylinder003-positions">
          <float_array id="Cylinder003-positions-array" count="3132">-4.33981739e-09 0.00952188019 -0.0265000034 -0.00476094382 0.00824618991 -0.0265000034 -0.00476094242 0.00824618898 0.0265000015 -4.02782785e-09 0.00952187926 0.0265000015 -0.00476094382 0.00824618991 -0.0265000034 -0.00824619271 0.00476094242 -0.0265000034 -0.00824619364 0.00476094102 0.0265000015 -0.00476094242 0.00824618898 0.0265000015 -0.00824619271 0.00476094242 -0.0265000034 -0.00952188484 4.33253877e-09 -0.0265000034 -0.00952188578 2.60997468e-09 0.0265000015 -0.00824619364 0.00476094102 0.0265000015 -0.00952188484 4.33253877e-09 -0.0265000034 -0.00824619643 -0.00476093544 -0.0265000034 -0.00824619737 -0.00476093637 0.0265000015 -0.00952188578 2.60997468e-09 0.0265000015 -9.48553769e-09 -0.00952188019 -0.0265000034 0.00476093031 -0.00824619271 -0.0265000034 0.00476093078 -0.00824619364 0.0265000015 -9.17354814e-09 -0.00952188112 0.0265000015 0.00476093031 -0.00824619271 -0.0265000034 0.0082461806 -0.00476094522 -0.0265000034 0.00824617967 -0.00476094661 0.0265000015 0.00476093078 -0.00824619364 0.0265000015 0.0082461806 -0.00476094522 -0.0265000034 0.00952187367 6.24581831e-10 -0.0265000034 0.00952187274 -1.09798259e-09 0.0265000015 0.00824617967 -0.00476094661 0.0265000015 0.00952187274 -1.09798259e-09 0.0265000015 0.00952187367 6.24581831e-10 -0.0265000034 0.00824618433 0.00476094009 -0.0265000034 0.0082461834 0.0047609387 0.0265000015 0.00824618433 0.00476094009 -0.0265000034 0.00476093404 0.00824618991 -0.0265000034 0.00476093451 0.00824618898 0.0265000015 0.0082461834 0.0047609387 0.0265000015 0.00476093451 0.00824618898 0.0265000015 0.00476093404 0.00824618991 -0.0265000034 -4.33981739e-09 0.00952188019 -0.0265000034 -4.02782785e-09 0.00952187926 0.0265000015 -0.00824619737 -0.00476093637 0.0265000015 -0.00824619643 -0.00476093544 -0.0265000034 -0.00476094754 -0.00824618712 -0.0265000034 -0.00476094708 -0.00824618805 0.0265000015 -0.00476094754 -0.00824618712 -0.0265000034 -9.48553769e-09 -0.00952188019 -0.0265000034 -9.17354814e-09 -0.00952188112 0.0265000015 -0.00476094708 -0.00824618805 0.0265000015 -0.00824619364 0.00476094102 0.0265000015 -0.00952188578 2.60997468e-09 0.0265000015 0.00952187274 -1.09798259e-09 0.0265000015 0.0082461834 0.0047609387 0.0265000015 -0.00952188484 4.33253877e-09 -0.0265000034 -0.00824619271 0.00476094242 -0.0265000034 0.00824618433 0.00476094009 -0.0265000034 0.00952187367 6.24581831e-10 -0.0265000034 -0.00824619737 -0.00476093637 0.0265000015 0.00824617967 -0.00476094661 0.0265000015 0.00952187274 -1.09798259e-09 0.0265000015 -0.00952188578 2.60997468e-09 0.0265000015 0.0082461806 -0.00476094522 -0.0265000034 -0.00824619643 -0.00476093544 -0.0265000034 -0.00952188484 4.33253877e-09 -0.0265000034 0.00952187367 6.24581831e-10 -0.0265000034 0.00476093451 0.00824618898 0.0265000015 -0.00476094242 0.00824618898 0.0265000015 -0.00824619364 0.00476094102 0.0265000015 0.0082461834 0.0047609387 0.0265000015 -0.00476094382 0.00824618991 -0.0265000034 0.00476093404 0.00824618991 -0.0265000034 0.00824618433 0.00476094009 -0.0265000034 -0.00824619271 0.00476094242 -0.0265000034 0.00476093451 0.00824618898 0.0265000015 -4.02782785e-09 0.00952187926 0.0265000015 -0.00476094242 0.00824618898 0.0265000015 -0.00476094382 0.00824618991 -0.0265000034 -4.33981739e-09 0.00952188019 -0.0265000034 0.00476093404 0.00824618991 -0.0265000034 -0.00476094708 -0.00824618805 0.0265000015 0.00476093078 -0.00824619364 0.0265000015 0.00824617967 -0.00476094661 0.0265000015 -0.00824619737 -0.00476093637 0.0265000015 0.00476093031 -0.00824619271 -0.0265000034 -0.00476094754 -0.00824618712 -0.0265000034 -0.00824619643 -0.00476093544 -0.0265000034 0.0082461806 -0.00476094522 -0.0265000034 -0.00476094708 -0.00824618805 0.0265000015 -9.17354814e-09 -0.00952188112 0.0265000015 0.00476093078 -0.00824619364 0.0265000015 0.00476093031 -0.00824619271 -0.0265000034 -9.48553769e-09 -0.00952188019 -0.0265000034 -0.00476094754 -0.00824618712 -0.0265000034 0.0317635201 0.0183386803 0.0238839537 0.0366773531 -2.08810746e-12 0.0238839537 0.0376386344 -3.65391051e-11 0.0212679096 0.0325960144 0.0188193191 0.0212679096 0.0183386747 0.0317635201 0.0238839574 0.0317635201 0.0183386803 0.0238839537 0.0325960144 0.0188193191 0.0212679096 0.0188193172 0.0325960182 0.0212679096 2.22840457e-09 0.0366773531 0.0238839574 0.0183386747 0.0317635201 0.0238839574 0.0188193172 0.0325960182 0.0212679096 2.41232501e-09 0.0376386382 0.0212679096 -0.0183386728 0.0317635238 0.0238839574 2.22840457e-09 0.0366773531 0.0238839574 2.41232501e-09 0.0376386382 0.0212679096 -0.0188193135 0.0325960219 0.0212679096 -0.0317635201 0.0183386914 0.0238839537 -0.0183386728 0.0317635238 0.0238839574 -0.0188193135 0.0325960219 0.0212679096 -0.0325960144 0.0188193284 0.0212679096 -0.0366773568 1.42806043e-08 0.0238839537 -0.0317635201 0.0183386914 0.0238839537 -0.0325960144 0.0188193284 0.0212679096 -0.0376386419 1.46204888e-08 0.0212679096 -0.031763535 -0.0183386598 0.0238839537 -0.0366773568 1.42806043e-08 0.0238839537 -0.0376386419 1.46204888e-08 0.0212679096 -0.0325960293 -0.0188193042 0.0212679096 -0.0183386896 -0.0317635201 0.0238839537 -0.031763535 -0.0183386598 0.0238839537 -0.0325960293 -0.0188193042 0.0212679096 -0.0188193303 -0.0325960107 0.0212679058 -1.75924129e-08 -0.0366773605 0.0238839537 -0.0183386896 -0.0317635201 0.0238839537 -0.0188193303 -0.0325960107 0.0212679058 -1.79279773e-08 -0.0376386382 0.0212679058 0.0183386598 -0.0317635387 0.0238839537 -1.75924129e-08 -0.0366773605 0.0238839537 -1.79279773e-08 -0.0376386382 0.0212679058 0.0188193005 -0.0325960293 0.0212679058 0.0317635052 -0.0183386952 0.0238839537 0.0183386598 -0.0317635387 0.0238839537 0.0188193005 -0.0325960293 0.0212679058 0.0325959995 -0.0188193414 0.0212679096 0.0366773531 -2.08810746e-12 0.0238839537 0.0317635052 -0.0183386952 0.0238839537 0.0325959995 -0.0188193414 0.0212679096 0.0376386344 -3.65391051e-11 0.0212679096 0.0238335915 0.0137603348 0.0265000015 0.0275206622 2.47530441e-10 0.0265000015 0.0366773531 -2.08810746e-12 0.0238839537 0.0317635201 0.0183386803 0.0238839537 0.0137603302 0.0238335952 0.0265000015 0.0238335915 0.0137603348 0.0265000015 0.0317635201 0.0183386803 0.0238839537 0.0183386747 0.0317635201 0.0238839574 4.54028815e-10 0.027520664 0.0265000015 0.0137603302 0.0238335952 0.0265000015 0.0183386747 0.0317635201 0.0238839574 2.22840457e-09 0.0366773531 0.0238839574 -0.0137603292 0.0238335989 0.0265000015 4.54028815e-10 0.027520664 0.0265000015 2.22840457e-09 0.0366773531 0.0238839574 -0.0183386728 0.0317635238 0.0238839574 -0.0238335915 0.0137603423 0.0265000015 -0.0137603292 0.0238335989 0.0265000015 -0.0183386728 0.0317635238 0.0238839574 -0.0317635201 0.0183386914 0.0238839537 -0.0275206659 1.09644747e-08 0.0265000015 -0.0238335915 0.0137603423 0.0265000015 -0.0317635201 0.0183386914 0.0238839537 -0.0366773568 1.42806043e-08 0.0238839537 -0.0238336027 -0.013760319 0.0265000015 -0.0275206659 1.09644747e-08 0.0265000015 -0.0366773568 1.42806043e-08 0.0238839537 -0.031763535 -0.0183386598 0.0238839537 -0.0137603413 -0.0238335915 0.0265000015 -0.0238336027 -0.013760319 0.0265000015 -0.031763535 -0.0183386598 0.0238839537 -0.0183386896 -0.0317635201 0.0238839537 -1.44184185e-08 -0.027520664 0.0265000015 -0.0137603413 -0.0238335915 0.0265000015 -0.0183386896 -0.0317635201 0.0238839537 -1.75924129e-08 -0.0366773605 0.0238839537 0.013760318 -0.0238336064 0.0265000015 -1.44184185e-08 -0.027520664 0.0265000015 -1.75924129e-08 -0.0366773605 0.0238839537 0.0183386598 -0.0317635387 0.0238839537 0.0238335822 -0.013760346 0.0265000015 0.013760318 -0.0238336064 0.0265000015 0.0183386598 -0.0317635387 0.0238839537 0.0317635052 -0.0183386952 0.0238839537 0.0366773531 -2.08810746e-12 0.0238839537 0.0275206622 2.47530441e-10 0.0265000015 0.0238335822 -0.013760346 0.0265000015 0.0317635052 -0.0183386952 0.0238839537 0.0238335915 0.0137603348 0.0265000015 0.0150797777 0.00870631728 0.0265000015 0.017412629 -3.77699927e-10 0.0265000015 0.0275206622 2.47530441e-10 0.0265000015 0.0137603302 0.0238335952 0.0265000015 0.00870631263 0.0150797823 0.0265000015 0.0150797777 0.00870631728 0.0265000015 0.0238335915 0.0137603348 0.0265000015 4.54028815e-10 0.027520664 0.0265000015 -1.93614902e-09 0.017412629 0.0265000015 0.00870631263 0.0150797823 0.0265000015 0.0137603302 0.0238335952 0.0265000015 -0.0137603292 0.0238335989 0.0265000015 -0.00870631635 0.0150797842 0.0265000015 -1.93614902e-09 0.017412629 0.0265000015 4.54028815e-10 0.027520664 0.0265000015 -0.0238335915 0.0137603423 0.0265000015 -0.0150797814 0.00870632194 0.0265000015 -0.00870631635 0.0150797842 0.0265000015 -0.0137603292 0.0238335989 0.0265000015 -0.0275206659 1.09644747e-08 0.0265000015 -0.0174126346 6.40303055e-09 0.0265000015 -0.0150797814 0.00870632194 0.0265000015 -0.0238335915 0.0137603423 0.0265000015 -0.0238336027 -0.013760319 0.0265000015 -0.0150797889 -0.00870630797 0.0265000015 -0.0174126346 6.40303055e-09 0.0265000015 -0.0275206659 1.09644747e-08 0.0265000015 -0.0137603413 -0.0238335915 0.0265000015 -0.0087063238 -0.0150797796 0.0265000015 -0.0150797889 -0.00870630797 0.0265000015 -0.0238336027 -0.013760319 0.0265000015 -1.44184185e-08 -0.027520664 0.0265000015 -1.13461134e-08 -0.0174126327 0.0265000015 -0.0087063238 -0.0150797796 0.0265000015 -0.0137603413 -0.0238335915 0.0265000015 0.013760318 -0.0238336064 0.0265000015 0.00870630518 -0.0150797889 0.0265000015 -1.13461134e-08 -0.0174126327 0.0265000015 -1.44184185e-08 -0.027520664 0.0265000015 0.0238335822 -0.013760346 0.0265000015 0.0150797721 -0.00870632473 0.0265000015 0.00870630518 -0.0150797889 0.0265000015 0.013760318 -0.0238336064 0.0265000015 0.0238335822 -0.013760346 0.0265000015 0.0275206622 2.47530441e-10 0.0265000015 0.017412629 -3.77699927e-10 0.0265000015 0.0150797721 -0.00870632473 0.0265000015 0.017412629 -3.77699927e-10 0.0265000015 0.0150797777 0.00870631728 0.0265000015 0.0150797777 0.00870631728 0.0204999968 0.017412629 -3.77699927e-10 0.0204999968 0.0150797777 0.00870631728 0.0265000015 0.00870631263 0.0150797823 0.0265000015 0.00870631263 0.0150797823 0.0204999968 0.0150797777 0.00870631728 0.0204999968 0.00870631263 0.0150797823 0.0265000015 -1.93614902e-09 0.017412629 0.0265000015 -1.93614902e-09 0.017412629 0.0204999968 0.00870631263 0.0150797823 0.0204999968 -1.93614902e-09 0.017412629 0.0265000015 -0.00870631635 0.0150797842 0.0265000015 -0.00870631635 0.0150797842 0.0204999968 -1.93614902e-09 0.017412629 0.0204999968 -0.00870631635 0.0150797842 0.0265000015 -0.0150797814 0.00870632194 0.0265000015 -0.0150797814 0.00870632194 0.0204999968 -0.00870631635 0.0150797842 0.0204999968 -0.0150797814 0.00870632194 0.0265000015 -0.0174126346 6.40303055e-09 0.0265000015 -0.0174126346 6.40303055e-09 0.0204999968 -0.0150797814 0.00870632194 0.0204999968 -0.0174126346 6.40303055e-09 0.0265000015 -0.0150797889 -0.00870630797 0.0265000015 -0.0150797889 -0.00870630797 0.0204999968 -0.0174126346 6.40303055e-09 0.0204999968 -0.0150797889 -0.00870630797 0.0265000015 -0.0087063238 -0.0150797796 0.0265000015 -0.0087063238 -0.0150797796 0.0204999968 -0.0150797889 -0.00870630797 0.0204999968 -0.0087063238 -0.0150797796 0.0265000015 -1.13461134e-08 -0.0174126327 0.0265000015 -1.13461134e-08 -0.0174126327 0.0204999968 -0.0087063238 -0.0150797796 0.0204999968 -1.13461134e-08 -0.0174126327 0.0265000015 0.00870630518 -0.0150797889 0.0265000015 0.00870630518 -0.0150797889 0.0204999968 -1.13461134e-08 -0.0174126327 0.0204999968 0.00870630518 -0.0150797889 0.0265000015 0.0150797721 -0.00870632473 0.0265000015 0.0150797721 -0.00870632473 0.0204999968 0.00870630518 -0.0150797889 0.0204999968 0.0150797721 -0.00870632473 0.0265000015 0.017412629 -3.77699927e-10 0.0265000015 0.017412629 -3.77699927e-10 0.0204999968 0.0150797721 -0.00870632473 0.0204999968 -0.0174126346 6.40303055e-09 0.0204999968 -0.0150797889 -0.00870630797 0.0204999968 0.0150797721 -0.00870632473 0.0204999968 0.017412629 -3.77699927e-10 0.0204999968 2.41232501e-09 0.0376386382 0.00873209164 -0.0188193135 0.0325960219 0.00873209164 -0.0188193135 0.0325960219 0.0212679096 2.41232501e-09 0.0376386382 0.0212679096 -0.0188193135 0.0325960219 0.00873209164 -0.0325960144 0.0188193284 0.00873209164 -0.0325960144 0.0188193284 0.0212679096 -0.0188193135 0.0325960219 0.0212679096 -0.0325960144 0.0188193284 0.00873209164 -0.0376386419 1.46204888e-08 0.00873209164 -0.0376386419 1.46204888e-08 0.0212679096 -0.0325960144 0.0188193284 0.0212679096 -0.0376386419 1.46204888e-08 0.00873209164 -0.0325960293 -0.0188193042 0.00873209164 -0.0325960293 -0.0188193042 0.0212679096 -0.0376386419 1.46204888e-08 0.0212679096 -1.79279773e-08 -0.0376386382 0.00873209536 0.0188193005 -0.0325960293 0.00873209536 0.0188193005 -0.0325960293 0.0212679058 -1.79279773e-08 -0.0376386382 0.0212679058 0.0188193005 -0.0325960293 0.00873209536 0.0325959995 -0.0188193414 0.00873209164 0.0325959995 -0.0188193414 0.0212679096 0.0188193005 -0.0325960293 0.0212679058 0.0325959995 -0.0188193414 0.00873209164 0.0376386344 -3.65391051e-11 0.00873209164 0.0376386344 -3.65391051e-11 0.0212679096 0.0325959995 -0.0188193414 0.0212679096 0.0376386344 -3.65391051e-11 0.00873209164 0.0366773531 -2.08810746e-12 0.0061160475 0.0317635201 0.0183386803 0.0061160475 0.0325960144 0.0188193191 0.00873209164 0.0325960144 0.0188193191 0.00873209164 0.0317635201 0.0183386803 0.0061160475 0.0183386747 0.0317635201 0.00611604378 0.0188193172 0.0325960182 0.00873209164 0.0188193172 0.0325960182 0.00873209164 0.0183386747 0.0317635201 0.00611604378 2.22840457e-09 0.0366773531 0.00611604378 2.41232501e-09 0.0376386382 0.00873209164 2.41232501e-09 0.0376386382 0.00873209164 2.22840457e-09 0.0366773531 0.00611604378 -0.0183386728 0.0317635238 0.00611604378 -0.0188193135 0.0325960219 0.00873209164 -0.0188193135 0.0325960219 0.00873209164 -0.0183386728 0.0317635238 0.00611604378 -0.0317635201 0.0183386914 0.0061160475 -0.0325960144 0.0188193284 0.00873209164 -0.0325960144 0.0188193284 0.00873209164 -0.0317635201 0.0183386914 0.0061160475 -0.0366773568 1.42806043e-08 0.0061160475 -0.0376386419 1.46204888e-08 0.00873209164 -0.0376386419 1.46204888e-08 0.00873209164 -0.0366773568 1.42806043e-08 0.0061160475 -0.031763535 -0.0183386598 0.0061160475 -0.0325960293 -0.0188193042 0.00873209164 -0.0325960293 -0.0188193042 0.00873209164 -0.031763535 -0.0183386598 0.0061160475 -0.0183386896 -0.0317635201 0.0061160475 -0.0188193303 -0.0325960107 0.00873209536 -0.0188193303 -0.0325960107 0.00873209536 -0.0183386896 -0.0317635201 0.0061160475 -1.75924129e-08 -0.0366773605 0.0061160475 -1.79279773e-08 -0.0376386382 0.00873209536 -1.79279773e-08 -0.0376386382 0.00873209536 -1.75924129e-08 -0.0366773605 0.0061160475 0.0183386598 -0.0317635387 0.0061160475 0.0188193005 -0.0325960293 0.00873209536 0.0188193005 -0.0325960293 0.00873209536 0.0183386598 -0.0317635387 0.0061160475 0.0317635052 -0.0183386952 0.0061160475 0.0325959995 -0.0188193414 0.00873209164 0.0325959995 -0.0188193414 0.00873209164 0.0317635052 -0.0183386952 0.0061160475 0.0366773531 -2.08810746e-12 0.0061160475 0.0376386344 -3.65391051e-11 0.00873209164 0.0366773531 -2.08810746e-12 0.0061160475 0.0275206622 2.47530441e-10 0.00349999964 0.0238335915 0.0137603348 0.00349999964 0.0317635201 0.0183386803 0.0061160475 0.0317635201 0.0183386803 0.0061160475 0.0238335915 0.0137603348 0.00349999964 0.0137603302 0.0238335952 0.00349999964 0.0183386747 0.0317635201 0.00611604378 0.0183386747 0.0317635201 0.00611604378 0.0137603302 0.0238335952 0.00349999964 4.54028815e-10 0.027520664 0.00349999964 2.22840457e-09 0.0366773531 0.00611604378 2.22840457e-09 0.0366773531 0.00611604378 4.54028815e-10 0.027520664 0.00349999964 -0.0137603292 0.0238335989 0.00349999964 -0.0183386728 0.0317635238 0.00611604378 -0.0183386728 0.0317635238 0.00611604378 -0.0137603292 0.0238335989 0.00349999964 -0.0238335915 0.0137603423 0.00349999964 -0.0317635201 0.0183386914 0.0061160475 -0.0317635201 0.0183386914 0.0061160475 -0.0238335915 0.0137603423 0.00349999964 -0.0275206659 1.09644747e-08 0.00349999964 -0.0366773568 1.42806043e-08 0.0061160475 -0.0366773568 1.42806043e-08 0.0061160475 -0.0275206659 1.09644747e-08 0.00349999964 -0.0238336027 -0.013760319 0.00349999964 -0.031763535 -0.0183386598 0.0061160475 -0.031763535 -0.0183386598 0.0061160475 -0.0238336027 -0.013760319 0.00349999964 -0.0137603413 -0.0238335915 0.00349999964 -0.0183386896 -0.0317635201 0.0061160475 -0.0183386896 -0.0317635201 0.0061160475 -0.0137603413 -0.0238335915 0.00349999964 -1.44184185e-08 -0.027520664 0.00349999964 -1.75924129e-08 -0.0366773605 0.0061160475 -1.75924129e-08 -0.0366773605 0.0061160475 -1.44184185e-08 -0.027520664 0.00349999964 0.013760318 -0.0238336064 0.00349999964 0.0183386598 -0.0317635387 0.0061160475 0.0183386598 -0.0317635387 0.0061160475 0.013760318 -0.0238336064 0.00349999964 0.0238335822 -0.013760346 0.00349999964 0.0317635052 -0.0183386952 0.0061160475 0.0238335822 -0.013760346 0.00349999964 0.0275206622 2.47530441e-10 0.00349999964 0.0366773531 -2.08810746e-12 0.0061160475 0.0317635052 -0.0183386952 0.0061160475 0.017412629 -3.77699927e-10 0.00349999964 0.0150797777 0.00870631728 0.00349999964 0.0238335915 0.0137603348 0.00349999964 0.0275206622 2.47530441e-10 0.00349999964 0.0150797777 0.00870631728 0.00349999964 0.00870631263 0.0150797823 0.00349999964 0.0137603302 0.0238335952 0.00349999964 0.0238335915 0.0137603348 0.00349999964 0.00870631263 0.0150797823 0.00349999964 -1.93614902e-09 0.017412629 0.00349999964 4.54028815e-10 0.027520664 0.00349999964 0.0137603302 0.0238335952 0.00349999964 -1.93614902e-09 0.017412629 0.00349999964 -0.00870631635 0.0150797842 0.00349999964 -0.0137603292 0.0238335989 0.00349999964 4.54028815e-10 0.027520664 0.00349999964 -0.00870631635 0.0150797842 0.00349999964 -0.0150797814 0.00870632194 0.00349999964 -0.0238335915 0.0137603423 0.00349999964 -0.0137603292 0.0238335989 0.00349999964 -0.0150797814 0.00870632194 0.00349999964 -0.0174126346 6.40303055e-09 0.00349999964 -0.0275206659 1.09644747e-08 0.00349999964 -0.0238335915 0.0137603423 0.00349999964 -0.0174126346 6.40303055e-09 0.00349999964 -0.0150797889 -0.00870630797 0.00349999964 -0.0238336027 -0.013760319 0.00349999964 -0.0275206659 1.09644747e-08 0.00349999964 -0.0150797889 -0.00870630797 0.00349999964 -0.0087063238 -0.0150797796 0.00349999964 -0.0137603413 -0.0238335915 0.00349999964 -0.0238336027 -0.013760319 0.00349999964 -0.0087063238 -0.0150797796 0.00349999964 -1.13461134e-08 -0.0174126327 0.00349999964 -1.44184185e-08 -0.027520664 0.00349999964 -0.0137603413 -0.0238335915 0.00349999964 -1.13461134e-08 -0.0174126327 0.00349999964 0.00870630518 -0.0150797889 0.00349999964 0.013760318 -0.0238336064 0.00349999964 -1.44184185e-08 -0.027520664 0.00349999964 0.00870630518 -0.0150797889 0.00349999964 0.0150797721 -0.00870632473 0.00349999964 0.0238335822 -0.013760346 0.00349999964 0.013760318 -0.0238336064 0.00349999964 0.0238335822 -0.013760346 0.00349999964 0.0150797721 -0.00870632473 0.00349999964 0.017412629 -3.77699927e-10 0.00349999964 0.0275206622 2.47530441e-10 0.00349999964 0.017412629 -3.77699927e-10 0.00349999964 0.017412629 -3.77699927e-10 0.00950000435 0.0150797777 0.00870631728 0.00950000435 0.0150797777 0.00870631728 0.00349999964 0.0150797777 0.00870631728 0.00349999964 0.0150797777 0.00870631728 0.00950000435 0.00870631263 0.0150797823 0.00950000435 0.00870631263 0.0150797823 0.00349999964 0.00870631263 0.0150797823 0.00349999964 0.00870631263 0.0150797823 0.00950000435 -1.93614902e-09 0.017412629 0.00950000435 -1.93614902e-09 0.017412629 0.00349999964 -1.93614902e-09 0.017412629 0.00349999964 -1.93614902e-09 0.017412629 0.00950000435 -0.00870631635 0.0150797842 0.00950000435 -0.00870631635 0.0150797842 0.00349999964 -0.00870631635 0.0150797842 0.00349999964 -0.00870631635 0.0150797842 0.00950000435 -0.0150797814 0.00870632194 0.00950000435 -0.0150797814 0.00870632194 0.00349999964 -0.0150797814 0.00870632194 0.00349999964 -0.0150797814 0.00870632194 0.00950000435 -0.0174126346 6.40303055e-09 0.00950000435 -0.0174126346 6.40303055e-09 0.00349999964 -0.0174126346 6.40303055e-09 0.00349999964 -0.0174126346 6.40303055e-09 0.00950000435 -0.0150797889 -0.00870630797 0.00950000435 -0.0150797889 -0.00870630797 0.00349999964 -0.0150797889 -0.00870630797 0.00349999964 -0.0150797889 -0.00870630797 0.00950000435 -0.0087063238 -0.0150797796 0.00950000435 -0.0087063238 -0.0150797796 0.00349999964 -0.0087063238 -0.0150797796 0.00349999964 -0.0087063238 -0.0150797796 0.00950000435 -1.13461134e-08 -0.0174126327 0.00950000435 -1.13461134e-08 -0.0174126327 0.00349999964 -1.13461134e-08 -0.0174126327 0.00349999964 -1.13461134e-08 -0.0174126327 0.00950000435 0.00870630518 -0.0150797889 0.00950000435 0.00870630518 -0.0150797889 0.00349999964 0.00870630518 -0.0150797889 0.00349999964 0.00870630518 -0.0150797889 0.00950000435 0.0150797721 -0.00870632473 0.00950000435 0.0150797721 -0.00870632473 0.00349999964 0.0150797721 -0.00870632473 0.00349999964 0.0150797721 -0.00870632473 0.00950000435 0.017412629 -3.77699927e-10 0.00950000435 0.017412629 -3.77699927e-10 0.00349999964 -0.0174126346 6.40303055e-09 0.00950000435 -0.0150797814 0.00870632194 0.00950000435 0.0150797777 0.00870631728 0.00950000435 0.017412629 -3.77699927e-10 0.00950000435 0.0376386344 -3.65391051e-11 0.0212679096 0.0376386344 -3.65391051e-11 0.00873209164 0.0325960144 0.0188193191 0.00873209164 0.0325960144 0.0188193191 0.0212679096 0.0325960144 0.0188193191 0.00873209164 0.0188193172 0.0325960182 0.00873209164 0.0188193172 0.0325960182 0.0212679096 0.0325960144 0.0188193191 0.0212679096 0.0188193172 0.0325960182 0.0212679096 0.0188193172 0.0325960182 0.00873209164 2.41232501e-09 0.0376386382 0.00873209164 2.41232501e-09 0.0376386382 0.0212679096 -0.0325960293 -0.0188193042 0.0212679096 -0.0325960293 -0.0188193042 0.00873209164 -0.0188193303 -0.0325960107 0.00873209536 -0.0188193303 -0.0325960107 0.0212679058 -0.0188193303 -0.0325960107 0.00873209536 -1.79279773e-08 -0.0376386382 0.00873209536 -1.79279773e-08 -0.0376386382 0.0212679058 -0.0188193303 -0.0325960107 0.0212679058 0.0150797777 0.00870631728 0.0204999968 -0.0150797814 0.00870632194 0.0204999968 -0.0174126346 6.40303055e-09 0.0204999968 0.017412629 -3.77699927e-10 0.0204999968 0.0150797721 -0.00870632473 0.00950000435 -0.0150797889 -0.00870630797 0.00950000435 -0.0174126346 6.40303055e-09 0.00950000435 0.017412629 -3.77699927e-10 0.00950000435 -0.00870631635 0.0150797842 0.00950000435 0.00870631263 0.0150797823 0.00950000435 0.0150797777 0.00870631728 0.00950000435 -0.0150797814 0.00870632194 0.00950000435 0.00870631263 0.0150797823 0.0204999968 -0.00870631635 0.0150797842 0.0204999968 -0.0150797814 0.00870632194 0.0204999968 0.0150797777 0.00870631728 0.0204999968 -0.00870631635 0.0150797842 0.00950000435 -1.93614902e-09 0.017412629 0.00950000435 0.00870631263 0.0150797823 0.00950000435 0.00870631263 0.0150797823 0.0204999968 -1.93614902e-09 0.017412629 0.0204999968 -0.00870631635 0.0150797842 0.0204999968 -0.0087063238 -0.0150797796 0.0204999968 0.00870630518 -0.0150797889 0.0204999968 0.0150797721 -0.00870632473 0.0204999968 -0.0150797889 -0.00870630797 0.0204999968 0.00870630518 -0.0150797889 0.00950000435 -0.0087063238 -0.0150797796 0.00950000435 -0.0150797889 -0.00870630797 0.00950000435 0.0150797721 -0.00870632473 0.00950000435 -0.0087063238 -0.0150797796 0.0204999968 -1.13461134e-08 -0.0174126327 0.0204999968 0.00870630518 -0.0150797889 0.0204999968 0.00870630518 -0.0150797889 0.00950000435 -1.13461134e-08 -0.0174126327 0.00950000435 -0.0087063238 -0.0150797796 0.00950000435 0.0317635201 0.0183386821 -0.00611604378 0.0366773531 1.30925359e-09 -0.00611604378 0.0376386344 1.2748026e-09 -0.00873208977 0.0325960144 0.0188193209 -0.00873208977 0.0183386747 0.0317635201 -0.00611604191 0.0317635201 0.0183386821 -0.00611604378 0.0325960144 0.0188193209 -0.00873208977 0.0188193172 0.0325960182 -0.00873208977 2.22840457e-09 0.0366773531 -0.00611604191 0.0183386747 0.0317635201 -0.00611604191 0.0188193172 0.0325960182 -0.00873208977 2.41232501e-09 0.0376386382 -0.00873208977 -0.0183386728 0.0317635238 -0.00611604191 2.22840457e-09 0.0366773531 -0.00611604191 2.41232501e-09 0.0376386382 -0.00873208977 -0.0188193135 0.0325960219 -0.00873208977 -0.0317635201 0.0183386933 -0.00611604378 -0.0183386728 0.0317635238 -0.00611604191 -0.0188193135 0.0325960219 -0.00873208977 -0.0325960144 0.0188193303 -0.00873208977 -0.0366773568 1.55919455e-08 -0.00611604378 -0.0317635201 0.0183386933 -0.00611604378 -0.0325960144 0.0188193303 -0.00873208977 -0.0376386419 1.59318301e-08 -0.00873208977 -0.031763535 -0.0183386579 -0.00611604378 -0.0366773568 1.55919455e-08 -0.00611604378 -0.0376386419 1.59318301e-08 -0.00873208977 -0.0325960293 -0.0188193023 -0.00873208977 -0.0183386896 -0.0317635201 -0.00611604564 -0.031763535 -0.0183386579 -0.00611604378 -0.0325960293 -0.0188193023 -0.00873208977 -0.0188193303 -0.0325960107 -0.00873209164 -1.75924129e-08 -0.0366773605 -0.00611604564 -0.0183386896 -0.0317635201 -0.00611604564 -0.0188193303 -0.0325960107 -0.00873209164 -1.79279773e-08 -0.0376386382 -0.00873209164 0.0183386598 -0.0317635387 -0.00611604564 -1.75924129e-08 -0.0366773605 -0.00611604564 -1.79279773e-08 -0.0376386382 -0.00873209164 0.0188193005 -0.0325960293 -0.00873209164 0.0317635052 -0.0183386933 -0.00611604378 0.0183386598 -0.0317635387 -0.00611604564 0.0188193005 -0.0325960293 -0.00873209164 0.0325959995 -0.0188193396 -0.00873208977 0.0366773531 1.30925359e-09 -0.00611604378 0.0317635052 -0.0183386933 -0.00611604378 0.0325959995 -0.0188193396 -0.00873208977 0.0376386344 1.2748026e-09 -0.00873208977 0.0238335915 0.0137603357 -0.00349999778 0.0275206622 1.55887214e-09 -0.00349999778 0.0366773531 1.30925359e-09 -0.00611604378 0.0317635201 0.0183386821 -0.00611604378 0.0137603302 0.0238335971 -0.00349999592 0.0238335915 0.0137603357 -0.00349999778 0.0317635201 0.0183386821 -0.00611604378 0.0183386747 0.0317635201 -0.00611604191 4.54028815e-10 0.0275206659 -0.00349999592 0.0137603302 0.0238335971 -0.00349999592 0.0183386747 0.0317635201 -0.00611604191 2.22840457e-09 0.0366773531 -0.00611604191 -0.0137603292 0.0238336008 -0.00349999592 4.54028815e-10 0.0275206659 -0.00349999592 2.22840457e-09 0.0366773531 -0.00611604191 -0.0183386728 0.0317635238 -0.00611604191 -0.0238335915 0.0137603432 -0.00349999778 -0.0137603292 0.0238336008 -0.00349999592 -0.0183386728 0.0317635238 -0.00611604191 -0.0317635201 0.0183386933 -0.00611604378 -0.0275206659 1.22758159e-08 -0.00349999778 -0.0238335915 0.0137603432 -0.00349999778 -0.0317635201 0.0183386933 -0.00611604378 -0.0366773568 1.55919455e-08 -0.00611604378 -0.0238336027 -0.013760318 -0.00349999778 -0.0275206659 1.22758159e-08 -0.00349999778 -0.0366773568 1.55919455e-08 -0.00611604378 -0.031763535 -0.0183386579 -0.00611604378 -0.0137603413 -0.0238335896 -0.00349999964 -0.0238336027 -0.013760318 -0.00349999778 -0.031763535 -0.0183386579 -0.00611604378 -0.0183386896 -0.0317635201 -0.00611604564 -1.44184185e-08 -0.0275206622 -0.00349999964 -0.0137603413 -0.0238335896 -0.00349999964 -0.0183386896 -0.0317635201 -0.00611604564 -1.75924129e-08 -0.0366773605 -0.00611604564 0.013760318 -0.0238336045 -0.00349999964 -1.44184185e-08 -0.0275206622 -0.00349999964 -1.75924129e-08 -0.0366773605 -0.00611604564 0.0183386598 -0.0317635387 -0.00611604564 0.0238335822 -0.0137603451 -0.00349999778 0.013760318 -0.0238336045 -0.00349999964 0.0183386598 -0.0317635387 -0.00611604564 0.0317635052 -0.0183386933 -0.00611604378 0.0366773531 1.30925359e-09 -0.00611604378 0.0275206622 1.55887214e-09 -0.00349999778 0.0238335822 -0.0137603451 -0.00349999778 0.0317635052 -0.0183386933 -0.00611604378 0.0238335915 0.0137603357 -0.00349999778 0.0150797777 0.00870631821 -0.00349999778 0.017412629 9.33641831e-10 -0.00349999778 0.0275206622 1.55887214e-09 -0.00349999778 0.0137603302 0.0238335971 -0.00349999592 0.00870631263 0.0150797833 -0.00349999778 0.0150797777 0.00870631821 -0.00349999778 0.0238335915 0.0137603357 -0.00349999778 4.54028815e-10 0.0275206659 -0.00349999592 -1.93614902e-09 0.0174126308 -0.00349999778 0.00870631263 0.0150797833 -0.00349999778 0.0137603302 0.0238335971 -0.00349999592 -0.0137603292 0.0238336008 -0.00349999592 -0.00870631635 0.0150797851 -0.00349999778 -1.93614902e-09 0.0174126308 -0.00349999778 4.54028815e-10 0.0275206659 -0.00349999592 -0.0238335915 0.0137603432 -0.00349999778 -0.0150797814 0.00870632287 -0.00349999778 -0.00870631635 0.0150797851 -0.00349999778 -0.0137603292 0.0238336008 -0.00349999592 -0.0275206659 1.22758159e-08 -0.00349999778 -0.0174126346 7.71437225e-09 -0.00349999778 -0.0150797814 0.00870632287 -0.00349999778 -0.0238335915 0.0137603432 -0.00349999778 -0.0238336027 -0.013760318 -0.00349999778 -0.0150797889 -0.00870630704 -0.00349999778 -0.0174126346 7.71437225e-09 -0.00349999778 -0.0275206659 1.22758159e-08 -0.00349999778 -0.0137603413 -0.0238335896 -0.00349999964 -0.0087063238 -0.0150797786 -0.00349999964 -0.0150797889 -0.00870630704 -0.00349999778 -0.0238336027 -0.013760318 -0.00349999778 -1.44184185e-08 -0.0275206622 -0.00349999964 -1.13461134e-08 -0.0174126308 -0.00349999964 -0.0087063238 -0.0150797786 -0.00349999964 -0.0137603413 -0.0238335896 -0.00349999964 0.013760318 -0.0238336045 -0.00349999964 0.00870630518 -0.0150797879 -0.00349999964 -1.13461134e-08 -0.0174126308 -0.00349999964 -1.44184185e-08 -0.0275206622 -0.00349999964 0.0238335822 -0.0137603451 -0.00349999778 0.0150797721 -0.0087063238 -0.00349999778 0.00870630518 -0.0150797879 -0.00349999964 0.013760318 -0.0238336045 -0.00349999964 0.0238335822 -0.0137603451 -0.00349999778 0.0275206622 1.55887214e-09 -0.00349999778 0.017412629 9.33641831e-10 -0.00349999778 0.0150797721 -0.0087063238 -0.00349999778 0.017412629 9.33641831e-10 -0.00349999778 0.0150797777 0.00870631821 -0.00349999778 0.0150797777 0.00870631821 -0.00950000063 0.017412629 9.33641831e-10 -0.00950000063 0.0150797777 0.00870631821 -0.00349999778 0.00870631263 0.0150797833 -0.00349999778 0.00870631263 0.0150797833 -0.00950000063 0.0150797777 0.00870631821 -0.00950000063 0.00870631263 0.0150797833 -0.00349999778 -1.93614902e-09 0.0174126308 -0.00349999778 -1.93614902e-09 0.0174126308 -0.00950000063 0.00870631263 0.0150797833 -0.00950000063 -1.93614902e-09 0.0174126308 -0.00349999778 -0.00870631635 0.0150797851 -0.00349999778 -0.00870631635 0.0150797851 -0.00950000063 -1.93614902e-09 0.0174126308 -0.00950000063 -0.00870631635 0.0150797851 -0.00349999778 -0.0150797814 0.00870632287 -0.00349999778 -0.0150797814 0.00870632287 -0.00950000063 -0.00870631635 0.0150797851 -0.00950000063 -0.0150797814 0.00870632287 -0.00349999778 -0.0174126346 7.71437225e-09 -0.00349999778 -0.0174126346 7.71437225e-09 -0.00950000063 -0.0150797814 0.00870632287 -0.00950000063 -0.0174126346 7.71437225e-09 -0.00349999778 -0.0150797889 -0.00870630704 -0.00349999778 -0.0150797889 -0.00870630704 -0.00950000063 -0.0174126346 7.71437225e-09 -0.00950000063 -0.0150797889 -0.00870630704 -0.00349999778 -0.0087063238 -0.0150797786 -0.00349999964 -0.0087063238 -0.0150797786 -0.00950000249 -0.0150797889 -0.00870630704 -0.00950000063 -0.0087063238 -0.0150797786 -0.00349999964 -1.13461134e-08 -0.0174126308 -0.00349999964 -1.13461134e-08 -0.0174126308 -0.00950000249 -0.0087063238 -0.0150797786 -0.00950000249 -1.13461134e-08 -0.0174126308 -0.00349999964 0.00870630518 -0.0150797879 -0.00349999964 0.00870630518 -0.0150797879 -0.00950000249 -1.13461134e-08 -0.0174126308 -0.00950000249 0.00870630518 -0.0150797879 -0.00349999964 0.0150797721 -0.0087063238 -0.00349999778 0.0150797721 -0.0087063238 -0.00950000063 0.00870630518 -0.0150797879 -0.00950000249 0.0150797721 -0.0087063238 -0.00349999778 0.017412629 9.33641831e-10 -0.00349999778 0.017412629 9.33641831e-10 -0.00950000063 0.0150797721 -0.0087063238 -0.00950000063 -0.0174126346 7.71437225e-09 -0.00950000063 -0.0150797889 -0.00870630704 -0.00950000063 0.0150797721 -0.0087063238 -0.00950000063 0.017412629 9.33641831e-10 -0.00950000063 2.41232501e-09 0.0376386382 -0.0212679077 -0.0188193135 0.0325960219 -0.0212679077 -0.0188193135 0.0325960219 -0.00873208977 2.41232501e-09 0.0376386382 -0.00873208977 -0.0188193135 0.0325960219 -0.0212679077 -0.0325960144 0.0188193303 -0.0212679077 -0.0325960144 0.0188193303 -0.00873208977 -0.0188193135 0.0325960219 -0.00873208977 -0.0325960144 0.0188193303 -0.0212679077 -0.0376386419 1.59318301e-08 -0.0212679077 -0.0376386419 1.59318301e-08 -0.00873208977 -0.0325960144 0.0188193303 -0.00873208977 -0.0376386419 1.59318301e-08 -0.0212679077 -0.0325960293 -0.0188193023 -0.0212679077 -0.0325960293 -0.0188193023 -0.00873208977 -0.0376386419 1.59318301e-08 -0.00873208977 -1.79279773e-08 -0.0376386382 -0.0212679058 0.0188193005 -0.0325960293 -0.0212679058 0.0188193005 -0.0325960293 -0.00873209164 -1.79279773e-08 -0.0376386382 -0.00873209164 0.0188193005 -0.0325960293 -0.0212679058 0.0325959995 -0.0188193396 -0.0212679077 0.0325959995 -0.0188193396 -0.00873208977 0.0188193005 -0.0325960293 -0.00873209164 0.0325959995 -0.0188193396 -0.0212679077 0.0376386344 1.2748026e-09 -0.0212679077 0.0376386344 1.2748026e-09 -0.00873208977 0.0325959995 -0.0188193396 -0.00873208977 0.0376386344 1.2748026e-09 -0.0212679077 0.0366773531 1.30925359e-09 -0.0238839537 0.0317635201 0.0183386821 -0.0238839537 0.0325960144 0.0188193209 -0.0212679077 0.0325960144 0.0188193209 -0.0212679077 0.0317635201 0.0183386821 -0.0238839537 0.0183386747 0.0317635201 -0.0238839556 0.0188193172 0.0325960182 -0.0212679077 0.0188193172 0.0325960182 -0.0212679077 0.0183386747 0.0317635201 -0.0238839556 2.22840457e-09 0.0366773531 -0.0238839556 2.41232501e-09 0.0376386382 -0.0212679077 2.41232501e-09 0.0376386382 -0.0212679077 2.22840457e-09 0.0366773531 -0.0238839556 -0.0183386728 0.0317635238 -0.0238839556 -0.0188193135 0.0325960219 -0.0212679077 -0.0188193135 0.0325960219 -0.0212679077 -0.0183386728 0.0317635238 -0.0238839556 -0.0317635201 0.0183386933 -0.0238839537 -0.0325960144 0.0188193303 -0.0212679077 -0.0325960144 0.0188193303 -0.0212679077 -0.0317635201 0.0183386933 -0.0238839537 -0.0366773568 1.55919455e-08 -0.0238839537 -0.0376386419 1.59318301e-08 -0.0212679077 -0.0376386419 1.59318301e-08 -0.0212679077 -0.0366773568 1.55919455e-08 -0.0238839537 -0.031763535 -0.0183386579 -0.0238839537 -0.0325960293 -0.0188193023 -0.0212679077 -0.0325960293 -0.0188193023 -0.0212679077 -0.031763535 -0.0183386579 -0.0238839537 -0.0183386896 -0.0317635201 -0.0238839518 -0.0188193303 -0.0325960107 -0.0212679058 -0.0188193303 -0.0325960107 -0.0212679058 -0.0183386896 -0.0317635201 -0.0238839518 -1.75924129e-08 -0.0366773605 -0.0238839518 -1.79279773e-08 -0.0376386382 -0.0212679058 -1.79279773e-08 -0.0376386382 -0.0212679058 -1.75924129e-08 -0.0366773605 -0.0238839518 0.0183386598 -0.0317635387 -0.0238839518 0.0188193005 -0.0325960293 -0.0212679058 0.0188193005 -0.0325960293 -0.0212679058 0.0183386598 -0.0317635387 -0.0238839518 0.0317635052 -0.0183386933 -0.0238839537 0.0325959995 -0.0188193396 -0.0212679077 0.0325959995 -0.0188193396 -0.0212679077 0.0317635052 -0.0183386933 -0.0238839537 0.0366773531 1.30925359e-09 -0.0238839537 0.0376386344 1.2748026e-09 -0.0212679077 0.0366773531 1.30925359e-09 -0.0238839537 0.0275206622 1.55887214e-09 -0.0264999997 0.0238335915 0.0137603357 -0.0264999997 0.0317635201 0.0183386821 -0.0238839537 0.0317635201 0.0183386821 -0.0238839537 0.0238335915 0.0137603357 -0.0264999997 0.0137603302 0.0238335971 -0.0265000015 0.0183386747 0.0317635201 -0.0238839556 0.0183386747 0.0317635201 -0.0238839556 0.0137603302 0.0238335971 -0.0265000015 4.54028815e-10 0.0275206659 -0.0265000015 2.22840457e-09 0.0366773531 -0.0238839556 2.22840457e-09 0.0366773531 -0.0238839556 4.54028815e-10 0.0275206659 -0.0265000015 -0.0137603292 0.0238336008 -0.0265000015 -0.0183386728 0.0317635238 -0.0238839556 -0.0183386728 0.0317635238 -0.0238839556 -0.0137603292 0.0238336008 -0.0265000015 -0.0238335915 0.0137603432 -0.0264999997 -0.0317635201 0.0183386933 -0.0238839537 -0.0317635201 0.0183386933 -0.0238839537 -0.0238335915 0.0137603432 -0.0264999997 -0.0275206659 1.22758159e-08 -0.0264999997 -0.0366773568 1.55919455e-08 -0.0238839537 -0.0366773568 1.55919455e-08 -0.0238839537 -0.0275206659 1.22758159e-08 -0.0264999997 -0.0238336027 -0.013760318 -0.0264999997 -0.031763535 -0.0183386579 -0.0238839537 -0.031763535 -0.0183386579 -0.0238839537 -0.0238336027 -0.013760318 -0.0264999997 -0.0137603413 -0.0238335896 -0.0264999978 -0.0183386896 -0.0317635201 -0.0238839518 -0.0183386896 -0.0317635201 -0.0238839518 -0.0137603413 -0.0238335896 -0.0264999978 -1.44184185e-08 -0.0275206622 -0.0264999978 -1.75924129e-08 -0.0366773605 -0.0238839518 -1.75924129e-08 -0.0366773605 -0.0238839518 -1.44184185e-08 -0.0275206622 -0.0264999978 0.013760318 -0.0238336045 -0.0264999978 0.0183386598 -0.0317635387 -0.0238839518 0.0183386598 -0.0317635387 -0.0238839518 0.013760318 -0.0238336045 -0.0264999978 0.0238335822 -0.0137603451 -0.0264999997 0.0317635052 -0.0183386933 -0.0238839537 0.0238335822 -0.0137603451 -0.0264999997 0.0275206622 1.55887214e-09 -0.0264999997 0.0366773531 1.30925359e-09 -0.0238839537 0.0317635052 -0.0183386933 -0.0238839537 0.017412629 9.33641831e-10 -0.0264999997 0.0150797777 0.00870631821 -0.0264999997 0.0238335915 0.0137603357 -0.0264999997 0.0275206622 1.55887214e-09 -0.0264999997 0.0150797777 0.00870631821 -0.0264999997 0.00870631263 0.0150797833 -0.0264999997 0.0137603302 0.0238335971 -0.0265000015 0.0238335915 0.0137603357 -0.0264999997 0.00870631263 0.0150797833 -0.0264999997 -1.93614902e-09 0.0174126308 -0.0264999997 4.54028815e-10 0.0275206659 -0.0265000015 0.0137603302 0.0238335971 -0.0265000015 -1.93614902e-09 0.0174126308 -0.0264999997 -0.00870631635 0.0150797851 -0.0264999997 -0.0137603292 0.0238336008 -0.0265000015 4.54028815e-10 0.0275206659 -0.0265000015 -0.00870631635 0.0150797851 -0.0264999997 -0.0150797814 0.00870632287 -0.0264999997 -0.0238335915 0.0137603432 -0.0264999997 -0.0137603292 0.0238336008 -0.0265000015 -0.0150797814 0.00870632287 -0.0264999997 -0.0174126346 7.71437225e-09 -0.0264999997 -0.0275206659 1.22758159e-08 -0.0264999997 -0.0238335915 0.0137603432 -0.0264999997 -0.0174126346 7.71437225e-09 -0.0264999997 -0.0150797889 -0.00870630704 -0.0264999997 -0.0238336027 -0.013760318 -0.0264999997 -0.0275206659 1.22758159e-08 -0.0264999997 -0.0150797889 -0.00870630704 -0.0264999997 -0.0087063238 -0.0150797786 -0.0264999978 -0.0137603413 -0.0238335896 -0.0264999978 -0.0238336027 -0.013760318 -0.0264999997 -0.0087063238 -0.0150797786 -0.0264999978 -1.13461134e-08 -0.0174126308 -0.0264999978 -1.44184185e-08 -0.0275206622 -0.0264999978 -0.0137603413 -0.0238335896 -0.0264999978 -1.13461134e-08 -0.0174126308 -0.0264999978 0.00870630518 -0.0150797879 -0.0264999978 0.013760318 -0.0238336045 -0.0264999978 -1.44184185e-08 -0.0275206622 -0.0264999978 0.00870630518 -0.0150797879 -0.0264999978 0.0150797721 -0.0087063238 -0.0264999997 0.0238335822 -0.0137603451 -0.0264999997 0.013760318 -0.0238336045 -0.0264999978 0.0238335822 -0.0137603451 -0.0264999997 0.0150797721 -0.0087063238 -0.0264999997 0.017412629 9.33641831e-10 -0.0264999997 0.0275206622 1.55887214e-09 -0.0264999997 0.017412629 9.33641831e-10 -0.0264999997 0.017412629 9.33641831e-10 -0.0204999968 0.0150797777 0.00870631821 -0.0204999968 0.0150797777 0.00870631821 -0.0264999997 0.0150797777 0.00870631821 -0.0264999997 0.0150797777 0.00870631821 -0.0204999968 0.00870631263 0.0150797833 -0.0204999968 0.00870631263 0.0150797833 -0.0264999997 0.00870631263 0.0150797833 -0.0264999997 0.00870631263 0.0150797833 -0.0204999968 -1.93614902e-09 0.0174126308 -0.0204999968 -1.93614902e-09 0.0174126308 -0.0264999997 -1.93614902e-09 0.0174126308 -0.0264999997 -1.93614902e-09 0.0174126308 -0.0204999968 -0.00870631635 0.0150797851 -0.0204999968 -0.00870631635 0.0150797851 -0.0264999997 -0.00870631635 0.0150797851 -0.0264999997 -0.00870631635 0.0150797851 -0.0204999968 -0.0150797814 0.00870632287 -0.0204999968 -0.0150797814 0.00870632287 -0.0264999997 -0.0150797814 0.00870632287 -0.0264999997 -0.0150797814 0.00870632287 -0.0204999968 -0.0174126346 7.71437225e-09 -0.0204999968 -0.0174126346 7.71437225e-09 -0.0264999997 -0.0174126346 7.71437225e-09 -0.0264999997 -0.0174126346 7.71437225e-09 -0.0204999968 -0.0150797889 -0.00870630704 -0.0204999968 -0.0150797889 -0.00870630704 -0.0264999997 -0.0150797889 -0.00870630704 -0.0264999997 -0.0150797889 -0.00870630704 -0.0204999968 -0.0087063238 -0.0150797786 -0.020499995 -0.0087063238 -0.0150797786 -0.0264999978 -0.0087063238 -0.0150797786 -0.0264999978 -0.0087063238 -0.0150797786 -0.020499995 -1.13461134e-08 -0.0174126308 -0.020499995 -1.13461134e-08 -0.0174126308 -0.0264999978 -1.13461134e-08 -0.0174126308 -0.0264999978 -1.13461134e-08 -0.0174126308 -0.020499995 0.00870630518 -0.0150797879 -0.020499995 0.00870630518 -0.0150797879 -0.0264999978 0.00870630518 -0.0150797879 -0.0264999978 0.00870630518 -0.0150797879 -0.020499995 0.0150797721 -0.0087063238 -0.0204999968 0.0150797721 -0.0087063238 -0.0264999997 0.0150797721 -0.0087063238 -0.0264999997 0.0150797721 -0.0087063238 -0.0204999968 0.017412629 9.33641831e-10 -0.0204999968 0.017412629 9.33641831e-10 -0.0264999997 -0.0174126346 7.71437225e-09 -0.0204999968 -0.0150797814 0.00870632287 -0.0204999968 0.0150797777 0.00870631821 -0.0204999968 0.017412629 9.33641831e-10 -0.0204999968 0.0376386344 1.2748026e-09 -0.00873208977 0.0376386344 1.2748026e-09 -0.0212679077 0.0325960144 0.0188193209 -0.0212679077 0.0325960144 0.0188193209 -0.00873208977 0.0325960144 0.0188193209 -0.0212679077 0.0188193172 0.0325960182 -0.0212679077 0.0188193172 0.0325960182 -0.00873208977 0.0325960144 0.0188193209 -0.00873208977 0.0188193172 0.0325960182 -0.00873208977 0.0188193172 0.0325960182 -0.0212679077 2.41232501e-09 0.0376386382 -0.0212679077 2.41232501e-09 0.0376386382 -0.00873208977 -0.0325960293 -0.0188193023 -0.00873208977 -0.0325960293 -0.0188193023 -0.0212679077 -0.0188193303 -0.0325960107 -0.0212679058 -0.0188193303 -0.0325960107 -0.00873209164 -0.0188193303 -0.0325960107 -0.0212679058 -1.79279773e-08 -0.0376386382 -0.0212679058 -1.79279773e-08 -0.0376386382 -0.00873209164 -0.0188193303 -0.0325960107 -0.00873209164 0.0150797777 0.00870631821 -0.00950000063 -0.0150797814 0.00870632287 -0.00950000063 -0.0174126346 7.71437225e-09 -0.00950000063 0.017412629 9.33641831e-10 -0.00950000063 0.0150797721 -0.0087063238 -0.0204999968 -0.0150797889 -0.00870630704 -0.0204999968 -0.0174126346 7.71437225e-09 -0.0204999968 0.017412629 9.33641831e-10 -0.0204999968 -0.00870631635 0.0150797851 -0.0204999968 0.00870631263 0.0150797833 -0.0204999968 0.0150797777 0.00870631821 -0.0204999968 -0.0150797814 0.00870632287 -0.0204999968 0.00870631263 0.0150797833 -0.00950000063 -0.00870631635 0.0150797851 -0.00950000063 -0.0150797814 0.00870632287 -0.00950000063 0.0150797777 0.00870631821 -0.00950000063 -0.00870631635 0.0150797851 -0.0204999968 -1.93614902e-09 0.0174126308 -0.0204999968 0.00870631263 0.0150797833 -0.0204999968 0.00870631263 0.0150797833 -0.00950000063 -1.93614902e-09 0.0174126308 -0.00950000063 -0.00870631635 0.0150797851 -0.00950000063 -0.0087063238 -0.0150797786 -0.00950000249 0.00870630518 -0.0150797879 -0.00950000249 0.0150797721 -0.0087063238 -0.00950000063 -0.0150797889 -0.00870630704 -0.00950000063 0.00870630518 -0.0150797879 -0.020499995 -0.0087063238 -0.0150797786 -0.020499995 -0.0150797889 -0.00870630704 -0.0204999968 0.0150797721 -0.0087063238 -0.0204999968 -0.0087063238 -0.0150797786 -0.00950000249 -1.13461134e-08 -0.0174126308 -0.00950000249 0.00870630518 -0.0150797879 -0.00950000249 0.00870630518 -0.0150797879 -0.020499995 -1.13461134e-08 -0.0174126308 -0.020499995 -0.0087063238 -0.0150797786 -0.020499995</float_array>
          <technique_common>
            <accessor count="1044" offset="0" source="#Cylinder003-positions-array" stride="3">
              <param name="X" type="float" />
              <param name="Y" type="float" />
              <param name="Z" type="float" />
            </accessor>
          </technique_common>
        </source>
        <source id="Cylinder003-normals" name="Cylinder003-normals">
          <float_array id="Cylinder003-normals-array" count="3132">2.94630507e-08 1 1.86977687e-08 -0.499999911 0.866025448 2.06125979e-08 -0.499999911 0.866025448 2.06125979e-08 2.94630507e-08 1 1.86977687e-08 -0.499999911 0.866025448 2.06125979e-08 -0.866025209 0.500000358 4.73076112e-09 -0.866025209 0.500000358 4.73076023e-09 -0.499999911 0.866025448 2.06125979e-08 -0.866025209 0.500000358 4.73076112e-09 -1 4.12482734e-07 -1.70082117e-08 -1 3.92840661e-07 -1.70082117e-08 -0.866025209 0.500000358 4.73076023e-09 -1 4.12482734e-07 -1.70082117e-08 -0.866025507 -0.499999791 -2.03873203e-08 -0.866025627 -0.499999821 -2.03873238e-08 -1 3.92840661e-07 -1.70082117e-08 -5.69618976e-07 -1 -1.7571395e-08 0.499999672 -0.866025627 -1.66703007e-08 0.499999672 -0.866025627 -1.66703007e-08 -5.69618976e-07 -1 -1.7571395e-08 0.499999672 -0.866025627 -1.66703007e-08 0.866025269 -0.500000238 -2.25275132e-09 0.866025269 -0.500000238 -2.25275176e-09 0.499999672 -0.866025627 -1.66703007e-08 0.866025269 -0.500000238 -2.25275132e-09 1 -1.767783e-07 1.73461157e-08 1 -1.96420331e-07 1.73461139e-08 0.866025269 -0.500000238 -2.25275176e-09 1 -1.96420331e-07 1.73461139e-08 1 -1.767783e-07 1.73461157e-08 0.866025567 0.49999994 2.23021566e-08 0.866025567 0.49999994 2.23021583e-08 0.866025567 0.49999994 2.23021566e-08 0.500000119 0.866025388 1.70082135e-08 0.500000179 0.866025388 1.70082135e-08 0.866025567 0.49999994 2.23021583e-08 0.500000179 0.866025388 1.70082135e-08 0.500000119 0.866025388 1.70082135e-08 2.94630507e-08 1 1.86977687e-08 2.94630507e-08 1 1.86977687e-08 -0.866025627 -0.499999821 -2.03873238e-08 -0.866025507 -0.499999791 -2.03873203e-08 -0.500000417 -0.86602515 -1.57691957e-08 -0.500000417 -0.866025209 -1.57691975e-08 -0.500000417 -0.86602515 -1.57691957e-08 -5.69618976e-07 -1 -1.7571395e-08 -5.69618976e-07 -1 -1.7571395e-08 -0.500000417 -0.866025209 -1.57691975e-08 0 0 1 0 0 1 0 0 1 0 0 1 -1.31038753e-08 -8.1422211e-15 -1 -9.17272391e-09 -3.42330502e-08 -1 -9.17272303e-09 -3.42330502e-08 -1 -1.31038744e-08 -1.89985136e-14 -1 0 0 1 0 0 1 0 0 1 0 0 1 -9.1727248e-09 -5.8497398e-09 -1 -9.17272747e-09 -5.84971005e-09 -1 -1.31038753e-08 -8.1422211e-15 -1 -1.31038744e-08 -1.89985136e-14 -1 0 0 1 0 0 1 0 0 1 0 0 1 0 0 -1 0 0 -1 -9.17272303e-09 -3.42330502e-08 -1 -9.17272391e-09 -3.42330502e-08 -1 0 0 1 0 0 1 0 0 1 0 0 -1 0 0 -1 0 0 -1 0 0 1 0 0 1 0 0 1 0 0 1 -7.10315595e-14 -1.20248231e-07 -1 -7.10315663e-14 -1.20248245e-07 -1 -9.17272747e-09 -5.84971005e-09 -1 -9.1727248e-09 -5.8497398e-09 -1 0 0 1 0 0 1 0 0 1 -7.10315595e-14 -1.20248231e-07 -1 0 0 -1 -7.10315663e-14 -1.20248245e-07 -1 0.812883139 0.46931842 0.34490788 0.938636601 -2.3137838e-07 0.34490788 0.985378385 -2.30564666e-07 0.170380235 0.853362858 0.492689162 0.170380235 0.469318241 0.81288296 0.344908327 0.812883139 0.46931842 0.34490788 0.853362858 0.492689162 0.170380235 0.492689222 0.853362679 0.170380443 8.32962002e-08 0.938636303 0.344908535 0.469318241 0.81288296 0.344908327 0.492689222 0.853362679 0.170380443 7.68548816e-08 0.985378325 0.170380563 -0.469318092 0.812883079 0.344908059 8.32962002e-08 0.938636303 0.344908535 7.68548816e-08 0.985378325 0.170380563 -0.492688954 0.853362978 0.170380324 -0.812882841 0.469318718 0.344907939 -0.469318092 0.812883079 0.344908059 -0.492688954 0.853362978 0.170380324 -0.853362739 0.492689401 0.170380265 -0.938636422 3.70205328e-07 0.344908386 -0.812882841 0.469318718 0.344907939 -0.853362739 0.492689401 0.170380265 -0.985378444 3.84274472e-07 0.170380458 -0.812883377 -0.469317764 0.344908088 -0.938636422 3.70205328e-07 0.344908386 -0.985378444 3.84274472e-07 0.170380458 -0.853362799 -0.492688924 0.170380324 -0.469318688 -0.812883258 0.344906926 -0.812883377 -0.469317764 0.344908088 -0.853362799 -0.492688924 0.170380324 -0.49268961 -0.853362679 0.170379743 -4.90522268e-07 -0.938637197 0.344906151 -0.469318688 -0.812883258 0.344906926 -0.49268961 -0.853362679 0.170379743 -5.07242078e-07 -0.985378563 0.1703794 0.469317943 -0.812883735 0.344906986 -4.90522268e-07 -0.938637197 0.344906151 -5.07242078e-07 -0.985378563 0.1703794 0.492688805 -0.853363037 0.170379773 0.812883019 -0.46931836 0.34490791 0.469317943 -0.812883735 0.344906986 0.492688805 -0.853363037 0.170379773 0.853362501 -0.492689639 0.17038025 0.938636601 -2.3137838e-07 0.34490788 0.812883019 -0.46931836 0.34490791 0.853362501 -0.492689639 0.17038025 0.985378385 -2.30564666e-07 0.170380235 0.139607787 0.0806025714 0.986920953 0.161205232 -4.81153144e-08 0.986920953 0.274706602 -6.22895868e-08 0.961528063 0.23790285 0.137353227 0.961528122 0.0806025714 0.139607698 0.986920953 0.139607787 0.0806025714 0.986920953 0.23790285 0.137353227 0.961528122 0.137353241 0.237902686 0.961528122 1.68403584e-08 0.161205038 0.986920953 0.0806025714 0.139607698 0.986920953 0.137353241 0.237902686 0.961528122 3.6807478e-08 0.274706304 0.961528242 -0.0806025267 0.139607698 0.986920953 1.68403584e-08 0.161205038 0.986920953 3.6807478e-08 0.274706304 0.961528242 -0.137353167 0.237902671 0.961528182 -0.139607757 0.0806025863 0.986920953 -0.0806025267 0.139607698 0.986920953 -0.137353167 0.237902671 0.961528182 -0.237902761 0.137353241 0.961528122 -0.161205187 6.01441386e-08 0.986920953 -0.139607757 0.0806025863 0.986920953 -0.237902761 0.137353241 0.961528122 -0.274706572 9.90970506e-08 0.961528182 -0.139607832 -0.0806025192 0.986920953 -0.161205187 6.01441386e-08 0.986920953 -0.274706572 9.90970506e-08 0.961528182 -0.237902924 -0.137353137 0.961528122 -0.0806026608 -0.139607728 0.986920953 -0.139607832 -0.0806025192 0.986920953 -0.237902924 -0.137353137 0.961528122 -0.137353346 -0.237902746 0.961528122 -8.90133194e-08 -0.161205128 0.986920953 -0.0806026608 -0.139607728 0.986920953 -0.137353346 -0.237902746 0.961528122 -1.35904529e-07 -0.274706453 0.961528122 0.0806025565 -0.139607832 0.986920953 -8.90133194e-08 -0.161205128 0.986920953 -1.35904529e-07 -0.274706453 0.961528122 0.137353167 -0.237902895 0.961528182 0.139607817 -0.0806026533 0.986920953 0.0806025565 -0.139607832 0.986920953 0.137353167 -0.237902895 0.961528182 0.237902924 -0.137353405 0.961528182 0.274706602 -6.22895868e-08 0.961528063 0.161205232 -4.81153144e-08 0.986920953 0.139607817 -0.0806026533 0.986920953 0.237902924 -0.137353405 0.961528182 0.139607787 0.0806025714 0.986920953 0 0 1 0 0 1 0.161205232 -4.81153144e-08 0.986920953 0.0806025714 0.139607698 0.986920953 0 0 1 0 0 1 0.139607787 0.0806025714 0.986920953 1.68403584e-08 0.161205038 0.986920953 0 0 1 0 0 1 0.0806025714 0.139607698 0.986920953 -0.0806025267 0.139607698 0.986920953 0 0 1 0 0 1 1.68403584e-08 0.161205038 0.986920953 -0.139607757 0.0806025863 0.986920953 0 0 1 0 0 1 -0.0806025267 0.139607698 0.986920953 -0.161205187 6.01441386e-08 0.986920953 0 0 1 0 0 1 -0.139607757 0.0806025863 0.986920953 -0.139607832 -0.0806025192 0.986920953 0 0 1 0 0 1 -0.161205187 6.01441386e-08 0.986920953 -0.0806026608 -0.139607728 0.986920953 0 0 1 0 0 1 -0.139607832 -0.0806025192 0.986920953 -8.90133194e-08 -0.161205128 0.986920953 0 0 1 0 0 1 -0.0806026608 -0.139607728 0.986920953 0.0806025565 -0.139607832 0.986920953 0 0 1 0 0 1 -8.90133194e-08 -0.161205128 0.986920953 0.139607817 -0.0806026533 0.986920953 0 0 1 0 0 1 0.0806025565 -0.139607832 0.986920953 0.139607817 -0.0806026533 0.986920953 0.161205232 -4.81153144e-08 0.986920953 0 0 1 0 0 1 -1 2.16062375e-07 0 -0.866025388 -0.49999997 0 -0.866025388 -0.49999997 0 -1 2.16062375e-07 0 -0.866025388 -0.49999997 0 -0.499999881 -0.866025567 0 -0.499999881 -0.866025567 0 -0.866025388 -0.49999997 0 -0.499999881 -0.866025567 0 -7.8568128e-08 -1 0 -7.8568128e-08 -1 0 -0.499999881 -0.866025567 0 -7.8568128e-08 -1 0 0.499999672 -0.866025627 0 0.499999672 -0.866025627 0 -7.8568128e-08 -1 0 0.499999672 -0.866025627 0 0.866025269 -0.500000238 0 0.866025269 -0.500000238 0 0.499999672 -0.866025627 0 0.866025269 -0.500000238 0 1 -3.92840661e-07 0 1 -3.92840661e-07 0 0.866025269 -0.500000238 0 1 -3.92840661e-07 0 0.866025627 0.499999613 0 0.866025627 0.499999613 0 1 -3.92840661e-07 0 0.866025627 0.499999613 0 0.500000358 0.866025209 0 0.500000358 0.866025209 0 0.866025627 0.499999613 0 0.500000358 0.866025209 0 5.4997696e-07 1 0 5.4997696e-07 1 0 0.500000358 0.866025209 0 5.4997696e-07 1 0 -0.499999613 0.866025627 0 -0.499999613 0.866025627 0 5.4997696e-07 1 0 -0.499999613 0.866025627 0 -0.866025329 0.500000298 0 -0.866025329 0.500000298 0 -0.499999613 0.866025627 0 -0.866025329 0.500000298 0 -1 2.16062375e-07 0 -1 2.16062375e-07 0 -0.866025329 0.500000298 0 0 0 1 0 0 1 0 0 1 0 0 1 7.68548816e-08 0.985378325 -0.170380577 -0.492688954 0.853362978 -0.170380324 -0.492688954 0.853362978 0.170380324 7.68548816e-08 0.985378325 0.170380563 -0.492688954 0.853362978 -0.170380324 -0.85336262 0.492689431 -0.170380265 -0.853362739 0.492689401 0.170380265 -0.492688954 0.853362978 0.170380324 -0.85336262 0.492689431 -0.170380265 -0.985378444 3.89398139e-07 -0.170380458 -0.985378444 3.84274472e-07 0.170380458 -0.853362739 0.492689401 0.170380265 -0.985378444 3.89398139e-07 -0.170380458 -0.853362799 -0.492688924 -0.170380324 -0.853362799 -0.492688924 0.170380324 -0.985378444 3.84274472e-07 0.170380458 -5.07242078e-07 -0.985378563 -0.1703794 0.492688805 -0.853363037 -0.170379773 0.492688805 -0.853363037 0.170379773 -5.07242078e-07 -0.985378563 0.1703794 0.492688805 -0.853363037 -0.170379773 0.85336256 -0.492689699 -0.17038025 0.853362501 -0.492689639 0.17038025 0.492688805 -0.853363037 0.170379773 0.85336256 -0.492689699 -0.17038025 0.985378385 -2.20317332e-07 -0.17038022 0.985378385 -2.30564666e-07 0.170380235 0.853362501 -0.492689639 0.17038025 0.985378385 -2.20317332e-07 -0.17038022 0.938636601 -2.22123248e-07 -0.34490791 0.812883139 0.46931839 -0.34490788 0.853362858 0.492689162 -0.17038025 0.853362858 0.492689162 -0.17038025 0.812883139 0.46931839 -0.34490788 0.469318241 0.81288296 -0.344908327 0.492689222 0.853362679 -0.170380458 0.492689222 0.853362679 -0.170380458 0.469318241 0.81288296 -0.344908327 8.32962002e-08 0.938636303 -0.344908595 7.68548816e-08 0.985378325 -0.170380577 7.68548816e-08 0.985378325 -0.170380577 8.32962002e-08 0.938636303 -0.344908595 -0.469318062 0.812883139 -0.344908029 -0.492688954 0.853362978 -0.170380324 -0.492688954 0.853362978 -0.170380324 -0.469318062 0.812883139 -0.344908029 -0.812882841 0.469318807 -0.344907939 -0.85336262 0.492689431 -0.170380265 -0.85336262 0.492689431 -0.170380265 -0.812882841 0.469318807 -0.344907939 -0.938636422 3.8871562e-07 -0.344908357 -0.985378444 3.89398139e-07 -0.170380458 -0.985378444 3.89398139e-07 -0.170380458 -0.938636422 3.8871562e-07 -0.344908357 -0.812883317 -0.469317764 -0.344908059 -0.853362799 -0.492688924 -0.170380324 -0.853362799 -0.492688924 -0.170380324 -0.812883317 -0.469317764 -0.344908059 -0.469318748 -0.812883258 -0.344906926 -0.49268961 -0.853362679 -0.170379743 -0.49268961 -0.853362679 -0.170379743 -0.469318748 -0.812883258 -0.344906926 -4.90522268e-07 -0.938637197 -0.344906151 -5.07242078e-07 -0.985378563 -0.1703794 -5.07242078e-07 -0.985378563 -0.1703794 -4.90522268e-07 -0.938637197 -0.344906151 0.469317943 -0.812883735 -0.344906986 0.492688805 -0.853363037 -0.170379773 0.492688805 -0.853363037 -0.170379773 0.469317943 -0.812883735 -0.344906986 0.812883019 -0.46931839 -0.34490791 0.85336256 -0.492689699 -0.17038025 0.85336256 -0.492689699 -0.17038025 0.812883019 -0.46931839 -0.34490791 0.938636601 -2.22123248e-07 -0.34490791 0.985378385 -2.20317332e-07 -0.17038022 0.274706602 -6.51209291e-08 -0.961528063 0.161205232 -5.05210807e-08 -0.986920953 0.139607787 0.0806025714 -0.986920953 0.23790285 0.137353197 -0.961528122 0.23790285 0.137353197 -0.961528122 0.139607787 0.0806025714 -0.986920953 0.0806025714 0.139607683 -0.986920953 0.137353241 0.237902716 -0.961528242 0.137353241 0.237902716 -0.961528242 0.0806025714 0.139607683 -0.986920953 1.20288277e-08 0.161205053 -0.986920953 2.83134458e-08 0.274706334 -0.961528242 2.83134458e-08 0.274706334 -0.961528242 1.20288277e-08 0.161205053 -0.986920953 -0.0806025192 0.139607698 -0.986920953 -0.137353182 0.237902686 -0.961528182 -0.137353182 0.237902686 -0.961528182 -0.0806025192 0.139607698 -0.986920953 -0.139607757 0.0806025863 -0.986920953 -0.237902761 0.137353241 -0.961528122 -0.237902761 0.137353241 -0.961528122 -0.139607757 0.0806025863 -0.986920953 -0.161205187 6.01441386e-08 -0.986920953 -0.274706572 9.90970506e-08 -0.961528182 -0.274706572 9.90970506e-08 -0.961528182 -0.161205187 6.01441386e-08 -0.986920953 -0.139607832 -0.0806025192 -0.986920953 -0.237902924 -0.137353137 -0.961528122 -0.237902924 -0.137353137 -0.961528122 -0.139607832 -0.0806025192 -0.986920953 -0.0806026608 -0.139607728 -0.986920953 -0.137353346 -0.237902746 -0.961528122 -0.137353346 -0.237902746 -0.961528122 -0.0806026608 -0.139607728 -0.986920953 -8.90133194e-08 -0.161205128 -0.986920953 -1.35904529e-07 -0.274706483 -0.961528122 -1.35904529e-07 -0.274706483 -0.961528122 -8.90133194e-08 -0.161205128 -0.986920953 0.0806025565 -0.139607847 -0.986920953 0.137353167 -0.237902895 -0.961528182 0.137353167 -0.237902895 -0.961528182 0.0806025565 -0.139607847 -0.986920953 0.139607817 -0.0806026533 -0.986920953 0.237902924 -0.137353405 -0.961528182 0.139607817 -0.0806026533 -0.986920953 0.161205232 -5.05210807e-08 -0.986920953 0.274706602 -6.51209291e-08 -0.961528063 0.237902924 -0.137353405 -0.961528182 0 0 -1 0 0 -1 0.139607787 0.0806025714 -0.986920953 0.161205232 -5.05210807e-08 -0.986920953 0 0 -1 0 0 -1 0.0806025714 0.139607683 -0.986920953 0.139607787 0.0806025714 -0.986920953 0 0 -1 0 0 -1 1.20288277e-08 0.161205053 -0.986920953 0.0806025714 0.139607683 -0.986920953 0 0 -1 0 0 -1 -0.0806025192 0.139607698 -0.986920953 1.20288277e-08 0.161205053 -0.986920953 0 0 -1 0 0 -1 -0.139607757 0.0806025863 -0.986920953 -0.0806025192 0.139607698 -0.986920953 0 0 -1 0 0 -1 -0.161205187 6.01441386e-08 -0.986920953 -0.139607757 0.0806025863 -0.986920953 0 0 -1 0 0 -1 -0.139607832 -0.0806025192 -0.986920953 -0.161205187 6.01441386e-08 -0.986920953 0 0 -1 0 0 -1 -0.0806026608 -0.139607728 -0.986920953 -0.139607832 -0.0806025192 -0.986920953 0 0 -1 0 0 -1 -8.90133194e-08 -0.161205128 -0.986920953 -0.0806026608 -0.139607728 -0.986920953 0 0 -1 0 0 -1 0.0806025565 -0.139607847 -0.986920953 -8.90133194e-08 -0.161205128 -0.986920953 0 0 -1 0 0 -1 0.139607817 -0.0806026533 -0.986920953 0.0806025565 -0.139607847 -0.986920953 0.139607817 -0.0806026533 -0.986920953 0 0 -1 0 0 -1 0.161205232 -5.05210807e-08 -0.986920953 -1 2.35704405e-07 0 -1 2.35704405e-07 0 -0.866025388 -0.49999997 0 -0.866025388 -0.49999997 0 -0.866025388 -0.49999997 0 -0.866025388 -0.49999997 0 -0.499999881 -0.866025567 0 -0.499999881 -0.866025567 0 -0.499999881 -0.866025567 0 -0.499999881 -0.866025567 0 -9.82101653e-08 -1 0 -9.82101653e-08 -1 0 -9.82101653e-08 -1 0 -9.82101653e-08 -1 0 0.499999672 -0.866025627 0 0.499999672 -0.866025627 0 0.499999672 -0.866025627 0 0.499999672 -0.866025627 0 0.866025269 -0.500000238 0 0.866025269 -0.500000238 0 0.866025269 -0.500000238 0 0.866025269 -0.500000238 0 1 -3.92840661e-07 0 1 -3.92840661e-07 0 1 -3.92840661e-07 0 1 -3.92840661e-07 0 0.866025627 0.499999613 0 0.866025627 0.499999613 0 0.866025627 0.499999613 0 0.866025627 0.499999613 0 0.500000417 0.866025269 0 0.500000417 0.866025269 0 0.500000417 0.866025269 0 0.500000417 0.866025269 0 5.4997696e-07 1 0 5.4997696e-07 1 0 5.4997696e-07 1 0 5.4997696e-07 1 0 -0.499999613 0.866025627 0 -0.499999613 0.866025627 0 -0.499999613 0.866025627 0 -0.499999613 0.866025627 0 -0.866025329 0.500000358 0 -0.866025329 0.500000358 0 -0.866025329 0.500000358 0 -0.866025329 0.500000358 0 -1 2.35704405e-07 0 -1 2.35704405e-07 0 0 0 -1 0 0 -1 0 0 -1 0 0 -1 0.985378385 -2.30564666e-07 0.170380235 0.985378385 -2.20317332e-07 -0.17038022 0.853362858 0.492689162 -0.17038025 0.853362858 0.492689162 0.170380235 0.853362858 0.492689162 -0.17038025 0.492689222 0.853362679 -0.170380458 0.492689222 0.853362679 0.170380443 0.853362858 0.492689162 0.170380235 0.492689222 0.853362679 0.170380443 0.492689222 0.853362679 -0.170380458 7.68548816e-08 0.985378325 -0.170380577 7.68548816e-08 0.985378325 0.170380563 -0.853362799 -0.492688924 0.170380324 -0.853362799 -0.492688924 -0.170380324 -0.49268961 -0.853362679 -0.170379743 -0.49268961 -0.853362679 0.170379743 -0.49268961 -0.853362679 -0.170379743 -5.07242078e-07 -0.985378563 -0.1703794 -5.07242078e-07 -0.985378563 0.1703794 -0.49268961 -0.853362679 0.170379743 0 0 1 0 0 1 0 0 1 0 0 1 0 0 -1 0 0 -1 0 0 -1 0 0 -1 0 0 -1 0 0 -1 0 0 -1 0 0 -1 0 0 1 0 0 1 0 0 1 0 0 1 0 0 -1 0 0 -1 0 0 -1 0 0 1 0 0 1 0 0 1 0 0 1 0 0 1 0 0 1 0 0 1 0 0 -1 0 0 -1 0 0 -1 0 0 -1 0 0 1 0 0 1 0 0 1 0 0 -1 0 0 -1 0 0 -1 0.812883139 0.46931836 0.344907731 0.938636661 -2.49888643e-07 0.344907641 0.985378504 -2.25441013e-07 0.170380145 0.853362858 0.492689162 0.170380145 0.469318211 0.812883079 0.344908267 0.812883139 0.46931836 0.344907731 0.853362858 0.492689162 0.170380145 0.492689162 0.853362739 0.170380414 8.32962002e-08 0.938636303 0.344908535 0.469318211 0.812883079 0.344908267 0.492689162 0.853362739 0.170380414 7.68548816e-08 0.985378325 0.170380563 -0.469318122 0.812883139 0.344908029 8.32962002e-08 0.938636303 0.344908535 7.68548816e-08 0.985378325 0.170380563 -0.492688894 0.853362918 0.170380309 -0.812882841 0.469318807 0.34490779 -0.469318122 0.812883139 0.344908029 -0.492688894 0.853362918 0.170380309 -0.85336262 0.492689431 0.17038019 -0.938636482 3.60950253e-07 0.344908148 -0.812882841 0.469318807 0.34490779 -0.85336262 0.492689431 0.17038019 -0.985378385 3.74027138e-07 0.170380369 -0.812883437 -0.469317734 0.344907969 -0.938636482 3.60950253e-07 0.344908148 -0.985378385 3.74027138e-07 0.170380369 -0.853362918 -0.492688984 0.170380294 -0.469318718 -0.812883317 0.344907016 -0.812883437 -0.469317734 0.344907969 -0.853362918 -0.492688984 0.170380294 -0.49268961 -0.85336262 0.170379803 -4.72012033e-07 -0.938637137 0.34490639 -0.469318718 -0.812883317 0.344907016 -0.49268961 -0.85336262 0.170379803 -4.86747524e-07 -0.985378563 0.170379505 0.469317973 -0.812883675 0.344907075 -4.72012033e-07 -0.938637137 0.34490639 -4.86747524e-07 -0.985378563 0.170379505 0.492688894 -0.853362978 0.170379862 0.812883139 -0.46931839 0.34490779 0.469317973 -0.812883675 0.344907075 0.492688894 -0.853362978 0.170379862 0.853362501 -0.49268961 0.170380205 0.938636661 -2.49888643e-07 0.344907641 0.812883139 -0.46931839 0.34490779 0.853362501 -0.49268961 0.170380205 0.985378504 -2.25441013e-07 0.170380145 0.139607742 0.0806025192 0.986920953 0.161205143 -5.53326096e-08 0.986920953 0.274706423 -7.07836278e-08 0.961528242 0.237902775 0.137353197 0.961528242 0.0806025788 0.139607683 0.986920953 0.139607742 0.0806025192 0.986920953 0.237902775 0.137353197 0.961528242 0.137353271 0.237902775 0.961528122 1.20288153e-08 0.161205098 0.986920953 0.0806025788 0.139607683 0.986920953 0.137353271 0.237902775 0.961528122 2.54820982e-08 0.274706542 0.961528122 -0.0806025416 0.139607698 0.986920953 1.20288153e-08 0.161205098 0.986920953 2.54820982e-08 0.274706542 0.961528122 -0.137353212 0.237902805 0.961528182 -0.139607713 0.080602549 0.986920953 -0.0806025416 0.139607698 0.986920953 -0.137353212 0.237902805 0.961528182 -0.237902701 0.137353241 0.961528242 -0.161205098 5.77383759e-08 0.986920953 -0.139607713 0.080602549 0.986920953 -0.237902701 0.137353241 0.961528242 -0.274706364 1.01928386e-07 0.961528182 -0.139607698 -0.0806025192 0.986920953 -0.161205098 5.77383759e-08 0.986920953 -0.274706364 1.01928386e-07 0.961528182 -0.237902761 -0.137353092 0.961528242 -0.0806025565 -0.139607653 0.986920953 -0.139607698 -0.0806025192 0.986920953 -0.237902761 -0.137353092 0.961528242 -0.137353227 -0.237902597 0.961528122 -8.66075567e-08 -0.161204994 0.986920953 -0.0806025565 -0.139607653 0.986920953 -0.137353227 -0.237902597 0.961528122 -1.30241844e-07 -0.274706274 0.961528242 0.0806024522 -0.139607742 0.986920953 -8.66075567e-08 -0.161204994 0.986920953 -1.30241844e-07 -0.274706274 0.961528242 0.137353018 -0.237902701 0.961528122 0.139607668 -0.080602631 0.986920953 0.0806024522 -0.139607742 0.986920953 0.137353018 -0.237902701 0.961528122 0.237902686 -0.137353331 0.961528182 0.274706423 -7.07836278e-08 0.961528242 0.161205143 -5.53326096e-08 0.986920953 0.139607668 -0.080602631 0.986920953 0.237902686 -0.137353331 0.961528182 0.139607742 0.0806025192 0.986920953 -5.41112177e-09 -6.20377421e-08 1 0 0 1 0.161205143 -5.53326096e-08 0.986920953 0.0806025788 0.139607683 0.986920953 -3.00991161e-08 -1.54174629e-07 1 -5.41112177e-09 -6.20377421e-08 1 0.139607742 0.0806025192 0.986920953 1.20288153e-08 0.161205098 0.986920953 -1.9386243e-14 -1.84273745e-07 1 -3.00991161e-08 -1.54174629e-07 1 0.0806025788 0.139607683 0.986920953 -0.0806025416 0.139607698 0.986920953 3.00990699e-08 -1.54174629e-07 1 -1.9386243e-14 -1.84273745e-07 1 1.20288153e-08 0.161205098 0.986920953 -0.139607713 0.080602549 0.986920953 5.41110046e-09 -6.20377421e-08 1 3.00990699e-08 -1.54174629e-07 1 -0.0806025416 0.139607698 0.986920953 -0.161205098 5.77383759e-08 0.986920953 0 0 1 5.41110046e-09 -6.20377421e-08 1 -0.139607713 0.080602549 0.986920953 -0.139607698 -0.0806025192 0.986920953 5.66265754e-08 -5.66266145e-08 1 0 0 1 -0.161205098 5.77383759e-08 0.986920953 -0.0806025565 -0.139607653 0.986920953 5.66265896e-08 -5.66266287e-08 1 5.66265754e-08 -5.66266145e-08 1 -0.139607698 -0.0806025192 0.986920953 -8.66075567e-08 -0.161204994 0.986920953 0 0 1 5.66265896e-08 -5.66266287e-08 1 -0.0806025565 -0.139607653 0.986920953 0.0806024522 -0.139607742 0.986920953 -5.66266536e-08 -5.66265896e-08 1 0 0 1 -8.66075567e-08 -0.161204994 0.986920953 0.139607668 -0.080602631 0.986920953 -5.66266465e-08 -5.66265825e-08 1 -5.66266536e-08 -5.66265896e-08 1 0.0806024522 -0.139607742 0.986920953 0.139607668 -0.080602631 0.986920953 0.161205143 -5.53326096e-08 0.986920953 0 0 1 -5.66266465e-08 -5.66265825e-08 1 -1 1.86599323e-07 0 -0.866025388 -0.49999997 0 -0.866025388 -0.49999997 0 -1 1.86599323e-07 0 -0.866025388 -0.49999997 0 -0.49999994 -0.866025567 0 -0.49999994 -0.866025567 0 -0.866025388 -0.49999997 0 -0.49999994 -0.866025567 0 -8.83891431e-08 -1 0 -8.83891431e-08 -1 0 -0.49999994 -0.866025567 0 -8.83891431e-08 -1 0 0.499999732 -0.866025627 0 0.499999732 -0.866025627 0 -8.83891431e-08 -1 0 0.499999732 -0.866025627 0 0.866025269 -0.500000238 0 0.866025269 -0.500000238 0 0.499999732 -0.866025627 0 0.866025269 -0.500000238 0 1 -4.02661726e-07 0 1 -4.02661726e-07 0 0.866025269 -0.500000238 0 1 -4.02661726e-07 0 0.866025746 0.499999613 0 0.866025746 0.499999642 0 1 -4.02661726e-07 0 0.866025746 0.499999613 0 0.500000358 0.866025209 0 0.500000298 0.866025269 0 0.866025746 0.499999642 0 0.500000358 0.866025209 0 5.40155895e-07 1 0 5.40155895e-07 1 0 0.500000298 0.866025269 0 5.40155895e-07 1 0 -0.499999613 0.866025686 0 -0.499999583 0.866025746 0 5.40155895e-07 1 0 -0.499999613 0.866025686 0 -0.866025269 0.500000238 0 -0.866025329 0.500000358 0 -0.499999583 0.866025746 0 -0.866025269 0.500000238 0 -1 1.86599323e-07 0 -1 1.86599323e-07 0 -0.866025329 0.500000358 0 0 0 1 -4.80596465e-14 -8.76749482e-08 1 -4.80596736e-14 -8.76749979e-08 1 0 0 1 7.68548816e-08 0.985378325 -0.170380577 -0.492688894 0.853362918 -0.170380279 -0.492688894 0.853362918 0.170380309 7.68548816e-08 0.985378325 0.170380563 -0.492688894 0.853362918 -0.170380279 -0.85336262 0.492689431 -0.170380175 -0.85336262 0.492689431 0.17038019 -0.492688894 0.853362918 0.170380309 -0.85336262 0.492689431 -0.170380175 -0.985378385 3.74027081e-07 -0.170380354 -0.985378385 3.74027138e-07 0.170380369 -0.85336262 0.492689431 0.17038019 -0.985378385 3.74027081e-07 -0.170380354 -0.853362978 -0.492688954 -0.170380265 -0.853362918 -0.492688984 0.170380294 -0.985378385 3.74027138e-07 0.170380369 -4.81623829e-07 -0.985378563 -0.17037949 0.492688954 -0.853363037 -0.170379862 0.492688894 -0.853362978 0.170379862 -4.86747524e-07 -0.985378563 0.170379505 0.492688954 -0.853363037 -0.170379862 0.853362501 -0.49268961 -0.170380205 0.853362501 -0.49268961 0.170380205 0.492688894 -0.853362978 0.170379862 0.853362501 -0.49268961 -0.170380205 0.985378504 -2.20317332e-07 -0.17038013 0.985378504 -2.25441013e-07 0.170380145 0.853362501 -0.49268961 0.170380205 0.985378504 -2.20317332e-07 -0.17038013 0.938636661 -2.40633511e-07 -0.344907641 0.812883139 0.46931836 -0.344907731 0.853362858 0.492689162 -0.170380145 0.853362858 0.492689162 -0.170380145 0.812883139 0.46931836 -0.344907731 0.469318211 0.81288296 -0.344908237 0.492689162 0.853362739 -0.170380428 0.492689162 0.853362739 -0.170380428 0.469318211 0.81288296 -0.344908237 8.32962002e-08 0.938636303 -0.344908595 7.68548816e-08 0.985378325 -0.170380577 7.68548816e-08 0.985378325 -0.170380577 8.32962002e-08 0.938636303 -0.344908595 -0.469318122 0.812883139 -0.344907939 -0.492688894 0.853362918 -0.170380279 -0.492688894 0.853362918 -0.170380279 -0.469318122 0.812883139 -0.344907939 -0.812882841 0.469318837 -0.344907731 -0.85336262 0.492689431 -0.170380175 -0.85336262 0.492689431 -0.170380175 -0.812882841 0.469318837 -0.344907731 -0.938636482 3.70205328e-07 -0.344908148 -0.985378385 3.74027081e-07 -0.170380354 -0.985378385 3.74027081e-07 -0.170380354 -0.938636482 3.70205328e-07 -0.344908148 -0.812883437 -0.469317734 -0.344907939 -0.853362978 -0.492688954 -0.170380265 -0.853362978 -0.492688954 -0.170380265 -0.812883437 -0.469317734 -0.344907939 -0.469318718 -0.812883317 -0.344907016 -0.49268961 -0.85336262 -0.170379803 -0.49268961 -0.85336262 -0.170379803 -0.469318718 -0.812883317 -0.344907016 -4.62756901e-07 -0.938637137 -0.34490642 -4.81623829e-07 -0.985378563 -0.17037949 -4.81623829e-07 -0.985378563 -0.17037949 -4.62756901e-07 -0.938637137 -0.34490642 0.469317973 -0.812883675 -0.344907075 0.492688954 -0.853363037 -0.170379862 0.492688954 -0.853363037 -0.170379862 0.469317973 -0.812883675 -0.344907075 0.812883139 -0.46931836 -0.34490779 0.853362501 -0.49268961 -0.170380205 0.853362501 -0.49268961 -0.170380205 0.812883139 -0.46931836 -0.34490779 0.938636661 -2.40633511e-07 -0.344907641 0.985378504 -2.20317332e-07 -0.17038013 0.274706423 -6.79522785e-08 -0.961528242 0.161205143 -5.29268434e-08 -0.986920953 0.139607742 0.0806025267 -0.986920953 0.237902775 0.137353197 -0.961528242 0.237902775 0.137353197 -0.961528242 0.139607742 0.0806025267 -0.986920953 0.0806025788 0.139607698 -0.986920953 0.137353271 0.23790279 -0.961528122 0.137353271 0.23790279 -0.961528122 0.0806025788 0.139607698 -0.986920953 1.20288162e-08 0.161205098 -0.986920953 2.54820982e-08 0.274706542 -0.961528122 2.54820982e-08 0.274706542 -0.961528122 1.20288162e-08 0.161205098 -0.986920953 -0.0806025416 0.139607698 -0.986920953 -0.137353212 0.237902805 -0.961528182 -0.137353212 0.237902805 -0.961528182 -0.0806025416 0.139607698 -0.986920953 -0.139607713 0.0806025416 -0.986920953 -0.237902701 0.137353241 -0.961528242 -0.237902701 0.137353241 -0.961528242 -0.139607713 0.0806025416 -0.986920953 -0.161205083 6.01441386e-08 -0.986920953 -0.274706364 1.07591077e-07 -0.961528182 -0.274706364 1.07591077e-07 -0.961528182 -0.161205083 6.01441386e-08 -0.986920953 -0.139607683 -0.0806025118 -0.986920953 -0.237902731 -0.137353078 -0.961528242 -0.237902731 -0.137353078 -0.961528242 -0.139607683 -0.0806025118 -0.986920953 -0.080602549 -0.139607668 -0.986920953 -0.137353197 -0.237902641 -0.961528242 -0.137353197 -0.237902641 -0.961528242 -0.080602549 -0.139607668 -0.986920953 -9.62306146e-08 -0.161205009 -0.986920953 -1.50061254e-07 -0.274706274 -0.961528242 -1.50061254e-07 -0.274706274 -0.961528242 -9.62306146e-08 -0.161205009 -0.986920953 0.0806024373 -0.139607742 -0.986920953 0.137353018 -0.237902731 -0.961528242 0.137353018 -0.237902731 -0.961528242 0.0806024373 -0.139607742 -0.986920953 0.139607668 -0.080602631 -0.986920953 0.237902686 -0.137353331 -0.961528182 0.139607668 -0.080602631 -0.986920953 0.161205143 -5.29268434e-08 -0.986920953 0.274706423 -6.79522785e-08 -0.961528242 0.237902686 -0.137353331 -0.961528182 0 0 -1 -5.41112177e-09 -6.20377421e-08 -1 0.139607742 0.0806025267 -0.986920953 0.161205143 -5.29268434e-08 -0.986920953 -5.41112177e-09 -6.20377421e-08 -1 -3.00991125e-08 -1.54174614e-07 -1 0.0806025788 0.139607698 -0.986920953 0.139607742 0.0806025267 -0.986920953 -3.00991125e-08 -1.54174614e-07 -1 -1.74476183e-14 -1.84273745e-07 -1 1.20288162e-08 0.161205098 -0.986920953 0.0806025788 0.139607698 -0.986920953 -1.74476183e-14 -1.84273745e-07 -1 3.00990664e-08 -1.54174629e-07 -1 -0.0806025416 0.139607698 -0.986920953 1.20288162e-08 0.161205098 -0.986920953 3.00990664e-08 -1.54174629e-07 -1 5.41110046e-09 -6.20377421e-08 -1 -0.139607713 0.0806025416 -0.986920953 -0.0806025416 0.139607698 -0.986920953 5.41110046e-09 -6.20377421e-08 -1 0 0 -1 -0.161205083 6.01441386e-08 -0.986920953 -0.139607713 0.0806025416 -0.986920953 0 0 -1 5.66265754e-08 -5.66266145e-08 -1 -0.139607683 -0.0806025118 -0.986920953 -0.161205083 6.01441386e-08 -0.986920953 5.66265754e-08 -5.66266145e-08 -1 5.66265896e-08 -5.66266287e-08 -1 -0.080602549 -0.139607668 -0.986920953 -0.139607683 -0.0806025118 -0.986920953 5.66265896e-08 -5.66266287e-08 -1 0 0 -1 -9.62306146e-08 -0.161205009 -0.986920953 -0.080602549 -0.139607668 -0.986920953 0 0 -1 -5.66266536e-08 -5.66265932e-08 -1 0.0806024373 -0.139607742 -0.986920953 -9.62306146e-08 -0.161205009 -0.986920953 -5.66266536e-08 -5.66265932e-08 -1 -5.66266465e-08 -5.66265861e-08 -1 0.139607668 -0.080602631 -0.986920953 0.0806024373 -0.139607742 -0.986920953 0.139607668 -0.080602631 -0.986920953 -5.66266465e-08 -5.66265861e-08 -1 0 0 -1 0.161205143 -5.29268434e-08 -0.986920953 -1 1.96420331e-07 0 -1 1.96420331e-07 0 -0.866025388 -0.5 0 -0.866025388 -0.5 0 -0.866025388 -0.5 0 -0.866025388 -0.5 0 -0.49999994 -0.866025567 0 -0.49999994 -0.866025567 0 -0.49999994 -0.866025567 0 -0.49999994 -0.866025567 0 -1.0803118e-07 -1 0 -1.0803118e-07 -1 0 -1.0803118e-07 -1 0 -1.0803118e-07 -1 0 0.499999672 -0.866025627 0 0.499999672 -0.866025627 0 0.499999672 -0.866025627 0 0.499999672 -0.866025627 0 0.866025269 -0.500000238 0 0.866025269 -0.500000238 0 0.866025269 -0.500000238 0 0.866025269 -0.500000238 0 1 -4.22303742e-07 0 1 -4.22303742e-07 0 1 -4.22303742e-07 0 1 -4.22303742e-07 0 0.866025686 0.499999613 0 0.866025746 0.499999583 0 0.866025746 0.499999583 0 0.866025686 0.499999613 0 0.500000298 0.866025269 0 0.500000358 0.866025329 0 0.500000358 0.866025329 0 0.500000298 0.866025269 0 5.40155895e-07 1 0 5.40155895e-07 1 0 5.40155895e-07 1 0 5.40155895e-07 1 0 -0.499999523 0.866025686 0 -0.499999553 0.866025686 0 -0.499999553 0.866025686 0 -0.499999523 0.866025686 0 -0.866025329 0.500000358 0 -0.866025269 0.500000238 0 -0.866025269 0.500000238 0 -0.866025329 0.500000358 0 -1 1.96420331e-07 0 -1 1.96420331e-07 0 0 0 -1 0 0 -1 0 0 -1 0 0 -1 0.985378504 -2.25441013e-07 0.170380145 0.985378504 -2.20317332e-07 -0.17038013 0.853362858 0.492689162 -0.170380145 0.853362858 0.492689162 0.170380145 0.853362858 0.492689162 -0.170380145 0.492689162 0.853362739 -0.170380428 0.492689162 0.853362739 0.170380414 0.853362858 0.492689162 0.170380145 0.492689162 0.853362739 0.170380414 0.492689162 0.853362739 -0.170380428 7.68548816e-08 0.985378325 -0.170380577 7.68548816e-08 0.985378325 0.170380563 -0.853362918 -0.492688984 0.170380294 -0.853362978 -0.492688954 -0.170380265 -0.49268961 -0.85336262 -0.170379803 -0.49268961 -0.85336262 0.170379803 -0.49268961 -0.85336262 -0.170379803 -4.81623829e-07 -0.985378563 -0.17037949 -4.86747524e-07 -0.985378563 0.170379505 -0.49268961 -0.85336262 0.170379803 0 0 1 0 0 1 0 0 1 0 0 1 -4.80596703e-14 -8.76749908e-08 -1 -4.80596398e-14 -8.76749411e-08 -1 0 0 -1 0 0 -1 0 0 -1 0 0 -1 0 0 -1 0 0 -1 0 0 1 0 0 1 0 0 1 0 0 1 0 0 -1 0 0 -1 0 0 -1 0 0 1 0 0 1 0 0 1 -1.44178994e-13 -2.63024958e-07 1 -1.44179007e-13 -2.63024958e-07 1 -4.80596736e-14 -8.76749979e-08 1 -4.80596465e-14 -8.76749482e-08 1 -1.44178967e-13 -2.63024901e-07 -1 -1.4417894e-13 -2.63024873e-07 -1 -4.80596398e-14 -8.76749411e-08 -1 -4.80596703e-14 -8.76749908e-08 -1 -1.44178994e-13 -2.63024958e-07 1 0 0 1 -1.44179007e-13 -2.63024958e-07 1 -1.44178967e-13 -2.63024901e-07 -1 0 0 -1 -1.4417894e-13 -2.63024873e-07 -1</float_array>
          <technique_common>
            <accessor count="1044" offset="0" source="#Cylinder003-normals-array" stride="3">
              <param name="X" type="float" />
              <param name="Y" type="float" />
              <param name="Z" type="float" />
            </accessor>
          </technique_common>
        </source>
        <source id="Cylinder003-tex0" name="Cylinder003-tex0">
          <float_array id="Cylinder003-tex0-array" count="2088"> -5.96046448e-08 0.5 0.0833333135 0.5 0.0833333135 0.5 -5.96046448e-08 0.5 0.0833333135 0.5 0.166666627 0.5 0.166666627 0.5 0.0833333135 0.5 0.166666627 0.5 0.24999994 0.5 0.24999994 0.5 0.166666627 0.5 0.24999994 0.5 0.333333254 0.5 0.333333254 0.5 0.24999994 0.5 0.499999911 0.5 0.583333254 0.5 0.583333254 0.5 0.499999911 0.5 0.583333254 0.5 0.666666567 0.5 0.666666567 0.5 0.583333254 0.5 0.666666567 0.5 0.75 0.5 0.75 0.5 0.666666567 0.5 0.75 0.5 0.75 0.5 0.833333313 0.5 0.833333313 0.5 0.833333313 0.5 0.916666687 0.5 0.916666687 0.5 0.833333313 0.5 0.916666687 0.5 0.916666687 0.5 0.99999994 0.5 0.99999994 0.5 0.333333254 0.5 0.333333254 0.5 0.416666657 0.5 0.416666657 0.5 0.416666657 0.5 0.499999911 0.5 0.499999911 0.5 0.416666657 0.5 0.166666627 0.5 0.24999994 0.5 0.75 0.5 0.833333313 0.5 0.24999994 0.5 0.166666627 0.5 0.833333313 0.5 0.75 0.5 0.333333254 0.5 0.666666567 0.5 0.75 0.5 0.24999994 0.5 0.666666567 0.5 0.333333254 0.5 0.24999994 0.5 0.75 0.5 0.916666687 0.5 0.0833333135 0.5 0.166666627 0.5 0.833333313 0.5 0.0833333135 0.5 0.916666687 0.5 0.833333313 0.5 0.166666627 0.5 0.916666687 0.5 0.99999994 0.5 0.0833333135 0.5 0.0833333135 0.5 -5.96046448e-08 0.5 0.916666687 0.5 0.416666657 0.5 0.583333254 0.5 0.666666567 0.5 0.333333254 0.5 0.583333254 0.5 0.416666657 0.5 0.333333254 0.5 0.666666567 0.5 0.416666657 0.5 0.499999911 0.5 0.583333254 0.5 0.583333254 0.5 0.499999911 0.5 0.416666657 0.5 0.833333313 0.75 0.75 0.75 0.75 0.5 0.833333313 0.5 0.916666687 0.75 0.833333313 0.75 0.833333313 0.5 0.916666687 0.5 0.99999994 0.75 0.916666687 0.75 0.916666687 0.5 0.99999994 0.5 0.0833333135 0.75 -5.96046448e-08 0.75 -5.96046448e-08 0.5 0.0833333135 0.5 0.166666627 0.75 0.0833333135 0.75 0.0833333135 0.5 0.166666627 0.5 0.24999994 0.75 0.166666627 0.75 0.166666627 0.5 0.24999994 0.5 0.333333254 0.75 0.24999994 0.75 0.24999994 0.5 0.333333254 0.5 0.416666657 0.75 0.333333254 0.75 0.333333254 0.5 0.416666657 0.5 0.499999911 0.75 0.416666657 0.75 0.416666657 0.5 0.499999911 0.5 0.583333254 0.75 0.499999911 0.75 0.499999911 0.5 0.583333254 0.5 0.666666567 0.75 0.583333254 0.75 0.583333254 0.5 0.666666567 0.5 0.75 0.75 0.666666567 0.75 0.666666567 0.5 0.75 0.5 0.833333313 1 0.75 1 0.75 0.75 0.833333313 0.75 0.916666687 1 0.833333313 1 0.833333313 0.75 0.916666687 0.75 0.99999994 1 0.916666687 1 0.916666687 0.75 0.99999994 0.75 0.0833333135 1 -5.96046448e-08 1 -5.96046448e-08 0.75 0.0833333135 0.75 0.166666627 1 0.0833333135 1 0.0833333135 0.75 0.166666627 0.75 0.24999994 1 0.166666627 1 0.166666627 0.75 0.24999994 0.75 0.333333254 1 0.24999994 1 0.24999994 0.75 0.333333254 0.75 0.416666657 1 0.333333254 1 0.333333254 0.75 0.416666657 0.75 0.499999911 1 0.416666657 1 0.416666657 0.75 0.499999911 0.75 0.583333254 1 0.499999911 1 0.499999911 0.75 0.583333254 0.75 0.666666567 1 0.583333254 1 0.583333254 0.75 0.666666567 0.75 0.75 0.75 0.75 1 0.666666567 1 0.666666567 0.75 0.833333313 1 0.833333313 1 0.75 1 0.75 1 0.916666687 1 0.916666687 1 0.833333313 1 0.833333313 1 0.99999994 1 0.99999994 1 0.916666687 1 0.916666687 1 0.0833333135 1 0.0833333135 1 -5.96046448e-08 1 -5.96046448e-08 1 0.166666627 1 0.166666627 1 0.0833333135 1 0.0833333135 1 0.24999994 1 0.24999994 1 0.166666627 1 0.166666627 1 0.333333254 1 0.333333254 1 0.24999994 1 0.24999994 1 0.416666657 1 0.416666657 1 0.333333254 1 0.333333254 1 0.499999911 1 0.499999911 1 0.416666657 1 0.416666657 1 0.583333254 1 0.583333254 1 0.499999911 1 0.499999911 1 0.666666567 1 0.666666567 1 0.583333254 1 0.583333254 1 0.666666567 1 0.75 1 0.75 1 0.666666567 1 0.75 1 0.833333313 1 0.833333313 1 0.75 1 0.833333313 1 0.916666687 1 0.916666687 1 0.833333313 1 0.916666687 1 0.99999994 1 0.99999994 1 0.916666687 1 -5.96046448e-08 1 0.0833333135 1 0.0833333135 1 -5.96046448e-08 1 0.0833333135 1 0.166666627 1 0.166666627 1 0.0833333135 1 0.166666627 1 0.24999994 1 0.24999994 1 0.166666627 1 0.24999994 1 0.333333254 1 0.333333254 1 0.24999994 1 0.333333254 1 0.416666657 1 0.416666657 1 0.333333254 1 0.416666657 1 0.499999911 1 0.499999911 1 0.416666657 1 0.499999911 1 0.583333254 1 0.583333254 1 0.499999911 1 0.583333254 1 0.666666567 1 0.666666567 1 0.583333254 1 0.666666567 1 0.75 1 0.75 1 0.666666567 1 0.24999994 1 0.333333254 1 0.666666567 1 0.75 1 -5.96046448e-08 0.5 0.0833333135 0.5 0.0833333135 0.5 -5.96046448e-08 0.5 0.0833333135 0.5 0.166666627 0.5 0.166666627 0.5 0.0833333135 0.5 0.166666627 0.5 0.24999994 0.5 0.24999994 0.5 0.166666627 0.5 0.24999994 0.5 0.333333254 0.5 0.333333254 0.5 0.24999994 0.5 0.499999911 0.5 0.583333254 0.5 0.583333254 0.5 0.499999911 0.5 0.583333254 0.5 0.666666567 0.5 0.666666567 0.5 0.583333254 0.5 0.666666567 0.5 0.75 0.5 0.75 0.5 0.666666567 0.5 0.75 0.5 0.75 0.75 0.833333313 0.75 0.833333313 0.5 0.833333313 0.5 0.833333313 0.75 0.916666687 0.75 0.916666687 0.5 0.916666687 0.5 0.916666687 0.75 0.99999994 0.75 0.99999994 0.5 -5.96046448e-08 0.5 -5.96046448e-08 0.75 0.0833333135 0.75 0.0833333135 0.5 0.0833333135 0.5 0.0833333135 0.75 0.166666627 0.75 0.166666627 0.5 0.166666627 0.5 0.166666627 0.75 0.24999994 0.75 0.24999994 0.5 0.24999994 0.5 0.24999994 0.75 0.333333254 0.75 0.333333254 0.5 0.333333254 0.5 0.333333254 0.75 0.416666657 0.75 0.416666657 0.5 0.416666657 0.5 0.416666657 0.75 0.499999911 0.75 0.499999911 0.5 0.499999911 0.5 0.499999911 0.75 0.583333254 0.75 0.583333254 0.5 0.583333254 0.5 0.583333254 0.75 0.666666567 0.75 0.666666567 0.5 0.666666567 0.5 0.666666567 0.75 0.75 0.75 0.75 0.5 0.75 0.75 0.75 1 0.833333313 1 0.833333313 0.75 0.833333313 0.75 0.833333313 1 0.916666687 1 0.916666687 0.75 0.916666687 0.75 0.916666687 1 0.99999994 1 0.99999994 0.75 -5.96046448e-08 0.75 -5.96046448e-08 1 0.0833333135 1 0.0833333135 0.75 0.0833333135 0.75 0.0833333135 1 0.166666627 1 0.166666627 0.75 0.166666627 0.75 0.166666627 1 0.24999994 1 0.24999994 0.75 0.24999994 0.75 0.24999994 1 0.333333254 1 0.333333254 0.75 0.333333254 0.75 0.333333254 1 0.416666657 1 0.416666657 0.75 0.416666657 0.75 0.416666657 1 0.499999911 1 0.499999911 0.75 0.499999911 0.75 0.499999911 1 0.583333254 1 0.583333254 0.75 0.583333254 0.75 0.583333254 1 0.666666567 1 0.666666567 0.75 0.666666567 1 0.75 1 0.75 0.75 0.666666567 0.75 0.75 1 0.833333313 1 0.833333313 1 0.75 1 0.833333313 1 0.916666687 1 0.916666687 1 0.833333313 1 0.916666687 1 0.99999994 1 0.99999994 1 0.916666687 1 -5.96046448e-08 1 0.0833333135 1 0.0833333135 1 -5.96046448e-08 1 0.0833333135 1 0.166666627 1 0.166666627 1 0.0833333135 1 0.166666627 1 0.24999994 1 0.24999994 1 0.166666627 1 0.24999994 1 0.333333254 1 0.333333254 1 0.24999994 1 0.333333254 1 0.416666657 1 0.416666657 1 0.333333254 1 0.416666657 1 0.499999911 1 0.499999911 1 0.416666657 1 0.499999911 1 0.583333254 1 0.583333254 1 0.499999911 1 0.583333254 1 0.666666567 1 0.666666567 1 0.583333254 1 0.666666567 1 0.666666567 1 0.75 1 0.75 1 0.75 1 0.75 1 0.833333313 1 0.833333313 1 0.833333313 1 0.833333313 1 0.916666687 1 0.916666687 1 0.916666687 1 0.916666687 1 0.99999994 1 0.99999994 1 -5.96046448e-08 1 -5.96046448e-08 1 0.0833333135 1 0.0833333135 1 0.0833333135 1 0.0833333135 1 0.166666627 1 0.166666627 1 0.166666627 1 0.166666627 1 0.24999994 1 0.24999994 1 0.24999994 1 0.24999994 1 0.333333254 1 0.333333254 1 0.333333254 1 0.333333254 1 0.416666657 1 0.416666657 1 0.416666657 1 0.416666657 1 0.499999911 1 0.499999911 1 0.499999911 1 0.499999911 1 0.583333254 1 0.583333254 1 0.583333254 1 0.583333254 1 0.666666567 1 0.666666567 1 0.666666567 1 0.666666567 1 0.75 1 0.75 1 0.24999994 1 0.166666627 1 0.833333313 1 0.75 1 0.75 0.5 0.75 0.5 0.833333313 0.5 0.833333313 0.5 0.833333313 0.5 0.916666687 0.5 0.916666687 0.5 0.833333313 0.5 0.916666687 0.5 0.916666687 0.5 0.99999994 0.5 0.99999994 0.5 0.333333254 0.5 0.333333254 0.5 0.416666657 0.5 0.416666657 0.5 0.416666657 0.5 0.499999911 0.5 0.499999911 0.5 0.416666657 0.5 0.833333313 1 0.166666627 1 0.24999994 1 0.75 1 0.666666567 1 0.333333254 1 0.24999994 1 0.75 1 0.0833333135 1 0.916666687 1 0.833333313 1 0.166666627 1 0.916666687 1 0.0833333135 1 0.166666627 1 0.833333313 1 0.0833333135 1 0.99999994 1 0.916666687 1 0.916666687 1 -5.96046448e-08 1 0.0833333135 1 0.416666657 1 0.583333254 1 0.666666567 1 0.333333254 1 0.583333254 1 0.416666657 1 0.333333254 1 0.666666567 1 0.416666657 1 0.499999911 1 0.583333254 1 0.583333254 1 0.499999911 1 0.416666657 1 0.833333313 0.75 0.75 0.75 0.75 0.5 0.833333313 0.5 0.916666687 0.75 0.833333313 0.75 0.833333313 0.5 0.916666687 0.5 0.99999994 0.75 0.916666687 0.75 0.916666687 0.5 0.99999994 0.5 0.0833333135 0.75 -5.96046448e-08 0.75 -5.96046448e-08 0.5 0.0833333135 0.5 0.166666627 0.75 0.0833333135 0.75 0.0833333135 0.5 0.166666627 0.5 0.24999994 0.75 0.166666627 0.75 0.166666627 0.5 0.24999994 0.5 0.333333254 0.75 0.24999994 0.75 0.24999994 0.5 0.333333254 0.5 0.416666657 0.75 0.333333254 0.75 0.333333254 0.5 0.416666657 0.5 0.499999911 0.75 0.416666657 0.75 0.416666657 0.5 0.499999911 0.5 0.583333254 0.75 0.499999911 0.75 0.499999911 0.5 0.583333254 0.5 0.666666567 0.75 0.583333254 0.75 0.583333254 0.5 0.666666567 0.5 0.75 0.75 0.666666567 0.75 0.666666567 0.5 0.75 0.5 0.833333313 1 0.75 1 0.75 0.75 0.833333313 0.75 0.916666687 1 0.833333313 1 0.833333313 0.75 0.916666687 0.75 0.99999994 1 0.916666687 1 0.916666687 0.75 0.99999994 0.75 0.0833333135 1 -5.96046448e-08 1 -5.96046448e-08 0.75 0.0833333135 0.75 0.166666627 1 0.0833333135 1 0.0833333135 0.75 0.166666627 0.75 0.24999994 1 0.166666627 1 0.166666627 0.75 0.24999994 0.75 0.333333254 1 0.24999994 1 0.24999994 0.75 0.333333254 0.75 0.416666657 1 0.333333254 1 0.333333254 0.75 0.416666657 0.75 0.499999911 1 0.416666657 1 0.416666657 0.75 0.499999911 0.75 0.583333254 1 0.499999911 1 0.499999911 0.75 0.583333254 0.75 0.666666567 1 0.583333254 1 0.583333254 0.75 0.666666567 0.75 0.75 0.75 0.75 1 0.666666567 1 0.666666567 0.75 0.833333313 1 0.833333313 1 0.75 1 0.75 1 0.916666687 1 0.916666687 1 0.833333313 1 0.833333313 1 0.99999994 1 0.99999994 1 0.916666687 1 0.916666687 1 0.0833333135 1 0.0833333135 1 -5.96046448e-08 1 -5.96046448e-08 1 0.166666627 1 0.166666627 1 0.0833333135 1 0.0833333135 1 0.24999994 1 0.24999994 1 0.166666627 1 0.166666627 1 0.333333254 1 0.333333254 1 0.24999994 1 0.24999994 1 0.416666657 1 0.416666657 1 0.333333254 1 0.333333254 1 0.499999911 1 0.499999911 1 0.416666657 1 0.416666657 1 0.583333254 1 0.583333254 1 0.499999911 1 0.499999911 1 0.666666567 1 0.666666567 1 0.583333254 1 0.583333254 1 0.666666567 1 0.75 1 0.75 1 0.666666567 1 0.75 1 0.833333313 1 0.833333313 1 0.75 1 0.833333313 1 0.916666687 1 0.916666687 1 0.833333313 1 0.916666687 1 0.99999994 1 0.99999994 1 0.916666687 1 -5.96046448e-08 1 0.0833333135 1 0.0833333135 1 -5.96046448e-08 1 0.0833333135 1 0.166666627 1 0.166666627 1 0.0833333135 1 0.166666627 1 0.24999994 1 0.24999994 1 0.166666627 1 0.24999994 1 0.333333254 1 0.333333254 1 0.24999994 1 0.333333254 1 0.416666657 1 0.416666657 1 0.333333254 1 0.416666657 1 0.499999911 1 0.499999911 1 0.416666657 1 0.499999911 1 0.583333254 1 0.583333254 1 0.499999911 1 0.583333254 1 0.666666567 1 0.666666567 1 0.583333254 1 0.666666567 1 0.75 1 0.75 1 0.666666567 1 0.24999994 1 0.333333254 1 0.666666567 1 0.75 1 -5.96046448e-08 0.5 0.0833333135 0.5 0.0833333135 0.5 -5.96046448e-08 0.5 0.0833333135 0.5 0.166666627 0.5 0.166666627 0.5 0.0833333135 0.5 0.166666627 0.5 0.24999994 0.5 0.24999994 0.5 0.166666627 0.5 0.24999994 0.5 0.333333254 0.5 0.333333254 0.5 0.24999994 0.5 0.499999911 0.5 0.583333254 0.5 0.583333254 0.5 0.499999911 0.5 0.583333254 0.5 0.666666567 0.5 0.666666567 0.5 0.583333254 0.5 0.666666567 0.5 0.75 0.5 0.75 0.5 0.666666567 0.5 0.75 0.5 0.75 0.75 0.833333313 0.75 0.833333313 0.5 0.833333313 0.5 0.833333313 0.75 0.916666687 0.75 0.916666687 0.5 0.916666687 0.5 0.916666687 0.75 0.99999994 0.75 0.99999994 0.5 -5.96046448e-08 0.5 -5.96046448e-08 0.75 0.0833333135 0.75 0.0833333135 0.5 0.0833333135 0.5 0.0833333135 0.75 0.166666627 0.75 0.166666627 0.5 0.166666627 0.5 0.166666627 0.75 0.24999994 0.75 0.24999994 0.5 0.24999994 0.5 0.24999994 0.75 0.333333254 0.75 0.333333254 0.5 0.333333254 0.5 0.333333254 0.75 0.416666657 0.75 0.416666657 0.5 0.416666657 0.5 0.416666657 0.75 0.499999911 0.75 0.499999911 0.5 0.499999911 0.5 0.499999911 0.75 0.583333254 0.75 0.583333254 0.5 0.583333254 0.5 0.583333254 0.75 0.666666567 0.75 0.666666567 0.5 0.666666567 0.5 0.666666567 0.75 0.75 0.75 0.75 0.5 0.75 0.75 0.75 1 0.833333313 1 0.833333313 0.75 0.833333313 0.75 0.833333313 1 0.916666687 1 0.916666687 0.75 0.916666687 0.75 0.916666687 1 0.99999994 1 0.99999994 0.75 -5.96046448e-08 0.75 -5.96046448e-08 1 0.0833333135 1 0.0833333135 0.75 0.0833333135 0.75 0.0833333135 1 0.166666627 1 0.166666627 0.75 0.166666627 0.75 0.166666627 1 0.24999994 1 0.24999994 0.75 0.24999994 0.75 0.24999994 1 0.333333254 1 0.333333254 0.75 0.333333254 0.75 0.333333254 1 0.416666657 1 0.416666657 0.75 0.416666657 0.75 0.416666657 1 0.499999911 1 0.499999911 0.75 0.499999911 0.75 0.499999911 1 0.583333254 1 0.583333254 0.75 0.583333254 0.75 0.583333254 1 0.666666567 1 0.666666567 0.75 0.666666567 1 0.75 1 0.75 0.75 0.666666567 0.75 0.75 1 0.833333313 1 0.833333313 1 0.75 1 0.833333313 1 0.916666687 1 0.916666687 1 0.833333313 1 0.916666687 1 0.99999994 1 0.99999994 1 0.916666687 1 -5.96046448e-08 1 0.0833333135 1 0.0833333135 1 -5.96046448e-08 1 0.0833333135 1 0.166666627 1 0.166666627 1 0.0833333135 1 0.166666627 1 0.24999994 1 0.24999994 1 0.166666627 1 0.24999994 1 0.333333254 1 0.333333254 1 0.24999994 1 0.333333254 1 0.416666657 1 0.416666657 1 0.333333254 1 0.416666657 1 0.499999911 1 0.499999911 1 0.416666657 1 0.499999911 1 0.583333254 1 0.583333254 1 0.499999911 1 0.583333254 1 0.666666567 1 0.666666567 1 0.583333254 1 0.666666567 1 0.666666567 1 0.75 1 0.75 1 0.75 1 0.75 1 0.833333313 1 0.833333313 1 0.833333313 1 0.833333313 1 0.916666687 1 0.916666687 1 0.916666687 1 0.916666687 1 0.99999994 1 0.99999994 1 -5.96046448e-08 1 -5.96046448e-08 1 0.0833333135 1 0.0833333135 1 0.0833333135 1 0.0833333135 1 0.166666627 1 0.166666627 1 0.166666627 1 0.166666627 1 0.24999994 1 0.24999994 1 0.24999994 1 0.24999994 1 0.333333254 1 0.333333254 1 0.333333254 1 0.333333254 1 0.416666657 1 0.416666657 1 0.416666657 1 0.416666657 1 0.499999911 1 0.499999911 1 0.499999911 1 0.499999911 1 0.583333254 1 0.583333254 1 0.583333254 1 0.583333254 1 0.666666567 1 0.666666567 1 0.666666567 1 0.666666567 1 0.75 1 0.75 1 0.24999994 1 0.166666627 1 0.833333313 1 0.75 1 0.75 0.5 0.75 0.5 0.833333313 0.5 0.833333313 0.5 0.833333313 0.5 0.916666687 0.5 0.916666687 0.5 0.833333313 0.5 0.916666687 0.5 0.916666687 0.5 0.99999994 0.5 0.99999994 0.5 0.333333254 0.5 0.333333254 0.5 0.416666657 0.5 0.416666657 0.5 0.416666657 0.5 0.499999911 0.5 0.499999911 0.5 0.416666657 0.5 0.833333313 1 0.166666627 1 0.24999994 1 0.75 1 0.666666567 1 0.333333254 1 0.24999994 1 0.75 1 0.0833333135 1 0.916666687 1 0.833333313 1 0.166666627 1 0.916666687 1 0.0833333135 1 0.166666627 1 0.833333313 1 0.0833333135 1 0.99999994 1 0.916666687 1 0.916666687 1 -5.96046448e-08 1 0.0833333135 1 0.416666657 1 0.583333254 1 0.666666567 1 0.333333254 1 0.583333254 1 0.416666657 1 0.333333254 1 0.666666567 1 0.416666657 1 0.499999911 1 0.583333254 1 0.583333254 1 0.499999911 1 0.416666657 1 </float_array>
          <technique_common>
            <accessor count="1044" offset="0" source="#Cylinder003-tex0-array" stride="2">
              <param name="S" type="float" />
              <param name="T" type="float" />
            </accessor>
          </technique_common>
        </source>
        <vertices id="Cylinder003-vertices">
          <input semantic="POSITION" source="#Cylinder003-positions" />
        </vertices>
        <polylist count="264" material="defaultMaterial">
          <input offset="0" semantic="VERTEX" source="#Cylinder003-vertices" />
          <input offset="0" semantic="NORMAL" source="#Cylinder003-normals" />
          <input offset="0" semantic="TEXCOORD" source="#Cylinder003-tex0" set="0" />
          <vcount>4 4 4 4 4 4 4 4 4 4 4 4 4 4 4 4 4 4 3 3 4 4 3 3 4 4 4 4 4 4 4 4 4 4 4 4 4 4 4 4 4 4 4 4 4 4 4 4 4 4 4 4 4 4 4 4 4 4 4 4 4 4 4 4 4 4 4 4 4 4 4 4 4 4 4 4 4 4 4 4 4 4 4 4 4 4 4 4 4 4 4 4 4 4 4 4 4 4 4 4 4 4 4 4 4 4 4 4 4 4 4 4 4 4 4 4 4 4 4 4 4 4 4 4 4 4 4 4 4 4 4 4 4 4 4 4 4 4 3 3 4 4 3 3 4 4 4 4 4 4 4 4 4 4 4 4 4 4 4 4 4 4 4 4 4 4 4 4 4 4 4 4 4 4 4 4 4 4 4 4 4 4 4 4 4 4 4 4 4 4 4 4 4 4 4 4 4 4 4 4 4 4 4 4 4 4 4 4 4 4 4 4 4 4 4 4 4 4 4 4 4 4 4 4 4 4 4 4 4 4 4 4 4 4 4 4 4 4 4 4 4 4 4 4 4 4 4 4 4 4 4 4 4 4 4 4 4 4 3 3 4 4 3 3 </vcount>
          <p>0 1 2 3 4 5 6 7 8 9 10 11 12 13 14 15 16 17 18 19 20 21 22 23 24 25 26 27 28 29 30 31 32 33 34 35 36 37 38 39 40 41 42 43 44 45 46 47 48 49 50 51 52 53 54 55 56 57 58 59 60 61 62 63 64 65 66 67 68 69 70 71 72 73 74 75 76 77 78 79 80 81 82 83 84 85 86 87 88 89 90 91 92 93 94 95 96 97 98 99 100 101 102 103 104 105 106 107 108 109 110 111 112 113 114 115 116 117 118 119 120 121 122 123 124 125 126 127 128 129 130 131 132 133 134 135 136 137 138 139 140 141 142 143 144 145 146 147 148 149 150 151 152 153 154 155 156 157 158 159 160 161 162 163 164 165 166 167 168 169 170 171 172 173 174 175 176 177 178 179 180 181 182 183 184 185 186 187 188 189 190 191 192 193 194 195 196 197 198 199 200 201 202 203 204 205 206 207 208 209 210 211 212 213 214 215 216 217 218 219 220 221 222 223 224 225 226 227 228 229 230 231 232 233 234 235 236 237 238 239 240 241 242 243 244 245 246 247 248 249 250 251 252 253 254 255 256 257 258 259 260 261 262 263 264 265 266 267 268 269 270 271 272 273 274 275 276 277 278 279 280 281 282 283 284 285 286 287 288 289 290 291 292 293 294 295 296 297 298 299 300 301 302 303 304 305 306 307 308 309 310 311 312 313 314 315 316 317 318 319 320 321 322 323 324 325 326 327 328 329 330 331 332 333 334 335 336 337 338 339 340 341 342 343 344 345 346 347 348 349 350 351 352 353 354 355 356 357 358 359 360 361 362 363 364 365 366 367 368 369 370 371 372 373 374 375 376 377 378 379 380 381 382 383 384 385 386 387 388 389 390 391 392 393 394 395 396 397 398 399 400 401 402 403 404 405 406 407 408 409 410 411 412 413 414 415 416 417 418 419 420 421 422 423 424 425 426 427 428 429 430 431 432 433 434 435 436 437 438 439 440 441 442 443 444 445 446 447 448 449 450 451 452 453 454 455 456 457 458 459 460 461 462 463 464 465 466 467 468 469 470 471 472 473 474 475 476 477 478 479 480 481 482 483 484 485 486 487 488 489 490 491 492 493 494 495 496 497 498 499 500 501 502 503 504 505 506 507 508 509 510 511 512 513 514 515 516 517 518 519 520 521 522 523 524 525 526 527 528 529 530 531 532 533 534 535 536 537 538 539 540 541 542 543 544 545 546 547 548 549 550 551 552 553 554 555 556 557 558 559 560 561 562 563 564 565 566 567 568 569 570 571 572 573 574 575 576 577 578 579 580 581 582 583 584 585 586 587 588 589 590 591 592 593 594 595 596 597 598 599 600 601 602 603 604 605 606 607 608 609 610 611 612 613 614 615 616 617 618 619 620 621 622 623 624 625 626 627 628 629 630 631 632 633 634 635 636 637 638 639 640 641 642 643 644 645 646 647 648 649 650 651 652 653 654 655 656 657 658 659 660 661 662 663 664 665 666 667 668 669 670 671 672 673 674 675 676 677 678 679 680 681 682 683 684 685 686 687 688 689 690 691 692 693 694 695 696 697 698 699 700 701 702 703 704 705 706 707 708 709 710 711 712 713 714 715 716 717 718 719 720 721 722 723 724 725 726 727 728 729 730 731 732 733 734 735 736 737 738 739 740 741 742 743 744 745 746 747 748 749 750 751 752 753 754 755 756 757 758 759 760 761 762 763 764 765 766 767 768 769 770 771 772 773 774 775 776 777 778 779 780 781 782 783 784 785 786 787 788 789 790 791 792 793 794 795 796 797 798 799 800 801 802 803 804 805 806 807 808 809 810 811 812 813 814 815 816 817 818 819 820 821 822 823 824 825 826 827 828 829 830 831 832 833 834 835 836 837 838 839 840 841 842 843 844 845 846 847 848 849 850 851 852 853 854 855 856 857 858 859 860 861 862 863 864 865 866 867 868 869 870 871 872 873 874 875 876 877 878 879 880 881 882 883 884 885 886 887 888 889 890 891 892 893 894 895 896 897 898 899 900 901 902 903 904 905 906 907 908 909 910 911 912 913 914 915 916 917 918 919 920 921 922 923 924 925 926 927 928 929 930 931 932 933 934 935 936 937 938 939 940 941 942 943 944 945 946 947 948 949 950 951 952 953 954 955 956 957 958 959 960 961 962 963 964 965 966 967 968 969 970 971 972 973 974 975 976 977 978 979 980 981 982 983 984 985 986 987 988 989 990 991 992 993 994 995 996 997 998 999 1000 1001 1002 1003 1004 1005 1006 1007 1008 1009 1010 1011 1012 1013 1014 1015 1016 1017 1018 1019 1020 1021 1022 1023 1024 1025 1026 1027 1028 1029 1030 1031 1032 1033 1034 1035 1036 1037 1038 1039 1040 1041 1042 1043 </p>
        </polylist>
      </mesh>
    </geometry>
  </library_geometries>
  <library_controllers>
  </library_controllers>
  <library_visual_scenes>
    <visual_scene id="Scene" name="Scene">
      <node id="RootNode" name="RootNode" type="NODE">
        <matrix sid="matrix">1 0 0 0 0 1 0 0 0 0 1 0 0 0 0 1</matrix>
        <instance_geometry url="#Cylinder003">
          <bind_material>
            <technique_common>
              <instance_material symbol="defaultMaterial" target="#Part__Feature">
                <bind_vertex_input semantic="CHANNEL0" input_semantic="TEXCOORD" input_set="0"/>
              </instance_material>
            </technique_common>
          </bind_material>
        </instance_geometry>
      </node>
    </visual_scene>
  </library_visual_scenes>
  <scene>
    <instance_visual_scene url="#Scene" />
  </scene>
</COLLADA>
