<?xml version="1.0" encoding="utf-8"?>
<COLLADA xmlns="http://www.collada.org/2005/11/COLLADASchema" version="1.4.1">
  <asset>
    <contributor>
      <author/>
      <authoring_tool>FBX COLLADA exporter</authoring_tool>
      <comments/>
    </contributor>
    <created>2026-06-02T08:06:20Z</created>
    <keywords/>
    <modified>2026-06-02T08:06:20Z</modified>
    <revision/>
    <subject/>
    <title/>
    <unit meter="1.000000" name="centimeter"/>
    <up_axis>Z_UP</up_axis>
  </asset>
  <library_materials>
    <material id="black_01" name="black_01">
      <instance_effect url="#black_01-fx"/>
    </material>
  </library_materials>
  <library_effects>
    <effect id="black_01-fx" name="black_01">
      <profile_COMMON>
        <technique sid="standard">
          <phong>
            <emission>
              <color sid="emission">0.000000  0.000000 0.000000 1.000000</color>
            </emission>
            <ambient>
              <color sid="ambient">0.000000  0.000000 0.000000 1.000000</color>
            </ambient>
            <diffuse>
              <color sid="diffuse">0.000000  0.000000 0.000000 1.000000</color>
            </diffuse>
            <specular>
              <color sid="specular">1.100000  1.100000 1.100000 1.000000</color>
            </specular>
            <shininess>
              <float sid="shininess">45.254833</float>
            </shininess>
          </phong>
        </technique>
      </profile_COMMON>
    </effect>
  </library_effects>
  <library_geometries>
    <geometry id="body_link3-lib" name="body_link3Mesh">
      <mesh>
        <source id="body_link3-POSITION">
          <float_array id="body_link3-POSITION-array" count="156">
-0.072672 -0.089499 0.023000
-0.049672 -0.089499 0.000000
-0.049672 0.088000 0.000000
-0.072672 0.088000 0.023000
0.072672 0.088000 0.023000
0.049672 0.088000 0.000000
0.049672 -0.089499 0.000000
0.072672 -0.089499 0.023000
0.072672 -0.089499 0.122000
0.049672 -0.089499 0.145000
0.049672 0.088000 0.145000
0.072672 0.088000 0.122000
-0.072672 0.088000 0.122000
-0.049672 0.088000 0.145000
-0.049672 -0.089499 0.145000
-0.072672 -0.089499 0.122000
-0.049672 -0.000750 0.000000
0.049672 -0.000750 0.000000
0.049672 -0.000750 0.145000
-0.049672 -0.000750 0.145000
0.072672 -0.000750 0.007497
0.072672 -0.000750 0.137625
-0.072672 -0.000750 0.006884
-0.072672 -0.000750 0.137249
0.049672 0.065911 0.000000
-0.049672 0.065911 0.145000
0.072672 0.065911 0.122000
-0.072672 0.065911 0.023000
-0.049672 0.065911 0.000000
0.049672 0.065911 0.145000
0.072672 0.065911 0.023000
-0.072672 0.065911 0.122000
-0.049672 -0.067410 0.000000
0.049672 -0.067410 0.145000
0.072672 -0.067410 0.023000
-0.072672 -0.067410 0.122000
0.049672 -0.067410 0.000000
-0.049672 -0.067410 0.145000
0.072672 -0.067410 0.122000
-0.072672 -0.067410 0.023000
0.087500 -0.000750 0.007497
0.087500 0.065911 0.023000
0.087500 0.065911 0.122000
0.087500 -0.000750 0.137625
0.087500 -0.067410 0.122000
0.087500 -0.067410 0.023000
-0.087813 -0.000750 0.006884
-0.087813 -0.067410 0.023000
-0.087813 -0.067410 0.122000
-0.087813 -0.000750 0.137249
-0.087813 0.065911 0.122000
-0.087813 0.065911 0.023000
</float_array>
          <technique_common>
            <accessor source="#body_link3-POSITION-array" count="52" stride="3">
              <param name="X" type="float"/>
              <param name="Y" type="float"/>
              <param name="Z" type="float"/>
            </accessor>
          </technique_common>
        </source>
        <source id="body_link3-Normal0">
          <float_array id="body_link3-Normal0-array" count="900">
0.000000 0.000000 -1.000000
0.000000 0.000000 -1.000000
0.000000 0.000000 -1.000000
0.000000 0.000000 -1.000000
0.000000 0.000000 -1.000000
0.000000 0.000000 -1.000000
0.000000 0.000000 1.000000
0.000000 0.000000 1.000000
0.000000 0.000000 1.000000
0.000000 0.000000 1.000000
0.000000 0.000000 1.000000
0.000000 0.000000 1.000000
0.000000 -1.000000 0.000000
0.000000 -1.000000 0.000000
0.000000 -1.000000 0.000000
0.000000 -1.000000 0.000000
0.000000 -1.000000 0.000000
0.000000 -1.000000 0.000000
0.000000 -1.000000 0.000000
0.000000 -1.000000 0.000000
0.000000 -1.000000 0.000000
0.000000 -1.000000 0.000000
0.000000 -1.000000 0.000000
0.000000 -1.000000 0.000000
0.000000 -1.000000 0.000000
0.000000 -1.000000 0.000000
0.000000 -1.000000 0.000000
0.000000 -1.000000 0.000000
0.000000 -1.000000 0.000000
0.000000 -1.000000 0.000000
1.000000 0.000000 0.000000
1.000000 0.000000 0.000000
1.000000 0.000000 0.000000
1.000000 0.000000 0.000000
1.000000 0.000000 0.000000
1.000000 0.000000 0.000000
0.000000 1.000000 0.000000
0.000000 1.000000 0.000000
0.000000 1.000000 0.000000
0.000000 1.000000 0.000000
0.000000 1.000000 0.000000
0.000000 1.000000 0.000000
0.000000 1.000000 0.000000
0.000000 1.000000 0.000000
0.000000 1.000000 0.000000
0.000000 1.000000 0.000000
0.000000 1.000000 0.000000
0.000000 1.000000 0.000000
0.000000 1.000000 0.000000
0.000000 1.000000 0.000000
0.000000 1.000000 0.000000
0.000000 1.000000 0.000000
0.000000 1.000000 0.000000
0.000000 1.000000 0.000000
-1.000000 0.000000 0.000000
-1.000000 0.000000 0.000000
-1.000000 0.000000 0.000000
-1.000000 0.000000 0.000000
-1.000000 0.000000 0.000000
-1.000000 0.000000 0.000000
-0.707107 -0.000000 -0.707107
-0.669811 0.024946 -0.742112
-0.707107 -0.000000 -0.707107
-0.707107 -0.000000 -0.707107
-0.707107 0.000000 -0.707107
-0.707107 -0.000000 -0.707107
0.707107 0.000000 -0.707107
0.671262 -0.024004 -0.740831
0.707107 0.000000 -0.707107
0.707107 0.000000 -0.707107
0.707107 0.000000 -0.707107
0.707107 0.000000 -0.707107
0.707107 0.000000 0.707107
0.670974 0.024191 0.741086
0.707107 0.000000 0.707107
0.707107 0.000000 0.707107
0.707107 0.000000 0.707107
0.707107 0.000000 0.707107
-0.707107 0.000000 0.707107
-0.671863 -0.023612 0.740299
-0.707107 0.000000 0.707107
-0.707107 0.000000 0.707107
-0.707107 0.000000 0.707107
-0.707107 0.000000 0.707107
0.000000 0.000000 -1.000000
0.000000 0.000000 -1.000000
0.000000 0.000000 -1.000000
0.000000 0.000000 -1.000000
0.000000 0.000000 -1.000000
0.000000 0.000000 -1.000000
0.000000 0.000000 1.000000
0.000000 0.000000 1.000000
0.000000 0.000000 1.000000
0.000000 0.000000 1.000000
0.000000 0.000000 1.000000
0.000000 0.000000 1.000000
1.000000 0.000000 0.000000
1.000000 0.000000 0.000000
1.000000 0.000000 0.000000
1.000000 0.000000 0.000000
1.000000 0.000000 0.000000
1.000000 0.000000 0.000000
-1.000000 0.000000 0.000000
-1.000000 0.000000 0.000000
-1.000000 0.000000 0.000000
-1.000000 0.000000 0.000000
-1.000000 0.000000 0.000000
-1.000000 0.000000 0.000000
-0.667499 -0.068123 -0.741488
-0.704851 -0.079813 -0.704851
-0.349722 0.089406 -0.932577
-0.349722 0.089406 -0.932577
-0.350896 0.084585 -0.932587
-0.667499 -0.068123 -0.741488
0.669142 0.065273 -0.740262
0.705007 0.077011 -0.705007
0.369461 -0.085373 -0.925316
0.369461 -0.085373 -0.925316
0.370641 -0.080543 -0.925277
0.669142 0.065273 -0.740262
0.668816 -0.065838 0.740507
0.704976 -0.077570 0.704976
0.365571 0.086177 0.926785
0.365571 0.086177 0.926785
0.366751 0.081344 0.926756
0.668816 -0.065838 0.740507
-0.669820 0.064097 0.739752
-0.705070 0.075844 0.705070
-0.377505 -0.083697 0.922217
-0.377505 -0.083697 0.922217
-0.378682 -0.078881 0.922159
-0.669820 0.064097 0.739752
-1.000000 0.000000 0.000000
-1.000000 0.000000 0.000000
-1.000000 0.000000 0.000000
-1.000000 0.000000 0.000000
-1.000000 0.000000 0.000000
-1.000000 0.000000 0.000000
-0.350896 0.084585 -0.932587
-0.349722 0.089406 -0.932577
-0.669811 0.024946 -0.742112
-0.669811 0.024946 -0.742112
-0.707107 -0.000000 -0.707107
-0.350896 0.084585 -0.932587
0.366751 0.081344 0.926756
0.365571 0.086177 0.926785
0.670974 0.024191 0.741086
0.670974 0.024191 0.741086
0.707107 0.000000 0.707107
0.366751 0.081344 0.926756
0.000000 0.000000 -1.000000
0.000000 0.000000 -1.000000
0.000000 0.000000 -1.000000
0.000000 0.000000 -1.000000
0.000000 0.000000 -1.000000
0.000000 0.000000 -1.000000
0.000000 0.000000 1.000000
0.000000 0.000000 1.000000
0.000000 0.000000 1.000000
0.000000 0.000000 1.000000
0.000000 0.000000 1.000000
0.000000 0.000000 1.000000
1.000000 0.000000 0.000000
1.000000 0.000000 0.000000
1.000000 0.000000 0.000000
1.000000 0.000000 0.000000
1.000000 0.000000 0.000000
1.000000 0.000000 0.000000
0.707107 -0.000000 -0.707107
0.707107 -0.000000 -0.707107
0.705007 0.077011 -0.705007
0.705007 0.077011 -0.705007
0.669142 0.065273 -0.740262
0.707107 -0.000000 -0.707107
-0.707107 0.000000 0.707107
-0.707107 0.000000 0.707107
-0.705070 0.075844 0.705070
-0.705070 0.075844 0.705070
-0.669820 0.064097 0.739752
-0.707107 0.000000 0.707107
0.000000 0.000000 -1.000000
0.000000 0.000000 -1.000000
0.000000 0.000000 -1.000000
0.000000 0.000000 -1.000000
0.000000 0.000000 -1.000000
0.000000 0.000000 -1.000000
0.000000 0.000000 1.000000
0.000000 0.000000 1.000000
0.000000 0.000000 1.000000
0.000000 0.000000 1.000000
0.000000 0.000000 1.000000
0.000000 0.000000 1.000000
1.000000 0.000000 0.000000
1.000000 0.000000 0.000000
1.000000 0.000000 0.000000
1.000000 0.000000 0.000000
1.000000 0.000000 0.000000
1.000000 0.000000 0.000000
0.370641 -0.080543 -0.925277
0.369461 -0.085373 -0.925316
0.671262 -0.024004 -0.740831
0.671262 -0.024004 -0.740831
0.707107 0.000000 -0.707107
0.370641 -0.080543 -0.925277
-0.378682 -0.078881 0.922159
-0.377505 -0.083697 0.922217
-0.671863 -0.023612 0.740299
-0.671863 -0.023612 0.740299
-0.707107 0.000000 0.707107
-0.378682 -0.078881 0.922159
-1.000000 0.000000 0.000000
-1.000000 0.000000 0.000000
-1.000000 0.000000 0.000000
-1.000000 0.000000 0.000000
-1.000000 0.000000 0.000000
-1.000000 0.000000 0.000000
-0.707107 0.000000 -0.707107
-0.707107 0.000000 -0.707107
-0.704851 -0.079813 -0.704851
-0.704851 -0.079813 -0.704851
-0.667499 -0.068123 -0.741488
-0.707107 0.000000 -0.707107
0.707107 0.000000 0.707107
0.707107 0.000000 0.707107
0.704976 -0.077570 0.704976
0.704976 -0.077570 0.704976
0.668816 -0.065838 0.740507
0.707107 0.000000 0.707107
0.000000 0.226521 -0.974006
0.000000 0.226521 -0.974006
0.000000 0.226521 -0.974006
0.000000 0.226521 -0.974006
0.000000 0.226521 -0.974006
0.000000 0.226521 -0.974006
-0.000001 1.000000 0.000000
-0.000001 1.000000 0.000000
-0.000001 1.000000 0.000000
0.000000 1.000000 0.000000
0.000000 1.000000 0.000000
0.000000 1.000000 0.000000
-0.000000 0.228212 0.973611
-0.000000 0.228212 0.973611
-0.000000 0.228212 0.973611
-0.000000 0.228212 0.973611
-0.000000 0.228212 0.973611
-0.000000 0.228212 0.973612
0.000000 -0.228212 0.973611
0.000000 -0.228212 0.973611
0.000000 -0.228212 0.973612
0.000000 -0.228212 0.973611
0.000000 -0.228212 0.973611
0.000000 -0.228212 0.973611
0.000000 -1.000000 -0.000000
0.000000 -1.000000 -0.000000
0.000000 -1.000000 -0.000000
0.000001 -1.000000 0.000000
0.000001 -1.000000 0.000000
0.000001 -1.000000 0.000000
0.000000 -0.226521 -0.974006
0.000000 -0.226521 -0.974006
0.000000 -0.226521 -0.974006
0.000000 -0.226521 -0.974006
0.000000 -0.226521 -0.974006
0.000000 -0.226521 -0.974006
0.000000 -0.234999 -0.971995
0.000000 -0.234999 -0.971995
0.000000 -0.235000 -0.971995
0.000000 -0.234999 -0.971995
0.000000 -0.234999 -0.971995
0.000000 -0.235000 -0.971995
0.000000 -1.000000 0.000000
0.000000 -1.000000 0.000000
0.000000 -1.000000 0.000000
0.000000 -1.000000 0.000000
0.000000 -1.000000 0.000000
0.000000 -1.000000 0.000000
0.000000 -0.222991 0.974820
0.000000 -0.222991 0.974820
0.000000 -0.222991 0.974820
0.000000 -0.222991 0.974820
0.000000 -0.222991 0.974820
0.000000 -0.222991 0.974820
0.000000 0.222991 0.974820
0.000000 0.222991 0.974820
0.000000 0.222991 0.974820
0.000000 0.222991 0.974820
0.000000 0.222991 0.974820
0.000000 0.222991 0.974820
0.000000 1.000000 -0.000000
0.000000 1.000000 -0.000000
0.000000 1.000000 -0.000000
0.000000 1.000000 -0.000000
0.000000 1.000000 -0.000000
0.000000 1.000000 -0.000000
0.000000 0.235000 -0.971995
0.000000 0.235000 -0.971995
0.000000 0.235000 -0.971995
0.000000 0.235000 -0.971995
0.000000 0.235000 -0.971995
0.000000 0.235000 -0.971995
</float_array>
          <technique_common>
            <accessor source="#body_link3-Normal0-array" count="300" stride="3">
              <param name="X" type="float"/>
              <param name="Y" type="float"/>
              <param name="Z" type="float"/>
            </accessor>
          </technique_common>
        </source>
        <source id="body_link3-UV0">
          <float_array id="body_link3-UV0-array" count="176">
1.000000 0.000000
0.000000 0.000000
1.000000 1.000000
0.000000 1.000000
0.000000 0.000000
1.000000 0.000000
0.000000 1.000000
1.000000 1.000000
0.000000 0.158621
1.000000 0.158621
0.841755 0.000000
0.158245 0.000000
0.841755 0.000000
0.841755 1.000000
0.000000 0.158621
1.000000 0.158621
0.000000 0.158621
1.000000 0.158621
0.158245 1.000000
0.158245 0.000000
0.841755 0.000000
0.158245 0.000000
0.000000 0.158621
1.000000 0.158621
1.000000 0.841379
0.000000 0.841379
0.841755 0.000000
0.841755 1.000000
0.158245 1.000000
0.841755 1.000000
1.000000 0.841379
0.000000 0.841379
1.000000 0.841379
0.000000 0.841379
0.158245 1.000000
0.841755 1.000000
0.158245 1.000000
0.158245 0.000000
1.000000 0.841379
0.000000 0.841379
0.841755 0.500000
0.158245 0.500000
0.841755 0.500000
0.158245 0.500000
0.500000 0.158621
0.000000 0.500000
0.500000 0.841379
1.000000 0.500000
0.500000 0.158621
1.000000 0.500000
0.500000 0.841379
0.000000 0.500000
0.158245 0.750000
0.158245 0.750000
0.750000 0.841379
1.000000 0.750000
0.250000 0.158621
1.000000 0.750000
0.841755 0.750000
0.841755 0.750000
0.750000 0.158621
0.000000 0.750000
0.250000 0.841379
0.000000 0.750000
0.841755 0.250000
0.841755 0.250000
0.250000 0.158621
0.000000 0.250000
0.750000 0.841379
0.000000 0.250000
0.158245 0.250000
0.158245 0.250000
0.250000 0.841379
1.000000 0.250000
0.750000 0.158621
1.000000 0.250000
0.500000 0.158621
0.750000 0.158621
0.750000 0.841379
0.500000 0.841379
0.250000 0.841379
0.250000 0.158621
0.500000 0.158621
0.750000 0.158621
0.750000 0.841379
0.500000 0.841379
0.250000 0.841379
0.250000 0.158621
</float_array>
          <technique_common>
            <accessor source="#body_link3-UV0-array" count="88" stride="2">
              <param name="S" type="float"/>
              <param name="T" type="float"/>
            </accessor>
          </technique_common>
        </source>
        <vertices id="body_link3-VERTEX">
          <input semantic="POSITION" source="#body_link3-POSITION"/>
        </vertices>
        <triangles count="100" material="black_01">
          <input semantic="VERTEX" offset="0" source="#body_link3-VERTEX"/>
          <input semantic="NORMAL" offset="1" source="#body_link3-Normal0"/>
          <input semantic="TEXCOORD" offset="2" set="0" source="#body_link3-UV0"/>
          <p> 32 0 64 36 1 70 6 2 21 6 3 21 1 4 10 32 5 64 9 6 26 33 7 65 37 8 71 37 9 71 14 10 37 9 11 26 1 12 11 6 13 20 7 14 23 7 15 23 8 16 24 9 17 27 9 18 27 14 19 36 15 20 39 7 21 23 9 22 27 15 23 39 1 24 11 7 25 23 15 26 39 0 27 8 1 28 11 15 29 39 34 30 66 38 31 72 8 32 25 8 33 25 7 34 22 34 35 66 5 36 19 2 37 12 3 38 15 3 39 15 12 40 32 13 41 35 13 42 35 10 43 28 11 44 31 3 45 15 13 46 35 11 47 31 5 48 19 3 49 15 11 50 31 4 51 16 5 52 19 11 53 31 27 54 56 31 55 62 12 56 33 12 57 33 3 58 14 27 59 56 28 60 58 27 61 57 3 62 2 3 63 2 2 64 13 28 65 58 36 66 70 34 67 67 7 68 1 7 69 1 6 70 21 36 71 70 29 72 59 26 73 55 11 74 7 11 75 7 10 76 29 29 77 59 37 78 71 35 79 69 15 80 4 15 81 4 14 82 37 37 83 71 28 84 58 24 85 52 17 86 41 17 87 41 16 88 40 28 89 58 29 90 59 25 91 53 19 92 43 19 93 43 18 94 42 29 95 59 41 96 77 42 97 78 43 98 79 43 99 79 40 100 76 41 101 77 47 102 83 48 103 84 49 104 85 49 105 85 46 106 82 47 107 83 32 108 64 39 109 75 22 110 49 22 111 49 16 112 40 32 113 64 24 114 52 30 115 61 20 116 45 20 117 45 17 118 41 24 119 52 33 120 65 38 121 73 21 122 47 21 123 47 18 124 42 33 125 65 25 126 53 31 127 63 23 128 51 23 129 51 19 130 43 25 131 53 46 132 82 49 133 85 50 134 86 50 135 86 51 136 87 46 137 82 16 138 40 22 139 49 27 140 57 27 141 57 28 142 58 16 143 40 18 144 42 21 145 47 26 146 55 26 147 55 29 148 59 18 149 42 2 150 13 5 151 18 24 152 52 24 153 52 28 154 58 2 155 13 10 156 29 13 157 34 25 158 53 25 159 53 29 160 59 10 161 29 4 162 17 11 163 30 26 164 54 26 165 54 30 166 60 4 167 17 5 168 18 4 169 3 30 170 61 30 171 61 24 172 52 5 173 18 13 174 34 12 175 6 31 176 63 31 177 63 25 178 53 13 179 34 16 180 40 17 181 41 36 182 70 36 183 70 32 184 64 16 185 40 18 186 42 19 187 43 37 188 71 37 189 71 33 190 65 18 191 42 40 192 76 43 193 79 44 194 80 44 195 80 45 196 81 40 197 76 17 198 41 20 199 45 34 200 67 34 201 67 36 202 70 17 203 41 19 204 43 23 205 51 35 206 69 35 207 69 37 208 71 19 209 43 0 210 9 15 211 38 35 212 68 35 213 68 39 214 74 0 215 9 1 216 10 0 217 0 39 218 75 39 219 75 32 220 64 1 221 10 9 222 26 8 223 5 38 224 73 38 225 73 33 226 65 9 227 26 20 228 44 30 229 60 41 230 77 41 231 77 40 232 76 20 233 44 30 234 60 26 235 54 42 236 78 42 237 78 41 238 77 30 239 60 26 240 54 21 241 46 43 242 79 43 243 79 42 244 78 26 245 54 21 246 46 38 247 72 44 248 80 44 249 80 43 250 79 21 251 46 38 252 72 34 253 66 45 254 81 45 255 81 44 256 80 38 257 72 34 258 66 20 259 44 40 260 76 40 261 76 45 262 81 34 263 66 22 264 48 39 265 74 47 266 83 47 267 83 46 268 82 22 269 48 39 270 74 35 271 68 48 272 84 48 273 84 47 274 83 39 275 74 35 276 68 23 277 50 49 278 85 49 279 85 48 280 84 35 281 68 23 282 50 31 283 62 50 284 86 50 285 86 49 286 85 23 287 50 31 288 62 27 289 56 51 290 87 51 291 87 50 292 86 31 293 62 27 294 56 22 295 48 46 296 82 46 297 82 51 298 87 27 299 56</p>
        </triangles>
      </mesh>
    </geometry>
  </library_geometries>
  <library_visual_scenes>
    <visual_scene id="body_link3" name="body_link3">
      <node name="body_link3" id="body_link3" sid="body_link3">
        <translate sid="translate">0.000000 0.000000 -0.072500</translate>
        <instance_geometry url="#body_link3-lib">
          <bind_material>
            <technique_common>
              <instance_material symbol="black_01" target="#black_01"/>
            </technique_common>
          </bind_material>
        </instance_geometry>
        <extra>
          <technique profile="FCOLLADA">
            <visibility>1.000000</visibility>
          </technique>
        </extra>
      </node>
      <extra>
        <technique profile="MAX3D">
          <frame_rate>30.000000</frame_rate>
        </technique>
        <technique profile="FCOLLADA">
          <start_time>0.000000</start_time>
          <end_time>3.333333</end_time>
        </technique>
      </extra>
    </visual_scene>
  </library_visual_scenes>
  <scene>
    <instance_visual_scene url="#body_link3"/>
  </scene>
</COLLADA>
