<?xml version="1.0" encoding="utf-8"?>
<COLLADA xmlns="http://www.collada.org/2005/11/COLLADASchema" version="1.4.1">
  <asset>
    <contributor>
      <author/>
      <authoring_tool>FBX COLLADA exporter</authoring_tool>
      <comments/>
    </contributor>
    <created>2026-06-03T09:30:06Z</created>
    <keywords/>
    <modified>2026-06-03T09:30:06Z</modified>
    <revision/>
    <subject/>
    <title/>
    <unit meter="1.000000" name="centimeter"/>
    <up_axis>Z_UP</up_axis>
  </asset>
  <library_materials>
    <material id="black_01" name="black_01">
      <instance_effect url="#black_01-fx"/>
    </material>
  </library_materials>
  <library_effects>
    <effect id="black_01-fx" name="black_01">
      <profile_COMMON>
        <technique sid="standard">
          <phong>
            <emission>
              <color sid="emission">0.000000  0.000000 0.000000 1.000000</color>
            </emission>
            <ambient>
              <color sid="ambient">0.000000  0.000000 0.000000 1.000000</color>
            </ambient>
            <diffuse>
              <color sid="diffuse">0.000000  0.000000 0.000000 1.000000</color>
            </diffuse>
            <specular>
              <color sid="specular">1.100000  1.100000 1.100000 1.000000</color>
            </specular>
            <shininess>
              <float sid="shininess">45.254833</float>
            </shininess>
          </phong>
        </technique>
      </profile_COMMON>
    </effect>
  </library_effects>
  <library_geometries>
    <geometry id="chassis_rwheel_front_link1-lib" name="chassis_rwheel_front_link1Mesh">
      <mesh>
        <source id="chassis_rwheel_front_link1-POSITION">
          <float_array id="chassis_rwheel_front_link1-POSITION-array" count="153">
0.029953 0.000000 -0.001250
0.025940 0.014976 -0.001250
0.014976 0.025940 -0.001250
0.000000 0.029953 -0.001250
-0.014976 0.025940 -0.001250
-0.025940 0.014976 -0.001250
-0.029953 0.000000 -0.001250
-0.025940 -0.014976 -0.001250
-0.014976 -0.025940 -0.001250
-0.000000 -0.029953 -0.001250
0.014976 -0.025940 -0.001250
0.025940 -0.014976 -0.001250
0.029953 0.000000 0.061750
0.025940 0.014976 0.061750
0.014976 0.025940 0.061750
0.000000 0.029953 0.061750
-0.014976 0.025940 0.061750
-0.025940 0.014976 0.061750
-0.029953 0.000000 0.061750
-0.028932 -0.007752 0.061750
0.028932 -0.007752 0.061750
0.029953 0.000000 0.035838
0.025940 0.014976 0.035838
0.014976 0.025940 0.035838
0.000000 0.029953 0.035838
-0.014976 0.025940 0.035838
-0.025940 0.014976 0.035838
-0.029953 0.000000 0.035838
-0.028932 -0.007752 0.035838
-0.025940 -0.014976 0.035838
-0.014976 -0.025940 0.035838
-0.000000 -0.029953 0.035838
0.014976 -0.025940 0.035838
0.025940 -0.014976 0.035838
0.028932 -0.007752 0.035838
-0.021356 -0.061984 0.137753
0.021356 -0.061984 0.137753
0.021356 -0.039517 0.137753
-0.021356 -0.039517 0.137753
-0.028562 -0.056459 0.057217
-0.028932 -0.041984 0.044453
-0.027450 -0.061984 0.081161
0.028562 -0.056459 0.057217
0.027450 -0.061984 0.081161
0.028932 -0.041984 0.044453
0.028436 -0.034509 0.072077
0.028932 -0.019517 0.061750
0.026949 -0.039517 0.081651
-0.028436 -0.034509 0.072077
-0.026949 -0.039517 0.081651
-0.028932 -0.019517 0.061750
</float_array>
          <technique_common>
            <accessor source="#chassis_rwheel_front_link1-POSITION-array" count="51" stride="3">
              <param name="X" type="float"/>
              <param name="Y" type="float"/>
              <param name="Z" type="float"/>
            </accessor>
          </technique_common>
        </source>
        <source id="chassis_rwheel_front_link1-Normal0">
          <float_array id="chassis_rwheel_front_link1-Normal0-array" count="882">
0.866025 0.500000 -0.000000
0.866025 0.500000 -0.000000
0.997859 0.065403 0.000000
0.997859 0.065403 0.000000
0.999994 0.000685 -0.003443
0.866025 0.500000 -0.000000
0.500000 0.866025 -0.000000
0.500000 0.866025 -0.000000
0.866025 0.500000 -0.000000
0.866025 0.500000 -0.000000
0.866025 0.500000 -0.000000
0.500000 0.866025 -0.000000
0.000000 1.000000 0.000000
0.000000 1.000000 -0.000000
0.500000 0.866025 -0.000000
0.500000 0.866025 -0.000000
0.500000 0.866025 -0.000000
0.000000 1.000000 0.000000
-0.500000 0.866025 0.000000
-0.500000 0.866025 -0.000000
0.000000 1.000000 -0.000000
0.000000 1.000000 -0.000000
0.000000 1.000000 0.000000
-0.500000 0.866025 0.000000
-0.866025 0.500000 0.000000
-0.866025 0.500000 -0.000000
-0.500000 0.866025 -0.000000
-0.500000 0.866025 -0.000000
-0.500000 0.866025 0.000000
-0.866025 0.500000 0.000000
-1.000000 0.000000 0.000000
-0.998307 0.057224 -0.010438
-0.866025 0.500000 -0.000000
-0.866025 0.500000 -0.000000
-0.866025 0.500000 0.000000
-1.000000 0.000000 0.000000
-0.865678 -0.500589 -0.003443
-0.831470 -0.555570 0.000000
-0.986933 -0.160317 -0.016160
-0.865678 -0.500589 -0.003443
-0.986933 -0.160317 -0.016160
-0.998307 0.057224 -0.010438
-1.000000 0.000000 0.000000
-0.865678 -0.500589 -0.003443
-0.998307 0.057224 -0.010438
-0.500000 -0.866025 0.000000
-0.500000 -0.866025 0.000000
-0.831470 -0.555570 0.000000
-0.831470 -0.555570 0.000000
-0.865678 -0.500589 -0.003443
-0.500000 -0.866025 0.000000
-0.000000 -1.000000 -0.000000
-0.000001 -1.000000 0.000000
-0.500000 -0.866025 0.000000
-0.500000 -0.866025 0.000000
-0.500000 -0.866025 0.000000
-0.000000 -1.000000 -0.000000
0.499999 -0.866026 -0.000000
0.499999 -0.866026 -0.000000
-0.000001 -1.000000 0.000000
-0.000001 -1.000000 0.000000
-0.000000 -1.000000 -0.000000
0.499999 -0.866026 -0.000000
0.866025 -0.500000 -0.000000
0.840292 -0.541731 -0.020909
0.499999 -0.866026 -0.000000
0.499999 -0.866026 -0.000000
0.499999 -0.866026 -0.000000
0.866025 -0.500000 -0.000000
0.999994 0.000685 -0.003443
0.997859 0.065403 0.000000
0.983945 -0.177738 -0.016186
0.999994 0.000685 -0.003443
0.983945 -0.177738 -0.016186
0.840292 -0.541731 -0.020909
0.866025 -0.500000 -0.000000
0.999994 0.000685 -0.003443
0.840292 -0.541731 -0.020909
0.866025 0.500000 0.000000
0.997859 0.065403 0.000000
0.997859 0.065403 0.000000
0.997859 0.065403 0.000000
0.866025 0.500000 -0.000000
0.866025 0.500000 0.000000
0.500000 0.866025 0.000000
0.866025 0.500000 0.000000
0.866025 0.500000 -0.000000
0.866025 0.500000 -0.000000
0.500000 0.866025 -0.000000
0.500000 0.866025 0.000000
0.000000 1.000000 -0.000000
0.500000 0.866025 0.000000
0.500000 0.866025 -0.000000
0.500000 0.866025 -0.000000
0.000000 1.000000 -0.000000
0.000000 1.000000 -0.000000
-0.500000 0.866026 -0.000000
0.000000 1.000000 -0.000000
0.000000 1.000000 -0.000000
0.000000 1.000000 -0.000000
-0.500000 0.866025 -0.000000
-0.500000 0.866026 -0.000000
-0.866025 0.500000 -0.000000
-0.500000 0.866026 -0.000000
-0.500000 0.866025 -0.000000
-0.500000 0.866025 -0.000000
-0.866025 0.500000 -0.000000
-0.866025 0.500000 -0.000000
-0.997859 0.065403 -0.000000
-0.866025 0.500000 -0.000000
-0.866025 0.500000 -0.000000
-0.866025 0.500000 -0.000000
-0.998307 0.057224 -0.010438
-0.997859 0.065403 -0.000000
-0.997859 -0.065403 -0.000000
-0.997859 0.065403 -0.000000
-0.998307 0.057224 -0.010438
-0.998307 0.057224 -0.010438
-0.986933 -0.160317 -0.016160
-0.997859 -0.065403 -0.000000
0.997859 0.065403 0.000000
0.997859 -0.065403 0.000000
0.983945 -0.177738 -0.016186
0.983945 -0.177738 -0.016186
0.997859 0.065403 0.000000
0.997859 0.065403 0.000000
-0.986933 -0.160317 -0.016160
-0.999916 -0.007893 0.010252
-0.999961 -0.004320 0.007709
-0.999961 -0.004320 0.007709
-0.997859 -0.065403 -0.000000
-0.986933 -0.160317 -0.016160
-0.179372 -0.339739 -0.923257
-0.000000 -0.513873 -0.857866
-0.085015 -0.536937 -0.839328
-0.446183 -0.226731 -0.865745
-0.179372 -0.339739 -0.923257
-0.085015 -0.536937 -0.839328
-0.507650 -0.210275 -0.835509
-0.446183 -0.226731 -0.865745
-0.085015 -0.536937 -0.839328
0.983945 -0.177738 -0.016186
0.997859 -0.065403 0.000000
0.999954 -0.005869 0.007624
0.999954 -0.005869 0.007624
0.999875 -0.007553 0.013914
0.983945 -0.177738 -0.016186
0.000000 0.000000 1.000000
0.000000 0.294456 0.955665
-0.000000 0.294456 0.955665
-0.000000 0.294456 0.955665
0.000000 0.000000 1.000000
0.000000 0.000000 1.000000
-0.000000 -0.000001 1.000000
-0.000000 -0.000001 1.000000
-0.000000 -0.000001 1.000000
-0.000000 -0.000001 1.000000
-0.000000 -0.000001 1.000000
-0.000000 -0.000001 1.000000
-0.000000 -0.992926 -0.118738
0.000000 -1.000000 0.000000
0.000000 -1.000000 0.000000
0.000000 -1.000000 0.000000
0.000000 -0.992926 -0.118738
-0.000000 -0.992926 -0.118738
0.995482 -0.009664 0.094459
0.995069 -0.000000 0.099186
0.994866 0.004789 0.101084
0.994866 0.004789 0.101084
0.996513 0.020461 0.080888
0.995482 -0.009664 0.094459
-0.000000 0.966588 0.256335
0.000000 1.000000 0.000000
0.000000 1.000000 0.000000
0.000000 1.000000 0.000000
-0.000000 0.966588 0.256335
-0.000000 0.966588 0.256335
-0.990352 0.016985 0.137532
-0.995870 0.004905 0.090657
-0.994866 0.004789 0.101084
-0.994866 0.004789 0.101084
-0.995069 0.000000 0.099186
-0.990352 0.016985 0.137532
0.000000 0.000000 1.000000
0.000000 0.000000 1.000000
0.000000 0.000000 1.000000
0.000000 0.000000 1.000000
0.000000 0.000000 1.000000
0.000000 0.000000 1.000000
0.000000 0.000000 1.000000
0.000000 0.000000 1.000000
0.000000 0.000000 1.000000
0.000000 0.000000 1.000000
0.000000 0.000000 1.000000
0.000000 0.000000 1.000000
0.000000 0.000000 1.000000
0.000000 0.000000 1.000000
0.000000 0.000000 1.000000
0.000000 0.000000 1.000000
0.000000 0.000000 1.000000
0.000000 0.000000 1.000000
0.000000 0.000000 1.000000
0.000000 0.000000 1.000000
0.000000 0.000000 1.000000
-0.999961 -0.004320 0.007709
-0.999916 -0.007893 0.010252
-0.999396 -0.017145 0.030211
-0.999396 -0.017145 0.030211
-0.998136 -0.008920 0.060372
-0.999961 -0.004320 0.007709
-0.085015 -0.536937 -0.839328
0.085015 -0.536937 -0.839328
-0.000000 -0.855590 -0.517654
-0.000000 -0.855590 -0.517654
-0.000000 -0.855590 -0.517654
-0.085015 -0.536937 -0.839328
0.999875 -0.007553 0.013914
0.999954 -0.005869 0.007624
0.996994 -0.041330 0.065528
0.996994 -0.041330 0.065528
0.998976 -0.007904 0.044552
0.999875 -0.007553 0.013914
-0.000000 0.294456 0.955665
0.000000 0.294456 0.955665
-0.000000 0.739702 0.672934
-0.000000 0.739702 0.672934
-0.000000 0.739703 0.672934
-0.000000 0.294456 0.955665
-0.000000 -0.992926 -0.118738
0.000000 -0.992926 -0.118738
-0.000000 -0.855590 -0.517654
-0.000000 -0.855590 -0.517654
-0.000000 -0.855590 -0.517654
-0.000000 -0.992926 -0.118738
0.995482 -0.009664 0.094459
0.996513 0.020461 0.080888
0.998976 -0.007904 0.044552
0.998976 -0.007904 0.044552
0.996994 -0.041330 0.065528
0.995482 -0.009664 0.094459
-0.000000 0.966588 0.256335
-0.000000 0.966588 0.256335
-0.000000 0.739703 0.672934
-0.000000 0.739703 0.672934
-0.000000 0.739702 0.672934
-0.000000 0.966588 0.256335
-0.995870 0.004905 0.090657
-0.990352 0.016985 0.137532
-0.998136 -0.008920 0.060372
-0.998136 -0.008920 0.060372
-0.999396 -0.017145 0.030211
-0.995870 0.004905 0.090657
0.446182 -0.226731 -0.865745
0.507649 -0.210276 -0.835510
0.085015 -0.536937 -0.839328
0.179371 -0.339739 -0.923257
0.446182 -0.226731 -0.865745
0.085015 -0.536937 -0.839328
-0.000000 -0.513873 -0.857866
0.179371 -0.339739 -0.923257
0.085015 -0.536937 -0.839328
-0.000000 -0.513873 -0.857866
0.085015 -0.536937 -0.839328
-0.085015 -0.536937 -0.839328
0.000000 -0.000000 -1.000000
0.000000 0.000000 -1.000000
-0.000000 -0.000000 -1.000000
-0.000000 -0.000000 -1.000000
0.000000 0.000000 -1.000000
-0.000000 -0.000000 -1.000000
-0.000000 -0.000000 -1.000000
0.000000 -0.000000 -1.000000
-0.000000 -0.000000 -1.000000
-0.000000 -0.000000 -1.000000
-0.000000 -0.000000 -1.000000
-0.000000 -0.000000 -1.000000
-0.000000 -0.000000 -1.000000
0.000000 0.000000 -1.000000
-0.000000 0.000000 -1.000000
-0.000000 0.000000 -1.000000
0.000000 0.000000 -1.000000
0.000000 0.000000 -1.000000
-0.000000 -0.000000 -1.000000
-0.000000 0.000000 -1.000000
0.000000 0.000000 -1.000000
-0.000000 -0.000000 -1.000000
-0.000000 -0.000000 -1.000000
0.000000 0.000000 -1.000000
0.000000 -0.000000 -1.000000
-0.000000 -0.000000 -1.000000
0.000000 0.000000 -1.000000
0.000000 -0.000000 -1.000000
0.000000 -0.000000 -1.000000
0.000000 0.000000 -1.000000
</float_array>
          <technique_common>
            <accessor source="#chassis_rwheel_front_link1-Normal0-array" count="294" stride="3">
              <param name="X" type="float"/>
              <param name="Y" type="float"/>
              <param name="Z" type="float"/>
            </accessor>
          </technique_common>
        </source>
        <source id="chassis_rwheel_front_link1-UV0">
          <float_array id="chassis_rwheel_front_link1-UV0-array" count="108">
0.750000 0.000000
0.833333 0.000000
0.916667 0.000000
1.000000 0.000000
0.083333 0.000000
0.166667 0.000000
0.250000 0.000000
0.333333 0.000000
0.416667 0.000000
0.500000 0.000000
0.583333 0.000000
0.666667 0.000000
0.750000 1.000000
0.833333 1.000000
0.916667 1.000000
1.000000 1.000000
0.083333 1.000000
0.166667 1.000000
0.250000 1.000000
0.291667 1.000000
0.708333 1.000000
-0.000000 0.000000
-0.000000 1.000000
0.750000 0.500000
0.833333 0.500000
0.916667 0.500000
1.000000 0.500000
-0.000000 0.500000
0.083333 0.500000
0.166667 0.500000
0.250000 0.500000
0.291667 0.500000
0.333333 0.500000
0.416667 0.500000
0.500000 0.500000
0.583333 0.500000
0.666667 0.500000
0.708333 0.500000
0.291667 0.500000
0.708333 0.500000
0.291667 1.000000
0.708333 1.000000
0.291667 1.000000
0.708333 1.000000
0.708333 1.000000
0.291667 1.000000
0.291667 0.500000
0.291667 0.598121
0.708333 0.598121
0.708333 0.500000
0.708333 1.000000
0.708333 1.000000
0.291667 1.000000
0.291667 1.000000
</float_array>
          <technique_common>
            <accessor source="#chassis_rwheel_front_link1-UV0-array" count="54" stride="2">
              <param name="S" type="float"/>
              <param name="T" type="float"/>
            </accessor>
          </technique_common>
        </source>
        <vertices id="chassis_rwheel_front_link1-VERTEX">
          <input semantic="POSITION" source="#chassis_rwheel_front_link1-POSITION"/>
        </vertices>
        <triangles count="98" material="black_01">
          <input semantic="VERTEX" offset="0" source="#chassis_rwheel_front_link1-VERTEX"/>
          <input semantic="NORMAL" offset="1" source="#chassis_rwheel_front_link1-Normal0"/>
          <input semantic="TEXCOORD" offset="2" set="0" source="#chassis_rwheel_front_link1-UV0"/>
          <p> 1 0 1 22 1 24 21 2 23 21 3 23 0 4 0 1 5 1 2 6 2 23 7 25 22 8 24 22 9 24 1 10 1 2 11 2 3 12 3 24 13 26 23 14 25 23 15 25 2 16 2 3 17 3 4 18 4 25 19 28 24 20 27 24 21 27 3 22 21 4 23 4 5 24 5 26 25 29 25 26 28 25 27 28 4 28 4 5 29 5 6 30 6 27 31 30 26 32 29 26 33 29 5 34 5 6 35 6 7 36 7 29 37 32 28 38 31 7 39 7 28 40 31 27 41 30 6 42 6 7 43 7 27 44 30 8 45 8 30 46 33 29 47 32 29 48 32 7 49 7 8 50 8 9 51 9 31 52 34 30 53 33 30 54 33 8 55 8 9 56 9 10 57 10 32 58 35 31 59 34 31 60 34 9 61 9 10 62 10 11 63 11 33 64 36 32 65 35 32 66 35 10 67 10 11 68 11 0 69 0 21 70 23 34 71 37 0 72 0 34 73 37 33 74 36 11 75 11 0 76 0 33 77 36 13 78 13 12 79 12 21 80 23 21 81 23 22 82 24 13 83 13 14 84 14 13 85 13 22 86 24 22 87 24 23 88 25 14 89 14 15 90 15 14 91 14 23 92 25 23 93 25 24 94 26 15 95 15 16 96 16 15 97 22 24 98 27 24 99 27 25 100 28 16 101 16 17 102 17 16 103 16 25 104 28 25 105 28 26 106 29 17 107 17 18 108 18 17 109 17 26 110 29 26 111 29 27 112 30 18 113 18 19 114 19 18 115 18 27 116 30 27 117 30 28 118 31 19 119 19 12 120 12 20 121 20 34 122 37 34 123 37 21 124 23 12 125 12 28 126 31 40 127 46 50 128 53 50 129 53 19 130 19 28 131 31 30 132 33 31 133 34 40 134 46 29 135 32 30 136 33 40 137 46 28 138 31 29 139 32 40 140 46 34 141 37 20 142 20 46 143 50 46 144 50 44 145 49 34 146 37 19 147 19 50 148 53 46 149 50 46 150 50 20 151 20 19 152 19 38 153 45 35 154 42 36 155 43 36 156 43 37 157 44 38 158 45 43 159 48 36 160 43 35 161 42 35 162 42 41 163 47 43 164 48 47 165 51 37 166 44 36 167 43 36 168 43 43 169 48 47 170 51 49 171 52 38 172 45 37 173 44 37 174 44 47 175 51 49 176 52 49 177 52 41 178 47 35 179 42 35 180 42 38 181 45 49 182 52 14 183 14 15 184 15 16 185 16 16 186 16 17 187 17 18 188 18 14 189 14 16 190 16 18 191 18 18 192 18 19 193 19 20 194 20 14 195 14 18 196 18 20 197 20 14 198 14 20 199 20 12 200 12 13 201 13 14 202 14 12 203 12 50 204 53 40 205 46 39 206 38 39 207 38 48 208 40 50 209 53 40 210 46 44 211 49 42 212 39 42 213 39 39 214 38 40 215 46 44 216 49 46 217 50 45 218 41 45 219 41 42 220 39 44 221 49 46 222 50 50 223 53 48 224 40 48 225 40 45 226 41 46 227 50 43 228 48 41 229 47 39 230 38 39 231 38 42 232 39 43 233 48 47 234 51 43 235 48 42 236 39 42 237 39 45 238 41 47 239 51 49 240 52 47 241 51 45 242 41 45 243 41 48 244 40 49 245 52 41 246 47 49 247 52 48 248 40 48 249 40 39 250 38 41 251 47 33 252 36 34 253 37 44 254 49 32 255 35 33 256 36 44 257 49 31 258 34 32 259 35 44 260 49 31 261 34 44 262 49 40 263 46 11 264 11 10 265 10 9 266 9 9 267 9 8 268 8 7 269 7 7 270 7 6 271 6 5 272 5 9 273 9 7 274 7 5 275 5 5 276 5 4 277 4 3 278 21 3 279 21 2 280 2 1 281 1 5 282 5 3 283 21 1 284 1 9 285 9 5 286 5 1 287 1 11 288 11 9 289 9 1 290 1 0 291 0 11 292 11 1 293 1</p>
        </triangles>
      </mesh>
    </geometry>
  </library_geometries>
  <library_visual_scenes>
    <visual_scene id="chassis_lwheel_rear_link1" name="chassis_lwheel_rear_link1">
      <node name="chassis_rwheel_front_link1" id="chassis_rwheel_front_link1" sid="chassis_rwheel_front_link1">
        <rotate sid="rotateZ">0 0 1 180.000000</rotate>
        <rotate sid="rotateY">0 1 0 0.000019</rotate>
        <rotate sid="rotateX">1 0 0 180.000000</rotate>
        <instance_geometry url="#chassis_rwheel_front_link1-lib">
          <bind_material>
            <technique_common>
              <instance_material symbol="black_01" target="#black_01"/>
            </technique_common>
          </bind_material>
        </instance_geometry>
        <extra>
          <technique profile="FCOLLADA">
            <visibility>1.000000</visibility>
          </technique>
        </extra>
      </node>
      <extra>
        <technique profile="MAX3D">
          <frame_rate>30.000000</frame_rate>
        </technique>
        <technique profile="FCOLLADA">
          <start_time>0.000000</start_time>
          <end_time>3.333333</end_time>
        </technique>
      </extra>
    </visual_scene>
  </library_visual_scenes>
  <scene>
    <instance_visual_scene url="#chassis_lwheel_rear_link1"/>
  </scene>
</COLLADA>
