<?xml version="1.0" encoding="utf-8"?>
<COLLADA xmlns="http://www.collada.org/2005/11/COLLADASchema" version="1.4.1">
  <asset>
    <contributor>
      <author/>
      <authoring_tool>FBX COLLADA exporter</authoring_tool>
      <comments/>
    </contributor>
    <created>2026-06-10T06:33:56Z</created>
    <keywords/>
    <modified>2026-06-10T06:33:56Z</modified>
    <revision/>
    <subject/>
    <title/>
    <unit meter="1.000000" name="centimeter"/>
    <up_axis>Z_UP</up_axis>
  </asset>
  <library_materials>
    <material id="black_01" name="black_01">
      <instance_effect url="#black_01-fx"/>
    </material>
  </library_materials>
  <library_effects>
    <effect id="black_01-fx" name="black_01">
      <profile_COMMON>
        <technique sid="standard">
          <phong>
            <emission>
              <color sid="emission">0.000000  0.000000 0.000000 1.000000</color>
            </emission>
            <ambient>
              <color sid="ambient">0.000000  0.000000 0.000000 1.000000</color>
            </ambient>
            <diffuse>
              <color sid="diffuse">0.000000  0.000000 0.000000 1.000000</color>
            </diffuse>
            <specular>
              <color sid="specular">1.610510  1.610510 1.610510 1.000000</color>
            </specular>
            <shininess>
              <float sid="shininess">45.254833</float>
            </shininess>
          </phong>
        </technique>
      </profile_COMMON>
    </effect>
  </library_effects>
  <library_geometries>
    <geometry id="Cylinder001-Pivot-Pivot-lib" name="Cylinder001-Pivot-PivotMesh">
      <mesh>
        <source id="Cylinder001-Pivot-Pivot-POSITION">
          <float_array id="Cylinder001-Pivot-Pivot-POSITION-array" count="576">
0.070822 0.022866 0.000000
0.068409 0.022866 -0.018330
0.061333 0.022866 -0.035411
0.050079 0.022866 -0.050079
0.035411 0.022866 -0.061333
0.018330 0.022866 -0.068409
0.000000 0.022866 -0.070822
-0.018330 0.022866 -0.068409
-0.035411 0.022866 -0.061333
-0.050079 0.022866 -0.050079
-0.061333 0.022866 -0.035411
-0.068409 0.022866 -0.018330
-0.070822 0.022866 0.000000
-0.068409 0.022866 0.018330
-0.061333 0.022866 0.035411
-0.050079 0.022866 0.050079
-0.035411 0.022866 0.061333
-0.018330 0.022866 0.068409
0.000000 0.022866 0.070822
0.018330 0.022866 0.068409
0.035411 0.022866 0.061333
0.050079 0.022866 0.050079
0.061333 0.022866 0.035411
0.068409 0.022866 0.018330
0.064295 0.022866 0.000000
0.062104 0.022866 -0.016641
0.055681 0.022866 -0.032147
0.045463 0.022866 -0.045463
0.032147 0.022866 -0.055681
0.016641 0.022866 -0.062104
0.000000 0.022866 -0.064295
-0.016641 0.022866 -0.062104
-0.032147 0.022866 -0.055681
-0.045463 0.022866 -0.045463
-0.055681 0.022866 -0.032147
-0.062104 0.022866 -0.016641
-0.064295 0.022866 0.000000
-0.062104 0.022866 0.016641
-0.055681 0.022866 0.032147
-0.045463 0.022866 0.045463
-0.032147 0.022866 0.055681
-0.016641 0.022866 0.062104
0.000000 0.022866 0.064295
0.016641 0.022866 0.062104
0.032147 0.022866 0.055681
0.045463 0.022866 0.045463
0.055681 0.022866 0.032148
0.062104 0.022866 0.016641
0.064295 0.028025 0.000000
0.062104 0.028025 -0.016641
0.055681 0.028025 -0.032147
0.045463 0.028025 -0.045463
0.032147 0.028025 -0.055681
0.016641 0.028025 -0.062104
0.000000 0.028025 -0.064295
-0.016641 0.028025 -0.062104
-0.032147 0.028025 -0.055681
-0.045463 0.028025 -0.045463
-0.055681 0.028025 -0.032147
-0.062104 0.028025 -0.016641
-0.064295 0.028025 0.000000
-0.062104 0.028025 0.016641
-0.055681 0.028025 0.032147
-0.045463 0.028025 0.045463
-0.032147 0.028025 0.055681
-0.016641 0.028025 0.062104
0.000000 0.028025 0.064295
0.016641 0.028025 0.062104
0.032147 0.028025 0.055681
0.045463 0.028025 0.045463
0.055681 0.028025 0.032148
0.062104 0.028025 0.016641
0.051217 0.036607 0.000000
0.049471 0.036607 -0.013256
0.044355 0.036607 -0.025608
0.036216 0.036607 -0.036216
0.025608 0.036607 -0.044355
0.013256 0.036607 -0.049471
0.000000 0.036607 -0.051217
-0.013256 0.036607 -0.049471
-0.025608 0.036607 -0.044355
-0.036216 0.036607 -0.036216
-0.044355 0.036607 -0.025608
-0.049471 0.036607 -0.013256
-0.051217 0.036607 0.000000
-0.049471 0.036607 0.013256
-0.044355 0.036607 0.025608
-0.036216 0.036607 0.036216
-0.025608 0.036607 0.044355
-0.013256 0.036607 0.049471
0.000000 0.036607 0.051217
0.013256 0.036607 0.049471
0.025608 0.036607 0.044355
0.036216 0.036607 0.036216
0.044355 0.036607 0.025608
0.049471 0.036607 0.013256
0.070822 -0.022866 0.000000
0.068409 -0.022866 -0.018330
0.061333 -0.022866 -0.035411
0.050079 -0.022866 -0.050079
0.035411 -0.022866 -0.061333
0.018330 -0.022866 -0.068409
0.000000 -0.022866 -0.070822
-0.018330 -0.022866 -0.068409
-0.035411 -0.022866 -0.061333
-0.050079 -0.022866 -0.050079
-0.061333 -0.022866 -0.035411
-0.068409 -0.022866 -0.018330
-0.070822 -0.022866 0.000000
-0.068409 -0.022866 0.018330
-0.061333 -0.022866 0.035411
-0.050079 -0.022866 0.050079
-0.035411 -0.022866 0.061333
-0.018330 -0.022866 0.068409
0.000000 -0.022866 0.070822
0.018330 -0.022866 0.068409
0.035411 -0.022866 0.061333
0.050079 -0.022866 0.050079
0.061333 -0.022866 0.035411
0.068409 -0.022866 0.018330
0.064295 -0.022866 0.000000
0.062104 -0.022866 -0.016641
0.055681 -0.022866 -0.032147
0.045463 -0.022866 -0.045463
0.032147 -0.022866 -0.055681
0.016641 -0.022866 -0.062104
0.000000 -0.022866 -0.064295
-0.016641 -0.022866 -0.062104
-0.032147 -0.022866 -0.055681
-0.045463 -0.022866 -0.045463
-0.055681 -0.022866 -0.032147
-0.062104 -0.022866 -0.016641
-0.064295 -0.022866 0.000000
-0.062104 -0.022866 0.016641
-0.055681 -0.022866 0.032147
-0.045463 -0.022866 0.045463
-0.032147 -0.022866 0.055681
-0.016641 -0.022866 0.062104
0.000000 -0.022866 0.064295
0.016641 -0.022866 0.062104
0.032147 -0.022866 0.055681
0.045463 -0.022866 0.045463
0.055681 -0.022866 0.032148
0.062104 -0.022866 0.016641
0.064295 -0.028025 0.000000
0.062104 -0.028025 -0.016641
0.055681 -0.028025 -0.032147
0.045463 -0.028025 -0.045463
0.032147 -0.028025 -0.055681
0.016641 -0.028025 -0.062104
0.000000 -0.028025 -0.064295
-0.016641 -0.028025 -0.062104
-0.032147 -0.028025 -0.055681
-0.045463 -0.028025 -0.045463
-0.055681 -0.028025 -0.032147
-0.062104 -0.028025 -0.016641
-0.064295 -0.028025 0.000000
-0.062104 -0.028025 0.016641
-0.055681 -0.028025 0.032147
-0.045463 -0.028025 0.045463
-0.032147 -0.028025 0.055681
-0.016641 -0.028025 0.062104
0.000000 -0.028025 0.064295
0.016641 -0.028025 0.062104
0.032147 -0.028025 0.055681
0.045463 -0.028025 0.045463
0.055681 -0.028025 0.032148
0.062104 -0.028025 0.016641
0.051217 -0.036607 0.000000
0.049471 -0.036607 -0.013256
0.044355 -0.036607 -0.025608
0.036216 -0.036607 -0.036216
0.025608 -0.036607 -0.044355
0.013256 -0.036607 -0.049471
0.000000 -0.036607 -0.051217
-0.013256 -0.036607 -0.049471
-0.025608 -0.036607 -0.044355
-0.036216 -0.036607 -0.036216
-0.044355 -0.036607 -0.025608
-0.049471 -0.036607 -0.013256
-0.051217 -0.036607 0.000000
-0.049471 -0.036607 0.013256
-0.044355 -0.036607 0.025608
-0.036216 -0.036607 0.036216
-0.025608 -0.036607 0.044355
-0.013256 -0.036607 0.049471
0.000000 -0.036607 0.051217
0.013256 -0.036607 0.049471
0.025608 -0.036607 0.044355
0.036216 -0.036607 0.036216
0.044355 -0.036607 0.025608
0.049471 -0.036607 0.013256
</float_array>
          <technique_common>
            <accessor source="#Cylinder001-Pivot-Pivot-POSITION-array" count="192" stride="3">
              <param name="X" type="float"/>
              <param name="Y" type="float"/>
              <param name="Z" type="float"/>
            </accessor>
          </technique_common>
        </source>
        <source id="Cylinder001-Pivot-Pivot-Normal0">
          <float_array id="Cylinder001-Pivot-Pivot-Normal0-array" count="3420">
0.000000 1.000000 0.000000
0.000000 1.000000 0.000000
0.000000 1.000000 0.000000
0.000000 1.000000 0.000000
0.000000 1.000000 0.000000
0.000000 1.000000 0.000000
0.000000 1.000000 0.000000
0.000000 1.000000 0.000000
0.000000 1.000000 0.000000
0.000000 1.000000 0.000000
0.000000 1.000000 0.000000
0.000000 1.000000 0.000000
0.000000 1.000000 0.000000
0.000000 1.000000 0.000000
0.000000 1.000000 0.000000
0.000000 1.000000 0.000000
0.000000 1.000000 0.000000
0.000000 1.000000 0.000000
0.000000 1.000000 0.000000
0.000000 1.000000 0.000000
0.000000 1.000000 0.000000
0.000000 1.000000 0.000000
0.000000 1.000000 0.000000
0.000000 1.000000 0.000000
0.000000 1.000000 0.000000
0.000000 1.000000 0.000000
0.000000 1.000000 0.000000
0.000000 1.000000 0.000000
0.000000 1.000000 0.000000
0.000000 1.000000 0.000000
0.000000 1.000000 0.000000
0.000000 1.000000 0.000000
0.000000 1.000000 0.000000
0.000000 1.000000 0.000000
0.000000 1.000000 0.000000
0.000000 1.000000 0.000000
0.000000 1.000000 0.000000
0.000000 1.000000 0.000000
0.000000 1.000000 0.000000
0.000000 1.000000 0.000000
0.000000 1.000000 0.000000
0.000000 1.000000 0.000000
0.000000 1.000000 0.000000
0.000000 1.000000 0.000000
0.000000 1.000000 0.000000
0.000000 1.000000 0.000000
0.000000 1.000000 0.000000
0.000000 1.000000 0.000000
0.000000 1.000000 0.000000
0.000000 1.000000 0.000000
0.000000 1.000000 0.000000
0.000000 1.000000 0.000000
0.000000 1.000000 0.000000
0.000000 1.000000 0.000000
0.000000 1.000000 0.000000
0.000000 1.000000 0.000000
0.000000 1.000000 0.000000
0.000000 1.000000 0.000000
0.000000 1.000000 0.000000
0.000000 1.000000 0.000000
0.000000 1.000000 0.000000
0.000000 1.000000 0.000000
0.000000 1.000000 0.000000
0.000000 1.000000 0.000000
0.000000 1.000000 0.000000
0.000000 1.000000 0.000000
0.000000 1.000000 0.000000
0.000000 1.000000 0.000000
0.000000 1.000000 0.000000
0.000000 1.000000 0.000000
0.000000 1.000000 0.000000
0.000000 1.000000 0.000000
0.000000 1.000000 0.000000
0.000000 1.000000 0.000000
0.000000 1.000000 0.000000
0.000000 1.000000 0.000000
0.000000 1.000000 0.000000
0.000000 1.000000 0.000000
0.000000 1.000000 0.000000
0.000000 1.000000 0.000000
0.000000 1.000000 0.000000
0.000000 1.000000 0.000000
0.000000 1.000000 0.000000
0.000000 1.000000 0.000000
0.000000 1.000000 0.000000
0.000000 1.000000 0.000000
0.000000 1.000000 0.000000
0.000000 1.000000 0.000000
0.000000 1.000000 0.000000
0.000000 1.000000 0.000000
0.000000 1.000000 0.000000
0.000000 1.000000 0.000000
0.000000 1.000000 0.000000
0.000000 1.000000 0.000000
0.000000 1.000000 0.000000
0.000000 1.000000 0.000000
0.000000 1.000000 0.000000
0.000000 1.000000 0.000000
0.000000 1.000000 0.000000
0.000000 1.000000 0.000000
0.000000 1.000000 0.000000
0.000000 1.000000 0.000000
0.000000 1.000000 0.000000
0.000000 1.000000 0.000000
0.000000 1.000000 0.000000
0.000000 1.000000 0.000000
0.000000 1.000000 0.000000
0.000000 1.000000 0.000000
0.000000 1.000000 0.000000
0.000000 1.000000 0.000000
0.000000 1.000000 0.000000
0.000000 1.000000 0.000000
0.000000 1.000000 0.000000
0.000000 1.000000 0.000000
0.000000 1.000000 0.000000
0.000000 1.000000 0.000000
0.000000 1.000000 0.000000
0.000000 1.000000 0.000000
0.000000 1.000000 0.000000
0.000000 1.000000 0.000000
0.000000 1.000000 0.000000
0.000000 1.000000 0.000000
0.000000 1.000000 0.000000
0.000000 1.000000 0.000000
0.000000 1.000000 0.000000
0.000000 1.000000 0.000000
0.000000 1.000000 0.000000
0.000000 1.000000 0.000000
0.000000 1.000000 0.000000
0.000000 1.000000 0.000000
0.000000 1.000000 0.000000
0.000000 1.000000 0.000000
0.000000 1.000000 0.000000
0.000000 1.000000 0.000000
0.000000 1.000000 0.000000
0.000000 1.000000 0.000000
0.000000 1.000000 0.000000
0.000000 1.000000 0.000000
0.000000 1.000000 0.000000
0.000000 1.000000 0.000000
0.000000 1.000000 0.000000
0.000000 1.000000 0.000000
0.000000 1.000000 0.000000
0.000000 1.000000 0.000000
0.965930 0.000000 -0.258804
1.000000 0.000000 0.000000
1.000000 0.000000 0.000000
1.000000 0.000000 0.000000
0.965930 0.000000 -0.258804
0.965930 0.000000 -0.258804
0.866020 0.000000 -0.500009
0.965930 0.000000 -0.258804
0.965930 0.000000 -0.258804
0.965930 0.000000 -0.258804
0.866020 0.000000 -0.500009
0.866020 0.000000 -0.500009
0.707107 0.000000 -0.707107
0.866020 0.000000 -0.500009
0.866020 0.000000 -0.500009
0.866020 0.000000 -0.500009
0.707107 0.000000 -0.707107
0.707107 0.000000 -0.707107
0.500009 0.000000 -0.866020
0.707107 0.000000 -0.707107
0.707107 0.000000 -0.707107
0.707107 0.000000 -0.707107
0.500009 0.000000 -0.866020
0.500009 0.000000 -0.866020
0.258823 0.000000 -0.965925
0.500009 0.000000 -0.866020
0.500009 0.000000 -0.866020
0.500009 0.000000 -0.866020
0.258804 0.000000 -0.965930
0.258823 0.000000 -0.965925
0.000000 0.000000 -1.000000
0.258823 0.000000 -0.965925
0.258804 0.000000 -0.965930
0.258804 0.000000 -0.965930
0.000000 0.000000 -1.000000
0.000000 0.000000 -1.000000
-0.258823 0.000000 -0.965925
0.000000 0.000000 -1.000000
0.000000 0.000000 -1.000000
0.000000 0.000000 -1.000000
-0.258804 0.000000 -0.965930
-0.258823 0.000000 -0.965925
-0.500009 0.000000 -0.866020
-0.258823 0.000000 -0.965925
-0.258804 0.000000 -0.965930
-0.258804 0.000000 -0.965930
-0.500009 0.000000 -0.866020
-0.500009 0.000000 -0.866020
-0.707107 0.000000 -0.707107
-0.500009 0.000000 -0.866020
-0.500009 0.000000 -0.866020
-0.500009 0.000000 -0.866020
-0.707107 0.000000 -0.707107
-0.707107 0.000000 -0.707107
-0.866020 0.000000 -0.500009
-0.707107 0.000000 -0.707107
-0.707107 0.000000 -0.707107
-0.707107 0.000000 -0.707107
-0.866020 0.000000 -0.500009
-0.866020 0.000000 -0.500009
-0.965930 0.000000 -0.258804
-0.866020 0.000000 -0.500009
-0.866020 0.000000 -0.500009
-0.866020 0.000000 -0.500009
-0.965930 0.000000 -0.258804
-0.965930 0.000000 -0.258804
-1.000000 0.000000 0.000000
-0.965930 0.000000 -0.258804
-0.965930 0.000000 -0.258804
-0.965930 0.000000 -0.258804
-1.000000 0.000000 0.000000
-1.000000 0.000000 0.000000
-0.965930 0.000000 0.258804
-1.000000 0.000000 0.000000
-1.000000 0.000000 0.000000
-1.000000 0.000000 0.000000
-0.965930 0.000000 0.258804
-0.965930 0.000000 0.258804
-0.866020 0.000000 0.500009
-0.965930 0.000000 0.258804
-0.965930 0.000000 0.258804
-0.965930 0.000000 0.258804
-0.866036 0.000000 0.499981
-0.866020 0.000000 0.500009
-0.707107 0.000000 0.707107
-0.866020 0.000000 0.500009
-0.866036 0.000000 0.499981
-0.866036 0.000000 0.499981
-0.707107 0.000000 0.707107
-0.707107 0.000000 0.707107
-0.499993 0.000000 0.866029
-0.707107 0.000000 0.707107
-0.707107 0.000000 0.707107
-0.707107 0.000000 0.707107
-0.500009 0.000000 0.866020
-0.499993 0.000000 0.866029
-0.258823 0.000000 0.965925
-0.499993 0.000000 0.866029
-0.500009 0.000000 0.866020
-0.500009 0.000000 0.866020
-0.258804 0.000000 0.965930
-0.258823 0.000000 0.965925
0.000000 0.000000 1.000000
-0.258823 0.000000 0.965925
-0.258804 0.000000 0.965930
-0.258804 0.000000 0.965930
0.000000 0.000000 1.000000
0.000000 0.000000 1.000000
0.258823 0.000000 0.965925
0.000000 0.000000 1.000000
0.000000 0.000000 1.000000
0.000000 0.000000 1.000000
0.258804 0.000000 0.965930
0.258823 0.000000 0.965925
0.499965 0.000000 0.866046
0.258823 0.000000 0.965925
0.258804 0.000000 0.965930
0.258804 0.000000 0.965930
0.499981 0.000000 0.866036
0.499965 0.000000 0.866046
0.707107 0.000000 0.707107
0.499965 0.000000 0.866046
0.499981 0.000000 0.866036
0.499981 0.000000 0.866036
0.707107 0.000000 0.707107
0.707107 0.000000 0.707107
0.866020 0.000000 0.500009
0.707107 0.000000 0.707107
0.707107 0.000000 0.707107
0.707107 0.000000 0.707107
0.866020 0.000000 0.500009
0.866020 0.000000 0.500009
0.965930 0.000000 0.258804
0.866020 0.000000 0.500009
0.866020 0.000000 0.500009
0.866020 0.000000 0.500009
0.965930 0.000000 0.258804
0.965930 0.000000 0.258804
1.000000 0.000000 0.000000
0.965930 0.000000 0.258804
0.965930 0.000000 0.258804
0.965930 0.000000 0.258804
1.000000 0.000000 0.000000
1.000000 0.000000 0.000000
1.000000 0.000000 0.000000
0.965927 0.000000 -0.258814
0.965927 0.000000 -0.258814
0.965927 0.000000 -0.258814
1.000000 0.000000 0.000000
1.000000 0.000000 0.000000
0.965927 0.000000 -0.258814
0.866029 0.000000 -0.499993
0.866045 0.000000 -0.499965
0.866045 0.000000 -0.499965
0.965927 0.000000 -0.258814
0.965927 0.000000 -0.258814
0.866029 0.000000 -0.499993
0.707107 0.000000 -0.707107
0.707107 0.000000 -0.707107
0.707107 0.000000 -0.707107
0.866045 0.000000 -0.499965
0.866029 0.000000 -0.499993
0.707107 0.000000 -0.707107
0.500009 0.000000 -0.866020
0.500009 0.000000 -0.866020
0.500009 0.000000 -0.866020
0.707107 0.000000 -0.707107
0.707107 0.000000 -0.707107
0.500009 0.000000 -0.866020
0.258814 0.000000 -0.965927
0.258814 0.000000 -0.965927
0.258814 0.000000 -0.965927
0.500009 0.000000 -0.866020
0.500009 0.000000 -0.866020
0.258814 0.000000 -0.965927
0.000000 0.000000 -1.000000
0.000000 0.000000 -1.000000
0.000000 0.000000 -1.000000
0.258814 0.000000 -0.965927
0.258814 0.000000 -0.965927
0.000000 0.000000 -1.000000
-0.258814 0.000000 -0.965927
-0.258814 0.000000 -0.965927
-0.258814 0.000000 -0.965927
0.000000 0.000000 -1.000000
0.000000 0.000000 -1.000000
-0.258814 0.000000 -0.965927
-0.500009 0.000000 -0.866020
-0.500009 0.000000 -0.866020
-0.500009 0.000000 -0.866020
-0.258814 0.000000 -0.965927
-0.258814 0.000000 -0.965927
-0.500009 0.000000 -0.866020
-0.707107 0.000000 -0.707107
-0.707107 0.000000 -0.707107
-0.707107 0.000000 -0.707107
-0.500009 0.000000 -0.866020
-0.500009 0.000000 -0.866020
-0.707107 0.000000 -0.707107
-0.866029 0.000000 -0.499993
-0.866029 0.000000 -0.499993
-0.866029 0.000000 -0.499993
-0.707107 0.000000 -0.707107
-0.707107 0.000000 -0.707107
-0.866029 0.000000 -0.499993
-0.965927 0.000000 -0.258814
-0.965927 0.000000 -0.258814
-0.965927 0.000000 -0.258814
-0.866029 0.000000 -0.499993
-0.866029 0.000000 -0.499993
-0.965927 0.000000 -0.258814
-1.000000 0.000000 0.000000
-1.000000 0.000000 0.000000
-1.000000 0.000000 0.000000
-0.965927 0.000000 -0.258814
-0.965927 0.000000 -0.258814
-1.000000 0.000000 0.000000
-0.965927 0.000000 0.258814
-0.965927 0.000000 0.258814
-0.965927 0.000000 0.258814
-1.000000 0.000000 0.000000
-1.000000 0.000000 0.000000
-0.965927 0.000000 0.258814
-0.866029 0.000000 0.499993
-0.866029 0.000000 0.499993
-0.866029 0.000000 0.499993
-0.965927 0.000000 0.258814
-0.965927 0.000000 0.258814
-0.866029 0.000000 0.499993
-0.707107 0.000000 0.707107
-0.707107 0.000000 0.707107
-0.707107 0.000000 0.707107
-0.866029 0.000000 0.499993
-0.866029 0.000000 0.499993
-0.707107 0.000000 0.707107
-0.500009 0.000000 0.866020
-0.500009 0.000000 0.866020
-0.500009 0.000000 0.866020
-0.707107 0.000000 0.707107
-0.707107 0.000000 0.707107
-0.500009 0.000000 0.866020
-0.258814 0.000000 0.965927
-0.258814 0.000000 0.965927
-0.258814 0.000000 0.965927
-0.500009 0.000000 0.866020
-0.500009 0.000000 0.866020
-0.258814 0.000000 0.965927
-0.000001 0.000000 1.000000
-0.000001 0.000000 1.000000
-0.000001 0.000000 1.000000
-0.258814 0.000000 0.965927
-0.258814 0.000000 0.965927
-0.000001 0.000000 1.000000
0.258814 0.000000 0.965927
0.258814 0.000000 0.965927
0.258814 0.000000 0.965927
-0.000001 0.000000 1.000000
-0.000001 0.000000 1.000000
0.258814 0.000000 0.965927
0.500009 0.000000 0.866020
0.500009 0.000000 0.866020
0.500009 0.000000 0.866020
0.258814 0.000000 0.965927
0.258814 0.000000 0.965927
0.500009 0.000000 0.866020
0.707107 0.000000 0.707107
0.707107 0.000000 0.707107
0.707107 0.000000 0.707107
0.500009 0.000000 0.866020
0.500009 0.000000 0.866020
0.707107 0.000000 0.707107
0.866029 0.000000 0.499993
0.866029 0.000000 0.499993
0.866029 0.000000 0.499993
0.707107 0.000000 0.707107
0.707107 0.000000 0.707107
0.866029 0.000000 0.499993
0.965927 0.000000 0.258814
0.965927 0.000000 0.258814
0.965927 0.000000 0.258814
0.866029 0.000000 0.499993
0.866029 0.000000 0.499993
0.965927 0.000000 0.258814
1.000000 0.000000 0.000000
1.000000 0.000000 0.000000
1.000000 0.000000 0.000000
0.965927 0.000000 0.258814
0.965927 0.000000 0.258814
0.548599 0.836086 0.000000
0.529910 0.836083 -0.141986
0.529899 0.836089 -0.141993
0.529899 0.836089 -0.141993
0.548599 0.836086 0.000000
0.548599 0.836086 0.000000
0.529910 0.836083 -0.141986
0.475112 0.836084 -0.274286
0.475127 0.836072 -0.274295
0.475127 0.836072 -0.274295
0.529899 0.836089 -0.141993
0.529910 0.836083 -0.141986
0.475112 0.836084 -0.274286
0.387936 0.836069 -0.387936
0.387916 0.836070 -0.387953
0.387916 0.836070 -0.387953
0.475127 0.836072 -0.274295
0.475112 0.836084 -0.274286
0.387936 0.836069 -0.387936
0.274321 0.836075 -0.475107
0.274304 0.836079 -0.475109
0.274304 0.836079 -0.475109
0.387916 0.836070 -0.387953
0.387936 0.836069 -0.387936
0.274321 0.836075 -0.475107
0.141986 0.836084 -0.529909
0.141986 0.836084 -0.529909
0.141986 0.836084 -0.529909
0.274304 0.836079 -0.475109
0.274321 0.836075 -0.475107
0.141986 0.836084 -0.529909
0.000000 0.836097 -0.548582
0.000000 0.836080 -0.548607
0.000000 0.836080 -0.548607
0.141986 0.836084 -0.529909
0.141986 0.836084 -0.529909
0.000000 0.836097 -0.548582
-0.141986 0.836084 -0.529909
-0.141986 0.836084 -0.529909
-0.141986 0.836084 -0.529909
0.000000 0.836080 -0.548607
0.000000 0.836097 -0.548582
-0.141986 0.836084 -0.529909
-0.274321 0.836075 -0.475107
-0.274304 0.836079 -0.475109
-0.274304 0.836079 -0.475109
-0.141986 0.836084 -0.529909
-0.141986 0.836084 -0.529909
-0.274321 0.836075 -0.475107
-0.387936 0.836069 -0.387936
-0.387916 0.836070 -0.387953
-0.387916 0.836070 -0.387953
-0.274304 0.836079 -0.475109
-0.274321 0.836075 -0.475107
-0.387936 0.836069 -0.387936
-0.475112 0.836084 -0.274286
-0.475127 0.836072 -0.274295
-0.475127 0.836072 -0.274295
-0.387916 0.836070 -0.387953
-0.387936 0.836069 -0.387936
-0.475112 0.836084 -0.274286
-0.529910 0.836083 -0.141986
-0.529899 0.836089 -0.141993
-0.529899 0.836089 -0.141993
-0.475127 0.836072 -0.274295
-0.475112 0.836084 -0.274286
-0.529910 0.836083 -0.141986
-0.548599 0.836086 0.000000
-0.548599 0.836086 0.000000
-0.548599 0.836086 0.000000
-0.529899 0.836089 -0.141993
-0.529910 0.836083 -0.141986
-0.548599 0.836086 0.000000
-0.529926 0.836072 0.141990
-0.529899 0.836089 0.141993
-0.529899 0.836089 0.141993
-0.548599 0.836086 0.000000
-0.548599 0.836086 0.000000
-0.529926 0.836072 0.141990
-0.475122 0.836064 0.274329
-0.475127 0.836072 0.274295
-0.475127 0.836072 0.274295
-0.529899 0.836089 0.141993
-0.529926 0.836072 0.141990
-0.475122 0.836064 0.274329
-0.387936 0.836069 0.387936
-0.387916 0.836070 0.387953
-0.387916 0.836070 0.387953
-0.475127 0.836072 0.274295
-0.475122 0.836064 0.274329
-0.387936 0.836069 0.387936
-0.274321 0.836075 0.475107
-0.274312 0.836068 0.475124
-0.274312 0.836068 0.475124
-0.387916 0.836070 0.387953
-0.387936 0.836069 0.387936
-0.274321 0.836075 0.475107
-0.141986 0.836084 0.529909
-0.141990 0.836072 0.529926
-0.141990 0.836072 0.529926
-0.274312 0.836068 0.475124
-0.274321 0.836075 0.475107
-0.141986 0.836084 0.529909
0.000000 0.836063 0.548634
0.000000 0.836069 0.548625
0.000000 0.836069 0.548625
-0.141990 0.836072 0.529926
-0.141986 0.836084 0.529909
0.000000 0.836063 0.548634
0.141986 0.836084 0.529909
0.141990 0.836072 0.529926
0.141990 0.836072 0.529926
0.000000 0.836069 0.548625
0.000000 0.836063 0.548634
0.141986 0.836084 0.529909
0.274321 0.836075 0.475107
0.274312 0.836068 0.475124
0.274312 0.836068 0.475124
0.141990 0.836072 0.529926
0.141986 0.836084 0.529909
0.274321 0.836075 0.475107
0.387936 0.836069 0.387936
0.387916 0.836070 0.387953
0.387916 0.836070 0.387953
0.274312 0.836068 0.475124
0.274321 0.836075 0.475107
0.387936 0.836069 0.387936
0.475127 0.836072 0.274295
0.475127 0.836072 0.274295
0.475127 0.836072 0.274295
0.387916 0.836070 0.387953
0.387936 0.836069 0.387936
0.475127 0.836072 0.274295
0.529926 0.836072 0.141990
0.529899 0.836089 0.141993
0.529899 0.836089 0.141993
0.475127 0.836072 0.274295
0.475127 0.836072 0.274295
0.529926 0.836072 0.141990
0.548599 0.836086 0.000000
0.548599 0.836086 0.000000
0.548599 0.836086 0.000000
0.529899 0.836089 0.141993
0.529926 0.836072 0.141990
0.000000 1.000000 0.000000
0.000000 1.000000 0.000000
0.000000 1.000000 0.000000
0.000000 1.000000 0.000000
0.000000 1.000000 0.000000
0.000000 1.000000 0.000000
0.000000 1.000000 0.000000
0.000000 1.000000 0.000000
0.000000 1.000000 0.000000
0.000000 1.000000 0.000000
0.000000 1.000000 0.000000
0.000000 1.000000 0.000000
0.000000 1.000000 0.000000
0.000000 1.000000 0.000000
0.000000 1.000000 0.000000
0.000000 1.000000 0.000000
0.000000 1.000000 0.000000
0.000000 1.000000 0.000000
0.000000 1.000000 0.000000
0.000000 1.000000 0.000000
0.000000 1.000000 0.000000
0.000000 1.000000 0.000000
0.000000 1.000000 0.000000
0.000000 1.000000 0.000000
0.000000 1.000000 0.000000
0.000000 1.000000 0.000000
0.000000 1.000000 0.000000
0.000000 1.000000 0.000000
0.000000 1.000000 0.000000
0.000000 1.000000 0.000000
0.000000 1.000000 0.000000
0.000000 1.000000 0.000000
0.000000 1.000000 0.000000
0.000000 1.000000 0.000000
0.000000 1.000000 0.000000
0.000000 1.000000 0.000000
0.000000 1.000000 0.000000
0.000000 1.000000 0.000000
0.000000 1.000000 0.000000
0.000000 1.000000 0.000000
0.000000 1.000000 0.000000
0.000000 1.000000 0.000000
0.000000 1.000000 0.000000
0.000000 1.000000 0.000000
0.000000 1.000000 0.000000
0.000000 1.000000 0.000000
0.000000 1.000000 0.000000
0.000000 1.000000 0.000000
0.000000 1.000000 0.000000
0.000000 1.000000 0.000000
0.000000 1.000000 0.000000
0.000000 1.000000 0.000000
0.000000 1.000000 0.000000
0.000000 1.000000 0.000000
0.000000 1.000000 0.000000
0.000000 1.000000 0.000000
0.000000 1.000000 0.000000
0.000000 1.000000 0.000000
0.000000 1.000000 0.000000
0.000000 1.000000 0.000000
0.000000 1.000000 0.000000
0.000000 1.000000 0.000000
0.000000 1.000000 0.000000
0.000000 1.000000 0.000000
0.000000 1.000000 0.000000
0.000000 1.000000 0.000000
0.000000 -1.000000 0.000000
0.000000 -1.000000 0.000000
0.000000 -1.000000 0.000000
0.000000 -1.000000 0.000000
0.000000 -1.000000 0.000000
0.000000 -1.000000 0.000000
0.000000 -1.000000 0.000000
0.000000 -1.000000 0.000000
0.000000 -1.000000 0.000000
0.000000 -1.000000 0.000000
0.000000 -1.000000 0.000000
0.000000 -1.000000 0.000000
0.000000 -1.000000 0.000000
0.000000 -1.000000 0.000000
0.000000 -1.000000 0.000000
0.000000 -1.000000 0.000000
0.000000 -1.000000 0.000000
0.000000 -1.000000 0.000000
0.000000 -1.000000 0.000000
0.000000 -1.000000 0.000000
0.000000 -1.000000 0.000000
0.000000 -1.000000 0.000000
0.000000 -1.000000 0.000000
0.000000 -1.000000 0.000000
0.000000 -1.000000 0.000000
0.000000 -1.000000 0.000000
0.000000 -1.000000 0.000000
0.000000 -1.000000 0.000000
0.000000 -1.000000 0.000000
0.000000 -1.000000 0.000000
0.000000 -1.000000 0.000000
0.000000 -1.000000 0.000000
0.000000 -1.000000 0.000000
0.000000 -1.000000 0.000000
0.000000 -1.000000 0.000000
0.000000 -1.000000 0.000000
0.000000 -1.000000 0.000000
0.000000 -1.000000 0.000000
0.000000 -1.000000 0.000000
0.000000 -1.000000 0.000000
0.000000 -1.000000 0.000000
0.000000 -1.000000 0.000000
0.000000 -1.000000 0.000000
0.000000 -1.000000 0.000000
0.000000 -1.000000 0.000000
0.000000 -1.000000 0.000000
0.000000 -1.000000 0.000000
0.000000 -1.000000 0.000000
0.000000 -1.000000 0.000000
0.000000 -1.000000 0.000000
0.000000 -1.000000 0.000000
0.000000 -1.000000 0.000000
0.000000 -1.000000 0.000000
0.000000 -1.000000 0.000000
0.000000 -1.000000 0.000000
0.000000 -1.000000 0.000000
0.000000 -1.000000 0.000000
0.000000 -1.000000 0.000000
0.000000 -1.000000 0.000000
0.000000 -1.000000 0.000000
0.000000 -1.000000 0.000000
0.000000 -1.000000 0.000000
0.000000 -1.000000 0.000000
0.000000 -1.000000 0.000000
0.000000 -1.000000 0.000000
0.000000 -1.000000 0.000000
0.000000 -1.000000 0.000000
0.000000 -1.000000 0.000000
0.000000 -1.000000 0.000000
0.000000 -1.000000 0.000000
0.000000 -1.000000 0.000000
0.000000 -1.000000 0.000000
0.000000 -1.000000 0.000000
0.000000 -1.000000 0.000000
0.000000 -1.000000 0.000000
0.000000 -1.000000 0.000000
0.000000 -1.000000 0.000000
0.000000 -1.000000 0.000000
0.000000 -1.000000 0.000000
0.000000 -1.000000 0.000000
0.000000 -1.000000 0.000000
0.000000 -1.000000 0.000000
0.000000 -1.000000 0.000000
0.000000 -1.000000 0.000000
0.000000 -1.000000 0.000000
0.000000 -1.000000 0.000000
0.000000 -1.000000 0.000000
0.000000 -1.000000 0.000000
0.000000 -1.000000 0.000000
0.000000 -1.000000 0.000000
0.000000 -1.000000 0.000000
0.000000 -1.000000 0.000000
0.000000 -1.000000 0.000000
0.000000 -1.000000 0.000000
0.000000 -1.000000 0.000000
0.000000 -1.000000 0.000000
0.000000 -1.000000 0.000000
0.000000 -1.000000 0.000000
0.000000 -1.000000 0.000000
0.000000 -1.000000 0.000000
0.000000 -1.000000 0.000000
0.000000 -1.000000 0.000000
0.000000 -1.000000 0.000000
0.000000 -1.000000 0.000000
0.000000 -1.000000 0.000000
0.000000 -1.000000 0.000000
0.000000 -1.000000 0.000000
0.000000 -1.000000 0.000000
0.000000 -1.000000 0.000000
0.000000 -1.000000 0.000000
0.000000 -1.000000 0.000000
0.000000 -1.000000 0.000000
0.000000 -1.000000 0.000000
0.000000 -1.000000 0.000000
0.000000 -1.000000 0.000000
0.000000 -1.000000 0.000000
0.000000 -1.000000 0.000000
0.000000 -1.000000 0.000000
0.000000 -1.000000 0.000000
0.000000 -1.000000 0.000000
0.000000 -1.000000 0.000000
0.000000 -1.000000 0.000000
0.000000 -1.000000 0.000000
0.000000 -1.000000 0.000000
0.000000 -1.000000 0.000000
0.000000 -1.000000 0.000000
0.000000 -1.000000 0.000000
0.000000 -1.000000 0.000000
0.000000 -1.000000 0.000000
0.000000 -1.000000 0.000000
0.000000 -1.000000 0.000000
0.000000 -1.000000 0.000000
0.000000 -1.000000 0.000000
0.000000 -1.000000 0.000000
0.000000 -1.000000 0.000000
0.000000 -1.000000 0.000000
0.000000 -1.000000 0.000000
0.000000 -1.000000 0.000000
0.000000 -1.000000 0.000000
0.000000 -1.000000 0.000000
0.000000 -1.000000 0.000000
0.000000 -1.000000 0.000000
0.000000 -1.000000 0.000000
0.000000 -1.000000 0.000000
1.000000 0.000002 0.000000
1.000000 0.000000 0.000000
0.965927 0.000000 -0.258814
0.965927 0.000000 -0.258814
0.965927 0.000002 -0.258814
1.000000 0.000002 0.000000
0.965927 0.000002 -0.258814
0.965927 0.000000 -0.258814
0.866029 0.000005 -0.499993
0.866029 0.000005 -0.499993
0.866029 0.000003 -0.499993
0.965927 0.000002 -0.258814
0.866029 0.000003 -0.499993
0.866029 0.000005 -0.499993
0.707107 0.000005 -0.707107
0.707107 0.000005 -0.707107
0.707107 0.000003 -0.707107
0.866029 0.000003 -0.499993
0.707107 0.000003 -0.707107
0.707107 0.000005 -0.707107
0.499993 0.000000 -0.866029
0.499993 0.000000 -0.866029
0.499993 0.000002 -0.866029
0.707107 0.000003 -0.707107
0.499993 0.000002 -0.866029
0.499993 0.000000 -0.866029
0.258814 0.000000 -0.965927
0.258814 0.000000 -0.965927
0.258814 0.000002 -0.965927
0.499993 0.000002 -0.866029
0.258814 0.000002 -0.965927
0.258814 0.000000 -0.965927
0.000000 0.000000 -1.000000
0.000000 0.000000 -1.000000
0.000000 0.000000 -1.000000
0.258814 0.000002 -0.965927
0.000000 0.000000 -1.000000
0.000000 0.000000 -1.000000
-0.258814 0.000000 -0.965927
-0.258814 0.000000 -0.965927
-0.258814 0.000000 -0.965927
0.000000 0.000000 -1.000000
-0.258814 0.000000 -0.965927
-0.258814 0.000000 -0.965927
-0.499993 0.000000 -0.866029
-0.499993 0.000000 -0.866029
-0.499993 0.000002 -0.866029
-0.258814 0.000000 -0.965927
-0.499993 0.000002 -0.866029
-0.499993 0.000000 -0.866029
-0.707107 0.000000 -0.707107
-0.707107 0.000000 -0.707107
-0.707107 0.000001 -0.707107
-0.499993 0.000002 -0.866029
-0.707107 0.000001 -0.707107
-0.707107 0.000000 -0.707107
-0.866029 0.000000 -0.499993
-0.866029 0.000000 -0.499993
-0.866029 0.000002 -0.499993
-0.707107 0.000001 -0.707107
-0.866029 0.000002 -0.499993
-0.866029 0.000000 -0.499993
-0.965927 0.000000 -0.258814
-0.965927 0.000000 -0.258814
-0.965927 0.000002 -0.258814
-0.866029 0.000002 -0.499993
-0.965927 0.000002 -0.258814
-0.965927 0.000000 -0.258814
-1.000000 0.000005 0.000000
-1.000000 0.000005 0.000000
-1.000000 0.000004 0.000000
-0.965927 0.000002 -0.258814
-1.000000 0.000004 0.000000
-1.000000 0.000005 0.000000
-0.965927 0.000005 0.258814
-0.965927 0.000005 0.258814
-0.965927 0.000003 0.258814
-1.000000 0.000004 0.000000
-0.965927 0.000003 0.258814
-0.965927 0.000005 0.258814
-0.866029 0.000005 0.499993
-0.866029 0.000005 0.499993
-0.866029 0.000002 0.499993
-0.965927 0.000003 0.258814
-0.866029 0.000002 0.499993
-0.866029 0.000005 0.499993
-0.707107 0.000000 0.707107
-0.707107 0.000000 0.707107
-0.707107 0.000001 0.707107
-0.866029 0.000002 0.499993
-0.707107 0.000001 0.707107
-0.707107 0.000000 0.707107
-0.499993 0.000000 0.866029
-0.499993 0.000000 0.866029
-0.499993 0.000000 0.866029
-0.707107 0.000001 0.707107
-0.499993 0.000000 0.866029
-0.499993 0.000000 0.866029
-0.258814 0.000000 0.965927
-0.258814 0.000000 0.965927
-0.258814 0.000001 0.965927
-0.499993 0.000000 0.866029
-0.258814 0.000001 0.965927
-0.258814 0.000000 0.965927
-0.000001 0.000000 1.000000
-0.000001 0.000000 1.000000
-0.000001 -0.000001 1.000000
-0.258814 0.000001 0.965927
-0.000001 -0.000001 1.000000
-0.000001 0.000000 1.000000
0.258814 0.000000 0.965927
0.258814 0.000000 0.965927
0.258814 0.000001 0.965927
-0.000001 -0.000001 1.000000
0.258814 0.000001 0.965927
0.258814 0.000000 0.965927
0.499993 0.000000 0.866029
0.499993 0.000000 0.866029
0.499993 0.000001 0.866029
0.258814 0.000001 0.965927
0.499993 0.000001 0.866029
0.499993 0.000000 0.866029
0.707107 0.000000 0.707107
0.707107 0.000000 0.707107
0.707107 0.000001 0.707107
0.499993 0.000001 0.866029
0.707107 0.000001 0.707107
0.707107 0.000000 0.707107
0.866029 0.000000 0.499993
0.866029 0.000000 0.499993
0.866029 0.000002 0.499993
0.707107 0.000001 0.707107
0.866029 0.000002 0.499993
0.866029 0.000000 0.499993
0.965927 0.000005 0.258814
0.965927 0.000005 0.258814
0.965927 0.000003 0.258814
0.866029 0.000002 0.499993
0.965927 0.000003 0.258814
0.965927 0.000005 0.258814
1.000000 0.000000 0.000000
1.000000 0.000000 0.000000
1.000000 0.000002 0.000000
0.965927 0.000003 0.258814
0.548599 -0.836086 0.000000
0.548594 -0.836089 0.000000
0.529895 -0.836092 -0.141992
0.529895 -0.836092 -0.141992
0.529926 -0.836072 -0.141990
0.548599 -0.836086 0.000000
0.529926 -0.836072 -0.141990
0.529895 -0.836092 -0.141992
0.475121 -0.836071 -0.274310
0.475121 -0.836071 -0.274310
0.475122 -0.836064 -0.274329
0.529926 -0.836072 -0.141990
0.475122 -0.836064 -0.274329
0.475121 -0.836071 -0.274310
0.387919 -0.836085 -0.387919
0.387919 -0.836085 -0.387919
0.387948 -0.836058 -0.387948
0.475122 -0.836064 -0.274329
0.387948 -0.836058 -0.387948
0.387919 -0.836085 -0.387919
0.274310 -0.836071 -0.475121
0.274310 -0.836071 -0.475121
0.274329 -0.836064 -0.475122
0.387948 -0.836058 -0.387948
0.274329 -0.836064 -0.475122
0.274310 -0.836071 -0.475121
0.141992 -0.836092 -0.529895
0.141992 -0.836092 -0.529895
0.141990 -0.836072 -0.529926
0.274329 -0.836064 -0.475122
0.141990 -0.836072 -0.529926
0.141992 -0.836092 -0.529895
0.000000 -0.836089 -0.548594
0.000000 -0.836089 -0.548594
0.000000 -0.836086 -0.548599
0.141990 -0.836072 -0.529926
0.000000 -0.836086 -0.548599
0.000000 -0.836089 -0.548594
-0.141992 -0.836092 -0.529895
-0.141992 -0.836092 -0.529895
-0.141990 -0.836072 -0.529926
0.000000 -0.836086 -0.548599
-0.141990 -0.836072 -0.529926
-0.141992 -0.836092 -0.529895
-0.274310 -0.836071 -0.475121
-0.274310 -0.836071 -0.475121
-0.274329 -0.836064 -0.475122
-0.141990 -0.836072 -0.529926
-0.274329 -0.836064 -0.475122
-0.274310 -0.836071 -0.475121
-0.387919 -0.836085 -0.387919
-0.387919 -0.836085 -0.387919
-0.387948 -0.836058 -0.387948
-0.274329 -0.836064 -0.475122
-0.387948 -0.836058 -0.387948
-0.387919 -0.836085 -0.387919
-0.475121 -0.836071 -0.274310
-0.475121 -0.836071 -0.274310
-0.475122 -0.836064 -0.274329
-0.387948 -0.836058 -0.387948
-0.475122 -0.836064 -0.274329
-0.475121 -0.836071 -0.274310
-0.529895 -0.836092 -0.141992
-0.529895 -0.836092 -0.141992
-0.529926 -0.836072 -0.141990
-0.475122 -0.836064 -0.274329
-0.529926 -0.836072 -0.141990
-0.529895 -0.836092 -0.141992
-0.548594 -0.836089 0.000000
-0.548594 -0.836089 0.000000
-0.548599 -0.836086 0.000000
-0.529926 -0.836072 -0.141990
-0.548599 -0.836086 0.000000
-0.548594 -0.836089 0.000000
-0.529895 -0.836092 0.141992
-0.529895 -0.836092 0.141992
-0.529926 -0.836072 0.141990
-0.548599 -0.836086 0.000000
-0.529926 -0.836072 0.141990
-0.529895 -0.836092 0.141992
-0.475121 -0.836071 0.274310
-0.475121 -0.836071 0.274310
-0.475120 -0.836065 0.274328
-0.529926 -0.836072 0.141990
-0.475120 -0.836065 0.274328
-0.475121 -0.836071 0.274310
-0.387922 -0.836082 0.387922
-0.387922 -0.836082 0.387922
-0.387946 -0.836060 0.387946
-0.475120 -0.836065 0.274328
-0.387946 -0.836060 0.387946
-0.387922 -0.836082 0.387922
-0.274312 -0.836068 0.475124
-0.274312 -0.836068 0.475124
-0.274328 -0.836065 0.475120
-0.387946 -0.836060 0.387946
-0.274328 -0.836065 0.475120
-0.274312 -0.836068 0.475124
-0.141993 -0.836089 0.529899
-0.141993 -0.836089 0.529899
-0.141990 -0.836074 0.529924
-0.274328 -0.836065 0.475120
-0.141990 -0.836074 0.529924
-0.141993 -0.836089 0.529899
0.000000 -0.836086 0.548599
0.000000 -0.836086 0.548599
0.000000 -0.836087 0.548597
-0.141990 -0.836074 0.529924
0.000000 -0.836087 0.548597
0.000000 -0.836086 0.548599
0.141993 -0.836089 0.529899
0.141993 -0.836089 0.529899
0.141990 -0.836074 0.529924
0.000000 -0.836087 0.548597
0.141990 -0.836074 0.529924
0.141993 -0.836089 0.529899
0.274312 -0.836068 0.475124
0.274312 -0.836068 0.475124
0.274328 -0.836065 0.475120
0.141990 -0.836074 0.529924
0.274328 -0.836065 0.475120
0.274312 -0.836068 0.475124
0.387922 -0.836082 0.387922
0.387922 -0.836082 0.387922
0.387946 -0.836060 0.387946
0.274328 -0.836065 0.475120
0.387946 -0.836060 0.387946
0.387922 -0.836082 0.387922
0.475121 -0.836071 0.274310
0.475121 -0.836071 0.274310
0.475125 -0.836074 0.274294
0.387946 -0.836060 0.387946
0.475125 -0.836074 0.274294
0.475121 -0.836071 0.274310
0.529895 -0.836092 0.141992
0.529895 -0.836092 0.141992
0.529926 -0.836072 0.141990
0.475125 -0.836074 0.274294
0.529926 -0.836072 0.141990
0.529895 -0.836092 0.141992
0.548594 -0.836089 0.000000
0.548594 -0.836089 0.000000
0.548599 -0.836086 0.000000
0.529926 -0.836072 0.141990
0.000000 -1.000000 0.000000
0.000000 -1.000000 0.000000
0.000000 -1.000000 0.000000
0.000000 -1.000000 0.000000
0.000000 -1.000000 0.000000
0.000000 -1.000000 0.000000
0.000000 -1.000000 0.000000
0.000000 -1.000000 0.000000
0.000000 -1.000000 0.000000
0.000000 -1.000000 0.000000
0.000000 -1.000000 0.000000
0.000000 -1.000000 0.000000
0.000000 -1.000000 0.000000
0.000000 -1.000000 0.000000
0.000000 -1.000000 0.000000
0.000000 -1.000000 0.000000
0.000000 -1.000000 0.000000
0.000000 -1.000000 0.000000
0.000000 -1.000000 0.000000
0.000000 -1.000000 0.000000
0.000000 -1.000000 0.000000
0.000000 -1.000000 0.000000
0.000000 -1.000000 0.000000
0.000000 -1.000000 0.000000
0.000000 -1.000000 0.000000
0.000000 -1.000000 0.000000
0.000000 -1.000000 0.000000
0.000000 -1.000000 0.000000
0.000000 -1.000000 0.000000
0.000000 -1.000000 0.000000
0.000000 -1.000000 0.000000
0.000000 -1.000000 0.000000
0.000000 -1.000000 0.000000
0.000000 -1.000000 0.000000
0.000000 -1.000000 0.000000
0.000000 -1.000000 0.000000
0.000000 -1.000000 0.000000
0.000000 -1.000000 0.000000
0.000000 -1.000000 0.000000
0.000000 -1.000000 0.000000
0.000000 -1.000000 0.000000
0.000000 -1.000000 0.000000
0.000000 -1.000000 0.000000
0.000000 -1.000000 0.000000
0.000000 -1.000000 0.000000
0.000000 -1.000000 0.000000
0.000000 -1.000000 0.000000
0.000000 -1.000000 0.000000
0.000000 -1.000000 0.000000
0.000000 -1.000000 0.000000
0.000000 -1.000000 0.000000
0.000000 -1.000000 0.000000
0.000000 -1.000000 0.000000
0.000000 -1.000000 0.000000
0.000000 -1.000000 0.000000
0.000000 -1.000000 0.000000
0.000000 -1.000000 0.000000
0.000000 -1.000000 0.000000
0.000000 -1.000000 0.000000
0.000000 -1.000000 0.000000
0.000000 -1.000000 0.000000
0.000000 -1.000000 0.000000
0.000000 -1.000000 0.000000
0.000000 -1.000000 0.000000
0.000000 -1.000000 0.000000
0.000000 -1.000000 0.000000
</float_array>
          <technique_common>
            <accessor source="#Cylinder001-Pivot-Pivot-Normal0-array" count="1140" stride="3">
              <param name="X" type="float"/>
              <param name="Y" type="float"/>
              <param name="Z" type="float"/>
            </accessor>
          </technique_common>
        </source>
        <source id="Cylinder001-Pivot-Pivot-UV0">
          <float_array id="Cylinder001-Pivot-Pivot-UV0-array" count="400">
0.750000 1.000000
0.791667 1.000000
0.833333 1.000000
0.875000 1.000000
0.916667 1.000000
0.958333 1.000000
1.000000 1.000000
0.041667 1.000000
0.083333 1.000000
0.125000 1.000000
0.166667 1.000000
0.208333 1.000000
0.250000 1.000000
0.291667 1.000000
0.333333 1.000000
0.375000 1.000000
0.416667 1.000000
0.458333 1.000000
0.500000 1.000000
0.541667 1.000000
0.583333 1.000000
0.625000 1.000000
0.666667 1.000000
0.708333 1.000000
-0.000000 1.000000
0.791667 1.000000
0.750000 1.000000
0.833333 1.000000
0.875000 1.000000
0.916667 1.000000
0.958333 1.000000
1.000000 1.000000
0.041667 1.000000
-0.000000 1.000000
0.083333 1.000000
0.125000 1.000000
0.166667 1.000000
0.208333 1.000000
0.250000 1.000000
0.291667 1.000000
0.333333 1.000000
0.375000 1.000000
0.416667 1.000000
0.458333 1.000000
0.500000 1.000000
0.541667 1.000000
0.583333 1.000000
0.625000 1.000000
0.666667 1.000000
0.708333 1.000000
0.791667 1.000000
0.750000 1.000000
0.833333 1.000000
0.875000 1.000000
0.916667 1.000000
0.958333 1.000000
1.000000 1.000000
0.041667 1.000000
-0.000000 1.000000
0.083333 1.000000
0.125000 1.000000
0.166667 1.000000
0.208333 1.000000
0.250000 1.000000
0.291667 1.000000
0.333333 1.000000
0.375000 1.000000
0.416667 1.000000
0.458333 1.000000
0.500000 1.000000
0.541667 1.000000
0.583333 1.000000
0.625000 1.000000
0.666667 1.000000
0.708333 1.000000
0.791667 1.000000
0.750000 1.000000
0.833333 1.000000
0.875000 1.000000
0.916667 1.000000
0.958333 1.000000
1.000000 1.000000
0.041667 1.000000
-0.000000 1.000000
0.083333 1.000000
0.125000 1.000000
0.166667 1.000000
0.208333 1.000000
0.250000 1.000000
0.291667 1.000000
0.333333 1.000000
0.375000 1.000000
0.416667 1.000000
0.458333 1.000000
0.500000 1.000000
0.541667 1.000000
0.583333 1.000000
0.625000 1.000000
0.666667 1.000000
0.708333 1.000000
0.750000 1.000000
0.791667 1.000000
0.833333 1.000000
0.875000 1.000000
0.916667 1.000000
0.958333 1.000000
1.000000 1.000000
0.041667 1.000000
0.083333 1.000000
0.125000 1.000000
0.166667 1.000000
0.208333 1.000000
0.250000 1.000000
0.291667 1.000000
0.333333 1.000000
0.375000 1.000000
0.416667 1.000000
0.458333 1.000000
0.500000 1.000000
0.541667 1.000000
0.583333 1.000000
0.625000 1.000000
0.666667 1.000000
0.708333 1.000000
-0.000000 1.000000
0.791667 1.000000
0.750000 1.000000
0.833333 1.000000
0.875000 1.000000
0.916667 1.000000
0.958333 1.000000
1.000000 1.000000
0.041667 1.000000
-0.000000 1.000000
0.083333 1.000000
0.125000 1.000000
0.166667 1.000000
0.208333 1.000000
0.250000 1.000000
0.291667 1.000000
0.333333 1.000000
0.375000 1.000000
0.416667 1.000000
0.458333 1.000000
0.500000 1.000000
0.541667 1.000000
0.583333 1.000000
0.625000 1.000000
0.666667 1.000000
0.708333 1.000000
0.791667 1.000000
0.750000 1.000000
0.833333 1.000000
0.875000 1.000000
0.916667 1.000000
0.958333 1.000000
1.000000 1.000000
0.041667 1.000000
-0.000000 1.000000
0.083333 1.000000
0.125000 1.000000
0.166667 1.000000
0.208333 1.000000
0.250000 1.000000
0.291667 1.000000
0.333333 1.000000
0.375000 1.000000
0.416667 1.000000
0.458333 1.000000
0.500000 1.000000
0.541667 1.000000
0.583333 1.000000
0.625000 1.000000
0.666667 1.000000
0.708333 1.000000
0.791667 1.000000
0.750000 1.000000
0.833333 1.000000
0.875000 1.000000
0.916667 1.000000
0.958333 1.000000
1.000000 1.000000
0.041667 1.000000
-0.000000 1.000000
0.083333 1.000000
0.125000 1.000000
0.166667 1.000000
0.208333 1.000000
0.250000 1.000000
0.291667 1.000000
0.333333 1.000000
0.375000 1.000000
0.416667 1.000000
0.458333 1.000000
0.500000 1.000000
0.541667 1.000000
0.583333 1.000000
0.625000 1.000000
0.666667 1.000000
0.708333 1.000000
</float_array>
          <technique_common>
            <accessor source="#Cylinder001-Pivot-Pivot-UV0-array" count="200" stride="2">
              <param name="S" type="float"/>
              <param name="T" type="float"/>
            </accessor>
          </technique_common>
        </source>
        <vertices id="Cylinder001-Pivot-Pivot-VERTEX">
          <input semantic="POSITION" source="#Cylinder001-Pivot-Pivot-POSITION"/>
        </vertices>
        <triangles count="380" material="black_01">
          <input semantic="VERTEX" offset="0" source="#Cylinder001-Pivot-Pivot-VERTEX"/>
          <input semantic="NORMAL" offset="1" source="#Cylinder001-Pivot-Pivot-Normal0"/>
          <input semantic="TEXCOORD" offset="2" set="0" source="#Cylinder001-Pivot-Pivot-UV0"/>
          <p> 0 0 0 1 1 1 25 2 25 25 3 25 24 4 26 0 5 0 1 6 1 2 7 2 26 8 27 26 9 27 25 10 25 1 11 1 2 12 2 3 13 3 27 14 28 27 15 28 26 16 27 2 17 2 3 18 3 4 19 4 28 20 29 28 21 29 27 22 28 3 23 3 4 24 4 5 25 5 29 26 30 29 27 30 28 28 29 4 29 4 5 30 5 6 31 6 30 32 31 30 33 31 29 34 30 5 35 5 6 36 24 7 37 7 31 38 32 31 39 32 30 40 33 6 41 24 7 42 7 8 43 8 32 44 34 32 45 34 31 46 32 7 47 7 8 48 8 9 49 9 33 50 35 33 51 35 32 52 34 8 53 8 9 54 9 10 55 10 34 56 36 34 57 36 33 58 35 9 59 9 10 60 10 11 61 11 35 62 37 35 63 37 34 64 36 10 65 10 11 66 11 12 67 12 36 68 38 36 69 38 35 70 37 11 71 11 12 72 12 13 73 13 37 74 39 37 75 39 36 76 38 12 77 12 13 78 13 14 79 14 38 80 40 38 81 40 37 82 39 13 83 13 14 84 14 15 85 15 39 86 41 39 87 41 38 88 40 14 89 14 15 90 15 16 91 16 40 92 42 40 93 42 39 94 41 15 95 15 16 96 16 17 97 17 41 98 43 41 99 43 40 100 42 16 101 16 17 102 17 18 103 18 42 104 44 42 105 44 41 106 43 17 107 17 18 108 18 19 109 19 43 110 45 43 111 45 42 112 44 18 113 18 19 114 19 20 115 20 44 116 46 44 117 46 43 118 45 19 119 19 20 120 20 21 121 21 45 122 47 45 123 47 44 124 46 20 125 20 21 126 21 22 127 22 46 128 48 46 129 48 45 130 47 21 131 21 22 132 22 23 133 23 47 134 49 47 135 49 46 136 48 22 137 22 23 138 23 0 139 0 24 140 26 24 141 26 47 142 49 23 143 23 1 144 1 0 145 0 96 146 100 96 147 100 97 148 101 1 149 1 2 150 2 1 151 1 97 152 101 97 153 101 98 154 102 2 155 2 3 156 3 2 157 2 98 158 102 98 159 102 99 160 103 3 161 3 4 162 4 3 163 3 99 164 103 99 165 103 100 166 104 4 167 4 5 168 5 4 169 4 100 170 104 100 171 104 101 172 105 5 173 5 6 174 6 5 175 5 101 176 105 101 177 105 102 178 106 6 179 6 7 180 7 6 181 24 102 182 124 102 183 124 103 184 107 7 185 7 8 186 8 7 187 7 103 188 107 103 189 107 104 190 108 8 191 8 9 192 9 8 193 8 104 194 108 104 195 108 105 196 109 9 197 9 10 198 10 9 199 9 105 200 109 105 201 109 106 202 110 10 203 10 11 204 11 10 205 10 106 206 110 106 207 110 107 208 111 11 209 11 12 210 12 11 211 11 107 212 111 107 213 111 108 214 112 12 215 12 13 216 13 12 217 12 108 218 112 108 219 112 109 220 113 13 221 13 14 222 14 13 223 13 109 224 113 109 225 113 110 226 114 14 227 14 15 228 15 14 229 14 110 230 114 110 231 114 111 232 115 15 233 15 16 234 16 15 235 15 111 236 115 111 237 115 112 238 116 16 239 16 17 240 17 16 241 16 112 242 116 112 243 116 113 244 117 17 245 17 18 246 18 17 247 17 113 248 117 113 249 117 114 250 118 18 251 18 19 252 19 18 253 18 114 254 118 114 255 118 115 256 119 19 257 19 20 258 20 19 259 19 115 260 119 115 261 119 116 262 120 20 263 20 21 264 21 20 265 20 116 266 120 116 267 120 117 268 121 21 269 21 22 270 22 21 271 21 117 272 121 117 273 121 118 274 122 22 275 22 23 276 23 22 277 22 118 278 122 118 279 122 119 280 123 23 281 23 0 282 0 23 283 23 119 284 123 119 285 123 96 286 100 0 287 0 24 288 26 25 289 25 49 290 50 49 291 50 48 292 51 24 293 26 25 294 25 26 295 27 50 296 52 50 297 52 49 298 50 25 299 25 26 300 27 27 301 28 51 302 53 51 303 53 50 304 52 26 305 27 27 306 28 28 307 29 52 308 54 52 309 54 51 310 53 27 311 28 28 312 29 29 313 30 53 314 55 53 315 55 52 316 54 28 317 29 29 318 30 30 319 31 54 320 56 54 321 56 53 322 55 29 323 30 30 324 33 31 325 32 55 326 57 55 327 57 54 328 58 30 329 33 31 330 32 32 331 34 56 332 59 56 333 59 55 334 57 31 335 32 32 336 34 33 337 35 57 338 60 57 339 60 56 340 59 32 341 34 33 342 35 34 343 36 58 344 61 58 345 61 57 346 60 33 347 35 34 348 36 35 349 37 59 350 62 59 351 62 58 352 61 34 353 36 35 354 37 36 355 38 60 356 63 60 357 63 59 358 62 35 359 37 36 360 38 37 361 39 61 362 64 61 363 64 60 364 63 36 365 38 37 366 39 38 367 40 62 368 65 62 369 65 61 370 64 37 371 39 38 372 40 39 373 41 63 374 66 63 375 66 62 376 65 38 377 40 39 378 41 40 379 42 64 380 67 64 381 67 63 382 66 39 383 41 40 384 42 41 385 43 65 386 68 65 387 68 64 388 67 40 389 42 41 390 43 42 391 44 66 392 69 66 393 69 65 394 68 41 395 43 42 396 44 43 397 45 67 398 70 67 399 70 66 400 69 42 401 44 43 402 45 44 403 46 68 404 71 68 405 71 67 406 70 43 407 45 44 408 46 45 409 47 69 410 72 69 411 72 68 412 71 44 413 46 45 414 47 46 415 48 70 416 73 70 417 73 69 418 72 45 419 47 46 420 48 47 421 49 71 422 74 71 423 74 70 424 73 46 425 48 47 426 49 24 427 26 48 428 51 48 429 51 71 430 74 47 431 49 48 432 51 49 433 50 73 434 75 73 435 75 72 436 76 48 437 51 49 438 50 50 439 52 74 440 77 74 441 77 73 442 75 49 443 50 50 444 52 51 445 53 75 446 78 75 447 78 74 448 77 50 449 52 51 450 53 52 451 54 76 452 79 76 453 79 75 454 78 51 455 53 52 456 54 53 457 55 77 458 80 77 459 80 76 460 79 52 461 54 53 462 55 54 463 56 78 464 81 78 465 81 77 466 80 53 467 55 54 468 58 55 469 57 79 470 82 79 471 82 78 472 83 54 473 58 55 474 57 56 475 59 80 476 84 80 477 84 79 478 82 55 479 57 56 480 59 57 481 60 81 482 85 81 483 85 80 484 84 56 485 59 57 486 60 58 487 61 82 488 86 82 489 86 81 490 85 57 491 60 58 492 61 59 493 62 83 494 87 83 495 87 82 496 86 58 497 61 59 498 62 60 499 63 84 500 88 84 501 88 83 502 87 59 503 62 60 504 63 61 505 64 85 506 89 85 507 89 84 508 88 60 509 63 61 510 64 62 511 65 86 512 90 86 513 90 85 514 89 61 515 64 62 516 65 63 517 66 87 518 91 87 519 91 86 520 90 62 521 65 63 522 66 64 523 67 88 524 92 88 525 92 87 526 91 63 527 66 64 528 67 65 529 68 89 530 93 89 531 93 88 532 92 64 533 67 65 534 68 66 535 69 90 536 94 90 537 94 89 538 93 65 539 68 66 540 69 67 541 70 91 542 95 91 543 95 90 544 94 66 545 69 67 546 70 68 547 71 92 548 96 92 549 96 91 550 95 67 551 70 68 552 71 69 553 72 93 554 97 93 555 97 92 556 96 68 557 71 69 558 72 70 559 73 94 560 98 94 561 98 93 562 97 69 563 72 70 564 73 71 565 74 95 566 99 95 567 99 94 568 98 70 569 73 71 570 74 48 571 51 72 572 76 72 573 76 95 574 99 71 575 74 74 576 77 75 577 78 76 578 79 76 579 79 77 580 80 78 581 81 78 582 81 79 583 82 80 584 84 76 585 79 78 586 81 80 587 84 80 588 84 81 589 85 82 590 86 82 591 86 83 592 87 84 593 88 80 594 84 82 595 86 84 596 88 84 597 88 85 598 89 86 599 90 86 600 90 87 601 91 88 602 92 84 603 88 86 604 90 88 605 92 80 606 84 84 607 88 88 608 92 88 609 92 89 610 93 90 611 94 90 612 94 91 613 95 92 614 96 88 615 92 90 616 94 92 617 96 92 618 96 93 619 97 94 620 98 94 621 98 95 622 99 72 623 76 92 624 96 94 625 98 72 626 76 88 627 92 92 628 96 72 629 76 80 630 84 88 631 92 72 632 76 76 633 79 80 634 84 72 635 76 74 636 77 76 637 79 72 638 76 73 639 75 74 640 77 72 641 76 96 642 100 120 643 126 121 644 125 121 645 125 97 646 101 96 647 100 97 648 101 121 649 125 122 650 127 122 651 127 98 652 102 97 653 101 98 654 102 122 655 127 123 656 128 123 657 128 99 658 103 98 659 102 99 660 103 123 661 128 124 662 129 124 663 129 100 664 104 99 665 103 100 666 104 124 667 129 125 668 130 125 669 130 101 670 105 100 671 104 101 672 105 125 673 130 126 674 131 126 675 131 102 676 106 101 677 105 102 678 124 126 679 133 127 680 132 127 681 132 103 682 107 102 683 124 103 684 107 127 685 132 128 686 134 128 687 134 104 688 108 103 689 107 104 690 108 128 691 134 129 692 135 129 693 135 105 694 109 104 695 108 105 696 109 129 697 135 130 698 136 130 699 136 106 700 110 105 701 109 106 702 110 130 703 136 131 704 137 131 705 137 107 706 111 106 707 110 107 708 111 131 709 137 132 710 138 132 711 138 108 712 112 107 713 111 108 714 112 132 715 138 133 716 139 133 717 139 109 718 113 108 719 112 109 720 113 133 721 139 134 722 140 134 723 140 110 724 114 109 725 113 110 726 114 134 727 140 135 728 141 135 729 141 111 730 115 110 731 114 111 732 115 135 733 141 136 734 142 136 735 142 112 736 116 111 737 115 112 738 116 136 739 142 137 740 143 137 741 143 113 742 117 112 743 116 113 744 117 137 745 143 138 746 144 138 747 144 114 748 118 113 749 117 114 750 118 138 751 144 139 752 145 139 753 145 115 754 119 114 755 118 115 756 119 139 757 145 140 758 146 140 759 146 116 760 120 115 761 119 116 762 120 140 763 146 141 764 147 141 765 147 117 766 121 116 767 120 117 768 121 141 769 147 142 770 148 142 771 148 118 772 122 117 773 121 118 774 122 142 775 148 143 776 149 143 777 149 119 778 123 118 779 122 119 780 123 143 781 149 120 782 126 120 783 126 96 784 100 119 785 123 120 786 126 144 787 151 145 788 150 145 789 150 121 790 125 120 791 126 121 792 125 145 793 150 146 794 152 146 795 152 122 796 127 121 797 125 122 798 127 146 799 152 147 800 153 147 801 153 123 802 128 122 803 127 123 804 128 147 805 153 148 806 154 148 807 154 124 808 129 123 809 128 124 810 129 148 811 154 149 812 155 149 813 155 125 814 130 124 815 129 125 816 130 149 817 155 150 818 156 150 819 156 126 820 131 125 821 130 126 822 133 150 823 158 151 824 157 151 825 157 127 826 132 126 827 133 127 828 132 151 829 157 152 830 159 152 831 159 128 832 134 127 833 132 128 834 134 152 835 159 153 836 160 153 837 160 129 838 135 128 839 134 129 840 135 153 841 160 154 842 161 154 843 161 130 844 136 129 845 135 130 846 136 154 847 161 155 848 162 155 849 162 131 850 137 130 851 136 131 852 137 155 853 162 156 854 163 156 855 163 132 856 138 131 857 137 132 858 138 156 859 163 157 860 164 157 861 164 133 862 139 132 863 138 133 864 139 157 865 164 158 866 165 158 867 165 134 868 140 133 869 139 134 870 140 158 871 165 159 872 166 159 873 166 135 874 141 134 875 140 135 876 141 159 877 166 160 878 167 160 879 167 136 880 142 135 881 141 136 882 142 160 883 167 161 884 168 161 885 168 137 886 143 136 887 142 137 888 143 161 889 168 162 890 169 162 891 169 138 892 144 137 893 143 138 894 144 162 895 169 163 896 170 163 897 170 139 898 145 138 899 144 139 900 145 163 901 170 164 902 171 164 903 171 140 904 146 139 905 145 140 906 146 164 907 171 165 908 172 165 909 172 141 910 147 140 911 146 141 912 147 165 913 172 166 914 173 166 915 173 142 916 148 141 917 147 142 918 148 166 919 173 167 920 174 167 921 174 143 922 149 142 923 148 143 924 149 167 925 174 144 926 151 144 927 151 120 928 126 143 929 149 144 930 151 168 931 176 169 932 175 169 933 175 145 934 150 144 935 151 145 936 150 169 937 175 170 938 177 170 939 177 146 940 152 145 941 150 146 942 152 170 943 177 171 944 178 171 945 178 147 946 153 146 947 152 147 948 153 171 949 178 172 950 179 172 951 179 148 952 154 147 953 153 148 954 154 172 955 179 173 956 180 173 957 180 149 958 155 148 959 154 149 960 155 173 961 180 174 962 181 174 963 181 150 964 156 149 965 155 150 966 158 174 967 183 175 968 182 175 969 182 151 970 157 150 971 158 151 972 157 175 973 182 176 974 184 176 975 184 152 976 159 151 977 157 152 978 159 176 979 184 177 980 185 177 981 185 153 982 160 152 983 159 153 984 160 177 985 185 178 986 186 178 987 186 154 988 161 153 989 160 154 990 161 178 991 186 179 992 187 179 993 187 155 994 162 154 995 161 155 996 162 179 997 187 180 998 188 180 999 188 156 1000 163 155 1001 162 156 1002 163 180 1003 188 181 1004 189 181 1005 189 157 1006 164 156 1007 163 157 1008 164 181 1009 189 182 1010 190 182 1011 190 158 1012 165 157 1013 164 158 1014 165 182 1015 190 183 1016 191 183 1017 191 159 1018 166 158 1019 165 159 1020 166 183 1021 191 184 1022 192 184 1023 192 160 1024 167 159 1025 166 160 1026 167 184 1027 192 185 1028 193 185 1029 193 161 1030 168 160 1031 167 161 1032 168 185 1033 193 186 1034 194 186 1035 194 162 1036 169 161 1037 168 162 1038 169 186 1039 194 187 1040 195 187 1041 195 163 1042 170 162 1043 169 163 1044 170 187 1045 195 188 1046 196 188 1047 196 164 1048 171 163 1049 170 164 1050 171 188 1051 196 189 1052 197 189 1053 197 165 1054 172 164 1055 171 165 1056 172 189 1057 197 190 1058 198 190 1059 198 166 1060 173 165 1061 172 166 1062 173 190 1063 198 191 1064 199 191 1065 199 167 1066 174 166 1067 173 167 1068 174 191 1069 199 168 1070 176 168 1071 176 144 1072 151 167 1073 174 168 1074 176 191 1075 199 190 1076 198 190 1077 198 189 1078 197 188 1079 196 168 1080 176 190 1081 198 188 1082 196 188 1083 196 187 1084 195 186 1085 194 186 1086 194 185 1087 193 184 1088 192 188 1089 196 186 1090 194 184 1091 192 168 1092 176 188 1093 196 184 1094 192 184 1095 192 183 1096 191 182 1097 190 182 1098 190 181 1099 189 180 1100 188 184 1101 192 182 1102 190 180 1103 188 180 1104 188 179 1105 187 178 1106 186 178 1107 186 177 1108 185 176 1109 184 180 1110 188 178 1111 186 176 1112 184 184 1113 192 180 1114 188 176 1115 184 168 1116 176 184 1117 192 176 1118 184 176 1119 184 175 1120 182 174 1121 181 174 1122 181 173 1123 180 172 1124 179 176 1125 184 174 1126 181 172 1127 179 168 1128 176 176 1129 184 172 1130 179 172 1131 179 171 1132 178 170 1133 177 168 1134 176 172 1135 179 170 1136 177 169 1137 175 168 1138 176 170 1139 177</p>
        </triangles>
      </mesh>
    </geometry>
  </library_geometries>
  <library_visual_scenes>
    <visual_scene id="chassis_lwheel_front_link2" name="chassis_lwheel_front_link2">
      <node name="Cylinder001-Pivot-Pivot" id="Cylinder001-Pivot-Pivot" sid="Cylinder001-Pivot-Pivot">
        <instance_geometry url="#Cylinder001-Pivot-Pivot-lib">
          <bind_material>
            <technique_common>
              <instance_material symbol="black_01" target="#black_01"/>
            </technique_common>
          </bind_material>
        </instance_geometry>
        <extra>
          <technique profile="FCOLLADA">
            <visibility>1.000000</visibility>
          </technique>
        </extra>
      </node>
      <extra>
        <technique profile="MAX3D">
          <frame_rate>30.000000</frame_rate>
        </technique>
        <technique profile="FCOLLADA">
          <start_time>0.000000</start_time>
          <end_time>3.333333</end_time>
        </technique>
      </extra>
    </visual_scene>
  </library_visual_scenes>
  <scene>
    <instance_visual_scene url="#chassis_lwheel_front_link2"/>
  </scene>
</COLLADA>
