<?xml version="1.0" encoding="utf-8"?>
<COLLADA xmlns="http://www.collada.org/2005/11/COLLADASchema" version="1.4.1">
  <asset>
    <contributor>
      <author/>
      <authoring_tool>FBX COLLADA exporter</authoring_tool>
      <comments/>
    </contributor>
    <created>2026-06-03T06:06:52Z</created>
    <keywords/>
    <modified>2026-06-03T06:06:52Z</modified>
    <revision/>
    <subject/>
    <title/>
    <unit meter="1.000000" name="centimeter"/>
    <up_axis>Z_UP</up_axis>
  </asset>
  <library_materials>
    <material id="black_01" name="black_01">
      <instance_effect url="#black_01-fx"/>
    </material>
  </library_materials>
  <library_effects>
    <effect id="black_01-fx" name="black_01">
      <profile_COMMON>
        <technique sid="standard">
          <phong>
            <emission>
              <color sid="emission">0.000000  0.000000 0.000000 1.000000</color>
            </emission>
            <ambient>
              <color sid="ambient">0.000000  0.000000 0.000000 1.000000</color>
            </ambient>
            <diffuse>
              <color sid="diffuse">0.000000  0.000000 0.000000 1.000000</color>
            </diffuse>
            <specular>
              <color sid="specular">1.100000  1.100000 1.100000 1.000000</color>
            </specular>
            <shininess>
              <float sid="shininess">45.254833</float>
            </shininess>
          </phong>
        </technique>
      </profile_COMMON>
    </effect>
  </library_effects>
  <library_geometries>
    <geometry id="head_link1-lib" name="head_link1Mesh">
      <mesh>
        <source id="head_link1-POSITION">
          <float_array id="head_link1-POSITION-array" count="72">
0.020246 -0.000000 0.000000
0.017533 0.010123 0.000000
0.010123 0.017533 0.000000
-0.000000 0.020246 0.000000
-0.010123 0.017533 0.000000
-0.017533 0.010123 0.000000
-0.020246 0.000000 0.000000
-0.017533 -0.010123 0.000000
-0.010123 -0.017533 0.000000
-0.000000 -0.020246 0.000000
0.010123 -0.017533 0.000000
0.017533 -0.010123 0.000000
0.020246 -0.000000 0.154497
0.017533 0.010123 0.154497
0.010123 0.017533 0.154497
-0.000000 0.020246 0.154497
-0.010123 0.017533 0.154497
-0.017533 0.010123 0.154497
-0.020246 -0.000000 0.154497
-0.017533 -0.010123 0.154497
-0.010123 -0.017533 0.154497
-0.000000 -0.020246 0.154497
0.010123 -0.017533 0.154497
0.017533 -0.010123 0.154497
</float_array>
          <technique_common>
            <accessor source="#head_link1-POSITION-array" count="24" stride="3">
              <param name="X" type="float"/>
              <param name="Y" type="float"/>
              <param name="Z" type="float"/>
            </accessor>
          </technique_common>
        </source>
        <source id="head_link1-Normal0">
          <float_array id="head_link1-Normal0-array" count="396">
0.000000 0.000000 -1.000000
0.000000 -0.000000 -1.000000
-0.000000 -0.000000 -1.000000
-0.000000 -0.000000 -1.000000
-0.000000 -0.000000 -1.000000
-0.000000 0.000000 -1.000000
-0.000000 0.000000 -1.000000
-0.000000 0.000000 -1.000000
-0.000000 0.000000 -1.000000
-0.000000 -0.000000 -1.000000
-0.000000 0.000000 -1.000000
-0.000000 0.000000 -1.000000
-0.000000 0.000000 -1.000000
0.000000 -0.000000 -1.000000
0.000000 -0.000000 -1.000000
0.000000 -0.000000 -1.000000
0.000000 0.000000 -1.000000
0.000000 0.000000 -1.000000
-0.000000 0.000000 -1.000000
0.000000 -0.000000 -1.000000
0.000000 0.000000 -1.000000
-0.000000 -0.000000 -1.000000
-0.000000 0.000000 -1.000000
0.000000 0.000000 -1.000000
0.000000 0.000000 -1.000000
-0.000000 -0.000000 -1.000000
0.000000 0.000000 -1.000000
0.000000 -0.000000 -1.000000
0.000000 0.000000 -1.000000
0.000000 0.000000 -1.000000
1.000000 -0.000000 -0.000000
0.866025 0.500000 0.000000
0.866025 0.500000 -0.000000
0.866025 0.500000 -0.000000
1.000000 -0.000000 -0.000000
1.000000 -0.000000 -0.000000
0.866025 0.500000 0.000000
0.500000 0.866025 0.000000
0.500000 0.866025 0.000000
0.500000 0.866025 0.000000
0.866025 0.500000 -0.000000
0.866025 0.500000 0.000000
0.500000 0.866025 0.000000
0.000000 1.000000 0.000000
0.000000 1.000000 0.000000
0.000000 1.000000 0.000000
0.500000 0.866025 0.000000
0.500000 0.866025 0.000000
0.000000 1.000000 0.000000
-0.500000 0.866025 0.000000
-0.500000 0.866025 0.000000
-0.500000 0.866025 0.000000
0.000000 1.000000 0.000000
0.000000 1.000000 0.000000
-0.500000 0.866025 0.000000
-0.866025 0.500000 0.000000
-0.866025 0.500000 0.000000
-0.866025 0.500000 0.000000
-0.500000 0.866025 0.000000
-0.500000 0.866025 0.000000
-0.866025 0.500000 0.000000
-1.000000 0.000000 0.000000
-1.000000 0.000000 0.000000
-1.000000 0.000000 0.000000
-0.866025 0.500000 0.000000
-0.866025 0.500000 0.000000
-1.000000 0.000000 0.000000
-0.866025 -0.500000 -0.000000
-0.866025 -0.500000 0.000000
-0.866025 -0.500000 0.000000
-1.000000 0.000000 0.000000
-1.000000 0.000000 0.000000
-0.866025 -0.500000 -0.000000
-0.500000 -0.866025 -0.000000
-0.500000 -0.866025 -0.000000
-0.500000 -0.866025 -0.000000
-0.866025 -0.500000 0.000000
-0.866025 -0.500000 -0.000000
-0.500000 -0.866025 -0.000000
-0.000000 -1.000000 -0.000000
-0.000000 -1.000000 -0.000000
-0.000000 -1.000000 -0.000000
-0.500000 -0.866025 -0.000000
-0.500000 -0.866025 -0.000000
-0.000000 -1.000000 -0.000000
0.499999 -0.866026 -0.000000
0.499999 -0.866026 -0.000000
0.499999 -0.866026 -0.000000
-0.000000 -1.000000 -0.000000
-0.000000 -1.000000 -0.000000
0.499999 -0.866026 -0.000000
0.866025 -0.500000 -0.000000
0.866025 -0.500000 -0.000000
0.866025 -0.500000 -0.000000
0.499999 -0.866026 -0.000000
0.499999 -0.866026 -0.000000
0.866025 -0.500000 -0.000000
1.000000 -0.000000 -0.000000
1.000000 -0.000000 -0.000000
1.000000 -0.000000 -0.000000
0.866025 -0.500000 -0.000000
0.866025 -0.500000 -0.000000
0.000000 0.000000 1.000000
0.000000 0.000000 1.000000
-0.000000 -0.000000 1.000000
-0.000000 -0.000000 1.000000
-0.000001 -0.000003 1.000000
-0.000001 0.000000 1.000000
-0.000001 0.000000 1.000000
0.000000 0.000000 1.000000
-0.000000 0.000000 1.000000
-0.000000 -0.000000 1.000000
-0.000001 0.000000 1.000000
-0.000000 0.000000 1.000000
-0.000000 0.000000 1.000000
0.000000 0.000000 1.000000
-0.000001 -0.000001 1.000000
-0.000001 -0.000001 1.000000
-0.000001 -0.000003 1.000000
-0.000000 -0.000000 1.000000
-0.000000 0.000000 1.000000
-0.000001 -0.000001 1.000000
-0.000000 -0.000000 1.000000
-0.000000 -0.000000 1.000000
-0.000000 0.000000 1.000000
-0.000000 -0.000000 1.000000
0.000000 0.000000 1.000000
-0.000000 -0.000000 1.000000
-0.000000 -0.000000 1.000000
0.000000 0.000000 1.000000
0.000000 0.000000 1.000000
-0.000000 -0.000000 1.000000
</float_array>
          <technique_common>
            <accessor source="#head_link1-Normal0-array" count="132" stride="3">
              <param name="X" type="float"/>
              <param name="Y" type="float"/>
              <param name="Z" type="float"/>
            </accessor>
          </technique_common>
        </source>
        <source id="head_link1-UV0">
          <float_array id="head_link1-UV0-array" count="86">
0.750000 0.000000
0.833333 0.000000
0.916667 0.000000
0.000000 0.000000
0.083333 0.000000
0.166667 0.000000
0.250000 0.000000
0.333333 0.000000
0.416667 0.000000
0.500000 0.000000
0.583333 0.000000
0.666667 0.000000
0.750000 1.000000
0.833333 1.000000
0.916667 1.000000
0.000000 1.000000
0.083333 1.000000
0.166667 1.000000
0.250000 1.000000
0.333333 1.000000
0.416667 1.000000
0.500000 1.000000
0.583333 1.000000
0.666667 1.000000
-0.083333 0.000000
-0.083333 1.000000
0.888354 0.000000
0.755983 0.000000
0.555021 0.000000
0.339316 0.000000
0.166667 0.000000
0.083333 0.000000
0.111645 0.000000
0.244017 0.000000
0.444979 0.000000
0.888355 1.000000
0.755983 1.000000
0.555021 1.000000
0.339317 1.000000
0.166667 1.000000
0.083333 1.000000
0.111645 1.000000
0.244017 1.000000
</float_array>
          <technique_common>
            <accessor source="#head_link1-UV0-array" count="43" stride="2">
              <param name="S" type="float"/>
              <param name="T" type="float"/>
            </accessor>
          </technique_common>
        </source>
        <vertices id="head_link1-VERTEX">
          <input semantic="POSITION" source="#head_link1-POSITION"/>
        </vertices>
        <triangles count="44" material="black_01">
          <input semantic="VERTEX" offset="0" source="#head_link1-VERTEX"/>
          <input semantic="NORMAL" offset="1" source="#head_link1-Normal0"/>
          <input semantic="TEXCOORD" offset="2" set="0" source="#head_link1-UV0"/>
          <p> 10 0 33 9 1 32 8 2 31 8 3 31 7 4 30 6 5 29 6 6 29 5 7 28 4 8 27 8 9 31 6 10 29 4 11 27 4 12 27 3 13 26 2 14 2 2 15 2 1 16 1 0 17 0 4 18 27 2 19 2 0 20 0 8 21 31 4 22 27 0 23 0 10 24 33 8 25 31 0 26 0 11 27 34 10 28 33 0 29 0 0 30 0 1 31 1 13 32 13 13 33 13 12 34 12 0 35 0 1 36 1 2 37 2 14 38 14 14 39 14 13 40 13 1 41 1 2 42 24 3 43 3 15 44 15 15 45 15 14 46 25 2 47 24 3 48 3 4 49 4 16 50 16 16 51 16 15 52 15 3 53 3 4 54 4 5 55 5 17 56 17 17 57 17 16 58 16 4 59 4 5 60 5 6 61 6 18 62 18 18 63 18 17 64 17 5 65 5 6 66 6 7 67 7 19 68 19 19 69 19 18 70 18 6 71 6 7 72 7 8 73 8 20 74 20 20 75 20 19 76 19 7 77 7 8 78 8 9 79 9 21 80 21 21 81 21 20 82 20 8 83 8 9 84 9 10 85 10 22 86 22 22 87 22 21 88 21 9 89 9 10 90 10 11 91 11 23 92 23 23 93 23 22 94 22 10 95 10 11 96 11 0 97 0 12 98 12 12 99 12 23 100 23 11 101 11 12 102 12 13 103 13 14 104 14 14 105 14 15 106 35 16 107 36 16 108 36 17 109 37 18 110 38 14 111 14 16 112 36 18 113 38 18 114 38 19 115 39 20 116 40 20 117 40 21 118 41 22 119 42 18 120 38 20 121 40 22 122 42 14 123 14 18 124 38 22 125 42 12 126 12 14 127 14 22 128 42 23 129 23 12 130 12 22 131 42</p>
        </triangles>
      </mesh>
    </geometry>
  </library_geometries>
  <library_visual_scenes>
    <visual_scene id="head_link1" name="head_link1">
      <node name="head_link1" id="head_link1" sid="head_link1">
        <node id="head_link1-Pivot" name="head_link1-Pivot">
          <translate>0.000264 0.000224 -0.144603</translate>
          <rotate>0.000000 0.000000 0.000000 0.000000</rotate>
          <instance_geometry url="#head_link1-lib">
            <bind_material>
              <technique_common>
                <instance_material symbol="black_01" target="#black_01"/>
              </technique_common>
            </bind_material>
          </instance_geometry>
        </node>
        <extra>
          <technique profile="FCOLLADA">
            <visibility>1.000000</visibility>
          </technique>
        </extra>
      </node>
      <extra>
        <technique profile="MAX3D">
          <frame_rate>30.000000</frame_rate>
        </technique>
        <technique profile="FCOLLADA">
          <start_time>0.000000</start_time>
          <end_time>3.333333</end_time>
        </technique>
      </extra>
    </visual_scene>
  </library_visual_scenes>
  <scene>
    <instance_visual_scene url="#head_link1"/>
  </scene>
</COLLADA>
