o arm_r_link2
# 3ds Max Wavefront OBJ Exporter v0.99 - (c)2007 guruware
# File Created: 28.05.2026 15:37:03

mtllib arm_l_link2.mtl

#
# object Cylinder001
#

v  -0.012543352321 -0.030219996348 0.027978308499
v  -0.014337719418 -0.030219994485 0.027626775205
v  -0.015834439546 -0.030219992623 0.026568999514
v  -0.041518893093 -0.030219992623 -0.000974202529
v  -0.042392734438 -0.030219992623 -0.002339274157
v  -0.042726270854 -0.030219992623 -0.003925396595
v  -0.042476214468 -0.030219992623 -0.005526802503
v  -0.041675016284 -0.030219992623 -0.006935736630
v  -0.025348829105 -0.030219990760 -0.026392530650
v  -0.024374429137 -0.030219990760 -0.027259679511
v  -0.023192243651 -0.030219990760 -0.027810938656
v  -0.021901607513 -0.030220000073 -0.027978302911
v  0.000000016132 -0.030220000073 -0.027978302911
v  0.007241331972 -0.030220000073 -0.027024962008
v  0.013989165425 -0.030220000073 -0.024229915813
v  0.019783664495 -0.030220000073 -0.019783638418
v  0.024229928851 -0.030220000073 -0.013989140280
v  -0.017374996096 -0.030219992623 0.024916948751
v  0.027024973184 -0.030220000073 -0.007241305895
v  0.027978308499 -0.030220000073 0.000000011428
v  0.027024969459 -0.030220000073 0.007241327781
v  0.024229921401 -0.030220000073 0.013989159837
v  0.019783649594 -0.030219998211 0.019783657044
v  0.013989152387 -0.030219998211 0.024229928851
v  0.007241317071 -0.030219998211 0.027024971321
v  0.000000001012 -0.030219996348 0.027978308499
v  -0.251456618309 -0.030219998211 -0.027978306636
v  -0.249662250280 -0.030219996348 -0.027626773342
v  -0.248165532947 -0.030219994485 -0.026568997651
v  -0.219322919846 -0.030219998211 0.004360959399
v  -0.218449085951 -0.030219998211 0.005726031493
v  -0.218115538359 -0.030220000073 0.007312153932
v  -0.218365609646 -0.030220001936 0.008913559839
v  -0.219166800380 -0.030220001936 0.010322492570
v  -0.232651174068 -0.030219994485 0.026392532513
v  -0.233625560999 -0.030219994485 0.027259679511
v  -0.234807744622 -0.030219994485 0.027810938656
v  -0.236098378897 -0.030220003799 0.027978302911
v  -0.263999998569 -0.030219998211 0.027978302911
v  -0.271241307259 -0.030219998211 0.027024962008
v  -0.277989149094 -0.030219998211 0.024229913950
v  -0.283783644438 -0.030219996348 0.019783636555
v  -0.288229912519 -0.030219996348 0.013989138417
v  -0.246624976397 -0.030219994485 -0.024916946888
v  -0.291024953127 -0.030219996348 0.007241303567
v  -0.291978269815 -0.030219994485 -0.000000013874
v  -0.291024923325 -0.030219994485 -0.007241330110
v  -0.288229882717 -0.030219994485 -0.013989161700
v  -0.283783614635 -0.030219994485 -0.019783658907
v  -0.277989119291 -0.030219994485 -0.024229930714
v  -0.271241277456 -0.030219996348 -0.027024971321
v  -0.263999968767 -0.030219996348 -0.027978308499
v  0.000000001012 0.030219994485 0.027978308499
v  0.007241317071 0.030219998211 0.027024971321
v  0.013989152387 0.030219998211 0.024229928851
v  0.019783649594 0.030219998211 0.019783657044
v  0.024229921401 0.030220001936 0.013989159837
v  0.027024969459 0.030219998211 0.007241327781
v  0.027978308499 0.030219998211 0.000000011428
v  0.027024973184 0.030219998211 -0.007241305895
v  0.024229928851 0.030219998211 -0.013989140280
v  0.019783664495 0.030219998211 -0.019783638418
v  0.013989165425 0.030219998211 -0.024229915813
v  0.007241331972 0.030220001936 -0.027024962008
v  0.000000016132 0.030220001936 -0.027978302911
v  -0.012543352321 0.030219998211 0.027978308499
v  -0.021901607513 0.030219998211 -0.027978302911
v  -0.014337719418 0.030219994485 0.027626775205
v  -0.015834439546 0.030219994485 0.026568999514
v  -0.017374996096 0.030219994485 0.024916948751
v  -0.041518893093 0.030219990760 -0.000974202529
v  -0.042392734438 0.030219990760 -0.002339274157
v  -0.042726270854 0.030219990760 -0.003925396595
v  -0.042476214468 0.030219990760 -0.005526802503
v  -0.041675016284 0.030219990760 -0.006935736630
v  -0.025348829105 0.030219990760 -0.026392530650
v  -0.024374429137 0.030219990760 -0.027259679511
v  -0.023192243651 0.030219990760 -0.027810938656
v  -0.263999968767 0.030219998211 -0.027978308499
v  -0.271241277456 0.030219994485 -0.027024971321
v  -0.277989119291 0.030219994485 -0.024229930714
v  -0.283783614635 0.030219994485 -0.019783658907
v  -0.288229882717 0.030219994485 -0.013989161700
v  -0.291024923325 0.030219994485 -0.007241330110
v  -0.291978269815 0.030219994485 -0.000000013874
v  -0.291024953127 0.030219994485 0.007241303567
v  -0.288229912519 0.030219994485 0.013989138417
v  -0.283783644438 0.030219998211 0.019783636555
v  -0.277989149094 0.030219998211 0.024229913950
v  -0.271241307259 0.030219998211 0.027024962008
v  -0.263999998569 0.030220001936 0.027978302911
v  -0.251456618309 0.030219998211 -0.027978306636
v  -0.236098378897 0.030220001936 0.027978302911
v  -0.249662250280 0.030219998211 -0.027626773342
v  -0.248165532947 0.030219998211 -0.026568997651
v  -0.246624976397 0.030219990760 -0.024916946888
v  -0.219322919846 0.030219998211 0.004360959399
v  -0.218449085951 0.030219998211 0.005726031493
v  -0.218115538359 0.030219998211 0.007312153932
v  -0.218365609646 0.030220001936 0.008913559839
v  -0.219166800380 0.030220001936 0.010322492570
v  -0.232651174068 0.030219994485 0.026392532513
v  -0.233625560999 0.030219994485 0.027259679511
v  -0.234807744622 0.030219994485 0.027810938656
v  -0.008000686765 -0.025220001116 -0.012250006199
v  -0.008000686765 -0.025219997391 0.012249998748
v  -0.255999326706 -0.025219999254 0.012249998748
v  -0.255999326706 -0.025219999254 -0.012250006199
v  -0.255999326706 -0.024407498538 -0.017937505618
v  -0.008000685833 -0.024407498538 -0.017937505618
v  -0.255999326706 -0.021970000118 -0.022000005469
v  -0.008000685833 -0.021970000118 -0.022000005469
v  -0.008000685833 -0.024407496676 0.017937498167
v  -0.255999326706 -0.024407498538 0.017937498167
v  -0.008000685833 -0.021969996393 0.021999999881
v  -0.255999326706 -0.021969996393 0.021999999881
v  -0.255999326706 -0.012220002711 -0.025250002742
v  -0.008000684902 -0.012220000848 -0.025250002742
v  -0.008000685833 -0.017907502130 -0.024437503889
v  -0.255999326706 -0.017907503992 -0.024437503889
v  -0.008000684902 -0.012219997123 0.025250002742
v  -0.255999326706 -0.012219995260 0.025250002742
v  -0.255999326706 -0.017907496542 0.024437502027
v  -0.008000685833 -0.017907494679 0.024437502027
v  -0.008000682108 0.025220002979 -0.012250005268
v  -0.255999326706 0.025220002979 -0.012250005268
v  -0.255999326706 0.025219995528 0.012249999680
v  -0.008000682108 0.025219995528 0.012249999680
v  -0.255999326706 0.012220006436 -0.025250000879
v  -0.008000683039 0.012220006436 -0.025250000879
v  -0.008000683039 0.012219991535 0.025250004604
v  -0.255999326706 0.012219991535 0.025250004604
v  -0.008000682108 0.024407502264 -0.017937503755
v  -0.255999326706 0.024407502264 -0.017937503755
v  -0.008000682108 0.021970003843 -0.022000003606
v  -0.255999326706 0.021970003843 -0.022000003606
v  -0.255999326706 0.024407494813 0.017937500030
v  -0.008000682108 0.024407494813 0.017937500030
v  -0.255999326706 0.021969992667 0.022000001743
v  -0.008000682108 0.021969992667 0.022000001743
v  -0.255999326706 0.017907503992 -0.024437502027
v  -0.008000682108 0.017907503992 -0.024437502027
v  -0.008000682108 0.017907492816 0.024437503889
v  -0.255999326706 0.017907492816 0.024437503889
# 144 vertices

vn -0.000000667990 -0.999999940395 -0.000000440543
vn -0.000001046303 -1.000000000000 -0.000000360410
vn -0.000000660271 -0.999999940395 -0.000000419262
vn -0.000000147535 -1.000000000000 0.000000106963
vn -0.000000087423 -0.999999940395 0.000000043711
vn -0.000000087423 -1.000000000000 0.000000043711
vn -0.000000347618 -0.999999940395 -0.000000020925
vn -0.000000760213 -0.999999940395 -0.000000712292
vn -0.000004710676 -1.000000000000 -0.000004691744
vn -0.000009083579 -1.000000000000 -0.000019248715
vn -0.000001355969 -1.000000000000 -0.000001557586
vn -0.000000002377 -0.999999940395 -0.000000602274
vn -0.000000022160 -0.999999940395 -0.000000086332
vn -0.000000102752 -1.000000000000 0.000000079853
vn -0.000000122573 -1.000000000000 0.000000048143
vn -0.000000267204 -1.000000000000 -0.000000052790
vn -0.000000064423 -1.000000000000 0.000000049700
vn -0.000000087423 -1.000000000000 0.000000043712
vn -0.000000047319 -1.000000000000 0.000000090417
vn -0.000000033550 -1.000000000000 0.000000184827
vn -0.000000013174 -1.000000000000 0.000000607683
vn 0.000000493144 -1.000000000000 0.000000440544
vn 0.000000871456 -1.000000000000 0.000000360415
vn 0.000000485426 -0.999999940395 0.000000419262
vn -0.000000024717 -0.999999940395 -0.000000325125
vn 0.000001278579 -1.000000000000 -0.000000918140
vn 0.000000165569 -0.999999940395 -0.000000621845
vn -0.000002907180 -1.000000000000 -0.000001647169
vn -0.000000408654 -1.000000000000 -0.000000475126
vn 0.000001338165 -0.999999940395 0.000001558178
vn 0.000004717941 -1.000000000000 0.000005229569
vn 0.000010211796 -1.000000000000 0.000023732564
vn 0.000001223497 -0.999999940395 0.000001780778
vn -0.000000154180 -1.000000000000 0.000000463361
vn -0.000000140911 -1.000000000000 0.000000063040
vn -0.000000087423 -1.000000000000 -0.000000043712
vn -0.000000069586 -1.000000000000 -0.000000079504
vn -0.000000052066 -1.000000000000 -0.000000048291
vn 0.000000093397 -1.000000000000 0.000000053901
vn -0.000000087423 -1.000000000000 -0.000000043711
vn -0.000000087421 -1.000000000000 -0.000000043711
vn -0.000000110422 -1.000000000000 -0.000000049700
vn -0.000000127527 -1.000000000000 -0.000000090417
vn -0.000000141295 -1.000000000000 -0.000000184827
vn -0.000000161671 -0.999999940395 -0.000000607681
vn 0.065403141081 0.000000012704 0.997858881950
vn 0.065403126180 0.000000012866 0.997858941555
vn 0.258818864822 0.000000011925 0.965925812721
vn 0.258818924427 0.000000013135 0.965925872326
vn 0.499999731779 0.000000012309 0.866025507450
vn 0.499999731779 0.000000013682 0.866025507450
vn 0.707106828690 0.000000012675 0.707106828690
vn 0.707106709480 0.000000008306 0.707106709480
vn 0.866025328636 0.000000007468 0.500000119209
vn 0.866025328636 0.000000003100 0.500000119209
vn 0.965925633907 0.000000004209 0.258819431067
vn 0.965925633907 0.000000004362 0.258819401264
vn 1.000000000000 0.000000004879 0.000000272695
vn 1.000000000000 0.000000005184 0.000000243990
vn 0.965925812721 0.000000005358 -0.258818864822
vn 0.965925812721 0.000000005511 -0.258818924427
vn 0.866025686264 0.000000005615 -0.499999493361
vn 0.866025745869 0.000000001247 -0.499999463558
vn 0.707107245922 -0.000000001191 -0.707106232643
vn 0.707107305527 -0.000000005559 -0.707106232643
vn 0.500000178814 -0.000000008650 -0.866025209427
vn 0.500000178814 -0.000000010023 -0.866025209427
vn 0.258819401264 -0.000000011773 -0.965925633907
vn 0.258819401264 -0.000000012983 -0.965925753117
vn 0.065403372049 -0.000000013027 -0.997858941555
vn 0.065403364599 -0.000000012866 -0.997858881950
vn -0.096578687429 0.000000012347 0.995325446129
vn -0.096578784287 0.000000012347 0.995325326920
vn -0.064433284104 -0.000000013191 -0.997922003269
vn -0.064433351159 -0.000000013191 -0.997922062874
vn -0.393415153027 0.000000009874 0.919360935688
vn -0.393415302038 0.000000009874 0.919360876083
vn -0.657704532146 0.000000006403 0.753276050091
vn -0.657704293728 0.000000006403 0.753276109695
vn -0.731354296207 0.000000009752 0.681997776031
vn -0.731354236603 0.000000005113 0.681997716427
vn -0.790020942688 0.000000020857 0.613079905510
vn -0.790020883083 0.000000015943 0.613079845905
vn -0.925539135933 0.000000023976 0.378652125597
vn -0.925539016724 0.000000024113 0.378652215004
vn -0.999657213688 0.000000025712 0.026180515066
vn -0.999657332897 0.000000026108 0.026180651039
vn -0.944089174271 0.000000025174 -0.329690039158
vn -0.944089293480 0.000000025174 -0.329689949751
vn -0.821024835110 0.000000010044 -0.570892393589
vn -0.821024835110 0.000000022608 -0.570892333984
vn -0.717317402363 -0.000000012593 -0.696746587753
vn -0.717317402363 -0.000000000047 -0.696746528149
vn -0.549509525299 -0.000000013537 -0.835487425327
vn -0.549509823322 -0.000000013537 -0.835487246513
vn -0.278894692659 -0.000000013785 -0.960321724415
vn -0.278894662857 -0.000000013785 -0.960321664810
vn -0.065403118730 -0.000000007148 -0.997858941555
vn -0.065403103828 -0.000000007148 -0.997858941555
vn -0.258818656206 0.000000010173 -0.965925931931
vn -0.258818656206 0.000000010173 -0.965925872326
vn -0.499999642372 0.000000032545 -0.866025686264
vn -0.499999612570 0.000000032545 -0.866025626659
vn -0.707106947899 0.000000052700 -0.707106530666
vn -0.707107067108 0.000000057069 -0.707106590271
vn -0.866025686264 0.000000072600 -0.499999552965
vn -0.866025686264 0.000000076968 -0.499999552965
vn -0.965925693512 0.000000085095 -0.258819460869
vn -0.965925693512 0.000000084942 -0.258819490671
vn -1.000000000000 0.000000087576 -0.000002018897
vn -1.000000000000 0.000000087270 -0.000002028465
vn -0.965926289558 0.000000083946 0.258817434311
vn -0.965926229954 0.000000083793 0.258817404509
vn -0.866025686264 0.000000074452 0.499999433756
vn -0.866025626659 0.000000078821 0.499999493361
vn -0.707107305527 0.000000066566 0.707106351852
vn -0.707107186317 0.000000070934 0.707106411457
vn -0.500000238419 0.000000054877 0.866025209427
vn -0.500000298023 0.000000054877 0.866025328636
vn -0.258819371462 0.000000035081 0.965925753117
vn -0.258819341660 0.000000035081 0.965925693512
vn -0.065403431654 0.000000018583 0.997858941555
vn -0.065403416753 0.000000018583 0.997858881950
vn 0.096578754485 -0.000000021276 -0.995325326920
vn 0.096578806639 -0.000000021276 -0.995325326920
vn 0.064433366060 0.000000007234 0.997922062874
vn 0.064433440566 0.000000007234 0.997922062874
vn 0.393415570259 -0.000000046247 -0.919360756874
vn 0.393415719271 -0.000000046247 -0.919360756874
vn 0.657704710960 -0.000000067211 -0.753275871277
vn 0.657704770565 -0.000000067211 -0.753275811672
vn 0.731354594231 -0.000000069433 -0.681997478008
vn 0.731354534626 -0.000000072730 -0.681997478008
vn 0.790022313595 -0.000000067524 -0.613077998161
vn 0.790022373199 -0.000000070835 -0.613078057766
vn 0.925538539886 -0.000000079961 -0.378653436899
vn 0.999657213688 -0.000000087327 -0.026179302484
vn 0.999657332897 -0.000000087327 -0.026179248467
vn 0.944088220596 -0.000000083364 0.329692780972
vn 0.944088280201 -0.000000083364 0.329692721367
vn 0.821025788784 -0.000000069297 0.570891141891
vn 0.821025848389 -0.000000073213 0.570891082287
vn 0.717319309711 -0.000000053727 0.696744561195
vn 0.717319190502 -0.000000057636 0.696744680405
vn 0.549512207508 -0.000000037268 0.835485637188
vn 0.549512147903 -0.000000037268 0.835485756397
vn 0.278895020485 -0.000000012000 0.960321545601
vn 0.278894960880 -0.000000012000 0.960321664810
vn 0.000000033419 1.000000000000 0.000000207773
vn 0.000001287091 1.000000000000 0.000001519728
vn -0.000000009321 0.999999940395 0.000000065461
vn 0.000000087423 1.000000000000 -0.000000043711
vn -0.000000100968 1.000000000000 0.000000015132
vn -0.000000085290 1.000000000000 0.000000136341
vn -0.000000043103 1.000000000000 0.000000216375
vn -0.000000082669 1.000000000000 0.000001248261
vn -0.000001149136 1.000000000000 -0.000001249662
vn -0.000007909161 1.000000000000 -0.000017192535
vn -0.000003840455 1.000000000000 -0.000003770770
vn 0.000000760213 1.000000000000 0.000000712291
vn -0.000000414730 0.999999940395 -0.000000082898
vn -0.000000147357 1.000000000000 0.000000050730
vn -0.000000091973 1.000000000000 0.000000051701
vn -0.000000551142 0.999999940395 0.000000076332
vn -0.000002784906 1.000000000000 0.000004020545
vn -0.000000728153 0.999999940395 -0.000000063965
vn -0.000000119534 1.000000000000 -0.000000431063
vn 0.000000087423 1.000000000000 0.000003863920
vn 0.000001287090 1.000000000000 0.000001519725
vn -0.000000009321 1.000000000000 0.000000065461
vn -0.000000070142 1.000000000000 -0.000000214845
vn -0.000000116785 1.000000000000 -0.000000333978
vn -0.000000121721 1.000000000000 0.000000205928
vn -0.000000046092 1.000000000000 -0.000002937184
vn 0.000001090060 0.999999940395 0.000001475659
vn 0.000008084018 1.000000000000 0.000017105109
vn 0.000004463290 1.000000000000 0.000004872010
vn 0.000002531281 1.000000000000 0.000002702378
vn -0.000000641372 1.000000000000 -0.000000708256
vn -0.000005552090 1.000000000000 -0.000003250625
vn 0.000001139269 0.999999940395 -0.000000833269
vn 0.000000004693 0.999999940395 -0.000000325212
vn 0.000000539799 1.000000000000 0.000000535796
vn 0.000000626790 0.999999940395 0.000000659614
vn 0.000000004032 1.000000000000 0.000000106283
vn -0.000000119534 1.000000000000 -0.000000431062
vn 0.000000087422 0.999999940395 0.000003863916
vn 0.000000002408 -0.997484207153 -0.070889264345
vn 0.000000002699 -0.997484147549 0.070889174938
vn -0.000000000830 -0.997484207153 0.070889234543
vn -0.000000004793 -0.997484147549 -0.070889048278
vn -0.000000001187 -0.942367911339 -0.334578424692
vn 0.000000002550 -0.942367672920 -0.334578961134
vn 0.000000001913 -0.707106947899 -0.707106471062
vn 0.000000001913 -0.707106828690 -0.707106709480
vn 0.000000002550 -0.942367792130 0.334578573704
vn 0.000000002550 -0.942367732525 0.334578990936
vn 0.000000001913 -0.707106947899 0.707106590271
vn 0.000000001913 -0.707106709480 0.707106769085
vn 0.000000000192 -0.070888981223 -0.997484266758
vn 0.000000000192 -0.070888862014 -0.997484207153
vn 0.000000000905 -0.334578424692 -0.942367911339
vn 0.000000000905 -0.334578841925 -0.942367732525
vn 0.000000000184 -0.070889249444 0.997484207153
vn -0.000000000341 -0.070889122784 0.997484207153
vn 0.000000000371 -0.334578663111 0.942367792130
vn 0.000000000905 -0.334579080343 0.942367672920
vn -0.000000002699 0.997484266758 -0.070889085531
vn -0.000000002699 0.997484147549 -0.070888981223
vn -0.000000002699 0.997484207153 0.070889294147
vn -0.000000002699 0.997484147549 0.070889197290
vn -0.000000000192 0.070889078081 -0.997484147549
vn -0.000000000192 0.070888981223 -0.997484147549
vn -0.000000000192 0.070889137685 0.997484266758
vn -0.000000000192 0.070889018476 0.997484147549
vn -0.000000002550 0.942367732525 -0.334578901529
vn -0.000000002550 0.942367792130 -0.334578514099
vn -0.000000001913 0.707106649876 -0.707106888294
vn -0.000000001913 0.707106769085 -0.707106769085
vn -0.000000002550 0.942367672920 0.334579080343
vn -0.000000002550 0.942367792130 0.334578692913
vn -0.000000001913 0.707106828690 0.707106828690
vn -0.000000001913 0.707107007504 0.707106471062
vn -0.000000000905 0.334578633308 -0.942367732525
vn -0.000000000905 0.334578275681 -0.942367970943
vn -0.000000000905 0.334579199553 0.942367672920
vn -0.000000000905 0.334578812122 0.942367732525
# 227 vertex normals

vt -0.000000059605 0.000000000000 0.000000000000
vt 0.499999910593 0.000000000000 0.000000000000
vt 0.458333253860 0.000000000000 0.000000000000
vt 0.416666597128 0.000000000000 0.000000000000
vt 0.374999910593 0.000000000000 0.000000000000
vt 0.333333253860 0.000000000000 0.000000000000
vt 0.291666597128 0.000000000000 0.000000000000
vt 0.249999940395 0.000000000000 0.000000000000
vt 0.208333283663 0.000000000000 0.000000000000
vt 0.166666626930 0.000000000000 0.000000000000
vt 0.124999970198 0.000000000000 0.000000000000
vt 0.083333313465 0.000000000000 0.000000000000
vt 0.041666656733 0.000000000000 0.000000000000
vt -0.000000059605 1.000000000000 0.000000000000
vt 1.000000000000 0.257425725460 0.000000000000
vt 1.000000000000 0.742574274540 0.000000000000
vt 0.000000000000 0.742574274540 0.000000000000
vt 0.000000000000 0.257425725460 0.000000000000
vt 0.000000000000 0.128712862730 0.000000000000
vt 1.000000000000 0.128712862730 0.000000000000
vt 0.000000000000 0.000000000000 0.000000000000
vt 1.000000000000 0.000000000000 0.000000000000
vt 1.000000000000 0.871287107468 0.000000000000
vt 0.000000000000 0.871287107468 0.000000000000
vt 1.000000000000 1.000000000000 0.000000000000
vt 0.000000000000 1.000000000000 0.000000000000
vt 0.000000000000 0.484536111355 0.000000000000
vt 1.000000000000 0.484536111355 0.000000000000
vt 1.000000000000 0.742268085480 0.000000000000
vt 0.000000000000 0.742268085480 0.000000000000
vt 0.000000000000 0.484535992146 0.000000000000
vt 1.000000000000 0.484535992146 0.000000000000
vt 1.000000000000 0.742267966270 0.000000000000
vt 0.000000000000 0.742267966270 0.000000000000
# 34 texture coords

usemtl 08___Default
s off
f 1/1/1 2/1/2 3/1/3
f 4/1/4 5/1/5 6/1/6
f 6/1/6 7/1/6 8/1/7
f 4/1/4 6/1/6 8/1/7
f 8/1/7 9/1/8 10/1/9
f 10/1/9 11/1/10 12/2/11
f 8/1/7 10/1/9 12/2/11
f 4/1/4 8/1/7 12/2/11
f 12/2/11 13/2/12 14/3/13
f 14/3/13 15/4/6 16/5/14
f 12/2/11 14/3/13 16/5/14
f 4/1/4 12/2/11 16/5/14
f 4/1/4 16/5/14 17/6/15
f 18/1/16 4/1/4 17/6/15
f 3/1/3 18/1/16 17/6/15
f 1/1/1 3/1/3 17/6/15
f 17/6/15 19/7/6 20/8/6
f 20/8/6 21/9/6 22/10/17
f 17/6/15 20/8/6 22/10/17
f 1/1/1 17/6/15 22/10/17
f 22/10/17 23/11/18 24/12/19
f 1/1/1 22/10/17 24/12/19
f 1/1/1 24/12/19 25/13/20
f 26/1/21 1/1/1 25/13/20
f 27/1/22 28/1/23 29/1/24
f 30/1/25 31/1/26 32/1/27
f 32/1/27 33/1/28 34/1/29
f 30/1/25 32/1/27 34/1/29
f 34/1/29 35/1/30 36/1/31
f 36/1/31 37/1/32 38/2/33
f 34/1/29 36/1/31 38/2/33
f 30/1/25 34/1/29 38/2/33
f 38/2/33 39/2/34 40/3/35
f 40/3/35 41/4/36 42/5/37
f 38/2/33 40/3/35 42/5/37
f 30/1/25 38/2/33 42/5/37
f 30/1/25 42/5/37 43/6/38
f 44/1/39 30/1/25 43/6/38
f 29/1/24 44/1/39 43/6/38
f 27/1/22 29/1/24 43/6/38
f 43/6/38 45/7/40 46/8/40
f 46/8/40 47/9/41 48/10/42
f 43/6/38 46/8/40 48/10/42
f 27/1/22 43/6/38 48/10/42
f 48/10/42 49/11/36 50/12/43
f 27/1/22 48/10/42 50/12/43
f 27/1/22 50/12/43 51/13/44
f 52/1/45 27/1/22 51/13/44
f 53/1/46 26/1/47 25/13/48
f 25/13/48 54/13/49 53/1/46
f 54/13/49 25/13/48 24/12/50
f 24/12/50 55/12/51 54/13/49
f 55/12/51 24/12/50 23/11/52
f 23/11/52 56/11/53 55/12/51
f 56/11/53 23/11/52 22/10/54
f 22/10/54 57/10/55 56/11/53
f 57/10/55 22/10/54 21/9/56
f 21/9/56 58/9/57 57/10/55
f 58/9/57 21/9/56 20/8/58
f 20/8/58 59/8/59 58/9/57
f 59/8/59 20/8/58 19/7/60
f 19/7/60 60/7/61 59/8/59
f 60/7/61 19/7/60 17/6/62
f 17/6/62 61/6/63 60/7/61
f 61/6/63 17/6/62 16/5/64
f 16/5/64 62/5/65 61/6/63
f 62/5/65 16/5/64 15/4/66
f 15/4/66 63/4/67 62/5/65
f 63/4/67 15/4/66 14/3/68
f 14/3/68 64/3/69 63/4/67
f 64/3/69 14/3/68 13/2/70
f 13/2/70 65/2/71 64/3/69
f 53/1/46 66/1/72 1/1/73
f 1/1/73 26/1/47 53/1/46
f 13/2/70 12/2/74 67/2/75
f 67/2/75 65/2/71 13/2/70
f 66/1/72 68/1/76 2/1/77
f 2/1/77 1/1/73 66/1/72
f 68/1/76 69/1/78 3/1/79
f 3/1/79 2/1/77 68/1/76
f 69/1/78 70/1/80 18/1/81
f 18/1/81 3/1/79 69/1/78
f 70/1/80 71/1/82 4/1/83
f 4/1/83 18/1/81 70/1/80
f 71/1/82 72/1/84 5/1/85
f 5/1/85 4/1/83 71/1/82
f 72/1/84 73/1/86 6/1/87
f 6/1/87 5/1/85 72/1/84
f 73/1/86 74/1/88 7/1/89
f 7/1/89 6/1/87 73/1/86
f 74/1/88 75/1/90 8/1/91
f 8/1/91 7/1/89 74/1/88
f 75/1/90 76/1/92 9/1/93
f 9/1/93 8/1/91 75/1/90
f 76/1/92 77/1/94 10/1/95
f 10/1/95 9/1/93 76/1/92
f 77/1/94 78/1/96 11/1/97
f 11/1/97 10/1/95 77/1/94
f 67/2/75 12/2/74 11/14/97
f 11/14/97 78/14/96 67/2/75
f 79/1/98 52/1/99 51/13/100
f 51/13/100 80/13/101 79/1/98
f 80/13/101 51/13/100 50/12/102
f 50/12/102 81/12/103 80/13/101
f 81/12/103 50/12/102 49/11/104
f 49/11/104 82/11/105 81/12/103
f 82/11/105 49/11/104 48/10/106
f 48/10/106 83/10/107 82/11/105
f 83/10/107 48/10/106 47/9/108
f 47/9/108 84/9/109 83/10/107
f 84/9/109 47/9/108 46/8/110
f 46/8/110 85/8/111 84/9/109
f 85/8/111 46/8/110 45/7/112
f 45/7/112 86/7/113 85/8/111
f 86/7/113 45/7/112 43/6/114
f 43/6/114 87/6/115 86/7/113
f 87/6/115 43/6/114 42/5/116
f 42/5/116 88/5/117 87/6/115
f 88/5/117 42/5/116 41/4/118
f 41/4/118 89/4/119 88/5/117
f 89/4/119 41/4/118 40/3/120
f 40/3/120 90/3/121 89/4/119
f 90/3/121 40/3/120 39/2/122
f 39/2/122 91/2/123 90/3/121
f 79/1/98 92/1/124 27/1/125
f 27/1/125 52/1/99 79/1/98
f 39/2/122 38/2/126 93/2/127
f 93/2/127 91/2/123 39/2/122
f 92/1/124 94/1/128 28/1/129
f 28/1/129 27/1/125 92/1/124
f 94/1/128 95/1/130 29/1/131
f 29/1/131 28/1/129 94/1/128
f 95/1/130 96/1/132 44/1/133
f 44/1/133 29/1/131 95/1/130
f 96/1/132 97/1/134 30/1/135
f 30/1/135 44/1/133 96/1/132
f 97/1/134 98/1/136 31/1/136
f 31/1/136 30/1/135 97/1/134
f 98/1/136 99/1/137 32/1/138
f 32/1/138 31/1/136 98/1/136
f 99/1/137 100/1/139 33/1/140
f 33/1/140 32/1/138 99/1/137
f 100/1/139 101/1/141 34/1/142
f 34/1/142 33/1/140 100/1/139
f 101/1/141 102/1/143 35/1/144
f 35/1/144 34/1/142 101/1/141
f 102/1/143 103/1/145 36/1/146
f 36/1/146 35/1/144 102/1/143
f 103/1/145 104/1/147 37/1/148
f 37/1/148 36/1/146 103/1/145
f 93/2/127 38/2/126 37/14/148
f 37/14/148 104/14/147 93/2/127
f 55/12/149 56/11/150 57/10/151
f 57/10/151 58/9/152 59/8/152
f 59/8/152 60/7/152 61/6/153
f 57/10/151 59/8/152 61/6/153
f 62/5/154 63/4/152 64/3/155
f 64/3/155 65/2/156 67/2/157
f 62/5/154 64/3/155 67/2/157
f 67/2/157 78/1/158 77/1/159
f 77/1/159 76/1/160 75/1/161
f 67/2/157 77/1/159 75/1/161
f 75/1/161 74/1/152 73/1/152
f 73/1/152 72/1/152 71/1/162
f 75/1/161 73/1/152 71/1/162
f 67/2/157 75/1/161 71/1/162
f 62/5/154 67/2/157 71/1/162
f 61/6/153 62/5/154 71/1/162
f 61/6/153 71/1/162 70/1/163
f 61/6/153 70/1/163 69/1/164
f 69/1/164 68/1/165 66/1/166
f 61/6/153 69/1/164 66/1/166
f 57/10/151 61/6/153 66/1/166
f 55/12/149 57/10/151 66/1/166
f 54/13/167 55/12/149 66/1/166
f 53/1/168 54/13/167 66/1/166
f 81/12/149 82/11/169 83/10/170
f 83/10/170 84/9/152 85/8/152
f 85/8/152 86/7/152 87/6/171
f 83/10/170 85/8/152 87/6/171
f 88/5/172 89/4/152 90/3/173
f 90/3/173 91/2/174 93/2/175
f 88/5/172 90/3/173 93/2/175
f 93/2/175 104/1/176 103/1/177
f 103/1/177 102/1/178 101/1/179
f 93/2/175 103/1/177 101/1/179
f 101/1/179 100/1/180 99/1/181
f 99/1/181 98/1/152 97/1/182
f 101/1/179 99/1/181 97/1/182
f 93/2/175 101/1/179 97/1/182
f 88/5/172 93/2/175 97/1/182
f 87/6/171 88/5/172 97/1/182
f 87/6/171 97/1/182 96/1/183
f 87/6/171 96/1/183 95/1/184
f 95/1/184 94/1/152 92/1/185
f 87/6/171 95/1/184 92/1/185
f 83/10/170 87/6/171 92/1/185
f 81/12/149 83/10/170 92/1/185
f 80/13/186 81/12/149 92/1/185
f 79/1/187 80/13/186 92/1/185
f 105/15/188 106/16/189 107/17/190
f 107/17/190 108/18/191 105/15/188
f 105/15/188 108/18/191 109/19/192
f 109/19/192 110/20/193 105/15/188
f 110/20/193 109/19/192 111/21/194
f 111/21/194 112/22/195 110/20/193
f 107/17/190 106/16/189 113/23/196
f 113/23/196 114/24/197 107/17/190
f 114/24/197 113/23/196 115/25/198
f 115/25/198 116/26/199 114/24/197
f 117/27/200 118/28/201 119/29/202
f 119/29/202 120/30/203 117/27/200
f 120/30/203 119/29/202 112/25/195
f 112/25/195 111/26/194 120/30/203
f 121/31/204 122/32/205 123/33/206
f 123/33/206 124/34/207 121/31/204
f 124/34/207 123/33/206 116/25/199
f 116/25/199 115/26/198 124/34/207
f 125/15/208 126/18/209 127/17/210
f 127/17/210 128/16/211 125/15/208
f 129/27/212 130/28/213 118/28/201
f 118/28/201 117/27/200 129/27/212
f 131/31/214 132/32/215 122/32/205
f 122/32/205 121/31/204 131/31/214
f 125/15/208 133/20/216 134/19/217
f 134/19/217 126/18/209 125/15/208
f 133/20/216 135/22/218 136/21/219
f 136/21/219 134/19/217 133/20/216
f 127/17/210 137/24/220 138/23/221
f 138/23/221 128/16/211 127/17/210
f 137/24/220 139/26/222 140/25/223
f 140/25/223 138/23/221 137/24/220
f 129/27/212 141/30/224 142/29/225
f 142/29/225 130/28/213 129/27/212
f 141/30/224 136/26/219 135/25/218
f 135/25/218 142/29/225 141/30/224
f 131/31/214 143/34/226 144/33/227
f 144/33/227 132/32/215 131/31/214
f 143/34/226 140/26/223 139/25/222
f 139/25/222 144/33/227 143/34/226
# 240 faces
