o arm_l_link5
# 3ds Max Wavefront OBJ Exporter v0.99 - (c)2007 guruware
# File Created: 28.05.2026 15:38:01

mtllib arm_l_link5.mtl

#
# object Cylinder001
#

v  0.027598766610 0.007395069581 0.000000014901
v  0.028572341427 -0.000000001046 0.000000014901
v  0.028572343290 -0.000000001184 -0.039499998093
v  0.027598768473 0.007395069581 -0.039499998093
v  0.024744370952 0.014286177233 0.000000014901
v  0.024744370952 0.014286177233 -0.039499998093
v  0.020203689113 0.020203709602 0.000000014901
v  0.020203689113 0.020203707740 -0.039499998093
v  0.014286161400 0.024744383991 0.000000014901
v  0.014286161400 0.024744382128 -0.039499998093
v  0.007395055611 0.027598777786 0.000000014901
v  0.007395055611 0.027598775923 -0.039499998093
v  -0.000000013481 0.028572358191 0.000000014901
v  -0.000000013015 0.028572356328 -0.039499998093
v  -0.007395082619 0.027598777786 0.000000014901
v  -0.007395082619 0.027598775923 -0.039499998093
v  -0.014286190271 0.024744393304 0.000000014901
v  -0.014286190271 0.024744391441 -0.039499998093
v  -0.020203715190 0.020203711465 0.000000014901
v  -0.020203713328 0.020203709602 -0.039499998093
v  -0.024744400755 0.014286185615 0.000000014901
v  -0.024744398892 0.014286185615 -0.039499998093
v  -0.027598790824 0.007395079825 0.000000014901
v  -0.027598788962 0.007395079825 -0.039499998093
v  -0.028572373092 0.000000010081 0.000000014901
v  -0.028572371230 0.000000009943 -0.039499998093
v  -0.027598796412 -0.007395058870 0.000000000000
v  -0.027598796412 -0.007395058870 -0.039499998093
v  -0.024744408205 -0.014286165126 0.000000000000
v  -0.024744408205 -0.014286165126 -0.039499998093
v  -0.020203733817 -0.020203700289 0.000000000000
v  -0.020203733817 -0.020203702152 -0.039499998093
v  -0.014286202379 -0.024744380265 0.000000000000
v  -0.014286202379 -0.024744382128 -0.039499998093
v  -0.007395097055 -0.027598774061 0.000000000000
v  -0.007395097055 -0.027598774061 -0.039499998093
v  -0.000000028922 -0.028572356328 0.000000000000
v  -0.000000028456 -0.028572358191 -0.039499998093
v  0.007395039778 -0.027598779649 0.000000000000
v  0.007395039778 -0.027598781511 -0.039499998093
v  0.014286147431 -0.024744398892 0.000000000000
v  0.014286147431 -0.024744400755 -0.039499998093
v  0.020203681663 -0.020203720778 0.000000000000
v  0.020203683525 -0.020203722641 -0.039499998093
v  0.024744361639 -0.014286193997 0.000000000000
v  0.024744363502 -0.014286193997 -0.039499998093
v  0.027598757297 -0.007395091932 0.000000000000
v  0.027598757297 -0.007395091932 -0.039499998093
v  -0.017249999568 0.017500000075 -0.110320001841
v  -0.009549997747 0.017500000075 -0.110320001841
v  -0.009549997747 0.017500000075 -0.129820004106
v  -0.020269140601 0.017500000075 -0.129820004106
v  -0.017249999568 -0.017500000075 -0.110320001841
v  -0.027240723372 -0.017499996349 -0.104851529002
v  -0.027240723372 -0.017500000075 -0.120448872447
v  -0.020269140601 -0.017500003800 -0.129820004106
v  -0.009549997747 -0.017500003800 -0.129820004106
v  -0.009549997747 -0.017500000075 -0.110320001841
v  -0.027240723372 0.017500000075 -0.104851529002
v  -0.024209195748 -0.017499996349 -0.101820006967
v  -0.024209195748 0.017500000075 -0.101820006967
v  -0.017249999568 -0.017499996349 -0.101820006967
v  -0.017249999568 0.017500000075 -0.101820006967
v  -0.027240723372 0.017500000075 -0.120448872447
v  -0.017000004649 0.008721286431 -0.078500002623
v  -0.017000004649 0.008721286431 -0.053500000387
v  -0.025227984414 0.008721285500 -0.053500000387
v  -0.020297847688 0.008721286431 -0.078500002623
v  -0.017000006512 0.011278705671 -0.078500002623
v  -0.020297849551 0.011278706603 -0.078500002623
v  -0.025227984414 0.011278706603 -0.053500004113
v  -0.017000002787 0.011278706603 -0.053500004113
v  -0.017000004649 -0.011278714053 -0.078500002623
v  -0.017000004649 -0.011278714053 -0.053500000387
v  -0.025227984414 -0.011278714985 -0.053500000387
v  -0.020297847688 -0.011278714053 -0.078500002623
v  -0.017000006512 -0.008721294813 -0.078500002623
v  -0.020297849551 -0.008721293882 -0.078500002623
v  -0.025227984414 -0.008721293882 -0.053500004113
v  -0.017000002787 -0.008721293882 -0.053500004113
v  -0.021300001070 0.026353918016 -0.087412714958
v  -0.017000000924 0.026353918016 -0.087412714958
v  -0.017000000924 0.025549009442 -0.091499969363
v  -0.021300001070 0.025549009442 -0.091499969363
v  -0.017000000924 -0.004058804829 -0.091499999166
v  -0.017000000924 -0.004058812745 -0.087412744761
v  -0.021300001070 -0.004058812745 -0.087412752211
v  -0.021300001070 -0.004058804829 -0.091499999166
v  -0.017000000924 0.024922929704 -0.054499983788
v  -0.021300001070 0.024922929704 -0.054499983788
v  -0.021300001070 -0.004058870487 -0.054500013590
v  -0.017000000924 -0.004058870487 -0.054500013590
v  -0.021300001070 0.024922963232 -0.075150974095
v  -0.021300001070 -0.004058837425 -0.075151003897
v  -0.017000000924 0.024922963232 -0.075150974095
v  -0.017000000924 -0.004058837425 -0.075151003897
v  -0.021300001070 0.026026021689 -0.079238221049
v  -0.021300001070 -0.004058829043 -0.079238250852
v  -0.017000000924 0.026026021689 -0.079238221049
v  -0.017000000924 0.026483140886 -0.083325475454
v  -0.021300001070 0.026483140886 -0.083325475454
v  -0.017000000924 -0.004058829043 -0.079238250852
v  -0.021300001070 -0.004058821127 -0.083325505257
v  -0.017000000924 -0.004058821127 -0.083325497806
v  0.027950014919 0.007395068184 -0.112098768353
v  0.027950014919 -0.000000002216 -0.113072343171
v  -0.017000002787 -0.000000002354 -0.113072343171
v  -0.017000002787 0.007395068184 -0.112098768353
v  0.027950014919 0.014286176302 -0.109244376421
v  -0.017000000924 0.014286176302 -0.109244368970
v  0.027950014919 0.020203707740 -0.104703694582
v  -0.017000000924 0.020203705877 -0.104703687131
v  0.027950014919 0.024744382128 -0.098786160350
v  -0.017000000924 0.024744380265 -0.098786160350
v  0.027950014919 0.027598775923 -0.091895058751
v  -0.017000000924 0.027598774061 -0.091895058751
v  0.027950014919 0.028572356328 -0.084499984980
v  -0.017000000924 0.028572354466 -0.084499984980
v  0.027950014919 0.027598775923 -0.077104918659
v  -0.017000000924 0.027598774061 -0.077104918659
v  0.027950014919 0.024744391441 -0.070213809609
v  -0.017000000924 0.024744389579 -0.070213809609
v  0.027950014919 0.020203709602 -0.064296290278
v  -0.017000000924 0.020203707740 -0.064296290278
v  0.027950014919 0.014286184683 -0.059755600989
v  -0.017000000924 0.014286184683 -0.059755600989
v  0.027950014919 0.007395078428 -0.056901209056
v  -0.016999999061 0.007395078428 -0.056901209056
v  0.027950014919 0.000000008910 -0.055927626789
v  -0.016999999061 0.000000008772 -0.055927626789
v  0.027950000018 -0.007395060267 -0.056901205331
v  -0.016999999061 -0.007395060267 -0.056901201606
v  0.027950000018 -0.014286166057 -0.059755593538
v  -0.017000000924 -0.014286166057 -0.059755593538
v  0.027950000018 -0.020203702152 -0.064296267927
v  -0.017000000924 -0.020203704014 -0.064296267927
v  0.027950000018 -0.024744382128 -0.070213794708
v  -0.017000000924 -0.024744383991 -0.070213794708
v  0.027950000018 -0.027598775923 -0.077104903758
v  -0.017000000924 -0.027598775923 -0.077104903758
v  0.027950000018 -0.028572358191 -0.084499970078
v  -0.017000000924 -0.028572360054 -0.084499970078
v  0.027950000018 -0.027598781511 -0.091895043850
v  -0.017000000924 -0.027598783374 -0.091895043850
v  0.027950000018 -0.024744400755 -0.098786145449
v  -0.017000000924 -0.024744402617 -0.098786145449
v  0.027950000018 -0.020203722641 -0.104703679681
v  -0.017000000924 -0.020203724504 -0.104703679681
v  0.027950000018 -0.014286194928 -0.109244361520
v  -0.017000000924 -0.014286194928 -0.109244361520
v  0.027950000018 -0.007395093329 -0.112098760903
v  -0.017000002787 -0.007395093329 -0.112098753452
v  -0.030001936480 0.008038987406 -0.053500004113
v  -0.031060285866 -0.000000008513 -0.053500004113
v  -0.031060282141 -0.000000007399 -0.039500001818
v  -0.030001932755 0.008038988337 -0.039500001818
v  -0.026898996904 0.015530138277 -0.053500007838
v  -0.026898991317 0.015530139208 -0.039500005543
v  -0.021962935105 0.021962938830 -0.053500015289
v  -0.021962929517 0.021962938830 -0.039500005543
v  -0.017030155286 0.025747986510 -0.039500005543
v  -0.017030157149 0.025747986510 -0.053500007838
v  -0.008038986474 0.030001932755 -0.071500003338
v  -0.015530135483 0.026898991317 -0.071500003338
v  -0.015530132689 0.026898993179 -0.039500005543
v  -0.008038983680 0.030001934618 -0.039500009269
v  0.000000006870 0.031060287729 -0.071500003338
v  0.000000009757 0.031060289592 -0.039500009269
v  0.008039003238 0.030001932755 -0.071500003338
v  0.008039006032 0.030001934618 -0.039500009269
v  0.015530154109 0.026899006218 -0.071500003338
v  0.015530156903 0.026899008080 -0.039500009269
v  0.021962944418 0.021962946281 -0.065480098128
v  0.021962948143 0.021962946281 -0.039500009269
v  0.026899009943 0.015530152246 -0.060003325343
v  0.026899013668 0.015530154109 -0.039500009269
v  0.030001947656 0.008039003238 -0.056663662195
v  0.030001951382 0.008039005101 -0.039500009269
v  0.031060304493 0.000000008838 -0.055500000715
v  0.031060308218 0.000000010127 -0.039500009269
v  0.030001953244 -0.008038986474 -0.056663647294
v  0.030001958832 -0.008038984612 -0.039500009269
v  0.026899021119 -0.015530135483 -0.060003310442
v  0.026899026707 -0.015530133620 -0.039500005543
v  0.021962970495 -0.021962942556 -0.065480083227
v  0.021962974221 -0.021962940693 -0.039500005543
v  0.015530172735 -0.026899002492 -0.071499980986
v  0.015530175529 -0.026899000630 -0.039500005543
v  0.008039023727 -0.030001943931 -0.071499980986
v  0.008039026521 -0.030001940206 -0.039500001818
v  0.000000029086 -0.031060302630 -0.071499980986
v  0.000000031973 -0.031060300767 -0.039500001818
v  -0.008038964123 -0.030001951382 -0.071499973536
v  -0.008038961329 -0.030001949519 -0.039500001818
v  -0.015530114993 -0.026899026707 -0.071499988437
v  -0.015530112199 -0.026899024844 -0.039500001818
v  -0.017030140385 -0.025748014450 -0.039500001818
v  -0.017030142248 -0.025748016313 -0.053499992937
v  -0.017030142248 -0.025748018175 -0.071499988437
v  -0.026898982003 -0.015530171804 -0.053499989212
v  -0.021962923929 -0.021962968633 -0.053499996662
v  -0.021962918341 -0.021962966770 -0.039500001818
v  -0.026898978278 -0.015530170873 -0.039500001818
v  -0.030001927167 -0.008039027452 -0.053499989212
v  -0.030001921579 -0.008039026521 -0.039500001818
v  -0.017030157149 0.025747984648 -0.071500010788
# 206 vertices

vn 0.965925872326 0.258819103241 0.000000045346
vn 1.000000000000 -0.000000377945 0.000000026176
vn 1.000000000000 -0.000000569310 0.000000047358
vn 0.965925753117 0.258819162846 0.000000026188
vn 0.866025209427 0.500000298023 0.000000019360
vn 0.866025149822 0.500000417233 -0.000000012757
vn 0.707106649876 0.707107007504 -0.000000020587
vn 0.707106530666 0.707106947899 -0.000000033344
vn 0.500000059605 0.866025388241 -0.000000040838
vn 0.258819371462 0.965925753117 -0.000000045549
vn 0.258819371462 0.965925753117 -0.000000044865
vn -0.000000009568 1.000000000000 -0.000000047840
vn 0.000000007176 1.000000000000 -0.000000046472
vn -0.258818745613 0.965925872326 -0.000000046233
vn -0.258818775415 0.965925931931 -0.000000045549
vn -0.499999940395 0.866025447845 -0.000000040838
vn -0.500000000000 0.866025388241 -0.000000053595
vn -0.707106649876 0.707106888294 -0.000000053931
vn -0.866025209427 0.500000417233 -0.000000053595
vn -0.866025149822 0.500000536442 -0.000000040838
vn -0.965925753117 0.258819282055 -0.000000045549
vn -0.965925753117 0.258819282055 -0.000000045752
vn -1.000000000000 0.000000449707 -0.000000046953
vn -1.000000000000 0.000000482000 -0.000000026582
vn -0.965925931931 -0.258818715811 -0.000000020574
vn -0.965925931931 -0.258818656206 0.000000000000
vn -0.866025686264 -0.499999493361 0.000000000000
vn -0.866025745869 -0.499999344349 0.000000012757
vn -0.707107126713 -0.707106530666 0.000000020587
vn -0.707107126713 -0.707106471062 0.000000033344
vn -0.500000119209 -0.866025328636 0.000000040838
vn -0.500000119209 -0.866025328636 0.000000021477
vn -0.258819490671 -0.965925693512 0.000000019361
vn -0.258819550276 -0.965925693512 0.000000020092
vn -0.000000373161 -1.000000000000 0.000000027063
vn -0.000000499940 -1.000000000000 0.000000046472
vn 0.258818328381 -0.965925991535 0.000000046233
vn 0.258818268776 -0.965925931931 0.000000045549
vn 0.499999225140 -0.866025865078 0.000000040838
vn 0.499999195337 -0.866025924683 0.000000053595
vn 0.707106471062 -0.707107007504 0.000000053931
vn 0.866025149822 -0.500000476837 0.000000053595
vn 0.866025209427 -0.500000357628 0.000000021477
vn 0.965925753117 -0.258819550276 0.000000019360
vn 0.965925633907 -0.258819609880 0.000000020979
vn -0.000000000000 -0.000000000000 -1.000000000000
vn -0.000000000000 -0.000000000000 -0.999999940395
vn 0.000000000000 0.000000000000 -1.000000000000
vn -0.000000000000 0.000000000000 -1.000000000000
vn -0.000000000000 0.000000000000 -0.999999940395
vn 0.000000000000 0.000000000000 -0.999999940395
vn 0.000000000000 -0.000000000000 -1.000000000000
vn 0.000001619445 -0.000001429565 0.999999940395
vn 0.000007131206 -0.000002953850 1.000000000000
vn 0.000000390460 -0.000000482779 1.000000000000
vn 0.000000000000 0.000000000000 1.000000000000
vn 0.000000000000 0.000000000000 0.999999940395
vn 0.000000031607 -0.000000164237 1.000000000000
vn -0.000000074387 -0.000000482779 1.000000000000
vn -0.000007131245 -0.000002953857 1.000000000000
vn -0.000001619446 -0.000001429565 1.000000000000
vn -0.000000097922 -0.000000403259 0.999999940395
vn 0.000000129530 -0.000000567496 1.000000000000
vn 0.000000000000 1.000000000000 0.000000043711
vn -0.000000120153 -1.000000000000 0.000000200563
vn -0.000000165221 -1.000000000000 0.000000253537
vn -0.000000235781 -1.000000000000 0.000000188854
vn -0.000000084612 -1.000000000000 0.000000162231
vn 0.000000000000 0.000000043711 -1.000000000000
vn 1.000000000000 0.000000000000 0.000000000000
vn -0.707106173038 -0.000000030909 0.707107424736
vn 0.000000000000 -0.000000043711 1.000000000000
vn -0.802326858044 0.000000026091 -0.596885025501
vn -0.802326798439 0.000000026091 -0.596885085106
vn -1.000000000000 0.000000000000 0.000000000000
vn 0.000000000000 -0.000000030407 1.000000000000
vn 0.000000000000 -1.000000000000 0.000000147329
vn -0.000000106522 -1.000000000000 0.000000307345
vn 0.000000168226 -1.000000000000 -0.000000004201
vn -0.000000006620 1.000000000000 -0.000000017118
vn 0.000000141202 -0.000000225794 -1.000000000000
vn -0.981104433537 -0.000000540833 -0.193479135633
vn -0.000000000000 0.000000772041 1.000000000000
vn 1.000000000000 -0.000000640907 -0.000000074506
vn 0.000000000000 0.993619620800 -0.112783886492
vn 0.000000000000 0.981155395508 -0.193220347166
vn 0.000000000000 -1.000000000000 -0.000001985805
vn 0.000000000000 0.000000980758 -1.000000000000
vn 0.000000000000 -0.000001062693 1.000000000000
vn 0.000000000000 1.000000000000 0.000001606063
vn 0.000000000000 0.991326987743 0.131418675184
vn 0.000000000000 -1.000000000000 -0.000001606063
vn 0.000000000001 -1.000000000000 -0.000001795934
vn 0.000000000000 0.982475638390 0.186391249299
vn 0.000000000000 0.999204695225 0.039875313640
vn 0.000000000001 -1.000000000000 -0.000001985805
vn -0.000000002377 0.258819073439 -0.965925872326
vn -0.000000021004 -0.000000377945 -1.000000000000
vn -0.000000002092 -0.000000578878 -1.000000000000
vn -0.000000019482 0.258819192648 -0.965925812721
vn -0.000000020569 0.500000298023 -0.866025328636
vn -0.000000049245 0.500000476837 -0.866025149822
vn -0.000000048820 0.707107007504 -0.707106649876
vn -0.000000060210 0.707107067108 -0.707106590271
vn -0.000000057742 0.866025388241 -0.500000059605
vn -0.000000055952 0.866025388241 -0.500000000000
vn -0.000000050448 0.965925812721 -0.258819371462
vn -0.000000048346 0.965925812721 -0.258819401264
vn -0.000000041751 1.000000000000 0.000000009568
vn -0.000000041126 1.000000000000 -0.000000016744
vn -0.000000031707 0.965925931931 0.258818805218
vn -0.000000029604 0.965925931931 0.258818775415
vn -0.000000015821 0.866025447845 0.499999940395
vn -0.000000025421 0.866025388241 0.500000000000
vn -0.000000016304 0.707106888294 0.707106709480
vn -0.000000016304 0.707106888294 0.707106649876
vn -0.000000009421 0.500000417233 0.866025209427
vn 0.000000001969 0.500000536442 0.866025149822
vn 0.000000002196 0.258819311857 0.965925872326
vn 0.000000002015 0.258819311857 0.965925872326
vn 0.000000002454 0.000000444923 1.000000000000
vn 0.000000020642 0.000000478412 1.000000000000
vn 0.000000023853 -0.258818715811 0.965925931931
vn 0.000000042222 -0.258818626404 0.965925931931
vn 0.000000037855 -0.499999523163 0.866025805473
vn 0.000000049245 -0.499999374151 0.866025865078
vn 0.000000048820 -0.707106471062 0.707107186317
vn 0.000000060210 -0.707106411457 0.707107186317
vn 0.000000057742 -0.866025328636 0.500000178814
vn 0.000000038666 -0.866025447845 0.500000119209
vn 0.000000027708 -0.965925812721 0.258819520473
vn 0.000000026870 -0.965925693512 0.258819520473
vn 0.000000023201 -1.000000000000 0.000000373161
vn 0.000000041126 -1.000000000000 0.000000510704
vn 0.000000031707 -0.965926051140 -0.258818298578
vn 0.000000029604 -0.965926051140 -0.258818298578
vn 0.000000015821 -0.866025865078 -0.499999195337
vn 0.000000025421 -0.866025924683 -0.499999195337
vn 0.000000016304 -0.707107126713 -0.707106530666
vn 0.000000009421 -0.500000476837 -0.866025149822
vn -0.000000019255 -0.500000357628 -0.866025328636
vn -0.000000024936 -0.258819550276 -0.965925753117
vn -0.000000023491 -0.258819639683 -0.965925693512
vn -1.000000000000 0.000000000000 0.000000043711
vn 1.000000000000 -0.000001429565 -0.000001663157
vn 1.000000000000 -0.000002953850 -0.000007174917
vn 1.000000000000 -0.000000482779 -0.000000434171
vn 1.000000000000 0.000000000000 -0.000000043711
vn 1.000000000000 -0.000000164237 -0.000000075319
vn 1.000000000000 -0.000000482779 0.000000030676
vn 1.000000000000 -0.000002953857 0.000007087534
vn 1.000000000000 -0.000001429565 0.000001575735
vn 1.000000000000 -0.000000403259 0.000000054211
vn 1.000000000000 -0.000000567496 -0.000000173241
vn -0.965925872326 0.258818984032 0.000000190675
vn -1.000000000000 -0.000000422311 0.000000265105
vn -1.000000000000 -0.000000584971 0.000000220124
vn -0.965925872326 0.258819103241 0.000000231602
vn -0.866025269032 0.500000298023 0.000000221169
vn -0.866025209427 0.500000357628 0.000000289637
vn -0.707106590271 0.707107007504 0.000000195082
vn -0.707106590271 0.707107007504 0.000000282233
vn -0.608761012554 0.793353736401 0.000000149768
vn -0.608760237694 0.793354272842 -0.000000018097
vn -0.258819460869 0.965925753117 -0.000000005593
vn -0.500000357628 0.866025269032 0.000000018410
vn -0.499999940395 0.866025447845 0.000000043997
vn -0.258819460869 0.965925753117 -0.000000005437
vn -0.000000106559 1.000000000000 -0.000000029371
vn -0.000000130480 1.000000000000 -0.000000029059
vn 0.258818596601 0.965925931931 -0.000000051002
vn 0.258818596601 0.965925931931 -0.000000050846
vn 0.470642954111 0.882323801517 -0.000000066922
vn 0.499999880791 0.866025507450 -0.000000082427
vn 0.670221745968 0.742160916328 -0.000000098455
vn 0.707106649876 0.707106947899 -0.000000146194
vn 0.846010446548 0.533166348934 -0.000000165724
vn 0.866025149822 0.500000536442 -0.000000204019
vn 0.960359632969 0.278764128685 -0.000000205163
vn 0.965925872326 0.258819311857 -0.000000214345
vn 1.000000000000 0.000000512875 -0.000000201302
vn 1.000000000000 0.000000519189 -0.000000239690
vn 0.960359811783 -0.278763443232 -0.000000239001
vn 0.965925931931 -0.258818626404 -0.000000258944
vn 0.846011400223 -0.533164858818 -0.000000188971
vn 0.866025805473 -0.499999254942 -0.000000153815
vn 0.670221924782 -0.742160797119 -0.000000060364
vn 0.707107305527 -0.707106292248 -0.000000051772
vn 0.470643609762 -0.882323443890 -0.000000014670
vn 0.500000119209 -0.866025447845 0.000000004425
vn 0.258819639683 -0.965925693512 0.000000038981
vn 0.258819609880 -0.965925693512 0.000000037155
vn 0.000000565834 -1.000000000000 0.000000053877
vn 0.000000630420 -1.000000000000 0.000000029059
vn -0.258818328381 -0.965926051140 0.000000051002
vn -0.258818298578 -0.965926051140 0.000000050846
vn -0.499999225140 -0.866025924683 0.000000068611
vn -0.499999195337 -0.866025924683 0.000000089890
vn -0.608760833740 -0.793353796005 0.000000182020
vn -0.608760654926 -0.793353974819 0.000000082375
vn -0.608760893345 -0.793353736401 0.000000075000
vn -0.866025090218 -0.500000536442 0.000000270085
vn -0.707106471062 -0.707107186317 0.000000251834
vn -0.707106411457 -0.707107186317 0.000000276348
vn -0.866025090218 -0.500000536442 0.000000275916
vn -0.965925693512 -0.258819639683 0.000000322824
vn -0.965925693512 -0.258819729090 0.000000319460
vn -0.608761310577 0.793353557587 0.000000025940
vn -1.000000000000 -0.000000304447 -0.000000016057
vn -1.000000000000 -0.000000304447 -0.000000016058
vn -0.000000023636 -0.000000320251 -1.000000000000
vn -0.000003367453 -0.000001446060 -1.000000000000
vn -0.000000546668 -0.000000362086 -1.000000000000
vn 0.000004340357 -0.000001273843 -1.000000000000
vn -0.000000087423 -0.000000087423 -1.000000000000
vn 0.000001012543 -0.000001002668 -1.000000000000
vn 0.000005746949 -0.000005722512 -1.000000000000
vn 0.000000962854 -0.000001359111 -1.000000000000
vn 0.000000501260 -0.000000304447 -1.000000000000
vn 0.000000125369 -0.000000197690 -1.000000000000
vn 0.000002073837 0.000002729189 -1.000000000000
vn 0.000000798122 -0.000000093700 -1.000000000000
vn 0.000005212615 -0.000000521469 -1.000000000000
vn 0.000001715683 -0.000000338603 -1.000000000000
vn -0.000000319124 0.000001672521 -1.000000000000
vn 0.000000109582 -0.000000087423 -1.000000000000
vn -0.000000319125 -0.000001847376 -1.000000000000
vn 0.000000082947 -0.000000462082 -1.000000000000
vn 0.000000524600 -0.000000364406 -1.000000000000
vn -0.000000012315 -0.000000206181 -1.000000000000
vn -0.000000319125 0.000001672521 -1.000000000000
vn 0.709622025490 0.012137510814 -0.704478025436
vn 0.754051089287 -0.019651127979 -0.656521737576
vn 0.630434691906 0.121468842030 -0.766679465771
vn 0.696914553642 0.023716734722 -0.716762006283
vn 0.683285832405 -0.000000042475 -0.730150997639
vn 0.700981378555 -0.001796429511 -0.713177323341
vn 0.754049181938 0.019649511203 -0.656524062157
vn 0.739594936371 0.000839238812 -0.673051774502
vn 0.725432276726 -0.006158404984 -0.688266038895
# 240 vertex normals

vt 0.791666626930 1.000000000000 0.000000000000
vt 0.750000000000 1.000000000000 0.000000000000
vt 0.750000000000 0.000000000000 0.000000000000
vt 0.791666626930 0.000000000000 0.000000000000
vt 0.833333313465 1.000000000000 0.000000000000
vt 0.833333313465 0.000000000000 0.000000000000
vt 0.875000000000 1.000000000000 0.000000000000
vt 0.875000000000 0.000000000000 0.000000000000
vt 0.916666686535 1.000000000000 0.000000000000
vt 0.916666686535 0.000000000000 0.000000000000
vt 0.958333313465 1.000000000000 0.000000000000
vt 0.958333313465 0.000000000000 0.000000000000
vt 0.999999940395 1.000000000000 0.000000000000
vt 0.999999940395 0.000000000000 0.000000000000
vt 0.041666656733 1.000000000000 0.000000000000
vt -0.000000059605 1.000000000000 0.000000000000
vt -0.000000059605 0.000000000000 0.000000000000
vt 0.041666656733 0.000000000000 0.000000000000
vt 0.083333313465 1.000000000000 0.000000000000
vt 0.083333313465 0.000000000000 0.000000000000
vt 0.124999970198 1.000000000000 0.000000000000
vt 0.124999970198 0.000000000000 0.000000000000
vt 0.166666626930 1.000000000000 0.000000000000
vt 0.166666626930 0.000000000000 0.000000000000
vt 0.208333283663 1.000000000000 0.000000000000
vt 0.208333283663 0.000000000000 0.000000000000
vt 0.249999940395 1.000000000000 0.000000000000
vt 0.249999940395 0.000000000000 0.000000000000
vt 0.291666597128 1.000000000000 0.000000000000
vt 0.291666597128 0.000000000000 0.000000000000
vt 0.333333253860 1.000000000000 0.000000000000
vt 0.333333253860 0.000000000000 0.000000000000
vt 0.374999910593 1.000000000000 0.000000000000
vt 0.374999910593 0.000000000000 0.000000000000
vt 0.416666656733 1.000000000000 0.000000000000
vt 0.416666656733 0.000000000000 0.000000000000
vt 0.458333253860 1.000000000000 0.000000000000
vt 0.458333253860 0.000000000000 0.000000000000
vt 0.499999910593 1.000000000000 0.000000000000
vt 0.499999910593 0.000000000000 0.000000000000
vt 0.541666567326 1.000000000000 0.000000000000
vt 0.541666567326 0.000000000000 0.000000000000
vt 0.583333253860 1.000000000000 0.000000000000
vt 0.583333253860 0.000000000000 0.000000000000
vt 0.624999940395 1.000000000000 0.000000000000
vt 0.624999940395 0.000000000000 0.000000000000
vt 0.666666567326 1.000000000000 0.000000000000
vt 0.666666567326 0.000000000000 0.000000000000
vt 0.708333253860 1.000000000000 0.000000000000
vt 0.708333253860 0.000000000000 0.000000000000
vt 0.500000000000 0.500000000000 0.000000000000
vt 0.000000000000 0.500000000000 0.000000000000
vt 0.000000000000 0.000000000000 0.000000000000
vt 1.000000000000 0.000000000000 0.000000000000
vt 0.000000000000 0.750000000000 0.000000000000
vt 0.000000000000 0.250000000000 0.000000000000
vt 1.000000000000 1.000000000000 0.000000000000
vt 0.000000000000 1.000000000000 0.000000000000
vt 0.500000000000 0.000000000000 0.000000000000
vt 0.500000000000 1.000000000000 0.000000000000
vt 0.250000000000 0.000000000000 0.000000000000
vt 0.250000000000 1.000000000000 0.000000000000
vt 1.000000000000 0.250000000000 0.000000000000
vt 1.000000000000 0.750000000000 0.000000000000
vt 1.000000000000 0.500000000000 0.000000000000
vt 1.000000000000 0.125000000000 0.000000000000
vt 0.000000000000 0.125000000000 0.000000000000
vt 0.125000000000 0.000000000000 0.000000000000
vt 0.125000000000 1.000000000000 0.000000000000
vt 0.625000000000 0.000000000000 0.000000000000
vt 0.625000000000 1.000000000000 0.000000000000
vt 1.000000000000 0.375000000000 0.000000000000
vt 0.000000000000 0.375000000000 0.000000000000
vt 0.375000000000 0.000000000000 0.000000000000
vt 0.375000000000 1.000000000000 0.000000000000
vt 0.895833373070 0.000000000000 0.000000000000
vt 0.895833373070 0.500000000000 0.000000000000
vt 0.604166626930 0.000000000000 0.000000000000
vt 0.604166626930 0.500000000000 0.000000000000
vt 0.604166626930 1.000000000000 0.000000000000
vt 0.895833373070 1.000000000000 0.000000000000
# 81 texture coords

usemtl 08___Default
s off
f 1/1/1 2/2/2 3/3/3
f 3/3/3 4/4/4 1/1/1
f 5/5/5 1/1/1 4/4/4
f 4/4/4 6/6/6 5/5/5
f 7/7/7 5/5/5 6/6/6
f 6/6/6 8/8/8 7/7/7
f 9/9/9 7/7/7 8/8/8
f 8/8/8 10/10/9 9/9/9
f 11/11/10 9/9/9 10/10/9
f 10/10/9 12/12/11 11/11/10
f 13/13/12 11/11/10 12/12/11
f 12/12/11 14/14/13 13/13/12
f 15/15/14 13/16/12 14/17/13
f 14/17/13 16/18/15 15/15/14
f 17/19/16 15/15/14 16/18/15
f 16/18/15 18/20/17 17/19/16
f 19/21/18 17/19/16 18/20/17
f 18/20/17 20/22/18 19/21/18
f 21/23/19 19/21/18 20/22/18
f 20/22/18 22/24/20 21/23/19
f 23/25/21 21/23/19 22/24/20
f 22/24/20 24/26/22 23/25/21
f 25/27/23 23/25/21 24/26/22
f 24/26/22 26/28/24 25/27/23
f 27/29/25 25/27/23 26/28/24
f 26/28/24 28/30/26 27/29/25
f 29/31/27 27/29/25 28/30/26
f 28/30/26 30/32/28 29/31/27
f 31/33/29 29/31/27 30/32/28
f 30/32/28 32/34/30 31/33/29
f 33/35/31 31/33/29 32/34/30
f 32/34/30 34/36/32 33/35/31
f 35/37/33 33/35/31 34/36/32
f 34/36/32 36/38/34 35/37/33
f 37/39/35 35/37/33 36/38/34
f 36/38/34 38/40/36 37/39/35
f 39/41/37 37/39/35 38/40/36
f 38/40/36 40/42/38 39/41/37
f 41/43/39 39/41/37 40/42/38
f 40/42/38 42/44/40 41/43/39
f 43/45/41 41/43/39 42/44/40
f 42/44/40 44/46/41 43/45/41
f 45/47/42 43/45/41 44/46/41
f 44/46/41 46/48/43 45/47/42
f 47/49/44 45/47/42 46/48/43
f 46/48/43 48/50/45 47/49/44
f 2/2/2 47/49/44 48/50/45
f 48/50/45 3/3/3 2/2/2
f 8/8/46 6/6/47 4/4/46
f 4/4/46 3/3/48 48/50/49
f 48/50/49 46/48/49 44/46/50
f 4/4/46 48/50/49 44/46/50
f 44/46/50 42/44/49 40/42/50
f 40/42/50 38/40/48 36/38/48
f 44/46/50 40/42/50 36/38/48
f 4/4/46 44/46/50 36/38/48
f 36/38/48 34/36/48 32/34/48
f 32/34/48 30/32/51 28/30/48
f 36/38/48 32/34/48 28/30/48
f 28/30/48 26/28/49 24/26/51
f 24/26/51 22/24/52 20/22/48
f 28/30/48 24/26/51 20/22/48
f 36/38/48 28/30/48 20/22/48
f 4/4/46 36/38/48 20/22/48
f 20/22/48 18/20/49 16/18/50
f 16/18/50 14/17/52 12/12/47
f 20/22/48 16/18/50 12/12/47
f 4/4/46 20/22/48 12/12/47
f 8/8/46 4/4/46 12/12/47
f 8/8/46 12/12/47 10/10/47
f 45/47/53 47/49/54 2/2/55
f 2/2/55 1/1/56 5/5/57
f 5/5/57 7/7/56 9/9/56
f 2/2/55 5/5/57 9/9/56
f 9/9/56 11/11/56 13/13/56
f 13/13/56 15/15/57 17/19/58
f 9/9/56 13/13/56 17/19/58
f 2/2/55 9/9/56 17/19/58
f 17/19/58 19/21/56 21/23/56
f 21/23/56 23/25/56 25/27/59
f 17/19/58 21/23/56 25/27/59
f 25/27/59 27/29/60 29/31/61
f 29/31/61 31/33/56 33/35/62
f 25/27/59 29/31/61 33/35/62
f 17/19/58 25/27/59 33/35/62
f 2/2/55 17/19/58 33/35/62
f 33/35/62 35/37/56 37/39/56
f 37/39/56 39/41/57 41/43/63
f 33/35/62 37/39/56 41/43/63
f 2/2/55 33/35/62 41/43/63
f 45/47/53 2/2/55 41/43/63
f 45/47/53 41/43/63 43/45/56
f 49/51/64 50/52/64 51/53/64
f 51/53/64 52/54/64 49/51/64
f 53/51/65 54/55/66 55/56/67
f 55/56/67 56/53/68 53/51/65
f 51/54/69 57/57/69 56/58/69
f 56/58/69 52/53/69 51/54/69
f 50/59/70 58/60/70 57/58/70
f 57/58/70 51/53/70 50/59/70
f 59/61/71 54/62/71 60/58/71
f 60/58/71 61/53/71 59/61/71
f 61/54/72 60/57/72 62/60/72
f 62/60/72 63/59/72 61/54/72
f 52/54/73 56/57/74 55/2/74
f 55/2/74 64/3/73 52/54/73
f 64/3/75 55/2/75 54/62/75
f 54/62/75 59/61/75 64/3/75
f 58/54/76 50/58/76 49/53/76
f 49/53/76 53/54/76 58/54/76
f 53/54/70 49/53/70 63/53/70
f 63/53/70 62/57/70 53/54/70
f 64/63/64 59/64/64 49/51/64
f 49/51/64 52/54/64 64/63/64
f 57/54/77 58/65/77 53/51/65
f 53/51/65 56/53/68 57/54/77
f 53/51/65 62/60/78 60/58/78
f 60/58/78 54/55/66 53/51/65
f 59/64/64 61/57/64 63/60/64
f 63/60/64 49/51/64 59/64/64
f 65/54/79 66/57/79 67/58/79
f 67/58/79 68/53/79 65/54/79
f 69/53/80 70/54/80 71/57/80
f 71/57/80 72/58/80 69/53/80
f 65/53/81 68/54/81 70/57/81
f 70/57/81 69/58/81 65/53/81
f 68/53/82 67/54/82 71/57/82
f 71/57/82 70/58/82 68/53/82
f 67/53/83 66/54/83 72/57/83
f 72/57/83 71/58/83 67/53/83
f 66/53/84 65/54/84 69/57/84
f 69/57/84 72/58/84 66/53/84
f 73/54/79 74/57/79 75/58/79
f 75/58/79 76/53/79 73/54/79
f 77/53/80 78/54/80 79/57/80
f 79/57/80 80/58/80 77/53/80
f 73/53/81 76/54/81 78/57/81
f 78/57/81 77/58/81 73/53/81
f 76/53/82 75/54/82 79/57/82
f 79/57/82 78/58/82 76/53/82
f 75/53/83 74/54/83 80/57/83
f 80/57/83 79/58/83 75/53/83
f 74/53/84 73/54/84 77/57/84
f 77/57/84 80/58/84 74/53/84
f 81/66/85 82/67/85 83/53/86
f 83/53/86 84/54/86 81/66/85
f 85/54/87 86/66/87 87/67/87
f 87/67/87 88/53/87 85/54/87
f 84/53/88 83/54/88 85/57/88
f 85/57/88 88/58/88 84/53/88
f 83/53/70 82/68/70 86/69/70
f 86/69/70 85/58/70 83/53/70
f 89/53/89 90/54/89 91/57/89
f 91/57/89 92/58/89 89/53/89
f 93/59/75 94/60/75 91/58/75
f 91/58/75 90/53/75 93/59/75
f 90/57/90 89/58/90 95/52/91
f 95/52/91 93/65/91 90/57/90
f 92/57/92 91/58/92 94/52/93
f 94/52/93 96/65/93 92/57/92
f 89/54/70 92/57/70 96/60/70
f 96/60/70 95/59/70 89/54/70
f 93/59/75 97/70/75 98/71/75
f 98/71/75 94/60/75 93/59/75
f 97/72/94 99/73/94 100/56/95
f 100/56/95 101/63/95 97/72/94
f 102/72/96 98/73/96 103/56/96
f 103/56/96 104/63/96 102/72/96
f 99/74/70 102/75/70 104/62/70
f 104/62/70 100/61/70 99/74/70
f 81/8/75 87/7/75 103/2/75
f 103/2/75 101/3/75 81/8/75
f 101/63/95 100/56/95 82/67/85
f 82/67/85 81/66/85 101/63/95
f 104/63/96 103/56/96 87/67/87
f 87/67/87 86/66/87 104/63/96
f 82/68/70 100/61/70 104/62/70
f 104/62/70 86/69/70 82/68/70
f 84/54/75 88/57/75 87/7/75
f 87/7/75 81/8/75 84/54/75
f 97/70/75 101/3/75 103/2/75
f 103/2/75 98/71/75 97/70/75
f 93/65/91 95/52/91 99/73/94
f 99/73/94 97/72/94 93/65/91
f 96/65/93 94/52/93 98/73/96
f 98/73/96 102/72/96 96/65/93
f 95/59/70 96/60/70 102/75/70
f 102/75/70 99/74/70 95/59/70
f 105/1/97 106/2/98 107/3/99
f 107/3/99 108/4/100 105/1/97
f 109/5/101 105/1/97 108/4/100
f 108/4/100 110/6/102 109/5/101
f 111/7/103 109/5/101 110/6/102
f 110/6/102 112/8/104 111/7/103
f 113/9/105 111/7/103 112/8/104
f 112/8/104 114/10/106 113/9/105
f 115/11/107 113/9/105 114/10/106
f 114/10/106 116/12/108 115/11/107
f 117/13/109 115/11/107 116/12/108
f 116/12/108 118/14/110 117/13/109
f 119/15/111 117/16/109 118/17/110
f 118/17/110 120/18/112 119/15/111
f 121/19/113 119/15/111 120/18/112
f 120/18/112 122/20/114 121/19/113
f 123/21/115 121/19/113 122/20/114
f 122/20/114 124/22/116 123/21/115
f 125/23/117 123/21/115 124/22/116
f 124/22/116 126/24/118 125/23/117
f 127/25/119 125/23/117 126/24/118
f 126/24/118 128/26/120 127/25/119
f 129/27/121 127/25/119 128/26/120
f 128/26/120 130/28/122 129/27/121
f 131/29/123 129/27/121 130/28/122
f 130/28/122 132/30/124 131/29/123
f 133/31/125 131/29/123 132/30/124
f 132/30/124 134/32/126 133/31/125
f 135/33/127 133/31/125 134/32/126
f 134/32/126 136/34/128 135/33/127
f 137/35/129 135/33/127 136/34/128
f 136/34/128 138/36/130 137/35/129
f 139/37/131 137/35/129 138/36/130
f 138/36/130 140/38/132 139/37/131
f 141/39/133 139/37/131 140/38/132
f 140/38/132 142/40/134 141/39/133
f 143/41/135 141/39/133 142/40/134
f 142/40/134 144/42/136 143/41/135
f 145/43/137 143/41/135 144/42/136
f 144/42/136 146/44/138 145/43/137
f 147/45/139 145/43/137 146/44/138
f 146/44/138 148/46/139 147/45/139
f 149/47/140 147/45/139 148/46/139
f 148/46/139 150/48/141 149/47/140
f 151/49/142 149/47/140 150/48/141
f 150/48/141 152/50/143 151/49/142
f 106/2/98 151/49/142 152/50/143
f 152/50/143 107/3/99 106/2/98
f 112/8/144 110/6/144 108/4/144
f 108/4/144 107/3/144 152/50/144
f 152/50/144 150/48/144 148/46/144
f 108/4/144 152/50/144 148/46/144
f 148/46/144 146/44/144 144/42/144
f 144/42/144 142/40/144 140/38/144
f 148/46/144 144/42/144 140/38/144
f 108/4/144 148/46/144 140/38/144
f 140/38/144 138/36/144 136/34/144
f 136/34/144 134/32/144 132/30/144
f 140/38/144 136/34/144 132/30/144
f 132/30/144 130/28/144 128/26/144
f 128/26/144 126/24/144 124/22/144
f 132/30/144 128/26/144 124/22/144
f 140/38/144 132/30/144 124/22/144
f 108/4/144 140/38/144 124/22/144
f 124/22/144 122/20/144 120/18/144
f 120/18/144 118/17/144 116/12/144
f 124/22/144 120/18/144 116/12/144
f 108/4/144 124/22/144 116/12/144
f 112/8/144 108/4/144 116/12/144
f 112/8/144 116/12/144 114/10/144
f 149/47/145 151/49/146 106/2/147
f 106/2/147 105/1/148 109/5/148
f 109/5/148 111/7/148 113/9/148
f 106/2/147 109/5/148 113/9/148
f 113/9/148 115/11/148 117/13/148
f 117/13/148 119/15/148 121/19/149
f 113/9/148 117/13/148 121/19/149
f 106/2/147 113/9/148 121/19/149
f 121/19/149 123/21/148 125/23/148
f 125/23/148 127/25/148 129/27/150
f 121/19/149 125/23/148 129/27/150
f 129/27/150 131/29/151 133/31/152
f 133/31/152 135/33/148 137/35/153
f 129/27/150 133/31/152 137/35/153
f 121/19/149 129/27/150 137/35/153
f 106/2/147 121/19/149 137/35/153
f 137/35/153 139/37/148 141/39/148
f 141/39/148 143/41/148 145/43/154
f 137/35/153 141/39/148 145/43/154
f 106/2/147 137/35/153 145/43/154
f 149/47/145 106/2/147 145/43/154
f 149/47/145 145/43/154 147/45/148
f 153/1/155 154/2/156 155/3/157
f 155/3/157 156/4/158 153/1/155
f 157/5/159 153/1/155 156/4/158
f 156/4/158 158/6/160 157/5/159
f 159/7/161 157/5/159 158/6/160
f 158/6/160 160/8/162 159/7/161
f 159/7/161 160/8/162 161/76/163
f 161/76/163 162/77/164 159/7/161
f 163/11/165 164/9/166 165/10/167
f 165/10/167 166/12/168 163/11/165
f 167/13/169 163/11/165 166/12/168
f 166/12/168 168/14/170 167/13/169
f 169/15/171 167/16/169 168/17/170
f 168/17/170 170/18/172 169/15/171
f 171/19/173 169/15/171 170/18/172
f 170/18/172 172/20/174 171/19/173
f 173/21/175 171/19/173 172/20/174
f 172/20/174 174/22/176 173/21/175
f 175/23/177 173/21/175 174/22/176
f 174/22/176 176/24/178 175/23/177
f 177/25/179 175/23/177 176/24/178
f 176/24/178 178/26/180 177/25/179
f 179/27/181 177/25/179 178/26/180
f 178/26/180 180/28/182 179/27/181
f 181/29/183 179/27/181 180/28/182
f 180/28/182 182/30/184 181/29/183
f 183/31/185 181/29/183 182/30/184
f 182/30/184 184/32/186 183/31/185
f 185/33/187 183/31/185 184/32/186
f 184/32/186 186/34/188 185/33/187
f 187/35/189 185/33/187 186/34/188
f 186/34/188 188/36/190 187/35/189
f 189/37/191 187/35/189 188/36/190
f 188/36/190 190/38/192 189/37/191
f 191/39/193 189/37/191 190/38/192
f 190/38/192 192/40/194 191/39/193
f 193/41/195 191/39/193 192/40/194
f 192/40/194 194/42/196 193/41/195
f 195/43/197 193/41/195 194/42/196
f 194/42/196 196/44/198 195/43/197
f 196/44/198 197/78/199 198/79/200
f 196/44/198 198/79/200 199/80/201
f 196/44/198 199/80/201 195/43/197
f 200/47/202 201/45/203 202/46/204
f 202/46/204 203/48/205 200/47/202
f 204/49/206 200/47/202 203/48/205
f 203/48/205 205/50/207 204/49/206
f 154/2/156 204/49/206 205/50/207
f 205/50/207 155/3/157 154/2/156
f 165/10/167 164/9/166 206/81/208
f 165/10/167 206/81/208 162/77/164
f 165/10/167 162/77/164 161/76/163
f 201/45/203 198/79/200 197/78/199
f 197/78/199 202/46/204 201/45/203
f 206/76/209 199/78/210 198/80/210
f 198/80/210 162/81/209 206/76/209
f 201/45/211 200/47/212 204/49/213
f 154/2/214 153/1/215 157/5/216
f 204/49/213 154/2/214 157/5/216
f 157/5/216 159/7/217 162/77/218
f 204/49/213 157/5/216 162/77/218
f 201/45/211 204/49/213 162/77/218
f 201/45/211 162/77/218 198/80/219
f 193/41/220 195/43/221 199/80/222
f 199/80/222 206/76/223 164/9/224
f 193/41/220 199/80/222 164/9/224
f 164/9/224 163/11/225 167/13/226
f 167/13/226 169/15/227 171/19/228
f 164/9/224 167/13/226 171/19/228
f 193/41/220 164/9/224 171/19/228
f 171/19/228 187/35/229 189/37/230
f 193/41/220 171/19/228 189/37/230
f 193/41/220 189/37/230 191/39/231
f 181/29/232 183/31/233 185/33/234
f 181/29/232 185/33/234 187/35/235
f 187/35/235 171/19/236 173/21/237
f 173/21/237 175/23/238 177/25/239
f 173/21/237 177/25/239 179/27/240
f 187/35/235 173/21/237 179/27/240
f 181/29/232 187/35/235 179/27/240
# 360 faces
