o arm_r_link1
# 3ds Max Wavefront OBJ Exporter v0.99 - (c)2007 guruware
# File Created: 28.05.2026 15:36:24

mtllib arm_l_link1.mtl

#
# object Cylinder002
#

v  0.037632972002 0.039250001311 0.039999999106
v  0.037032142282 0.039250001311 0.044563747942
v  0.037032142282 0.033250000328 0.044563744217
v  0.037632972002 0.033250004053 0.039999995381
v  0.035270601511 0.039250001311 0.048816487193
v  0.035270601511 0.033250000328 0.048816479743
v  0.032468393445 0.039249997586 0.052468392998
v  0.032468393445 0.033250000328 0.052468389273
v  0.028816485777 0.039249997586 0.055270601064
v  0.028816485777 0.033250000328 0.055270597339
v  0.024563748389 0.039249997586 0.057032145560
v  0.024563748389 0.033250000328 0.057032138109
v  0.020000001416 0.039249997586 0.057632971555
v  0.020000001416 0.033250000328 0.057632967830
v  0.015436252579 0.039249997586 0.057032145560
v  0.015436252579 0.033250000328 0.057032138109
v  0.011183515191 0.039249997586 0.055270604789
v  0.011183515191 0.033250000328 0.055270597339
v  0.007531607524 0.039249997586 0.052468396723
v  0.007531607524 0.033250000328 0.052468392998
v  0.004729399458 0.039250001311 0.048816490918
v  0.004729399458 0.033250000328 0.048816487193
v  0.035270597786 0.033250004053 0.031183496118
v  0.019969496876 0.033250000328 0.008500002325
v  0.019998045638 0.039250005037 0.008500002325
v  0.035270597786 0.039250001311 0.031183501706
v  0.037032142282 0.039250001311 0.035436235368
v  0.037032142282 0.033250004053 0.035436231643
v  0.015307237394 0.039250005037 0.001341134310
v  0.015307236463 0.033250000328 0.001341134310
v  0.014225949533 0.033250000328 0.000312447548
v  0.014225949533 0.039250005037 0.000312447548
v  0.012807605788 0.033250000328 0.000000000000
v  0.012807605788 0.039250005037 0.000000000000
v  -0.013167519122 0.033250000328 0.000000000000
v  -0.013167519122 0.039250005037 0.000000000000
v  -0.014321114868 0.033250000328 0.000230666250
v  -0.014321114868 0.039250005037 0.000230666250
v  -0.015297316015 0.033250000328 0.000887192786
v  -0.015297316015 0.039250005037 0.000887192786
v  -0.021042894572 0.033250000328 0.006678972393
v  -0.021042898297 0.039250005037 0.006678972393
v  -0.021759893745 0.033250000328 0.007845334709
v  -0.021759893745 0.039250005037 0.007845338434
v  -0.021898876876 0.033250000328 0.008500002325
v  -0.021898876876 0.039250005037 0.008500006050
v  -0.021883968264 0.039250005037 0.009208820760
v  -0.021883968264 0.033250004053 0.009208811447
v  -0.021389290690 0.033250004053 0.010485431179
v  -0.021389290690 0.039250005037 0.010485446081
v  -0.013167519122 -0.028178930283 0.000000007451
v  0.012807605788 -0.028178930283 0.000000007451
v  -0.021898876876 -0.028178922832 0.008500006050
v  0.019940949976 -0.028178922832 0.008500006050
v  0.014225949533 -0.028178930283 0.000334460288
v  -0.014321114868 -0.028178930283 0.000230669975
v  -0.021759893745 -0.028178922832 0.007845342159
v  -0.021042898297 -0.028178922832 0.006678979844
v  -0.015297319740 -0.028178930283 0.000887196511
v  0.015307237394 -0.028178930283 0.001341138035
v  0.037032142282 -0.030249997973 0.044563747942
v  0.037032142282 -0.035250000656 0.044563751668
v  0.037632972002 -0.035250000656 0.039999999106
v  0.037632972002 -0.030249997973 0.039999999106
v  0.035270601511 -0.030249997973 0.048816487193
v  0.035270601511 -0.035250008106 0.048816487193
v  0.032468393445 -0.030249997973 0.052468392998
v  0.032468393445 -0.035250008106 0.052468396723
v  0.028816485777 -0.030249997973 0.055270601064
v  0.028816485777 -0.035250008106 0.055270604789
v  0.024563748389 -0.030249997973 0.057032145560
v  0.024563748389 -0.035250008106 0.057032145560
v  0.020000001416 -0.030249997973 0.057632971555
v  0.020000001416 -0.035250000656 0.057632975280
v  0.015436252579 -0.030249997973 0.057032145560
v  0.015436252579 -0.035250008106 0.057032145560
v  0.011183515191 -0.030249997973 0.055270604789
v  0.011183515191 -0.035250008106 0.055270604789
v  0.007531607524 -0.030249997973 0.052468396723
v  0.007531607524 -0.035250008106 0.052468396723
v  0.004729399458 -0.030249997973 0.048816490918
v  0.004729399458 -0.035250008106 0.048816490918
v  0.002967856824 -0.030249997973 0.044563755393
v  0.002967856824 -0.035250000656 0.044563755393
v  0.002367027104 -0.030249997973 0.040000006557
v  0.002367027104 -0.035250000656 0.040000006557
v  0.002967853099 -0.030249997973 0.035436257720
v  0.002967853099 -0.035250000656 0.035436257720
v  0.004729392938 -0.030249997973 0.031183522195
v  0.004729392938 -0.035250008106 0.031183518469
v  0.007531597279 -0.030249997973 0.027531612664
v  0.007531597279 -0.035250008106 0.027531608939
v  0.011183507740 -0.030249997973 0.024729400873
v  0.011183507740 -0.035250008106 0.024729397148
v  0.015436243266 -0.030249997973 0.022967860103
v  0.015436243266 -0.035250008106 0.022967856377
v  0.019999992102 -0.030249997973 0.022367028520
v  0.019999992102 -0.035250008106 0.022367026657
v  0.024563740939 -0.030249997973 0.022967854515
v  0.024563740939 -0.035250008106 0.022967852652
v  0.028816476464 -0.030249997973 0.024729391560
v  0.028816476464 -0.035250008106 0.024729389697
v  0.032468385994 -0.030249997973 0.027531597763
v  0.032468385994 -0.035250008106 0.027531594038
v  0.035270597786 -0.030249997973 0.031183503568
v  0.035270597786 -0.035250008106 0.031183499843
v  0.037032142282 -0.030249997973 0.035436235368
v  0.037032142282 -0.035250000656 0.035436239094
v  0.037032142282 -0.039250001311 0.044563747942
v  0.037632972002 -0.039250001311 0.039999999106
v  0.035270601511 -0.039250001311 0.048816479743
v  0.032468393445 -0.039250001311 0.052468389273
v  0.028816485777 -0.039250001311 0.055270597339
v  0.024563748389 -0.039250001311 0.057032138109
v  0.020000001416 -0.039250001311 0.057632967830
v  0.015436252579 -0.039250001311 0.057032138109
v  0.011183515191 -0.039250001311 0.055270597339
v  0.007531607524 -0.039250001311 0.052468396723
v  0.004729399458 -0.039250001311 0.048816487193
v  0.035270597786 -0.039250001311 0.031183496118
v  0.032468385994 -0.039250001311 0.027531590313
v  0.037032142282 -0.039250001311 0.035436235368
v  -0.016512740403 -0.035250008106 0.017642138526
v  -0.016512740403 -0.039250008762 0.017642127350
v  -0.021389294416 -0.039250008762 0.010485438630
v  -0.021389294416 -0.032321073115 0.010485451669
v  -0.021883971989 -0.030272260308 0.009208828211
v  -0.021883971989 -0.039250008762 0.009208811447
v  -0.021898876876 -0.039250008762 0.008499998599
v  -0.021759893745 -0.039250008762 0.007845330983
v  -0.021042902023 -0.039250008762 0.006678968668
v  -0.015297319740 -0.039250008762 0.000887185335
v  -0.014321114868 -0.039250008762 0.000230658799
v  -0.013167519122 -0.039250008762 0.000000000000
v  0.012807605788 -0.039250008762 0.000000000000
v  0.014225949533 -0.039250008762 0.000356454402
v  0.015307238325 -0.039250008762 0.001341126859
v  0.019940953702 -0.039250008762 0.008500002325
v  -0.018276322633 -0.034909255803 0.015053955838
v  -0.018276326358 -0.039250001311 0.015053940937
v  0.025949748233 -0.039250008762 0.017642134801
v  0.025949748233 -0.035250008106 0.017642145976
v  0.024260422215 -0.039250001311 0.015053940937
v  0.024260422215 -0.034909255803 0.015053955838
v  0.022686222568 -0.039250001311 0.012642132118
v  0.022686222568 -0.033910252154 0.012642147020
v  0.021278537810 -0.039250008762 0.010485442355
v  0.021278534085 -0.032321073115 0.010485455394
v  0.020398739725 -0.039250008762 0.009208818898
v  0.020398737863 -0.030272260308 0.009208831936
v  -0.019919723272 -0.033910252154 0.012642148882
v  -0.019919726998 -0.039250001311 0.012642132118
v  -0.019897524267 -0.003000002354 0.014749998227
v  -0.017629195005 -0.003000002354 0.014749998227
v  -0.017629195005 -0.003000002354 0.008249025792
v  -0.019897524267 -0.003000002354 0.008249025792
v  -0.017629195005 -0.013000000268 0.008249025792
v  -0.017629195005 -0.013000003994 0.014749996364
v  -0.019897524267 -0.013000003994 0.014749996364
v  -0.019897524267 -0.013000000268 0.008249025792
v  -0.020648878068 -0.003200963140 0.008249025792
v  -0.020648878068 -0.012799043208 0.008249025792
v  -0.021197915077 -0.012250002474 0.008249025792
v  -0.021398875862 -0.011498652399 0.008249025792
v  -0.021197915077 -0.003750003874 0.008249025792
v  -0.021398875862 -0.004501353949 0.008249025792
v  -0.020648878068 -0.003200966865 0.014750000089
v  -0.021197915077 -0.003750003874 0.014749998227
v  -0.021398875862 -0.004501353949 0.014749998227
v  -0.021398875862 -0.011498652399 0.014749998227
v  -0.021197915077 -0.012250002474 0.014749996364
v  -0.020648878068 -0.012799043208 0.014749996364
# 172 vertices

vn 1.000000000000 0.000000000122 -0.000000167444
vn 0.965925812721 -0.000000191514 0.258819013834
vn 0.965925812721 -0.000000182897 0.258818954229
vn 0.999999940395 -0.000000000121 -0.000000267910
vn 0.866025328636 -0.000000391901 0.500000119209
vn 0.866025388241 -0.000000383163 0.500000059605
vn 0.707106709480 -0.000000554232 0.707106769085
vn 0.707106769085 -0.000000554232 0.707106709480
vn 0.500000119209 -0.000000594410 0.866025388241
vn 0.500000178814 -0.000000678793 0.866025209427
vn 0.258818984032 -0.000000457232 0.965925812721
vn 0.258819073439 -0.000000541615 0.965925753117
vn 0.000000007176 -0.000000473362 0.999999940395
vn 0.000000014352 -0.000000473362 1.000000000000
vn -0.258818864822 -0.000000541615 0.965925931931
vn -0.258818954229 -0.000000457232 0.965925812721
vn -0.499999910593 -0.000000678793 0.866025567055
vn -0.499999970198 -0.000000594410 0.866025388241
vn -0.707106649876 -0.000000554232 0.707106828690
vn -0.810192883015 -0.000000495241 0.586163401604
vn -0.810192942619 -0.000000459436 0.586163401604
vn 0.881060838699 -0.000272201665 -0.473002910614
vn 0.835053563118 -0.002655381337 -0.550162136555
vn 0.833240807056 -0.002918512560 -0.552902638912
vn 0.881089091301 0.000000361993 -0.472950398922
vn 0.965925753117 0.000000182898 -0.258819282055
vn 0.965925753117 0.000000191514 -0.258819341660
vn 0.767933428288 0.000000067502 -0.640529811382
vn 0.768528401852 -0.000454935682 -0.639815628529
vn 0.469422101974 -0.000158149691 -0.882973909378
vn 0.469434678555 0.000000143854 -0.882967114449
vn 0.108256712556 -0.000086636508 -0.994122982025
vn 0.108201399446 0.000000161964 -0.994129002094
vn -0.098515681922 0.000000011256 -0.995135545731
vn -0.098515681922 0.000000162128 -0.995135545731
vn -0.384532958269 0.000000031979 -0.923111259937
vn -0.384533047676 0.000000150394 -0.923111259937
vn -0.637098073959 0.000000041580 -0.770782768726
vn -0.637097954750 0.000000036170 -0.770782768726
vn -0.786121726036 -0.000000181252 -0.618071675301
vn -0.786122739315 -0.000000018903 -0.618070483208
vn -0.928596019745 -0.000000063162 -0.371092379093
vn -0.928596556187 0.000000290862 -0.371090799570
vn -0.991221308708 0.000000043505 -0.132213205099
vn -0.995577752590 0.000000067552 -0.093941114843
vn -0.980979323387 -0.000000419105 0.194112241268
vn -0.980979263783 -0.000000266534 0.194112196565
vn -0.885185539722 -0.000000905608 0.465238034725
vn -0.885185718536 -0.000001086799 0.465237766504
vn -0.000000161910 1.000000000000 0.000000159126
vn -0.000000518214 1.000000000000 0.000000377572
vn -0.000002040355 1.000000000000 0.000001340152
vn -0.000000040349 1.000000000000 0.000000053717
vn 0.000000064884 1.000000000000 -0.000000131619
vn -0.000000005417 1.000000000000 0.000000053599
vn 0.000000000000 1.000000000000 0.000000162921
vn -0.000000021490 1.000000000000 0.000000006019
vn -0.000000324919 1.000000000000 -0.000000320208
vn 0.000000039476 1.000000000000 0.000000031497
vn -0.000000387711 1.000000000000 -0.000000275036
vn 0.000000448878 1.000000000000 0.000000118204
vn 0.000000178902 1.000000000000 0.000000017151
vn 0.000000372527 1.000000000000 -0.000000163809
vn 0.000000004567 1.000000000000 0.000000098299
vn 0.000000000000 0.999999940395 0.000000162921
vn -0.000000029892 1.000000000000 0.000000123127
vn 0.000000119486 -1.000000000000 -0.000000046830
vn 0.000000548030 -1.000000000000 0.000000385109
vn -0.000000038361 -0.999999940395 -0.000000185986
vn 0.000000051017 -1.000000000000 0.000000224594
vn 0.000000000000 -1.000000000000 -0.000000102397
vn -0.000000051017 -1.000000000000 0.000000224595
vn 0.000000038361 -1.000000000000 -0.000000185986
vn -0.000000548030 -1.000000000000 0.000000385110
vn -0.000000050077 -1.000000000000 -0.000000012125
vn 0.000000289339 -1.000000000000 -0.000000275037
vn -0.000000015749 -1.000000000000 0.000003588039
vn 0.000000000000 -0.999999940395 0.000006406691
vn 0.000000007864 -1.000000000000 0.000000030014
vn 0.000001918849 -1.000000000000 -0.000001067232
vn 0.000000510680 -1.000000000000 -0.000000197492
vn 0.000000143781 -1.000000000000 -0.000000177212
vn 0.000000387515 -1.000000000000 -0.000000111903
vn -0.098513990641 0.000000438171 -0.995135605335
vn 0.115528903902 0.000000345471 -0.993304193020
vn 0.000000000000 0.162171617150 0.986762523651
vn -0.000000043526 0.172410547733 0.985025048256
vn 0.000000000000 0.000000079655 1.000000000000
vn 0.471382051706 -0.000419644028 -0.881928980350
vn -0.384530752897 0.000000504357 -0.923112154007
vn -0.982444405556 0.000000063955 -0.186555549502
vn -0.928596138954 0.000000187374 -0.371091932058
vn -0.786122679710 0.000000418403 -0.618070542812
vn -0.637097597122 0.000000467800 -0.770783185959
vn 0.839549362659 -0.000173588996 -0.543283462524
vn 0.766079962254 -0.000425128557 -0.642745256424
vn 0.965925812721 0.000000124856 0.258818864822
vn 0.965925812721 -0.000000104110 0.258819103241
vn 1.000000000000 -0.000000001055 0.000000129171
vn 1.000000000000 -0.000000025812 0.000000191365
vn 0.866025388241 -0.000000005784 0.500000119209
vn 0.866025388241 -0.000000254100 0.500000059605
vn 0.707106828690 0.000000291248 0.707106709480
vn 0.707106769085 -0.000000181058 0.707106709480
vn 0.500000298023 0.000000504144 0.866025209427
vn 0.500000000000 -0.000000313099 0.866025388241
vn 0.258818894625 0.000000025329 0.965925812721
vn 0.258818984032 -0.000000509134 0.965925812721
vn 0.000000220069 0.000000386077 1.000000000000
vn 0.000000125583 -0.000000354083 1.000000000000
vn -0.258818835020 0.000000038691 0.965925812721
vn -0.258819043636 -0.000000607165 0.965925812721
vn -0.499999940395 -0.000000141093 0.866025388241
vn -0.499999880791 -0.000000459515 0.866025447845
vn -0.707106649876 -0.000000115202 0.707106828690
vn -0.866025209427 -0.000000081460 0.500000357628
vn -0.839100956917 -0.000000115231 0.543975651264
vn -0.965925753117 -0.000000042167 0.258819311857
vn -0.965925693512 -0.000000042167 0.258819341660
vn -1.000000000000 -0.000000000000 0.000000401866
vn -0.965925991535 0.000000042167 -0.258818626404
vn -0.965925931931 0.000000080005 -0.258818656206
vn -0.866025686264 0.000000229886 -0.499999493361
vn -0.866025626659 0.000000267724 -0.499999582767
vn -0.707107245922 0.000000378619 -0.707106292248
vn -0.707107186317 0.000000378619 -0.707106411457
vn -0.500000178814 0.000000463712 -0.866025328636
vn -0.500000119209 0.000000463712 -0.866025328636
vn -0.258819341660 0.000000517204 -0.965925753117
vn -0.258819222450 0.000000419174 -0.965925753117
vn -0.000000497548 0.000000260951 -1.000000000000
vn -0.000000394689 0.000000162921 -0.999999940395
vn 0.258818358183 0.000000157369 -0.965925931931
vn 0.499999493361 0.000000141093 -0.866025686264
vn 0.499999374151 0.000000219537 -0.866025686264
vn 0.707106173038 0.000000300176 -0.707107365131
vn 0.763753950596 0.000000562445 -0.645507454872
vn 0.866024851799 0.000000267725 -0.500000834465
vn 0.866024971008 0.000000350667 -0.500000715256
vn 0.965925753117 -0.000000037153 -0.258819371462
vn 0.965925753117 0.000000065217 -0.258819162846
vn 0.965925812721 -0.000000255290 0.258819013834
vn 1.000000000000 0.000000027921 0.000000181796
vn 0.866025447845 -0.000000547122 0.499999821186
vn 0.707106828690 -0.000000773748 0.707106649876
vn 0.500000000000 -0.000000947644 0.866025388241
vn 0.258819103241 -0.000001056959 0.965925812721
vn 0.000000019136 -0.000001094243 1.000000000000
vn -0.258819043636 -0.000001056959 0.965925753117
vn -0.499999701977 -0.000000947644 0.866025507450
vn -0.707106530666 -0.000000284910 0.707106947899
vn -0.810192883015 -0.000000095498 0.586163461208
vn 0.866025030613 0.000000547123 -0.500000774860
vn 0.814667761326 0.000000634583 -0.579927861691
vn 0.965925753117 0.000000283211 -0.258819282055
vn -0.826389074326 -0.000001665022 0.563099503517
vn -0.826389014721 -0.000001434172 0.563099682331
vn -0.885185956955 -0.000000833891 0.465237468481
vn -0.906910896301 -0.000000764364 0.421322435141
vn -0.996745824814 -0.000000127908 0.080608263612
vn -0.980979979038 -0.000000353804 0.194108992815
vn -0.995577454567 0.000000102429 -0.093943975866
vn -0.928596615791 0.000000569118 -0.371090650558
vn -0.786123275757 0.000000917511 -0.618069708347
vn -0.637097358704 0.000000903656 -0.770783305168
vn -0.384529381990 0.000000925339 -0.923112690449
vn -0.098512582481 0.000000831832 -0.995135843754
vn 0.122192829847 -0.000889239309 -0.992505967617
vn 0.473317384720 -0.001055640401 -0.880891323090
vn 0.762717723846 0.000000822380 -0.646731615067
vn 0.839762687683 0.000000779249 -0.542953550816
vn -0.826389014721 -0.000001221116 0.563099503517
vn -0.826388955116 -0.000001078250 0.563099682331
vn 0.836173355579 0.000001515480 -0.548465192318
vn 0.836215078831 0.000001657630 -0.548401653767
vn 0.837407112122 0.000001697517 -0.546579658985
vn 0.837407112122 0.000001610474 -0.546579480171
vn 0.837406873703 0.000001519984 -0.546580016613
vn 0.837406933308 0.000001422279 -0.546580076218
vn 0.830470502377 0.000001436758 -0.557062566280
vn 0.827516913414 0.000001130671 -0.561440765858
vn 0.831812739372 0.000001160671 -0.555056333542
vn 0.836932063103 0.000000643356 -0.547306835651
vn -0.826389014721 -0.000001083806 0.563099801540
vn -0.826388835907 -0.000001053222 0.563099682331
vn 0.000000000000 -1.000000000000 -0.000000162921
vn 0.000000037457 -1.000000000000 0.000000025346
vn 0.000007802859 -0.999999940395 -0.000002165599
vn 0.000001202594 -1.000000000000 0.000000214329
vn -0.000008011999 -1.000000000000 0.000005464015
vn -0.000000417152 -1.000000000000 0.000000422606
vn 0.000000685343 -0.999999940395 0.000000439868
vn 0.000000000000 -0.999999940395 -0.000000162921
vn 0.000000032209 -1.000000000000 0.000000186391
vn -0.000000208413 -1.000000000000 0.000000190458
vn -0.000000122693 -1.000000000000 -0.000000030515
vn -0.000000062162 -1.000000000000 0.000000621400
vn -0.000094767049 -1.000000000000 0.000065146749
vn 0.000000781022 -1.000000000000 0.000000768274
vn -0.000000179238 -1.000000000000 -0.000000045931
vn 0.000000032060 -1.000000000000 0.000000097900
vn 0.000000196242 -1.000000000000 0.000000092827
vn -0.000000007258 0.999144017696 0.041366476566
vn -0.000000036197 0.995921075344 0.090229190886
vn 0.000000453168 1.000000000000 -0.000000547956
vn 0.000000098883 0.999999940395 -0.000000364045
vn -0.000000436686 1.000000000000 0.000000198432
vn -0.000005670523 0.999999940395 0.000003989384
vn -0.000006557090 1.000000000000 0.000004630908
vn -0.000000015134 0.976871252060 0.213828489184
vn 0.000000011215 0.952117502689 0.305732280016
vn 0.000000009201 0.889367997646 0.457192182541
vn -0.000000027899 0.849440932274 0.527683734894
vn -0.000000013120 0.713992536068 0.700153231621
vn -0.000000067243 0.643522202969 0.765427529812
vn -0.000000078507 0.445188134909 0.895437002182
vn -0.000000036474 0.420183241367 0.907439231873
vn -0.130304425955 0.991473972797 0.000000419538
vn -0.130302175879 0.991474330425 0.000000161532
vn 0.000000000000 -1.000000000000 -0.000000735957
vn -0.130302160978 -0.991474330425 -0.000000729682
vn -0.130300119519 -0.991474628448 -0.000000471675
vn 0.000000000000 0.000000162921 -1.000000000000
vn 0.000000000000 0.000000162921 -0.999999940395
vn 0.999999940395 0.000000000000 0.000000000000
vn 1.000000000000 0.000000000000 0.000000000000
vn 0.000000479184 0.000000232919 1.000000000000
vn -0.000004631278 0.000001075790 1.000000000000
vn -0.000002560199 -0.000000105809 1.000000000000
vn 0.000000000000 -0.000000162921 1.000000000000
vn -0.000000106590 -0.000000298307 1.000000000000
vn 0.000000083935 -0.000000275080 1.000000000000
vn 0.000001243591 0.000000119167 1.000000000000
vn -0.991474211216 0.130302786827 0.000000021229
vn -0.991474270821 -0.130302786827 -0.000000021229
vn -0.991474211216 -0.130302786827 -0.000000021229
vn -0.991474270821 0.130302786827 0.000000021229
vn -0.499805808067 0.866137444973 0.000000372593
vn -0.499806582928 0.866137087345 0.000000443555
vn -0.866138815880 0.499803572893 0.000000275312
vn -0.866138041019 0.499805092812 0.000000081429
vn -0.499805539846 -0.866137623787 -0.000000405959
vn -0.499803870916 -0.866138577461 -0.000000141112
vn -0.866138875484 -0.499803453684 -0.000000081428
vn -0.866138815880 -0.499803364277 -0.000000081428
# 245 vertex normals

vt 0.750000000000 0.000000000000 0.000000000000
vt 0.791666626930 0.000000000000 0.000000000000
vt 0.791666626930 1.000000000000 0.000000000000
vt 0.750000000000 1.000000000000 0.000000000000
vt 0.833333313465 0.000000000000 0.000000000000
vt 0.833333313465 1.000000000000 0.000000000000
vt 0.875000000000 0.000000000000 0.000000000000
vt 0.875000000000 1.000000000000 0.000000000000
vt 0.916666686535 0.000000000000 0.000000000000
vt 0.916666686535 1.000000000000 0.000000000000
vt 0.958333313465 0.000000000000 0.000000000000
vt 0.958333313465 1.000000000000 0.000000000000
vt 0.999999940395 0.000000000000 0.000000000000
vt 0.999999940395 1.000000000000 0.000000000000
vt -0.000000059605 0.000000000000 0.000000000000
vt 0.041666656733 0.000000000000 0.000000000000
vt 0.041666656733 1.000000000000 0.000000000000
vt -0.000000059605 1.000000000000 0.000000000000
vt 0.083333313465 0.000000000000 0.000000000000
vt 0.083333313465 1.000000000000 0.000000000000
vt 0.124999970198 0.000000000000 0.000000000000
vt 0.124999970198 1.000000000000 0.000000000000
vt 0.166666626930 0.000000000000 0.000000000000
vt 0.166666626930 1.000000000000 0.000000000000
vt 0.666666567326 1.000000000000 0.000000000000
vt 0.624999880791 1.000000000000 0.000000000000
vt 0.624999880791 0.000000000000 0.000000000000
vt 0.666666567326 0.000000000000 0.000000000000
vt 0.708333253860 0.000000000000 0.000000000000
vt 0.708333253860 1.000000000000 0.000000000000
vt 1.000000000000 0.000000000000 0.000000000000
vt 1.000000000000 1.000000000000 0.000000000000
vt 0.000000000000 1.000000000000 0.000000000000
vt 0.000000000000 0.000000000000 0.000000000000
vt 1.000000000000 0.250000000000 0.000000000000
vt 0.000000000000 0.250000000000 0.000000000000
vt 1.000000000000 0.062500000000 0.000000000000
vt 0.000000000000 0.062500000000 0.000000000000
vt 0.000000000000 0.500000000000 0.000000000000
vt 1.000000000000 0.500000000000 0.000000000000
vt 0.000000000000 0.125000000000 0.000000000000
vt 1.000000000000 0.125000000000 0.000000000000
vt 0.791666626930 0.500000000000 0.000000000000
vt 0.750000000000 0.500000000000 0.000000000000
vt 0.833333313465 0.500000000000 0.000000000000
vt 0.875000000000 0.500000000000 0.000000000000
vt 0.916666686535 0.500000000000 0.000000000000
vt 0.958333313465 0.500000000000 0.000000000000
vt 0.999999940395 0.500000000000 0.000000000000
vt 0.041666656733 0.500000000000 0.000000000000
vt -0.000000059605 0.500000000000 0.000000000000
vt 0.083333313465 0.500000000000 0.000000000000
vt 0.124999970198 0.500000000000 0.000000000000
vt 0.166666626930 0.500000000000 0.000000000000
vt 0.208333283663 0.000000000000 0.000000000000
vt 0.208333283663 0.500000000000 0.000000000000
vt 0.249999940395 0.000000000000 0.000000000000
vt 0.249999940395 0.500000000000 0.000000000000
vt 0.291666597128 0.000000000000 0.000000000000
vt 0.291666597128 0.500000000000 0.000000000000
vt 0.333333253860 0.000000000000 0.000000000000
vt 0.333333253860 0.500000000000 0.000000000000
vt 0.374999910593 0.000000000000 0.000000000000
vt 0.374999910593 0.500000000000 0.000000000000
vt 0.416666597128 0.000000000000 0.000000000000
vt 0.416666597128 0.500000000000 0.000000000000
vt 0.458333253860 0.000000000000 0.000000000000
vt 0.458333253860 0.500000000000 0.000000000000
vt 0.499999910593 0.000000000000 0.000000000000
vt 0.499999910593 0.500000000000 0.000000000000
vt 0.541666567326 0.000000000000 0.000000000000
vt 0.541666567326 0.500000000000 0.000000000000
vt 0.583333253860 0.000000000000 0.000000000000
vt 0.583333253860 0.500000000000 0.000000000000
vt 0.624999880791 0.500000000000 0.000000000000
vt 0.666666567326 0.500000000000 0.000000000000
vt 0.708333253860 0.500000000000 0.000000000000
vt 0.335937410593 0.500000000000 0.000000000000
vt 0.399413973093 1.000000000000 0.000000000000
vt 0.510416567326 1.000000000000 0.000000000000
vt 0.416666567326 0.500000000000 0.000000000000
vt 0.453124910593 1.000000000000 0.000000000000
vt 0.424479067326 1.000000000000 0.000000000000
vt 0.354166567326 0.500000000000 0.000000000000
vt 0.410156160593 1.000000000000 0.000000000000
vt 0.343749910593 0.500000000000 0.000000000000
vt 0.402994692326 1.000000000000 0.000000000000
vt 0.338541567326 0.500000000000 0.000000000000
vt 0.601729929447 1.000000000000 0.000000000000
vt 0.601729929447 0.000000000000 0.000000000000
vt 0.398270070553 1.000000000000 0.000000000000
vt 0.398270070553 0.000000000000 0.000000000000
vt 0.199135035276 0.000000000000 0.000000000000
vt 0.199135035276 1.000000000000 0.000000000000
vt 0.000000000000 0.924932479858 0.000000000000
vt 0.000000000000 0.849864959717 0.000000000000
vt 0.000000000000 0.075067535043 0.000000000000
vt 0.000000000000 0.150135070086 0.000000000000
vt 0.800864934921 0.000000000000 0.000000000000
vt 1.000000000000 0.075067535043 0.000000000000
vt 1.000000000000 0.150135070086 0.000000000000
vt 1.000000000000 0.849864959717 0.000000000000
vt 1.000000000000 0.924932479858 0.000000000000
vt 0.800864934921 1.000000000000 0.000000000000
vt 1.175707459450 0.000000015508 0.000000000000
vt 1.175707697868 1.000000000000 0.000000000000
vt 1.000000000000 1.066236019135 0.000000000000
vt 0.000000000000 1.066236257553 0.000000000000
# 108 texture coords

usemtl 08___Default
s off
f 1/1/1 2/2/2 3/3/3
f 3/3/3 4/4/4 1/1/1
f 2/2/2 5/5/5 6/6/6
f 6/6/6 3/3/3 2/2/2
f 5/5/5 7/7/7 8/8/8
f 8/8/8 6/6/6 5/5/5
f 7/7/7 9/9/9 10/10/10
f 10/10/10 8/8/8 7/7/7
f 9/9/9 11/11/11 12/12/12
f 12/12/12 10/10/10 9/9/9
f 11/11/11 13/13/13 14/14/14
f 14/14/14 12/12/12 11/11/11
f 13/15/13 15/16/15 16/17/16
f 16/17/16 14/18/14 13/15/13
f 15/16/15 17/19/17 18/20/18
f 18/20/18 16/17/16 15/16/15
f 17/19/17 19/21/19 20/22/19
f 20/22/19 18/20/18 17/19/17
f 19/21/19 21/23/20 22/24/21
f 22/24/21 20/22/19 19/21/19
f 23/25/22 24/26/23 25/27/24
f 25/27/24 26/28/25 23/25/22
f 26/28/25 27/29/26 28/30/27
f 28/30/27 23/25/22 26/28/25
f 27/29/26 1/1/1 4/4/4
f 4/4/4 28/30/27 27/29/26
f 29/27/28 30/26/29 31/26/30
f 31/26/30 32/27/31 29/27/28
f 32/27/31 31/26/30 33/26/32
f 33/26/32 34/27/33 32/27/31
f 34/27/33 33/26/32 35/26/34
f 35/26/34 36/27/35 34/27/33
f 36/27/35 35/26/34 37/26/36
f 37/26/36 38/27/37 36/27/35
f 38/27/37 37/26/36 39/26/38
f 39/26/38 40/27/39 38/27/37
f 40/27/39 39/26/38 41/26/40
f 41/26/40 42/27/41 40/27/39
f 42/27/41 41/26/40 43/26/42
f 43/26/42 44/27/43 42/27/41
f 43/26/42 45/26/44 46/27/45
f 46/27/45 44/27/43 43/26/42
f 47/27/46 48/26/47 49/26/48
f 49/26/48 50/27/49 47/27/46
f 49/27/48 22/24/21 21/23/20
f 21/23/20 50/26/49 49/27/48
f 27/29/50 26/28/51 25/27/52
f 27/29/50 25/27/52 29/27/53
f 29/27/53 32/27/54 34/27/55
f 27/29/50 29/27/53 34/27/55
f 34/27/55 36/27/56 38/27/57
f 38/27/57 40/27/58 42/27/59
f 34/27/55 38/27/57 42/27/59
f 42/27/59 44/27/60 46/27/61
f 42/27/59 46/27/61 47/27/62
f 47/27/62 50/27/63 21/23/64
f 42/27/59 47/27/62 21/23/64
f 34/27/55 42/27/59 21/23/64
f 21/23/64 19/21/56 17/19/56
f 17/19/56 15/16/56 13/15/56
f 21/23/64 17/19/56 13/15/56
f 13/15/56 11/11/56 9/9/65
f 9/9/65 7/7/56 5/5/66
f 13/15/56 9/9/65 5/5/66
f 21/23/64 13/15/56 5/5/66
f 34/27/55 21/23/64 5/5/66
f 27/29/50 34/27/55 5/5/66
f 27/29/50 5/5/66 2/2/56
f 1/1/56 27/29/50 2/2/56
f 6/6/67 8/8/68 10/10/69
f 10/10/69 12/12/70 14/14/71
f 6/6/67 10/10/69 14/14/71
f 14/14/71 16/17/72 18/20/73
f 18/20/73 20/22/74 22/24/75
f 14/14/71 18/20/73 22/24/75
f 6/6/67 14/14/71 22/24/75
f 22/24/75 49/27/76 48/26/77
f 48/26/77 45/26/78 24/26/79
f 22/24/75 48/26/77 24/26/79
f 6/6/67 22/24/75 24/26/79
f 24/26/79 23/25/80 28/30/81
f 6/6/67 24/26/79 28/30/81
f 6/6/67 28/30/81 4/4/82
f 3/3/83 6/6/67 4/4/82
f 30/26/29 29/27/28 25/27/24
f 25/27/24 24/26/23 30/26/29
f 48/26/47 47/27/46 46/27/45
f 46/27/45 45/26/44 48/26/47
f 51/31/84 35/32/34 33/33/32
f 33/33/32 52/34/85 51/31/84
f 53/34/86 54/31/87 24/32/88
f 24/32/88 45/33/88 53/34/86
f 33/31/32 31/35/30 55/36/89
f 55/36/89 52/34/85 33/31/32
f 51/31/84 56/37/90 37/38/36
f 37/38/36 35/34/34 51/31/84
f 53/32/91 45/33/44 43/39/42
f 43/39/42 57/40/92 53/32/91
f 57/40/92 43/39/42 41/36/40
f 41/36/40 58/35/93 57/40/92
f 58/35/93 41/36/40 39/41/38
f 39/41/38 59/42/94 58/35/93
f 59/42/94 39/41/38 37/38/36
f 37/38/36 56/37/90 59/42/94
f 24/32/23 54/33/95 60/39/96
f 60/39/96 30/40/29 24/32/23
f 30/40/29 60/39/96 55/36/89
f 55/36/89 31/35/30 30/40/29
f 61/2/97 62/43/98 63/44/99
f 63/44/99 64/1/100 61/2/97
f 65/5/101 66/45/102 62/43/98
f 62/43/98 61/2/97 65/5/101
f 67/7/103 68/46/104 66/45/102
f 66/45/102 65/5/101 67/7/103
f 69/9/105 70/47/106 68/46/104
f 68/46/104 67/7/103 69/9/105
f 71/11/107 72/48/108 70/47/106
f 70/47/106 69/9/105 71/11/107
f 73/13/109 74/49/110 72/48/108
f 72/48/108 71/11/107 73/13/109
f 75/16/111 76/50/112 74/51/110
f 74/51/110 73/15/109 75/16/111
f 77/19/113 78/52/114 76/50/112
f 76/50/112 75/16/111 77/19/113
f 79/21/115 80/53/115 78/52/114
f 78/52/114 77/19/113 79/21/115
f 81/23/116 82/54/117 80/53/115
f 80/53/115 79/21/115 81/23/116
f 83/55/118 84/56/119 82/54/117
f 82/54/117 81/23/116 83/55/118
f 85/57/120 86/58/120 84/56/119
f 84/56/119 83/55/118 85/57/120
f 87/59/121 88/60/122 86/58/120
f 86/58/120 85/57/120 87/59/121
f 89/61/123 90/62/124 88/60/122
f 88/60/122 87/59/121 89/61/123
f 91/63/125 92/64/126 90/62/124
f 90/62/124 89/61/123 91/63/125
f 93/65/127 94/66/128 92/64/126
f 92/64/126 91/63/125 93/65/127
f 95/67/129 96/68/130 94/66/128
f 94/66/128 93/65/127 95/67/129
f 97/69/131 98/70/132 96/68/130
f 96/68/130 95/67/129 97/69/131
f 99/71/133 100/72/133 98/70/132
f 98/70/132 97/69/131 99/71/133
f 101/73/134 102/74/135 100/72/133
f 100/72/133 99/71/133 101/73/134
f 103/27/136 104/75/137 102/74/135
f 102/74/135 101/73/134 103/27/136
f 105/28/138 106/76/139 104/75/137
f 104/75/137 103/27/136 105/28/138
f 107/29/140 108/77/141 106/76/139
f 106/76/139 105/28/138 107/29/140
f 64/1/100 63/44/99 108/77/141
f 108/77/141 107/29/140 64/1/100
f 109/3/142 110/4/143 63/44/99
f 63/44/99 62/43/98 109/3/142
f 111/6/144 109/3/142 62/43/98
f 62/43/98 66/45/102 111/6/144
f 112/8/145 111/6/144 66/45/102
f 66/45/102 68/46/104 112/8/145
f 113/10/146 112/8/145 68/46/104
f 68/46/104 70/47/106 113/10/146
f 114/12/147 113/10/146 70/47/106
f 70/47/106 72/48/108 114/12/147
f 115/14/148 114/12/147 72/48/108
f 72/48/108 74/49/110 115/14/148
f 116/17/149 115/18/148 74/51/110
f 74/51/110 76/50/112 116/17/149
f 117/20/150 116/17/149 76/50/112
f 76/50/112 78/52/114 117/20/150
f 118/22/151 117/20/150 78/52/114
f 78/52/114 80/53/115 118/22/151
f 119/24/152 118/22/151 80/53/115
f 80/53/115 82/54/117 119/24/152
f 120/25/153 121/26/154 104/75/137
f 104/75/137 106/76/139 120/25/153
f 122/30/155 120/25/153 106/76/139
f 106/76/139 108/77/141 122/30/155
f 110/4/143 122/30/155 108/77/141
f 108/77/141 63/44/99 110/4/143
f 82/54/117 123/54/156 124/24/157
f 124/24/157 119/24/152 82/54/117
f 125/24/158 126/54/159 127/54/160
f 127/54/160 128/24/161 125/24/158
f 127/54/160 53/54/91 129/24/162
f 129/24/162 128/24/161 127/54/160
f 130/24/163 57/54/92 58/54/93
f 58/54/93 131/24/164 130/24/163
f 131/24/164 58/54/93 59/54/94
f 59/54/94 132/24/165 131/24/164
f 132/24/165 59/54/94 56/54/90
f 56/54/90 133/24/166 132/24/165
f 133/24/166 56/54/90 51/54/84
f 51/54/84 134/24/167 133/24/166
f 134/24/167 51/54/84 52/54/85
f 52/54/85 135/24/168 134/24/167
f 135/24/168 52/54/85 55/54/89
f 55/54/89 136/24/169 135/24/168
f 136/24/169 55/54/89 60/54/96
f 60/54/96 137/24/170 136/24/169
f 60/54/96 54/78/95 138/79/171
f 138/79/171 137/24/170 60/54/96
f 139/54/172 140/24/173 124/24/157
f 124/24/157 123/54/156 139/54/172
f 104/70/137 121/26/154 141/80/174
f 141/80/174 142/81/175 104/70/137
f 142/81/175 141/80/174 143/82/176
f 143/82/176 144/64/177 142/81/175
f 144/64/177 143/82/176 145/83/178
f 145/83/178 146/84/179 144/64/177
f 146/84/179 145/83/178 147/85/180
f 147/85/180 148/86/181 146/84/179
f 148/86/181 147/85/180 149/87/182
f 149/87/182 150/88/183 148/86/181
f 150/88/183 149/87/182 138/79/171
f 138/79/171 54/78/95 150/88/183
f 151/54/184 152/24/185 140/24/173
f 140/24/173 139/54/172 151/54/184
f 126/54/159 125/24/158 152/24/185
f 152/24/185 151/54/184 126/54/159
f 57/54/92 130/24/163 129/24/162
f 129/24/162 53/54/91 57/54/92
f 107/29/56 105/28/56 103/27/56
f 103/27/56 101/73/56 99/71/56
f 99/71/56 97/69/56 95/67/65
f 103/27/56 99/71/56 95/67/65
f 95/67/65 93/65/56 91/63/56
f 91/63/56 89/61/65 87/59/65
f 95/67/65 91/63/56 87/59/65
f 87/59/65 85/57/56 83/55/56
f 83/55/56 81/23/56 79/21/56
f 87/59/65 83/55/56 79/21/56
f 95/67/65 87/59/65 79/21/56
f 79/21/56 77/19/56 75/16/56
f 75/16/56 73/15/65 71/11/56
f 79/21/56 75/16/56 71/11/56
f 71/11/56 69/9/65 67/7/56
f 67/7/56 65/5/56 61/2/65
f 71/11/56 67/7/56 61/2/65
f 79/21/56 71/11/56 61/2/65
f 95/67/65 79/21/56 61/2/65
f 103/27/56 95/67/65 61/2/65
f 107/29/56 103/27/56 61/2/65
f 64/1/56 107/29/56 61/2/65
f 111/6/186 112/8/186 113/10/186
f 113/10/186 114/12/186 115/14/186
f 115/14/186 116/17/186 117/20/186
f 113/10/186 115/14/186 117/20/186
f 117/20/186 118/22/186 119/24/187
f 113/10/186 117/20/186 119/24/187
f 125/24/188 128/24/186 129/24/189
f 152/24/190 125/24/188 129/24/189
f 140/24/191 152/24/190 129/24/189
f 129/24/189 130/24/186 131/24/192
f 140/24/191 129/24/189 131/24/192
f 131/24/192 132/24/186 133/24/193
f 131/24/192 133/24/193 134/24/194
f 140/24/191 131/24/192 134/24/194
f 124/24/195 140/24/191 134/24/194
f 134/24/194 135/24/186 136/24/186
f 136/24/186 137/24/186 138/79/196
f 134/24/194 136/24/186 138/79/196
f 124/24/195 134/24/194 138/79/196
f 124/24/195 138/79/196 149/87/197
f 119/24/187 124/24/195 149/87/197
f 149/87/197 147/85/198 145/83/199
f 119/24/187 149/87/197 145/83/199
f 119/24/187 145/83/199 143/82/200
f 119/24/187 143/82/200 141/80/201
f 119/24/187 141/80/201 121/26/202
f 121/26/202 120/25/186 122/30/186
f 121/26/202 122/30/186 110/4/186
f 119/24/187 121/26/202 110/4/186
f 113/10/186 119/24/187 110/4/186
f 111/6/186 113/10/186 110/4/186
f 109/3/186 111/6/186 110/4/186
f 102/74/65 104/75/56 142/81/203
f 100/72/56 102/74/65 142/81/203
f 98/70/56 100/72/56 142/81/203
f 96/68/56 98/70/56 142/81/203
f 94/66/56 96/68/56 142/81/203
f 94/66/56 142/81/203 123/54/204
f 92/64/56 94/66/56 123/54/204
f 90/62/205 92/64/56 123/54/204
f 88/60/206 90/62/205 123/54/204
f 86/58/207 88/60/206 123/54/204
f 84/56/208 86/58/207 123/54/204
f 84/56/208 123/54/204 82/54/209
f 144/64/210 139/54/211 123/54/204
f 123/54/204 142/81/203 144/64/210
f 146/84/212 151/54/213 139/54/211
f 139/54/211 144/64/210 146/84/212
f 148/86/214 126/54/215 151/54/213
f 151/54/213 146/84/212 148/86/214
f 150/88/216 127/54/217 126/54/215
f 126/54/215 148/86/214 150/88/216
f 54/78/87 53/54/86 127/54/217
f 127/54/217 150/88/216 54/78/87
f 153/89/218 154/33/56 155/34/56
f 155/34/56 156/90/219 153/89/218
f 157/31/220 158/32/220 159/91/221
f 159/91/221 160/92/222 157/31/220
f 161/93/223 156/92/223 155/31/223
f 155/31/223 157/32/223 160/91/223
f 161/93/223 155/31/223 160/91/223
f 162/94/223 163/95/223 164/96/224
f 160/91/223 162/94/223 164/96/224
f 161/93/223 160/91/223 164/96/224
f 165/97/223 161/93/223 164/96/224
f 166/98/223 165/97/223 164/96/224
f 155/34/225 154/31/226 158/32/226
f 158/32/226 157/33/226 155/34/225
f 167/99/227 168/100/228 169/101/229
f 169/101/229 170/102/230 171/103/231
f 167/99/227 169/101/229 171/103/231
f 172/104/230 159/89/230 158/33/232
f 171/103/231 172/104/230 158/33/232
f 167/99/227 171/103/231 158/33/232
f 153/90/233 167/99/227 158/33/232
f 154/34/230 153/90/233 158/33/232
f 166/101/234 164/102/235 170/96/236
f 170/96/236 169/98/237 166/101/234
f 153/89/218 156/90/219 161/99/238
f 161/99/238 167/104/239 153/89/218
f 167/104/239 161/99/238 165/105/240
f 165/105/240 168/106/241 167/104/239
f 160/92/222 159/91/221 172/94/242
f 172/94/242 162/93/243 160/92/222
f 162/107/243 172/108/242 171/95/244
f 171/95/244 163/103/245 162/107/243
f 166/101/234 169/98/237 168/97/241
f 168/97/241 165/100/240 166/101/234
f 170/96/236 164/102/235 163/103/245
f 163/103/245 171/95/244 170/96/236
# 336 faces
