o arm_l_link6
# 3ds Max Wavefront OBJ Exporter v0.99 - (c)2007 guruware
# File Created: 28.05.2026 15:38:21

mtllib arm_l_link6.mtl

#
# object Box001
#

v  0.054400008172 -0.028500000015 0.030304800719
v  0.057400006801 -0.028500001878 0.030304785818
v  0.057400003076 0.015000004321 0.030304785818
v  0.054400008172 0.015000004321 0.030304796994
v  0.054400030524 0.036499992013 0.037200007588
v  0.057400010526 0.036499992013 0.035499993712
v  0.057399995625 0.036499992013 -0.021100010723
v  0.054399996996 0.036499992013 -0.021099993959
v  0.057399999350 0.028500005603 -0.021100010723
v  0.054400004447 -0.036499992013 0.021100010723
v  0.054399996996 -0.036499995738 -0.037200000137
v  0.057400003076 -0.036499992013 -0.035500008613
v  0.057400003076 -0.036499992013 0.021099995822
v  0.057400017977 0.015000004321 0.035500001162
v  0.054400034249 0.015000004321 0.037200007588
v  0.054400000721 0.028500003740 -0.021099993959
v  0.057399991900 0.028500005603 -0.037200015038
v  0.054399993271 0.028500001878 -0.037199996412
v  0.054400004447 -0.028500003740 0.021100010723
v  0.057400003076 -0.028500001878 0.021099995822
v  0.060400005430 0.036499992013 0.037199962884
v  0.060400009155 0.015000005253 0.037199962884
v  0.060399994254 0.015000005253 0.035499967635
v  0.060399990529 0.036499992013 0.035499960184
v  0.060400001705 -0.036499992013 -0.035500019789
v  0.060399997979 -0.036499992013 -0.037200022489
v  0.060399994254 -0.014999996871 -0.037200022489
v  0.060400001705 -0.014999997802 -0.035500027239
v  0.057399995625 -0.014999996871 -0.037200011313
v  0.057399999350 -0.014999997802 -0.035500016063
v  0.054400011897 -0.016500009224 0.024518355727
v  0.054400011897 -0.016500007361 0.029280800372
v  0.054400011897 -0.016756005585 0.030048795044
v  0.054400011897 -0.017524003983 0.030304796994
v  0.054400008172 -0.024000002071 0.030304796994
v  0.054400008172 -0.025968750939 0.030023545027
v  0.054400008172 -0.027375001460 0.029179796576
v  0.054400008172 -0.028218751773 0.027773544192
v  0.054400008172 -0.028500001878 0.025592792779
v  0.054400008172 -0.028214002028 0.023378789425
v  0.054400008172 -0.027356002480 0.021948790178
v  0.054400008172 -0.025926001370 0.021090790629
v  0.054400011897 -0.023924000561 0.020804788917
v  0.054400011897 -0.020948514342 0.020804788917
v  0.046900007874 -0.023923996836 0.020804787055
v  0.046900007874 -0.025925997645 0.021090786904
v  0.046900004148 -0.027355998755 0.021948788315
v  0.046900004148 -0.028213998303 0.023378787562
v  0.046900004148 -0.028499998152 0.025592789054
v  0.046900004148 -0.028218748048 0.027773544192
v  0.046900004148 -0.027374997735 0.029179792851
v  0.046900004148 -0.025968749076 0.030023541301
v  0.046900007874 -0.023999998346 0.030304789543
v  0.046900011599 -0.017524002120 0.030304789543
v  0.046900011599 -0.016756007448 0.030048791319
v  0.046900011599 -0.016500007361 0.029280796647
v  0.046900011599 -0.016500003636 0.024518352002
v  0.046900007874 -0.020948510617 0.020804787055
v  0.046900007874 0.016500012949 0.024518355727
v  0.046900004148 0.016500011086 0.029280796647
v  0.046900007874 0.016756009310 0.030048795044
v  0.046900007874 0.017524007708 0.030304793268
v  0.046900011599 0.024000005797 0.030304793268
v  0.046900011599 0.025968754664 0.030023545027
v  0.046900011599 0.027375005186 0.029179792851
v  0.046900011599 0.028218755499 0.027773544192
v  0.046900011599 0.028500005603 0.025592792779
v  0.046900011599 0.028214005753 0.023378789425
v  0.046900011599 0.027356006205 0.021948790178
v  0.046900011599 0.025926005095 0.021090790629
v  0.046900007874 0.023924004287 0.020804790780
v  0.046900007874 0.020948518068 0.020804790780
v  0.054400011897 0.023924002424 0.020804787055
v  0.054400011897 0.025926003233 0.021090786904
v  0.054400011897 0.027356002480 0.021948786452
v  0.054400015622 0.028214003891 0.023378785700
v  0.054400015622 0.028500003740 0.025592789054
v  0.054400015622 0.028218753636 0.027773544192
v  0.054400015622 0.027375003323 0.029179792851
v  0.054400015622 0.025968752801 0.030023541301
v  0.054400011897 0.024000003934 0.030304793268
v  0.054400008172 0.017524007708 0.030304793268
v  0.054400008172 0.016756013036 0.030048795044
v  0.054400008172 0.016500012949 0.029280796647
v  0.054400008172 0.016500009224 0.024518352002
v  0.054400011897 0.020948516205 0.020804785192
v  0.055399999022 0.014978350140 -0.000000000466
v  0.055399999022 0.014467974193 0.003876682371
v  0.070900000632 0.014467976987 0.003876673989
v  0.070899993181 0.014978352934 -0.000000008848
v  0.055399999022 0.012971631251 0.007489176467
v  0.070900000632 0.012971634045 0.007489168085
v  0.055400002748 0.010591290891 0.010591292754
v  0.070900000632 0.010591293685 0.010591285303
v  0.055400002748 0.007489171345 0.012971632183
v  0.070899993181 0.007489173673 0.012971626595
v  0.055400002748 0.003876679344 0.014467976987
v  0.070900008082 0.003876681672 0.014467971399
v  0.055400002748 -0.000000002790 0.014978352934
v  0.070900000632 -0.000000000233 0.014978345484
v  0.055400002748 -0.003876684699 0.014467976987
v  0.070900000632 -0.003876682371 0.014467971399
v  0.055400002748 -0.007489177864 0.012971634045
v  0.070900000632 -0.007489175536 0.012971626595
v  0.055400002748 -0.010591294616 0.010591294616
v  0.070900008082 -0.010591291822 0.010591289029
v  0.055400002748 -0.012971634977 0.007489179261
v  0.070900000632 -0.012971632183 0.007489171810
v  0.055400002748 -0.014467979781 0.003876687959
v  0.070900000632 -0.014467976987 0.003876678646
v  0.055399999022 -0.014978355728 0.000000005588
v  0.070900000632 -0.014978352934 -0.000000002794
v  0.055399999022 -0.014467982575 -0.003876677249
v  0.070900000632 -0.014467979781 -0.003876685863
v  0.055399999022 -0.012971639633 -0.007489170413
v  0.070899993181 -0.012971636839 -0.007489178795
v  0.055399999022 -0.010591303930 -0.010591289960
v  0.070900000632 -0.010591301136 -0.010591297410
v  0.055399999022 -0.007489184849 -0.012971631251
v  0.070900008082 -0.007489182521 -0.012971638702
v  0.055399999022 -0.003876692615 -0.014467977919
v  0.070899993181 -0.003876690287 -0.014467984438
v  0.055399999022 -0.000000010885 -0.014978353865
v  0.070900000632 -0.000000008327 -0.014978361316
v  0.055399999022 0.003876671661 -0.014467980713
v  0.070900000632 0.003876673989 -0.014467988163
v  0.055399999022 0.007489164360 -0.012971638702
v  0.070900000632 0.007489166688 -0.012971646152
v  0.055399999022 0.010591284372 -0.010591302998
v  0.070899993181 0.010591287166 -0.010591310449
v  0.055399999022 0.012971626595 -0.007489185315
v  0.070900000632 0.012971629389 -0.007489193697
v  0.055399999022 0.014467972331 -0.003876694012
v  0.070900000632 0.014467975125 -0.003876702627
v  0.057399999350 0.010049998760 0.035500001162
v  0.057400003076 0.038950003684 0.035500001162
v  0.057399999350 0.038950003684 0.015500001609
v  0.057399999350 0.010049998760 0.015500001609
v  0.065400004387 0.010049999692 0.035500001162
v  0.065399996936 0.010049999692 0.015499999747
v  0.065399996936 0.038950003684 0.015499999747
v  0.065400004387 0.038950003684 0.035500001162
v  0.057400003076 -0.038950003684 -0.015499999747
v  0.057400003076 -0.010049998760 -0.015499999747
v  0.057399999350 -0.010049998760 -0.035499997437
v  0.057399999350 -0.038950003684 -0.035499997437
v  0.065400004387 -0.038950003684 -0.015500002541
v  0.065399996936 -0.038950003684 -0.035500001162
v  0.065399996936 -0.010049997829 -0.035500001162
v  0.065400004387 -0.010049997829 -0.015500002541
v  0.000000000000 0.023238537833 -0.000000000931
v  0.000000000000 0.022446703166 0.006014576182
v  0.055400006473 0.022446705028 0.006014566869
v  0.055400002748 0.023238539696 -0.000000008382
v  0.000000003725 0.020125163719 0.011619269848
v  0.055400010198 0.020125165582 0.011619260535
v  0.000000003725 0.016432125121 0.016432125121
v  0.055400010198 0.016432126984 0.016432117671
v  0.000000003725 0.011619264260 0.020125163719
v  0.055400006473 0.011619266123 0.020125156268
v  0.000000003725 0.006014574319 0.022446703166
v  0.055400010198 0.006014576647 0.022446695715
v  0.000000003725 -0.000000001242 0.023238537833
v  0.055400006473 0.000000001133 0.023238530383
v  0.000000003725 -0.006014576182 0.022446705028
v  0.055400006473 -0.006014573853 0.022446697578
v  0.000000003725 -0.011619269848 0.020125165582
v  0.055400006473 -0.011619267985 0.020125158131
v  0.000000003725 -0.016432125121 0.016432130709
v  0.055400010198 -0.016432123259 0.016432123259
v  0.000000003725 -0.020125163719 0.011619275436
v  0.055400006473 -0.020125161856 0.011619266123
v  0.000000003725 -0.022446705028 0.006014583632
v  0.055400010198 -0.022446703166 0.006014575250
v  0.000000003725 -0.023238541558 0.000000008382
v  0.055400010198 -0.023238539696 0.000000000466
v  0.000000000000 -0.022446710616 -0.006014567334
v  0.055400002748 -0.022446708754 -0.006014575716
v  0.000000000000 -0.020125171170 -0.011619260535
v  0.055400002748 -0.020125169307 -0.011619267985
v  0.000000000000 -0.016432140023 -0.016432121396
v  0.055400006473 -0.016432138160 -0.016432128847
v  0.000000000000 -0.011619281024 -0.020125161856
v  0.055400006473 -0.011619279161 -0.020125169307
v  -0.000000003725 -0.006014588289 -0.022446705028
v  0.055399999022 -0.006014585961 -0.022446712479
v  -0.000000003725 -0.000000013801 -0.023238541558
v  0.055400002748 -0.000000011425 -0.023238549009
v  -0.000000003725 0.006014562212 -0.022446710616
v  0.055400002748 0.006014564540 -0.022446718067
v  -0.000000003725 0.011619253084 -0.020125173032
v  0.055400002748 0.011619254947 -0.020125180483
v  -0.000000003725 0.016432115808 -0.016432141885
v  0.055399999022 0.016432117671 -0.016432149336
v  0.000000000000 0.020125156268 -0.011619283818
v  0.055400006473 0.020125158131 -0.011619292200
v  0.000000000000 0.022446699440 -0.006014593411
v  0.055400006473 0.022446701303 -0.006014601793
# 198 vertices

vn 0.000005075545 0.000000003754 0.999999940395
vn 0.000005129977 0.000000000000 1.000000000000
vn 0.000003942647 0.000000081885 1.000000000000
vn 0.000003888214 0.000000085639 1.000000000000
vn -0.000000043711 1.000000000000 0.000000000000
vn 1.000000000000 0.000000011381 -0.000000858215
vn 0.999999940395 -0.000000077382 -0.000000115009
vn 1.000000000000 0.000000178810 -0.000000120406
vn 1.000000000000 0.000000154254 -0.000000098569
vn 0.000000084354 -1.000000000000 0.000000002154
vn 0.000001057371 -1.000000000000 0.000000402535
vn 0.000000841976 -1.000000000000 0.000000518280
vn 0.000000043711 -1.000000000000 0.000000000000
vn 0.000000043711 -0.999999940395 0.000000000000
vn 0.000000147193 -1.000000000000 0.000000122678
vn 0.000000094657 -0.999999940395 0.000000089903
vn -0.000000737411 1.000000000000 -0.000000013568
vn -0.000000664593 0.999999940395 0.000000000000
vn -0.000001212659 1.000000000000 -0.000000102123
vn -0.000001285476 0.999999940395 -0.000000115692
vn -0.000005750860 -0.000000000001 -1.000000000000
vn -0.000005750858 -0.000000000001 -1.000000000000
vn -0.000005750861 -0.000000000002 -1.000000000000
vn -0.000000328104 -1.000000000000 0.000000323538
vn -0.000000577169 -0.999999940395 0.000000404712
vn 0.000000415529 -1.000000000000 0.000000081175
vn 0.000000664593 -0.999999940395 -0.000000000000
vn 0.000005129977 0.000000000001 1.000000000000
vn 0.000005129976 0.000000000001 1.000000000000
vn -1.000000000000 0.000000248432 0.000001264630
vn -1.000000000000 -0.000000119517 0.000003860408
vn -0.999999940395 0.000000729752 0.000001212300
vn -1.000000000000 0.000000117025 0.000000216560
vn 1.000000000000 0.000000254855 -0.000009133417
vn 1.000000000000 0.000000152005 -0.000007832657
vn 1.000000000000 0.000000157444 -0.000007901453
vn 1.000000000000 0.000000260295 -0.000009202213
vn -1.000000000000 0.000000019794 0.000000243482
vn -1.000000000000 0.000000053654 0.000000242141
vn -1.000000000000 -0.000000063631 0.000000137698
vn -1.000000000000 -0.000000160127 0.000000150940
vn 1.000000000000 0.000000105423 -0.000002121626
vn 1.000000000000 0.000000108687 -0.000002080347
vn 1.000000000000 0.000000046974 -0.000002860833
vn 1.000000000000 0.000000043710 -0.000002902112
vn 0.000007613532 0.000000000001 1.000000000000
vn 0.000007613531 0.000000000001 1.000000000000
vn 0.000007613532 0.000000000001 0.999999940395
vn 0.000000354154 -0.999999940395 -0.000000000002
vn 0.000000303210 -1.000000000000 0.000000089901
vn -0.000011338873 -0.000000346542 -1.000000000000
vn -0.000011338872 -0.000000346542 -1.000000000000
vn -0.000003836337 0.000000014042 -1.000000000000
vn -0.000003267329 -0.000000000000 -1.000000000000
vn -0.000003550370 -0.000000039494 -1.000000000000
vn -0.000003623295 -0.000000036965 -1.000000000000
vn -0.000000043710 1.000000000000 0.000000547838
vn 0.000003267328 0.000000346539 1.000000000000
vn 0.000000247492 -1.000000000000 0.000000359609
vn 0.999999940395 -0.000000210901 -0.000000632985
vn 0.999999940395 0.000000260297 -0.000002583004
vn 1.000000000000 -0.000000538161 -0.000000201297
vn 1.000000000000 0.000000218335 -0.000000064194
vn 1.000000000000 0.000000069182 -0.000000043112
vn 1.000000000000 0.000000059958 -0.000000912421
vn -0.000005678210 -0.000000080629 -1.000000000000
vn -0.000005750856 -0.000000085639 -1.000000000000
vn -1.000000000000 0.000000070638 0.000000244422
vn -1.000000000000 0.000000014980 0.000000227101
vn 1.000000000000 0.000000054416 -0.000002628193
vn 1.000000000000 0.000000143404 -0.000000351143
vn 1.000000000000 -0.000000488877 0.000000099073
vn 1.000000000000 -0.000000550975 -0.000000036763
vn 1.000000000000 -0.000000505238 0.000000010459
vn 1.000000000000 -0.000000550972 -0.000000036769
vn 0.999999940395 -0.000000545677 0.000000123758
vn 1.000000000000 -0.000000550973 0.000000141748
vn 0.999999940395 -0.000000514757 0.000000095623
vn 1.000000000000 -0.000000550973 0.000000141746
vn 1.000000000000 -0.000000473327 0.000000120359
vn 1.000000000000 -0.000000395751 0.000000141745
vn 1.000000000000 -0.000000410332 0.000000121701
vn 0.999999940395 -0.000000395751 0.000000141746
vn 1.000000000000 -0.000000554621 0.000000250777
vn 1.000000000000 -0.000001056844 0.000001239943
vn -1.000000000000 0.000000495396 -0.000000065320
vn -1.000000000000 0.000000363335 -0.000000244125
vn -1.000000000000 0.000000484354 -0.000000127024
vn -1.000000000000 0.000000446121 -0.000000194455
vn -1.000000000000 0.000000547352 -0.000000156778
vn -1.000000000000 0.000000409617 -0.000000109077
vn -1.000000000000 0.000000547678 -0.000000155189
vn -1.000000000000 0.000000784130 -0.000000664920
vn -1.000000000000 0.000000602166 -0.000000114220
vn -1.000000000000 0.000000603440 0.000000285374
vn -1.000000000000 0.000000696926 0.000000056869
vn -1.000000000000 0.000001481950 0.000000065144
vn -1.000000000000 0.000000581575 -0.000000081022
vn -1.000000000000 0.000000738785 -0.000000523648
vn 0.000000300832 -0.070889398456 -0.997484207153
vn 0.000000403407 -0.070889033377 -0.997484207153
vn 0.000000333784 -0.000000000000 -0.999999940395
vn 0.000000333784 -0.000000000001 -1.000000000000
vn -0.000000786986 0.160183683038 0.987087249756
vn -0.000000638752 0.160182312131 0.987087428570
vn -0.000000860512 -0.070888563991 0.997484207153
vn -0.000000640007 -0.070889383554 0.997484147549
vn 0.000000224636 1.000000000000 0.000000031488
vn 0.000000701346 0.999999940395 0.000000782222
vn 0.000000144860 0.987087249756 0.160183474422
vn -0.000000207789 0.987087488174 0.160182222724
vn -0.000000426744 -1.000000000000 -0.000102575810
vn -0.000000452960 -1.000000000000 -0.000102441896
vn -0.000000401010 -0.944627106190 0.328145891428
vn -0.000000487097 -0.944626927376 0.328146338463
vn -0.000000442678 -0.707106471062 0.707107007504
vn -0.000000499507 -0.707106411457 0.707107186317
vn -0.000000607407 -0.334578424692 0.942367851734
vn -0.000000439262 -0.334578871727 0.942367851734
vn 0.000000292643 -0.334578931332 -0.942367792130
vn 0.000000303526 -0.334578871727 -0.942367732525
vn 0.000000010176 -0.707106590271 -0.707106947899
vn -0.000000084294 -0.707106888294 -0.707106590271
vn -0.000000318332 -0.944593250751 -0.328243017197
vn -0.000000318332 -0.944593429565 -0.328242957592
vn 0.000000639037 0.640843927860 -0.767671108246
vn 0.000000546535 0.640843927860 -0.767671287060
vn 0.000000613188 0.640843927860 -0.767671287060
vn 0.000000705690 0.640843987465 -0.767671108246
vn -0.000000701654 0.316230326891 0.948682487011
vn -0.000000409015 0.316227793694 0.948683261871
vn -0.000000163148 0.948682725430 0.316229701042
vn -0.000000382628 0.948683321476 0.316227793694
vn -1.000000000000 0.000000422332 0.000000084002
vn -1.000000000000 0.000000542958 -0.000000032635
vn -1.000000000000 0.000000445846 0.000000075180
vn -1.000000000000 0.000000459629 0.000000471895
vn -1.000000000000 0.000000467752 0.000000046979
vn -1.000000000000 0.000000370211 -0.000000250997
vn -1.000000000000 0.000000433110 0.000000061911
vn -1.000000000000 0.000000659293 0.000000253587
vn -0.999999940395 0.000000180757 0.000000111410
vn -1.000000000000 -0.000000043711 0.000000162921
vn -1.000000000000 0.000000328308 0.000000083528
vn -1.000000000000 0.000000465097 -0.000000142365
vn -0.999999940395 0.000000496898 0.000000197298
vn -1.000000000000 0.000000895284 0.000001036960
vn 1.000000000000 -0.000000433049 -0.000000093736
vn 1.000000000000 -0.000000465096 0.000000142363
vn 0.999999940395 -0.000000438007 -0.000000105282
vn 1.000000000000 -0.000000647922 -0.000000073577
vn 1.000000000000 -0.000000401708 -0.000000162052
vn 1.000000000000 -0.000000659293 -0.000000253587
vn 1.000000000000 -0.000000461290 -0.000000107139
vn 1.000000000000 -0.000000370209 0.000000251002
vn 1.000000000000 -0.000000522550 -0.000000206294
vn 1.000000000000 -0.000000531535 -0.000000256185
vn 1.000000000000 -0.000000518396 -0.000000019916
vn 1.000000000000 -0.000000542955 0.000000032635
vn 1.000000000000 -0.000000484089 -0.000000076508
vn 1.000000000000 -0.000000582285 -0.000000411228
vn -0.000000490289 0.070889011025 -0.997484207153
vn -0.000000395732 0.070889279246 -0.997484207153
vn -0.000000470987 0.000000475481 -1.000000000000
vn -0.000000659626 0.000000000000 -1.000000000000
vn 0.000000167819 -0.160181552172 0.987087547779
vn 0.000000241936 -0.160182118416 0.987087428570
vn 0.000000177018 0.070889562368 0.997484207153
vn 0.000000382823 0.070888765156 0.997484147549
vn 0.000000023717 -1.000000000000 0.000000031487
vn -0.000000452993 -1.000000000000 0.000000782222
vn 0.000000072916 -0.987087428570 0.160182774067
vn 0.000000425565 -0.987087547779 0.160181403160
vn 0.000000178358 1.000000000000 -0.000102594924
vn 0.000000217660 1.000000000000 -0.000102370170
vn 0.000000273333 0.944626867771 0.328146457672
vn 0.000000246771 0.944626867771 0.328146338463
vn 0.000000259906 0.707106828690 0.707106769085
vn 0.000000449336 0.707106292248 0.707107245922
vn 0.000000480648 0.334578782320 0.942367851734
vn 0.000000502594 0.334578752518 0.942367851734
vn -0.000000319102 0.334578514099 -0.942367792130
vn -0.000000263003 0.334578752518 -0.942367792130
vn -0.000000027181 0.707106590271 -0.707106888294
vn -0.000000064969 0.707106411457 -0.707107126713
vn 0.000000045046 0.944593131542 -0.328243464231
vn 0.000000151933 0.944593310356 -0.328242957592
vn -0.000000730021 -0.640843927860 -0.767671167850
vn -0.000000637519 -0.640843868256 -0.767671227455
vn -0.000000704171 -0.640843927860 -0.767671167850
vn -0.000000796674 -0.640844047070 -0.767671167850
vn 0.000000179135 -0.316226452589 0.948683679104
vn 0.000000325455 -0.316227793694 0.948683321476
vn 0.000000344724 -0.948683142662 0.316228300333
vn 0.000000564204 -0.948683738708 0.316226363182
vn -0.000000163882 1.000000000000 -0.000000019136
vn -0.000000022824 0.965925812721 0.258819073439
vn -0.000000022824 0.965925872326 0.258819073439
vn -0.000000165549 1.000000000000 -0.000000076546
vn 0.000000119790 0.866025209427 0.500000178814
vn 0.000000119790 0.866025269032 0.500000119209
vn 0.000000221497 0.707106471062 0.707107007504
vn 0.000000254241 0.707106649876 0.707106828690
vn 0.000000279872 0.500000119209 0.866025388241
vn 0.000000315060 0.500000238419 0.866025269032
vn 0.000000400732 0.258819311857 0.965925753117
vn 0.000000353436 0.258819133043 0.965925812721
vn 0.000000471905 0.000000019136 1.000000000000
vn 0.000000473694 0.000000081330 1.000000000000
vn 0.000000472789 -0.258819073439 0.965925812721
vn 0.000000479577 -0.258819103241 0.965925812721
vn 0.000000487482 -0.500000000000 0.866025388241
vn 0.000000475486 -0.500000238419 0.866025388241
vn 0.000000416576 -0.707106649876 0.707106888294
vn 0.000000433775 -0.707106649876 0.707106947899
vn 0.000000393143 -0.866025090218 0.500000476837
vn 0.000000358055 -0.866025090218 0.500000357628
vn 0.000000305991 -0.965925693512 0.258819431067
vn 0.000000289780 -0.965925812721 0.258819282055
vn 0.000000162216 -1.000000000000 0.000000400670
vn 0.000000167215 -1.000000000000 0.000000397082
vn 0.000000019934 -0.965925872326 -0.258818656206
vn 0.000000016715 -0.965925931931 -0.258818745613
vn -0.000000104245 -0.866025686264 -0.499999523163
vn -0.000000124676 -0.866025567055 -0.499999612570
vn -0.000000219526 -0.707107245922 -0.707106292248
vn -0.000000227298 -0.707107067108 -0.707106411457
vn -0.000000308316 -0.500000536442 -0.866025090218
vn -0.000000326578 -0.500000476837 -0.866025090218
vn -0.000000375415 -0.258819580078 -0.965925693512
vn -0.000000377027 -0.258819580078 -0.965925633907
vn -0.000000462453 -0.000000393494 -1.000000000000
vn -0.000000438925 -0.000000416218 -1.000000000000
vn -0.000000483644 0.258818656206 -0.965925872326
vn -0.000000486982 0.258818686008 -0.965925931931
vn -0.000000475963 0.499999344349 -0.866025745869
vn -0.000000470633 0.499999314547 -0.866025865078
vn -0.000000459063 0.707106173038 -0.707107365131
vn -0.000000435746 0.707106053829 -0.707107543945
vn -0.000000408528 0.866025090218 -0.500000596046
vn -0.000000388098 0.866025090218 -0.500000655651
vn -0.000000299882 0.965925693512 -0.258819520473
vn -0.000000296662 0.965925633907 -0.258819609880
vn -0.999999940395 -0.000000043711 0.000000162921
vn 1.000000000000 -0.000002681724 -0.000001500591
vn 1.000000000000 -0.000005797048 -0.000004644698
vn 1.000000000000 -0.000000356532 -0.000000731076
vn 1.000000000000 -0.000002325910 -0.000010862873
vn 1.000000000000 0.000000162103 -0.000001493102
vn 1.000000000000 0.000000043711 -0.000000162921
vn 1.000000000000 0.000000579268 -0.000000419764
vn 0.999999940395 0.000010366260 -0.000010485473
vn 1.000000000000 0.000000061085 -0.000000036244
vn 1.000000000000 0.000003693273 -0.000000643396
vn 1.000000000000 -0.000000237293 -0.000000085148
vn 1.000000000000 -0.000003357135 -0.000001571597
vn 0.999999940395 -0.000002447125 -0.000001265988
vn 1.000000000000 -0.000000635779 0.000000516575
vn 1.000000000000 -0.000000197297 -0.000000627015
vn 1.000000000000 -0.000002325920 -0.000010862893
vn 1.000000000000 0.000000162103 -0.000001493103
vn 1.000000000000 0.000000654633 -0.000000550303
vn 1.000000000000 0.000010366212 -0.000010485442
vn 1.000000000000 -0.000000259385 0.000000049623
vn 1.000000000000 -0.000003357124 0.000001245754
vn 1.000000000000 -0.000000407029 0.000000000723
vn 0.999999940395 -0.000003357145 -0.000001571601
vn -1.000000000000 0.000000007732 0.000000097558
vn -1.000000000000 0.000000012684 0.000000104713
vn -1.000000000000 0.000000009579 0.000000100227
vn -1.000000000000 0.000000004627 0.000000093071
vn 1.000000000000 -0.000000008321 -0.000000238107
vn 1.000000000000 -0.000000020740 -0.000000256053
vn 1.000000000000 -0.000000000934 -0.000000227433
vn 1.000000000000 0.000000011486 -0.000000209487
vn -0.000000162921 -0.000000000000 -1.000000000000
vn 0.000000162921 0.000000000000 1.000000000000
vn -0.000000043711 0.999999940395 0.000000000000
vn 0.000000279336 0.000000000000 1.000000000000
vn -0.000000042167 1.000000000000 -0.000000124387
vn -0.000000000055 0.965925812721 0.258819043636
vn -0.000000001600 0.965925753117 0.258819103241
vn -0.000000044741 1.000000000000 -0.000000076546
vn 0.000000034000 0.866025209427 0.500000238419
vn 0.000000043605 0.866025328636 0.500000119209
vn 0.000000065322 0.707106530666 0.707106947899
vn 0.000000070125 0.707106649876 0.707106828690
vn 0.000000095507 0.500000119209 0.866025328636
vn 0.000000093723 0.500000119209 0.866025388241
vn 0.000000113631 0.258819192648 0.965925872326
vn 0.000000116599 0.258819162846 0.965925812721
vn 0.000000129350 0.000000176115 1.000000000000
vn 0.000000129248 0.000000157876 1.000000000000
vn 0.000000133187 -0.258818894625 0.965925872326
vn 0.000000136155 -0.258818924427 0.965925872326
vn 0.000000130229 -0.499999940395 0.866025388241
vn 0.000000128446 -0.500000119209 0.866025388241
vn 0.000000131942 -0.707106530666 0.707106947899
vn 0.000000117534 -0.707106590271 0.707106888294
vn 0.000000116296 -0.866025149822 0.500000417233
vn 0.000000109710 -0.866025209427 0.500000357628
vn 0.000000080038 -0.965925633907 0.258819401264
vn 0.000000083057 -0.965925812721 0.258819431067
vn 0.000000043197 -1.000000000000 0.000000474824
vn 0.000000043711 -1.000000000000 0.000000507116
vn 0.000000003740 -0.965925931931 -0.258818745613
vn 0.000000002745 -0.965925872326 -0.258818775415
vn -0.000000030397 -0.866025686264 -0.499999552965
vn -0.000000036709 -0.866025626659 -0.499999642372
vn -0.000000065322 -0.707107305527 -0.707106232643
vn -0.000000065322 -0.707107305527 -0.707106292248
vn -0.000000095507 -0.500000476837 -0.866025209427
vn -0.000000093723 -0.500000536442 -0.866025149822
vn -0.000000113631 -0.258819490671 -0.965925633907
vn -0.000000116599 -0.258819520473 -0.965925693512
vn -0.000000129350 -0.000000456285 -1.000000000000
vn -0.000000129248 -0.000000444923 -1.000000000000
vn -0.000000133187 0.258818715811 -0.965925872326
vn -0.000000136155 0.258818686008 -0.965925872326
vn -0.000000130229 0.499999463558 -0.866025686264
vn -0.000000128446 0.499999374151 -0.866025686264
vn -0.000000127140 0.707106173038 -0.707107305527
vn -0.000000117534 0.707106173038 -0.707107365131
vn -0.000000112420 0.866025090218 -0.500000536442
vn -0.000000106107 0.866025090218 -0.500000596046
vn -0.000000081184 0.965925693512 -0.258819550276
vn -0.000000080704 0.965925693512 -0.258819580078
vn 1.000000000000 -0.000001083520 -0.000000813728
vn 1.000000000000 -0.000001838614 -0.000001607281
vn 0.999999940395 -0.000000191400 -0.000000489524
vn 1.000000000000 -0.000001173939 -0.000004707250
vn 1.000000000000 -0.000000011636 -0.000000369482
vn 0.999999940395 0.000000203687 -0.000000223835
vn 1.000000000000 0.000003370400 -0.000003489610
vn 1.000000000000 -0.000000096303 0.000000069940
vn 1.000000000000 0.000002396030 -0.000000472610
vn 1.000000000000 0.000000033566 -0.000000165530
vn 1.000000000000 -0.000002148296 -0.000001070880
vn 0.999999940395 -0.000000932307 -0.000000662515
vn 1.000000000000 0.000001488068 0.000001719399
vn 1.000000000000 0.000000008390 -0.000000254171
vn 1.000000000000 -0.000001173940 -0.000004707248
vn 1.000000000000 -0.000000011637 -0.000000369481
vn 0.999999940395 0.000000155109 -0.000000139696
vn 1.000000000000 0.000003370383 -0.000003489598
vn 0.999999940395 -0.000000302862 0.000000125287
vn 1.000000000000 -0.000002148290 0.000000745038
vn 1.000000000000 -0.000000270150 -0.000000110183
vn 1.000000000000 -0.000002148302 -0.000001070882
# 349 vertex normals

vt 0.750000000000 0.000000000000 0.000000000000
vt 0.750000000000 1.000000000000 0.000000000000
vt 0.500000000000 1.000000000000 0.000000000000
vt 0.500000000000 0.000000000000 0.000000000000
vt 1.187272310257 0.000008330139 0.000000000000
vt 0.843636155128 1.000004172325 0.000000000000
vt 0.250000000000 1.000000000000 0.000000000000
vt 0.750000000000 0.500000000000 0.000000000000
vt 1.000000000000 0.500000000000 0.000000000000
vt 0.250000000000 0.000000000000 0.000000000000
vt 1.000000000000 0.000000000000 0.000000000000
vt 0.625000000000 1.000000000000 0.000000000000
vt 0.000000000000 1.000000000000 0.000000000000
vt 0.500000000000 0.500000000000 0.000000000000
vt 0.500000000000 1.187272429466 0.000000000000
vt 0.000000043603 1.187272429466 0.000000000000
vt 0.000000000000 0.500000000000 0.000000000000
vt 0.999999940395 1.187272310257 0.000000000000
vt 0.499999940395 1.187272310257 0.000000000000
vt 0.499999970198 1.093636155128 0.000000000000
vt 1.000000000000 0.843636155128 0.000000000000
vt 0.750000000000 0.750000000000 0.000000000000
vt 1.000000000000 0.750000000000 0.000000000000
vt 0.000000000000 0.375000000000 0.000000000000
vt 0.000000000000 0.000000000000 0.000000000000
vt 0.375000000000 0.000000000000 0.000000000000
vt 0.375000000000 0.500000000000 0.000000000000
vt 0.500000000000 1.999993681908 0.000000000000
vt 0.000000000000 1.999992847443 0.000000000000
vt 0.499999940395 1.187271118164 0.000000000000
vt 0.999999940395 1.187267780304 0.000000000000
vt -0.000000062143 0.000000000000 0.000000000000
vt 0.000000000000 0.000000387430 0.000000000000
vt 0.250000000000 0.750000000000 0.000000000000
vt 0.000000000000 0.750000000000 0.000000000000
vt 0.375000000000 1.000000000000 0.000000000000
vt 0.250000000000 0.500000000000 0.000000000000
vt 1.000000000000 0.911517620087 0.000000000000
vt 1.000000000000 1.000000000000 0.000000000000
vt 0.914667010307 1.000000000000 0.000000000000
vt 0.375000149012 1.000000000000 0.000000000000
vt 0.187500074506 1.000000000000 0.000000000000
vt 0.000000000000 0.763158082962 0.000000000000
vt 0.000000000000 0.504000008106 0.000000000000
vt 0.000000000000 0.240841969848 0.000000000000
vt 0.190666764975 0.000000000000 0.000000000000
vt 0.381333529949 0.000000000000 0.000000000000
vt 0.618666410446 0.000000000000 0.000000000000
vt 0.809333205223 0.000000000000 0.000000000000
vt 1.000000000000 0.240841969848 0.000000000000
vt 1.000000000000 0.504000008106 0.000000000000
vt 1.000000000000 0.763158082962 0.000000000000
vt 0.812499880791 1.000000000000 0.000000000000
vt 0.624999761581 1.000000000000 0.000000000000
vt 0.085333041847 1.000000000000 0.000000000000
vt 0.000000000000 0.911517620087 0.000000000000
vt 0.618666470051 0.000000000000 0.000000000000
vt 0.618666410446 1.000000000000 0.000000000000
vt 0.914667010307 0.000000000000 0.000000000000
vt 0.914666950703 1.000000000000 0.000000000000
vt 0.375000268221 1.000000000000 0.000000000000
vt 0.375000149012 0.000000000000 0.000000000000
vt 0.088482350111 1.000000000000 0.000000000000
vt 0.088482350111 0.000000000000 0.000000000000
vt 0.504000008106 1.000000000000 0.000000000000
vt 0.504000008106 0.000000000000 0.000000000000
vt 0.763158082962 0.000000000000 0.000000000000
vt 0.763158082962 1.000000000000 0.000000000000
vt 0.187500134110 1.000000000000 0.000000000000
vt 0.187500074506 0.000000000000 0.000000000000
vt 0.809333205223 1.000000000000 0.000000000000
vt 0.240841969848 1.000000000000 0.000000000000
vt 0.240841969848 0.000000000000 0.000000000000
vt 0.791666626930 0.000000000000 0.000000000000
vt 0.791666626930 1.000000000000 0.000000000000
vt 0.833333313465 0.000000000000 0.000000000000
vt 0.833333313465 1.000000000000 0.000000000000
vt 0.875000000000 0.000000000000 0.000000000000
vt 0.875000000000 1.000000000000 0.000000000000
vt 0.916666686535 0.000000000000 0.000000000000
vt 0.916666686535 1.000000000000 0.000000000000
vt 0.958333313465 0.000000000000 0.000000000000
vt 0.958333313465 1.000000000000 0.000000000000
vt 0.999999940395 0.000000000000 0.000000000000
vt 0.999999940395 1.000000000000 0.000000000000
vt -0.000000059605 0.000000000000 0.000000000000
vt 0.041666656733 0.000000000000 0.000000000000
vt 0.041666656733 1.000000000000 0.000000000000
vt -0.000000059605 1.000000000000 0.000000000000
vt 0.083333313465 0.000000000000 0.000000000000
vt 0.083333313465 1.000000000000 0.000000000000
vt 0.124999970198 0.000000000000 0.000000000000
vt 0.124999970198 1.000000000000 0.000000000000
vt 0.166666626930 0.000000000000 0.000000000000
vt 0.166666626930 1.000000000000 0.000000000000
vt 0.208333283663 0.000000000000 0.000000000000
vt 0.208333283663 1.000000000000 0.000000000000
vt 0.249999940395 0.000000000000 0.000000000000
vt 0.249999940395 1.000000000000 0.000000000000
vt 0.291666597128 0.000000000000 0.000000000000
vt 0.291666597128 1.000000000000 0.000000000000
vt 0.333333253860 0.000000000000 0.000000000000
vt 0.333333253860 1.000000000000 0.000000000000
vt 0.374999910593 0.000000000000 0.000000000000
vt 0.374999910593 1.000000000000 0.000000000000
vt 0.416666597128 0.000000000000 0.000000000000
vt 0.416666597128 1.000000000000 0.000000000000
vt 0.458333253860 0.000000000000 0.000000000000
vt 0.458333253860 1.000000000000 0.000000000000
vt 0.499999910593 0.000000000000 0.000000000000
vt 0.499999910593 1.000000000000 0.000000000000
vt 0.541666567326 0.000000000000 0.000000000000
vt 0.541666567326 1.000000000000 0.000000000000
vt 0.583333253860 0.000000000000 0.000000000000
vt 0.583333253860 1.000000000000 0.000000000000
vt 0.624999880791 0.000000000000 0.000000000000
vt 0.624999880791 1.000000000000 0.000000000000
vt 0.666666567326 0.000000000000 0.000000000000
vt 0.666666567326 1.000000000000 0.000000000000
vt 0.708333253860 0.000000000000 0.000000000000
vt 0.708333253860 1.000000000000 0.000000000000
# 121 texture coords

usemtl 08___Default
s off
f 1/1/1 2/2/2 3/3/3
f 3/3/3 4/4/4 1/1/1
f 5/5/5 6/6/5 7/3/5
f 7/3/5 8/4/5 5/5/5
f 3/3/6 2/7/7 9/8/8
f 9/8/8 7/9/9 3/3/6
f 10/10/10 11/11/11 12/12/12
f 12/12/12 13/7/13 10/10/10
f 3/3/14 14/3/15 15/4/16
f 15/4/16 4/4/13 3/3/14
f 16/3/17 9/3/18 17/3/19
f 17/3/19 18/4/20 16/3/17
f 9/3/21 16/3/22 8/13/23
f 8/13/23 7/11/23 9/3/21
f 2/4/24 1/9/25 19/7/26
f 19/7/26 20/10/27 2/4/24
f 20/10/28 19/7/28 10/14/29
f 10/14/29 13/3/28 20/10/28
f 4/3/30 15/15/31 5/16/32
f 5/16/32 8/17/33 4/3/30
f 21/18/34 22/19/35 23/20/36
f 23/20/36 24/21/37 21/18/34
f 19/22/38 18/10/39 11/11/40
f 11/11/40 10/23/41 19/22/38
f 25/24/42 26/25/43 27/26/44
f 27/26/44 28/27/45 25/24/42
f 5/25/46 15/4/47 22/28/47
f 22/28/47 21/29/48 5/25/46
f 14/20/15 23/20/49 22/19/50
f 22/19/50 15/30/16 14/20/15
f 14/20/51 6/21/52 24/21/51
f 24/21/51 23/20/52 14/20/51
f 6/21/5 5/31/5 21/18/5
f 21/18/5 24/21/5 6/21/5
f 29/26/53 27/26/54 26/25/55
f 26/25/55 11/32/56 29/26/53
f 29/26/57 30/27/57 28/27/57
f 28/27/57 27/26/57 29/26/57
f 30/27/58 12/24/58 25/24/58
f 25/24/58 28/27/58 30/27/58
f 12/24/12 11/33/11 26/25/59
f 26/25/59 25/24/13 12/24/12
f 6/21/60 14/20/61 3/3/6
f 3/3/6 7/9/9 6/21/60
f 20/34/62 13/35/63 12/24/64
f 12/24/64 30/27/65 20/34/62
f 18/1/66 17/2/67 29/36/53
f 29/36/53 11/25/56 18/1/66
f 19/22/38 1/2/68 16/37/69
f 16/37/69 18/10/39 19/22/38
f 4/3/30 8/17/33 16/37/69
f 16/37/69 1/2/68 4/3/30
f 2/7/7 20/34/62 30/27/65
f 30/27/65 29/26/70 17/1/71
f 30/27/65 17/1/71 9/8/8
f 2/7/7 30/27/65 9/8/8
f 31/9/72 32/38/73 33/39/74
f 33/39/74 34/40/75 35/41/76
f 35/41/76 36/42/77 37/13/78
f 33/39/74 35/41/76 37/13/78
f 37/13/78 38/43/79 39/44/80
f 39/44/80 40/45/81 41/25/82
f 37/13/78 39/44/80 41/25/82
f 41/25/82 42/46/83 43/47/84
f 37/13/78 41/25/82 43/47/84
f 33/39/74 37/13/78 43/47/84
f 31/9/72 33/39/74 43/47/84
f 44/11/85 31/9/72 43/47/84
f 45/48/86 46/49/87 47/11/88
f 47/11/88 48/50/89 49/51/90
f 49/51/90 50/52/91 51/39/92
f 47/11/88 49/51/90 51/39/92
f 51/39/92 52/53/93 53/54/94
f 53/54/94 54/55/95 55/13/96
f 51/39/92 53/54/94 55/13/96
f 55/13/96 56/56/97 57/17/98
f 51/39/92 55/13/96 57/17/98
f 47/11/88 51/39/92 57/17/98
f 45/48/86 47/11/88 57/17/98
f 58/25/99 45/48/86 57/17/98
f 43/57/100 45/58/101 58/13/102
f 58/13/102 44/25/103 43/57/100
f 34/59/104 54/60/105 53/61/106
f 53/61/106 35/62/107 34/59/104
f 31/4/108 57/3/109 56/63/110
f 56/63/110 32/64/111 31/4/108
f 49/65/112 39/66/113 38/67/114
f 38/67/114 50/68/115 49/65/112
f 50/68/115 38/67/114 37/11/116
f 37/11/116 51/39/117 50/68/115
f 35/62/107 53/61/106 52/69/118
f 52/69/118 36/70/119 35/62/107
f 36/70/119 52/69/118 51/13/117
f 51/13/117 37/25/116 36/70/119
f 45/58/101 43/57/100 42/49/120
f 42/49/120 46/71/121 45/58/101
f 46/71/121 42/49/120 41/11/122
f 41/11/122 47/39/123 46/71/121
f 39/66/113 49/65/112 48/72/124
f 48/72/124 40/73/125 39/66/113
f 40/73/125 48/72/124 47/13/123
f 47/13/123 41/25/122 40/73/125
f 44/11/126 58/39/127 57/3/128
f 57/3/128 31/4/129 44/11/126
f 54/60/105 34/59/104 33/11/130
f 33/11/130 55/39/131 54/60/105
f 32/64/111 56/63/110 55/13/132
f 55/13/132 33/25/133 32/64/111
f 59/9/134 60/38/135 61/39/136
f 61/39/136 62/40/137 63/41/138
f 63/41/138 64/42/139 65/13/140
f 61/39/136 63/41/138 65/13/140
f 65/13/140 66/43/141 67/44/142
f 67/44/142 68/45/143 69/25/144
f 65/13/140 67/44/142 69/25/144
f 69/25/144 70/46/145 71/47/146
f 65/13/140 69/25/144 71/47/146
f 61/39/136 65/13/140 71/47/146
f 59/9/134 61/39/136 71/47/146
f 72/11/147 59/9/134 71/47/146
f 73/48/148 74/49/149 75/11/150
f 75/11/150 76/50/151 77/51/152
f 77/51/152 78/52/153 79/39/154
f 75/11/150 77/51/152 79/39/154
f 79/39/154 80/53/155 81/54/156
f 81/54/156 82/55/157 83/13/158
f 79/39/154 81/54/156 83/13/158
f 83/13/158 84/56/159 85/17/160
f 79/39/154 83/13/158 85/17/160
f 75/11/150 79/39/154 85/17/160
f 73/48/148 75/11/150 85/17/160
f 86/25/161 73/48/148 85/17/160
f 71/57/162 73/58/163 86/13/164
f 86/13/164 72/25/165 71/57/162
f 62/59/166 82/60/167 81/61/168
f 81/61/168 63/62/169 62/59/166
f 59/4/170 85/3/171 84/63/172
f 84/63/172 60/64/173 59/4/170
f 77/65/174 67/66/175 66/67/176
f 66/67/176 78/68/177 77/65/174
f 78/68/177 66/67/176 65/11/178
f 65/11/178 79/39/179 78/68/177
f 63/62/169 81/61/168 80/69/180
f 80/69/180 64/70/181 63/62/169
f 64/70/181 80/69/180 79/13/179
f 79/13/179 65/25/178 64/70/181
f 73/58/163 71/57/162 70/49/182
f 70/49/182 74/71/183 73/58/163
f 74/71/183 70/49/182 69/11/184
f 69/11/184 75/39/185 74/71/183
f 67/66/175 77/65/174 76/72/186
f 76/72/186 68/73/187 67/66/175
f 68/73/187 76/72/186 75/13/185
f 75/13/185 69/25/184 68/73/187
f 72/11/188 86/39/189 85/3/190
f 85/3/190 59/4/191 72/11/188
f 82/60/167 62/59/166 61/11/192
f 61/11/192 83/39/193 82/60/167
f 60/64/173 84/63/172 83/13/194
f 83/13/194 61/25/195 60/64/173
f 87/1/196 88/74/197 89/75/198
f 89/75/198 90/2/199 87/1/196
f 88/74/197 91/76/200 92/77/201
f 92/77/201 89/75/198 88/74/197
f 91/76/200 93/78/202 94/79/203
f 94/79/203 92/77/201 91/76/200
f 93/78/202 95/80/204 96/81/205
f 96/81/205 94/79/203 93/78/202
f 95/80/204 97/82/206 98/83/207
f 98/83/207 96/81/205 95/80/204
f 97/82/206 99/84/208 100/85/209
f 100/85/209 98/83/207 97/82/206
f 99/86/208 101/87/210 102/88/211
f 102/88/211 100/89/209 99/86/208
f 101/87/210 103/90/212 104/91/213
f 104/91/213 102/88/211 101/87/210
f 103/90/212 105/92/214 106/93/215
f 106/93/215 104/91/213 103/90/212
f 105/92/214 107/94/216 108/95/217
f 108/95/217 106/93/215 105/92/214
f 107/94/216 109/96/218 110/97/219
f 110/97/219 108/95/217 107/94/216
f 109/96/218 111/98/220 112/99/221
f 112/99/221 110/97/219 109/96/218
f 111/98/220 113/100/222 114/101/223
f 114/101/223 112/99/221 111/98/220
f 113/100/222 115/102/224 116/103/225
f 116/103/225 114/101/223 113/100/222
f 115/102/224 117/104/226 118/105/227
f 118/105/227 116/103/225 115/102/224
f 117/104/226 119/106/228 120/107/229
f 120/107/229 118/105/227 117/104/226
f 119/106/228 121/108/230 122/109/231
f 122/109/231 120/107/229 119/106/228
f 121/108/230 123/110/232 124/111/233
f 124/111/233 122/109/231 121/108/230
f 123/110/232 125/112/234 126/113/235
f 126/113/235 124/111/233 123/110/232
f 125/112/234 127/114/236 128/115/237
f 128/115/237 126/113/235 125/112/234
f 127/114/236 129/116/238 130/117/239
f 130/117/239 128/115/237 127/114/236
f 129/116/238 131/118/240 132/119/241
f 132/119/241 130/117/239 129/116/238
f 131/118/240 133/120/242 134/121/243
f 134/121/243 132/119/241 131/118/240
f 133/120/242 87/1/196 90/2/199
f 90/2/199 134/121/243 133/120/242
f 133/120/143 131/118/143 129/116/143
f 129/116/143 127/114/244 125/112/143
f 125/112/143 123/110/143 121/108/143
f 129/116/143 125/112/143 121/108/143
f 121/108/143 119/106/143 117/104/143
f 117/104/143 115/102/143 113/100/244
f 121/108/143 117/104/143 113/100/244
f 113/100/244 111/98/143 109/96/143
f 109/96/143 107/94/143 105/92/143
f 113/100/244 109/96/143 105/92/143
f 121/108/143 113/100/244 105/92/143
f 105/92/143 103/90/143 101/87/244
f 101/87/244 99/86/143 97/82/143
f 105/92/143 101/87/244 97/82/143
f 97/82/143 95/80/244 93/78/143
f 93/78/143 91/76/143 88/74/143
f 97/82/143 93/78/143 88/74/143
f 105/92/143 97/82/143 88/74/143
f 121/108/143 105/92/143 88/74/143
f 129/116/143 121/108/143 88/74/143
f 133/120/143 129/116/143 88/74/143
f 87/1/143 133/120/143 88/74/143
f 92/77/245 94/79/246 96/81/247
f 96/81/247 98/83/248 100/85/249
f 100/85/249 102/88/250 104/91/251
f 96/81/247 100/85/249 104/91/251
f 104/91/251 106/93/252 108/95/253
f 108/95/253 110/97/254 112/99/255
f 104/91/251 108/95/253 112/99/255
f 112/99/255 114/101/256 116/103/257
f 116/103/257 118/105/258 120/107/259
f 112/99/255 116/103/257 120/107/259
f 104/91/251 112/99/255 120/107/259
f 120/107/259 122/109/260 124/111/261
f 124/111/261 126/113/250 128/115/262
f 120/107/259 124/111/261 128/115/262
f 128/115/262 130/117/263 132/119/264
f 132/119/264 134/121/265 90/2/266
f 128/115/262 132/119/264 90/2/266
f 120/107/259 128/115/262 90/2/266
f 104/91/251 120/107/259 90/2/266
f 96/81/247 104/91/251 90/2/266
f 92/77/245 96/81/247 90/2/266
f 89/75/267 92/77/245 90/2/266
f 135/11/268 136/39/269 137/13/270
f 137/13/270 138/25/271 135/11/268
f 139/25/272 140/11/273 141/39/274
f 141/39/274 142/13/275 139/25/272
f 135/25/13 138/11/13 140/39/14
f 140/39/14 139/13/13 135/25/13
f 138/25/276 137/11/276 141/39/276
f 141/39/276 140/13/276 138/25/276
f 137/25/5 136/11/5 142/39/5
f 142/39/5 141/13/5 137/25/5
f 136/25/277 135/11/277 139/39/277
f 139/39/277 142/13/277 136/25/277
f 143/11/268 144/39/269 145/13/270
f 145/13/270 146/25/271 143/11/268
f 147/25/272 148/11/273 149/39/274
f 149/39/274 150/13/275 147/25/272
f 143/25/13 146/11/13 148/39/14
f 148/39/14 147/13/13 143/25/13
f 146/25/276 145/11/276 149/39/276
f 149/39/276 148/13/276 146/25/276
f 145/25/5 144/11/5 150/39/278
f 150/39/278 149/13/5 145/25/5
f 144/25/279 143/11/279 147/39/279
f 147/39/279 150/13/279 144/25/279
f 151/1/280 152/74/281 153/75/282
f 153/75/282 154/2/283 151/1/280
f 152/74/281 155/76/284 156/77/285
f 156/77/285 153/75/282 152/74/281
f 155/76/284 157/78/286 158/79/287
f 158/79/287 156/77/285 155/76/284
f 157/78/286 159/80/288 160/81/289
f 160/81/289 158/79/287 157/78/286
f 159/80/288 161/82/290 162/83/291
f 162/83/291 160/81/289 159/80/288
f 161/82/290 163/84/292 164/85/293
f 164/85/293 162/83/291 161/82/290
f 163/86/292 165/87/294 166/88/295
f 166/88/295 164/89/293 163/86/292
f 165/87/294 167/90/296 168/91/297
f 168/91/297 166/88/295 165/87/294
f 167/90/296 169/92/298 170/93/299
f 170/93/299 168/91/297 167/90/296
f 169/92/298 171/94/300 172/95/301
f 172/95/301 170/93/299 169/92/298
f 171/94/300 173/96/302 174/97/303
f 174/97/303 172/95/301 171/94/300
f 173/96/302 175/98/304 176/99/305
f 176/99/305 174/97/303 173/96/302
f 175/98/304 177/100/306 178/101/307
f 178/101/307 176/99/305 175/98/304
f 177/100/306 179/102/308 180/103/309
f 180/103/309 178/101/307 177/100/306
f 179/102/308 181/104/310 182/105/311
f 182/105/311 180/103/309 179/102/308
f 181/104/310 183/106/312 184/107/313
f 184/107/313 182/105/311 181/104/310
f 183/106/312 185/108/314 186/109/315
f 186/109/315 184/107/313 183/106/312
f 185/108/314 187/110/316 188/111/317
f 188/111/317 186/109/315 185/108/314
f 187/110/316 189/112/318 190/113/319
f 190/113/319 188/111/317 187/110/316
f 189/112/318 191/114/320 192/115/321
f 192/115/321 190/113/319 189/112/318
f 191/114/320 193/116/322 194/117/323
f 194/117/323 192/115/321 191/114/320
f 193/116/322 195/118/324 196/119/325
f 196/119/325 194/117/323 193/116/322
f 195/118/324 197/120/326 198/121/327
f 198/121/327 196/119/325 195/118/324
f 197/120/326 151/1/280 154/2/283
f 154/2/283 198/121/327 197/120/326
f 197/120/143 195/118/143 193/116/143
f 193/116/143 191/114/143 189/112/143
f 189/112/143 187/110/143 185/108/244
f 193/116/143 189/112/143 185/108/244
f 185/108/244 183/106/143 181/104/143
f 181/104/143 179/102/244 177/100/143
f 185/108/244 181/104/143 177/100/143
f 177/100/143 175/98/143 173/96/143
f 173/96/143 171/94/143 169/92/143
f 177/100/143 173/96/143 169/92/143
f 185/108/244 177/100/143 169/92/143
f 169/92/143 167/90/143 165/87/143
f 165/87/143 163/86/143 161/82/244
f 169/92/143 165/87/143 161/82/244
f 161/82/244 159/80/143 157/78/244
f 157/78/244 155/76/143 152/74/143
f 161/82/244 157/78/244 152/74/143
f 169/92/143 161/82/244 152/74/143
f 185/108/244 169/92/143 152/74/143
f 193/116/143 185/108/244 152/74/143
f 197/120/143 193/116/143 152/74/143
f 151/1/143 197/120/143 152/74/143
f 156/77/328 158/79/329 160/81/330
f 160/81/330 162/83/331 164/85/332
f 164/85/332 166/88/250 168/91/333
f 160/81/330 164/85/332 168/91/333
f 168/91/333 170/93/334 172/95/335
f 172/95/335 174/97/336 176/99/337
f 168/91/333 172/95/335 176/99/337
f 176/99/337 178/101/338 180/103/339
f 180/103/339 182/105/340 184/107/341
f 176/99/337 180/103/339 184/107/341
f 168/91/333 176/99/337 184/107/341
f 184/107/341 186/109/342 188/111/343
f 188/111/343 190/113/250 192/115/344
f 184/107/341 188/111/343 192/115/344
f 192/115/344 194/117/345 196/119/346
f 196/119/346 198/121/347 154/2/348
f 192/115/344 196/119/346 154/2/348
f 184/107/341 192/115/344 154/2/348
f 168/91/333 184/107/341 154/2/348
f 160/81/330 168/91/333 154/2/348
f 156/77/328 160/81/330 154/2/348
f 153/75/349 156/77/328 154/2/348
# 368 faces
