o arm_l_link4
# 3ds Max Wavefront OBJ Exporter v0.99 - (c)2007 guruware
# File Created: 28.05.2026 15:37:43

mtllib arm_l_link4.mtl

#
# object Cylinder003
#

v  0.000000001048 0.026750002056 -0.015579269268
v  -0.004032210447 0.026750002056 -0.015048421919
v  -0.004032210447 0.031749997288 -0.015048419125
v  0.000000001048 0.031749997288 -0.015579266474
v  -0.007789631374 0.026750002056 -0.013492047787
v  -0.007789631374 0.031749997288 -0.013492046855
v  -0.011016205885 0.026750002056 -0.011016213335
v  -0.011016204953 0.031749997288 -0.011016211472
v  -0.013492041267 0.026750002056 -0.007789639756
v  -0.013492040336 0.031750001013 -0.007789640222
v  -0.015048417263 0.026750002056 -0.004032219294
v  -0.015048419125 0.031750001013 -0.004032220226
v  -0.015579269268 0.026750002056 -0.000000009516
v  -0.015579269268 0.031750001013 -0.000000009809
v  -0.015048420988 0.026750002056 0.004032202996
v  -0.015048421919 0.031750001013 0.004032202065
v  -0.013492048718 0.026750002056 0.007789626718
v  -0.013492046855 0.031750001013 0.007789626252
v  -0.011016213335 0.026750002056 0.011016199365
v  -0.011016212404 0.031750001013 0.011016200297
v  -0.007789639290 0.026750002056 0.013492038473
v  -0.007789638825 0.031750001013 0.013492039405
v  -0.004032217897 0.026750002056 0.015048417263
v  -0.004032217897 0.031750001013 0.015048420057
v  -0.000000007392 0.026750002056 0.015579268336
v  -0.000000007421 0.031750001013 0.015579271130
v  0.033529132605 0.031749997288 -0.015579266474
v  0.033529132605 0.026750002056 -0.015579269268
v  0.038750004023 0.026750002056 0.015579268336
v  0.038750004023 0.031750001013 0.015579271130
v  0.038750004023 0.026750002056 -0.006495436188
v  0.038750004023 0.031750001013 -0.006495432463
v  0.029499996454 -0.022500000894 -0.014750067145
v  0.029499996454 0.022500000894 -0.014750069007
v  0.029499992728 0.022500000894 -0.017500003800
v  0.029499992728 -0.022500000894 -0.017500001937
v  0.034000001848 0.022500002757 -0.017500003800
v  0.033999998122 0.022500002757 -0.014750072733
v  0.034000005573 -0.022500000894 -0.014750070870
v  0.034000005573 -0.022499997169 -0.017500001937
v  0.029499992728 0.030749998987 -0.014750069007
v  0.033999998122 0.030749998987 -0.014750072733
v  0.033999998122 0.030749998987 -0.017500003800
v  0.029499992728 0.030749998987 -0.017500003800
v  0.029500003904 0.022499999031 0.052999999374
v  0.029500007629 -0.022499997169 0.053000003099
v  0.038750007749 -0.022499997169 0.053000003099
v  0.038750004023 0.022500000894 0.052999999374
v  0.029500003904 -0.022500000894 0.019514344633
v  0.038750004023 -0.022500000894 0.019485652447
v  0.029500000179 0.022499999031 0.017014345154
v  0.029500000179 0.022500000894 -0.006430729758
v  0.029500000179 -0.022500000894 -0.006430731621
v  0.038750000298 0.022500000894 0.016985654831
v  0.038750004023 -0.022500000894 -0.006488112267
v  0.038749996573 0.022500002757 -0.006488110404
v  0.029500000179 0.030749998987 0.017014345154
v  0.038749996573 0.030749998987 0.016985654831
v  0.038749992847 0.030750000849 -0.006488112733
v  0.029499996454 0.030750000849 -0.006430730224
v  0.029500000179 -0.030249997973 -0.006430731155
v  0.029499996454 -0.030249997973 -0.014750067145
v  0.034000005573 -0.030249997973 -0.014750070870
v  0.038750004023 -0.030249997973 -0.006488113664
v  0.029499992728 -0.030249997973 -0.017500001937
v  0.034000005573 -0.030249997973 -0.017500001937
v  0.038750004023 -0.030249997973 0.019485650584
v  0.029500003904 -0.030249997973 0.019514342770
v  0.098932050169 0.000000000000 0.053000003099
v  0.098932050169 0.000000000000 0.045499991626
v  0.097874261439 0.008034742437 0.045499991626
v  0.097874261439 0.008034742437 0.053000003099
v  0.094772964716 0.015521929599 0.045499991626
v  0.094772964716 0.015521930531 0.053000003099
v  0.089839518070 0.021951325238 0.045499991626
v  0.089839518070 0.021951325238 0.053000003099
v  0.083410121500 0.026884771883 0.045499991626
v  0.083410121500 0.026884771883 0.053000003099
v  0.075922936201 0.029986066744 0.045499991626
v  0.075922936201 0.029986066744 0.053000003099
v  0.067888192832 0.031043859199 0.045499991626
v  0.067888192832 0.031043859199 0.053000003099
v  0.059853456914 0.029986070469 0.045499991626
v  0.059853456914 0.029986070469 0.053000003099
v  0.052366267890 0.026884775609 0.045499991626
v  0.052366267890 0.026884775609 0.053000003099
v  0.045936878771 0.021951328963 0.045499991626
v  0.045936878771 0.021951328963 0.053000003099
v  0.043672241271 0.019000001252 0.045499991626
v  0.043672241271 0.019000001252 0.053000003099
v  0.033000551164 0.015521941707 0.053000003099
v  0.033000551164 0.015521940775 0.045499991626
v  0.032998181880 0.008034754544 0.045499991626
v  0.032998181880 0.008034754544 0.053000003099
v  0.032997373492 0.000000013039 0.045499991626
v  0.032997373492 0.000000013039 0.053000003099
v  0.032998181880 -0.008034726605 0.045499991626
v  0.032998181880 -0.008034726605 0.053000003099
v  0.033000551164 -0.015521917492 0.045499991626
v  0.033000551164 -0.015521917492 0.053000003099
v  0.033002592623 -0.018999990076 0.045499991626
v  0.033002592623 -0.018999993801 0.053000003099
v  0.045936856419 -0.021951314062 0.053000006825
v  0.045936856419 -0.021951314062 0.045499995351
v  0.052366256714 -0.026884764433 0.045499995351
v  0.052366256714 -0.026884764433 0.053000006825
v  0.059853438288 -0.029986061156 0.045499995351
v  0.059853438288 -0.029986061156 0.053000006825
v  0.067888177931 -0.031043857336 0.045499995351
v  0.067888177931 -0.031043857336 0.053000006825
v  0.075922913849 -0.029986068606 0.045499995351
v  0.075922913849 -0.029986068606 0.053000006825
v  0.083410106599 -0.026884779334 0.045499995351
v  0.083410106599 -0.026884779334 0.053000006825
v  0.089839503169 -0.021951336414 0.045499995351
v  0.089839503169 -0.021951336414 0.053000006825
v  0.094772957265 -0.015521947294 0.045499991626
v  0.094772957265 -0.015521947294 0.053000003099
v  0.097874246538 -0.008034763858 0.045499991626
v  0.097874246538 -0.008034763858 0.053000003099
v  0.043672237545 -0.018999993801 0.045499991626
v  0.041003417224 -0.015521917492 0.045499991626
v  0.037902124226 -0.008034730330 0.045499991626
v  0.036844339222 0.000000011176 0.045499991626
v  0.037902131677 0.008034752682 0.045499991626
v  0.041003424674 0.015521938913 0.045499991626
v  0.094772957265 -0.015521947294 0.086500018835
v  0.097874246538 -0.008034765720 0.086500018835
v  0.098932050169 0.000000000000 0.086500018835
v  0.097874261439 0.008034742437 0.086500018835
v  0.094772964716 0.015521929599 0.086500018835
v  0.089839518070 0.021951325238 0.086500018835
v  0.083410121500 0.026884771883 0.086500018835
v  0.075922936201 0.029986066744 0.086500018835
v  0.067888192832 0.031043859199 0.086500018835
v  0.059853456914 0.029986070469 0.086500018835
v  0.052366267890 0.026884775609 0.086500018835
v  0.045936878771 0.021951328963 0.086500018835
v  0.041003424674 0.015521938913 0.086500018835
v  0.037902131677 0.008034752682 0.086500018835
v  0.036844339222 0.000000013039 0.086500018835
v  0.037902124226 -0.008034728467 0.086500018835
v  0.041003417224 -0.015521917492 0.086500018835
v  0.045936856419 -0.021951314062 0.086500018835
v  0.052366256714 -0.026884768158 0.086500018835
v  0.059853438288 -0.029986064881 0.086500018835
v  0.067888177931 -0.031043861061 0.086500018835
v  0.075922913849 -0.029986072332 0.086500018835
v  0.083410106599 -0.026884783059 0.086500018835
v  0.089839503169 -0.021951336414 0.086500018835
v  0.041003424674 0.015521939844 0.053000003099
v  0.037902131677 0.008034752682 0.053000003099
v  0.036844339222 0.000000011176 0.053000003099
v  0.037902124226 -0.008034730330 0.053000003099
v  0.041003417224 -0.015521917492 0.053000003099
v  0.043672237545 -0.018999997526 0.053000003099
v  0.033002592623 0.019000003114 0.053000003099
v  0.033002592623 0.019000003114 0.045499991626
v  -0.000015010301 -0.025249999017 -0.017538748682
v  -0.000015010359 -0.030249997973 -0.017538750544
v  -0.004554373212 -0.030249997973 -0.016941135749
v  -0.004554373212 -0.025249999017 -0.016941133887
v  -0.008784383535 -0.030249997973 -0.015189006925
v  -0.008784383535 -0.025249999017 -0.015189005993
v  -0.012416779995 -0.030249997973 -0.012401773594
v  -0.012416779995 -0.025249999017 -0.012401773594
v  -0.015204014257 -0.030249997973 -0.008769379929
v  -0.015204014257 -0.025249999017 -0.008769378997
v  -0.016956143081 -0.030249997973 -0.004539369140
v  -0.016956143081 -0.025249999017 -0.004539368674
v  -0.017553761601 -0.030249997973 -0.000000006640
v  -0.017553761601 -0.025249999017 -0.000000007005
v  -0.016956146806 -0.030249997973 0.004539355636
v  -0.016956146806 -0.025249999017 0.004539355636
v  -0.015204021707 -0.030249997973 0.008769368753
v  -0.015204021707 -0.025249999017 0.008769368753
v  -0.012416789308 -0.030249997973 0.012401764281
v  -0.012416789308 -0.025249999017 0.012401764281
v  -0.008784392849 -0.030249997973 0.015189001337
v  -0.008784392849 -0.025249999017 0.015189002268
v  -0.004554381594 -0.030249997973 0.016941132024
v  -0.004554381594 -0.025249999017 0.016941133887
v  -0.000015019788 -0.030249997973 0.017538750544
v  -0.000015019788 -0.025249999017 0.017538752407
v  0.017523739487 -0.025249999017 -0.000000000175
v  0.016926120967 -0.025249999017 -0.004539363086
v  0.016926120967 -0.020499996841 -0.004539363552
v  0.017523739487 -0.020499996841 -0.000000000540
v  0.015173993073 -0.025249999017 -0.008769375272
v  0.015173992142 -0.020499996841 -0.008769375272
v  0.012386759743 -0.025249999017 -0.012401769869
v  0.012386759743 -0.020499996841 -0.012401769869
v  0.008754363284 -0.025249999017 -0.015189005993
v  0.008754364215 -0.020499996841 -0.015189005062
v  0.004524352029 -0.025249999017 -0.016941130161
v  0.004524352960 -0.020499996841 -0.016941128299
v  -0.000015010242 -0.020499996841 -0.017538744956
v  -0.004554372281 -0.020499996841 -0.016941130161
v  -0.008784383535 -0.020499996841 -0.015189005993
v  -0.012416779064 -0.020499996841 -0.012401772663
v  -0.015204013325 -0.020499996841 -0.008769378997
v  -0.016956143081 -0.020499996841 -0.004539369140
v  -0.017553761601 -0.020499996841 -0.000000007370
v  -0.016956146806 -0.020499996841 0.004539355170
v  -0.015204020776 -0.020499996841 0.008769368753
v  -0.012416788377 -0.020499996841 0.012401765212
v  -0.008784391917 -0.020499996841 0.015189002268
v  -0.004554380663 -0.020499996841 0.016941137612
v  -0.000015019788 -0.020499996841 0.017538756132
v  0.004524341784 -0.025249999017 0.016941137612
v  0.004524342716 -0.020499996841 0.016941141337
v  0.008754355833 -0.025249999017 0.015189009719
v  0.008754355833 -0.020499996841 0.015189010650
v  0.012386752293 -0.025249999017 0.012401779182
v  0.012386752293 -0.020499996841 0.012401780114
v  0.015173988417 -0.025249999017 0.008769386448
v  0.015173988417 -0.020499996841 0.008769387379
v  0.016926117241 -0.025249999017 0.004539375193
v  0.016926117241 -0.020499996841 0.004539375193
v  0.028000000864 -0.030249997973 0.017538750544
v  0.028000000864 -0.025249999017 0.017538752407
v  0.029499992728 -0.025249999017 -0.017538748682
v  0.029499992728 -0.030249997973 -0.017538750544
v  0.029500007629 -0.030249997973 0.019514344633
v  0.029500007629 -0.025249999017 0.019514346495
# 225 vertices

vn -0.130525365472 0.000000514112 -0.991444945335
vn -0.258818477392 0.000000406388 -0.965925991535
vn -0.258818358183 0.000000507851 -0.965925931931
vn -0.130525365472 0.000000510676 -0.991444945335
vn -0.499999672174 0.000000197907 -0.866025507450
vn -0.499999672174 0.000000226651 -0.866025507450
vn -0.707106530666 0.000000299568 -0.707106947899
vn -0.707106649876 0.000000289766 -0.707106828690
vn -0.866025328636 -0.000000017880 -0.500000119209
vn -0.866025149822 0.000000204105 -0.500000417233
vn -0.965925753117 -0.000000287052 -0.258819311857
vn -0.965925753117 -0.000000237919 -0.258819341660
vn -1.000000000000 -0.000000049735 -0.000000523861
vn -1.000000000000 -0.000000108202 -0.000000454491
vn -0.965925931931 -0.000000007486 0.258818477392
vn -0.965925991535 -0.000000094765 0.258818596601
vn -0.866025745869 0.000000270023 0.499999523163
vn -0.866025686264 0.000000207462 0.499999582767
vn -0.707107007504 0.000000014746 0.707106530666
vn -0.707107007504 0.000000105361 0.707106471062
vn -0.500000655651 -0.000000180084 0.866025090218
vn -0.500000715256 -0.000000060726 0.866024971008
vn -0.258819550276 -0.000000487429 0.965925693512
vn -0.258819669485 -0.000000382283 0.965925693512
vn -0.130526319146 -0.000000511436 0.991444885731
vn -0.130526319146 -0.000000507570 0.991444826126
vn 0.000000000000 0.000000515083 -1.000000000000
vn 0.000000000000 0.000000515083 -0.999999940395
vn 0.000000000000 -0.000000515082 0.999999940395
vn 0.000000000000 -0.000000515082 1.000000000000
vn 1.000000000000 0.000000000000 0.000000000000
vn 0.867002427578 0.000000296132 -0.498303771019
vn 0.867002427578 0.000000395892 -0.498303771019
vn 0.867002427578 0.000000356427 -0.498303771019
vn 0.867002487183 0.000000256668 -0.498303800821
vn 0.000000000000 1.000000000000 -0.000000043711
vn -0.000000016812 1.000000000000 -0.000000029199
vn -0.000000021403 1.000000000000 -0.000000059394
vn 0.000000000000 0.999999940395 -0.000000043711
vn 0.000000000000 -0.999999940395 0.000000043711
vn 0.000000000000 -1.000000000000 0.000000043711
vn -0.000000013725 0.999999940395 -0.000000073889
vn 0.000000000000 1.000000000000 -0.000000248762
vn 0.000000000000 1.000000000000 0.000000040668
vn 0.000000042794 -1.000000000000 0.000000036541
vn 0.000000251790 -1.000000000000 0.000000001522
vn 0.000000026612 -1.000000000000 0.000000039252
vn -1.000000000000 -0.000000012036 0.000000729710
vn -1.000000000000 -0.000000128029 0.000000729710
vn -1.000000000000 -0.000000126966 0.000001094265
vn -1.000000000000 -0.000000013168 0.000001094265
vn 1.000000000000 0.000000203165 0.000000599090
vn 1.000000000000 0.000000090278 0.000000429754
vn -0.000000162921 -0.000000000000 -1.000000000000
vn -0.000000043711 1.000000000000 0.000000000000
vn 0.000000162921 0.000000000000 1.000000000000
vn 0.000000144438 -1.000000000000 0.000000027801
vn -1.000000000000 -0.000000014347 0.000000112018
vn -1.000000000000 -0.000000092995 0.000000111476
vn -1.000000000000 -0.000000129374 0.000000243594
vn -1.000000000000 -0.000000011186 0.000000244587
vn 1.000000000000 0.000000159936 -0.000000119579
vn 1.000000000000 0.000000103247 -0.000000102357
vn 1.000000000000 0.000000091062 -0.000000098813
vn 1.000000000000 0.000000175728 -0.000000124750
vn 0.000000043711 -1.000000000000 0.000000000000
vn 0.000000147191 -1.000000000000 -0.000000169336
vn 0.000000132453 -1.000000000000 -0.000000145217
vn 0.866934895515 0.000000147114 -0.498421460390
vn 0.866934895515 0.000000114276 -0.498421460390
vn 0.866934895515 0.000000114276 -0.498421490192
vn 0.000000250671 -1.000000000000 -0.000000338671
vn -1.000000000000 -0.000000019889 0.000000089188
vn 1.000000000000 0.000000127984 -0.000000109342
vn -0.000000245079 1.000000000000 0.000000000000
vn -0.000000245078 1.000000000000 0.000000000000
vn 1.000000000000 0.000000269487 0.000000683757
vn -1.000000000000 -0.000000243391 0.000000728655
vn -1.000000000000 -0.000000241265 0.000001094265
vn -1.000000000000 -0.000000245518 0.000000242373
vn -1.000000000000 -0.000000245518 0.000000121701
vn 0.003101604525 0.000000028906 0.999995231628
vn 0.003101604991 0.000000028906 0.999995291233
vn 1.000000000000 0.000000213043 -0.000000143083
vn 0.866934895515 0.000000165140 -0.498421460390
vn 0.866934835911 0.000000165140 -0.498421490192
vn -1.000000000000 -0.000000013669 0.000001094265
vn -1.000000000000 -0.000000011405 0.000000728655
vn 1.000000000000 0.000000043711 0.000000345086
vn 0.866934835911 0.000000099465 -0.498421490192
vn 0.866934895515 0.000000099465 -0.498421490192
vn 1.000000000000 0.000000043711 -0.000000091208
vn 0.003101804061 -0.000000029996 0.999995231628
vn 0.003101803828 -0.000000029996 0.999995231628
vn -1.000000000000 -0.000000009141 0.000000244359
vn -1.000000000000 -0.000000009141 0.000000125672
vn 1.000000000000 -0.000000277479 0.000000000097
vn 1.000000000000 -0.000000267910 -0.000000000139
vn 0.965925931931 0.258818984032 -0.000000000139
vn 0.965925931931 0.258818954229 0.000000000000
vn 0.866025447845 0.499999940395 0.000000000000
vn 0.866025447845 0.499999970198 0.000000000000
vn 0.707106828690 0.707106769085 0.000000000000
vn 0.499999970198 0.866025388241 0.000000000000
vn 0.500000000000 0.866025388241 0.000000000000
vn 0.258819013834 0.965925931931 0.000000000000
vn 0.258819073439 0.965925931931 0.000000000000
vn 0.000000229638 1.000000000000 0.000000000000
vn 0.000000239206 1.000000000000 0.000000000000
vn -0.258818745613 0.965925931931 0.000000000000
vn -0.258818715811 0.965925931931 0.000000000000
vn -0.500000119209 0.866025447845 0.000000000000
vn -0.500000059605 0.866025388241 0.000000000000
vn -0.707106649876 0.707106888294 0.000000000000
vn -0.707106649876 0.707106888294 -0.000000004687
vn -0.793353080750 0.608761847019 0.000000000000
vn -0.793353140354 0.608761847019 -0.000000007903
vn -0.999999940395 0.000451699074 0.000000000000
vn -1.000000000000 0.000208528421 0.000000000000
vn -1.000000000000 0.000208528421 -0.000000000000
vn -1.000000000000 0.000000000009 0.000000000000
vn -1.000000000000 0.000000000005 -0.000000000000
vn -1.000000000000 -0.000208528334 0.000000000000
vn -0.999999940395 -0.000451697735 0.000000000000
vn -0.999999940395 -0.000451697706 -0.000000000053
vn -0.999999821186 -0.000586950453 -0.000000000040
vn -0.999999880791 -0.000586950220 -0.000000000146
vn -0.707107067108 -0.707106590271 -0.000000000000
vn -0.707107067108 -0.707106530666 -0.000000053896
vn -0.500000238419 -0.866025328636 0.000000000000
vn -0.500000298023 -0.866025328636 0.000000000000
vn -0.258819431067 -0.965925753117 0.000000000000
vn -0.258819401264 -0.965925753117 0.000000000000
vn -0.000000444923 -1.000000000000 0.000000000000
vn -0.000000466451 -1.000000000000 0.000000000000
vn 0.258818447590 -0.965925991535 0.000000000000
vn 0.499999493361 -0.866025686264 0.000000000000
vn 0.499999493361 -0.866025805473 0.000000000000
vn 0.707106351852 -0.707107245922 0.000000000000
vn 0.707106292248 -0.707107305527 -0.000000000000
vn 0.866025090218 -0.500000536442 0.000000000000
vn 0.965925812721 -0.258819431067 0.000000000000
vn 0.965925812721 -0.258819460869 0.000000000097
vn 0.000000000000 0.000000000000 -1.000000000000
vn 0.000000000000 0.000000000000 1.000000000000
vn 0.965925931931 0.258818984032 -0.000000000055
vn 1.000000000000 -0.000000285253 -0.000000000055
vn 0.866025507450 0.500000000000 0.000000000000
vn 0.707106769085 0.707106769085 0.000000000000
vn 0.500000000000 0.866025507450 0.000000000000
vn 0.000000224853 1.000000000000 0.000000000000
vn -0.258818775415 0.965925931931 0.000000000000
vn -0.500000119209 0.866025388241 0.000000000000
vn -0.866025328636 0.500000357628 -0.000000000754
vn -0.866025328636 0.500000357628 -0.000000000000
vn -0.965925931931 0.258819043636 -0.000000000055
vn -0.965925931931 0.258819013834 0.000000000000
vn -1.000000000000 0.000000478412 -0.000000000055
vn -1.000000000000 0.000000454491 0.000000000055
vn -0.965925991535 -0.258818417788 0.000000000000
vn -0.965925991535 -0.258818417788 0.000000000055
vn -0.866025686264 -0.499999493361 0.000000021209
vn -0.866025686264 -0.499999582767 0.000000000000
vn -0.707107067108 -0.707106530666 0.000000002016
vn -0.793353796005 -0.608760952950 0.000000002904
vn -0.258819371462 -0.965925753117 0.000000000000
vn 0.258818477392 -0.965925991535 0.000000000000
vn 0.965925753117 -0.258819401264 0.000000000000
vn -0.793353855610 -0.608760833740 -0.000000151187
vn -0.999999880791 0.000586952898 0.000000000000
vn -0.000000174574 -1.000000000000 -0.000000248352
vn 0.000000174574 1.000000000000 0.000000000000
vn -0.043841432780 0.000000604898 -0.999038517475
vn -0.130525410175 0.000000327524 -0.991444945335
vn -0.258818894625 0.000000318018 -0.965925931931
vn -0.258818745613 0.000000407914 -0.965925931931
vn -0.499999910593 0.000000169277 -0.866025388241
vn -0.499999850988 0.000000058597 -0.866025447845
vn -0.707106530666 0.000000008440 -0.707106947899
vn -0.707106530666 0.000000107428 -0.707106947899
vn -0.866025328636 0.000000041084 -0.500000119209
vn -0.866025328636 0.000000034652 -0.500000178814
vn -0.965925753117 0.000000036896 -0.258819222450
vn -0.965925872326 -0.000000191933 -0.258819252253
vn -1.000000000000 0.000000007489 -0.000000401866
vn -1.000000000000 -0.000000197100 -0.000000428178
vn -0.965926051140 -0.000000008538 0.258818238974
vn -0.965925991535 -0.000000107417 0.258818358183
vn -0.866025686264 0.000000012366 0.499999433756
vn -0.866025686264 0.000000091355 0.499999403954
vn -0.707107007504 0.000000030909 0.707106530666
vn -0.707107067108 0.000000031305 0.707106471062
vn -0.500000238419 -0.000000084106 0.866025209427
vn -0.500000476837 -0.000000115025 0.866025090218
vn -0.258819252253 -0.000000271791 0.965925753117
vn -0.258819371462 -0.000000505434 0.965925753117
vn -0.130526259542 -0.000000326005 0.991444826126
vn -0.043842267245 -0.000000604932 0.999038517475
vn 1.000000000000 0.000000289619 0.000000315752
vn 0.965925753117 0.000000019740 -0.258819043636
vn 0.965925812721 0.000000065830 -0.258819013834
vn 1.000000000000 0.000000290694 0.000000327712
vn 0.866025447845 0.000000107803 -0.499999821186
vn 0.866025447845 0.000000091517 -0.499999821186
vn 0.707106888294 -0.000000021569 -0.707106649876
vn 0.707106888294 0.000000009233 -0.707106649876
vn 0.499999672174 0.000000090337 -0.866025507450
vn 0.499999701977 0.000000024571 -0.866025626659
vn 0.258818626404 0.000000414396 -0.965925872326
vn 0.258818566799 0.000000254752 -0.965925991535
vn 0.000000296615 0.000000637343 -0.999999940395
vn -0.258818387985 0.000000737810 -0.965925931931
vn -0.499999791384 0.000000158808 -0.866025507450
vn -0.707106530666 0.000000175431 -0.707107007504
vn -0.866025090218 0.000000178745 -0.500000417233
vn -0.965925753117 -0.000000265543 -0.258819341660
vn -1.000000000000 -0.000000394324 -0.000000421002
vn -0.965925991535 -0.000000344276 0.258818536997
vn -0.866025686264 0.000000061101 0.499999582767
vn -0.707107007504 0.000000061710 0.707106471062
vn -0.500000655651 0.000000095748 0.866024971008
vn -0.258819490671 -0.000000493290 0.965925693512
vn -0.000000416218 -0.000000737258 1.000000000000
vn 0.258818626404 -0.000000590782 0.965925991535
vn 0.258818745613 -0.000000737397 0.965925931931
vn 0.499999374151 -0.000000131945 0.866025686264
vn 0.499999493361 -0.000000281862 0.866025626659
vn 0.707106232643 -0.000000107732 0.707107245922
vn 0.707106232643 -0.000000107732 0.707107305527
vn 0.866025209427 -0.000000056816 0.500000238419
vn 0.866025209427 -0.000000076178 0.500000238419
vn 0.965925753117 0.000000112755 0.258819222450
vn 0.965925812721 -0.000000008049 0.258819073439
vn -0.000000000000 -0.000000328818 1.000000000000
vn 0.000000000000 -0.000000328818 1.000000000000
vn 0.000000000000 0.000000328818 -1.000000000000
vn -0.000000000000 0.000000328818 -1.000000000000
vn 0.000000000000 0.000000328818 -0.999999940395
vn -0.796442747116 -0.000000198841 0.604714035988
vn -0.796442687511 -0.000000198841 0.604713976383
vn 1.000000000000 0.000000000000 -0.000000402157
vn -0.000000000000 -1.000000000000 0.000000043711
# 242 vertex normals

vt -0.000000059605 0.500000000000 0.000000000000
vt 0.041666656733 0.500000000000 0.000000000000
vt 0.041666656733 1.000000000000 0.000000000000
vt -0.000000059605 1.000000000000 0.000000000000
vt 0.083333313465 0.500000000000 0.000000000000
vt 0.083333313465 1.000000000000 0.000000000000
vt 0.124999970198 0.500000000000 0.000000000000
vt 0.124999970198 1.000000000000 0.000000000000
vt 0.166666626930 0.500000000000 0.000000000000
vt 0.166666626930 1.000000000000 0.000000000000
vt 0.208333283663 0.500000000000 0.000000000000
vt 0.208333283663 1.000000000000 0.000000000000
vt 0.249999940395 0.500000000000 0.000000000000
vt 0.249999940395 1.000000000000 0.000000000000
vt 0.291666597128 0.500000000000 0.000000000000
vt 0.291666597128 1.000000000000 0.000000000000
vt 0.333333253860 0.500000000000 0.000000000000
vt 0.333333253860 1.000000000000 0.000000000000
vt 0.374999910593 0.500000000000 0.000000000000
vt 0.374999910593 1.000000000000 0.000000000000
vt 0.416666597128 0.500000000000 0.000000000000
vt 0.416666597128 1.000000000000 0.000000000000
vt 0.458333253860 0.500000000000 0.000000000000
vt 0.458333253860 1.000000000000 0.000000000000
vt 0.499999910593 0.500000000000 0.000000000000
vt 0.499999910593 1.000000000000 0.000000000000
vt 1.000000000000 0.250000000000 0.000000000000
vt 0.000000000000 0.250000000000 0.000000000000
vt 0.000000000000 0.000000000000 0.000000000000
vt 1.000000000000 0.000000000000 0.000000000000
vt 1.000000000000 1.000000000000 0.000000000000
vt 0.000000000000 1.000000000000 0.000000000000
vt 0.250000000000 0.000000000000 0.000000000000
vt 0.250000000000 1.000000000000 0.000000000000
vt 1.000000000000 0.750000000000 0.000000000000
vt 0.000000000000 0.750000000000 0.000000000000
vt 0.000000000000 0.500000000000 0.000000000000
vt 1.000000000000 0.500000000000 0.000000000000
vt 0.750000000000 0.000000000000 0.000000000000
vt 0.750000000000 1.000000000000 0.000000000000
vt 0.500000000000 1.000000000000 0.000000000000
vt 0.500000000000 0.000000000000 0.000000000000
vt 0.750000000000 0.500000000000 0.000000000000
vt 0.791666686535 0.000000000000 0.000000000000
vt 0.791666686535 0.500000000000 0.000000000000
vt 0.833333313465 0.000000000000 0.000000000000
vt 0.833333313465 0.500000000000 0.000000000000
vt 0.875000000000 0.000000000000 0.000000000000
vt 0.875000000000 0.500000000000 0.000000000000
vt 0.916666686535 0.000000000000 0.000000000000
vt 0.916666686535 0.500000000000 0.000000000000
vt 0.958333313465 0.000000000000 0.000000000000
vt 0.958333313465 0.500000000000 0.000000000000
vt 0.999999940395 0.000000000000 0.000000000000
vt 0.999999940395 0.500000000000 0.000000000000
vt -0.000000059605 0.000000000000 0.000000000000
vt 0.041666656733 0.000000000000 0.000000000000
vt 0.083333313465 0.000000000000 0.000000000000
vt 0.124999970198 0.000000000000 0.000000000000
vt 0.145833298564 0.000000000000 0.000000000000
vt 0.145833298564 0.500000000000 0.000000000000
vt 0.166666626930 0.000000000000 0.000000000000
vt 0.208333283663 0.000000000000 0.000000000000
vt 0.249999940395 0.000000000000 0.000000000000
vt 0.291666626930 0.000000000000 0.000000000000
vt 0.291666626930 0.500000000000 0.000000000000
vt 0.333333253860 0.000000000000 0.000000000000
vt 0.354166567326 0.000000000000 0.000000000000
vt 0.354166567326 0.500000000000 0.000000000000
vt 0.374999910593 0.000000000000 0.000000000000
vt 0.416666597128 0.000000000000 0.000000000000
vt 0.458333253860 0.000000000000 0.000000000000
vt 0.499999910593 0.000000000000 0.000000000000
vt 0.541666567326 0.000000000000 0.000000000000
vt 0.541666567326 0.500000000000 0.000000000000
vt 0.583333253860 0.000000000000 0.000000000000
vt 0.583333253860 0.500000000000 0.000000000000
vt 0.624999880791 0.000000000000 0.000000000000
vt 0.624999880791 0.500000000000 0.000000000000
vt 0.666666567326 0.000000000000 0.000000000000
vt 0.666666567326 0.500000000000 0.000000000000
vt 0.708333253860 0.000000000000 0.000000000000
vt 0.708333253860 0.500000000000 0.000000000000
vt 0.666666567326 1.000000000000 0.000000000000
vt 0.708333253860 1.000000000000 0.000000000000
vt 0.791666686535 1.000000000000 0.000000000000
vt 0.833333313465 1.000000000000 0.000000000000
vt 0.875000000000 1.000000000000 0.000000000000
vt 0.916666686535 1.000000000000 0.000000000000
vt 0.958333313465 1.000000000000 0.000000000000
vt 0.999999940395 1.000000000000 0.000000000000
vt 0.291666626930 1.000000000000 0.000000000000
vt 0.541666567326 1.000000000000 0.000000000000
vt 0.583333253860 1.000000000000 0.000000000000
vt 0.624999880791 1.000000000000 0.000000000000
vt 0.291666597128 0.000000000000 0.000000000000
vt 0.791666626930 0.500000000000 0.000000000000
vt 0.791666626930 1.000000000000 0.000000000000
vt 0.666666507721 0.500000000000 0.000000000000
vt 0.666666507721 1.000000000000 0.000000000000
# 100 texture coords

usemtl 08___Default
s off
f 1/1/1 2/2/2 3/3/3
f 3/3/3 4/4/4 1/1/1
f 2/2/2 5/5/5 6/6/6
f 6/6/6 3/3/3 2/2/2
f 5/5/5 7/7/7 8/8/8
f 8/8/8 6/6/6 5/5/5
f 7/7/7 9/9/9 10/10/10
f 10/10/10 8/8/8 7/7/7
f 9/9/9 11/11/11 12/12/12
f 12/12/12 10/10/10 9/9/9
f 11/11/11 13/13/13 14/14/14
f 14/14/14 12/12/12 11/11/11
f 13/13/13 15/15/15 16/16/16
f 16/16/16 14/14/14 13/13/13
f 15/15/15 17/17/17 18/18/18
f 18/18/18 16/16/16 15/15/15
f 17/17/17 19/19/19 20/20/20
f 20/20/20 18/18/18 17/17/17
f 19/19/19 21/21/21 22/22/22
f 22/22/22 20/20/20 19/19/19
f 21/21/21 23/23/23 24/24/24
f 24/24/24 22/22/22 21/21/21
f 23/23/23 25/25/25 26/26/26
f 26/26/26 24/24/24 23/23/23
f 27/4/27 28/1/27 1/1/28
f 1/1/28 4/4/27 27/4/27
f 29/25/29 30/26/30 26/26/30
f 26/26/30 25/25/30 29/25/29
f 31/25/31 32/26/31 30/26/31
f 30/26/31 29/25/31 31/25/31
f 27/4/32 32/25/33 31/26/34
f 31/26/34 28/25/35 27/4/32
f 22/22/36 24/24/36 26/26/37
f 4/4/38 3/3/36 6/6/36
f 6/6/36 8/8/36 10/10/39
f 4/4/38 6/6/36 10/10/39
f 10/10/39 12/12/36 14/14/36
f 14/14/36 16/16/36 18/18/36
f 10/10/39 14/14/36 18/18/36
f 4/4/38 10/10/39 18/18/36
f 26/26/37 4/4/38 18/18/36
f 22/22/36 26/26/37 18/18/36
f 22/22/36 18/18/36 20/20/36
f 9/9/40 7/7/41 5/5/41
f 2/2/41 1/1/41 25/25/40
f 5/5/41 2/2/41 25/25/40
f 25/25/40 23/23/41 21/21/41
f 21/21/41 19/19/41 17/17/41
f 25/25/40 21/21/41 17/17/41
f 5/5/41 25/25/40 17/17/41
f 9/9/40 5/5/41 17/17/41
f 17/17/41 15/15/41 13/13/41
f 9/9/40 17/17/41 13/13/41
f 9/9/40 13/13/41 11/11/41
f 32/26/42 27/4/43 4/4/38
f 32/26/42 4/4/38 26/26/37
f 32/26/42 26/26/37 30/26/44
f 28/1/45 31/26/46 29/25/47
f 28/1/45 29/25/47 25/25/40
f 28/1/45 25/25/40 1/1/41
f 33/27/48 34/28/49 35/29/50
f 35/29/50 36/30/51 33/27/48
f 37/30/52 38/27/52 39/28/53
f 39/28/53 40/29/53 37/30/52
f 36/29/54 35/30/54 37/31/54
f 37/31/54 40/32/54 36/29/54
f 41/33/55 42/34/55 43/32/55
f 43/32/55 44/29/55 41/33/55
f 45/29/56 46/30/56 47/31/56
f 47/31/56 48/32/56 45/29/56
f 49/33/57 50/34/57 47/32/57
f 47/32/57 46/29/57 49/33/57
f 49/35/58 51/36/59 52/37/60
f 52/37/60 53/38/61 49/35/58
f 54/35/62 50/36/63 55/37/64
f 55/37/64 56/38/65 54/35/62
f 57/39/55 58/40/55 59/41/55
f 59/41/55 60/42/55 57/39/55
f 61/42/66 62/39/67 63/40/68
f 63/40/68 64/41/66 61/42/66
f 53/38/61 52/37/60 34/28/49
f 34/28/49 33/27/48 53/38/61
f 56/38/69 55/37/70 39/28/71
f 39/28/71 38/27/69 56/38/69
f 60/42/55 59/41/55 42/34/55
f 42/34/55 41/33/55 60/42/55
f 62/39/67 65/30/72 66/31/72
f 66/31/72 63/40/68 62/39/67
f 61/42/66 64/41/66 67/34/66
f 67/34/66 68/33/66 61/42/66
f 46/31/73 45/32/73 51/36/59
f 51/36/59 49/35/58 46/31/73
f 48/31/74 47/32/74 50/36/63
f 50/36/63 54/35/62 48/31/74
f 45/30/75 48/31/75 54/40/75
f 54/40/75 51/39/76 45/30/75
f 38/34/52 37/32/52 43/32/77
f 43/32/77 42/34/77 38/34/52
f 37/32/54 35/29/54 44/29/54
f 44/29/54 43/32/54 37/32/54
f 35/29/50 34/33/49 41/33/78
f 41/33/78 44/29/79 35/29/50
f 34/33/49 52/42/60 60/42/80
f 60/42/80 41/33/78 34/33/49
f 52/42/60 51/39/59 57/39/81
f 57/39/81 60/42/80 52/42/60
f 51/39/82 54/40/82 58/40/83
f 58/40/83 57/39/83 51/39/82
f 54/40/62 56/41/65 59/41/84
f 59/41/84 58/40/84 54/40/62
f 56/41/69 38/34/69 42/34/85
f 42/34/85 59/41/86 56/41/69
f 33/39/48 36/30/51 65/30/87
f 65/30/87 62/39/88 33/39/48
f 36/30/54 40/31/54 66/31/54
f 66/31/54 65/30/54 36/30/54
f 40/31/53 39/40/53 63/40/89
f 63/40/89 66/31/89 40/31/53
f 39/40/71 55/41/70 64/41/90
f 64/41/90 63/40/91 39/40/71
f 55/41/64 50/34/63 67/34/92
f 67/34/92 64/41/92 55/41/64
f 50/34/93 49/33/93 68/33/94
f 68/33/94 67/34/93 50/34/93
f 49/33/58 53/42/61 61/42/95
f 61/42/95 68/33/96 49/33/58
f 53/42/61 33/39/48 62/39/88
f 62/39/88 61/42/95 53/42/61
f 69/43/97 70/39/98 71/44/99
f 71/44/99 72/45/100 69/43/97
f 72/45/100 71/44/99 73/46/101
f 73/46/101 74/47/102 72/45/100
f 74/47/102 73/46/101 75/48/103
f 75/48/103 76/49/103 74/47/102
f 76/49/103 75/48/103 77/50/104
f 77/50/104 78/51/105 76/49/103
f 78/51/105 77/50/104 79/52/106
f 79/52/106 80/53/107 78/51/105
f 80/53/107 79/52/106 81/54/108
f 81/54/108 82/55/109 80/53/107
f 82/1/109 81/56/108 83/57/110
f 83/57/110 84/2/111 82/1/109
f 84/2/111 83/57/110 85/58/112
f 85/58/112 86/5/113 84/2/111
f 86/5/113 85/58/112 87/59/114
f 87/59/114 88/7/115 86/5/113
f 88/7/115 87/59/114 89/60/116
f 89/60/116 90/61/117 88/7/115
f 91/9/118 92/62/118 93/63/119
f 93/63/119 94/11/120 91/9/118
f 94/11/120 93/63/119 95/64/121
f 95/64/121 96/13/122 94/11/120
f 96/13/122 95/64/121 97/65/123
f 97/65/123 98/66/123 96/13/122
f 98/66/123 97/65/123 99/67/124
f 99/67/124 100/17/125 98/66/123
f 100/17/125 99/67/124 101/68/126
f 101/68/126 102/69/127 100/17/125
f 103/19/128 104/70/129 105/71/130
f 105/71/130 106/21/131 103/19/128
f 106/21/131 105/71/130 107/72/132
f 107/72/132 108/23/133 106/21/131
f 108/23/133 107/72/132 109/73/134
f 109/73/134 110/25/135 108/23/133
f 110/25/135 109/73/134 111/74/136
f 111/74/136 112/75/136 110/25/135
f 112/75/136 111/74/136 113/76/137
f 113/76/137 114/77/138 112/75/136
f 114/77/138 113/76/137 115/78/139
f 115/78/139 116/79/140 114/77/138
f 116/79/140 115/78/139 117/80/141
f 117/80/141 118/81/141 116/79/140
f 118/81/141 117/80/141 119/82/142
f 119/82/142 120/83/143 118/81/141
f 120/83/143 119/82/142 70/39/98
f 70/39/98 69/43/97 120/83/143
f 75/48/144 73/46/144 71/44/144
f 71/44/144 70/39/144 119/82/144
f 119/82/144 117/80/144 115/78/144
f 71/44/144 119/82/144 115/78/144
f 115/78/144 113/76/144 111/74/144
f 111/74/144 109/73/144 107/72/144
f 115/78/144 111/74/144 107/72/144
f 71/44/144 115/78/144 107/72/144
f 107/72/144 105/71/144 104/70/144
f 121/68/144 122/67/144 123/65/144
f 104/70/144 121/68/144 123/65/144
f 107/72/144 104/70/144 123/65/144
f 123/65/144 124/64/144 125/63/144
f 125/63/144 126/62/144 89/60/144
f 125/63/144 89/60/144 87/59/144
f 123/65/144 125/63/144 87/59/144
f 107/72/144 123/65/144 87/59/144
f 71/44/144 107/72/144 87/59/144
f 87/59/144 85/58/144 83/57/144
f 83/57/144 81/56/144 79/52/144
f 87/59/144 83/57/144 79/52/144
f 71/44/144 87/59/144 79/52/144
f 75/48/144 71/44/144 79/52/144
f 75/48/144 79/52/144 77/50/144
f 127/84/145 128/85/145 129/40/145
f 129/40/145 130/86/145 131/87/145
f 131/87/145 132/88/145 133/89/145
f 129/40/145 131/87/145 133/89/145
f 133/89/145 134/90/145 135/91/145
f 135/91/145 136/3/145 137/6/145
f 133/89/145 135/91/145 137/6/145
f 129/40/145 133/89/145 137/6/145
f 137/6/145 138/8/145 139/10/145
f 139/10/145 140/12/145 141/14/145
f 137/6/145 139/10/145 141/14/145
f 141/14/145 142/92/145 143/18/145
f 143/18/145 144/20/145 145/22/145
f 141/14/145 143/18/145 145/22/145
f 137/6/145 141/14/145 145/22/145
f 129/40/145 137/6/145 145/22/145
f 145/22/145 146/24/145 147/26/145
f 147/26/145 148/93/145 149/94/145
f 145/22/145 147/26/145 149/94/145
f 129/40/145 145/22/145 149/94/145
f 127/84/145 129/40/145 149/94/145
f 127/84/145 149/94/145 150/95/145
f 69/43/97 72/45/100 130/86/146
f 130/86/146 129/40/147 69/43/97
f 72/45/100 74/47/102 131/87/148
f 131/87/148 130/86/146 72/45/100
f 74/47/102 76/49/103 132/88/149
f 132/88/149 131/87/148 74/47/102
f 76/49/103 78/51/105 133/89/150
f 133/89/150 132/88/149 76/49/103
f 78/51/105 80/53/107 134/90/106
f 134/90/106 133/89/150 78/51/105
f 80/53/107 82/55/109 135/91/151
f 135/91/151 134/90/106 80/53/107
f 82/1/109 84/2/111 136/3/152
f 136/3/152 135/4/151 82/1/109
f 84/2/111 86/5/113 137/6/153
f 137/6/153 136/3/152 84/2/111
f 86/5/113 88/7/115 138/8/114
f 138/8/114 137/6/153 86/5/113
f 139/10/154 138/8/114 88/7/115
f 139/10/154 88/7/115 90/61/117
f 139/10/154 90/61/117 151/9/155
f 151/9/155 152/11/156 140/12/157
f 140/12/157 139/10/154 151/9/155
f 152/11/156 153/13/158 141/14/159
f 141/14/159 140/12/157 152/11/156
f 153/13/158 154/66/160 142/92/161
f 142/92/161 141/14/159 153/13/158
f 154/66/160 155/17/162 143/18/163
f 143/18/163 142/92/161 154/66/160
f 144/20/164 143/18/163 155/17/162
f 144/20/164 155/17/162 156/69/165
f 144/20/164 156/69/165 103/19/128
f 103/19/128 106/21/131 145/22/131
f 145/22/131 144/20/164 103/19/128
f 106/21/131 108/23/133 146/24/166
f 146/24/166 145/22/131 106/21/131
f 108/23/133 110/25/135 147/26/134
f 147/26/134 146/24/166 108/23/133
f 110/25/135 112/75/136 148/93/167
f 148/93/167 147/26/134 110/25/135
f 112/75/136 114/77/138 149/94/138
f 149/94/138 148/93/167 112/75/136
f 114/77/138 116/79/140 150/95/140
f 150/95/140 149/94/138 114/77/138
f 116/79/140 118/81/141 127/84/141
f 127/84/141 150/95/140 116/79/140
f 118/81/141 120/83/143 128/85/168
f 128/85/168 127/84/141 118/81/141
f 120/83/143 69/43/97 129/40/147
f 129/40/147 128/85/168 120/83/143
f 156/69/165 121/68/169 104/70/129
f 104/70/129 103/19/128 156/69/165
f 157/61/170 158/60/170 92/62/118
f 92/62/118 91/9/118 157/61/170
f 93/63/144 92/62/144 126/62/144
f 126/62/144 125/63/144 93/63/144
f 95/64/144 93/63/144 125/63/144
f 125/63/144 124/64/144 95/64/144
f 97/65/144 95/64/144 124/64/144
f 124/64/144 123/65/144 97/65/144
f 99/67/144 97/65/144 123/65/144
f 123/65/144 122/67/144 99/67/144
f 101/68/144 99/67/144 122/67/144
f 122/67/144 121/68/144 101/68/144
f 102/69/171 101/68/171 121/68/171
f 121/68/171 156/69/171 102/69/171
f 100/17/145 102/69/145 156/69/145
f 156/69/145 155/17/145 100/17/145
f 98/66/145 100/17/145 155/17/145
f 155/17/145 154/66/145 98/66/145
f 96/13/145 98/66/145 154/66/145
f 154/66/145 153/13/145 96/13/145
f 94/11/145 96/13/145 153/13/145
f 153/13/145 152/11/145 94/11/145
f 91/9/145 94/11/145 152/11/145
f 152/11/145 151/9/145 91/9/145
f 157/61/145 91/9/145 151/9/145
f 151/9/145 90/61/145 157/61/145
f 158/60/172 157/61/172 90/61/172
f 90/61/172 89/60/172 158/60/172
f 92/62/144 158/60/144 89/60/144
f 89/60/144 126/62/144 92/62/144
f 159/1/173 160/56/174 161/57/175
f 161/57/175 162/2/176 159/1/173
f 162/2/176 161/57/175 163/58/177
f 163/58/177 164/5/178 162/2/176
f 164/5/178 163/58/177 165/59/179
f 165/59/179 166/7/180 164/5/178
f 166/7/180 165/59/179 167/62/181
f 167/62/181 168/9/182 166/7/180
f 168/9/182 167/62/181 169/63/183
f 169/63/183 170/11/184 168/9/182
f 170/11/184 169/63/183 171/64/185
f 171/64/185 172/13/186 170/11/184
f 172/13/186 171/64/185 173/96/187
f 173/96/187 174/15/188 172/13/186
f 174/15/188 173/96/187 175/67/189
f 175/67/189 176/17/190 174/15/188
f 176/17/190 175/67/189 177/70/191
f 177/70/191 178/19/192 176/17/190
f 178/19/192 177/70/191 179/71/193
f 179/71/193 180/21/194 178/19/192
f 180/21/194 179/71/193 181/72/195
f 181/72/195 182/23/196 180/21/194
f 182/23/196 181/72/195 183/73/197
f 183/73/197 184/25/198 182/23/196
f 185/43/199 186/97/200 187/98/201
f 187/98/201 188/40/202 185/43/199
f 186/97/200 189/47/203 190/87/204
f 190/87/204 187/98/201 186/97/200
f 189/47/203 191/49/205 192/88/206
f 192/88/206 190/87/204 189/47/203
f 191/49/205 193/51/207 194/89/208
f 194/89/208 192/88/206 191/49/205
f 193/51/207 195/53/209 196/90/210
f 196/90/210 194/89/208 193/51/207
f 195/53/209 159/55/173 197/91/211
f 197/91/211 196/90/210 195/53/209
f 159/1/173 162/2/176 198/3/212
f 198/3/212 197/4/211 159/1/173
f 162/2/176 164/5/178 199/6/213
f 199/6/213 198/3/212 162/2/176
f 164/5/178 166/7/180 200/8/214
f 200/8/214 199/6/213 164/5/178
f 166/7/180 168/9/182 201/10/215
f 201/10/215 200/8/214 166/7/180
f 168/9/182 170/11/184 202/12/216
f 202/12/216 201/10/215 168/9/182
f 170/11/184 172/13/186 203/14/217
f 203/14/217 202/12/216 170/11/184
f 172/13/186 174/15/188 204/16/218
f 204/16/218 203/14/217 172/13/186
f 174/15/188 176/17/190 205/18/219
f 205/18/219 204/16/218 174/15/188
f 176/17/190 178/19/192 206/20/220
f 206/20/220 205/18/219 176/17/190
f 178/19/192 180/21/194 207/22/221
f 207/22/221 206/20/220 178/19/192
f 180/21/194 182/23/196 208/24/222
f 208/24/222 207/22/221 180/21/194
f 182/23/196 184/25/198 209/26/223
f 209/26/223 208/24/222 182/23/196
f 184/25/198 210/75/224 211/93/225
f 211/93/225 209/26/223 184/25/198
f 210/75/224 212/77/226 213/94/227
f 213/94/227 211/93/225 210/75/224
f 212/77/226 214/79/228 215/95/229
f 215/95/229 213/94/227 212/77/226
f 214/79/228 216/99/230 217/100/231
f 217/100/231 215/95/229 214/79/228
f 216/99/230 218/83/232 219/85/233
f 219/85/233 217/100/231 216/99/230
f 218/83/232 185/43/199 188/40/202
f 188/40/202 219/85/233 218/83/232
f 220/73/234 221/25/235 184/25/234
f 184/25/234 183/73/234 220/73/234
f 222/1/236 223/56/237 160/56/238
f 160/56/238 159/1/236 222/1/236
f 224/73/239 225/25/240 221/25/240
f 221/25/240 220/73/240 224/73/239
f 222/25/241 225/56/241 224/1/241
f 224/1/241 223/73/241 222/25/241
f 167/62/242 165/59/41 163/58/242
f 163/58/242 161/57/242 160/56/242
f 167/62/242 163/58/242 160/56/242
f 183/73/41 181/72/41 179/71/41
f 179/71/41 177/70/41 175/67/41
f 183/73/41 179/71/41 175/67/41
f 160/56/242 183/73/41 175/67/41
f 167/62/242 160/56/242 175/67/41
f 175/67/41 173/96/242 171/64/242
f 167/62/242 175/67/41 171/64/242
f 167/62/242 171/64/242 169/63/242
f 193/51/41 191/49/41 189/47/41
f 186/97/41 185/43/41 218/83/40
f 189/47/41 186/97/41 218/83/40
f 193/51/41 189/47/41 218/83/40
f 218/83/40 216/99/41 214/79/41
f 214/79/41 212/77/40 210/75/41
f 218/83/40 214/79/41 210/75/41
f 193/51/41 218/83/40 210/75/41
f 210/75/41 184/25/39 159/1/36
f 193/51/41 210/75/41 159/1/36
f 193/51/41 159/1/36 195/53/41
f 215/95/36 217/100/36 219/85/36
f 188/40/36 187/98/36 190/87/36
f 219/85/36 188/40/36 190/87/36
f 215/95/36 219/85/36 190/87/36
f 190/87/36 192/88/36 194/89/36
f 194/89/36 196/90/36 197/91/39
f 190/87/36 194/89/36 197/91/39
f 215/95/36 190/87/36 197/91/39
f 197/91/39 209/26/39 211/93/36
f 215/95/36 197/91/39 211/93/36
f 215/95/36 211/93/36 213/94/39
f 223/56/41 224/1/41 220/73/242
f 221/25/36 225/25/36 222/25/36
f 183/73/41 160/56/242 223/56/41
f 223/56/41 220/73/242 183/73/41
f 159/1/36 184/25/39 221/25/36
f 221/25/36 222/25/36 159/1/36
f 206/20/36 207/22/39 208/24/36
f 209/26/39 197/91/39 198/3/36
f 208/24/36 209/26/39 198/3/36
f 198/3/36 199/6/36 200/8/36
f 200/8/36 201/10/39 202/12/36
f 198/3/36 200/8/36 202/12/36
f 208/24/36 198/3/36 202/12/36
f 206/20/36 208/24/36 202/12/36
f 202/12/36 203/14/39 204/16/36
f 206/20/36 202/12/36 204/16/36
f 206/20/36 204/16/36 205/18/36
# 434 faces
