o gripper_r_active_link
# 3ds Max Wavefront OBJ Exporter v0.99 - (c)2007 guruware
# File Created: 28.05.2026 15:39:37

mtllib gripper_l_passive_link.mtl

#
# object 2
#

v  -0.023070000112 0.019312223420 0.036270223558
v  -0.023070000112 -0.067687772214 0.036270212382
v  -0.016569999978 -0.067687772214 0.036270212382
v  -0.016569999978 0.019312223420 0.036270223558
v  -0.023070000112 0.019312223420 0.027270223945
v  -0.016569999978 0.019312223420 0.027270223945
v  -0.016569999978 -0.067687772214 0.027270209044
v  -0.023070000112 -0.067687772214 0.027270209044
v  -0.004999991506 -0.027187777683 0.036270216107
v  -0.004999999888 -0.027187775820 0.027270212770
v  -0.005000001751 -0.010187770240 0.027270214632
v  -0.005000002682 0.008712226525 0.027270216495
v  -0.005000002682 0.015312222764 0.027270218357
v  -0.004999997094 0.018812222406 0.036270223558
v  -0.016569986939 -0.027187783271 0.036270219833
v  -0.016569996253 0.018812222406 0.036270227283
v  -0.016570005566 0.015312219039 0.027270223945
v  -0.016569998115 -0.027187781408 0.027270216495
v  -0.012502443977 -0.010187772103 0.027270216495
v  -0.005000012927 -0.010187764652 -0.008729778230
v  -0.010000013746 -0.010187767446 -0.008729778230
v  -0.010000015609 0.008712230250 -0.008729778230
v  -0.005000012927 0.008712233976 -0.008729778230
v  -0.012502445839 0.008712222800 0.027270220220
v  -0.005000007339 -0.010187769309 0.021313343197
v  -0.005000008270 0.008712230250 0.021313346922
v  -0.010000009090 -0.010187772103 0.021313346922
v  -0.010000010021 0.008712226525 0.021313348785
v  -0.025000000373 0.015312215313 0.027270223945
v  -0.025000000373 0.018812222406 0.027270223945
v  -0.025000000373 0.018812226132 0.022270226851
v  -0.025000000373 0.015312219039 0.022270224988
v  -0.005000004545 0.015312226489 0.022270221263
v  -0.005000005476 0.018812226132 0.022270221263
v  -0.016570005566 0.018812222406 0.027270223945
v  -0.016569999978 -0.019531991333 0.020220216364
v  -0.013570004143 -0.019531993195 0.020220218226
v  -0.013570002280 -0.069486781955 0.020220208913
v  -0.016570003703 -0.069486781955 0.020220208913
v  -0.016570001841 -0.019531991333 0.024520222098
v  -0.013570004143 -0.019531993195 0.024520222098
v  -0.013570003211 -0.069486789405 0.024520214647
v  -0.016570003703 -0.069486781955 0.024520214647
v  -0.016570007429 -0.067686781287 0.030243843794
v  -0.016570005566 -0.067686773837 0.034270212054
v  -0.016570001841 -0.041586782783 0.034270219505
v  -0.016570001841 -0.041586782783 0.024520218372
v  -0.013570005074 -0.065686777234 0.036270212382
v  -0.013570003211 -0.067686773837 0.034270215780
v  -0.013570003211 -0.041586786509 0.034270219505
v  -0.013570005074 -0.043586786836 0.036270212382
v  -0.016570003703 -0.065686777234 0.036270208657
v  -0.016569999978 -0.043586783111 0.036270212382
v  -0.013570002280 -0.067686781287 0.030243847519
v  -0.013570003211 -0.041586782783 0.024520218372
v  -0.013570002280 -0.068147391081 0.027243848890
v  -0.016570007429 -0.068147391081 0.027243848890
v  -0.016570003703 -0.068713150918 0.025830917060
v  -0.013570002280 -0.068713150918 0.025830918923
v  -0.023070001975 -0.057586789131 0.027270212770
v  -0.023070003837 -0.067686773837 0.027270212770
v  -0.016570009291 -0.067686781287 0.027270212770
v  -0.016570007429 -0.057586789131 0.027270212770
v  -0.023070001975 -0.057586789131 0.024270214140
v  -0.016570007429 -0.057586789131 0.024270214140
v  -0.016570009291 -0.067686781287 0.024270214140
v  -0.023070003837 -0.067686773837 0.024270214140
v  0.000000000000 -0.016187779605 -0.031229741871
v  0.000000000000 -0.016187770292 -0.024594027549
v  -0.004999998957 -0.016187775880 -0.031229741871
v  0.000000000000 -0.016187705100 0.036770261824
v  0.001000000164 -0.016187770292 -0.024229742587
v  0.001000000164 -0.016187705100 0.036770261824
v  0.000000003725 0.012712227181 -0.031229771674
v  -0.004999997094 0.012712227181 -0.031229771674
v  -0.004999997094 0.012712286785 0.030183129013
v  0.000000003725 0.012712286785 0.030183129013
v  0.035999961197 -0.011687746271 -0.011479757726
v  0.035999961197 -0.011687739752 -0.006158329546
v  0.066414847970 -0.021637745202 0.004921391606
v  0.071000002325 -0.023137750104 0.001270268112
v  0.066414847970 -0.021637743339 0.007619140670
v  0.071000002325 -0.023137740791 0.011270264164
v  0.035999961197 -0.011687715538 0.018698841333
v  0.035999961197 -0.011687709019 0.024020269513
v  0.071000002325 -0.025423858315 0.011270271614
v  0.071000002325 -0.025423867628 0.001270268112
v  0.056000001729 -0.024637755007 -0.004194017500
v  0.056000001729 -0.024637730792 0.016734557226
v  0.056229107082 -0.021637748927 0.001210868359
v  0.056229107082 -0.021637739614 0.011329660192
v  0.000000001863 -0.012998928316 -0.019272603095
v  0.000000001863 -0.012998875231 0.031813114882
v  0.000000000000 -0.015785854310 -0.032729744911
v  0.000000000000 -0.014687780291 -0.033827818930
v  0.000000001863 -0.013187781908 -0.034229740500
v  0.000000001863 0.005643656477 -0.024594049901
v  0.000000003725 0.009712221101 -0.034229762852
v  0.000000003725 0.011212220415 -0.033827841282
v  0.000000003725 0.012310298160 -0.032729767263
v  0.000000001863 0.005643665791 -0.019272621721
v  -0.004999998957 -0.016187705100 0.036770261824
v  -0.004999997094 0.006125193089 0.036770235747
v  -0.004999997094 0.008645972237 0.036268819124
v  -0.004999997094 0.010782977566 0.034840919077
v  -0.004999997094 0.012210877612 0.032703906298
v  -0.004999997094 0.012310298160 -0.032729767263
v  -0.004999997094 0.011212220415 -0.033827841282
v  -0.004999997094 0.009712221101 -0.034229762852
v  -0.004999998957 -0.013187780976 -0.034229740500
v  -0.004999998957 -0.014687779360 -0.033827818930
v  -0.004999998957 -0.015785850585 -0.032729744911
v  0.000000001863 0.006125193089 0.036770235747
v  0.000000001863 0.005643721670 0.036770235747
v  0.001000002027 0.005162291229 0.036770235747
v  0.000000001863 0.005643716082 0.031813092530
v  0.000000003725 0.012210877612 0.032703906298
v  0.000000003725 0.010782977566 0.034840919077
v  0.000000003725 0.008645972237 0.036268819124
# 119 vertices

vn 0.000000000000 -0.000000128458 0.999999940395
vn 0.000000000000 -0.000000128458 1.000000000000
vn 0.000000000000 0.000000171278 -0.999999940395
vn 0.000000000000 0.000000171278 -1.000000000000
vn 0.000000000000 1.000000000000 0.000000000000
vn 1.000000000000 0.000000000000 0.000000000000
vn 0.999999940395 0.000000000000 0.000000000000
vn 0.000000000000 -0.999999940395 0.000000000000
vn 0.000000000000 -1.000000000000 0.000000000000
vn -0.999999940395 0.000000000000 0.000000000000
vn -1.000000000000 0.000000000000 0.000000000000
vn 1.000000000000 0.000000113259 -0.000000924349
vn 1.000000000000 0.000000109567 -0.000000931322
vn 0.999999940395 0.000000112715 -0.000000890029
vn 1.000000000000 0.000000037860 -0.000000663368
vn 1.000000000000 0.000000008350 -0.000000578531
vn 0.999999940395 0.000000023202 -0.000000685838
vn -0.999999940395 -0.000000178915 0.000001224728
vn -1.000000000000 -0.000000154657 0.000001094947
vn -0.999999940395 -0.000000123329 0.000001091983
vn -1.000000000000 -0.000000175308 0.000001241763
vn 0.000000321978 -0.000000161969 1.000000000000
vn 0.000000321979 -0.000000161969 1.000000000000
vn 0.000000482968 -1.000000000000 -0.000000206961
vn 0.000000482968 -0.999999940395 -0.000000206961
vn -0.000000302477 0.000000085646 -1.000000000000
vn -0.000000383384 0.000000091731 -1.000000000000
vn -0.000000552658 0.000000146360 -1.000000000000
vn -0.000000248272 0.000000109567 -1.000000000000
vn 0.000000000000 0.000000000000 -1.000000000000
vn 0.000000000000 0.000000000000 -0.999999940395
vn -0.000000490308 0.000000275131 -1.000000000000
vn -0.000000496544 0.000000282219 -1.000000000000
vn -0.000000547171 0.000000230862 -1.000000000000
vn -0.000000536484 0.000000240091 -1.000000000000
vn 1.000000000000 0.000000049277 -0.000000938066
vn 1.000000000000 0.000000049276 -0.000000938066
vn 0.000000558793 -1.000000000000 0.000000234745
vn 0.000000248272 -0.999999940395 -0.000000156344
vn 0.000000248272 -1.000000000000 -0.000000156344
vn -0.921951770782 -0.000000007260 -0.387304842472
vn -0.921951651573 -0.000000007260 -0.387304782867
vn -0.921951711178 -0.000000007260 -0.387304812670
vn -0.921951770782 -0.000000014521 -0.387304812670
vn -0.921951711178 -0.000000014521 -0.387304812670
vn -0.000000745058 1.000000000000 0.000000625378
vn -0.000000496543 1.000000000000 0.000000416783
vn 1.000000000000 0.000000000000 -0.000000154998
vn 1.000000000000 0.000000049276 -0.000000185997
vn 0.999999940395 0.000000049276 -0.000000185997
vn 0.000000558793 -1.000000000000 -0.000000154998
vn 0.000000558793 -0.999999940395 -0.000000154998
vn -1.000000000000 -0.000000098553 0.000000154998
vn -0.999999940395 -0.000000098553 0.000000154998
vn -1.000000000000 -0.000000049276 0.000000185997
vn -0.000000745058 1.000000000000 0.000000123998
vn -0.000000745058 0.999999940395 0.000000123998
vn 1.000000000000 0.000000266092 -0.000000372529
vn 1.000000000000 0.000000140466 -0.000000460467
vn 0.000000000000 0.000000000000 1.000000000000
vn 0.000000000000 0.000000000000 0.999999940395
vn -0.000000135197 1.000000000000 0.000000432212
vn -0.000000096797 1.000000000000 0.000000310476
vn 0.000000000000 0.999999940395 0.000000745058
vn 0.000000000000 1.000000000000 0.000000745058
vn -0.000000269125 0.000000058695 -1.000000000000
vn -0.000000186265 0.000000532183 -1.000000000000
vn -0.000000196536 0.000000473488 -1.000000000000
vn -0.000000279397 -0.000000000000 -1.000000000000
vn 0.000000321978 -1.000000000000 -0.000000542855
vn 0.000000321978 -0.999999940395 -0.000000542855
vn 0.000000372529 -1.000000000000 -0.000000745059
vn -1.000000000000 0.000000000000 0.000001034802
vn 0.000000441909 -1.000000000000 -0.000000745058
vn -0.000000141568 1.000000000000 0.000000149097
vn 0.000000000000 1.000000000000 0.000000266092
vn 0.000000597174 0.000000185009 -1.000000000000
vn 0.000000620883 0.000000186433 -1.000000000000
vn 0.000000023709 0.000000150570 -0.999999940395
vn 0.000000000000 0.000000149146 -1.000000000000
vn 0.000000620882 1.000000000000 0.000000000000
vn 0.000000620883 1.000000000000 0.000000000000
vn -0.000000963124 -1.000000000000 -0.000001060744
vn 0.000000000000 -1.000000000000 -0.000001732691
vn -0.000001520402 -1.000000000000 -0.000000671947
vn -0.000002483526 -1.000000000000 0.000000000000
vn -1.000000000000 0.000000180190 0.000000184559
vn -1.000000000000 0.000000142731 0.000000571272
vn -1.000000000000 0.000000193376 0.000000385742
vn -1.000000000000 0.000000112995 -0.000000078841
vn 1.000000000000 -0.000000000000 0.000000931324
vn 1.000000000000 -0.000000000000 0.000000464645
vn 1.000000000000 0.000000021471 0.000000325467
vn 1.000000000000 0.000000000000 0.000000931326
vn -0.000001135104 -0.000000014479 1.000000000000
vn -0.000001241764 0.000000000000 1.000000000000
vn -0.000000106660 -0.000000154086 1.000000000000
vn -0.000000000000 -0.000000168565 0.999999940395
vn -1.000000000000 0.000000143639 0.000000799532
vn -1.000000000000 0.000000168565 0.000001099892
vn 0.999999940395 0.000000019793 0.000000097130
vn 1.000000000000 0.000000035327 -0.000000015571
vn -0.000000081438 -0.964670717716 0.263458818197
vn -0.000000047070 -0.964670717716 0.263458609581
vn -0.000000068982 -0.928343534470 0.371723294258
vn -0.000000230796 -0.928343474865 0.371723622084
vn -0.000000878059 -0.707106828690 0.707106828690
vn -0.000000878059 -0.707106769085 0.707106769085
vn -0.000000878059 -0.707106709480 0.707106709480
vn -0.000000878060 -0.707106769085 0.707106769085
vn 0.000000878059 0.707105457783 0.707108139992
vn 0.000000878058 0.707105457783 0.707108080387
vn 0.000001005791 1.000000000000 0.000000309474
vn 0.000001241764 1.000000000000 0.000000382081
vn 0.000000235973 1.000000000000 0.000000072607
vn -0.000000000000 -0.000000168911 1.000000000000
vn 0.000000000000 -0.000000168911 1.000000000000
vn -0.000000860519 -0.861177623272 0.508304119110
vn -0.000002138754 -0.861176371574 0.508306264877
vn -0.000001593832 -0.861176908016 0.508305370808
vn -0.000000315596 -0.861178219318 0.508303165436
vn -0.000000047600 -0.997100174427 0.076100766659
vn -0.000000094499 -0.997100174427 0.076100945473
vn -0.000000000002 -0.999999940395 0.000001850447
vn -0.000000000002 -1.000000000000 0.000001850447
vn -1.000000000000 0.000000000000 -0.000000433173
vn -0.999999940395 0.000000009142 -0.000000386286
vn -1.000000000000 0.000000067522 -0.000000004934
vn 1.000000000000 0.000000041622 -0.000000003107
vn 1.000000000000 0.000000042228 0.000000000000
vn 1.000000000000 0.000000003630 0.000000193034
vn -1.000000000000 0.000000066761 -0.000000015675
vn -1.000000000000 0.000000020008 -0.000001007022
vn 1.000000000000 0.000000012661 -0.000000448521
vn 1.000000000000 0.000000000000 -0.000000152218
vn -1.000000000000 0.000000061839 -0.000001448604
vn 1.000000000000 0.000000034060 -0.000000009793
vn 1.000000000000 -0.000000184420 0.000000000000
vn -0.000001146244 -1.000000000000 0.000000000000
vn -1.000000000000 0.000000184421 0.000000000000
vn -0.000000738684 -0.991444945335 -0.130525708199
vn -0.000000364617 -1.000000000000 0.000001100975
vn -0.000000638915 -0.991444945335 -0.130525782704
vn -0.000000002019 -0.999999940395 0.000001065525
vn -0.059315398335 -0.998239219189 0.000001062998
vn -0.066732808948 -0.997770786285 0.000001075392
vn 0.000000000000 0.991444587708 -0.130528628826
vn 0.000000000000 0.991444587708 -0.130528658628
vn 0.000000000000 0.995184838772 0.098015777767
vn 0.000000000000 0.995184838772 0.098015785217
vn 0.385946184397 0.922521293163 -0.000001141783
vn 0.360457003117 0.932775855064 -0.000001142740
vn 0.310927808285 0.950433552265 -0.000000832239
vn 0.310927659273 0.950433552265 -0.000000912774
vn 0.310927689075 0.950433552265 -0.000000878237
vn 0.310927659273 0.950433611870 -0.000000929232
vn 0.360456824303 0.932775974274 -0.000001119683
vn 0.385946035385 0.922521352768 -0.000001130177
vn -0.113242052495 -0.993567407131 0.000001122276
vn -0.113242082298 -0.993567407131 0.000001117129
vn 0.093000039458 0.995666146278 -0.000000900805
vn 0.093000061810 0.995666086674 -0.000000947877
vn -0.000000045586 1.000000000000 -0.000000799530
vn -0.000000114217 1.000000000000 -0.000000690444
vn 0.151854753494 0.988402843475 -0.000001012921
vn 0.151854768395 0.988402843475 -0.000001027092
vn 1.000000000000 -0.000000932956 -0.000000374162
vn 1.000000000000 -0.000001696279 -0.000001696279
vn 1.000000000000 -0.000000391644 -0.000000067997
vn 1.000000000000 -0.000000662201 -0.000000041319
vn 1.000000000000 -0.000000188228 0.000000134703
vn 1.000000000000 -0.000000176326 0.000000090557
vn 1.000000000000 -0.000000081338 0.000000303559
vn 1.000000000000 -0.000000077965 0.000000098789
vn 0.999999940395 -0.000000075163 0.000000035911
vn 1.000000000000 -0.000000133576 0.000000063074
vn 1.000000000000 -0.000000266525 -0.000000033211
vn 1.000000000000 -0.000000175674 0.000000000000
vn -1.000000000000 0.000000052959 0.000000018457
vn -1.000000000000 0.000000083478 -0.000000000000
vn -1.000000000000 0.000000043255 0.000000007720
vn -1.000000000000 0.000000023045 0.000000013419
vn -1.000000000000 0.000000062676 -0.000000011818
vn -1.000000000000 0.000000069764 -0.000000064324
vn -1.000000000000 0.000000081338 -0.000000303559
vn -1.000000000000 0.000000053263 0.000000046889
vn 0.342281907797 -0.000000153417 -0.939597308636
vn 0.342281877995 0.000000000000 -0.939597308636
vn 0.342281907797 -0.000000693792 -0.939597308636
vn 0.342281967402 -0.000000748151 -0.939597368240
vn 0.342281639576 -0.000000950705 -0.939597427845
vn 0.342281192541 -0.000000991194 -0.939597547054
vn 0.342281937599 -0.000000954476 -0.939597308636
vn 0.433777213097 0.901020109653 -0.000001576908
vn 0.433777242899 0.901020169258 -0.000001545705
vn -0.342282176018 0.000000134910 0.939597249031
vn -0.342281937599 0.000000719078 0.939597189426
vn -0.342282176018 0.000000190526 0.939597189426
vn -0.342281967402 0.000000938784 0.939597368240
vn -0.342281937599 0.000000915165 0.939597308636
vn 0.000000731925 0.000001004684 1.000000000000
vn 0.000000000000 0.000001168698 1.000000000000
vn 0.000000015592 0.000001187284 1.000000000000
vn 0.000004841640 0.000000085603 1.000000000000
vn 0.181364491582 0.000001208374 0.983415901661
vn 0.342281877995 0.000001306584 0.939597249031
vn 0.125682055950 0.000001189860 0.992070555687
vn 0.342282414436 0.000002702776 0.939597070217
vn 0.342282533646 0.000003062198 0.939597070217
vn 0.342281907797 0.000001269654 0.939597249031
vn 0.433778196573 0.901019632816 -0.000001012533
vn 0.433777660131 0.901019930840 -0.000000887621
vn 0.433777302504 0.901020169258 -0.000000775602
vn -0.342281877995 -0.000000684916 -0.939597308636
vn -0.342281877995 -0.000000825857 -0.939597249031
vn -0.342281818390 -0.000000674552 -0.939597308636
vn -0.342281818390 -0.000001090835 -0.939597368240
vn -0.342281848192 -0.000001126541 -0.939597308636
vn 0.000000000000 0.923880219460 0.382681697607
vn 0.000000000000 0.707107365131 0.707106173038
vn 0.000000000000 0.707107305527 0.707106232643
vn 0.000000000000 0.382683753967 0.923879444599
vn 0.000000000000 0.382683724165 0.923879444599
vn 0.000000000000 0.195091232657 0.980785012245
vn 0.000000000000 0.195091232657 0.980785071850
vn -0.000000024312 -0.130526080728 -0.991444885731
vn -0.000000024312 -0.130526095629 -0.991444826126
vn -0.000000000000 0.130525082350 -0.991444945335
vn 0.000000000000 0.130525082350 -0.991445004940
vn -0.000000093132 -0.500000059605 -0.866025388241
vn -0.000000258454 -0.499999582767 -0.866025686264
vn -0.000000479917 -0.866025507450 -0.499999850988
vn -0.000000645239 -0.866025388241 -0.500000119209
vn 0.000000000000 0.866024017334 -0.500002503395
vn 0.000000000000 0.866024017334 -0.500002443790
vn 0.000000000000 0.499998718500 -0.866026043892
vn 0.000000000000 0.499998688698 -0.866026163101
vn -0.052336197346 -0.998629570007 0.000001064920
vn -0.052336335182 -0.998629450798 0.000000930046
vn 1.000000000000 -0.000000730439 -0.000000488062
vn 1.000000000000 -0.000000247639 -0.000000106383
vn 1.000000000000 -0.000000168176 0.000000009034
vn 0.000000000000 0.000001194472 1.000000000000
vn -0.000000013655 -1.000000000000 0.000001061274
vn 0.000000575055 0.000001194472 1.000000000000
vn 0.000000017134 0.000001220604 1.000000000000
# 246 vertex normals

vt 1.000000000000 0.000000000000 0.000000000000
vt 1.000000000000 1.000000000000 0.000000000000
vt 0.000000000000 1.000000000000 0.000000000000
vt 0.000000000000 0.000000000000 0.000000000000
vt 0.500000000000 1.000000000000 0.000000000000
vt 0.250000000000 1.000000000000 0.000000000000
vt 0.125000000000 1.000000000000 0.000000000000
vt 0.875000000000 1.000000000000 0.000000000000
vt 0.500000000000 0.500000000000 0.000000000000
vt 0.500000000000 0.000000000000 0.000000000000
vt 0.250000000000 0.500000000000 0.000000000000
vt 0.250000000000 0.000000000000 0.000000000000
vt 0.125000000000 0.000000000000 0.000000000000
vt 1.555555105209 -0.000000337607 0.000000000000
vt 1.555554866791 1.728607177734 0.000000000000
vt 1.000000000000 1.728607654572 0.000000000000
vt 0.250000000000 0.312500000000 0.000000000000
vt 0.250000000000 0.250000000000 0.000000000000
vt 0.500000000000 0.250000000000 0.000000000000
vt 0.750000000000 0.000000000000 0.000000000000
vt 0.750000000000 0.250000000000 0.000000000000
vt 0.750000000000 1.000000000000 0.000000000000
vt 0.750000000000 0.312500000000 0.000000000000
vt 0.750000000000 0.249999985099 0.000000000000
vt 1.000000000000 0.500000000000 0.000000000000
vt 0.000000000000 0.500000000000 0.000000000000
vt 0.625000000000 0.124999992549 0.000000000000
vt 0.750000000000 0.500000000000 0.000000000000
vt 0.250000000000 0.375000000000 0.000000000000
vt 0.750000000000 0.375000000000 0.000000000000
vt 0.012854334898 0.001573259942 0.000000000000
vt 0.012854334898 0.001573248766 0.000000000000
vt 0.007854335010 0.001573259942 0.000000000000
vt 0.012854334898 0.001573146321 0.000000000000
vt 0.013854335062 0.001573248766 0.000000000000
vt 0.013854335062 0.001573146321 0.000000000000
vt 0.012854334898 -0.027326740324 0.000000000000
vt 0.007854335010 -0.027326740324 0.000000000000
vt 0.007854335010 -0.027326840907 0.000000000000
vt 0.012854334898 -0.027326840907 0.000000000000
vt 0.048854295164 -0.002926785499 0.000000000000
vt 0.048854295164 -0.002926794812 0.000000000000
vt 0.079269185662 0.007023201324 0.000000000000
vt 0.083854340017 0.008523206227 0.000000000000
vt 0.079269185662 0.007023195736 0.000000000000
vt 0.083854340017 0.008523189463 0.000000000000
vt 0.048854295164 -0.002926835790 0.000000000000
vt 0.048854295164 -0.002926845104 0.000000000000
vt 0.083854340017 0.010809306987 0.000000000000
vt 0.083854340017 0.010809323750 0.000000000000
vt 0.068854339421 0.010023214854 0.000000000000
vt 0.068854339421 0.010023179464 0.000000000000
vt 0.069083444774 0.007023206912 0.000000000000
vt 0.069083444774 0.007023190148 0.000000000000
vt 0.012854334898 -0.001615596004 0.000000000000
vt 0.012854334898 -0.001615680754 0.000000000000
vt 0.012854334898 0.001171338372 0.000000000000
vt 0.012854334898 0.000073264353 0.000000000000
vt 0.012854334898 -0.001426734030 0.000000000000
vt 0.012854334898 -0.020258178934 0.000000000000
vt 0.012854334898 -0.024326734245 0.000000000000
vt 0.012854334898 -0.025826735422 0.000000000000
vt 0.012854334898 -0.026924813166 0.000000000000
vt 0.012854334898 -0.020258188248 0.000000000000
vt 0.007854335010 0.001573146321 0.000000000000
vt 0.007854335010 -0.020739752799 0.000000000000
vt 0.007854335010 -0.023260526359 0.000000000000
vt 0.007854335010 -0.025397531688 0.000000000000
vt 0.007854335010 -0.026825431734 0.000000000000
vt 0.007854335010 -0.026924813166 0.000000000000
vt 0.007854335010 -0.025826735422 0.000000000000
vt 0.007854335010 -0.024326734245 0.000000000000
vt 0.007854335010 -0.001426734030 0.000000000000
vt 0.007854335010 0.000073264353 0.000000000000
vt 0.007854335010 0.001171338372 0.000000000000
vt 0.012854334898 -0.020739752799 0.000000000000
vt 0.012854334898 -0.020258281380 0.000000000000
vt 0.013854334131 -0.019776852801 0.000000000000
vt 0.012854334898 -0.020258273929 0.000000000000
vt 0.012854334898 -0.026825431734 0.000000000000
vt 0.012854334898 -0.025397531688 0.000000000000
vt 0.012854334898 -0.023260526359 0.000000000000
# 82 texture coords

usemtl 08___Default
s off
f 1/1/1 2/2/2 3/3/1
f 3/3/1 4/4/2 1/1/1
f 5/4/3 6/1/4 7/2/3
f 7/2/3 8/3/4 5/4/3
f 1/4/5 4/1/5 6/2/5
f 6/2/5 5/3/5 1/4/5
f 4/4/6 3/1/7 7/2/6
f 7/2/6 6/3/7 4/4/6
f 3/4/8 2/1/9 8/2/8
f 8/2/8 7/3/9 3/4/8
f 2/4/10 1/1/11 5/2/10
f 5/2/10 8/3/11 2/4/10
f 9/1/12 10/2/13 11/5/14
f 12/6/15 13/7/16 14/4/17
f 11/5/14 12/6/15 14/4/17
f 9/1/12 11/5/14 14/4/17
f 15/4/18 16/1/19 17/8/20
f 17/8/20 18/3/21 15/4/18
f 14/1/22 16/2/22 15/3/23
f 15/3/23 9/4/23 14/1/22
f 9/1/24 15/2/25 18/3/24
f 18/3/24 10/4/24 9/1/24
f 10/1/26 18/2/27 19/9/28
f 19/9/28 11/10/29 10/1/26
f 20/10/30 21/9/31 22/11/30
f 22/11/30 23/12/30 20/10/30
f 13/13/32 12/12/33 24/11/34
f 24/11/34 17/7/35 13/13/32
f 11/10/36 25/10/36 26/12/36
f 26/12/37 12/12/37 11/10/37
f 19/9/38 27/9/38 25/10/38
f 25/10/39 11/10/40 19/9/40
f 24/11/41 28/11/42 27/9/43
f 27/9/44 19/9/45 24/11/44
f 12/12/46 26/12/46 28/11/46
f 28/11/47 24/11/47 12/12/47
f 20/10/48 23/12/48 26/12/48
f 26/12/49 25/10/49 20/10/50
f 21/9/51 20/10/52 25/10/51
f 25/10/51 27/9/51 21/9/51
f 22/11/53 21/9/54 27/9/53
f 27/9/55 28/11/55 22/11/55
f 23/12/56 22/11/56 28/11/56
f 28/11/56 26/12/57 23/12/56
f 19/9/28 18/2/27 17/7/35
f 17/7/35 24/11/34 19/9/28
f 29/7/11 30/3/11 31/3/11
f 31/3/11 32/7/10 29/7/11
f 13/13/16 33/13/58 34/4/59
f 34/4/59 14/4/17 13/13/16
f 17/7/60 35/3/60 30/3/61
f 30/3/60 29/7/60 17/7/61
f 35/2/62 34/14/63 31/15/64
f 31/15/64 30/16/65 35/2/62
f 33/13/66 32/7/67 31/3/68
f 31/3/68 34/4/69 33/13/66
f 13/13/70 17/7/71 32/7/70
f 32/7/72 33/13/72 13/13/72
f 16/1/19 35/2/73 17/8/20
f 17/7/74 29/7/74 32/7/74
f 16/3/75 14/4/76 34/14/63
f 34/14/63 35/2/62 16/3/75
f 36/1/77 37/2/78 38/3/79
f 38/3/79 39/4/80 36/1/77
f 40/10/81 41/5/81 37/3/81
f 37/3/81 36/4/82 40/10/81
f 39/1/83 38/2/84 42/5/85
f 42/5/85 43/10/86 39/1/83
f 44/17/87 45/18/88 46/19/89
f 46/19/89 47/9/90 44/17/87
f 48/20/91 49/21/92 50/19/93
f 50/19/93 51/10/94 48/20/91
f 52/20/95 48/22/96 51/5/97
f 51/5/97 53/10/98 52/20/95
f 52/12/99 53/10/100 46/19/89
f 46/19/89 45/18/88 52/12/99
f 54/23/101 55/9/102 50/19/93
f 50/19/93 49/21/92 54/23/101
f 56/24/103 57/9/104 58/5/105
f 58/5/105 59/25/106 56/24/103
f 45/10/107 49/10/108 48/26/109
f 48/26/109 52/26/110 45/10/107
f 50/10/111 46/5/112 53/2/111
f 53/2/111 51/4/111 50/10/111
f 46/5/113 50/10/114 55/10/115
f 55/10/115 47/25/5 46/5/113
f 41/1/116 40/1/116 47/25/116
f 47/25/116 55/10/117 41/1/116
f 43/2/118 42/4/119 59/25/120
f 59/25/120 58/5/121 43/2/118
f 54/27/122 44/19/123 57/9/104
f 57/9/104 56/24/103 54/27/122
f 49/10/124 45/10/125 44/19/123
f 44/19/123 54/27/122 49/10/124
f 47/9/90 40/25/126 36/2/127
f 36/2/127 39/3/128 47/9/90
f 37/3/129 41/26/130 55/9/102
f 55/9/102 38/2/131 37/3/129
f 47/9/90 43/26/132 58/11/133
f 59/28/134 42/25/135 55/9/102
f 47/9/90 57/29/136 44/17/87
f 54/23/101 56/30/137 55/9/102
f 47/9/90 58/11/133 57/29/136
f 56/30/137 59/28/134 55/9/102
f 47/9/90 39/3/128 43/26/132
f 42/25/135 38/2/131 55/9/102
f 60/1/60 61/2/60 62/3/61
f 62/3/61 63/4/60 60/1/60
f 64/4/30 65/1/30 66/2/31
f 66/2/31 67/3/30 64/4/30
f 60/4/5 63/1/5 65/2/5
f 65/2/5 64/3/5 60/4/5
f 63/4/138 62/1/138 66/2/138
f 66/2/138 65/3/138 63/4/138
f 62/4/139 61/1/139 67/2/139
f 67/2/139 66/3/139 62/4/139
f 61/4/140 60/1/140 64/2/140
f 64/2/140 67/3/140 61/4/140
f 68/31/141 69/32/142 70/33/143
f 71/34/144 69/32/142 72/35/145
f 72/35/145 73/36/146 71/34/144
f 74/37/147 75/38/148 76/39/149
f 76/39/149 77/40/150 74/37/147
f 78/41/151 79/42/152 80/43/153
f 80/43/153 81/44/154 78/41/151
f 81/44/154 80/43/153 82/45/155
f 82/45/155 83/46/156 81/44/154
f 83/46/156 82/45/155 84/47/157
f 84/47/157 85/48/158 83/46/156
f 83/46/7 86/49/7 87/50/6
f 87/50/6 81/44/7 83/46/7
f 88/51/159 89/52/160 73/36/146
f 73/36/146 72/35/145 88/51/159
f 90/53/161 91/54/162 82/45/163
f 82/45/163 80/43/164 90/53/161
f 91/54/162 90/53/161 92/55/165
f 92/55/165 93/56/166 91/54/162
f 94/57/167 95/58/168 96/59/169
f 68/31/170 94/57/167 96/59/169
f 69/32/171 68/31/170 96/59/169
f 97/60/172 69/32/171 96/59/169
f 96/59/169 98/61/173 99/62/174
f 96/59/169 99/62/174 100/63/175
f 96/59/169 100/63/175 74/37/176
f 97/60/172 96/59/169 74/37/176
f 74/37/176 77/40/177 101/64/178
f 101/64/178 97/60/172 74/37/176
f 70/33/179 102/65/180 103/66/181
f 103/66/181 104/67/11 105/68/11
f 103/66/181 105/68/11 106/69/11
f 103/66/181 106/69/11 76/39/182
f 70/33/179 103/66/181 76/39/182
f 70/33/179 76/39/182 75/38/183
f 75/38/183 107/70/10 108/71/184
f 108/71/184 109/72/185 110/73/186
f 75/38/183 108/71/184 110/73/186
f 70/33/179 75/38/183 110/73/186
f 70/33/179 110/73/186 111/74/11
f 70/33/179 111/74/11 112/75/11
f 81/44/187 87/50/188 88/51/189
f 88/51/189 78/41/190 81/44/187
f 88/51/189 72/35/191 78/41/190
f 72/35/191 69/32/192 97/60/193
f 78/41/151 97/60/194 101/64/195
f 101/64/195 79/42/152 78/41/151
f 80/43/196 79/42/197 90/53/198
f 79/42/197 101/64/199 92/55/200
f 113/76/201 103/66/202 102/65/203
f 102/65/203 114/77/204 113/76/201
f 73/36/205 85/48/206 115/78/207
f 86/49/208 83/46/209 85/48/206
f 85/48/206 89/52/210 86/49/208
f 85/48/206 73/36/205 89/52/210
f 114/77/211 115/78/212 116/79/213
f 84/47/157 116/79/213 115/78/212
f 115/78/212 85/48/158 84/47/157
f 91/54/214 84/47/215 82/45/216
f 93/56/217 116/79/218 84/47/215
f 84/47/215 91/54/214 93/56/217
f 117/80/219 77/40/150 76/39/149
f 76/39/149 106/69/219 117/80/219
f 118/81/220 117/80/219 106/69/219
f 106/69/219 105/68/221 118/81/220
f 119/82/222 118/81/220 105/68/221
f 105/68/221 104/67/223 119/82/222
f 113/76/224 119/82/222 104/67/223
f 104/67/223 103/66/225 113/76/224
f 96/59/226 110/73/227 109/72/228
f 109/72/228 98/61/229 96/59/226
f 111/74/230 110/73/227 96/59/226
f 96/59/226 95/58/231 111/74/230
f 112/75/232 111/74/230 95/58/231
f 95/58/231 94/57/233 112/75/232
f 70/33/143 112/75/232 94/57/233
f 94/57/233 68/31/141 70/33/143
f 107/70/234 75/38/148 74/37/147
f 74/37/147 100/63/235 107/70/234
f 108/71/236 107/70/234 100/63/235
f 100/63/235 99/62/237 108/71/236
f 109/72/228 108/71/236 99/62/237
f 99/62/237 98/61/229 109/72/228
f 87/50/238 86/49/239 89/52/160
f 89/52/160 88/51/159 87/50/238
f 79/42/197 92/55/200 90/53/198
f 72/35/191 97/60/193 78/41/190
f 77/40/177 117/80/6 118/81/6
f 77/40/177 118/81/6 119/82/240
f 77/40/177 119/82/240 113/76/241
f 116/79/242 77/40/177 113/76/241
f 116/79/242 113/76/241 114/77/6
f 92/55/6 101/64/178 116/79/242
f 116/79/242 93/56/6 92/55/6
f 101/64/178 77/40/177 116/79/242
f 114/77/204 102/65/203 71/34/243
f 69/32/142 71/34/144 102/65/244
f 102/65/244 70/33/143 69/32/142
f 115/78/207 114/77/245 71/34/246
f 71/34/246 73/36/205 115/78/207
# 218 faces

#
# object Cylinder001
#

v  -0.007578074466 0.002973772585 -0.056020226330
v  -0.022202661261 0.002973772585 -0.056020222604
v  -0.022202659398 0.002459653653 -0.052115097642
v  -0.007578074001 0.002459655516 -0.052115101367
v  -0.022202661261 0.000952332281 -0.048476107419
v  -0.007578074001 0.000952334143 -0.048476107419
v  -0.022202659398 -0.001445470378 -0.045351229608
v  -0.007578073535 -0.001445468515 -0.045351229608
v  -0.022202661261 -0.004570344929 -0.042953424156
v  -0.007578074001 -0.004570345394 -0.042953427881
v  -0.022202659398 -0.008209338412 -0.041446104646
v  -0.007578074001 -0.008209338412 -0.041446104646
v  -0.022202661261 -0.012114460580 -0.040931984782
v  -0.007578074466 -0.012114460580 -0.040931988508
v  -0.022202663124 -0.016019582748 -0.041446104646
v  -0.007578075398 -0.016019582748 -0.041446104646
v  -0.022202663124 -0.019658578560 -0.042953424156
v  -0.007578075863 -0.019658576697 -0.042953424156
v  -0.022202663124 -0.022783454508 -0.045351225883
v  -0.007578076795 -0.022783450782 -0.045351229608
v  -0.022202664986 -0.023518925533 -0.046309709549
v  -0.007578077260 -0.023518919945 -0.046309709549
v  -0.007636292838 0.001591670327 -0.052347678691
v  -0.007636292838 0.002075167373 -0.056020226330
v  -0.007636292372 0.000174119137 -0.048925407231
v  -0.007636291441 -0.002080879174 -0.045986641198
v  -0.007636292372 -0.005019648001 -0.043731644750
v  -0.007636291906 -0.008441914804 -0.042314089835
v  -0.007636292372 -0.012114460580 -0.041830595583
v  -0.007636293303 -0.015787005424 -0.042314089835
v  -0.007636293769 -0.019209273160 -0.043731641024
v  -0.007636294700 -0.022148041055 -0.045986637473
v  -0.007636295166 -0.022956646979 -0.047040432692
v  -0.022089703009 0.002072102390 -0.056020222604
v  -0.022089703009 0.001588706858 -0.052348468453
v  -0.022089703009 0.000171462074 -0.048926942050
v  -0.022089701146 -0.002083047293 -0.045988805592
v  -0.022089704871 -0.005021180026 -0.043734297156
v  -0.022089703009 -0.008442708291 -0.042317047715
v  -0.022089703009 -0.012114461511 -0.041833654046
v  -0.022089703009 -0.015786215663 -0.042317047715
v  -0.022089704871 -0.019207743928 -0.043734293431
v  -0.022089704871 -0.022145876661 -0.045988801867
v  -0.022089706734 -0.022953998297 -0.047041967511
v  -0.011051067151 -0.019915428013 -0.048219252378
v  -0.011051068082 -0.021065205336 -0.049717672169
v  -0.018377855420 -0.021065209061 -0.049717672169
v  -0.018377855420 -0.019915428013 -0.048219256103
v  -0.011051066220 -0.017630577087 -0.046466026455
v  -0.018377859145 -0.017630580813 -0.046466026455
v  -0.011051066220 -0.014969812706 -0.045363903046
v  -0.018377853557 -0.014969815500 -0.045363903046
v  -0.011051065288 -0.012114460580 -0.044987991452
v  -0.018377853557 -0.012114462443 -0.044987987727
v  -0.011051065288 -0.009259108454 -0.045363903046
v  -0.018377851695 -0.009259110317 -0.045363903046
v  -0.011051064357 -0.006598344538 -0.046466026455
v  -0.018377857283 -0.006598346867 -0.046466030180
v  -0.011051064357 -0.004313494079 -0.048219256103
v  -0.018377857283 -0.004313497338 -0.048219256103
v  -0.011051064357 -0.002560265362 -0.050504107028
v  -0.018377855420 -0.002560270019 -0.050504107028
v  -0.011051065288 -0.001458140090 -0.053164869547
v  -0.018377855420 -0.001458144747 -0.053164869547
v  -0.011051065288 -0.001082227565 -0.056020222604
v  -0.018377855420 -0.001082230359 -0.056020222604
v  -0.008380114101 0.000500758179 -0.052639987320
v  -0.009530067444 -0.000742268749 -0.052973054349
v  -0.009530066513 -0.000341104344 -0.056020226330
v  -0.008380115964 0.000945772044 -0.056020226330
v  -0.008380115964 -0.000803965144 -0.049490105361
v  -0.009530066513 -0.001918432303 -0.050133544952
v  -0.008380115032 -0.002879481763 -0.046785242856
v  -0.009530066513 -0.003789441660 -0.047695204616
v  -0.008380115032 -0.005584344734 -0.044709727168
v  -0.009530066513 -0.006227783859 -0.045824196190
v  -0.008380115032 -0.008734223433 -0.043405003846
v  -0.009530067444 -0.009067291394 -0.044648032635
v  -0.008380115964 -0.012114460580 -0.042959988117
v  -0.009530067444 -0.012114460580 -0.044246867299
v  -0.008380116895 -0.015494696796 -0.043405003846
v  -0.009530068375 -0.015161629766 -0.044648032635
v  -0.008380115964 -0.018644576892 -0.044709727168
v  -0.009530067444 -0.018001139164 -0.045824192464
v  -0.008380116895 -0.021349441260 -0.046785242856
v  -0.009530069306 -0.020439479500 -0.047695200890
v  -0.008380117826 -0.022266648710 -0.047980569303
v  -0.009530070238 -0.021502355114 -0.049080364406
v  -0.021265877411 0.000945771113 -0.056020222604
v  -0.020001161844 -0.000348552130 -0.056020222604
v  -0.020001161844 -0.000749466009 -0.052974980325
v  -0.021265877411 0.000500753522 -0.052639983594
v  -0.020001163706 -0.001924886368 -0.050137266517
v  -0.021265877411 -0.000803969800 -0.049490105361
v  -0.020001163706 -0.003794707358 -0.047700468451
v  -0.021265875548 -0.002879483625 -0.046785242856
v  -0.020001163706 -0.006231506821 -0.045830644667
v  -0.021265879273 -0.005584346596 -0.044709727168
v  -0.020001159981 -0.009069220163 -0.044655222446
v  -0.021265877411 -0.008734224364 -0.043405003846
v  -0.020001159981 -0.012114462443 -0.044254310429
v  -0.021265877411 -0.012114461511 -0.042959988117
v  -0.020001159981 -0.015159705654 -0.044655222446
v  -0.021265877411 -0.015494700521 -0.043405003846
v  -0.020001165569 -0.017997417599 -0.045830640942
v  -0.021265881136 -0.018644580618 -0.044709727168
v  -0.020001161844 -0.020434219390 -0.047700464725
v  -0.021265879273 -0.021349441260 -0.046785239130
v  -0.020001163706 -0.021495915949 -0.049084089696
v  -0.021265881136 -0.022266652435 -0.047980569303
v  -0.007578075398 0.002459655516 -0.059925347567
v  -0.022202661261 0.002459653653 -0.059925343841
v  -0.007578075863 0.000952334143 -0.063564345241
v  -0.022202664986 0.000952332281 -0.063564337790
v  -0.007578076795 -0.001445468515 -0.066689215600
v  -0.022202663124 -0.001445470378 -0.066689215600
v  -0.007578077726 -0.004570345394 -0.069087021053
v  -0.022202666849 -0.004570344929 -0.069087021053
v  -0.007578078657 -0.008209338412 -0.070594340563
v  -0.022202664986 -0.008209338412 -0.070594340563
v  -0.007578079589 -0.012114460580 -0.071108460426
v  -0.022202664986 -0.012114460580 -0.071108460426
v  -0.007578080054 -0.016019582748 -0.070594340563
v  -0.022202668712 -0.016019582748 -0.070594340563
v  -0.007578080054 -0.019658576697 -0.069087021053
v  -0.022202666849 -0.019658578560 -0.069087021053
v  -0.007578080520 -0.022783450782 -0.066689223051
v  -0.022202666849 -0.022783454508 -0.066689215600
v  -0.007578080520 -0.023518919945 -0.065730735660
v  -0.022202668712 -0.023518925533 -0.065730735660
v  -0.007636294235 0.001591670327 -0.059692773968
v  -0.007636294700 0.000174119137 -0.063115037978
v  -0.007636294700 -0.002080879174 -0.066053807735
v  -0.007636296097 -0.005019648001 -0.068308807909
v  -0.007636297029 -0.008441914804 -0.069726355374
v  -0.007636297029 -0.012114460580 -0.070209853351
v  -0.007636297960 -0.015787005424 -0.069726355374
v  -0.007636297960 -0.019209273160 -0.068308807909
v  -0.007636297960 -0.022148041055 -0.066053807735
v  -0.007636297960 -0.022956646979 -0.065000012517
v  -0.022089703009 0.001588706858 -0.059691976756
v  -0.022089706734 0.000171462074 -0.063113503158
v  -0.022089704871 -0.002083047293 -0.066051639616
v  -0.022089710459 -0.005021180026 -0.068306148052
v  -0.022089706734 -0.008442708291 -0.069723397493
v  -0.022089706734 -0.012114461511 -0.070206791162
v  -0.022089708596 -0.015786215663 -0.069723397493
v  -0.022089708596 -0.019207743928 -0.068306148052
v  -0.022089708596 -0.022145876661 -0.066051639616
v  -0.022089710459 -0.022953998297 -0.064998477697
v  -0.018377857283 -0.021065209061 -0.062322773039
v  -0.011051069945 -0.021065205336 -0.062322776765
v  -0.011051069945 -0.019915428013 -0.063821196556
v  -0.018377857283 -0.019915428013 -0.063821189106
v  -0.011051069945 -0.017630577087 -0.065574422479
v  -0.018377861008 -0.017630580813 -0.065574422479
v  -0.011051069014 -0.014969812706 -0.066676542163
v  -0.018377857283 -0.014969815500 -0.066676542163
v  -0.011051069014 -0.012114460580 -0.067052453756
v  -0.018377857283 -0.012114462443 -0.067052461207
v  -0.011051068082 -0.009259108454 -0.066676542163
v  -0.018377855420 -0.009259110317 -0.066676542163
v  -0.011051068082 -0.006598344538 -0.065574422479
v  -0.018377859145 -0.006598346867 -0.065574422479
v  -0.011051067151 -0.004313494079 -0.063821189106
v  -0.018377859145 -0.004313497338 -0.063821189106
v  -0.011051066220 -0.002560265362 -0.061536341906
v  -0.018377857283 -0.002560270019 -0.061536338180
v  -0.011051066220 -0.001458140090 -0.058875579387
v  -0.018377855420 -0.001458144747 -0.058875575662
v  -0.009530068375 -0.000742268749 -0.059067394584
v  -0.008380116895 0.000500758179 -0.059400461614
v  -0.009530068375 -0.001918432303 -0.061906903982
v  -0.008380117826 -0.000803965144 -0.062550343573
v  -0.009530069306 -0.003789441660 -0.064345240593
v  -0.008380117826 -0.002879481763 -0.065255202353
v  -0.009530070238 -0.006227783859 -0.066216252744
v  -0.008380118757 -0.005584344734 -0.067330718040
v  -0.009530071169 -0.009067291394 -0.067392416298
v  -0.008380119689 -0.008734223433 -0.068635448813
v  -0.009530071169 -0.012114460580 -0.067793577909
v  -0.008380119689 -0.012114460580 -0.069080457091
v  -0.009530072100 -0.015161629766 -0.067392416298
v  -0.008380119689 -0.015494696796 -0.068635448813
v  -0.009530071169 -0.018001139164 -0.066216252744
v  -0.008380119689 -0.018644576892 -0.067330718040
v  -0.009530072100 -0.020439479500 -0.064345248044
v  -0.008380120620 -0.021349441260 -0.065255209804
v  -0.009530072100 -0.021502355114 -0.062960080802
v  -0.008380120620 -0.022266648710 -0.064059875906
v  -0.020001161844 -0.000749466009 -0.059065464884
v  -0.021265877411 0.000500753522 -0.059400461614
v  -0.020001165569 -0.001924886368 -0.061903178692
v  -0.021265881136 -0.000803969800 -0.062550336123
v  -0.020001165569 -0.003794707358 -0.064339980483
v  -0.021265879273 -0.002879483625 -0.065255202353
v  -0.020001165569 -0.006231506821 -0.066209807992
v  -0.021265882999 -0.005584346596 -0.067330718040
v  -0.020001163706 -0.009069220163 -0.067385226488
v  -0.021265881136 -0.008734224364 -0.068635441363
v  -0.020001163706 -0.012114462443 -0.067786142230
v  -0.021265881136 -0.012114461511 -0.069080457091
v  -0.020001163706 -0.015159705654 -0.067385226488
v  -0.021265881136 -0.015494700521 -0.068635441363
v  -0.020001167431 -0.017997417599 -0.066209807992
v  -0.021265884861 -0.018644580618 -0.067330718040
v  -0.020001165569 -0.020434219390 -0.064339980483
v  -0.021265882999 -0.021349441260 -0.065255202353
v  -0.020001165569 -0.021495915949 -0.062956355512
v  -0.021265884861 -0.022266652435 -0.064059875906
v  -0.018211858347 -0.008781109005 -0.041769295931
v  -0.012000000104 -0.008781110868 -0.041769295931
v  -0.011999995448 -0.002516928129 -0.028229754418
v  -0.015249995515 -0.002516927198 -0.028229754418
v  -0.018499996513 -0.004335077479 -0.032229743898
v  -0.018211856484 -0.006141250953 -0.042563010007
v  -0.018499994650 -0.001329102553 -0.032229743898
v  -0.015249994583 0.000489047728 -0.028229756281
v  -0.011999994516 0.000489046797 -0.028229756281
v  -0.011999999173 -0.006141252816 -0.042563010007
v  -0.012000001036 -0.015187826939 -0.034229762852
v  -0.005000001751 -0.015187829733 -0.034229762852
v  -0.004999999423 -0.015187824145 -0.025229731575
v  -0.011999998242 -0.015187822282 -0.025229729712
v  -0.011999991722 0.012712178752 -0.034229766577
v  -0.011999988928 0.012712182477 -0.025229731575
v  -0.004999990575 0.012712176889 -0.025229733437
v  -0.004999992438 0.012712176889 -0.034229770303
v  -0.011999999173 -0.004127569497 -0.045440968126
v  -0.010111539625 -0.004127569962 -0.045440968126
v  -0.010111542419 -0.015187828802 -0.042617261410
v  -0.012000001967 -0.015187827870 -0.042617261410
v  -0.004999995232 0.004086531699 -0.034229766577
v  -0.004999993369 0.004086533561 -0.025229731575
v  -0.011999992654 0.004086536355 -0.025229729712
v  -0.011999993585 0.004086534493 -0.034229762852
v  -0.012000001036 -0.015187827870 -0.037435457110
v  -0.005000002217 -0.015187829733 -0.037435457110
v  -0.004999997560 -0.000772533007 -0.040861770511
v  -0.011999996379 -0.000772531144 -0.040861770511
# 240 vertices

vn -0.000000063700 1.000000000000 -0.000000057409
vn -0.000000063700 1.000000000000 -0.000000052625
vn -0.000000049766 0.965925872326 0.258819073439
vn -0.000000049766 0.965925812721 0.258818984032
vn -0.000000086593 0.866025388241 0.500000119209
vn -0.000000086593 0.866025269032 0.500000119209
vn -0.000000015427 0.707106947899 0.707106530666
vn -0.000000015427 0.707107007504 0.707106530666
vn 0.000000098537 0.500000298023 0.866025269032
vn 0.000000098537 0.500000298023 0.866025209427
vn 0.000000125908 0.258819013834 0.965925872326
vn 0.000000125908 0.258819013834 0.965925812721
vn 0.000000127401 -0.000000047841 1.000000000000
vn 0.000000127401 0.000000009568 1.000000000000
vn 0.000000076142 -0.258818745613 0.965925931931
vn 0.000000076142 -0.258818715811 0.965925872326
vn 0.000000121429 -0.500000119209 0.866025328636
vn 0.000000121429 -0.500000059605 0.866025388241
vn 0.000000275292 -0.707106769085 0.707106828690
vn 0.000000275292 -0.707106649876 0.707106888294
vn 0.000000375876 -0.946930050850 0.321439653635
vn 0.000000375875 -0.946929991245 0.321439921856
vn 0.954406201839 -0.288339674473 -0.077260300517
vn 0.954406142235 -0.298511356115 -0.000000201235
vn 0.997907876968 -0.064652256668 -0.000000177842
vn 0.997907936573 -0.062449250370 -0.016733277589
vn 0.954406142235 -0.258518278599 -0.149255812168
vn 0.997907876968 -0.055990196764 -0.032326046377
vn 0.954405963421 -0.211079448462 -0.211079582572
vn 0.997907936573 -0.045715611428 -0.045715622604
vn 0.954406142235 -0.149255901575 -0.258518368006
vn 0.997907876968 -0.032325863838 -0.055989880115
vn 0.954406261444 -0.077260322869 -0.288339376450
vn 0.997907936573 -0.016733089462 -0.062448550016
vn 0.954406082630 -0.000000186600 -0.298511415720
vn 0.997907996178 -0.000000180752 -0.064651399851
vn 0.954406261444 0.077259995043 -0.288339376450
vn 0.997907936573 0.016732804477 -0.062448460609
vn 0.954406261444 0.149255275726 -0.258517950773
vn 0.997907936573 0.032325558364 -0.055989824235
vn 0.954406261444 0.211078822613 -0.211079403758
vn 0.997907876968 0.045715246350 -0.045715671033
vn 0.953666985035 0.280851393938 -0.107897095382
vn 0.997437000275 0.065317265689 -0.029207473621
vn -0.936445951462 -0.350811600685 0.000000104667
vn -0.936446130276 -0.338857680559 -0.090796709061
vn -0.992244243622 -0.120068378747 -0.032172262669
vn -0.992244124413 -0.124304540455 0.000000191989
vn -0.936446011066 -0.303812026978 -0.175405815244
vn -0.992244124413 -0.107650920749 -0.062152244151
vn -0.936445951462 -0.248061254621 -0.248061329126
vn -0.992244124413 -0.087896488607 -0.087896481156
vn -0.936446130276 -0.175405696034 -0.303811341524
vn -0.992244243622 -0.062151748687 -0.107650011778
vn -0.936446368694 -0.090796686709 -0.338856995106
vn -0.992244243622 -0.032172214240 -0.120068028569
vn -0.936446070671 0.000000206900 -0.350811630487
vn -0.992244005203 0.000000363292 -0.124305345118
vn -0.936445951462 0.090797051787 -0.338858276606
vn -0.992243885994 0.032173059881 -0.120070666075
vn -0.936445891857 0.175406053662 -0.303811997175
vn -0.992244005203 0.062152896076 -0.107651896775
vn -0.936445891857 0.248061954975 -0.248061150312
vn -0.992244064808 0.087897501886 -0.087896436453
vn -0.930829823017 0.344435483217 -0.122147500515
vn -0.990516364574 0.125461608171 -0.056005228311
vn 0.228966653347 0.688321650028 -0.688322246075
vn 0.190844297409 0.939072966576 -0.285867929459
vn -0.177971020341 0.940841734409 -0.288345277309
vn -0.214350521564 0.690670907497 -0.690671861172
vn 0.228966996074 0.486716955900 -0.843018829823
vn -0.214350759983 0.488378584385 -0.845896065235
vn 0.228967010975 0.251942723989 -0.940265357494
vn -0.214350298047 0.252803206444 -0.943474650383
vn 0.228966891766 -0.000000055406 -0.973434209824
vn -0.214350357652 0.000000024040 -0.976756870747
vn 0.228966891766 -0.251943200827 -0.940265297890
vn -0.214350149035 -0.252803623676 -0.943474590778
vn 0.228966772556 -0.486717402935 -0.843018651009
vn -0.214350283146 -0.488378942013 -0.845895886421
vn 0.228966772556 -0.688321888447 -0.688321888447
vn -0.214350074530 -0.690671443939 -0.690671443939
vn 0.228967294097 -0.843018531799 -0.486717492342
vn -0.214349761605 -0.845896184444 -0.488378733397
vn 0.228967353702 -0.940265238285 -0.251943230629
vn -0.214349806309 -0.943474769592 -0.252803474665
vn 0.228967189789 -0.973434209824 -0.000000151763
vn -0.214349865913 -0.976756989956 -0.000000026444
vn 0.795498788357 -0.585307896137 -0.156832486391
vn 0.611003279686 -0.764654040337 -0.204888075590
vn 0.611003220081 -0.791628181934 -0.000000055176
vn 0.795498609543 -0.605955243111 -0.000000198452
vn 0.795498609543 -0.524772524834 -0.302977859974
vn 0.611003458500 -0.685569643974 -0.395814239979
vn 0.795498549938 -0.428474992514 -0.428475379944
vn 0.611003220081 -0.559765517712 -0.559765636921
vn 0.795498609543 -0.302977919579 -0.524772584438
vn 0.611003279686 -0.395814329386 -0.685569882393
vn 0.795498728752 -0.156832784414 -0.585307776928
vn 0.611003458500 -0.204888284206 -0.764653801918
vn 0.795498609543 -0.000000173497 -0.605955302715
vn 0.611003577709 -0.000000129545 -0.791627764702
vn 0.795498728752 0.156832456589 -0.585307836533
vn 0.611003458500 0.204887896776 -0.764653921127
vn 0.795498728752 0.302977651358 -0.524772644043
vn 0.611003220081 0.395813882351 -0.685570120811
vn 0.795498609543 0.428474873304 -0.428475350142
vn 0.611002922058 0.559765458107 -0.559766113758
vn 0.735867083073 0.649152755737 -0.192614570260
vn 0.539643645287 0.806365311146 -0.241991072893
vn -0.766048371792 -0.642783045769 -0.000000002377
vn -0.580811679363 -0.814037919044 -0.000000002397
vn -0.580811679363 -0.786300182343 -0.210688710213
vn -0.766048312187 -0.620880603790 -0.166364699602
vn -0.580811977386 -0.704977333546 -0.407019048929
vn -0.766048371792 -0.556666314602 -0.321391433477
vn -0.580812156200 -0.575611591339 -0.575611412525
vn -0.766048431396 -0.454516053200 -0.454516112804
vn -0.580811917782 -0.407019436359 -0.704977035522
vn -0.766048312187 -0.321391671896 -0.556666314602
vn -0.580811560154 -0.210689008236 -0.786300241947
vn -0.766048371792 -0.166364893317 -0.620880544186
vn -0.580811142921 0.000000019172 -0.814038336277
vn -0.766048371792 -0.000000033278 -0.642783045769
vn -0.580811321735 0.210688844323 -0.786300480366
vn -0.766048431396 0.166364774108 -0.620880544186
vn -0.580811679363 0.407019048929 -0.704977512360
vn -0.766048312187 0.321391820908 -0.556666314602
vn -0.580811500549 0.575611472130 -0.575612246990
vn -0.766047835350 0.454516619444 -0.454516619444
vn -0.509428322315 0.823740184307 -0.248866885900
vn -0.702291846275 0.682059705257 -0.203913569450
vn -0.000000182143 0.965925812721 -0.258818924427
vn -0.000000182143 0.965925872326 -0.258818954229
vn -0.000000262764 0.866025328636 -0.500000298023
vn -0.000000144321 0.707106888294 -0.707106649876
vn -0.000000144321 0.707106828690 -0.707106709480
vn -0.000000011446 0.500000238419 -0.866025209427
vn -0.000000011446 0.500000298023 -0.866025328636
vn 0.000000003484 0.258819043636 -0.965925812721
vn 0.000000003484 0.258819073439 -0.965925812721
vn 0.000000000000 0.000000019136 -1.000000000000
vn 0.000000000000 -0.000000033489 -1.000000000000
vn 0.000000012441 -0.258818984032 -0.965925812721
vn -0.000000030855 -0.499999910593 -0.866025447845
vn -0.000000030855 -0.499999850988 -0.866025388241
vn 0.000000006189 -0.707106828690 -0.707106709480
vn 0.000000006189 -0.707107007504 -0.707106590271
vn 0.000000253565 -0.946930170059 -0.321439385414
vn 0.000000253565 -0.946930170059 -0.321439206600
vn 0.954406201839 -0.288339853287 0.077260211110
vn 0.997907817364 -0.062449418008 0.016733039171
vn 0.954406142235 -0.258518546820 0.149255737662
vn 0.997907817364 -0.055990461260 0.032325983047
vn 0.954406142235 -0.211079344153 0.211079135537
vn 0.997907876968 -0.045715909451 0.045715585351
vn 0.954406261444 -0.149255782366 0.258517831564
vn 0.997907936573 -0.032326180488 0.055990047753
vn 0.954406142235 -0.077260494232 0.288339674473
vn 0.997907817364 -0.016733290628 0.062448680401
vn 0.954406142235 -0.000000121961 0.298511266708
vn 0.997907936573 -0.000000167818 0.064651258290
vn 0.954406261444 0.077260136604 0.288339406252
vn 0.997907876968 0.016732912511 0.062448367476
vn 0.954406261444 0.149255305529 0.258517891169
vn 0.997907876968 0.032325588167 0.055989667773
vn 0.954406142235 0.211079329252 0.211079135537
vn 0.997907936573 0.045715086162 0.045715130866
vn 0.953666806221 0.280851840973 0.107896633446
vn 0.997437000275 0.065317101777 0.029206858948
vn -0.992244064808 -0.120069265366 0.032172951847
vn -0.936445951462 -0.338857978582 0.090797320008
vn -0.992244064808 -0.107651300728 0.062152784318
vn -0.936445891857 -0.303811937571 0.175406217575
vn -0.992244064808 -0.087896294892 0.087896630168
vn -0.936445951462 -0.248061120510 0.248061448336
vn -0.992244184017 -0.062151867896 0.107650600374
vn -0.936446011066 -0.175405830145 0.303811877966
vn -0.992244124413 -0.032172713429 0.120068959892
vn -0.936446130276 -0.090797044337 0.338857591152
vn -0.992244005203 0.000000418238 0.124305821955
vn -0.936445891857 0.000000304265 0.350811988115
vn -0.992243885994 0.032173052430 0.120070606470
vn -0.936445772648 0.090797193348 0.338858485222
vn -0.992244005203 0.062152583152 0.107651807368
vn -0.936445832253 0.175406262279 0.303812325001
vn -0.992244005203 0.087897375226 0.087896421552
vn -0.936445832253 0.248061940074 0.248061448336
vn -0.990516483784 0.125461503863 0.056005440652
vn -0.930829882622 0.344435125589 0.122147858143
vn -0.177970930934 0.940841853619 0.288345366716
vn 0.190844267607 0.939072966576 0.285867959261
vn 0.228966385126 0.688321948051 0.688322067261
vn -0.214350253344 0.690671205521 0.690671622753
vn 0.228966817260 0.486716747284 0.843018949032
vn -0.214350879192 0.488378494978 0.845896124840
vn 0.228967249393 0.251942455769 0.940265297890
vn -0.214351087809 0.252803117037 0.943474531174
vn 0.228967264295 -0.000000057815 0.973434150219
vn -0.214351534843 0.000000019232 0.976756632328
vn 0.228967323899 -0.251942574978 0.940265297890
vn -0.214350938797 -0.252803117037 0.943474531174
vn 0.228966996074 -0.486717492342 0.843018591404
vn -0.214350894094 -0.488378673792 0.845896005630
vn 0.228966698050 -0.688322305679 0.688321650028
vn -0.214350342751 -0.690671980381 0.690670788288
vn 0.228967368603 -0.843018352985 0.486717581749
vn -0.214349836111 -0.845896184444 0.488378703594
vn 0.228967428207 -0.940265238285 0.251943171024
vn -0.214349746704 -0.943474769592 0.252803504467
vn 0.611003398895 -0.764653980732 0.204887896776
vn 0.795498788357 -0.585307955742 0.156832292676
vn 0.611003518105 -0.685569524765 0.395814359188
vn 0.795498728752 -0.524772465229 0.302977919579
vn 0.611003041267 -0.559765756130 0.559765696526
vn 0.795498788357 -0.428474992514 0.428474932909
vn 0.611003398895 -0.395814627409 0.685569524765
vn 0.795498967171 -0.302978217602 0.524771988392
vn 0.611004054546 -0.204887777567 0.764653444290
vn 0.795498967171 -0.156832545996 0.585307598114
vn 0.611004173756 -0.000000050378 0.791627407074
vn 0.795498788357 -0.000000043968 0.605955243111
vn 0.611003994942 0.204887673259 0.764653503895
vn 0.795498967171 0.156832322478 0.585307538509
vn 0.611003220081 0.395813882351 0.685570120811
vn 0.795498728752 0.302977770567 0.524772584438
vn 0.611003041267 0.559765696526 0.559765756130
vn 0.795498609543 0.428475260735 0.428475081921
vn 0.539643466473 0.806365668774 0.241990283132
vn 0.735866904259 0.649153172970 0.192613840103
vn -0.580811619759 -0.786300241947 0.210689038038
vn -0.766048312187 -0.620880484581 0.166365116835
vn -0.580811560154 -0.704977393150 0.407019287348
vn -0.766048133373 -0.556666493416 0.321391761303
vn -0.580811500549 -0.575612306595 0.575611352921
vn -0.766047894955 -0.454516649246 0.454516470432
vn -0.580811321735 -0.407019466162 0.704977631569
vn -0.766047358513 -0.321392178535 0.556667268276
vn -0.580810904503 -0.210688859224 0.786300718784
vn -0.766047537327 -0.166365176439 0.620881497860
vn -0.580811083317 0.000000016776 0.814038336277
vn -0.766047537327 0.000000038032 0.642783880234
vn -0.580811083317 0.210689038038 0.786300718784
vn -0.766047537327 0.166365206242 0.620881557465
vn -0.580811142921 0.407019466162 0.704977750778
vn -0.766047477722 0.321392476559 0.556666970253
vn -0.580810904503 0.575611889362 0.575612485409
vn -0.766047298908 0.454516857862 0.454517215490
vn -0.509428262711 0.823740243912 0.248867377639
vn -0.702291846275 0.682059586048 0.203914180398
vn -0.002489852253 -0.907361865044 0.420343220234
vn -0.002489852021 -0.907361745834 0.420343190432
vn -0.002489852253 -0.907361865044 0.420343190432
vn -0.002489851788 -0.907361745834 0.420343130827
vn -0.002489851788 -0.907361745834 0.420343160629
vn 0.002456312068 0.907402575016 -0.420255243778
vn 0.002456312068 0.907402575016 -0.420255213976
vn 0.002456312301 0.907402694225 -0.420255273581
vn 0.002456312301 0.907402575016 -0.420255273581
vn 0.999999940395 -0.000000353874 -0.000000170424
vn 1.000000000000 -0.000000353874 -0.000000170424
vn 0.000000000000 0.000000619648 1.000000000000
vn -0.912460327148 -0.001513085444 0.409162402153
vn -0.999622523785 -0.003824039130 -0.027205763385
vn -0.999622523785 -0.003824039362 -0.027205765247
vn -0.971542716026 -0.002516919514 0.236851081252
vn -0.000000086310 -0.287932485342 -0.957650721073
vn -0.000000086310 -0.287932485342 -0.957650780678
vn -0.000000086309 -0.287932455540 -0.957650661469
vn -0.776113212109 0.000000557705 0.630593597889
vn -0.000000332615 -1.000000000000 0.000000357200
vn -0.000000332615 -1.000000000000 0.000000569140
vn 0.000000532184 0.999999940395 -0.000000206960
vn 0.000000532184 1.000000000000 -0.000000206960
vn -0.000000105477 -0.247367709875 -0.968921661377
vn -0.000000105477 -0.247367694974 -0.968921601772
vn 1.000000000000 -0.000000329251 -0.000000195632
vn 1.000000000000 -0.000000325035 -0.000000219895
vn 1.000000000000 -0.000000326155 -0.000000232830
vn 1.000000000000 -0.000000334760 -0.000000173620
vn 0.000000266092 0.000000107971 1.000000000000
vn 0.000000266092 -0.000000000000 1.000000000000
vn -1.000000000000 0.000000331074 0.000000206960
vn -1.000000000000 0.000000339956 0.000000182681
vn -1.000000000000 0.000000353961 0.000000154184
vn -1.000000000000 0.000000338235 0.000000206960
vn -0.000000532185 -0.000000431885 -0.999999940395
vn -0.000000532185 -0.000000431885 -1.000000000000
vn 0.999999940395 -0.000000323914 -0.000000206960
vn 0.000000266092 0.000000215943 1.000000000000
vn -1.000000000000 0.000000323914 0.000000206960
vn -0.000000323476 -0.999999940395 0.000000105217
vn -0.000000326487 -1.000000000000 0.000000118410
vn 0.942716658115 -0.079485230148 -0.323986619711
vn 0.954247772694 -0.071246579289 -0.290405243635
vn 0.000000147380 0.806660413742 -0.591015219688
vn 0.000000163462 0.806660413742 -0.591015338898
vn 0.000000110623 0.806660473347 -0.591015100479
vn -1.000000000000 0.000000364607 0.000000160290
vn -1.000000000000 0.000000363889 0.000000168611
vn -0.000000314337 -1.000000000000 0.000000065172
vn 0.709042310715 -0.168018862605 -0.684856712818
vn 0.709042191505 -0.168018847704 -0.684856712818
vn 0.000000216300 0.806660294533 -0.591015398502
vn 0.000000216300 0.806660354137 -0.591015398502
vn -0.999999940395 0.000000356066 0.000000259264
vn -1.000000000000 0.000000356066 0.000000259264
# 307 vertex normals

vt 0.750000000000 0.000000000000 0.000000000000
vt 0.750000000000 1.000000000000 0.000000000000
vt 0.791666626930 1.000000000000 0.000000000000
vt 0.791666626930 0.000000000000 0.000000000000
vt 0.833333313465 1.000000000000 0.000000000000
vt 0.833333313465 0.000000000000 0.000000000000
vt 0.875000000000 1.000000000000 0.000000000000
vt 0.875000000000 0.000000000000 0.000000000000
vt 0.916666686535 1.000000000000 0.000000000000
vt 0.916666686535 0.000000000000 0.000000000000
vt 0.958333313465 1.000000000000 0.000000000000
vt 0.958333313465 0.000000000000 0.000000000000
vt 0.999999940395 1.000000000000 0.000000000000
vt 0.999999940395 0.000000000000 0.000000000000
vt -0.000000059605 0.000000000000 0.000000000000
vt -0.000000059605 1.000000000000 0.000000000000
vt 0.041666656733 1.000000000000 0.000000000000
vt 0.041666656733 0.000000000000 0.000000000000
vt 0.083333313465 1.000000000000 0.000000000000
vt 0.083333313465 0.000000000000 0.000000000000
vt 0.124999970198 1.000000000000 0.000000000000
vt 0.124999970198 0.000000000000 0.000000000000
vt 0.166666626930 1.000000000000 0.000000000000
vt 0.166666626930 0.000000000000 0.000000000000
vt 0.708333253860 0.000000000000 0.000000000000
vt 0.666666567326 0.000000000000 0.000000000000
vt 0.624999880791 0.000000000000 0.000000000000
vt 1.000000000000 0.000000000000 0.000000000000
vt 0.000000000000 0.000000000000 0.000000000000
vt 0.000000000000 1.000000000000 0.000000000000
vt 0.500000000000 1.000000000000 0.000000000000
vt 1.000000000000 1.000000000000 0.000000000000
vt 0.500000000000 0.000000000000 0.000000000000
vt 0.000000000000 0.500000000000 0.000000000000
vt 1.000000000000 0.500000000000 0.000000000000
# 35 texture coords

usemtl 08___Default
s off
f 120/83/247 121/84/248 122/85/249
f 122/85/249 123/86/250 120/83/247
f 123/86/250 122/85/249 124/87/251
f 124/87/251 125/88/252 123/86/250
f 125/88/252 124/87/251 126/89/253
f 126/89/253 127/90/254 125/88/252
f 127/90/254 126/89/253 128/91/255
f 128/91/255 129/92/256 127/90/254
f 129/92/256 128/91/255 130/93/257
f 130/93/257 131/94/258 129/92/256
f 131/94/258 130/93/257 132/95/259
f 132/95/259 133/96/260 131/94/258
f 133/97/260 132/98/259 134/99/261
f 134/99/261 135/100/262 133/97/260
f 135/100/262 134/99/261 136/101/263
f 136/101/263 137/102/264 135/100/262
f 137/102/264 136/101/263 138/103/265
f 138/103/265 139/104/266 137/102/264
f 139/104/266 138/103/265 140/105/267
f 140/105/267 141/106/268 139/104/266
f 142/86/269 143/83/270 120/83/271
f 120/83/271 123/86/272 142/86/269
f 144/88/273 142/86/269 123/86/272
f 123/86/272 125/88/274 144/88/273
f 145/90/275 144/88/273 125/88/274
f 125/88/274 127/90/276 145/90/275
f 146/92/277 145/90/275 127/90/276
f 127/90/276 129/92/278 146/92/277
f 147/94/279 146/92/277 129/92/278
f 129/92/278 131/94/280 147/94/279
f 148/96/281 147/94/279 131/94/280
f 131/94/280 133/96/282 148/96/281
f 149/100/283 148/97/281 133/97/282
f 133/97/282 135/100/284 149/100/283
f 150/102/285 149/100/283 135/100/284
f 135/100/284 137/102/286 150/102/285
f 151/104/287 150/102/285 137/102/286
f 137/102/286 139/104/288 151/104/287
f 152/106/289 151/104/287 139/104/288
f 139/104/288 141/106/290 152/106/289
f 153/84/291 154/85/292 122/85/293
f 122/85/293 121/84/294 153/84/291
f 154/85/292 155/87/295 124/87/296
f 124/87/296 122/85/293 154/85/292
f 155/87/295 156/89/297 126/89/298
f 126/89/298 124/87/296 155/87/295
f 156/89/297 157/91/299 128/91/300
f 128/91/300 126/89/298 156/89/297
f 157/91/299 158/93/301 130/93/302
f 130/93/302 128/91/300 157/91/299
f 158/93/301 159/95/303 132/95/304
f 132/95/304 130/93/302 158/93/301
f 159/98/303 160/99/305 134/99/306
f 134/99/306 132/98/304 159/98/303
f 160/99/305 161/101/307 136/101/308
f 136/101/308 134/99/306 160/99/305
f 161/101/307 162/103/309 138/103/310
f 138/103/310 136/101/308 161/101/307
f 162/103/309 163/105/311 140/105/312
f 140/105/312 138/103/310 162/103/309
f 164/97/313 165/100/314 166/99/315
f 166/99/315 167/95/316 164/97/313
f 168/96/317 164/97/313 167/95/316
f 167/95/316 169/93/318 168/96/317
f 170/94/319 168/96/317 169/93/318
f 169/93/318 171/91/320 170/94/319
f 172/92/321 170/94/319 171/91/320
f 171/91/320 173/89/322 172/92/321
f 174/90/323 172/92/321 173/89/322
f 173/89/322 175/87/324 174/90/323
f 176/88/325 174/90/323 175/87/324
f 175/87/324 177/84/326 176/88/325
f 178/86/327 176/88/325 177/84/326
f 177/84/326 179/85/328 178/86/327
f 180/83/329 178/86/327 179/85/328
f 179/85/328 181/107/330 180/83/329
f 182/98/331 180/83/329 181/107/330
f 181/107/330 183/108/332 182/98/331
f 184/97/333 182/98/331 183/108/332
f 183/108/332 185/109/334 184/97/333
f 186/86/335 187/86/336 188/83/337
f 188/83/337 189/83/338 186/86/335
f 190/88/339 191/88/340 187/86/336
f 187/86/336 186/86/335 190/88/339
f 192/90/341 193/90/342 191/88/340
f 191/88/340 190/88/339 192/90/341
f 194/92/343 195/92/344 193/90/342
f 193/90/342 192/90/341 194/92/343
f 196/94/345 197/94/346 195/92/344
f 195/92/344 194/92/343 196/94/345
f 198/96/347 199/96/348 197/94/346
f 197/94/346 196/94/345 198/96/347
f 200/100/349 201/100/350 199/97/348
f 199/97/348 198/97/347 200/100/349
f 202/102/351 203/102/352 201/100/350
f 201/100/350 200/100/349 202/102/351
f 204/104/353 205/104/354 203/102/352
f 203/102/352 202/102/351 204/104/353
f 206/106/355 207/106/356 205/104/354
f 205/104/354 204/104/353 206/106/355
f 208/84/357 209/84/358 210/85/359
f 210/85/359 211/85/360 208/84/357
f 211/85/360 210/85/359 212/87/361
f 212/87/361 213/87/362 211/85/360
f 213/87/362 212/87/361 214/89/363
f 214/89/363 215/89/364 213/87/362
f 215/89/364 214/89/363 216/91/365
f 216/91/365 217/91/366 215/89/364
f 217/91/366 216/91/365 218/93/367
f 218/93/367 219/93/368 217/91/366
f 219/93/368 218/93/367 220/95/369
f 220/95/369 221/95/370 219/93/368
f 221/98/370 220/98/369 222/99/371
f 222/99/371 223/99/372 221/98/370
f 223/99/372 222/99/371 224/101/373
f 224/101/373 225/101/374 223/99/372
f 225/101/374 224/101/373 226/103/375
f 226/103/375 227/103/376 225/101/374
f 227/103/376 226/103/375 228/105/377
f 228/105/377 229/105/378 227/103/376
f 142/86/269 186/86/335 189/83/338
f 189/83/338 143/83/270 142/86/269
f 144/88/273 190/88/339 186/86/335
f 186/86/335 142/86/269 144/88/273
f 145/90/275 192/90/341 190/88/339
f 190/88/339 144/88/273 145/90/275
f 146/92/277 194/92/343 192/90/341
f 192/90/341 145/90/275 146/92/277
f 147/94/279 196/94/345 194/92/343
f 194/92/343 146/92/277 147/94/279
f 148/96/281 198/96/347 196/94/345
f 196/94/345 147/94/279 148/96/281
f 149/100/283 200/100/349 198/97/347
f 198/97/347 148/97/281 149/100/283
f 150/102/285 202/102/351 200/100/349
f 200/100/349 149/100/283 150/102/285
f 151/104/287 204/104/353 202/102/351
f 202/102/351 150/102/285 151/104/287
f 152/106/289 206/106/355 204/104/353
f 204/104/353 151/104/287 152/106/289
f 153/84/291 208/84/357 211/85/360
f 211/85/360 154/85/292 153/84/291
f 154/85/292 211/85/360 213/87/362
f 213/87/362 155/87/295 154/85/292
f 155/87/295 213/87/362 215/89/364
f 215/89/364 156/89/297 155/87/295
f 156/89/297 215/89/364 217/91/366
f 217/91/366 157/91/299 156/89/297
f 157/91/299 217/91/366 219/93/368
f 219/93/368 158/93/301 157/91/299
f 158/93/301 219/93/368 221/95/370
f 221/95/370 159/95/303 158/93/301
f 159/98/303 221/98/370 223/99/372
f 223/99/372 160/99/305 159/98/303
f 160/99/305 223/99/372 225/101/374
f 225/101/374 161/101/307 160/99/305
f 161/101/307 225/101/374 227/103/376
f 227/103/376 162/103/309 161/101/307
f 162/103/309 227/103/376 229/105/378
f 229/105/378 163/105/311 162/103/309
f 187/86/336 182/86/331 184/83/333
f 184/83/333 188/83/337 187/86/336
f 191/88/340 180/88/329 182/86/331
f 182/86/331 187/86/336 191/88/340
f 193/90/342 178/90/327 180/88/329
f 180/88/329 191/88/340 193/90/342
f 195/92/344 176/92/325 178/90/327
f 178/90/327 193/90/342 195/92/344
f 197/94/346 174/94/323 176/92/325
f 176/92/325 195/92/344 197/94/346
f 199/96/348 172/96/321 174/94/323
f 174/94/323 197/94/346 199/96/348
f 201/100/350 170/100/319 172/97/321
f 172/97/321 199/97/348 201/100/350
f 203/102/352 168/102/317 170/100/319
f 170/100/319 201/100/350 203/102/352
f 205/104/354 164/104/313 168/102/317
f 168/102/317 203/102/352 205/104/354
f 207/106/356 165/106/314 164/104/313
f 164/104/313 205/104/354 207/106/356
f 209/84/358 185/84/334 183/85/332
f 183/85/332 210/85/359 209/84/358
f 210/85/359 183/85/332 181/87/330
f 181/87/330 212/87/361 210/85/359
f 212/87/361 181/87/330 179/89/328
f 179/89/328 214/89/363 212/87/361
f 214/89/363 179/89/328 177/91/326
f 177/91/326 216/91/365 214/89/363
f 216/91/365 177/91/326 175/93/324
f 175/93/324 218/93/367 216/91/365
f 218/93/367 175/93/324 173/95/322
f 173/95/322 220/95/369 218/93/367
f 220/98/369 173/98/322 171/99/320
f 171/99/320 222/99/371 220/98/369
f 222/99/371 171/99/320 169/101/318
f 169/101/318 224/101/373 222/99/371
f 224/101/373 169/101/318 167/103/316
f 167/103/316 226/103/375 224/101/373
f 226/103/375 167/103/316 166/105/315
f 166/105/315 228/105/377 226/103/375
f 120/83/247 230/86/379 231/85/380
f 231/85/380 121/84/248 120/83/247
f 230/86/379 232/88/381 233/87/381
f 233/87/381 231/85/380 230/86/379
f 232/88/381 234/90/382 235/89/383
f 235/89/383 233/87/381 232/88/381
f 234/90/382 236/92/384 237/91/385
f 237/91/385 235/89/383 234/90/382
f 236/92/384 238/94/386 239/93/387
f 239/93/387 237/91/385 236/92/384
f 238/94/386 240/96/388 241/95/389
f 241/95/389 239/93/387 238/94/386
f 240/97/388 242/100/390 243/99/390
f 243/99/390 241/98/389 240/97/388
f 242/100/390 244/102/391 245/101/392
f 245/101/392 243/99/390 242/100/390
f 244/102/391 246/104/393 247/103/394
f 247/103/394 245/101/392 244/102/391
f 246/104/393 248/106/395 249/105/396
f 249/105/396 247/103/394 246/104/393
f 120/83/271 143/83/270 250/86/397
f 250/86/397 230/86/398 120/83/271
f 230/86/398 250/86/397 251/88/399
f 251/88/399 232/88/400 230/86/398
f 232/88/400 251/88/399 252/90/401
f 252/90/401 234/90/402 232/88/400
f 234/90/402 252/90/401 253/92/403
f 253/92/403 236/92/404 234/90/402
f 236/92/404 253/92/403 254/94/405
f 254/94/405 238/94/406 236/92/404
f 238/94/406 254/94/405 255/96/407
f 255/96/407 240/96/408 238/94/406
f 240/97/408 255/97/407 256/100/409
f 256/100/409 242/100/410 240/97/408
f 242/100/410 256/100/409 257/102/411
f 257/102/411 244/102/412 242/100/410
f 244/102/412 257/102/411 258/104/413
f 258/104/413 246/104/414 244/102/412
f 246/104/414 258/104/413 259/106/415
f 259/106/415 248/106/416 246/104/414
f 231/85/417 260/85/418 153/84/291
f 153/84/291 121/84/294 231/85/417
f 233/87/419 261/87/420 260/85/418
f 260/85/418 231/85/417 233/87/419
f 235/89/421 262/89/422 261/87/420
f 261/87/420 233/87/419 235/89/421
f 237/91/423 263/91/424 262/89/422
f 262/89/422 235/89/421 237/91/423
f 239/93/425 264/93/426 263/91/424
f 263/91/424 237/91/423 239/93/425
f 241/95/427 265/95/428 264/93/426
f 264/93/426 239/93/425 241/95/427
f 243/99/429 266/99/430 265/98/428
f 265/98/428 241/98/427 243/99/429
f 245/101/431 267/101/432 266/99/430
f 266/99/430 243/99/429 245/101/431
f 247/103/433 268/103/434 267/101/432
f 267/101/432 245/101/431 247/103/433
f 249/105/435 269/105/436 268/103/434
f 268/103/434 247/103/433 249/105/435
f 270/99/437 271/100/438 272/97/439
f 272/97/439 273/95/440 270/99/437
f 273/95/440 272/97/439 274/96/441
f 274/96/441 275/93/442 273/95/440
f 275/93/442 274/96/441 276/94/443
f 276/94/443 277/91/444 275/93/442
f 277/91/444 276/94/443 278/92/445
f 278/92/445 279/89/446 277/91/444
f 279/89/446 278/92/445 280/90/447
f 280/90/447 281/87/448 279/89/446
f 281/87/448 280/90/447 282/88/449
f 282/88/449 283/84/450 281/87/448
f 283/84/450 282/88/449 284/86/451
f 284/86/451 285/85/452 283/84/450
f 285/85/452 284/86/451 286/83/453
f 286/83/453 287/107/454 285/85/452
f 287/107/454 286/83/453 288/98/455
f 288/98/455 289/108/456 287/107/454
f 289/108/456 288/98/455 184/97/333
f 184/97/333 185/109/334 289/108/456
f 188/83/337 290/86/457 291/86/458
f 291/86/458 189/83/338 188/83/337
f 290/86/457 292/88/459 293/88/460
f 293/88/460 291/86/458 290/86/457
f 292/88/459 294/90/461 295/90/462
f 295/90/462 293/88/460 292/88/459
f 294/90/461 296/92/463 297/92/464
f 297/92/464 295/90/462 294/90/461
f 296/92/463 298/94/465 299/94/466
f 299/94/466 297/92/464 296/92/463
f 298/94/465 300/96/467 301/96/468
f 301/96/468 299/94/466 298/94/465
f 300/97/467 302/100/469 303/100/470
f 303/100/470 301/97/468 300/97/467
f 302/100/469 304/102/471 305/102/472
f 305/102/472 303/100/470 302/100/469
f 304/102/471 306/104/473 307/104/474
f 307/104/474 305/102/472 304/102/471
f 306/104/473 308/106/475 309/106/476
f 309/106/476 307/104/474 306/104/473
f 310/85/477 209/84/358 208/84/357
f 208/84/357 311/85/478 310/85/477
f 312/87/479 310/85/477 311/85/478
f 311/85/478 313/87/480 312/87/479
f 314/89/481 312/87/479 313/87/480
f 313/87/480 315/89/482 314/89/481
f 316/91/483 314/89/481 315/89/482
f 315/89/482 317/91/484 316/91/483
f 318/93/485 316/91/483 317/91/484
f 317/91/484 319/93/486 318/93/485
f 320/95/487 318/93/485 319/93/486
f 319/93/486 321/95/488 320/95/487
f 322/99/489 320/98/487 321/98/488
f 321/98/488 323/99/490 322/99/489
f 324/101/491 322/99/489 323/99/490
f 323/99/490 325/101/492 324/101/491
f 326/103/493 324/101/491 325/101/492
f 325/101/492 327/103/494 326/103/493
f 328/105/495 326/103/493 327/103/494
f 327/103/494 329/105/496 328/105/495
f 189/83/338 291/86/458 250/86/397
f 250/86/397 143/83/270 189/83/338
f 291/86/458 293/88/460 251/88/399
f 251/88/399 250/86/397 291/86/458
f 293/88/460 295/90/462 252/90/401
f 252/90/401 251/88/399 293/88/460
f 295/90/462 297/92/464 253/92/403
f 253/92/403 252/90/401 295/90/462
f 297/92/464 299/94/466 254/94/405
f 254/94/405 253/92/403 297/92/464
f 299/94/466 301/96/468 255/96/407
f 255/96/407 254/94/405 299/94/466
f 301/97/468 303/100/470 256/100/409
f 256/100/409 255/97/407 301/97/468
f 303/100/470 305/102/472 257/102/411
f 257/102/411 256/100/409 303/100/470
f 305/102/472 307/104/474 258/104/413
f 258/104/413 257/102/411 305/102/472
f 307/104/474 309/106/476 259/106/415
f 259/106/415 258/104/413 307/104/474
f 311/85/478 208/84/357 153/84/291
f 153/84/291 260/85/418 311/85/478
f 313/87/480 311/85/478 260/85/418
f 260/85/418 261/87/420 313/87/480
f 315/89/482 313/87/480 261/87/420
f 261/87/420 262/89/422 315/89/482
f 317/91/484 315/89/482 262/89/422
f 262/89/422 263/91/424 317/91/484
f 319/93/486 317/91/484 263/91/424
f 263/91/424 264/93/426 319/93/486
f 321/95/488 319/93/486 264/93/426
f 264/93/426 265/95/428 321/95/488
f 323/99/490 321/98/488 265/98/428
f 265/98/428 266/99/430 323/99/490
f 325/101/492 323/99/490 266/99/430
f 266/99/430 267/101/432 325/101/492
f 327/103/494 325/101/492 267/101/432
f 267/101/432 268/103/434 327/103/494
f 329/105/496 327/103/494 268/103/434
f 268/103/434 269/105/436 329/105/496
f 184/83/333 288/86/455 290/86/457
f 290/86/457 188/83/337 184/83/333
f 288/86/455 286/88/453 292/88/459
f 292/88/459 290/86/457 288/86/455
f 286/88/453 284/90/451 294/90/461
f 294/90/461 292/88/459 286/88/453
f 284/90/451 282/92/449 296/92/463
f 296/92/463 294/90/461 284/90/451
f 282/92/449 280/94/447 298/94/465
f 298/94/465 296/92/463 282/92/449
f 280/94/447 278/96/445 300/96/467
f 300/96/467 298/94/465 280/94/447
f 278/97/445 276/100/443 302/100/469
f 302/100/469 300/97/467 278/97/445
f 276/100/443 274/102/441 304/102/471
f 304/102/471 302/100/469 276/100/443
f 274/102/441 272/104/439 306/104/473
f 306/104/473 304/102/471 274/102/441
f 272/104/439 271/106/438 308/106/475
f 308/106/475 306/104/473 272/104/439
f 289/85/456 185/84/334 209/84/358
f 209/84/358 310/85/477 289/85/456
f 287/87/454 289/85/456 310/85/477
f 310/85/477 312/87/479 287/87/454
f 285/89/452 287/87/454 312/87/479
f 312/87/479 314/89/481 285/89/452
f 283/91/450 285/89/452 314/89/481
f 314/89/481 316/91/483 283/91/450
f 281/93/448 283/91/450 316/91/483
f 316/91/483 318/93/485 281/93/448
f 279/95/446 281/93/448 318/93/485
f 318/93/485 320/95/487 279/95/446
f 277/99/444 279/98/446 320/98/487
f 320/98/487 322/99/489 277/99/444
f 275/101/442 277/99/444 322/99/489
f 322/99/489 324/101/491 275/101/442
f 273/103/440 275/101/442 324/101/491
f 324/101/491 326/103/493 273/103/440
f 270/105/437 273/103/440 326/103/493
f 326/103/493 328/105/495 270/105/437
f 166/87/315 165/96/314 271/106/438
f 271/106/438 270/103/437 166/87/315
f 141/104/268 140/103/267 249/105/396
f 249/105/396 248/85/395 141/104/268
f 152/99/289 141/104/290 248/85/416
f 248/85/416 259/88/415 152/99/289
f 206/83/355 152/99/289 259/88/415
f 259/88/415 309/97/476 206/83/355
f 207/91/356 206/83/355 309/97/476
f 309/97/476 308/83/475 207/91/356
f 165/96/314 207/91/356 308/83/475
f 308/83/475 271/106/438 165/96/314
f 228/88/377 166/87/315 270/103/437
f 270/103/437 328/106/495 228/88/377
f 229/104/378 228/88/377 328/106/495
f 328/106/495 329/89/496 229/104/378
f 163/97/311 229/104/378 329/89/496
f 329/89/496 269/85/436 163/97/311
f 140/103/312 163/97/311 269/85/436
f 269/85/436 249/105/435 140/103/312
f 330/110/497 331/111/498 332/112/499
f 330/110/497 332/112/499 333/113/500
f 330/110/497 333/113/500 334/114/501
f 335/111/502 336/112/502 337/113/503
f 335/111/502 337/113/503 338/114/504
f 335/111/502 338/114/504 339/110/505
f 339/112/506 338/114/507 332/110/507
f 332/110/507 331/111/507 339/112/506
f 338/112/508 337/113/508 333/115/508
f 333/115/508 332/111/508 338/112/508
f 336/112/509 335/114/510 330/110/511
f 330/110/511 334/111/512 336/112/509
f 330/111/513 335/112/513 339/114/514
f 339/114/514 331/110/515 330/111/513
f 337/113/516 336/114/509 334/110/512
f 334/110/512 333/115/516 337/113/516
f 340/110/517 341/111/517 342/112/518
f 342/112/518 343/114/518 340/110/517
f 344/111/519 345/112/520 346/114/520
f 346/114/520 347/110/520 344/111/519
f 348/116/521 349/117/521 350/110/521
f 350/110/521 351/111/522 348/116/521
f 352/116/523 353/117/524 342/110/525
f 342/110/525 341/111/526 352/116/523
f 353/116/527 354/117/527 343/110/528
f 343/110/528 342/111/528 353/116/527
f 354/116/529 355/117/530 340/110/531
f 340/110/531 343/111/532 354/116/529
f 355/116/533 344/112/534 347/114/534
f 347/114/534 352/117/534 355/116/533
f 352/116/523 347/112/535 346/114/535
f 346/114/535 353/117/524 352/116/523
f 353/116/527 346/112/536 345/114/536
f 345/114/536 354/117/527 353/116/527
f 354/116/529 345/112/537 344/114/537
f 344/114/537 355/117/530 354/116/529
f 356/111/538 357/110/539 341/110/517
f 341/110/517 340/111/517 356/111/538
f 341/110/526 357/110/540 358/117/541
f 358/117/541 352/117/523 341/110/526
f 358/117/542 359/116/543 355/116/544
f 355/116/544 352/117/544 358/117/542
f 359/116/545 356/111/546 340/111/531
f 340/111/531 355/116/530 359/116/545
f 356/111/538 351/111/547 350/110/547
f 350/110/547 357/110/539 356/111/538
f 357/110/540 350/110/548 349/117/549
f 349/117/549 358/117/541 357/110/540
f 358/117/542 349/117/550 348/116/551
f 348/116/551 359/116/543 358/117/542
f 356/111/546 359/116/545 348/116/552
f 348/116/552 351/111/553 356/111/546
# 472 faces
