o gripper_l_active_link
# 3ds Max Wavefront OBJ Exporter v0.99 - (c)2007 guruware
# File Created: 28.05.2026 15:39:19

mtllib gripper_l_active_link.mtl

#
# object 2
#

v  -0.023070000112 -0.019312225282 -0.023729739711
v  -0.023070000112 0.067687772214 -0.023729739711
v  -0.016569999978 0.067687772214 -0.023729739711
v  -0.016569999978 -0.019312225282 -0.023729739711
v  -0.023070000112 -0.019312225282 -0.014729738235
v  -0.016569999978 -0.019312225282 -0.014729738235
v  -0.016569999978 0.067687772214 -0.014729738235
v  -0.023070000112 0.067687772214 -0.014729738235
v  0.000000000000 0.016187824309 -0.031229732558
v  -0.004999999888 0.016187824309 -0.031229732558
v  0.000000000000 0.016187813133 -0.024594018236
v  0.000000000000 0.016187710688 0.036770269275
v  0.001000000164 0.016187710688 0.036770269275
v  0.001000000164 0.016187813133 -0.024229731411
v  0.000000000000 -0.012712176889 -0.031229780987
v  0.000000000000 -0.012712277472 0.030183117837
v  -0.004999999888 -0.012712277472 0.030183117837
v  -0.004999999888 -0.012712176889 -0.031229780987
v  0.035999961197 0.011687778868 -0.011479754001
v  0.071000002325 0.023137770593 0.001270281151
v  0.066414847970 0.021637765691 0.004921402782
v  0.035999961197 0.011687769555 -0.006158325821
v  0.071000002325 0.023137753829 0.011270277202
v  0.066414847970 0.021637760103 0.007619153708
v  0.035999961197 0.011687719263 0.024020276964
v  0.035999961197 0.011687728576 0.018698848784
v  0.071000002325 0.025423888117 0.001270283014
v  0.071000002325 0.025423871353 0.011270284653
v  0.056000001729 0.024637779221 -0.004194002599
v  0.056000001729 0.024637743831 0.016734570265
v  0.056229107082 0.021637771279 0.001210881397
v  0.056229107082 0.021637754515 0.011329673231
v  0.000000000000 0.012998883612 0.031813122332
v  0.000000000000 0.012998968363 -0.019272593781
v  0.000000000000 -0.011212170124 -0.033827852458
v  0.000000000000 -0.009712170810 -0.034229774028
v  0.000000000000 0.013187830336 -0.034229736775
v  0.000000000000 -0.012310247868 -0.032729778439
v  0.000000000000 -0.005643613636 -0.024594053626
v  0.000000000000 0.014687828720 -0.033827811480
v  0.000000000000 0.015785902739 -0.032729733735
v  0.000000000000 -0.005643624812 -0.019272625446
v  -0.004999999888 0.015785902739 -0.032729733735
v  -0.004999999888 0.014687828720 -0.033827811480
v  -0.004999999888 0.013187830336 -0.034229736775
v  -0.004999999888 -0.009712170810 -0.034229774028
v  -0.004999999888 -0.011212170124 -0.033827852458
v  -0.004999999888 -0.012310247868 -0.032729778439
v  -0.004999999888 -0.010782968253 0.034840911627
v  -0.004999999888 -0.008645962924 0.036268815398
v  -0.004999999888 -0.006125189364 0.036770232022
v  -0.004999999888 -0.012210868299 0.032703895122
v  -0.004999999888 0.016187710688 0.036770269275
v  0.000000000000 -0.006125189364 0.036770232022
v  0.000000000000 -0.005643717945 0.036770232022
v  0.001000000164 -0.005162287503 0.036770232022
v  0.000000000000 -0.005643710494 0.031813088804
v  0.000000000000 -0.012210868299 0.032703895122
v  0.000000000000 -0.010782968253 0.034840911627
v  0.000000000000 -0.008645962924 0.036268815398
v  -0.004999991506 0.027187775820 -0.023729737848
v  -0.004999999888 0.027187775820 -0.014729734510
v  -0.005000001751 0.010187769309 -0.014729734510
v  -0.005000002682 -0.008712228388 -0.014729734510
v  -0.005000002682 -0.015312224627 -0.014729734510
v  -0.004999997094 -0.018812224269 -0.023729737848
v  -0.016569986939 0.027187781408 -0.023729741573
v  -0.016569996253 -0.018812224269 -0.023729741573
v  -0.016570005566 -0.015312220901 -0.014729739167
v  -0.016569998115 0.027187781408 -0.014729739167
v  -0.012502443977 0.010187771171 -0.014729736373
v  -0.005000012927 0.010187769309 0.021270260215
v  -0.010000013746 0.010187772103 0.021270260215
v  -0.010000015609 -0.008712224662 0.021270260215
v  -0.005000012927 -0.008712228388 0.021270260215
v  -0.012502445839 -0.008712224662 -0.014729736373
v  -0.005000007339 0.010187769309 -0.008772863075
v  -0.005000008270 -0.008712228388 -0.008772863075
v  -0.010000009090 0.010187772103 -0.008772865869
v  -0.010000010021 -0.008712224662 -0.008772865869
v  -0.025000000373 -0.015312217176 -0.014729740098
v  -0.025000000373 -0.018812224269 -0.014729740098
v  -0.025000000373 -0.018812224269 -0.009729742073
v  -0.025000000373 -0.015312217176 -0.009729742073
v  -0.005000004545 -0.015312224627 -0.009729737416
v  -0.005000005476 -0.018812224269 -0.009729737416
v  -0.016570005566 -0.018812224269 -0.014729738235
v  -0.016569999978 0.019531991333 -0.007679738104
v  -0.013570004143 0.019531993195 -0.007679739967
v  -0.013570002280 0.069486781955 -0.007679738104
v  -0.016570003703 0.069486781955 -0.007679738104
v  -0.016570001841 0.019531991333 -0.011979741976
v  -0.013570004143 0.019531993195 -0.011979743838
v  -0.013570003211 0.069486781955 -0.011979742907
v  -0.016570003703 0.069486781955 -0.011979741976
v  -0.016570007429 0.067686781287 -0.017703372985
v  -0.016570005566 0.067686773837 -0.021729741246
v  -0.016570001841 0.041586779058 -0.021729741246
v  -0.016570001841 0.041586782783 -0.011979741976
v  -0.013570005074 0.065686777234 -0.023729737848
v  -0.013570003211 0.067686773837 -0.021729743108
v  -0.013570003211 0.041586782783 -0.021729743108
v  -0.013570005074 0.043586783111 -0.023729737848
v  -0.016570003703 0.065686777234 -0.023729737848
v  -0.016569999978 0.043586783111 -0.023729737848
v  -0.013570002280 0.067686781287 -0.017703376710
v  -0.013570003211 0.041586782783 -0.011979743838
v  -0.013570002280 0.068147391081 -0.014703377150
v  -0.016570007429 0.068147391081 -0.014703376219
v  -0.016570003703 0.068713150918 -0.013290445320
v  -0.013570002280 0.068713150918 -0.013290447183
v  -0.023070001975 0.057586785406 -0.014729740098
v  -0.023070003837 0.067686773837 -0.014729740098
v  -0.016570009291 0.067686781287 -0.014729740098
v  -0.016570007429 0.057586785406 -0.014729740098
v  -0.023070001975 0.057586785406 -0.011729741469
v  -0.016570007429 0.057586785406 -0.011729741469
v  -0.016570009291 0.067686781287 -0.011729741469
v  -0.023070003837 0.067686773837 -0.011729741469
# 119 vertices

vn 0.000000000000 0.000000000000 -0.999999940395
vn 0.000000000000 0.000000000000 -1.000000000000
vn 0.000000000000 0.000000000000 0.999999940395
vn 0.000000000000 0.000000000000 1.000000000000
vn 0.000000000000 -1.000000000000 0.000000000000
vn 1.000000000000 0.000000000000 0.000000000000
vn 0.000000000000 1.000000000000 0.000000000000
vn -1.000000000000 0.000000000000 0.000000000000
vn 0.000000000000 0.991445064545 -0.130524575710
vn 0.000000003659 0.991445064545 -0.130524575710
vn -0.000000160491 1.000000000000 0.000001672441
vn -0.000000003173 1.000000000000 0.000001674397
vn -0.066732771695 0.997770965099 0.000001676876
vn -0.059315521270 0.998239219189 0.000001670426
vn 0.000000000000 -0.991444528103 -0.130528807640
vn 0.000000000000 -0.995184838772 0.098015457392
vn 0.000000000000 -0.995184898376 0.098015457392
vn 0.000000000000 -0.991444528103 -0.130528822541
vn 0.385946065187 -0.922521293163 -0.000001612432
vn 0.310927361250 -0.950433731079 -0.000001514896
vn 0.310927212238 -0.950433790684 -0.000001667326
vn 0.360456854105 -0.932775855064 -0.000001632485
vn 0.310927450657 -0.950433611870 -0.000001630721
vn 0.310927391052 -0.950433611870 -0.000001685025
vn 0.385945945978 -0.922521352768 -0.000001614538
vn 0.360456764698 -0.932775974274 -0.000001614523
vn 0.999999940395 0.000000000000 0.000000000000
vn -0.113241985440 0.993567407131 0.000001676549
vn -0.113241992891 0.993567466736 0.000001678023
vn 0.093000024557 -0.995666146278 -0.000001677642
vn 0.000000205953 -0.999999940395 -0.000002071331
vn 0.000000082200 -1.000000000000 -0.000001874630
vn 0.092999987304 -0.995666086674 -0.000001650125
vn 0.151854649186 -0.988402843475 -0.000001639744
vn 0.151854649186 -0.988402843475 -0.000001639472
vn -0.999999940395 0.000000000000 0.000000000000
vn 0.342281848192 0.000000911861 -0.939597368240
vn 0.342281907797 0.000001547983 -0.939597368240
vn 0.342281848192 0.000001443459 -0.939597368240
vn 0.342281848192 0.000000765550 -0.939597368240
vn 0.342282235622 0.000001529222 -0.939597129822
vn 0.342281907797 0.000001529605 -0.939597308636
vn 0.342282772064 0.000001523152 -0.939597010612
vn 0.433777093887 -0.901020169258 -0.000001871488
vn 0.433777153492 -0.901020288467 -0.000001892290
vn -0.342281967402 -0.000001349105 0.939597308636
vn -0.342281997204 -0.000001376697 0.939597368240
vn -0.342281937599 -0.000001617584 0.939597368240
vn -0.342281818390 -0.000001599961 0.939597308636
vn -0.342281818390 -0.000001595932 0.939597308636
vn 0.000001045607 -0.000001435262 0.999999940395
vn 0.000006916629 -0.000000122290 1.000000000000
vn 0.000000022275 -0.000001696120 1.000000000000
vn 0.000000000000 -0.000001669568 1.000000000000
vn 0.181364461780 -0.000001717695 0.983415961266
vn 0.125682145357 -0.000001706710 0.992070496082
vn 0.342281877995 -0.000001691598 0.939597368240
vn 0.342282295227 -0.000002817567 0.939597189426
vn 0.342281877995 -0.000001814680 0.939597249031
vn 0.342282354832 -0.000003062198 0.939597070217
vn 0.433778226376 -0.901019692421 -0.000001354232
vn 0.433777302504 -0.901020109653 -0.000001125311
vn 0.433777660131 -0.901019930840 -0.000001239174
vn -0.342281877995 0.000001281434 -0.939597308636
vn -0.342281848192 0.000001281649 -0.939597308636
vn -0.342281877995 0.000001340177 -0.939597368240
vn -0.342281877995 0.000001666585 -0.939597368240
vn -0.342281877995 0.000001711326 -0.939597308636
vn 0.000000000000 -0.923880457878 0.382681310177
vn 0.000000000000 -0.923880338669 0.382681310177
vn 0.000000000000 -0.707108139992 0.707105576992
vn 0.000000000000 -0.707108139992 0.707105457783
vn 0.000000000000 -0.382684439421 0.923879146576
vn 0.000000000000 -0.382684469223 0.923879146576
vn 0.000000000000 -0.195091649890 0.980785012245
vn 0.000000000000 -0.195091664791 0.980785012245
vn 0.000000000000 0.130527615547 -0.991444647312
vn 0.000000000000 -0.130524754524 -0.991445004940
vn 0.000000000000 -0.130524754524 -0.991444945335
vn 0.000000000000 0.500001192093 -0.866024672985
vn 0.000000000000 0.866026222706 -0.499998569489
vn 0.000000000000 -0.866024076939 -0.500002324581
vn 0.000000000000 -0.499998688698 -0.866026163101
vn -0.052336048335 0.998629450798 0.000001682821
vn -0.052336066961 0.998629570007 0.000001674083
vn 0.000000000000 -0.000001706389 1.000000000000
vn 0.000000000913 1.000000000000 0.000001669539
vn 0.000000024478 -0.000001743720 1.000000000000
vn 0.000000821507 -0.000001706389 1.000000000000
vn 1.000000000000 -0.000000113259 0.000000924349
vn 1.000000000000 -0.000000109567 0.000000931322
vn 1.000000000000 -0.000000112715 0.000000890029
vn 1.000000000000 -0.000000037860 0.000000663368
vn 1.000000000000 -0.000000008350 0.000000578531
vn 1.000000000000 -0.000000023202 0.000000685839
vn -1.000000000000 0.000000140911 -0.000001300714
vn -1.000000000000 0.000000217486 -0.000001015900
vn -1.000000000000 0.000000222050 -0.000001041773
vn -1.000000000000 0.000000131481 -0.000001345243
vn 0.000000368539 -0.000000008535 -1.000000000000
vn 0.000000362226 -0.000000010123 -1.000000000000
vn 0.000000396160 -0.000000001588 -1.000000000000
vn 0.000000402473 -0.000000000000 -1.000000000000
vn 0.000000482968 1.000000000000 0.000000000001
vn 0.000000482968 0.999999940395 0.000000000001
vn 0.000000482968 1.000000000000 0.000000000000
vn -0.000000361673 0.000000050046 1.000000000000
vn -0.000000444997 0.000000057878 1.000000000000
vn -0.000000540110 0.000000009393 1.000000000000
vn -0.000000248272 0.000000000000 1.000000000000
vn -0.000000319099 -0.000000080512 1.000000000000
vn -0.000000535141 -0.000000052136 1.000000000000
vn -0.000000502479 -0.000000113652 1.000000000000
vn 1.000000000000 -0.000000049276 0.000000938065
vn 0.000000558794 1.000000000000 -0.000000391089
vn 0.000000248272 0.999999940395 0.000000000000
vn 0.000000248272 1.000000000000 0.000000000000
vn -0.921951651573 0.000000045430 0.387304872274
vn -0.921951711178 0.000000045430 0.387304902077
vn -0.921951651573 0.000000045430 0.387304902077
vn -0.921951770782 0.000000090861 0.387304753065
vn -0.921951711178 0.000000090861 0.387304723263
vn -0.921951711178 0.000000090861 0.387304693460
vn -0.000000745058 -1.000000000000 -0.000000000001
vn -0.000000496544 -1.000000000000 0.000000208594
vn 1.000000000000 0.000000000000 0.000000154998
vn 1.000000000000 -0.000000049276 0.000000185997
vn 0.000000558793 1.000000000000 0.000000000000
vn 0.000000558793 0.999999940395 0.000000000000
vn -1.000000000000 0.000000098553 -0.000000154998
vn -1.000000000000 0.000000049276 -0.000000185997
vn -0.000000745058 -1.000000000000 -0.000000000000
vn 1.000000000000 -0.000000266092 0.000000372529
vn 0.999999940395 -0.000000140466 0.000000460467
vn 0.000000220954 -0.000000266092 -1.000000000000
vn 0.000000220954 -0.000000266092 -0.999999940395
vn 0.000000110477 0.000000000000 -1.000000000000
vn 0.000000000000 -0.999999940395 0.000000000000
vn -0.000000232831 0.000000000000 1.000000000000
vn 0.000000321978 1.000000000000 -0.000000202203
vn 0.000000372529 1.000000000000 0.000000000000
vn -1.000000000000 0.000000266092 -0.000001034802
vn 0.000000441909 1.000000000000 0.000000000000
vn 0.000000597174 -0.000000035863 0.999999940395
vn 0.000000620883 -0.000000037287 1.000000000000
vn 0.000000023709 -0.000000001424 1.000000000000
vn 0.000000620882 -0.999999940395 -0.000000000000
vn 0.000000620882 -1.000000000000 0.000000000000
vn 0.000000620882 -1.000000000000 -0.000000000000
vn 0.000000620883 -1.000000000000 -0.000000000000
vn -0.000001241763 0.999999940395 0.000000000000
vn -0.000001241763 1.000000000000 0.000000000000
vn -1.000000000000 -0.000000180190 -0.000000184559
vn -1.000000000000 -0.000000142731 -0.000000571272
vn -1.000000000000 -0.000000193376 -0.000000385742
vn -1.000000000000 -0.000000112995 0.000000078841
vn 1.000000000000 0.000000000000 -0.000000931325
vn 1.000000000000 0.000000000000 -0.000000464645
vn 1.000000000000 -0.000000021471 -0.000000325467
vn -0.000000310441 -0.000000000000 -1.000000000000
vn -0.000000310441 0.000000000000 -1.000000000000
vn -0.000000310441 -0.000000000000 -0.999999940395
vn -1.000000000000 -0.000000143639 -0.000000799532
vn -1.000000000000 -0.000000168565 -0.000001099890
vn 1.000000000000 -0.000000019793 -0.000000097130
vn 1.000000000000 -0.000000035327 0.000000015571
vn -0.000000122507 0.964670538902 -0.263459414244
vn -0.000000105323 0.964670479298 -0.263459265232
vn -0.000000149889 0.928343474865 -0.371723443270
vn -0.000000230796 0.928343474865 -0.371723622084
vn -0.000000219515 0.707106649876 -0.707107007504
vn -0.000000219515 0.707106590271 -0.707106888294
vn 0.000000447254 -0.707105815411 -0.707107841969
vn 0.000000219514 -0.707105875015 -0.707107543945
vn 0.000000430804 -0.707105755806 -0.707107722759
vn 0.000000658544 -0.707105576992 -0.707107961178
vn 0.000000502896 -0.999999940395 0.000000036303
vn 0.000000620882 -0.999999940395 0.000000000000
vn 0.000000117986 -1.000000000000 0.000000154737
vn 0.000000000000 -1.000000000000 0.000000191041
vn -0.000000620882 0.000000000000 -1.000000000000
vn -0.000000588058 0.861178159714 -0.508303403854
vn -0.000001227177 0.861177444458 -0.508304536343
vn -0.000000954715 0.861177623272 -0.508303999901
vn -0.000000315596 0.861178338528 -0.508302867413
vn -0.000000047425 0.997100055218 -0.076100900769
vn -0.000000070874 0.997100114822 -0.076101027429
vn -0.000000000001 1.000000000000 -0.000000925224
vn -0.000000000000 1.000000000000 -0.000000925223
vn -1.000000000000 0.000000000000 0.000000433173
vn -1.000000000000 -0.000000009141 0.000000386286
vn -1.000000000000 -0.000000067522 0.000000004934
vn 1.000000000000 -0.000000041622 0.000000003107
vn 1.000000000000 -0.000000042228 0.000000000000
vn 0.999999940395 -0.000000003630 -0.000000193034
vn -1.000000000000 -0.000000066761 0.000000015675
vn -1.000000000000 -0.000000020008 0.000001007023
vn 1.000000000000 -0.000000012661 0.000000448520
vn 1.000000000000 -0.000000000000 0.000000152218
vn -0.999999940395 -0.000000061838 0.000001448605
vn 1.000000000000 -0.000000034060 0.000000009793
vn 1.000000000000 0.000000184420 0.000000000000
vn -0.000000573122 1.000000000000 0.000000000000
vn -0.999999940395 -0.000000184421 0.000000000000
vn -1.000000000000 -0.000000184421 0.000000000000
# 205 vertex normals

vt 1.000000000000 0.000000000000 0.000000000000
vt 1.000000000000 1.000000000000 0.000000000000
vt 0.000000000000 1.000000000000 0.000000000000
vt 0.000000000000 0.000000000000 0.000000000000
vt 0.012854334898 0.001573259942 0.000000000000
vt 0.007854335010 0.001573259942 0.000000000000
vt 0.012854334898 0.001573248766 0.000000000000
vt 0.012854334898 0.001573146321 0.000000000000
vt 0.013854335062 0.001573146321 0.000000000000
vt 0.013854335062 0.001573248766 0.000000000000
vt 0.012854334898 -0.027326740324 0.000000000000
vt 0.012854334898 -0.027326840907 0.000000000000
vt 0.007854335010 -0.027326840907 0.000000000000
vt 0.007854335010 -0.027326740324 0.000000000000
vt 0.048854295164 -0.002926785499 0.000000000000
vt 0.083854340017 0.008523206227 0.000000000000
vt 0.079269185662 0.007023201324 0.000000000000
vt 0.048854295164 -0.002926794812 0.000000000000
vt 0.083854340017 0.008523189463 0.000000000000
vt 0.079269185662 0.007023195736 0.000000000000
vt 0.048854295164 -0.002926845104 0.000000000000
vt 0.048854295164 -0.002926835790 0.000000000000
vt 0.083854340017 0.010809323750 0.000000000000
vt 0.083854340017 0.010809306987 0.000000000000
vt 0.068854339421 0.010023214854 0.000000000000
vt 0.068854339421 0.010023179464 0.000000000000
vt 0.069083444774 0.007023206912 0.000000000000
vt 0.069083444774 0.007023190148 0.000000000000
vt 0.012854334898 -0.001615680754 0.000000000000
vt 0.012854334898 -0.001615596004 0.000000000000
vt 0.012854334898 -0.025826735422 0.000000000000
vt 0.012854334898 -0.024326734245 0.000000000000
vt 0.012854334898 -0.001426734030 0.000000000000
vt 0.012854334898 -0.026924813166 0.000000000000
vt 0.012854334898 -0.020258178934 0.000000000000
vt 0.012854334898 0.000073264353 0.000000000000
vt 0.012854334898 0.001171338372 0.000000000000
vt 0.012854334898 -0.020258188248 0.000000000000
vt 0.007854335010 0.001171338372 0.000000000000
vt 0.007854335010 0.000073264353 0.000000000000
vt 0.007854335010 -0.001426734030 0.000000000000
vt 0.007854335010 -0.024326734245 0.000000000000
vt 0.007854335010 -0.025826735422 0.000000000000
vt 0.007854335010 -0.026924813166 0.000000000000
vt 0.007854335010 -0.025397531688 0.000000000000
vt 0.007854335010 -0.023260526359 0.000000000000
vt 0.007854335010 -0.020739752799 0.000000000000
vt 0.007854335010 -0.026825431734 0.000000000000
vt 0.007854335010 0.001573146321 0.000000000000
vt 0.012854334898 -0.020739752799 0.000000000000
vt 0.012854334898 -0.020258281380 0.000000000000
vt 0.013854334131 -0.019776852801 0.000000000000
vt 0.012854334898 -0.020258273929 0.000000000000
vt 0.012854334898 -0.026825431734 0.000000000000
vt 0.012854334898 -0.025397531688 0.000000000000
vt 0.012854334898 -0.023260526359 0.000000000000
vt 0.500000000000 1.000000000000 0.000000000000
vt 0.250000000000 1.000000000000 0.000000000000
vt 0.125000000000 1.000000000000 0.000000000000
vt 0.875000000000 1.000000000000 0.000000000000
vt 0.500000000000 0.500000000000 0.000000000000
vt 0.500000000000 0.000000000000 0.000000000000
vt 0.250000000000 0.500000000000 0.000000000000
vt 0.250000000000 0.000000000000 0.000000000000
vt 0.125000000000 0.000000000000 0.000000000000
vt 1.555555105209 -0.000000337607 0.000000000000
vt 1.555554866791 1.728607177734 0.000000000000
vt 1.000000000000 1.728607654572 0.000000000000
vt 0.250000000000 0.312500000000 0.000000000000
vt 0.250000000000 0.250000000000 0.000000000000
vt 0.500000000000 0.250000000000 0.000000000000
vt 0.750000000000 0.000000000000 0.000000000000
vt 0.750000000000 0.250000000000 0.000000000000
vt 0.750000000000 1.000000000000 0.000000000000
vt 0.750000000000 0.312500000000 0.000000000000
vt 0.750000000000 0.249999985099 0.000000000000
vt 1.000000000000 0.500000000000 0.000000000000
vt 0.000000000000 0.500000000000 0.000000000000
vt 0.625000000000 0.124999992549 0.000000000000
vt 0.750000000000 0.500000000000 0.000000000000
vt 0.250000000000 0.375000000000 0.000000000000
vt 0.750000000000 0.375000000000 0.000000000000
# 82 texture coords

usemtl 08___Default
s off
f 1/1/1 2/2/2 3/3/1
f 3/3/1 4/4/2 1/1/1
f 5/4/3 6/1/4 7/2/3
f 7/2/3 8/3/4 5/4/3
f 1/4/5 4/1/5 6/2/5
f 6/2/5 5/3/5 1/4/5
f 4/4/6 3/1/6 7/2/6
f 7/2/6 6/3/6 4/4/6
f 3/4/7 2/1/7 8/2/7
f 8/2/7 7/3/7 3/4/7
f 2/4/8 1/1/8 5/2/8
f 5/2/8 8/3/8 2/4/8
f 9/5/9 10/6/10 11/7/11
f 12/8/12 13/9/13 14/10/14
f 14/10/14 11/7/11 12/8/12
f 15/11/15 16/12/16 17/13/17
f 17/13/17 18/14/18 15/11/15
f 19/15/19 20/16/20 21/17/21
f 21/17/21 22/18/22 19/15/19
f 20/16/20 23/19/23 24/20/24
f 24/20/24 21/17/21 20/16/20
f 23/19/23 25/21/25 26/22/26
f 26/22/26 24/20/24 23/19/23
f 23/19/6 20/16/27 27/23/6
f 27/23/6 28/24/27 23/19/6
f 29/25/28 14/10/14 13/9/13
f 13/9/13 30/26/29 29/25/28
f 31/27/30 21/17/31 24/20/32
f 24/20/32 32/28/33 31/27/30
f 32/28/33 33/29/34 34/30/35
f 34/30/35 31/27/30 32/28/33
f 35/31/6 36/32/6 37/33/6
f 38/34/6 35/31/6 37/33/6
f 15/11/6 38/34/6 37/33/6
f 39/35/6 15/11/6 37/33/6
f 37/33/6 40/36/27 41/37/6
f 37/33/6 41/37/6 9/5/6
f 37/33/6 9/5/6 11/7/27
f 39/35/6 37/33/6 11/7/27
f 15/11/6 39/35/6 42/38/6
f 42/38/6 16/12/6 15/11/6
f 10/6/8 43/39/8 44/40/36
f 10/6/8 44/40/36 45/41/8
f 45/41/8 46/42/8 47/43/8
f 47/43/8 48/44/8 18/14/8
f 45/41/8 47/43/8 18/14/8
f 10/6/8 45/41/8 18/14/8
f 10/6/8 18/14/8 17/13/8
f 49/45/8 50/46/8 51/47/8
f 52/48/8 49/45/8 51/47/8
f 17/13/8 52/48/8 51/47/8
f 10/6/8 17/13/8 51/47/8
f 10/6/8 51/47/8 53/49/8
f 20/16/37 19/15/38 29/25/39
f 29/25/39 27/23/40 20/16/37
f 29/25/39 19/15/38 14/10/41
f 14/10/41 39/35/42 11/7/43
f 19/15/19 22/18/22 42/38/44
f 42/38/44 39/35/45 19/15/19
f 21/17/46 31/27/47 22/18/48
f 22/18/48 34/30/49 42/38/50
f 54/50/51 55/51/52 53/49/53
f 53/49/53 51/47/54 54/50/51
f 13/9/55 56/52/56 25/21/57
f 28/24/58 30/26/59 25/21/57
f 25/21/57 23/19/60 28/24/58
f 25/21/57 30/26/59 13/9/55
f 55/51/61 57/53/62 56/52/63
f 26/22/26 25/21/25 56/52/63
f 56/52/63 57/53/62 26/22/26
f 32/28/64 24/20/65 26/22/66
f 33/29/67 26/22/66 57/53/68
f 26/22/66 33/29/67 32/28/64
f 58/54/69 52/48/70 17/13/17
f 17/13/17 16/12/16 58/54/69
f 59/55/71 49/45/72 52/48/70
f 52/48/70 58/54/69 59/55/71
f 60/56/73 50/46/74 49/45/72
f 49/45/72 59/55/71 60/56/73
f 54/50/75 51/47/76 50/46/74
f 50/46/74 60/56/73 54/50/75
f 37/33/77 36/32/78 46/42/79
f 46/42/79 45/41/77 37/33/77
f 44/40/80 40/36/80 37/33/77
f 37/33/77 45/41/77 44/40/80
f 43/39/81 41/37/81 40/36/80
f 40/36/80 44/40/80 43/39/81
f 10/6/10 9/5/9 41/37/81
f 41/37/81 43/39/81 10/6/10
f 48/44/82 38/34/82 15/11/15
f 15/11/15 18/14/18 48/44/82
f 47/43/83 35/31/83 38/34/82
f 38/34/82 48/44/82 47/43/83
f 46/42/79 36/32/78 35/31/83
f 35/31/83 47/43/83 46/42/79
f 27/23/84 29/25/28 30/26/29
f 30/26/29 28/24/85 27/23/84
f 22/18/48 31/27/47 34/30/49
f 14/10/41 19/15/38 39/35/42
f 57/53/6 55/51/27 54/50/6
f 59/55/6 58/54/6 16/12/6
f 60/56/6 59/55/6 16/12/6
f 54/50/6 60/56/6 16/12/6
f 57/53/6 54/50/6 16/12/6
f 34/30/6 33/29/6 57/53/6
f 57/53/6 42/38/6 34/30/6
f 42/38/6 57/53/6 16/12/6
f 55/51/52 12/8/86 53/49/53
f 11/7/11 10/6/10 53/49/87
f 53/49/87 12/8/12 11/7/11
f 56/52/56 13/9/55 12/8/88
f 12/8/88 55/51/89 56/52/56
f 61/1/90 62/2/91 63/57/92
f 64/58/93 65/59/94 66/4/95
f 63/57/92 64/58/93 66/4/95
f 61/1/90 63/57/92 66/4/95
f 67/4/96 68/1/97 69/60/98
f 69/60/98 70/3/99 67/4/96
f 66/1/100 68/2/101 67/3/102
f 67/3/102 61/4/103 66/1/100
f 61/1/104 67/2/104 70/3/105
f 70/3/105 62/4/106 61/1/104
f 62/1/107 70/2/108 71/61/109
f 71/61/109 63/62/110 62/1/107
f 72/62/4 73/61/3 74/63/4
f 74/63/4 75/64/4 72/62/4
f 65/65/111 64/64/110 76/63/112
f 76/63/112 69/59/113 65/65/111
f 63/62/114 77/62/114 78/64/114
f 78/64/114 64/64/114 63/62/114
f 71/61/115 79/61/115 77/62/115
f 77/62/116 63/62/117 71/61/117
f 76/63/118 80/63/119 79/61/120
f 79/61/121 71/61/122 76/63/123
f 64/64/124 78/64/124 80/63/124
f 80/63/125 76/63/125 64/64/125
f 72/62/126 75/64/126 78/64/126
f 78/64/127 77/62/127 72/62/127
f 73/61/128 72/62/129 77/62/128
f 77/62/128 79/61/129 73/61/128
f 74/63/130 73/61/130 79/61/130
f 79/61/131 80/63/131 74/63/131
f 75/64/132 74/63/132 80/63/132
f 80/63/132 78/64/132 75/64/132
f 71/61/109 70/2/108 69/59/113
f 69/59/113 76/63/112 71/61/109
f 81/59/8 82/3/8 83/3/8
f 83/3/8 84/59/8 81/59/8
f 65/65/94 85/65/133 86/4/134
f 86/4/134 66/4/95 65/65/94
f 69/59/135 87/3/136 82/3/136
f 82/3/137 81/59/137 69/59/137
f 87/2/5 86/66/5 83/67/138
f 83/67/138 82/68/5 87/2/5
f 85/65/139 84/59/139 83/3/139
f 83/3/139 86/4/139 85/65/139
f 65/65/140 69/59/140 84/59/140
f 84/59/141 85/65/141 65/65/141
f 68/1/97 87/2/142 69/60/98
f 69/59/143 81/59/143 84/59/143
f 68/3/5 66/4/5 86/66/5
f 86/66/5 87/2/5 68/3/5
f 88/1/144 89/2/145 90/3/146
f 90/3/146 91/4/4 88/1/144
f 92/62/147 93/57/148 89/3/149
f 89/3/149 88/4/150 92/62/147
f 91/1/151 90/2/152 94/57/152
f 94/57/152 95/62/152 91/1/151
f 96/69/153 97/70/154 98/71/155
f 98/71/155 99/61/156 96/69/153
f 100/72/157 101/73/158 102/71/159
f 102/71/159 103/62/157 100/72/157
f 104/72/160 100/74/161 103/57/160
f 103/57/160 105/62/162 104/72/160
f 104/64/163 105/62/164 98/71/155
f 98/71/155 97/70/154 104/64/163
f 106/75/165 107/61/166 102/71/159
f 102/71/159 101/73/158 106/75/165
f 108/76/167 109/61/168 110/57/169
f 110/57/169 111/77/170 108/76/167
f 97/62/171 101/62/172 100/78/172
f 100/78/172 104/78/172 97/62/171
f 102/62/173 98/57/174 105/2/175
f 105/2/175 103/4/176 102/62/173
f 98/57/177 102/62/178 107/62/179
f 107/62/179 99/77/180 98/57/177
f 93/1/181 92/1/181 99/77/181
f 99/77/181 107/62/181 93/1/181
f 95/2/182 94/4/183 111/77/184
f 111/77/184 110/57/185 95/2/182
f 106/79/186 96/71/187 109/61/168
f 109/61/168 108/76/167 106/79/186
f 101/62/188 97/62/189 96/71/187
f 96/71/187 106/79/186 101/62/188
f 99/61/156 92/77/190 88/2/191
f 88/2/191 91/3/192 99/61/156
f 89/3/193 93/78/194 107/61/166
f 107/61/166 90/2/195 89/3/193
f 99/61/156 95/78/196 110/63/197
f 111/80/198 94/77/199 107/61/166
f 99/61/156 109/81/200 96/69/153
f 106/75/165 108/82/201 107/61/166
f 99/61/156 110/63/197 109/81/200
f 108/82/201 111/80/198 107/61/166
f 99/61/156 91/3/192 95/78/196
f 94/77/199 90/2/195 107/61/166
f 112/1/1 113/2/2 114/3/2
f 114/3/2 115/4/2 112/1/1
f 116/4/3 117/1/4 118/2/4
f 118/2/4 119/3/4 116/4/3
f 112/4/5 115/1/5 117/2/5
f 117/2/5 116/3/5 112/4/5
f 115/4/202 114/1/202 118/2/202
f 118/2/202 117/3/202 115/4/202
f 114/4/203 113/1/203 119/2/203
f 119/2/203 118/3/203 114/4/203
f 113/4/204 112/1/205 116/2/204
f 116/2/204 119/3/205 113/4/204
# 218 faces

#
# object Cylinder001
#

v  -0.003700227244 -0.002973770723 -0.056020226330
v  -0.003700227244 -0.002459653653 -0.052115101367
v  -0.018324812874 -0.002459648065 -0.052115105093
v  -0.018324812874 -0.002973766997 -0.056020226330
v  -0.003700227477 -0.000952332281 -0.048476107419
v  -0.018324814737 -0.000952326693 -0.048476111144
v  -0.003700227011 0.001445470378 -0.045351233333
v  -0.018324812874 0.001445475966 -0.045351237059
v  -0.003700226778 0.004570346326 -0.042953427881
v  -0.018324814737 0.004570350517 -0.042953431606
v  -0.003700225847 0.008209340274 -0.041446108371
v  -0.018324814737 0.008209344000 -0.041446108371
v  -0.003700225381 0.012114462443 -0.040931992233
v  -0.018324811012 0.012114466168 -0.040931988508
v  -0.003700224683 0.016019584611 -0.041446108371
v  -0.018324812874 0.016019590199 -0.041446108371
v  -0.003700224217 0.019658580422 -0.042953427881
v  -0.018324812874 0.019658584148 -0.042953431606
v  -0.003700223519 0.022783454508 -0.045351229608
v  -0.018324809149 0.022783458233 -0.045351229608
v  -0.003700223286 0.023518923670 -0.046309709549
v  -0.018324811012 0.023518931121 -0.046309717000
v  -0.003758445149 -0.002075165510 -0.056020226330
v  -0.003758445848 -0.001591668464 -0.052347678691
v  -0.003758445615 -0.000174117275 -0.048925410956
v  -0.003758444684 0.002080881037 -0.045986644924
v  -0.003758444916 0.005019648932 -0.043731644750
v  -0.003758444218 0.008441915736 -0.042314093560
v  -0.003758443054 0.012114461511 -0.041830595583
v  -0.003758442821 0.015787007287 -0.042314093560
v  -0.003758441890 0.019209276885 -0.043731644750
v  -0.003758441424 0.022148042917 -0.045986641198
v  -0.003758441424 0.022956648842 -0.047040436417
v  -0.018211854622 -0.001588701271 -0.052348472178
v  -0.018211854622 -0.002072096802 -0.056020226330
v  -0.018211856484 -0.000171456486 -0.048926945776
v  -0.018211854622 0.002083052881 -0.045988813043
v  -0.018211858347 0.005021185614 -0.043734300882
v  -0.018211854622 0.008442714810 -0.042317055166
v  -0.018211852759 0.012114467099 -0.041833661497
v  -0.018211852759 0.015786219388 -0.042317055166
v  -0.018211854622 0.019207749516 -0.043734297156
v  -0.018211850896 0.022145882249 -0.045988809317
v  -0.018211852759 0.022954005748 -0.047041971236
v  -0.014500003308 0.021065212786 -0.049717675894
v  -0.007173213642 0.021065205336 -0.049717675894
v  -0.007173214108 0.019915428013 -0.048219256103
v  -0.014500001445 0.019915435463 -0.048219256103
v  -0.007173214573 0.017630578950 -0.046466030180
v  -0.014500006102 0.017630584538 -0.046466030180
v  -0.007173215039 0.014969814569 -0.045363903046
v  -0.014500003308 0.014969820157 -0.045363906771
v  -0.007173215505 0.012114462443 -0.044987991452
v  -0.014500003308 0.012114467099 -0.044987991452
v  -0.007173215970 0.009259111248 -0.045363903046
v  -0.014500003308 0.009259115905 -0.045363906771
v  -0.007173216436 0.006598347332 -0.046466030180
v  -0.014500007965 0.006598351523 -0.046466030180
v  -0.007173216436 0.004313496873 -0.048219259828
v  -0.014500008896 0.004313501529 -0.048219259828
v  -0.007173216902 0.002560267225 -0.050504110754
v  -0.014500007033 0.002560275607 -0.050504110754
v  -0.007173216902 0.001458141953 -0.053164873272
v  -0.014500007033 0.001458150335 -0.053164873272
v  -0.007173216902 0.001082229428 -0.056020226330
v  -0.014500007033 0.001082235947 -0.056020226330
v  -0.005652218591 0.000341106206 -0.056020226330
v  -0.005652219057 0.000742270611 -0.052973054349
v  -0.004502267577 -0.000500757247 -0.052639987320
v  -0.004502267577 -0.000945771113 -0.056020226330
v  -0.005652219057 0.001918434165 -0.050133548677
v  -0.004502268042 0.000803966075 -0.049490109086
v  -0.005652218591 0.003789443057 -0.047695204616
v  -0.004502267577 0.002879483625 -0.046785246581
v  -0.005652218591 0.006227785256 -0.045824199915
v  -0.004502267111 0.005584346596 -0.044709727168
v  -0.005652218126 0.009067293257 -0.044648036361
v  -0.004502266645 0.008734224364 -0.043405003846
v  -0.005652217660 0.012114462443 -0.044246867299
v  -0.004502266180 0.012114461511 -0.042959991843
v  -0.005652217194 0.015161630698 -0.044648036361
v  -0.004502265714 0.015494698659 -0.043405003846
v  -0.005652216263 0.018001139164 -0.045824196190
v  -0.004502264317 0.018644578755 -0.044709727168
v  -0.005652216263 0.020439483225 -0.047695204616
v  -0.004502264317 0.021349441260 -0.046785242856
v  -0.005652215797 0.021502356976 -0.049080368131
v  -0.004502264317 0.022266648710 -0.047980573028
v  -0.016123313457 0.000749470666 -0.052974984050
v  -0.016123313457 0.000348556787 -0.056020226330
v  -0.017388029024 -0.000945765525 -0.056020226330
v  -0.017388029024 -0.000500747934 -0.052639991045
v  -0.016123315319 0.001924891025 -0.050137270242
v  -0.017388030887 0.000803975388 -0.049490109086
v  -0.016123315319 0.003794712946 -0.047700472176
v  -0.017388030887 0.002879489213 -0.046785246581
v  -0.016123315319 0.006231512409 -0.045830644667
v  -0.017388032749 0.005584351718 -0.044709730893
v  -0.016123309731 0.009069224820 -0.044655226171
v  -0.017388029024 0.008734229952 -0.043405007571
v  -0.016123309731 0.012114468031 -0.044254310429
v  -0.017388027161 0.012114467099 -0.042959991843
v  -0.016123309731 0.015159711242 -0.044655226171
v  -0.017388027161 0.015494705178 -0.043405007571
v  -0.016123313457 0.017997425050 -0.045830644667
v  -0.017388029024 0.018644584343 -0.044709730893
v  -0.016123307869 0.020434223115 -0.047700468451
v  -0.017388025299 0.021349446848 -0.046785242856
v  -0.016123309731 0.021495919675 -0.049084093422
v  -0.017388027161 0.022266658023 -0.047980576754
v  -0.018324812874 -0.002459648065 -0.059925351292
v  -0.003700227011 -0.002459653653 -0.059925351292
v  -0.018324814737 -0.000952326693 -0.063564345241
v  -0.003700226778 -0.000952332281 -0.063564345241
v  -0.018324812874 0.001445475966 -0.066689223051
v  -0.003700226080 0.001445470378 -0.066689223051
v  -0.018324812874 0.004570350517 -0.069087021053
v  -0.003700225614 0.004570346326 -0.069087021053
v  -0.018324812874 0.008209344000 -0.070594348013
v  -0.003700224450 0.008209340274 -0.070594348013
v  -0.018324811012 0.012114466168 -0.071108467877
v  -0.003700224217 0.012114462443 -0.071108460426
v  -0.018324811012 0.016019590199 -0.070594348013
v  -0.003700223519 0.016019584611 -0.070594348013
v  -0.018324811012 0.019658584148 -0.069087028503
v  -0.003700223053 0.019658580422 -0.069087028503
v  -0.018324809149 0.022783458233 -0.066689223051
v  -0.003700222587 0.022783454508 -0.066689223051
v  -0.018324811012 0.023518931121 -0.065730735660
v  -0.003700222587 0.023518923670 -0.065730743110
v  -0.003758445382 -0.001591668464 -0.059692773968
v  -0.003758445149 -0.000174117275 -0.063115045428
v  -0.003758443985 0.002080881037 -0.066053807735
v  -0.003758443752 0.005019648932 -0.068308807909
v  -0.003758442821 0.008441915736 -0.069726362824
v  -0.003758441890 0.012114461511 -0.070209853351
v  -0.003758441657 0.015787007287 -0.069726362824
v  -0.003758440726 0.019209276885 -0.068308807909
v  -0.003758440726 0.022148042917 -0.066053815186
v  -0.003758440493 0.022956648842 -0.065000019968
v  -0.018211854622 -0.001588701271 -0.059691980481
v  -0.018211856484 -0.000171456486 -0.063113510609
v  -0.018211854622 0.002083052881 -0.066051647067
v  -0.018211856484 0.005021185614 -0.068306155503
v  -0.018211852759 0.008442714810 -0.069723397493
v  -0.018211852759 0.012114467099 -0.070206791162
v  -0.018211850896 0.015786219388 -0.069723397493
v  -0.018211852759 0.019207749516 -0.068306155503
v  -0.018211850896 0.022145882249 -0.066051647067
v  -0.018211852759 0.022954005748 -0.064998485148
v  -0.007173213176 0.019915428013 -0.063821196556
v  -0.007173213176 0.021065205336 -0.062322780490
v  -0.014500002377 0.021065212786 -0.062322776765
v  -0.014500000514 0.019915435463 -0.063821196556
v  -0.007173213642 0.017630578950 -0.065574422479
v  -0.014500005171 0.017630584538 -0.065574422479
v  -0.007173214108 0.014969814569 -0.066676549613
v  -0.014500002377 0.014969820157 -0.066676549613
v  -0.007173214573 0.012114462443 -0.067052461207
v  -0.014500002377 0.012114467099 -0.067052461207
v  -0.007173215039 0.009259111248 -0.066676549613
v  -0.014500002377 0.009259115905 -0.066676549613
v  -0.007173215505 0.006598347332 -0.065574422479
v  -0.014500007033 0.006598351523 -0.065574422479
v  -0.007173215970 0.004313496873 -0.063821196556
v  -0.014500007965 0.004313501529 -0.063821196556
v  -0.007173216436 0.002560267225 -0.061536345631
v  -0.014500006102 0.002560275607 -0.061536341906
v  -0.007173216436 0.001458141953 -0.058875579387
v  -0.014500007033 0.001458150335 -0.058875579387
v  -0.004502267577 -0.000500757247 -0.059400465339
v  -0.005652218591 0.000742270611 -0.059067398310
v  -0.004502267577 0.000803966075 -0.062550343573
v  -0.005652218591 0.001918434165 -0.061906903982
v  -0.004502266645 0.002879483625 -0.065255209804
v  -0.005652218126 0.003789443057 -0.064345248044
v  -0.004502266180 0.005584346596 -0.067330725491
v  -0.005652217660 0.006227785256 -0.066216252744
v  -0.004502265714 0.008734224364 -0.068635448813
v  -0.005652217194 0.009067293257 -0.067392416298
v  -0.004502264783 0.012114461511 -0.069080457091
v  -0.005652216729 0.012114462443 -0.067793585360
v  -0.004502264317 0.015494698659 -0.068635448813
v  -0.005652216263 0.015161630698 -0.067392416298
v  -0.004502263386 0.018644578755 -0.067330725491
v  -0.005652215332 0.018001139164 -0.066216252744
v  -0.004502263851 0.021349441260 -0.065255209804
v  -0.005652215332 0.020439483225 -0.064345248044
v  -0.004502263386 0.022266648710 -0.064059883356
v  -0.005652215332 0.021502356976 -0.062960088253
v  -0.016123313457 0.000749470666 -0.059065468609
v  -0.017388029024 -0.000500747934 -0.059400465339
v  -0.016123315319 0.001924891025 -0.061903182417
v  -0.017388030887 0.000803975388 -0.062550343573
v  -0.016123313457 0.003794712946 -0.064339980483
v  -0.017388030887 0.002879489213 -0.065255209804
v  -0.016123313457 0.006231512409 -0.066209807992
v  -0.017388030887 0.005584351718 -0.067330725491
v  -0.016123309731 0.009069224820 -0.067385226488
v  -0.017388027161 0.008734229952 -0.068635448813
v  -0.016123309731 0.012114468031 -0.067786142230
v  -0.017388027161 0.012114467099 -0.069080464542
v  -0.016123307869 0.015159711242 -0.067385226488
v  -0.017388025299 0.015494705178 -0.068635448813
v  -0.016123311594 0.017997425050 -0.066209807992
v  -0.017388027161 0.018644584343 -0.067330725491
v  -0.016123307869 0.020434223115 -0.064339987934
v  -0.017388025299 0.021349446848 -0.065255209804
v  -0.016123309731 0.021495919675 -0.062956362963
v  -0.017388027161 0.022266658023 -0.064059875906
v  -0.018211858347 0.008781115524 -0.041769299656
v  -0.018500000238 0.004335083067 -0.032229747623
v  -0.015250000171 0.002516932786 -0.028229756281
v  -0.012000000104 0.002516931854 -0.028229756281
v  -0.012000000104 0.008781114593 -0.041769299656
v  -0.018211858347 0.006141256541 -0.042563013732
v  -0.012000000104 0.006141256541 -0.042563013732
v  -0.012000000104 -0.000489043072 -0.028229758143
v  -0.015250000171 -0.000489042141 -0.028229758143
v  -0.018499998376 0.001329108141 -0.032229747623
v  -0.012000000104 0.015187830664 -0.034229762852
v  -0.012000000104 0.015187826008 -0.025229731575
v  -0.005000000820 0.015187826008 -0.025229731575
v  -0.005000001285 0.015187831596 -0.034229762852
v  -0.012000000104 -0.012712175027 -0.034229770303
v  -0.005000000820 -0.012712176889 -0.034229770303
v  -0.005000000820 -0.012712176889 -0.025229733437
v  -0.012000000104 -0.012712178752 -0.025229733437
v  -0.005000000820 0.015187832527 -0.042617261410
v  -0.005000000820 0.004127573222 -0.045440971851
v  -0.012000000104 0.004127573222 -0.045440971851
v  -0.012000000104 0.015187831596 -0.042617261410
v  -0.005000000820 -0.004086531699 -0.025229731575
v  -0.005000000820 -0.004086529836 -0.034229766577
v  -0.012000000104 -0.004086532630 -0.025229731575
v  -0.012000000104 -0.004086530767 -0.034229766577
# 236 vertices

vn -0.000000358003 -1.000000000000 -0.000000000000
vn -0.000000400592 -0.965925872326 0.258819013834
vn -0.000000400592 -0.965925812721 0.258818984032
vn -0.000000423722 -0.866025209427 0.500000178814
vn -0.000000423722 -0.866025328636 0.500000238419
vn -0.000000356621 -0.707106888294 0.707106649876
vn -0.000000245721 -0.500000357628 0.866025149822
vn -0.000000245721 -0.500000417233 0.866025149822
vn -0.000000104295 -0.258819103241 0.965925872326
vn 0.000000020984 -0.000000009568 1.000000000000
vn 0.000000020984 0.000000014352 1.000000000000
vn 0.000000063148 0.258818894625 0.965925812721
vn 0.000000063148 0.258818924427 0.965925872326
vn 0.000000108301 0.500000059605 0.866025388241
vn 0.000000219555 0.707106649876 0.707106888294
vn 0.000000219555 0.707106769085 0.707106828690
vn 0.000000471370 0.946929991245 0.321439713240
vn 0.000000471370 0.946930110455 0.321439415216
vn 0.997907876968 0.064651817083 0.000000043297
vn 0.954406142235 0.298511326313 0.000000040499
vn 0.954406261444 0.288339614868 -0.077260240912
vn 0.997907936573 0.062448903918 -0.016733085737
vn 0.954406201839 0.258518069983 -0.149255752563
vn 0.997907936573 0.055989958346 -0.032325912267
vn 0.954406201839 0.211079150438 -0.211079299450
vn 0.997907996178 0.045715406537 -0.045715525746
vn 0.954406261444 0.149255484343 -0.258518010378
vn 0.997907996178 0.032325651497 -0.055989895016
vn 0.954406261444 0.077260062099 -0.288339436054
vn 0.997907996178 0.016732865945 -0.062448665500
vn 0.954406201839 -0.000000146955 -0.298511028290
vn 0.997907996178 -0.000000140269 -0.064651429653
vn 0.954406261444 -0.077260352671 -0.288339316845
vn 0.997907936573 -0.016733150929 -0.062448386103
vn 0.954406261444 -0.149255618453 -0.258517920971
vn 0.997907936573 -0.032325819135 -0.055989608169
vn 0.954406201839 -0.211079329252 -0.211079165339
vn 0.997907876968 -0.045715514570 -0.045715309680
vn 0.953666865826 -0.280851811171 -0.107896730304
vn 0.997437059879 -0.065317623317 -0.029207130894
vn -0.992244064808 0.120069466531 -0.032172776759
vn -0.936445891857 0.338858246803 -0.090797096491
vn -0.936445891857 0.350811988115 -0.000000040933
vn -0.992244064808 0.124305181205 -0.000000042080
vn -0.992244064808 0.107651494443 -0.062152598053
vn -0.936445891857 0.303812146187 -0.175406038761
vn -0.992244064808 0.087896689773 -0.087896600366
vn -0.936446070671 0.248061329126 -0.248061284423
vn -0.992244184017 0.062152359635 -0.107651062310
vn -0.936446011066 0.175406113267 -0.303811788559
vn -0.992244005203 0.032173112035 -0.120069868863
vn -0.936445891857 0.090797454119 -0.338858425617
vn -0.992244005203 0.000000168121 -0.124306127429
vn -0.936445713043 0.000000156218 -0.350812613964
vn -0.992244005203 -0.032172862440 -0.120070479810
vn -0.936445713043 -0.090797044337 -0.338858902454
vn -0.992244005203 -0.062152512372 -0.107651978731
vn -0.936445772648 -0.175406023860 -0.303812503815
vn -0.992244064808 -0.087897159159 -0.087896689773
vn -0.936445832253 -0.248061850667 -0.248061567545
vn -0.990516364574 -0.125461563468 -0.056005422026
vn -0.930829942226 -0.344435125589 -0.122147656977
vn -0.177971005440 -0.940841972828 -0.288344830275
vn 0.190844386816 -0.939073085785 -0.285867720842
vn 0.228966653347 -0.688321888447 -0.688322186470
vn -0.214350476861 -0.690671086311 -0.690671682358
vn 0.228966772556 -0.486717075109 -0.843018829823
vn -0.214350804687 -0.488378435373 -0.845896124840
vn 0.228966921568 -0.251943171024 -0.940265297890
vn -0.214350566268 -0.252803355455 -0.943474531174
vn 0.228966981173 -0.000000010805 -0.973434209824
vn -0.214350432158 0.000000046942 -0.976756751537
vn 0.228967174888 0.251943290234 -0.940265238285
vn -0.214350134134 0.252803564072 -0.943474590778
vn 0.228967279196 0.486717522144 -0.843018531799
vn -0.214350223541 0.488378971815 -0.845895886421
vn 0.228967353702 0.688321828842 -0.688321948051
vn -0.214349925518 0.690671622753 -0.690671324730
vn 0.228967651725 0.843018293381 -0.486717402935
vn -0.214349597692 0.845896244049 -0.488378703594
vn 0.228967711329 0.940265178680 -0.251943111420
vn -0.214349702001 0.943474829197 -0.252803415060
vn 0.228967487812 0.973434031010 0.000000002782
vn -0.214349836111 0.976756989956 -0.000000014178
vn 0.611003518105 0.791627824306 0.000000024309
vn 0.611003696918 0.764653682709 -0.204887986183
vn 0.795498907566 0.585307776928 -0.156832471490
vn 0.795498728752 0.605955123901 0.000000034772
vn 0.611003756523 0.685569465160 -0.395814299583
vn 0.795498847961 0.524772405624 -0.302977919579
vn 0.611003518105 0.559765338898 -0.559765696526
vn 0.795498669147 0.428474903107 -0.428475141525
vn 0.611003637314 0.395814150572 -0.685569643974
vn 0.795498847961 0.302977710962 -0.524772346020
vn 0.611003577709 0.204888179898 -0.764653801918
vn 0.795498847961 0.156832441688 -0.585307598114
vn 0.611003458500 -0.000000099545 -0.791627943516
vn 0.795498728752 -0.000000135545 -0.605955243111
vn 0.611003458500 -0.204888269305 -0.764653921127
vn 0.795498788357 -0.156832709908 -0.585307657719
vn 0.611003279686 -0.395813971758 -0.685569941998
vn 0.795498788357 -0.302977740765 -0.524772524834
vn 0.611003220081 -0.559765577316 -0.559765577316
vn 0.795498549938 -0.428475230932 -0.428475171328
vn 0.539643585682 -0.806365430355 -0.241990521550
vn 0.735867023468 -0.649152994156 -0.192614242435
vn -0.580811440945 0.786300361156 -0.210688814521
vn -0.580811560154 0.814038038254 -0.000000030181
vn -0.766048073769 0.642783284187 -0.000000040616
vn -0.766048073769 0.620880901814 -0.166364908218
vn -0.580811381340 0.704977691174 -0.407019257545
vn -0.766048014164 0.556666553020 -0.321391791105
vn -0.580811381340 0.575612127781 -0.575611710548
vn -0.766048014164 0.454516530037 -0.454516381025
vn -0.580811321735 0.407019793987 -0.704977333546
vn -0.766047835350 0.321392327547 -0.556666553020
vn -0.580811262131 0.210689172149 -0.786300420761
vn -0.766047835350 0.166365280747 -0.620881080627
vn -0.580811262131 0.000000130574 -0.814038157463
vn -0.766047835350 0.000000141444 -0.642783641815
vn -0.580811500549 -0.210688784719 -0.786300241947
vn -0.766047835350 -0.166364729404 -0.620881259441
vn -0.580811679363 -0.407018989325 -0.704977512360
vn -0.766047835350 -0.321391820908 -0.556666910648
vn -0.580811202526 -0.575611650944 -0.575612187386
vn -0.766047775745 -0.454516649246 -0.454516708851
vn -0.509428620338 -0.823740124702 -0.248866885900
vn -0.702292203903 -0.682059407234 -0.203913524747
vn -0.000000377965 -0.965925812721 -0.258818984032
vn -0.000000377965 -0.965925872326 -0.258818984032
vn -0.000000380011 -0.866025328636 -0.500000238419
vn -0.000000380011 -0.866025209427 -0.500000238419
vn -0.000000294803 -0.707106828690 -0.707106649876
vn -0.000000170508 -0.500000417233 -0.866025209427
vn -0.000000170508 -0.500000417233 -0.866025090218
vn -0.000000020349 -0.258819103241 -0.965925872326
vn -0.000000020349 -0.258819103241 -0.965925753117
vn 0.000000108407 0.000000014352 -1.000000000000
vn 0.000000108407 -0.000000009568 -1.000000000000
vn 0.000000147592 0.258818924427 -0.965925872326
vn 0.000000147592 0.258818894625 -0.965925812721
vn 0.000000184011 0.500000059605 -0.866025388241
vn 0.000000281372 0.707106769085 -0.707106769085
vn 0.000000281372 0.707106709480 -0.707106769085
vn 0.000000499471 0.946930170059 -0.321439415216
vn 0.000000499471 0.946930050850 -0.321439713240
vn 0.954406261444 0.288339614868 0.077260322869
vn 0.997907936573 0.062448907644 0.016733173281
vn 0.954406201839 0.258518129587 0.149255841970
vn 0.997907936573 0.055989973247 0.032326009125
vn 0.954406142235 0.211079165339 0.211079388857
vn 0.997907876968 0.045715406537 0.045715615153
vn 0.954406201839 0.149255499244 0.258518069983
vn 0.997907936573 0.032325651497 0.055989991874
vn 0.954406261444 0.077260062099 0.288339495659
vn 0.997907996178 0.016732867807 0.062448762357
vn 0.954406201839 -0.000000146955 0.298511117697
vn 0.997907996178 -0.000000140269 0.064651511610
vn 0.954406261444 -0.077260345221 0.288339346647
vn 0.997907936573 -0.016733150929 0.062448471785
vn 0.954406201839 -0.149255603552 0.258517980576
vn 0.997907936573 -0.032325819135 0.055989701301
vn 0.954406142235 -0.211079299450 0.211079239845
vn 0.997907876968 -0.045715514570 0.045715402812
vn 0.953666865826 -0.280851811171 0.107896819711
vn 0.997437059879 -0.065317623317 0.029207216576
vn -0.936445891857 0.338858246803 0.090797021985
vn -0.992244064808 0.120069466531 0.032172687352
vn -0.936445951462 0.303812146187 0.175405964255
vn -0.992244064808 0.107651509345 0.062152512372
vn -0.936446070671 0.248061344028 0.248061209917
vn -0.992244064808 0.087896689773 0.087896503508
vn -0.936446070671 0.175406143069 0.303811728954
vn -0.992244184017 0.062152370811 0.107650972903
vn -0.936445891857 0.090797454119 0.338858366013
vn -0.992244005203 0.032173112035 0.120069779456
vn -0.936445713043 0.000000157435 0.350812554359
vn -0.992244005203 0.000000168768 0.124306030571
vn -0.936445713043 -0.090797044337 0.338858842850
vn -0.992244005203 -0.032172862440 0.120070382953
vn -0.936445832253 -0.175406023860 0.303812474012
vn -0.992244005203 -0.062152512372 0.107651889324
vn -0.936445891857 -0.248061850667 0.248061493039
vn -0.992244064808 -0.087897166610 0.087896607816
vn -0.930829942226 -0.344435125589 0.122147582471
vn -0.990516364574 -0.125461563468 0.056005332619
vn 0.228966593742 -0.688321888447 0.688322126865
vn 0.190844357014 -0.939073085785 0.285867750645
vn -0.177971035242 -0.940841972828 0.288344830275
vn -0.214350506663 -0.690671026707 0.690671682358
vn 0.228966698050 -0.486717045307 0.843018829823
vn -0.214350879192 -0.488378435373 0.845896124840
vn 0.228966832161 -0.251943200827 0.940265297890
vn -0.214350655675 -0.252803385258 0.943474531174
vn 0.228966891766 -0.000000013214 0.973434209824
vn -0.214350536466 0.000000046942 0.976756751537
vn 0.228967100382 0.251943290234 0.940265238285
vn -0.214350223541 0.252803564072 0.943474590778
vn 0.228967189789 0.486717522144 0.843018531799
vn -0.214350342751 0.488378971815 0.845895886421
vn 0.228967279196 0.688321828842 0.688321888447
vn -0.214349985123 0.690671682358 0.690671324730
vn 0.228967621922 0.843018293381 0.486717402935
vn -0.214349642396 0.845896244049 0.488378703594
vn 0.228967696428 0.940265178680 0.251943111420
vn -0.214349716902 0.943474829197 0.252803385258
vn 0.795498847961 0.585307717323 0.156832531095
vn 0.611003696918 0.764653623104 0.204888045788
vn 0.795498788357 0.524772405624 0.302977979183
vn 0.611003756523 0.685569465160 0.395814359188
vn 0.795498669147 0.428474903107 0.428475201130
vn 0.611003398895 0.559765279293 0.559765636921
vn 0.795498788357 0.302977710962 0.524772465229
vn 0.611003577709 0.395814150572 0.685569643974
vn 0.795498788357 0.156832441688 0.585307717323
vn 0.611003577709 0.204888179898 0.764653742313
vn 0.795498728752 -0.000000135545 0.605955302715
vn 0.611003339291 -0.000000094747 0.791627943516
vn 0.795498728752 -0.156832709908 0.585307776928
vn 0.611003398895 -0.204888299108 0.764653921127
vn 0.795498669147 -0.302977740765 0.524772644043
vn 0.611003220081 -0.395814031363 0.685569941998
vn 0.795498549938 -0.428475230932 0.428475230932
vn 0.611003160477 -0.559765636921 0.559765636921
vn 0.735867023468 -0.649152994156 0.192614302039
vn 0.539643585682 -0.806365489960 0.241990610957
vn -0.580811440945 0.786300361156 0.210688754916
vn -0.766048014164 0.620880901814 0.166364833713
vn -0.580811381340 0.704977691174 0.407019197941
vn -0.766048073769 0.556666553020 0.321391731501
vn -0.580811440945 0.575612127781 0.575611710548
vn -0.766048073769 0.454516530037 0.454516321421
vn -0.580811440945 0.407019793987 0.704977333546
vn -0.766047894955 0.321392357349 0.556666433811
vn -0.580811321735 0.210689172149 0.786300301552
vn -0.766047894955 0.166365295649 0.620880961418
vn -0.580811381340 0.000000132970 0.814038157463
vn -0.766047835350 0.000000141444 0.642783522606
vn -0.580811560154 -0.210688799620 0.786300241947
vn -0.766047894955 -0.166364729404 0.620881140232
vn -0.580811679363 -0.407018989325 0.704977512360
vn -0.766047894955 -0.321391820908 0.556666791439
vn -0.580811321735 -0.575611710548 0.575612246990
vn -0.766047835350 -0.454516649246 0.454516738653
vn -0.509428679943 -0.823740124702 0.248866885900
vn -0.702292203903 -0.682059407234 0.203913465142
vn -0.002489629667 0.907361865044 0.420343160629
vn -0.002489629434 0.907361745834 0.420343101025
vn -0.002489629667 0.907361865044 0.420343130827
vn 0.002456105314 -0.907402694225 -0.420255303383
vn 0.002456105314 -0.907402575016 -0.420255303383
vn 0.002456105081 -0.907402575016 -0.420255273581
vn 0.002456105081 -0.907402575016 -0.420255243778
vn 0.002456105314 -0.907402634621 -0.420255303383
vn 1.000000000000 0.000000005195 0.000000021245
vn 0.999999940395 0.000000005195 0.000000021245
vn -0.000000043711 -0.000000619648 1.000000000000
vn -0.999622523785 0.003824547399 -0.027205931023
vn -0.999622464180 0.003824546933 -0.027205929160
vn -0.912460386753 0.001513453550 0.409162282944
vn -0.971542775631 0.002517355140 0.236850857735
vn -0.000000027415 0.287932276726 -0.957650780678
vn -0.000000027415 0.287932276726 -0.957650721073
vn -0.776113331318 -0.000000306510 0.630593359470
vn -0.000000036649 1.000000000000 0.000000569140
vn -0.000000036648 0.999999940395 0.000000569139
vn 0.000000103172 -1.000000000000 -0.000000206960
vn 0.000000103172 -0.999999940395 -0.000000206960
vn -0.000000008403 0.247367814183 -0.968921601772
vn -0.000000008403 0.247367814183 -0.968921661377
vn 1.000000000000 -0.000000005883 -0.000000033898
vn 1.000000000000 -0.000000003423 -0.000000020964
vn 0.999999940395 -0.000000003423 -0.000000020964
vn 0.999999940395 -0.000000005883 -0.000000033898
vn -0.000000043711 0.000000000000 1.000000000000
vn -0.000000043711 -0.000000107971 1.000000000000
vn -0.999999940395 -0.000000006197 0.000000008028
vn -0.999999940395 -0.000000002617 0.000000008029
vn -1.000000000000 -0.000000002617 0.000000008028
vn -1.000000000000 -0.000000006197 0.000000008028
vn 0.000000043711 0.000000215943 -1.000000000000
vn 0.000000043711 0.000000215943 -0.999999940395
vn 0.999999940395 -0.000000000964 -0.000000008029
vn 1.000000000000 -0.000000000964 -0.000000008029
vn -0.000000043711 -0.000000215943 1.000000000000
vn -0.999999940395 0.000000000964 0.000000008029
vn -1.000000000000 0.000000000964 0.000000008029
vn -0.000000036648 1.000000000000 0.000000166555
vn -0.000000036648 0.999999940395 0.000000166555
vn 1.000000000000 0.000000005984 0.000000043222
vn 0.999999940395 0.000000005984 0.000000043222
vn 0.000000043988 -0.806660413742 -0.591015219688
vn -1.000000000000 -0.000000022887 -0.000000026547
# 293 vertex normals

vt 0.750000000000 0.000000000000 0.000000000000
vt 0.791666626930 0.000000000000 0.000000000000
vt 0.791666626930 1.000000000000 0.000000000000
vt 0.750000000000 1.000000000000 0.000000000000
vt 0.833333313465 0.000000000000 0.000000000000
vt 0.833333313465 1.000000000000 0.000000000000
vt 0.875000000000 0.000000000000 0.000000000000
vt 0.875000000000 1.000000000000 0.000000000000
vt 0.916666686535 0.000000000000 0.000000000000
vt 0.916666686535 1.000000000000 0.000000000000
vt 0.958333313465 0.000000000000 0.000000000000
vt 0.958333313465 1.000000000000 0.000000000000
vt 0.999999940395 0.000000000000 0.000000000000
vt 0.999999940395 1.000000000000 0.000000000000
vt -0.000000059605 0.000000000000 0.000000000000
vt 0.041666656733 0.000000000000 0.000000000000
vt 0.041666656733 1.000000000000 0.000000000000
vt -0.000000059605 1.000000000000 0.000000000000
vt 0.083333313465 0.000000000000 0.000000000000
vt 0.083333313465 1.000000000000 0.000000000000
vt 0.124999970198 0.000000000000 0.000000000000
vt 0.124999970198 1.000000000000 0.000000000000
vt 0.166666626930 0.000000000000 0.000000000000
vt 0.166666626930 1.000000000000 0.000000000000
vt 0.708333253860 0.000000000000 0.000000000000
vt 0.666666567326 0.000000000000 0.000000000000
vt 0.624999880791 0.000000000000 0.000000000000
vt 1.000000000000 0.000000000000 0.000000000000
vt 1.000000000000 1.000000000000 0.000000000000
vt 0.500000000000 1.000000000000 0.000000000000
vt 0.000000000000 1.000000000000 0.000000000000
vt 0.000000000000 0.000000000000 0.000000000000
vt 0.500000000000 0.000000000000 0.000000000000
vt 1.000000000000 0.500000000000 0.000000000000
vt 0.000000000000 0.500000000000 0.000000000000
# 35 texture coords

usemtl 08___Default
s off
f 120/83/206 121/84/207 122/85/208
f 122/85/208 123/86/206 120/83/206
f 121/84/207 124/87/209 125/88/210
f 125/88/210 122/85/208 121/84/207
f 124/87/209 126/89/211 127/90/211
f 127/90/211 125/88/210 124/87/209
f 126/89/211 128/91/212 129/92/213
f 129/92/213 127/90/211 126/89/211
f 128/91/212 130/93/214 131/94/214
f 131/94/214 129/92/213 128/91/212
f 130/93/214 132/95/215 133/96/216
f 133/96/216 131/94/214 130/93/214
f 132/97/215 134/98/217 135/99/218
f 135/99/218 133/100/216 132/97/215
f 134/98/217 136/101/219 137/102/219
f 137/102/219 135/99/218 134/98/217
f 136/101/219 138/103/220 139/104/221
f 139/104/221 137/102/219 136/101/219
f 138/103/220 140/105/222 141/106/223
f 141/106/223 139/104/221 138/103/220
f 120/83/224 142/83/225 143/84/226
f 143/84/226 121/84/227 120/83/224
f 121/84/227 143/84/226 144/87/228
f 144/87/228 124/87/229 121/84/227
f 124/87/229 144/87/228 145/89/230
f 145/89/230 126/89/231 124/87/229
f 126/89/231 145/89/230 146/91/232
f 146/91/232 128/91/233 126/89/231
f 128/91/233 146/91/232 147/93/234
f 147/93/234 130/93/235 128/91/233
f 130/93/235 147/93/234 148/95/236
f 148/95/236 132/95/237 130/93/235
f 132/97/237 148/97/236 149/98/238
f 149/98/238 134/98/239 132/97/237
f 134/98/239 149/98/238 150/101/240
f 150/101/240 136/101/241 134/98/239
f 136/101/241 150/101/240 151/103/242
f 151/103/242 138/103/243 136/101/241
f 138/103/243 151/103/242 152/105/244
f 152/105/244 140/105/245 138/103/243
f 122/85/246 153/85/247 154/86/248
f 154/86/248 123/86/249 122/85/246
f 125/88/250 155/88/251 153/85/247
f 153/85/247 122/85/246 125/88/250
f 127/90/252 156/90/253 155/88/251
f 155/88/251 125/88/250 127/90/252
f 129/92/254 157/92/255 156/90/253
f 156/90/253 127/90/252 129/92/254
f 131/94/256 158/94/257 157/92/255
f 157/92/255 129/92/254 131/94/256
f 133/96/258 159/96/259 158/94/257
f 158/94/257 131/94/256 133/96/258
f 135/99/260 160/99/261 159/100/259
f 159/100/259 133/100/258 135/99/260
f 137/102/262 161/102/263 160/99/261
f 160/99/261 135/99/260 137/102/262
f 139/104/264 162/104/265 161/102/263
f 161/102/263 137/102/262 139/104/264
f 141/106/266 163/106/267 162/104/265
f 162/104/265 139/104/264 141/106/266
f 164/99/268 165/98/269 166/97/270
f 166/97/270 167/96/271 164/99/268
f 167/96/271 166/97/270 168/95/272
f 168/95/272 169/94/273 167/96/271
f 169/94/273 168/95/272 170/93/274
f 170/93/274 171/92/275 169/94/273
f 171/92/275 170/93/274 172/91/276
f 172/91/276 173/90/277 171/92/275
f 173/90/277 172/91/276 174/89/278
f 174/89/278 175/88/279 173/90/277
f 175/88/279 174/89/278 176/87/280
f 176/87/280 177/86/281 175/88/279
f 177/86/281 176/87/280 178/84/282
f 178/84/282 179/85/283 177/86/281
f 179/85/283 178/84/282 180/83/284
f 180/83/284 181/107/285 179/85/283
f 181/107/285 180/83/284 182/100/286
f 182/100/286 183/108/287 181/107/285
f 183/108/287 182/100/286 184/97/288
f 184/97/288 185/109/289 183/108/287
f 186/83/290 187/84/291 188/84/292
f 188/84/292 189/83/293 186/83/290
f 187/84/291 190/87/294 191/87/295
f 191/87/295 188/84/292 187/84/291
f 190/87/294 192/89/296 193/89/297
f 193/89/297 191/87/295 190/87/294
f 192/89/296 194/91/298 195/91/299
f 195/91/299 193/89/297 192/89/296
f 194/91/298 196/93/300 197/93/301
f 197/93/301 195/91/299 194/91/298
f 196/93/300 198/95/302 199/95/303
f 199/95/303 197/93/301 196/93/300
f 198/97/302 200/98/304 201/98/305
f 201/98/305 199/97/303 198/97/302
f 200/98/304 202/101/306 203/101/307
f 203/101/307 201/98/305 200/98/304
f 202/101/306 204/103/308 205/103/309
f 205/103/309 203/101/307 202/101/306
f 204/103/308 206/105/310 207/105/311
f 207/105/311 205/103/309 204/103/308
f 208/85/312 209/86/313 210/86/314
f 210/86/314 211/85/315 208/85/312
f 212/88/316 208/85/312 211/85/315
f 211/85/315 213/88/317 212/88/316
f 214/90/318 212/88/316 213/88/317
f 213/88/317 215/90/319 214/90/318
f 216/92/320 214/90/318 215/90/319
f 215/90/319 217/92/321 216/92/320
f 218/94/322 216/92/320 217/92/321
f 217/92/321 219/94/323 218/94/322
f 220/96/324 218/94/322 219/94/323
f 219/94/323 221/96/325 220/96/324
f 222/99/326 220/100/324 221/100/325
f 221/100/325 223/99/327 222/99/326
f 224/102/328 222/99/326 223/99/327
f 223/99/327 225/102/329 224/102/328
f 226/104/330 224/102/328 225/102/329
f 225/102/329 227/104/331 226/104/330
f 228/106/332 226/104/330 227/104/331
f 227/104/331 229/106/333 228/106/332
f 189/83/293 188/84/292 143/84/226
f 143/84/226 142/83/225 189/83/293
f 188/84/292 191/87/295 144/87/228
f 144/87/228 143/84/226 188/84/292
f 191/87/295 193/89/297 145/89/230
f 145/89/230 144/87/228 191/87/295
f 193/89/297 195/91/299 146/91/232
f 146/91/232 145/89/230 193/89/297
f 195/91/299 197/93/301 147/93/234
f 147/93/234 146/91/232 195/91/299
f 197/93/301 199/95/303 148/95/236
f 148/95/236 147/93/234 197/93/301
f 199/97/303 201/98/305 149/98/238
f 149/98/238 148/97/236 199/97/303
f 201/98/305 203/101/307 150/101/240
f 150/101/240 149/98/238 201/98/305
f 203/101/307 205/103/309 151/103/242
f 151/103/242 150/101/240 203/101/307
f 205/103/309 207/105/311 152/105/244
f 152/105/244 151/103/242 205/103/309
f 211/85/315 210/86/314 154/86/248
f 154/86/248 153/85/247 211/85/315
f 213/88/317 211/85/315 153/85/247
f 153/85/247 155/88/251 213/88/317
f 215/90/319 213/88/317 155/88/251
f 155/88/251 156/90/253 215/90/319
f 217/92/321 215/90/319 156/90/253
f 156/90/253 157/92/255 217/92/321
f 219/94/323 217/92/321 157/92/255
f 157/92/255 158/94/257 219/94/323
f 221/96/325 219/94/323 158/94/257
f 158/94/257 159/96/259 221/96/325
f 223/99/327 221/100/325 159/100/259
f 159/100/259 160/99/261 223/99/327
f 225/102/329 223/99/327 160/99/261
f 160/99/261 161/102/263 225/102/329
f 227/104/331 225/102/329 161/102/263
f 161/102/263 162/104/265 227/104/331
f 229/106/333 227/104/331 162/104/265
f 162/104/265 163/106/267 229/106/333
f 184/83/288 182/84/286 187/84/291
f 187/84/291 186/83/290 184/83/288
f 182/84/286 180/87/284 190/87/294
f 190/87/294 187/84/291 182/84/286
f 180/87/284 178/89/282 192/89/296
f 192/89/296 190/87/294 180/87/284
f 178/89/282 176/91/280 194/91/298
f 194/91/298 192/89/296 178/89/282
f 176/91/280 174/93/278 196/93/300
f 196/93/300 194/91/298 176/91/280
f 174/93/278 172/95/276 198/95/302
f 198/95/302 196/93/300 174/93/278
f 172/97/276 170/98/274 200/98/304
f 200/98/304 198/97/302 172/97/276
f 170/98/274 168/101/272 202/101/306
f 202/101/306 200/98/304 170/98/274
f 168/101/272 166/103/270 204/103/308
f 204/103/308 202/101/306 168/101/272
f 166/103/270 165/105/269 206/105/310
f 206/105/310 204/103/308 166/103/270
f 183/85/287 185/86/289 209/86/313
f 209/86/313 208/85/312 183/85/287
f 181/88/285 183/85/287 208/85/312
f 208/85/312 212/88/316 181/88/285
f 179/90/283 181/88/285 212/88/316
f 212/88/316 214/90/318 179/90/283
f 177/92/281 179/90/283 214/90/318
f 214/90/318 216/92/320 177/92/281
f 175/94/279 177/92/281 216/92/320
f 216/92/320 218/94/322 175/94/279
f 173/96/277 175/94/279 218/94/322
f 218/94/322 220/96/324 173/96/277
f 171/99/275 173/100/277 220/100/324
f 220/100/324 222/99/326 171/99/275
f 169/102/273 171/99/275 222/99/326
f 222/99/326 224/102/328 169/102/273
f 167/104/271 169/102/273 224/102/328
f 224/102/328 226/104/330 167/104/271
f 164/106/268 167/104/271 226/104/330
f 226/104/330 228/106/332 164/106/268
f 120/83/206 123/86/206 230/85/334
f 230/85/334 231/84/335 120/83/206
f 231/84/335 230/85/334 232/88/336
f 232/88/336 233/87/337 231/84/335
f 233/87/337 232/88/336 234/90/338
f 234/90/338 235/89/338 233/87/337
f 235/89/338 234/90/338 236/92/339
f 236/92/339 237/91/340 235/89/338
f 237/91/340 236/92/339 238/94/341
f 238/94/341 239/93/342 237/91/340
f 239/93/342 238/94/341 240/96/343
f 240/96/343 241/95/344 239/93/342
f 241/97/344 240/100/343 242/99/345
f 242/99/345 243/98/346 241/97/344
f 243/98/346 242/99/345 244/102/347
f 244/102/347 245/101/347 243/98/346
f 245/101/347 244/102/347 246/104/348
f 246/104/348 247/103/349 245/101/347
f 247/103/349 246/104/348 248/106/350
f 248/106/350 249/105/351 247/103/349
f 250/84/352 142/83/225 120/83/224
f 120/83/224 231/84/353 250/84/352
f 251/87/354 250/84/352 231/84/353
f 231/84/353 233/87/355 251/87/354
f 252/89/356 251/87/354 233/87/355
f 233/87/355 235/89/357 252/89/356
f 253/91/358 252/89/356 235/89/357
f 235/89/357 237/91/359 253/91/358
f 254/93/360 253/91/358 237/91/359
f 237/91/359 239/93/361 254/93/360
f 255/95/362 254/93/360 239/93/361
f 239/93/361 241/95/363 255/95/362
f 256/98/364 255/97/362 241/97/363
f 241/97/363 243/98/365 256/98/364
f 257/101/366 256/98/364 243/98/365
f 243/98/365 245/101/367 257/101/366
f 258/103/368 257/101/366 245/101/367
f 245/101/367 247/103/369 258/103/368
f 259/105/370 258/103/368 247/103/369
f 247/103/369 249/105/371 259/105/370
f 154/86/248 260/85/372 230/85/373
f 230/85/373 123/86/249 154/86/248
f 260/85/372 261/88/374 232/88/375
f 232/88/375 230/85/373 260/85/372
f 261/88/374 262/90/376 234/90/377
f 234/90/377 232/88/375 261/88/374
f 262/90/376 263/92/378 236/92/379
f 236/92/379 234/90/377 262/90/376
f 263/92/378 264/94/380 238/94/381
f 238/94/381 236/92/379 263/92/378
f 264/94/380 265/96/382 240/96/383
f 240/96/383 238/94/381 264/94/380
f 265/100/382 266/99/384 242/99/385
f 242/99/385 240/100/383 265/100/382
f 266/99/384 267/102/386 244/102/387
f 244/102/387 242/99/385 266/99/384
f 267/102/386 268/104/388 246/104/389
f 246/104/389 244/102/387 267/102/386
f 268/104/388 269/106/390 248/106/391
f 248/106/391 246/104/389 268/104/388
f 270/97/392 271/98/393 272/99/394
f 272/99/394 273/96/395 270/97/392
f 274/95/396 270/97/392 273/96/395
f 273/96/395 275/94/397 274/95/396
f 276/93/398 274/95/396 275/94/397
f 275/94/397 277/92/399 276/93/398
f 278/91/400 276/93/398 277/92/399
f 277/92/399 279/90/401 278/91/400
f 280/89/402 278/91/400 279/90/401
f 279/90/401 281/88/403 280/89/402
f 282/87/404 280/89/402 281/88/403
f 281/88/403 283/86/405 282/87/404
f 284/84/406 282/87/404 283/86/405
f 283/86/405 285/85/407 284/84/406
f 286/83/408 284/84/406 285/85/407
f 285/85/407 287/107/409 286/83/408
f 288/100/410 286/83/408 287/107/409
f 287/107/409 289/108/411 288/100/410
f 184/97/288 288/100/410 289/108/411
f 289/108/411 185/109/289 184/97/288
f 290/84/412 291/84/413 186/83/290
f 186/83/290 189/83/293 290/84/412
f 292/87/414 293/87/415 291/84/413
f 291/84/413 290/84/412 292/87/414
f 294/89/416 295/89/417 293/87/415
f 293/87/415 292/87/414 294/89/416
f 296/91/418 297/91/419 295/89/417
f 295/89/417 294/89/416 296/91/418
f 298/93/420 299/93/421 297/91/419
f 297/91/419 296/91/418 298/93/420
f 300/95/422 301/95/423 299/93/421
f 299/93/421 298/93/420 300/95/422
f 302/98/424 303/98/425 301/97/423
f 301/97/423 300/97/422 302/98/424
f 304/101/426 305/101/427 303/98/425
f 303/98/425 302/98/424 304/101/426
f 306/103/428 307/103/429 305/101/427
f 305/101/427 304/101/426 306/103/428
f 308/105/430 309/105/431 307/103/429
f 307/103/429 306/103/428 308/105/430
f 210/86/314 209/86/313 310/85/432
f 310/85/432 311/85/433 210/86/314
f 311/85/433 310/85/432 312/88/434
f 312/88/434 313/88/435 311/85/433
f 313/88/435 312/88/434 314/90/436
f 314/90/436 315/90/437 313/88/435
f 315/90/437 314/90/436 316/92/438
f 316/92/438 317/92/439 315/90/437
f 317/92/439 316/92/438 318/94/440
f 318/94/440 319/94/441 317/92/439
f 319/94/441 318/94/440 320/96/442
f 320/96/442 321/96/443 319/94/441
f 321/100/443 320/100/442 322/99/444
f 322/99/444 323/99/445 321/100/443
f 323/99/445 322/99/444 324/102/446
f 324/102/446 325/102/447 323/99/445
f 325/102/447 324/102/446 326/104/448
f 326/104/448 327/104/449 325/102/447
f 327/104/449 326/104/448 328/106/450
f 328/106/450 329/106/451 327/104/449
f 250/84/352 290/84/412 189/83/293
f 189/83/293 142/83/225 250/84/352
f 251/87/354 292/87/414 290/84/412
f 290/84/412 250/84/352 251/87/354
f 252/89/356 294/89/416 292/87/414
f 292/87/414 251/87/354 252/89/356
f 253/91/358 296/91/418 294/89/416
f 294/89/416 252/89/356 253/91/358
f 254/93/360 298/93/420 296/91/418
f 296/91/418 253/91/358 254/93/360
f 255/95/362 300/95/422 298/93/420
f 298/93/420 254/93/360 255/95/362
f 256/98/364 302/98/424 300/97/422
f 300/97/422 255/97/362 256/98/364
f 257/101/366 304/101/426 302/98/424
f 302/98/424 256/98/364 257/101/366
f 258/103/368 306/103/428 304/101/426
f 304/101/426 257/101/366 258/103/368
f 259/105/370 308/105/430 306/103/428
f 306/103/428 258/103/368 259/105/370
f 154/86/248 210/86/314 311/85/433
f 311/85/433 260/85/372 154/86/248
f 260/85/372 311/85/433 313/88/435
f 313/88/435 261/88/374 260/85/372
f 261/88/374 313/88/435 315/90/437
f 315/90/437 262/90/376 261/88/374
f 262/90/376 315/90/437 317/92/439
f 317/92/439 263/92/378 262/90/376
f 263/92/378 317/92/439 319/94/441
f 319/94/441 264/94/380 263/92/378
f 264/94/380 319/94/441 321/96/443
f 321/96/443 265/96/382 264/94/380
f 265/100/382 321/100/443 323/99/445
f 323/99/445 266/99/384 265/100/382
f 266/99/384 323/99/445 325/102/447
f 325/102/447 267/102/386 266/99/384
f 267/102/386 325/102/447 327/104/449
f 327/104/449 268/104/388 267/102/386
f 268/104/388 327/104/449 329/106/451
f 329/106/451 269/106/390 268/104/388
f 291/84/413 288/84/410 184/83/288
f 184/83/288 186/83/290 291/84/413
f 293/87/415 286/87/408 288/84/410
f 288/84/410 291/84/413 293/87/415
f 295/89/417 284/89/406 286/87/408
f 286/87/408 293/87/415 295/89/417
f 297/91/419 282/91/404 284/89/406
f 284/89/406 295/89/417 297/91/419
f 299/93/421 280/93/402 282/91/404
f 282/91/404 297/91/419 299/93/421
f 301/95/423 278/95/400 280/93/402
f 280/93/402 299/93/421 301/95/423
f 303/98/425 276/98/398 278/97/400
f 278/97/400 301/97/423 303/98/425
f 305/101/427 274/101/396 276/98/398
f 276/98/398 303/98/425 305/101/427
f 307/103/429 270/103/392 274/101/396
f 274/101/396 305/101/427 307/103/429
f 309/105/431 271/105/393 270/103/392
f 270/103/392 307/103/429 309/105/431
f 209/86/313 185/86/289 289/85/411
f 289/85/411 310/85/432 209/86/313
f 310/85/432 289/85/411 287/88/409
f 287/88/409 312/88/434 310/85/432
f 312/88/434 287/88/409 285/90/407
f 285/90/407 314/90/436 312/88/434
f 314/90/436 285/90/407 283/92/405
f 283/92/405 316/92/438 314/90/436
f 316/92/438 283/92/405 281/94/403
f 281/94/403 318/94/440 316/92/438
f 318/94/440 281/94/403 279/96/401
f 279/96/401 320/96/442 318/94/440
f 320/100/442 279/100/401 277/99/399
f 277/99/399 322/99/444 320/100/442
f 322/99/444 277/99/399 275/102/397
f 275/102/397 324/102/446 322/99/444
f 324/102/446 275/102/397 273/104/395
f 273/104/395 326/104/448 324/102/446
f 326/104/448 273/104/395 272/106/394
f 272/106/394 328/106/450 326/104/448
f 271/105/393 165/95/269 164/88/268
f 164/88/268 272/104/394 271/105/393
f 248/106/350 141/104/223 140/103/222
f 140/103/222 249/85/351 248/106/350
f 249/85/371 140/103/245 152/99/244
f 152/99/244 259/87/370 249/85/371
f 259/87/370 152/99/244 207/83/311
f 207/83/311 308/97/430 259/87/370
f 308/97/430 207/83/311 206/92/310
f 206/92/310 309/83/431 308/97/430
f 309/83/431 206/92/310 165/95/269
f 165/95/269 271/105/393 309/83/431
f 272/104/394 164/88/268 228/87/332
f 228/87/332 328/105/450 272/104/394
f 328/105/450 228/87/332 229/103/333
f 229/103/333 329/90/451 328/105/450
f 329/90/451 229/103/333 163/97/267
f 163/97/267 269/85/390 329/90/451
f 269/85/390 163/97/267 141/104/266
f 141/104/266 248/106/391 269/85/390
f 330/110/452 331/111/452 332/112/453
f 330/110/452 332/112/453 333/113/454
f 330/110/452 333/113/454 334/114/454
f 335/114/455 336/110/456 337/111/457
f 335/114/455 337/111/457 338/112/458
f 335/114/455 338/112/458 339/113/459
f 333/110/460 337/111/460 336/113/461
f 336/113/461 334/114/461 333/110/460
f 332/115/462 338/112/462 337/113/462
f 337/113/462 333/114/462 332/115/462
f 330/110/463 335/111/464 339/113/465
f 339/113/465 331/114/466 330/110/463
f 330/114/467 334/110/468 336/111/467
f 336/111/467 335/113/467 330/114/467
f 331/110/466 339/111/465 338/112/469
f 338/112/469 332/115/469 331/110/466
f 340/110/470 341/111/471 342/113/470
f 342/113/470 343/114/471 340/110/470
f 344/114/472 345/110/472 346/111/472
f 346/111/472 347/113/473 344/114/472
f 348/110/474 349/116/475 350/117/474
f 350/117/474 351/114/474 348/110/474
f 342/110/476 352/116/477 353/117/478
f 353/117/478 343/114/479 342/110/476
f 341/110/480 354/116/481 352/117/481
f 352/117/481 342/114/480 341/110/480
f 340/110/482 355/116/483 354/117/484
f 354/117/484 341/114/485 340/110/482
f 345/111/486 344/113/487 355/117/487
f 355/117/487 353/116/486 345/111/486
f 346/111/488 345/113/489 353/117/478
f 353/117/478 352/116/477 346/111/488
f 347/111/490 346/113/490 352/117/481
f 352/117/481 354/116/481 347/111/490
f 344/111/491 347/113/492 354/117/484
f 354/117/484 355/116/483 344/111/491
f 340/114/493 343/110/493 348/110/493
f 348/110/493 351/114/494 340/114/493
f 343/110/495 353/116/495 349/116/495
f 349/116/495 348/110/496 343/110/495
f 353/116/497 355/117/497 350/117/497
f 350/117/497 349/116/497 353/116/497
f 355/117/498 340/114/498 351/114/498
f 351/114/498 350/117/498 355/117/498
# 464 faces
